G04*
G04 #@! TF.GenerationSoftware,Altium Limited,Altium Designer,24.9.1 (31)*
G04*
G04 Layer_Color=255*
%FSLAX44Y44*%
%MOMM*%
G71*
G04*
G04 #@! TF.SameCoordinates,A601D634-93CA-4805-8520-E3EE879C7AED*
G04*
G04*
G04 #@! TF.FilePolarity,Positive*
G04*
G01*
G75*
%ADD48R,2.4130X5.0800*%
%ADD67R,0.6000X1.0500*%
%ADD137C,0.9906*%
%ADD153R,1.0000X1.0000*%
%ADD154C,1.0000*%
%ADD155R,1.5500X1.5500*%
%ADD156C,1.5500*%
%ADD157C,1.8000*%
%ADD160C,1.3890*%
%ADD161R,1.3890X1.3890*%
%ADD186R,1.8000X1.8000*%
%ADD187C,2.3000*%
%ADD188C,2.2000*%
%ADD189O,0.8500X1.1500*%
%ADD190O,0.9000X1.5500*%
%ADD191O,1.4000X0.9000*%
%ADD192C,0.8500*%
%ADD193C,0.4000*%
%ADD194C,0.6000*%
%ADD195R,3.2000X2.6000*%
%ADD196R,1.8000X1.8000*%
%ADD197C,2.6000*%
%ADD198C,1.3080*%
%ADD199R,1.3080X1.3080*%
%ADD200C,2.1000*%
%ADD201C,6.0000*%
%ADD202C,2.3749*%
G04:AMPARAMS|DCode=229|XSize=0.3mm|YSize=0.3mm|CornerRadius=0.0495mm|HoleSize=0mm|Usage=FLASHONLY|Rotation=270.000|XOffset=0mm|YOffset=0mm|HoleType=Round|Shape=RoundedRectangle|*
%AMROUNDEDRECTD229*
21,1,0.3000,0.2010,0,0,270.0*
21,1,0.2010,0.3000,0,0,270.0*
1,1,0.0990,-0.1005,-0.1005*
1,1,0.0990,-0.1005,0.1005*
1,1,0.0990,0.1005,0.1005*
1,1,0.0990,0.1005,-0.1005*
%
%ADD229ROUNDEDRECTD229*%
D48*
X1207135Y971550D02*
D03*
X1294765D02*
D03*
D67*
X1440500Y519430D02*
D03*
X1459500D02*
D03*
D137*
X41910Y811530D02*
D03*
X92710Y821690D02*
D03*
Y801370D02*
D03*
D153*
X596250Y507000D02*
D03*
D154*
X608750D02*
D03*
X621250D02*
D03*
X633750D02*
D03*
X646250D02*
D03*
X658750D02*
D03*
X671250D02*
D03*
X683750D02*
D03*
D155*
X1251000Y39000D02*
D03*
D156*
X375000Y425000D02*
D03*
Y450000D02*
D03*
Y400000D02*
D03*
X230000D02*
D03*
Y450000D02*
D03*
X1251000Y64400D02*
D03*
Y89800D02*
D03*
Y115200D02*
D03*
Y140600D02*
D03*
Y166000D02*
D03*
Y191400D02*
D03*
D157*
X386600Y955000D02*
D03*
X361200D02*
D03*
X335800D02*
D03*
X310400D02*
D03*
X285000D02*
D03*
X259600D02*
D03*
X234200D02*
D03*
X50000Y424600D02*
D03*
Y450000D02*
D03*
Y475400D02*
D03*
Y255800D02*
D03*
Y230400D02*
D03*
Y205000D02*
D03*
X550000Y965000D02*
D03*
X524600D02*
D03*
X1212250Y40000D02*
D03*
X1050000Y360000D02*
D03*
X1419860Y162560D02*
D03*
D160*
X1127760Y574040D02*
D03*
X1153160D02*
D03*
D161*
X1178560D02*
D03*
D186*
X208800Y955000D02*
D03*
X575400Y965000D02*
D03*
D187*
X435180Y939530D02*
D03*
X165620Y561300D02*
D03*
Y939760D02*
D03*
X434860Y561300D02*
D03*
D188*
X950000Y55000D02*
D03*
Y335000D02*
D03*
X550000D02*
D03*
Y55000D02*
D03*
D189*
X1408250Y536000D02*
D03*
D190*
X1418250Y540050D02*
D03*
Y459950D02*
D03*
D191*
X1421750Y543300D02*
D03*
Y456700D02*
D03*
X1480250D02*
D03*
Y543300D02*
D03*
D192*
X1408250Y464000D02*
D03*
D193*
X1414750Y496000D02*
D03*
Y504000D02*
D03*
D194*
Y488000D02*
D03*
Y472000D02*
D03*
Y512000D02*
D03*
Y528000D02*
D03*
X1421750Y492000D02*
D03*
Y484000D02*
D03*
Y476000D02*
D03*
Y508000D02*
D03*
Y516000D02*
D03*
Y524000D02*
D03*
D195*
X300000Y482000D02*
D03*
Y368000D02*
D03*
D196*
X50000Y399200D02*
D03*
Y179600D02*
D03*
X1394460Y162560D02*
D03*
D197*
X239976Y132408D02*
D03*
X370024D02*
D03*
Y207592D02*
D03*
X305000Y94816D02*
D03*
X239976Y207592D02*
D03*
D198*
X1429600Y800260D02*
D03*
D199*
Y820260D02*
D03*
D200*
X1235710Y474980D02*
D03*
X901700Y598170D02*
D03*
X1346200Y161290D02*
D03*
X1013460Y427990D02*
D03*
D201*
X1450000Y50000D02*
D03*
Y950000D02*
D03*
X50000D02*
D03*
Y50000D02*
D03*
D202*
X41910Y836930D02*
D03*
Y786130D02*
D03*
X73660Y836930D02*
D03*
Y786130D02*
D03*
D229*
X1443160Y502610D02*
D03*
X1434660Y499110D02*
D03*
X1443160Y495610D02*
D03*
M02*
