G04*
G04 #@! TF.GenerationSoftware,Altium Limited,Altium Designer,24.9.1 (31)*
G04*
G04 Layer_Color=32896*
%FSLAX44Y44*%
%MOMM*%
G71*
G04*
G04 #@! TF.SameCoordinates,A601D634-93CA-4805-8520-E3EE879C7AED*
G04*
G04*
G04 #@! TF.FilePolarity,Positive*
G04*
G01*
G75*
G36*
X49657Y760032D02*
X34163D01*
Y786130D01*
X49657D01*
Y760032D01*
D02*
G37*
G36*
X81407D02*
X65913D01*
Y786130D01*
X81407D01*
Y760032D01*
D02*
G37*
G36*
X49657Y836930D02*
X34163D01*
Y863028D01*
X49657D01*
Y836930D01*
D02*
G37*
G36*
X81407D02*
X65913D01*
Y863028D01*
X81407D01*
Y836930D01*
D02*
G37*
G36*
X1991850Y689422D02*
X1992174D01*
X1992544Y689376D01*
X1993423Y689191D01*
X1994395Y688959D01*
X1995413Y688589D01*
X1996431Y688034D01*
X1996940Y687710D01*
X1997403Y687340D01*
X1997449Y687293D01*
X1997496Y687247D01*
X1997635Y687108D01*
X1997773Y686969D01*
X1998005Y686738D01*
X1998190Y686460D01*
X1998699Y685812D01*
X1999208Y684979D01*
X1999671Y683961D01*
X2000087Y682804D01*
X2000365Y681508D01*
X1996431Y681184D01*
Y681231D01*
X1996385Y681277D01*
X1996339Y681555D01*
X1996200Y681971D01*
X1996015Y682480D01*
X1995830Y683036D01*
X1995552Y683591D01*
X1995228Y684100D01*
X1994904Y684517D01*
X1994812Y684609D01*
X1994626Y684794D01*
X1994303Y685072D01*
X1993840Y685396D01*
X1993238Y685674D01*
X1992590Y685951D01*
X1991803Y686136D01*
X1990970Y686229D01*
X1990647D01*
X1990276Y686183D01*
X1989860Y686090D01*
X1989304Y685951D01*
X1988749Y685766D01*
X1988194Y685535D01*
X1987638Y685164D01*
X1987546Y685118D01*
X1987314Y684933D01*
X1986990Y684609D01*
X1986574Y684146D01*
X1986111Y683591D01*
X1985602Y682943D01*
X1985139Y682110D01*
X1984677Y681184D01*
Y681138D01*
X1984630Y681046D01*
X1984584Y680907D01*
X1984491Y680722D01*
X1984445Y680444D01*
X1984353Y680120D01*
X1984260Y679750D01*
X1984167Y679287D01*
X1984029Y678778D01*
X1983936Y678223D01*
X1983844Y677621D01*
X1983797Y676973D01*
X1983705Y676233D01*
X1983658Y675492D01*
X1983612Y674659D01*
Y673826D01*
X1983658Y673873D01*
X1983844Y674150D01*
X1984167Y674520D01*
X1984584Y674983D01*
X1985047Y675538D01*
X1985648Y676048D01*
X1986296Y676557D01*
X1987037Y677019D01*
X1987083D01*
X1987129Y677066D01*
X1987407Y677205D01*
X1987823Y677343D01*
X1988379Y677575D01*
X1989027Y677760D01*
X1989767Y677899D01*
X1990554Y678038D01*
X1991387Y678084D01*
X1991757D01*
X1992035Y678038D01*
X1992405Y677991D01*
X1992775Y677945D01*
X1993238Y677852D01*
X1993701Y677714D01*
X1994765Y677390D01*
X1995321Y677158D01*
X1995876Y676834D01*
X1996431Y676510D01*
X1997033Y676140D01*
X1997588Y675677D01*
X1998097Y675168D01*
X1998144Y675122D01*
X1998236Y675029D01*
X1998375Y674891D01*
X1998514Y674659D01*
X1998745Y674335D01*
X1998977Y674011D01*
X1999208Y673595D01*
X1999486Y673132D01*
X1999763Y672623D01*
X1999995Y672068D01*
X2000226Y671420D01*
X2000458Y670772D01*
X2000596Y670078D01*
X2000735Y669291D01*
X2000828Y668504D01*
X2000874Y667671D01*
Y667625D01*
Y667532D01*
Y667393D01*
Y667162D01*
X2000828Y666884D01*
Y666607D01*
X2000689Y665866D01*
X2000550Y664987D01*
X2000319Y664061D01*
X1999995Y663043D01*
X1999532Y662071D01*
Y662025D01*
X1999486Y661979D01*
X1999393Y661840D01*
X1999301Y661655D01*
X1999023Y661192D01*
X1998606Y660590D01*
X1998097Y659942D01*
X1997496Y659295D01*
X1996755Y658647D01*
X1995968Y658091D01*
X1995922D01*
X1995876Y658045D01*
X1995737Y657953D01*
X1995552Y657906D01*
X1995089Y657675D01*
X1994488Y657443D01*
X1993701Y657166D01*
X1992822Y656981D01*
X1991850Y656796D01*
X1990785Y656749D01*
X1990554D01*
X1990323Y656796D01*
X1989952D01*
X1989536Y656842D01*
X1989073Y656934D01*
X1988518Y657073D01*
X1987962Y657212D01*
X1987314Y657397D01*
X1986667Y657629D01*
X1986019Y657906D01*
X1985324Y658277D01*
X1984677Y658693D01*
X1984029Y659156D01*
X1983381Y659711D01*
X1982779Y660359D01*
X1982733Y660405D01*
X1982640Y660544D01*
X1982501Y660729D01*
X1982316Y661053D01*
X1982039Y661470D01*
X1981807Y661933D01*
X1981530Y662534D01*
X1981252Y663182D01*
X1980928Y663969D01*
X1980650Y664848D01*
X1980419Y665820D01*
X1980188Y666884D01*
X1979956Y668088D01*
X1979817Y669383D01*
X1979725Y670772D01*
X1979678Y672253D01*
Y672299D01*
Y672345D01*
Y672484D01*
Y672669D01*
X1979725Y673132D01*
Y673780D01*
X1979771Y674520D01*
X1979863Y675400D01*
X1979956Y676372D01*
X1980095Y677436D01*
X1980280Y678500D01*
X1980511Y679657D01*
X1980789Y680768D01*
X1981113Y681879D01*
X1981530Y682943D01*
X1981992Y683961D01*
X1982501Y684933D01*
X1983103Y685766D01*
X1983149Y685812D01*
X1983242Y685905D01*
X1983427Y686090D01*
X1983658Y686368D01*
X1983936Y686645D01*
X1984306Y686923D01*
X1984769Y687293D01*
X1985232Y687617D01*
X1985787Y687941D01*
X1986389Y688311D01*
X1987083Y688589D01*
X1987777Y688913D01*
X1988564Y689145D01*
X1989397Y689330D01*
X1990276Y689422D01*
X1991202Y689468D01*
X1991572D01*
X1991850Y689422D01*
D02*
G37*
G36*
X1869951D02*
X1870275D01*
X1870645Y689376D01*
X1871525Y689191D01*
X1872497Y688959D01*
X1873515Y688589D01*
X1874533Y688034D01*
X1875042Y687710D01*
X1875505Y687340D01*
X1875551Y687293D01*
X1875597Y687247D01*
X1875736Y687108D01*
X1875875Y686969D01*
X1876106Y686738D01*
X1876292Y686460D01*
X1876801Y685812D01*
X1877310Y684979D01*
X1877773Y683961D01*
X1878189Y682804D01*
X1878467Y681508D01*
X1874533Y681184D01*
Y681231D01*
X1874487Y681277D01*
X1874440Y681555D01*
X1874302Y681971D01*
X1874116Y682480D01*
X1873931Y683036D01*
X1873654Y683591D01*
X1873330Y684100D01*
X1873006Y684517D01*
X1872913Y684609D01*
X1872728Y684794D01*
X1872404Y685072D01*
X1871941Y685396D01*
X1871340Y685674D01*
X1870692Y685951D01*
X1869905Y686136D01*
X1869072Y686229D01*
X1868748D01*
X1868378Y686183D01*
X1867961Y686090D01*
X1867406Y685951D01*
X1866851Y685766D01*
X1866295Y685535D01*
X1865740Y685164D01*
X1865647Y685118D01*
X1865416Y684933D01*
X1865092Y684609D01*
X1864676Y684146D01*
X1864213Y683591D01*
X1863704Y682943D01*
X1863241Y682110D01*
X1862778Y681184D01*
Y681138D01*
X1862732Y681046D01*
X1862686Y680907D01*
X1862593Y680722D01*
X1862547Y680444D01*
X1862454Y680120D01*
X1862362Y679750D01*
X1862269Y679287D01*
X1862130Y678778D01*
X1862038Y678223D01*
X1861945Y677621D01*
X1861899Y676973D01*
X1861806Y676233D01*
X1861760Y675492D01*
X1861714Y674659D01*
Y673826D01*
X1861760Y673873D01*
X1861945Y674150D01*
X1862269Y674520D01*
X1862686Y674983D01*
X1863148Y675538D01*
X1863750Y676048D01*
X1864398Y676557D01*
X1865138Y677019D01*
X1865185D01*
X1865231Y677066D01*
X1865509Y677205D01*
X1865925Y677343D01*
X1866480Y677575D01*
X1867128Y677760D01*
X1867869Y677899D01*
X1868656Y678038D01*
X1869489Y678084D01*
X1869859D01*
X1870137Y678038D01*
X1870507Y677991D01*
X1870877Y677945D01*
X1871340Y677852D01*
X1871803Y677714D01*
X1872867Y677390D01*
X1873422Y677158D01*
X1873978Y676834D01*
X1874533Y676510D01*
X1875135Y676140D01*
X1875690Y675677D01*
X1876199Y675168D01*
X1876245Y675122D01*
X1876338Y675029D01*
X1876477Y674891D01*
X1876615Y674659D01*
X1876847Y674335D01*
X1877078Y674011D01*
X1877310Y673595D01*
X1877587Y673132D01*
X1877865Y672623D01*
X1878096Y672068D01*
X1878328Y671420D01*
X1878559Y670772D01*
X1878698Y670078D01*
X1878837Y669291D01*
X1878929Y668504D01*
X1878976Y667671D01*
Y667625D01*
Y667532D01*
Y667393D01*
Y667162D01*
X1878929Y666884D01*
Y666607D01*
X1878791Y665866D01*
X1878652Y664987D01*
X1878420Y664061D01*
X1878096Y663043D01*
X1877634Y662071D01*
Y662025D01*
X1877587Y661979D01*
X1877495Y661840D01*
X1877402Y661655D01*
X1877125Y661192D01*
X1876708Y660590D01*
X1876199Y659942D01*
X1875597Y659295D01*
X1874857Y658647D01*
X1874070Y658091D01*
X1874024D01*
X1873978Y658045D01*
X1873839Y657953D01*
X1873654Y657906D01*
X1873191Y657675D01*
X1872589Y657443D01*
X1871803Y657166D01*
X1870923Y656981D01*
X1869951Y656796D01*
X1868887Y656749D01*
X1868656D01*
X1868424Y656796D01*
X1868054D01*
X1867637Y656842D01*
X1867175Y656934D01*
X1866619Y657073D01*
X1866064Y657212D01*
X1865416Y657397D01*
X1864768Y657629D01*
X1864120Y657906D01*
X1863426Y658277D01*
X1862778Y658693D01*
X1862130Y659156D01*
X1861482Y659711D01*
X1860881Y660359D01*
X1860834Y660405D01*
X1860742Y660544D01*
X1860603Y660729D01*
X1860418Y661053D01*
X1860140Y661470D01*
X1859909Y661933D01*
X1859631Y662534D01*
X1859353Y663182D01*
X1859030Y663969D01*
X1858752Y664848D01*
X1858521Y665820D01*
X1858289Y666884D01*
X1858058Y668088D01*
X1857919Y669383D01*
X1857826Y670772D01*
X1857780Y672253D01*
Y672299D01*
Y672345D01*
Y672484D01*
Y672669D01*
X1857826Y673132D01*
Y673780D01*
X1857873Y674520D01*
X1857965Y675400D01*
X1858058Y676372D01*
X1858197Y677436D01*
X1858382Y678500D01*
X1858613Y679657D01*
X1858891Y680768D01*
X1859215Y681879D01*
X1859631Y682943D01*
X1860094Y683961D01*
X1860603Y684933D01*
X1861205Y685766D01*
X1861251Y685812D01*
X1861344Y685905D01*
X1861529Y686090D01*
X1861760Y686368D01*
X1862038Y686645D01*
X1862408Y686923D01*
X1862871Y687293D01*
X1863333Y687617D01*
X1863889Y687941D01*
X1864491Y688311D01*
X1865185Y688589D01*
X1865879Y688913D01*
X1866666Y689145D01*
X1867499Y689330D01*
X1868378Y689422D01*
X1869303Y689468D01*
X1869674D01*
X1869951Y689422D01*
D02*
G37*
G36*
X2080566Y689839D02*
X2080890D01*
X2081769Y689746D01*
X2082741Y689607D01*
X2083759Y689376D01*
X2084870Y689098D01*
X2085888Y688728D01*
X2085934D01*
X2086027Y688682D01*
X2086166Y688589D01*
X2086351Y688497D01*
X2086814Y688265D01*
X2087415Y687849D01*
X2088110Y687386D01*
X2088804Y686784D01*
X2089452Y686090D01*
X2090053Y685303D01*
Y685257D01*
X2090100Y685211D01*
X2090192Y685072D01*
X2090285Y684933D01*
X2090516Y684470D01*
X2090794Y683869D01*
X2091118Y683128D01*
X2091349Y682249D01*
X2091581Y681323D01*
X2091673Y680305D01*
X2087601Y679981D01*
Y680027D01*
Y680120D01*
X2087554Y680259D01*
X2087508Y680490D01*
X2087369Y680999D01*
X2087184Y681694D01*
X2086906Y682434D01*
X2086490Y683175D01*
X2085981Y683869D01*
X2085333Y684517D01*
X2085240Y684563D01*
X2085009Y684748D01*
X2084546Y685026D01*
X2083945Y685303D01*
X2083158Y685581D01*
X2082232Y685859D01*
X2081075Y686044D01*
X2079779Y686090D01*
X2079131D01*
X2078854Y686044D01*
X2078484Y685997D01*
X2077651Y685905D01*
X2076725Y685720D01*
X2075800Y685488D01*
X2074920Y685118D01*
X2074550Y684887D01*
X2074180Y684655D01*
X2074087Y684609D01*
X2073902Y684424D01*
X2073624Y684100D01*
X2073347Y683730D01*
X2073023Y683221D01*
X2072745Y682665D01*
X2072560Y682018D01*
X2072467Y681277D01*
Y681184D01*
Y680999D01*
X2072514Y680675D01*
X2072606Y680305D01*
X2072745Y679842D01*
X2072976Y679380D01*
X2073254Y678917D01*
X2073671Y678454D01*
X2073717Y678408D01*
X2073948Y678269D01*
X2074133Y678130D01*
X2074319Y678038D01*
X2074596Y677899D01*
X2074920Y677714D01*
X2075337Y677575D01*
X2075800Y677390D01*
X2076308Y677205D01*
X2076910Y676973D01*
X2077558Y676788D01*
X2078298Y676557D01*
X2079131Y676372D01*
X2080057Y676140D01*
X2080103D01*
X2080289Y676094D01*
X2080566Y676048D01*
X2080890Y675955D01*
X2081307Y675863D01*
X2081816Y675724D01*
X2082325Y675585D01*
X2082880Y675446D01*
X2084083Y675122D01*
X2085240Y674798D01*
X2085796Y674613D01*
X2086305Y674428D01*
X2086767Y674289D01*
X2087138Y674104D01*
X2087184D01*
X2087277Y674058D01*
X2087415Y673965D01*
X2087601Y673873D01*
X2088110Y673595D01*
X2088711Y673225D01*
X2089405Y672716D01*
X2090100Y672160D01*
X2090748Y671512D01*
X2091303Y670818D01*
X2091349Y670725D01*
X2091534Y670494D01*
X2091719Y670078D01*
X2091997Y669522D01*
X2092228Y668874D01*
X2092460Y668088D01*
X2092599Y667208D01*
X2092645Y666283D01*
Y666236D01*
Y666190D01*
Y666051D01*
Y665866D01*
X2092552Y665357D01*
X2092460Y664709D01*
X2092275Y663969D01*
X2092043Y663182D01*
X2091673Y662349D01*
X2091164Y661470D01*
Y661423D01*
X2091118Y661377D01*
X2090886Y661099D01*
X2090562Y660683D01*
X2090100Y660220D01*
X2089498Y659665D01*
X2088757Y659063D01*
X2087924Y658508D01*
X2086953Y657999D01*
X2086906D01*
X2086814Y657953D01*
X2086675Y657906D01*
X2086490Y657814D01*
X2086212Y657721D01*
X2085888Y657582D01*
X2085148Y657397D01*
X2084268Y657166D01*
X2083204Y656934D01*
X2082047Y656796D01*
X2080798Y656749D01*
X2080057D01*
X2079687Y656796D01*
X2079270D01*
X2078808Y656842D01*
X2078252Y656888D01*
X2077095Y657073D01*
X2075892Y657258D01*
X2074689Y657582D01*
X2073532Y657999D01*
X2073486D01*
X2073393Y658045D01*
X2073254Y658138D01*
X2073069Y658230D01*
X2072514Y658508D01*
X2071866Y658924D01*
X2071125Y659480D01*
X2070339Y660128D01*
X2069598Y660914D01*
X2068904Y661794D01*
Y661840D01*
X2068811Y661933D01*
X2068765Y662071D01*
X2068626Y662256D01*
X2068534Y662488D01*
X2068395Y662766D01*
X2068071Y663460D01*
X2067747Y664339D01*
X2067469Y665311D01*
X2067284Y666422D01*
X2067192Y667579D01*
X2071172Y667949D01*
Y667903D01*
Y667856D01*
X2071218Y667717D01*
Y667532D01*
X2071310Y667116D01*
X2071449Y666514D01*
X2071634Y665912D01*
X2071819Y665218D01*
X2072143Y664570D01*
X2072467Y663969D01*
X2072514Y663923D01*
X2072652Y663737D01*
X2072884Y663413D01*
X2073254Y663090D01*
X2073717Y662673D01*
X2074226Y662256D01*
X2074920Y661840D01*
X2075661Y661470D01*
X2075707D01*
X2075753Y661423D01*
X2075892Y661377D01*
X2076031Y661331D01*
X2076494Y661192D01*
X2077095Y661007D01*
X2077836Y660822D01*
X2078669Y660683D01*
X2079594Y660590D01*
X2080612Y660544D01*
X2081029D01*
X2081492Y660590D01*
X2082047Y660637D01*
X2082695Y660729D01*
X2083436Y660822D01*
X2084176Y661007D01*
X2084870Y661238D01*
X2084963Y661285D01*
X2085194Y661377D01*
X2085518Y661562D01*
X2085934Y661747D01*
X2086351Y662071D01*
X2086814Y662395D01*
X2087277Y662766D01*
X2087647Y663228D01*
X2087693Y663275D01*
X2087786Y663460D01*
X2087924Y663691D01*
X2088110Y664061D01*
X2088295Y664432D01*
X2088434Y664894D01*
X2088526Y665403D01*
X2088572Y665959D01*
Y666005D01*
Y666236D01*
X2088526Y666514D01*
X2088480Y666884D01*
X2088341Y667255D01*
X2088202Y667717D01*
X2087971Y668180D01*
X2087647Y668597D01*
X2087601Y668643D01*
X2087462Y668782D01*
X2087277Y668967D01*
X2086953Y669245D01*
X2086582Y669522D01*
X2086073Y669846D01*
X2085472Y670170D01*
X2084778Y670448D01*
X2084731Y670494D01*
X2084500Y670540D01*
X2084130Y670679D01*
X2083898Y670725D01*
X2083574Y670818D01*
X2083250Y670957D01*
X2082834Y671049D01*
X2082371Y671188D01*
X2081816Y671327D01*
X2081260Y671466D01*
X2080612Y671651D01*
X2079872Y671836D01*
X2079085Y672021D01*
X2079039D01*
X2078900Y672068D01*
X2078669Y672114D01*
X2078391Y672206D01*
X2078021Y672299D01*
X2077604Y672392D01*
X2076679Y672669D01*
X2075661Y672993D01*
X2074596Y673317D01*
X2073671Y673641D01*
X2073254Y673826D01*
X2072884Y674011D01*
X2072838D01*
X2072791Y674058D01*
X2072514Y674243D01*
X2072097Y674474D01*
X2071634Y674844D01*
X2071079Y675261D01*
X2070524Y675770D01*
X2069968Y676372D01*
X2069505Y677019D01*
X2069459Y677112D01*
X2069320Y677343D01*
X2069135Y677714D01*
X2068950Y678176D01*
X2068765Y678778D01*
X2068580Y679472D01*
X2068441Y680213D01*
X2068395Y680999D01*
Y681046D01*
Y681092D01*
Y681231D01*
Y681416D01*
X2068487Y681879D01*
X2068580Y682480D01*
X2068719Y683175D01*
X2068950Y683961D01*
X2069274Y684748D01*
X2069737Y685535D01*
Y685581D01*
X2069783Y685627D01*
X2070015Y685905D01*
X2070339Y686275D01*
X2070755Y686738D01*
X2071310Y687247D01*
X2072005Y687802D01*
X2072838Y688311D01*
X2073763Y688774D01*
X2073810D01*
X2073902Y688820D01*
X2074041Y688867D01*
X2074226Y688959D01*
X2074457Y689052D01*
X2074781Y689145D01*
X2075475Y689330D01*
X2076355Y689515D01*
X2077373Y689700D01*
X2078437Y689839D01*
X2079641Y689885D01*
X2080242D01*
X2080566Y689839D01*
D02*
G37*
G36*
X1767212D02*
X1767629Y689792D01*
X1768138Y689746D01*
X1768647Y689700D01*
X1769249Y689561D01*
X1770498Y689283D01*
X1771887Y688867D01*
X1772581Y688589D01*
X1773229Y688265D01*
X1773877Y687849D01*
X1774525Y687432D01*
X1774571Y687386D01*
X1774663Y687340D01*
X1774848Y687201D01*
X1775080Y686969D01*
X1775311Y686738D01*
X1775635Y686414D01*
X1775959Y686044D01*
X1776329Y685674D01*
X1776700Y685211D01*
X1777070Y684655D01*
X1777486Y684100D01*
X1777856Y683499D01*
X1778181Y682804D01*
X1778551Y682110D01*
X1778828Y681370D01*
X1779106Y680537D01*
X1774941Y679565D01*
Y679611D01*
X1774895Y679704D01*
X1774802Y679889D01*
X1774710Y680120D01*
X1774617Y680398D01*
X1774478Y680768D01*
X1774108Y681508D01*
X1773645Y682342D01*
X1773090Y683175D01*
X1772396Y683961D01*
X1771655Y684655D01*
X1771563Y684748D01*
X1771285Y684933D01*
X1770822Y685164D01*
X1770220Y685488D01*
X1769434Y685766D01*
X1768555Y686044D01*
X1767490Y686229D01*
X1766333Y686275D01*
X1765963D01*
X1765732Y686229D01*
X1765408D01*
X1765037Y686183D01*
X1764158Y686044D01*
X1763186Y685859D01*
X1762168Y685535D01*
X1761104Y685072D01*
X1760132Y684470D01*
X1760085D01*
X1760039Y684378D01*
X1759715Y684146D01*
X1759299Y683776D01*
X1758790Y683221D01*
X1758188Y682527D01*
X1757633Y681740D01*
X1757124Y680768D01*
X1756661Y679704D01*
Y679657D01*
X1756615Y679565D01*
X1756568Y679426D01*
X1756522Y679194D01*
X1756429Y678917D01*
X1756337Y678593D01*
X1756198Y677806D01*
X1756013Y676881D01*
X1755828Y675863D01*
X1755735Y674752D01*
X1755689Y673549D01*
Y673502D01*
Y673363D01*
Y673132D01*
Y672854D01*
X1755735Y672530D01*
Y672114D01*
X1755782Y671651D01*
X1755828Y671142D01*
X1755967Y670031D01*
X1756198Y668828D01*
X1756476Y667625D01*
X1756846Y666422D01*
Y666375D01*
X1756892Y666283D01*
X1756985Y666144D01*
X1757077Y665912D01*
X1757355Y665357D01*
X1757771Y664709D01*
X1758281Y663969D01*
X1758929Y663182D01*
X1759669Y662488D01*
X1760548Y661840D01*
X1760594D01*
X1760687Y661794D01*
X1760826Y661701D01*
X1761011Y661609D01*
X1761243Y661516D01*
X1761520Y661377D01*
X1762168Y661099D01*
X1763001Y660822D01*
X1763927Y660590D01*
X1764945Y660405D01*
X1766009Y660359D01*
X1766333D01*
X1766611Y660405D01*
X1766935D01*
X1767259Y660452D01*
X1768092Y660637D01*
X1769064Y660868D01*
X1770035Y661238D01*
X1771054Y661747D01*
X1771563Y662025D01*
X1772025Y662395D01*
X1772072Y662442D01*
X1772118Y662488D01*
X1772257Y662627D01*
X1772442Y662766D01*
X1772627Y662997D01*
X1772858Y663275D01*
X1773136Y663552D01*
X1773367Y663923D01*
X1773645Y664339D01*
X1773969Y664802D01*
X1774247Y665265D01*
X1774525Y665820D01*
X1774756Y666422D01*
X1774987Y667069D01*
X1775219Y667764D01*
X1775404Y668504D01*
X1779661Y667440D01*
Y667393D01*
X1779615Y667208D01*
X1779523Y666931D01*
X1779384Y666560D01*
X1779245Y666144D01*
X1779060Y665635D01*
X1778828Y665079D01*
X1778551Y664478D01*
X1777903Y663182D01*
X1777070Y661886D01*
X1776561Y661238D01*
X1776052Y660590D01*
X1775496Y660035D01*
X1774848Y659480D01*
X1774802Y659434D01*
X1774710Y659341D01*
X1774478Y659248D01*
X1774247Y659063D01*
X1773877Y658832D01*
X1773506Y658600D01*
X1772997Y658369D01*
X1772488Y658138D01*
X1771887Y657860D01*
X1771239Y657629D01*
X1770544Y657397D01*
X1769804Y657166D01*
X1769017Y656981D01*
X1768184Y656888D01*
X1767305Y656796D01*
X1766379Y656749D01*
X1765870D01*
X1765500Y656796D01*
X1765084D01*
X1764574Y656842D01*
X1764019Y656934D01*
X1763371Y657027D01*
X1762029Y657258D01*
X1760641Y657629D01*
X1759252Y658138D01*
X1758605Y658462D01*
X1757957Y658832D01*
X1757910Y658878D01*
X1757818Y658924D01*
X1757633Y659063D01*
X1757448Y659248D01*
X1757170Y659434D01*
X1756846Y659711D01*
X1756476Y660035D01*
X1756105Y660405D01*
X1755735Y660822D01*
X1755319Y661238D01*
X1754486Y662303D01*
X1753699Y663552D01*
X1753005Y664941D01*
Y664987D01*
X1752912Y665126D01*
X1752866Y665357D01*
X1752727Y665635D01*
X1752635Y666005D01*
X1752496Y666468D01*
X1752311Y666977D01*
X1752172Y667532D01*
X1752033Y668134D01*
X1751848Y668828D01*
X1751617Y670263D01*
X1751431Y671882D01*
X1751339Y673549D01*
Y673595D01*
Y673780D01*
Y674058D01*
X1751385Y674381D01*
Y674844D01*
X1751431Y675307D01*
X1751478Y675909D01*
X1751570Y676510D01*
X1751802Y677852D01*
X1752126Y679333D01*
X1752588Y680814D01*
X1753236Y682249D01*
X1753282Y682295D01*
X1753329Y682434D01*
X1753421Y682619D01*
X1753606Y682851D01*
X1753792Y683175D01*
X1754023Y683545D01*
X1754625Y684378D01*
X1755411Y685303D01*
X1756337Y686229D01*
X1757401Y687154D01*
X1758651Y687941D01*
X1758697Y687988D01*
X1758836Y688034D01*
X1759021Y688126D01*
X1759252Y688265D01*
X1759623Y688404D01*
X1759993Y688543D01*
X1760456Y688728D01*
X1760965Y688913D01*
X1761520Y689098D01*
X1762122Y689283D01*
X1763418Y689561D01*
X1764899Y689792D01*
X1766426Y689885D01*
X1766888D01*
X1767212Y689839D01*
D02*
G37*
G36*
X2216024Y680999D02*
X2216348Y680953D01*
X2217042Y680861D01*
X2217875Y680675D01*
X2218755Y680398D01*
X2219634Y679981D01*
X2220513Y679472D01*
X2220560D01*
X2220606Y679380D01*
X2220883Y679194D01*
X2221300Y678824D01*
X2221809Y678362D01*
X2222364Y677760D01*
X2222920Y677019D01*
X2223475Y676140D01*
X2223938Y675168D01*
Y675122D01*
X2223984Y675029D01*
X2224030Y674891D01*
X2224123Y674706D01*
X2224216Y674428D01*
X2224308Y674104D01*
X2224539Y673363D01*
X2224771Y672438D01*
X2224956Y671420D01*
X2225095Y670263D01*
X2225141Y669060D01*
Y669013D01*
Y668921D01*
Y668736D01*
Y668458D01*
X2225095Y668134D01*
Y667764D01*
X2225002Y666931D01*
X2224817Y665912D01*
X2224586Y664848D01*
X2224262Y663737D01*
X2223845Y662627D01*
Y662580D01*
X2223799Y662488D01*
X2223707Y662349D01*
X2223614Y662164D01*
X2223290Y661655D01*
X2222874Y661007D01*
X2222364Y660313D01*
X2221716Y659619D01*
X2220976Y658924D01*
X2220097Y658277D01*
X2220051D01*
X2220004Y658230D01*
X2219865Y658138D01*
X2219680Y658045D01*
X2219218Y657814D01*
X2218570Y657536D01*
X2217783Y657258D01*
X2216950Y657027D01*
X2215978Y656842D01*
X2215006Y656796D01*
X2214682D01*
X2214312Y656842D01*
X2213849Y656888D01*
X2213294Y656981D01*
X2212692Y657120D01*
X2212090Y657305D01*
X2211489Y657582D01*
X2211443Y657629D01*
X2211211Y657721D01*
X2210934Y657906D01*
X2210563Y658184D01*
X2210193Y658462D01*
X2209730Y658832D01*
X2209314Y659248D01*
X2208944Y659711D01*
Y648419D01*
X2205010D01*
Y680537D01*
X2208573D01*
Y677482D01*
X2208620Y677575D01*
X2208805Y677760D01*
X2209036Y678084D01*
X2209406Y678454D01*
X2209823Y678917D01*
X2210286Y679333D01*
X2210841Y679750D01*
X2211396Y680120D01*
X2211489Y680166D01*
X2211674Y680259D01*
X2212044Y680398D01*
X2212507Y680583D01*
X2213062Y680768D01*
X2213710Y680907D01*
X2214451Y680999D01*
X2215284Y681046D01*
X2215793D01*
X2216024Y680999D01*
D02*
G37*
G36*
X1934603Y657305D02*
X1930345D01*
Y672392D01*
X1913777D01*
Y657305D01*
X1909520D01*
Y689330D01*
X1913777D01*
Y676186D01*
X1930345D01*
Y689330D01*
X1934603D01*
Y657305D01*
D02*
G37*
G36*
X2145356Y680999D02*
X2145634D01*
X2146004Y680953D01*
X2146884Y680814D01*
X2147856Y680583D01*
X2148874Y680213D01*
X2149892Y679750D01*
X2150864Y679102D01*
X2150910D01*
X2150956Y679009D01*
X2151234Y678732D01*
X2151650Y678315D01*
X2152159Y677714D01*
X2152668Y676973D01*
X2153178Y676048D01*
X2153640Y674983D01*
X2153964Y673734D01*
X2150123Y673132D01*
Y673178D01*
X2150077Y673225D01*
X2150031Y673502D01*
X2149892Y673919D01*
X2149660Y674428D01*
X2149429Y674983D01*
X2149059Y675585D01*
X2148642Y676140D01*
X2148179Y676603D01*
X2148133Y676649D01*
X2147948Y676788D01*
X2147624Y676973D01*
X2147254Y677205D01*
X2146745Y677436D01*
X2146190Y677621D01*
X2145542Y677760D01*
X2144847Y677806D01*
X2144570D01*
X2144338Y677760D01*
X2143829Y677714D01*
X2143135Y677529D01*
X2142395Y677297D01*
X2141562Y676927D01*
X2140775Y676372D01*
X2140405Y676048D01*
X2140034Y675677D01*
Y675631D01*
X2139942Y675585D01*
X2139849Y675446D01*
X2139757Y675261D01*
X2139618Y675029D01*
X2139433Y674752D01*
X2139294Y674428D01*
X2139109Y674058D01*
X2138924Y673595D01*
X2138785Y673086D01*
X2138600Y672530D01*
X2138461Y671929D01*
X2138368Y671281D01*
X2138276Y670540D01*
X2138183Y669754D01*
Y668921D01*
Y668874D01*
Y668736D01*
Y668458D01*
X2138230Y668180D01*
Y667764D01*
X2138276Y667347D01*
X2138415Y666329D01*
X2138600Y665218D01*
X2138924Y664061D01*
X2139340Y663043D01*
X2139618Y662534D01*
X2139942Y662118D01*
X2140034Y662025D01*
X2140266Y661794D01*
X2140682Y661470D01*
X2141191Y661099D01*
X2141886Y660683D01*
X2142672Y660359D01*
X2143598Y660128D01*
X2144107Y660081D01*
X2144616Y660035D01*
X2144709D01*
X2144986Y660081D01*
X2145449Y660128D01*
X2145958Y660220D01*
X2146560Y660359D01*
X2147208Y660637D01*
X2147856Y660961D01*
X2148457Y661423D01*
X2148550Y661470D01*
X2148689Y661701D01*
X2148966Y662025D01*
X2149290Y662534D01*
X2149614Y663136D01*
X2149984Y663876D01*
X2150262Y664802D01*
X2150447Y665820D01*
X2154335Y665311D01*
Y665265D01*
X2154288Y665126D01*
X2154242Y664941D01*
X2154196Y664663D01*
X2154103Y664293D01*
X2154011Y663923D01*
X2153687Y662997D01*
X2153270Y662025D01*
X2152668Y660961D01*
X2151928Y659942D01*
X2151512Y659480D01*
X2151049Y659017D01*
X2151003Y658971D01*
X2150910Y658924D01*
X2150771Y658832D01*
X2150586Y658693D01*
X2150355Y658508D01*
X2150031Y658323D01*
X2149660Y658138D01*
X2149290Y657906D01*
X2148365Y657490D01*
X2147254Y657166D01*
X2146051Y656888D01*
X2145356Y656842D01*
X2144662Y656796D01*
X2144200D01*
X2143876Y656842D01*
X2143459Y656888D01*
X2142996Y656981D01*
X2142487Y657073D01*
X2141932Y657166D01*
X2140682Y657536D01*
X2140081Y657814D01*
X2139433Y658091D01*
X2138785Y658462D01*
X2138183Y658878D01*
X2137582Y659341D01*
X2137026Y659896D01*
X2136980Y659942D01*
X2136888Y660035D01*
X2136749Y660220D01*
X2136564Y660452D01*
X2136378Y660776D01*
X2136101Y661192D01*
X2135869Y661655D01*
X2135592Y662164D01*
X2135314Y662766D01*
X2135083Y663460D01*
X2134805Y664154D01*
X2134620Y664987D01*
X2134435Y665820D01*
X2134296Y666792D01*
X2134203Y667764D01*
X2134157Y668828D01*
Y668874D01*
Y669013D01*
Y669198D01*
Y669476D01*
X2134203Y669800D01*
Y670170D01*
X2134250Y670587D01*
X2134296Y671049D01*
X2134435Y672068D01*
X2134666Y673178D01*
X2134944Y674289D01*
X2135360Y675400D01*
Y675446D01*
X2135406Y675538D01*
X2135499Y675677D01*
X2135592Y675863D01*
X2135869Y676372D01*
X2136286Y676973D01*
X2136841Y677667D01*
X2137489Y678362D01*
X2138276Y679056D01*
X2139155Y679611D01*
X2139201D01*
X2139294Y679657D01*
X2139433Y679750D01*
X2139618Y679842D01*
X2139849Y679935D01*
X2140127Y680074D01*
X2140821Y680351D01*
X2141608Y680583D01*
X2142580Y680814D01*
X2143598Y680999D01*
X2144709Y681046D01*
X2145079D01*
X2145356Y680999D01*
D02*
G37*
G36*
X1951772Y666931D02*
X1939601D01*
Y670864D01*
X1951772D01*
Y666931D01*
D02*
G37*
G36*
X1720748Y667486D02*
Y667440D01*
Y667301D01*
Y667116D01*
Y666838D01*
X1720702Y666468D01*
Y666098D01*
X1720610Y665218D01*
X1720517Y664200D01*
X1720332Y663136D01*
X1720054Y662164D01*
X1719730Y661238D01*
Y661192D01*
X1719684Y661146D01*
X1719545Y660868D01*
X1719314Y660498D01*
X1718990Y659989D01*
X1718527Y659480D01*
X1718018Y658924D01*
X1717370Y658369D01*
X1716630Y657906D01*
X1716537Y657860D01*
X1716259Y657721D01*
X1715843Y657536D01*
X1715241Y657351D01*
X1714501Y657120D01*
X1713668Y656934D01*
X1712742Y656796D01*
X1711724Y656749D01*
X1711308D01*
X1711030Y656796D01*
X1710660Y656842D01*
X1710289Y656888D01*
X1709318Y657073D01*
X1708300Y657351D01*
X1707235Y657767D01*
X1706680Y658045D01*
X1706171Y658369D01*
X1705708Y658739D01*
X1705245Y659156D01*
X1705199Y659202D01*
X1705152Y659248D01*
X1705060Y659434D01*
X1704921Y659619D01*
X1704736Y659850D01*
X1704551Y660174D01*
X1704366Y660544D01*
X1704134Y660961D01*
X1703949Y661423D01*
X1703764Y661979D01*
X1703579Y662534D01*
X1703394Y663182D01*
X1703301Y663876D01*
X1703163Y664663D01*
X1703116Y665450D01*
Y666329D01*
X1706957Y666884D01*
Y666838D01*
Y666746D01*
Y666560D01*
X1707004Y666283D01*
X1707050Y666005D01*
Y665681D01*
X1707189Y664894D01*
X1707328Y664061D01*
X1707605Y663228D01*
X1707883Y662488D01*
X1708068Y662164D01*
X1708300Y661886D01*
X1708346Y661840D01*
X1708531Y661701D01*
X1708809Y661470D01*
X1709179Y661238D01*
X1709688Y660961D01*
X1710243Y660776D01*
X1710937Y660590D01*
X1711678Y660544D01*
X1711956D01*
X1712233Y660590D01*
X1712650Y660637D01*
X1713066Y660729D01*
X1713529Y660822D01*
X1713992Y661007D01*
X1714455Y661238D01*
X1714501Y661285D01*
X1714640Y661377D01*
X1714825Y661562D01*
X1715103Y661747D01*
X1715334Y662071D01*
X1715612Y662395D01*
X1715843Y662766D01*
X1716028Y663228D01*
Y663275D01*
X1716121Y663460D01*
X1716167Y663784D01*
X1716259Y664200D01*
X1716352Y664755D01*
X1716398Y665450D01*
X1716491Y666283D01*
Y667255D01*
Y689330D01*
X1720748D01*
Y667486D01*
D02*
G37*
G36*
X2198855Y657305D02*
X2195338D01*
Y660683D01*
X2195291Y660637D01*
X2195199Y660498D01*
X2195060Y660313D01*
X2194828Y660081D01*
X2194551Y659804D01*
X2194227Y659434D01*
X2193857Y659109D01*
X2193394Y658739D01*
X2192885Y658369D01*
X2192330Y658045D01*
X2191728Y657721D01*
X2191080Y657397D01*
X2190340Y657166D01*
X2189599Y656981D01*
X2188766Y656842D01*
X2187933Y656796D01*
X2187609D01*
X2187193Y656842D01*
X2186684Y656888D01*
X2186082Y656981D01*
X2185434Y657120D01*
X2184786Y657305D01*
X2184092Y657582D01*
X2183999Y657629D01*
X2183814Y657721D01*
X2183490Y657906D01*
X2183120Y658138D01*
X2182657Y658415D01*
X2182241Y658739D01*
X2181824Y659109D01*
X2181454Y659526D01*
X2181408Y659572D01*
X2181315Y659757D01*
X2181176Y659989D01*
X2180991Y660359D01*
X2180760Y660776D01*
X2180575Y661285D01*
X2180390Y661840D01*
X2180251Y662442D01*
Y662488D01*
X2180204Y662673D01*
X2180158Y662951D01*
Y663321D01*
X2180112Y663876D01*
X2180066Y664478D01*
X2180019Y665265D01*
Y666144D01*
Y680537D01*
X2183953D01*
Y667625D01*
Y667579D01*
Y667486D01*
Y667347D01*
Y667116D01*
Y666607D01*
X2183999Y665959D01*
Y665265D01*
X2184046Y664570D01*
X2184092Y663969D01*
X2184184Y663460D01*
Y663413D01*
X2184277Y663228D01*
X2184370Y662951D01*
X2184508Y662580D01*
X2184740Y662210D01*
X2185017Y661794D01*
X2185341Y661423D01*
X2185758Y661053D01*
X2185804Y661007D01*
X2185989Y660914D01*
X2186221Y660776D01*
X2186591Y660637D01*
X2187007Y660452D01*
X2187516Y660313D01*
X2188072Y660220D01*
X2188720Y660174D01*
X2189044D01*
X2189368Y660220D01*
X2189784Y660266D01*
X2190293Y660405D01*
X2190849Y660544D01*
X2191450Y660776D01*
X2192052Y661053D01*
X2192144Y661099D01*
X2192330Y661238D01*
X2192607Y661423D01*
X2192931Y661701D01*
X2193301Y662071D01*
X2193672Y662488D01*
X2193996Y662951D01*
X2194273Y663506D01*
X2194319Y663599D01*
X2194366Y663784D01*
X2194458Y664154D01*
X2194597Y664663D01*
X2194736Y665311D01*
X2194828Y666098D01*
X2194875Y667023D01*
X2194921Y668088D01*
Y680537D01*
X2198855D01*
Y657305D01*
D02*
G37*
G36*
X2161647Y671049D02*
X2170949Y680537D01*
X2176086D01*
X2167154Y671882D01*
X2176965Y657305D01*
X2172106D01*
X2164377Y669152D01*
X2161647Y666514D01*
Y657305D01*
X2157713D01*
Y689330D01*
X2161647D01*
Y671049D01*
D02*
G37*
G36*
X2121245Y680999D02*
X2121939Y680953D01*
X2122726Y680861D01*
X2123513Y680722D01*
X2124300Y680537D01*
X2125040Y680305D01*
X2125133Y680259D01*
X2125364Y680166D01*
X2125688Y680027D01*
X2126104Y679842D01*
X2126567Y679565D01*
X2127030Y679287D01*
X2127447Y678917D01*
X2127817Y678547D01*
X2127863Y678500D01*
X2127956Y678362D01*
X2128094Y678130D01*
X2128280Y677852D01*
X2128511Y677436D01*
X2128696Y677019D01*
X2128881Y676510D01*
X2129020Y675909D01*
Y675863D01*
X2129066Y675724D01*
X2129113Y675446D01*
X2129159Y675076D01*
Y674567D01*
X2129205Y673965D01*
X2129252Y673178D01*
Y672299D01*
Y667023D01*
Y666977D01*
Y666792D01*
Y666514D01*
Y666144D01*
Y665727D01*
Y665218D01*
X2129298Y664108D01*
Y662951D01*
X2129344Y661794D01*
X2129390Y661285D01*
Y660822D01*
X2129437Y660405D01*
X2129483Y660081D01*
Y660035D01*
X2129529Y659850D01*
X2129575Y659572D01*
X2129714Y659202D01*
X2129807Y658786D01*
X2129992Y658323D01*
X2130223Y657814D01*
X2130455Y657305D01*
X2126336D01*
X2126290Y657351D01*
X2126243Y657536D01*
X2126151Y657767D01*
X2126012Y658138D01*
X2125873Y658554D01*
X2125781Y659063D01*
X2125688Y659619D01*
X2125595Y660220D01*
X2125549D01*
X2125503Y660128D01*
X2125225Y659896D01*
X2124809Y659572D01*
X2124253Y659156D01*
X2123559Y658739D01*
X2122865Y658277D01*
X2122124Y657860D01*
X2121338Y657536D01*
X2121245Y657490D01*
X2120968Y657443D01*
X2120551Y657305D01*
X2120042Y657166D01*
X2119394Y657027D01*
X2118654Y656934D01*
X2117821Y656842D01*
X2116988Y656796D01*
X2116617D01*
X2116340Y656842D01*
X2116016D01*
X2115645Y656888D01*
X2114812Y657027D01*
X2113887Y657258D01*
X2112869Y657582D01*
X2111943Y658045D01*
X2111110Y658647D01*
X2111018Y658739D01*
X2110786Y658971D01*
X2110462Y659387D01*
X2110092Y659942D01*
X2109722Y660637D01*
X2109398Y661423D01*
X2109167Y662395D01*
X2109120Y662858D01*
X2109074Y663413D01*
Y663506D01*
Y663691D01*
X2109120Y664015D01*
X2109167Y664432D01*
X2109259Y664941D01*
X2109398Y665450D01*
X2109583Y666005D01*
X2109814Y666514D01*
X2109861Y666560D01*
X2109953Y666746D01*
X2110138Y667023D01*
X2110370Y667347D01*
X2110647Y667717D01*
X2111018Y668088D01*
X2111388Y668458D01*
X2111851Y668782D01*
X2111897Y668828D01*
X2112082Y668921D01*
X2112313Y669106D01*
X2112684Y669291D01*
X2113100Y669476D01*
X2113609Y669707D01*
X2114118Y669893D01*
X2114720Y670078D01*
X2114766D01*
X2114951Y670124D01*
X2115229Y670216D01*
X2115599Y670263D01*
X2116062Y670355D01*
X2116664Y670448D01*
X2117358Y670587D01*
X2118191Y670679D01*
X2118237D01*
X2118422Y670725D01*
X2118654D01*
X2118978Y670772D01*
X2119348Y670818D01*
X2119811Y670911D01*
X2120320Y670957D01*
X2120875Y671049D01*
X2121986Y671281D01*
X2123189Y671512D01*
X2124253Y671790D01*
X2124762Y671929D01*
X2125225Y672068D01*
Y672114D01*
Y672206D01*
X2125271Y672484D01*
Y672808D01*
Y672993D01*
Y673086D01*
Y673132D01*
Y673178D01*
Y673456D01*
X2125225Y673919D01*
X2125133Y674428D01*
X2124994Y674983D01*
X2124762Y675538D01*
X2124485Y676048D01*
X2124115Y676464D01*
X2124068Y676510D01*
X2123837Y676695D01*
X2123467Y676881D01*
X2123004Y677158D01*
X2122356Y677390D01*
X2121615Y677621D01*
X2120690Y677760D01*
X2119626Y677806D01*
X2119163D01*
X2118700Y677760D01*
X2118052Y677667D01*
X2117404Y677575D01*
X2116710Y677390D01*
X2116062Y677158D01*
X2115507Y676834D01*
X2115460Y676788D01*
X2115275Y676649D01*
X2115044Y676418D01*
X2114766Y676048D01*
X2114489Y675585D01*
X2114165Y674983D01*
X2113887Y674243D01*
X2113609Y673410D01*
X2109768Y673919D01*
Y673965D01*
X2109814Y674011D01*
Y674150D01*
X2109861Y674335D01*
X2110000Y674752D01*
X2110185Y675353D01*
X2110416Y675955D01*
X2110694Y676603D01*
X2111064Y677251D01*
X2111480Y677852D01*
X2111527Y677899D01*
X2111712Y678084D01*
X2111989Y678362D01*
X2112360Y678732D01*
X2112869Y679102D01*
X2113470Y679472D01*
X2114165Y679889D01*
X2114951Y680213D01*
X2114998D01*
X2115044Y680259D01*
X2115183Y680305D01*
X2115368Y680351D01*
X2115831Y680490D01*
X2116478Y680629D01*
X2117219Y680768D01*
X2118145Y680907D01*
X2119116Y680999D01*
X2120227Y681046D01*
X2120736D01*
X2121245Y680999D01*
D02*
G37*
G36*
X2016146Y689422D02*
X2016516Y689376D01*
X2016979Y689330D01*
X2017488Y689237D01*
X2017997Y689145D01*
X2019200Y688820D01*
X2020404Y688358D01*
X2021005Y688080D01*
X2021607Y687756D01*
X2022162Y687340D01*
X2022671Y686877D01*
X2022718Y686831D01*
X2022810Y686784D01*
X2022903Y686599D01*
X2023088Y686414D01*
X2023319Y686183D01*
X2023551Y685859D01*
X2023782Y685535D01*
X2024060Y685118D01*
X2024523Y684239D01*
X2024985Y683128D01*
X2025170Y682573D01*
X2025263Y681925D01*
X2025356Y681277D01*
X2025402Y680583D01*
Y680490D01*
Y680259D01*
X2025356Y679889D01*
X2025309Y679380D01*
X2025217Y678824D01*
X2025032Y678176D01*
X2024846Y677482D01*
X2024569Y676788D01*
X2024523Y676695D01*
X2024430Y676464D01*
X2024245Y676094D01*
X2023967Y675585D01*
X2023597Y675029D01*
X2023134Y674335D01*
X2022579Y673641D01*
X2021931Y672854D01*
X2021838Y672762D01*
X2021607Y672484D01*
X2021376Y672253D01*
X2021144Y672021D01*
X2020867Y671744D01*
X2020496Y671373D01*
X2020126Y671003D01*
X2019663Y670587D01*
X2019200Y670124D01*
X2018645Y669615D01*
X2018044Y669106D01*
X2017396Y668504D01*
X2016655Y667903D01*
X2015915Y667255D01*
X2015868Y667208D01*
X2015776Y667116D01*
X2015591Y666977D01*
X2015359Y666792D01*
X2015082Y666514D01*
X2014758Y666236D01*
X2014017Y665635D01*
X2013230Y664941D01*
X2012490Y664247D01*
X2011842Y663645D01*
X2011564Y663413D01*
X2011333Y663182D01*
X2011287Y663136D01*
X2011148Y662997D01*
X2010963Y662812D01*
X2010732Y662534D01*
X2010500Y662210D01*
X2010222Y661886D01*
X2009667Y661099D01*
X2025448D01*
Y657305D01*
X2004206D01*
Y657351D01*
Y657536D01*
Y657814D01*
X2004252Y658184D01*
X2004299Y658600D01*
X2004391Y659063D01*
X2004484Y659526D01*
X2004669Y660035D01*
Y660081D01*
X2004715Y660128D01*
X2004808Y660405D01*
X2004993Y660822D01*
X2005271Y661377D01*
X2005641Y662025D01*
X2006104Y662766D01*
X2006613Y663506D01*
X2007261Y664293D01*
Y664339D01*
X2007353Y664385D01*
X2007585Y664663D01*
X2008001Y665079D01*
X2008603Y665681D01*
X2009297Y666375D01*
X2010176Y667208D01*
X2011241Y668134D01*
X2012397Y669106D01*
X2012444Y669152D01*
X2012629Y669291D01*
X2012907Y669522D01*
X2013230Y669800D01*
X2013647Y670170D01*
X2014156Y670587D01*
X2014665Y671049D01*
X2015267Y671559D01*
X2016424Y672669D01*
X2017581Y673780D01*
X2018136Y674335D01*
X2018645Y674891D01*
X2019108Y675400D01*
X2019478Y675909D01*
Y675955D01*
X2019571Y676001D01*
X2019663Y676140D01*
X2019756Y676325D01*
X2020080Y676834D01*
X2020450Y677436D01*
X2020774Y678176D01*
X2021098Y678963D01*
X2021283Y679842D01*
X2021376Y680675D01*
Y680722D01*
Y680768D01*
X2021329Y681046D01*
X2021283Y681508D01*
X2021144Y682018D01*
X2020959Y682665D01*
X2020635Y683313D01*
X2020219Y683961D01*
X2019663Y684609D01*
X2019571Y684702D01*
X2019339Y684887D01*
X2019015Y685118D01*
X2018506Y685442D01*
X2017858Y685720D01*
X2017118Y685997D01*
X2016239Y686183D01*
X2015267Y686229D01*
X2014989D01*
X2014804Y686183D01*
X2014249Y686136D01*
X2013601Y685997D01*
X2012907Y685812D01*
X2012120Y685488D01*
X2011379Y685072D01*
X2010685Y684517D01*
X2010593Y684424D01*
X2010408Y684193D01*
X2010130Y683822D01*
X2009852Y683267D01*
X2009528Y682619D01*
X2009250Y681786D01*
X2009065Y680861D01*
X2008973Y679796D01*
X2004947Y680213D01*
Y680259D01*
X2004993Y680398D01*
Y680629D01*
X2005039Y680953D01*
X2005132Y681323D01*
X2005224Y681740D01*
X2005363Y682249D01*
X2005502Y682758D01*
X2005872Y683869D01*
X2006427Y684979D01*
X2006752Y685535D01*
X2007168Y686090D01*
X2007585Y686599D01*
X2008047Y687062D01*
X2008094Y687108D01*
X2008186Y687154D01*
X2008325Y687293D01*
X2008556Y687432D01*
X2008834Y687617D01*
X2009158Y687802D01*
X2009528Y688034D01*
X2009991Y688265D01*
X2010500Y688497D01*
X2011055Y688728D01*
X2011657Y688913D01*
X2012305Y689098D01*
X2012999Y689237D01*
X2013740Y689376D01*
X2014526Y689422D01*
X2015359Y689468D01*
X2015822D01*
X2016146Y689422D01*
D02*
G37*
G36*
X1975976Y685812D02*
X1975930Y685766D01*
X1975837Y685674D01*
X1975652Y685488D01*
X1975467Y685211D01*
X1975189Y684887D01*
X1974819Y684517D01*
X1974449Y684054D01*
X1974032Y683499D01*
X1973616Y682943D01*
X1973107Y682295D01*
X1972598Y681555D01*
X1972089Y680814D01*
X1971533Y679981D01*
X1970978Y679102D01*
X1970423Y678130D01*
X1969867Y677158D01*
X1969821Y677112D01*
X1969728Y676927D01*
X1969590Y676649D01*
X1969358Y676233D01*
X1969127Y675724D01*
X1968849Y675168D01*
X1968525Y674520D01*
X1968201Y673780D01*
X1967831Y672947D01*
X1967415Y672114D01*
X1967044Y671188D01*
X1966674Y670216D01*
X1965934Y668226D01*
X1965239Y666098D01*
Y666051D01*
X1965193Y665912D01*
X1965147Y665681D01*
X1965054Y665403D01*
X1964962Y665033D01*
X1964869Y664570D01*
X1964730Y664061D01*
X1964638Y663506D01*
X1964499Y662858D01*
X1964360Y662164D01*
X1964129Y660683D01*
X1963897Y659063D01*
X1963759Y657305D01*
X1959732D01*
Y657351D01*
Y657490D01*
Y657675D01*
X1959778Y657953D01*
Y658323D01*
X1959825Y658786D01*
X1959871Y659295D01*
X1959917Y659850D01*
X1960010Y660498D01*
X1960103Y661146D01*
X1960241Y661933D01*
X1960380Y662719D01*
X1960519Y663552D01*
X1960704Y664478D01*
X1961167Y666375D01*
Y666422D01*
X1961213Y666607D01*
X1961306Y666884D01*
X1961445Y667301D01*
X1961583Y667764D01*
X1961768Y668319D01*
X1961954Y668967D01*
X1962231Y669661D01*
X1962509Y670448D01*
X1962787Y671235D01*
X1963481Y672993D01*
X1964314Y674844D01*
X1965239Y676695D01*
X1965286Y676742D01*
X1965378Y676927D01*
X1965517Y677158D01*
X1965702Y677529D01*
X1965934Y677945D01*
X1966257Y678454D01*
X1966582Y679009D01*
X1966952Y679611D01*
X1967831Y680953D01*
X1968757Y682342D01*
X1969821Y683776D01*
X1970932Y685118D01*
X1955243D01*
Y688913D01*
X1975976D01*
Y685812D01*
D02*
G37*
G36*
X1897672Y657305D02*
X1893739D01*
Y682342D01*
X1893692Y682295D01*
X1893461Y682110D01*
X1893183Y681832D01*
X1892720Y681508D01*
X1892211Y681092D01*
X1891564Y680629D01*
X1890823Y680120D01*
X1889990Y679611D01*
X1889944D01*
X1889897Y679565D01*
X1889620Y679380D01*
X1889157Y679148D01*
X1888602Y678871D01*
X1887954Y678547D01*
X1887260Y678223D01*
X1886565Y677899D01*
X1885871Y677621D01*
Y681416D01*
X1885918D01*
X1886010Y681508D01*
X1886195Y681555D01*
X1886427Y681694D01*
X1886704Y681832D01*
X1887028Y682018D01*
X1887815Y682480D01*
X1888741Y682989D01*
X1889666Y683637D01*
X1890638Y684378D01*
X1891610Y685164D01*
X1891656Y685211D01*
X1891702Y685257D01*
X1891841Y685396D01*
X1892026Y685535D01*
X1892443Y685997D01*
X1892998Y686553D01*
X1893553Y687201D01*
X1894155Y687941D01*
X1894664Y688682D01*
X1895127Y689468D01*
X1897672D01*
Y657305D01*
D02*
G37*
G36*
X1847876D02*
X1843943D01*
Y682342D01*
X1843896Y682295D01*
X1843665Y682110D01*
X1843387Y681832D01*
X1842924Y681508D01*
X1842415Y681092D01*
X1841768Y680629D01*
X1841027Y680120D01*
X1840194Y679611D01*
X1840148D01*
X1840101Y679565D01*
X1839824Y679380D01*
X1839361Y679148D01*
X1838806Y678871D01*
X1838158Y678547D01*
X1837464Y678223D01*
X1836770Y677899D01*
X1836075Y677621D01*
Y681416D01*
X1836122D01*
X1836214Y681508D01*
X1836399Y681555D01*
X1836631Y681694D01*
X1836908Y681832D01*
X1837232Y682018D01*
X1838019Y682480D01*
X1838945Y682989D01*
X1839870Y683637D01*
X1840842Y684378D01*
X1841814Y685164D01*
X1841860Y685211D01*
X1841906Y685257D01*
X1842045Y685396D01*
X1842230Y685535D01*
X1842647Y685997D01*
X1843202Y686553D01*
X1843758Y687201D01*
X1844359Y687941D01*
X1844868Y688682D01*
X1845331Y689468D01*
X1847876D01*
Y657305D01*
D02*
G37*
G36*
X1824691Y668597D02*
X1829041D01*
Y664987D01*
X1824691D01*
Y657305D01*
X1820757D01*
Y664987D01*
X1806827D01*
Y668597D01*
X1821497Y689330D01*
X1824691D01*
Y668597D01*
D02*
G37*
G36*
X1731763Y661099D02*
X1747544D01*
Y657305D01*
X1727505D01*
Y689330D01*
X1731763D01*
Y661099D01*
D02*
G37*
G36*
X2102549Y680537D02*
X2106529D01*
Y677482D01*
X2102549D01*
Y663830D01*
Y663737D01*
Y663552D01*
Y663275D01*
X2102595Y662951D01*
X2102641Y662210D01*
X2102687Y661886D01*
X2102734Y661655D01*
X2102780Y661562D01*
X2102919Y661377D01*
X2103104Y661146D01*
X2103428Y660914D01*
X2103521Y660868D01*
X2103752Y660776D01*
X2104168Y660683D01*
X2104770Y660637D01*
X2105233D01*
X2105464Y660683D01*
X2105788D01*
X2106158Y660729D01*
X2106529Y660776D01*
X2107038Y657305D01*
X2106945D01*
X2106760Y657258D01*
X2106436Y657212D01*
X2106019Y657166D01*
X2105557Y657073D01*
X2105048Y657027D01*
X2104030Y656981D01*
X2103659D01*
X2103289Y657027D01*
X2102826Y657073D01*
X2102271Y657120D01*
X2101716Y657258D01*
X2101207Y657397D01*
X2100697Y657629D01*
X2100651Y657675D01*
X2100512Y657767D01*
X2100327Y657906D01*
X2100049Y658138D01*
X2099818Y658369D01*
X2099541Y658693D01*
X2099263Y659017D01*
X2099078Y659434D01*
Y659480D01*
X2098985Y659665D01*
X2098939Y659989D01*
X2098846Y660452D01*
X2098754Y661053D01*
X2098707Y661423D01*
Y661840D01*
X2098661Y662349D01*
X2098615Y662858D01*
Y663413D01*
Y664061D01*
Y677482D01*
X2095699D01*
Y680537D01*
X2098615D01*
Y686275D01*
X2102549Y688635D01*
Y680537D01*
D02*
G37*
G36*
X2040766Y689422D02*
X2041137Y689376D01*
X2041553Y689330D01*
X2042016Y689283D01*
X2042479Y689145D01*
X2043589Y688867D01*
X2044700Y688450D01*
X2045255Y688173D01*
X2045811Y687849D01*
X2046320Y687432D01*
X2046829Y687016D01*
X2046875Y686969D01*
X2046922Y686923D01*
X2047060Y686784D01*
X2047245Y686599D01*
X2047431Y686321D01*
X2047662Y686044D01*
X2048125Y685350D01*
X2048587Y684470D01*
X2049004Y683452D01*
X2049328Y682295D01*
X2049374Y681694D01*
X2049420Y681046D01*
Y680999D01*
Y680953D01*
Y680675D01*
X2049374Y680259D01*
X2049282Y679750D01*
X2049143Y679102D01*
X2048911Y678454D01*
X2048634Y677806D01*
X2048217Y677158D01*
X2048171Y677066D01*
X2047986Y676881D01*
X2047708Y676603D01*
X2047338Y676233D01*
X2046829Y675816D01*
X2046227Y675400D01*
X2045533Y674983D01*
X2044700Y674613D01*
X2044746D01*
X2044839Y674567D01*
X2044978Y674520D01*
X2045163Y674428D01*
X2045718Y674196D01*
X2046366Y673873D01*
X2047060Y673410D01*
X2047801Y672901D01*
X2048495Y672253D01*
X2049143Y671512D01*
Y671466D01*
X2049189Y671420D01*
X2049374Y671142D01*
X2049652Y670679D01*
X2049930Y670078D01*
X2050207Y669337D01*
X2050485Y668458D01*
X2050670Y667486D01*
X2050716Y666422D01*
Y666375D01*
Y666236D01*
Y666005D01*
X2050670Y665727D01*
X2050624Y665403D01*
X2050578Y664987D01*
X2050485Y664524D01*
X2050346Y664015D01*
X2050022Y662951D01*
X2049791Y662349D01*
X2049467Y661794D01*
X2049143Y661192D01*
X2048773Y660637D01*
X2048310Y660081D01*
X2047801Y659526D01*
X2047755Y659480D01*
X2047662Y659387D01*
X2047523Y659248D01*
X2047292Y659109D01*
X2046968Y658878D01*
X2046644Y658647D01*
X2046227Y658415D01*
X2045764Y658138D01*
X2045255Y657860D01*
X2044654Y657629D01*
X2044006Y657397D01*
X2043358Y657166D01*
X2042618Y657027D01*
X2041831Y656888D01*
X2041044Y656796D01*
X2040165Y656749D01*
X2039702D01*
X2039378Y656796D01*
X2038961Y656842D01*
X2038499Y656888D01*
X2037990Y656981D01*
X2037434Y657120D01*
X2036185Y657443D01*
X2035537Y657675D01*
X2034935Y657906D01*
X2034287Y658230D01*
X2033640Y658600D01*
X2033038Y659017D01*
X2032482Y659526D01*
X2032436Y659572D01*
X2032344Y659665D01*
X2032205Y659804D01*
X2032020Y660035D01*
X2031835Y660313D01*
X2031557Y660637D01*
X2031326Y661007D01*
X2031048Y661470D01*
X2030770Y661933D01*
X2030539Y662488D01*
X2030076Y663645D01*
X2029891Y664339D01*
X2029752Y665033D01*
X2029659Y665774D01*
X2029613Y666514D01*
Y666560D01*
Y666653D01*
Y666838D01*
X2029659Y667023D01*
Y667301D01*
X2029706Y667625D01*
X2029798Y668365D01*
X2029983Y669198D01*
X2030261Y670031D01*
X2030678Y670911D01*
X2031187Y671744D01*
Y671790D01*
X2031279Y671836D01*
X2031464Y672068D01*
X2031835Y672438D01*
X2032344Y672901D01*
X2032992Y673363D01*
X2033778Y673873D01*
X2034658Y674289D01*
X2035722Y674613D01*
X2035676D01*
X2035629Y674659D01*
X2035491Y674706D01*
X2035305Y674798D01*
X2034889Y674983D01*
X2034334Y675261D01*
X2033732Y675631D01*
X2033130Y676094D01*
X2032575Y676603D01*
X2032066Y677158D01*
X2032020Y677251D01*
X2031881Y677436D01*
X2031696Y677806D01*
X2031511Y678269D01*
X2031279Y678871D01*
X2031094Y679565D01*
X2030955Y680351D01*
X2030909Y681184D01*
Y681231D01*
Y681323D01*
Y681508D01*
X2030955Y681786D01*
X2031002Y682064D01*
X2031048Y682434D01*
X2031233Y683221D01*
X2031511Y684146D01*
X2031973Y685118D01*
X2032251Y685627D01*
X2032575Y686136D01*
X2032992Y686599D01*
X2033408Y687062D01*
X2033454Y687108D01*
X2033547Y687154D01*
X2033686Y687293D01*
X2033871Y687432D01*
X2034102Y687617D01*
X2034426Y687802D01*
X2034796Y688034D01*
X2035167Y688265D01*
X2035629Y688497D01*
X2036138Y688728D01*
X2036694Y688913D01*
X2037296Y689098D01*
X2038591Y689376D01*
X2039332Y689422D01*
X2040072Y689468D01*
X2040489D01*
X2040766Y689422D01*
D02*
G37*
G36*
X1794656D02*
X1795257Y689330D01*
X1795952Y689191D01*
X1796692Y689006D01*
X1797479Y688774D01*
X1798219Y688404D01*
X1798266D01*
X1798312Y688358D01*
X1798543Y688219D01*
X1798913Y687988D01*
X1799376Y687663D01*
X1799885Y687201D01*
X1800441Y686692D01*
X1800950Y686090D01*
X1801459Y685396D01*
X1801505Y685303D01*
X1801690Y685072D01*
X1801875Y684655D01*
X1802199Y684054D01*
X1802477Y683360D01*
X1802847Y682573D01*
X1803171Y681647D01*
X1803449Y680629D01*
Y680583D01*
X1803495Y680490D01*
X1803541Y680351D01*
X1803588Y680120D01*
X1803634Y679842D01*
X1803680Y679519D01*
X1803773Y679102D01*
X1803819Y678639D01*
X1803911Y678130D01*
X1803958Y677575D01*
X1804004Y676927D01*
X1804097Y676279D01*
X1804143Y675538D01*
Y674798D01*
X1804189Y673965D01*
Y673086D01*
Y673039D01*
Y672854D01*
Y672530D01*
Y672160D01*
X1804143Y671651D01*
Y671096D01*
X1804097Y670494D01*
X1804050Y669846D01*
X1803911Y668365D01*
X1803680Y666838D01*
X1803402Y665357D01*
X1803217Y664663D01*
X1802986Y663969D01*
Y663923D01*
X1802940Y663830D01*
X1802847Y663645D01*
X1802755Y663413D01*
X1802662Y663090D01*
X1802477Y662766D01*
X1802107Y661979D01*
X1801644Y661146D01*
X1801042Y660220D01*
X1800348Y659387D01*
X1799515Y658600D01*
X1799469D01*
X1799422Y658508D01*
X1799284Y658415D01*
X1799099Y658323D01*
X1798867Y658184D01*
X1798636Y657999D01*
X1797941Y657675D01*
X1797108Y657351D01*
X1796137Y657027D01*
X1794980Y656842D01*
X1793730Y656749D01*
X1793267D01*
X1792943Y656796D01*
X1792573Y656842D01*
X1792110Y656934D01*
X1791601Y657027D01*
X1791046Y657166D01*
X1790491Y657351D01*
X1789889Y657536D01*
X1789287Y657814D01*
X1788686Y658138D01*
X1788084Y658508D01*
X1787482Y658971D01*
X1786927Y659480D01*
X1786418Y660035D01*
X1786372Y660081D01*
X1786279Y660220D01*
X1786140Y660452D01*
X1785909Y660822D01*
X1785678Y661238D01*
X1785446Y661794D01*
X1785122Y662442D01*
X1784845Y663182D01*
X1784567Y664015D01*
X1784289Y664987D01*
X1784012Y666051D01*
X1783780Y667255D01*
X1783549Y668550D01*
X1783410Y669939D01*
X1783317Y671466D01*
X1783271Y673086D01*
Y673132D01*
Y673317D01*
Y673641D01*
Y674011D01*
X1783317Y674520D01*
Y675076D01*
X1783364Y675677D01*
X1783410Y676372D01*
X1783549Y677806D01*
X1783780Y679333D01*
X1784058Y680861D01*
X1784243Y681555D01*
X1784428Y682249D01*
Y682295D01*
X1784474Y682388D01*
X1784567Y682573D01*
X1784659Y682804D01*
X1784752Y683128D01*
X1784937Y683452D01*
X1785307Y684239D01*
X1785770Y685072D01*
X1786372Y685951D01*
X1787066Y686831D01*
X1787899Y687571D01*
X1787945D01*
X1787992Y687663D01*
X1788130Y687756D01*
X1788315Y687849D01*
X1788547Y688034D01*
X1788825Y688173D01*
X1789519Y688543D01*
X1790352Y688867D01*
X1791324Y689191D01*
X1792481Y689376D01*
X1793730Y689468D01*
X1794147D01*
X1794656Y689422D01*
D02*
G37*
%LPC*%
G36*
X1990600Y674613D02*
X1990323D01*
X1990137Y674567D01*
X1989675Y674520D01*
X1989027Y674381D01*
X1988333Y674150D01*
X1987546Y673780D01*
X1986805Y673317D01*
X1986065Y672669D01*
X1985972Y672577D01*
X1985787Y672345D01*
X1985463Y671929D01*
X1985139Y671327D01*
X1984815Y670633D01*
X1984491Y669754D01*
X1984306Y668782D01*
X1984214Y667671D01*
Y667579D01*
Y667347D01*
X1984260Y666931D01*
X1984306Y666422D01*
X1984399Y665820D01*
X1984584Y665172D01*
X1984769Y664478D01*
X1985047Y663784D01*
X1985093Y663691D01*
X1985232Y663460D01*
X1985417Y663136D01*
X1985695Y662719D01*
X1986019Y662303D01*
X1986435Y661794D01*
X1986898Y661377D01*
X1987453Y660961D01*
X1987546Y660914D01*
X1987731Y660822D01*
X1988055Y660637D01*
X1988471Y660498D01*
X1988934Y660313D01*
X1989489Y660128D01*
X1990091Y660035D01*
X1990739Y659989D01*
X1990970D01*
X1991156Y660035D01*
X1991618Y660081D01*
X1992220Y660220D01*
X1992868Y660498D01*
X1993608Y660822D01*
X1994349Y661331D01*
X1994719Y661609D01*
X1995043Y661979D01*
Y662025D01*
X1995135Y662071D01*
X1995321Y662349D01*
X1995598Y662812D01*
X1995968Y663413D01*
X1996293Y664200D01*
X1996570Y665126D01*
X1996755Y666190D01*
X1996848Y667440D01*
Y667486D01*
Y667579D01*
Y667764D01*
X1996801Y667995D01*
Y668273D01*
X1996755Y668597D01*
X1996616Y669337D01*
X1996431Y670170D01*
X1996107Y671049D01*
X1995645Y671882D01*
X1995043Y672669D01*
X1994950Y672762D01*
X1994719Y672993D01*
X1994349Y673271D01*
X1993840Y673641D01*
X1993192Y674011D01*
X1992451Y674289D01*
X1991572Y674520D01*
X1990600Y674613D01*
D02*
G37*
G36*
X1868702D02*
X1868424D01*
X1868239Y674567D01*
X1867776Y674520D01*
X1867128Y674381D01*
X1866434Y674150D01*
X1865647Y673780D01*
X1864907Y673317D01*
X1864167Y672669D01*
X1864074Y672577D01*
X1863889Y672345D01*
X1863565Y671929D01*
X1863241Y671327D01*
X1862917Y670633D01*
X1862593Y669754D01*
X1862408Y668782D01*
X1862315Y667671D01*
Y667579D01*
Y667347D01*
X1862362Y666931D01*
X1862408Y666422D01*
X1862500Y665820D01*
X1862686Y665172D01*
X1862871Y664478D01*
X1863148Y663784D01*
X1863195Y663691D01*
X1863333Y663460D01*
X1863519Y663136D01*
X1863796Y662719D01*
X1864120Y662303D01*
X1864537Y661794D01*
X1865000Y661377D01*
X1865555Y660961D01*
X1865647Y660914D01*
X1865833Y660822D01*
X1866156Y660637D01*
X1866573Y660498D01*
X1867036Y660313D01*
X1867591Y660128D01*
X1868193Y660035D01*
X1868841Y659989D01*
X1869072D01*
X1869257Y660035D01*
X1869720Y660081D01*
X1870322Y660220D01*
X1870970Y660498D01*
X1871710Y660822D01*
X1872450Y661331D01*
X1872821Y661609D01*
X1873145Y661979D01*
Y662025D01*
X1873237Y662071D01*
X1873422Y662349D01*
X1873700Y662812D01*
X1874070Y663413D01*
X1874394Y664200D01*
X1874672Y665126D01*
X1874857Y666190D01*
X1874949Y667440D01*
Y667486D01*
Y667579D01*
Y667764D01*
X1874903Y667995D01*
Y668273D01*
X1874857Y668597D01*
X1874718Y669337D01*
X1874533Y670170D01*
X1874209Y671049D01*
X1873746Y671882D01*
X1873145Y672669D01*
X1873052Y672762D01*
X1872821Y672993D01*
X1872450Y673271D01*
X1871941Y673641D01*
X1871293Y674011D01*
X1870553Y674289D01*
X1869674Y674520D01*
X1868702Y674613D01*
D02*
G37*
G36*
X2214913Y677945D02*
X2214682D01*
X2214497Y677899D01*
X2214034Y677806D01*
X2213433Y677667D01*
X2212738Y677390D01*
X2211998Y676973D01*
X2211582Y676695D01*
X2211211Y676372D01*
X2210841Y676001D01*
X2210471Y675585D01*
Y675538D01*
X2210378Y675492D01*
X2210286Y675353D01*
X2210193Y675168D01*
X2210054Y674891D01*
X2209869Y674613D01*
X2209684Y674243D01*
X2209545Y673873D01*
X2209360Y673410D01*
X2209175Y672901D01*
X2209036Y672345D01*
X2208851Y671744D01*
X2208758Y671049D01*
X2208666Y670355D01*
X2208573Y669615D01*
Y668782D01*
Y668736D01*
Y668597D01*
Y668365D01*
X2208620Y668041D01*
Y667671D01*
X2208666Y667255D01*
X2208805Y666283D01*
X2209036Y665172D01*
X2209314Y664108D01*
X2209777Y663043D01*
X2210054Y662580D01*
X2210378Y662164D01*
X2210471Y662071D01*
X2210702Y661840D01*
X2211072Y661470D01*
X2211582Y661099D01*
X2212229Y660729D01*
X2212970Y660359D01*
X2213803Y660128D01*
X2214266Y660081D01*
X2214728Y660035D01*
X2215006D01*
X2215191Y660081D01*
X2215654Y660174D01*
X2216302Y660313D01*
X2216996Y660590D01*
X2217737Y660961D01*
X2218477Y661516D01*
X2218847Y661840D01*
X2219218Y662210D01*
Y662256D01*
X2219310Y662303D01*
X2219403Y662442D01*
X2219495Y662627D01*
X2219680Y662858D01*
X2219819Y663182D01*
X2220004Y663506D01*
X2220189Y663923D01*
X2220328Y664339D01*
X2220513Y664894D01*
X2220698Y665450D01*
X2220837Y666051D01*
X2220930Y666746D01*
X2221022Y667486D01*
X2221115Y668273D01*
Y669106D01*
Y669152D01*
Y669291D01*
Y669522D01*
X2221069Y669846D01*
Y670216D01*
X2221022Y670633D01*
X2220883Y671605D01*
X2220652Y672669D01*
X2220328Y673734D01*
X2219865Y674798D01*
X2219588Y675307D01*
X2219264Y675724D01*
Y675770D01*
X2219171Y675816D01*
X2218940Y676094D01*
X2218570Y676418D01*
X2218060Y676834D01*
X2217413Y677251D01*
X2216672Y677621D01*
X2215839Y677852D01*
X2215376Y677899D01*
X2214913Y677945D01*
D02*
G37*
G36*
X2125271Y668967D02*
X2125225D01*
X2125179Y668921D01*
X2125040Y668874D01*
X2124855Y668828D01*
X2124624Y668736D01*
X2124346Y668643D01*
X2124022Y668550D01*
X2123652Y668458D01*
X2123235Y668319D01*
X2122726Y668226D01*
X2122217Y668088D01*
X2121615Y667949D01*
X2120968Y667810D01*
X2120320Y667671D01*
X2119579Y667579D01*
X2118793Y667440D01*
X2118700D01*
X2118422Y667393D01*
X2117959Y667301D01*
X2117450Y667208D01*
X2116895Y667116D01*
X2116340Y666977D01*
X2115831Y666838D01*
X2115368Y666653D01*
X2115322D01*
X2115183Y666560D01*
X2114998Y666468D01*
X2114812Y666329D01*
X2114257Y665959D01*
X2113794Y665403D01*
Y665357D01*
X2113702Y665265D01*
X2113656Y665079D01*
X2113563Y664848D01*
X2113470Y664570D01*
X2113378Y664293D01*
X2113332Y663923D01*
X2113285Y663552D01*
Y663506D01*
Y663275D01*
X2113332Y662997D01*
X2113424Y662627D01*
X2113563Y662210D01*
X2113794Y661794D01*
X2114072Y661331D01*
X2114442Y660914D01*
X2114489Y660868D01*
X2114674Y660776D01*
X2114951Y660590D01*
X2115322Y660405D01*
X2115831Y660220D01*
X2116432Y660035D01*
X2117126Y659942D01*
X2117959Y659896D01*
X2118330D01*
X2118793Y659942D01*
X2119301Y660035D01*
X2119949Y660128D01*
X2120597Y660313D01*
X2121292Y660544D01*
X2121986Y660868D01*
X2122078Y660914D01*
X2122263Y661053D01*
X2122587Y661285D01*
X2122958Y661609D01*
X2123374Y661979D01*
X2123837Y662442D01*
X2124207Y662997D01*
X2124577Y663599D01*
X2124624Y663645D01*
X2124670Y663830D01*
X2124762Y664154D01*
X2124901Y664570D01*
X2125040Y665126D01*
X2125133Y665774D01*
X2125179Y666560D01*
X2125225Y667486D01*
X2125271Y668967D01*
D02*
G37*
G36*
X1820757Y682943D02*
X1810668Y668597D01*
X1820757D01*
Y682943D01*
D02*
G37*
G36*
X2040165Y686229D02*
X2039794D01*
X2039378Y686136D01*
X2038823Y686044D01*
X2038221Y685859D01*
X2037573Y685627D01*
X2036971Y685257D01*
X2036370Y684748D01*
X2036324Y684702D01*
X2036138Y684517D01*
X2035907Y684193D01*
X2035676Y683776D01*
X2035398Y683267D01*
X2035167Y682665D01*
X2034982Y682018D01*
X2034935Y681277D01*
Y681231D01*
Y681184D01*
X2034982Y680907D01*
X2035028Y680490D01*
X2035120Y679981D01*
X2035305Y679380D01*
X2035537Y678778D01*
X2035907Y678130D01*
X2036370Y677575D01*
X2036416Y677529D01*
X2036648Y677343D01*
X2036971Y677112D01*
X2037388Y676881D01*
X2037943Y676603D01*
X2038591Y676372D01*
X2039332Y676186D01*
X2040165Y676140D01*
X2040257D01*
X2040535Y676186D01*
X2040952Y676233D01*
X2041507Y676325D01*
X2042108Y676510D01*
X2042710Y676742D01*
X2043358Y677112D01*
X2043913Y677575D01*
X2043960Y677621D01*
X2044145Y677852D01*
X2044376Y678130D01*
X2044654Y678547D01*
X2044931Y679056D01*
X2045163Y679657D01*
X2045348Y680351D01*
X2045394Y681092D01*
Y681138D01*
Y681184D01*
Y681462D01*
X2045302Y681879D01*
X2045209Y682388D01*
X2045024Y682943D01*
X2044746Y683545D01*
X2044376Y684146D01*
X2043867Y684748D01*
X2043821Y684794D01*
X2043589Y684979D01*
X2043266Y685211D01*
X2042849Y685488D01*
X2042294Y685766D01*
X2041692Y685997D01*
X2040952Y686183D01*
X2040165Y686229D01*
D02*
G37*
G36*
X2040026Y672947D02*
X2039748D01*
X2039563Y672901D01*
X2039054Y672854D01*
X2038406Y672716D01*
X2037666Y672484D01*
X2036925Y672160D01*
X2036138Y671697D01*
X2035444Y671096D01*
X2035352Y671003D01*
X2035167Y670772D01*
X2034889Y670355D01*
X2034565Y669846D01*
X2034195Y669152D01*
X2033917Y668365D01*
X2033732Y667486D01*
X2033640Y666514D01*
Y666422D01*
Y666236D01*
X2033686Y665912D01*
X2033732Y665496D01*
X2033825Y664987D01*
X2033963Y664432D01*
X2034149Y663876D01*
X2034380Y663275D01*
X2034426Y663228D01*
X2034519Y662997D01*
X2034704Y662719D01*
X2034982Y662395D01*
X2035305Y661979D01*
X2035722Y661562D01*
X2036185Y661192D01*
X2036740Y660822D01*
X2036833Y660776D01*
X2037018Y660683D01*
X2037342Y660544D01*
X2037758Y660405D01*
X2038267Y660266D01*
X2038869Y660128D01*
X2039517Y660035D01*
X2040165Y659989D01*
X2040443D01*
X2040628Y660035D01*
X2041183Y660081D01*
X2041831Y660220D01*
X2042571Y660452D01*
X2043358Y660729D01*
X2044099Y661192D01*
X2044839Y661794D01*
X2044931Y661886D01*
X2045117Y662118D01*
X2045441Y662534D01*
X2045764Y663043D01*
X2046089Y663691D01*
X2046412Y664478D01*
X2046597Y665403D01*
X2046690Y666375D01*
Y666422D01*
Y666514D01*
Y666653D01*
X2046644Y666838D01*
X2046597Y667347D01*
X2046459Y668041D01*
X2046227Y668736D01*
X2045903Y669522D01*
X2045441Y670309D01*
X2044793Y671049D01*
X2044700Y671142D01*
X2044469Y671327D01*
X2044052Y671651D01*
X2043497Y672021D01*
X2042803Y672345D01*
X2041970Y672669D01*
X2041044Y672854D01*
X2040026Y672947D01*
D02*
G37*
G36*
X1793684Y686229D02*
X1793406D01*
X1793221Y686183D01*
X1792712Y686090D01*
X1792110Y685951D01*
X1791416Y685674D01*
X1790676Y685257D01*
X1790305Y684979D01*
X1789935Y684702D01*
X1789611Y684332D01*
X1789287Y683915D01*
Y683869D01*
X1789195Y683776D01*
X1789102Y683591D01*
X1788963Y683360D01*
X1788825Y682989D01*
X1788640Y682573D01*
X1788501Y682064D01*
X1788315Y681462D01*
X1788130Y680768D01*
X1787945Y679981D01*
X1787760Y679102D01*
X1787621Y678130D01*
X1787482Y677019D01*
X1787390Y675816D01*
X1787344Y674520D01*
X1787297Y673086D01*
Y672993D01*
Y672762D01*
Y672345D01*
X1787344Y671790D01*
Y671188D01*
X1787390Y670448D01*
X1787436Y669661D01*
X1787529Y668828D01*
X1787760Y667023D01*
X1787899Y666144D01*
X1788084Y665311D01*
X1788269Y664524D01*
X1788547Y663784D01*
X1788825Y663136D01*
X1789149Y662580D01*
Y662534D01*
X1789241Y662488D01*
X1789473Y662164D01*
X1789889Y661747D01*
X1790398Y661285D01*
X1791092Y660822D01*
X1791879Y660405D01*
X1792758Y660081D01*
X1793221Y660035D01*
X1793730Y659989D01*
X1794008D01*
X1794193Y660035D01*
X1794656Y660128D01*
X1795304Y660313D01*
X1795998Y660637D01*
X1796785Y661099D01*
X1797155Y661377D01*
X1797525Y661747D01*
X1797895Y662118D01*
X1798266Y662580D01*
Y662627D01*
X1798358Y662719D01*
X1798451Y662858D01*
X1798543Y663090D01*
X1798728Y663413D01*
X1798867Y663830D01*
X1799052Y664293D01*
X1799237Y664848D01*
X1799376Y665542D01*
X1799561Y666283D01*
X1799746Y667162D01*
X1799885Y668088D01*
X1799978Y669198D01*
X1800070Y670355D01*
X1800163Y671651D01*
Y673086D01*
Y673132D01*
Y673178D01*
Y673410D01*
Y673826D01*
X1800117Y674381D01*
Y674983D01*
X1800070Y675724D01*
X1800024Y676510D01*
X1799931Y677390D01*
X1799700Y679148D01*
X1799561Y680027D01*
X1799376Y680861D01*
X1799191Y681647D01*
X1798913Y682388D01*
X1798636Y683036D01*
X1798312Y683591D01*
Y683637D01*
X1798219Y683684D01*
X1798127Y683822D01*
X1797988Y684007D01*
X1797571Y684424D01*
X1797062Y684933D01*
X1796368Y685396D01*
X1795581Y685812D01*
X1795165Y685997D01*
X1794702Y686136D01*
X1794193Y686183D01*
X1793684Y686229D01*
D02*
G37*
%LPD*%
M02*
