G04*
G04 #@! TF.GenerationSoftware,Altium Limited,Altium Designer,24.9.1 (31)*
G04*
G04 Layer_Color=8388736*
%FSLAX44Y44*%
%MOMM*%
G71*
G04*
G04 #@! TF.SameCoordinates,A601D634-93CA-4805-8520-E3EE879C7AED*
G04*
G04*
G04 #@! TF.FilePolarity,Positive*
G04*
G01*
G75*
%ADD13C,0.2540*%
G36*
X726565Y1072426D02*
X726658Y1072333D01*
X726704Y1072287D01*
X726750Y1072241D01*
X726843Y1072102D01*
X726935Y1071917D01*
Y1071870D01*
X726982Y1071732D01*
X727028Y1071546D01*
X727074Y1071269D01*
Y1071176D01*
X727121Y1070991D01*
X727167Y1070667D01*
Y1070251D01*
Y1070204D01*
Y1070066D01*
Y1069834D01*
X727121Y1069603D01*
X727074Y1069001D01*
X727028Y1068724D01*
X726935Y1068492D01*
X726889Y1068400D01*
X726796Y1068261D01*
X726565Y1068076D01*
X726473Y1068029D01*
X726334Y1067983D01*
X717170D01*
Y1062430D01*
X717309D01*
X717448Y1062476D01*
X717587D01*
X718050Y1062522D01*
X718790D01*
X718975Y1062569D01*
X720364D01*
X720734Y1062522D01*
X721243D01*
X721798Y1062430D01*
X722446Y1062337D01*
X723094Y1062244D01*
X723696Y1062059D01*
X723788D01*
X723973Y1061967D01*
X724297Y1061828D01*
X724668Y1061689D01*
X725084Y1061458D01*
X725547Y1061226D01*
X726010Y1060902D01*
X726426Y1060579D01*
X726473Y1060532D01*
X726611Y1060393D01*
X726796Y1060208D01*
X727074Y1059931D01*
X727352Y1059607D01*
X727629Y1059190D01*
X727907Y1058727D01*
X728139Y1058218D01*
X728185Y1058172D01*
X728231Y1057987D01*
X728324Y1057663D01*
X728463Y1057293D01*
X728555Y1056830D01*
X728648Y1056274D01*
X728694Y1055673D01*
X728740Y1054979D01*
Y1054886D01*
Y1054609D01*
X728694Y1054238D01*
X728648Y1053729D01*
X728555Y1053128D01*
X728416Y1052526D01*
X728231Y1051878D01*
X728000Y1051230D01*
X727953Y1051138D01*
X727861Y1050953D01*
X727676Y1050629D01*
X727444Y1050258D01*
X727167Y1049796D01*
X726796Y1049333D01*
X726380Y1048870D01*
X725917Y1048407D01*
X725871Y1048361D01*
X725686Y1048222D01*
X725408Y1048037D01*
X725038Y1047759D01*
X724575Y1047482D01*
X724020Y1047204D01*
X723418Y1046926D01*
X722724Y1046695D01*
X722631D01*
X722400Y1046602D01*
X722030Y1046510D01*
X721521Y1046417D01*
X720919Y1046325D01*
X720225Y1046232D01*
X719438Y1046186D01*
X718605Y1046140D01*
X718189D01*
X717865Y1046186D01*
X717495D01*
X717124Y1046232D01*
X716291Y1046325D01*
X716245D01*
X716106Y1046371D01*
X715921D01*
X715643Y1046417D01*
X715042Y1046510D01*
X714348Y1046649D01*
X714301D01*
X714209Y1046695D01*
X714070Y1046741D01*
X713885Y1046787D01*
X713422Y1046926D01*
X712959Y1047111D01*
X712867Y1047158D01*
X712682Y1047250D01*
X712404Y1047389D01*
X712219Y1047528D01*
Y1047574D01*
X712126Y1047620D01*
X711987Y1047852D01*
Y1047898D01*
X711941Y1047991D01*
X711849Y1048268D01*
Y1048315D01*
Y1048453D01*
X711802Y1048639D01*
Y1048870D01*
Y1048962D01*
Y1049148D01*
Y1049425D01*
Y1049796D01*
Y1049842D01*
Y1049888D01*
Y1050119D01*
Y1050443D01*
Y1050721D01*
Y1050814D01*
X711849Y1050953D01*
X711895Y1051184D01*
X711941Y1051369D01*
Y1051415D01*
X711987Y1051508D01*
X712080Y1051600D01*
X712126Y1051693D01*
X712172Y1051739D01*
X712219Y1051786D01*
X712311Y1051832D01*
X712496D01*
X712589Y1051786D01*
X712774Y1051739D01*
X713052Y1051600D01*
X713144Y1051554D01*
X713329Y1051461D01*
X713700Y1051276D01*
X714116Y1051045D01*
X714162D01*
X714255Y1050999D01*
X714394Y1050953D01*
X714579Y1050860D01*
X715088Y1050721D01*
X715736Y1050536D01*
X715782D01*
X715921Y1050490D01*
X716106D01*
X716384Y1050443D01*
X716708Y1050397D01*
X717124D01*
X717587Y1050351D01*
X718466D01*
X718744Y1050397D01*
X719438Y1050443D01*
X720132Y1050582D01*
X720179D01*
X720318Y1050629D01*
X720456Y1050675D01*
X720688Y1050767D01*
X721243Y1050999D01*
X721752Y1051323D01*
X721798Y1051369D01*
X721845Y1051415D01*
X722122Y1051693D01*
X722446Y1052110D01*
X722770Y1052665D01*
Y1052711D01*
X722816Y1052804D01*
X722909Y1052989D01*
X722955Y1053220D01*
X723048Y1053498D01*
X723094Y1053822D01*
X723140Y1054609D01*
Y1054655D01*
Y1054747D01*
Y1054932D01*
X723094Y1055164D01*
X723002Y1055719D01*
X722816Y1056274D01*
Y1056321D01*
X722770Y1056413D01*
X722678Y1056552D01*
X722585Y1056737D01*
X722308Y1057154D01*
X721891Y1057570D01*
X721845Y1057617D01*
X721798Y1057663D01*
X721613Y1057756D01*
X721428Y1057848D01*
X721197Y1057987D01*
X720919Y1058126D01*
X720225Y1058357D01*
X720179D01*
X720040Y1058403D01*
X719808Y1058450D01*
X719531Y1058496D01*
X719161Y1058542D01*
X718744Y1058588D01*
X718281Y1058635D01*
X717078D01*
X716384Y1058588D01*
X715643Y1058496D01*
X715505D01*
X715319Y1058450D01*
X715088D01*
X714533Y1058403D01*
X713885Y1058357D01*
X713792D01*
X713561Y1058403D01*
X713283Y1058496D01*
X713052Y1058635D01*
X713005Y1058681D01*
X712959Y1058912D01*
X712867Y1059236D01*
X712820Y1059745D01*
Y1070945D01*
Y1070991D01*
Y1071084D01*
X712867Y1071408D01*
X712959Y1071778D01*
X713098Y1072102D01*
X713144Y1072148D01*
X713329Y1072287D01*
X713653Y1072426D01*
X714116Y1072472D01*
X726426D01*
X726565Y1072426D01*
D02*
G37*
G36*
X701806Y1072611D02*
X701898D01*
X702084Y1072565D01*
X702315Y1072518D01*
X702546Y1072472D01*
X702593D01*
X702685Y1072426D01*
X702778Y1072380D01*
X702870Y1072287D01*
X702917Y1072241D01*
X702963Y1072009D01*
Y1050675D01*
X707221D01*
X707359Y1050629D01*
X707452Y1050536D01*
X707498D01*
X707544Y1050443D01*
X707637Y1050351D01*
X707730Y1050166D01*
Y1050119D01*
X707776Y1049981D01*
X707822Y1049796D01*
X707868Y1049518D01*
Y1049472D01*
X707915Y1049286D01*
X707961Y1048962D01*
Y1048592D01*
Y1048546D01*
Y1048500D01*
Y1048268D01*
X707915Y1047944D01*
X707868Y1047620D01*
Y1047574D01*
X707822Y1047389D01*
X707776Y1047204D01*
X707683Y1047019D01*
Y1046973D01*
X707637Y1046880D01*
X707544Y1046787D01*
X707452Y1046695D01*
X707359Y1046649D01*
X707128Y1046602D01*
X692782D01*
X692597Y1046695D01*
X692504Y1046787D01*
X692411Y1046880D01*
X692319Y1047019D01*
Y1047065D01*
X692272Y1047204D01*
X692226Y1047389D01*
X692180Y1047620D01*
Y1047713D01*
Y1047898D01*
X692134Y1048222D01*
Y1048592D01*
Y1048639D01*
Y1048685D01*
Y1048916D01*
Y1049240D01*
X692180Y1049518D01*
Y1049610D01*
X692226Y1049749D01*
X692272Y1049981D01*
X692319Y1050166D01*
Y1050212D01*
X692365Y1050305D01*
X692458Y1050443D01*
X692550Y1050536D01*
X692597Y1050582D01*
X692643Y1050629D01*
X692735Y1050675D01*
X697733D01*
Y1067520D01*
X693568Y1065206D01*
X693476Y1065160D01*
X693291Y1065068D01*
X693059Y1064975D01*
X692782Y1064929D01*
X692458D01*
X692319Y1065021D01*
Y1065068D01*
X692226Y1065160D01*
X692180Y1065345D01*
X692134Y1065623D01*
Y1065715D01*
Y1065947D01*
X692087Y1066271D01*
Y1066780D01*
Y1066826D01*
Y1066872D01*
Y1067057D01*
Y1067335D01*
Y1067567D01*
Y1067613D01*
Y1067752D01*
X692180Y1068122D01*
Y1068168D01*
X692226Y1068261D01*
X692411Y1068492D01*
X692458Y1068538D01*
X692504Y1068585D01*
X692782Y1068770D01*
X698335Y1072380D01*
X698381Y1072426D01*
X698566Y1072518D01*
X698613D01*
X698705Y1072565D01*
X699029D01*
X699168Y1072611D01*
X699677D01*
X699862Y1072657D01*
X701436D01*
X701806Y1072611D01*
D02*
G37*
G36*
X757479Y1052480D02*
X757850Y1052433D01*
X758590Y1052248D01*
X758960Y1052110D01*
X759238Y1051878D01*
X759284Y1051832D01*
X759331Y1051739D01*
X759423Y1051600D01*
X759562Y1051323D01*
X759701Y1050999D01*
X759793Y1050582D01*
X759840Y1050073D01*
X759886Y1049472D01*
Y1049379D01*
Y1049148D01*
X759840Y1048824D01*
X759793Y1048453D01*
X759608Y1047620D01*
X759469Y1047204D01*
X759238Y1046926D01*
X759192Y1046880D01*
X759099Y1046834D01*
X758960Y1046741D01*
X758683Y1046649D01*
X758359Y1046510D01*
X757988Y1046417D01*
X757479Y1046371D01*
X756878Y1046325D01*
X756600D01*
X756322Y1046371D01*
X755952Y1046417D01*
X755212Y1046602D01*
X754842Y1046741D01*
X754564Y1046926D01*
X754518Y1046973D01*
X754471Y1047065D01*
X754379Y1047204D01*
X754286Y1047482D01*
X754147Y1047805D01*
X754055Y1048222D01*
X754008Y1048731D01*
X753962Y1049333D01*
Y1049425D01*
Y1049657D01*
X754008Y1049981D01*
X754055Y1050351D01*
X754240Y1051230D01*
X754379Y1051600D01*
X754610Y1051878D01*
X754656Y1051924D01*
X754749Y1051971D01*
X754888Y1052063D01*
X755165Y1052202D01*
X755443Y1052341D01*
X755860Y1052433D01*
X756369Y1052480D01*
X756924Y1052526D01*
X757202D01*
X757479Y1052480D01*
D02*
G37*
G36*
X794734Y1072889D02*
X795335Y1072842D01*
X796030Y1072703D01*
X796770Y1072565D01*
X797511Y1072333D01*
X798205Y1072009D01*
X798297Y1071963D01*
X798482Y1071824D01*
X798806Y1071639D01*
X799223Y1071315D01*
X799639Y1070945D01*
X800102Y1070528D01*
X800565Y1069973D01*
X800981Y1069371D01*
X801028Y1069279D01*
X801167Y1069047D01*
X801305Y1068724D01*
X801537Y1068214D01*
X801768Y1067613D01*
X802000Y1066872D01*
X802231Y1066086D01*
X802416Y1065206D01*
Y1065160D01*
Y1065114D01*
X802462Y1064975D01*
Y1064790D01*
X802509Y1064558D01*
X802555Y1064281D01*
X802647Y1063587D01*
X802694Y1062754D01*
X802786Y1061828D01*
X802833Y1060764D01*
Y1059607D01*
Y1059560D01*
Y1059468D01*
Y1059283D01*
Y1059098D01*
Y1058820D01*
X802786Y1058496D01*
Y1057756D01*
X802694Y1056876D01*
X802601Y1055951D01*
X802509Y1054979D01*
X802324Y1054007D01*
Y1053961D01*
Y1053914D01*
X802277Y1053775D01*
X802231Y1053590D01*
X802092Y1053128D01*
X801907Y1052526D01*
X801676Y1051878D01*
X801398Y1051138D01*
X801074Y1050443D01*
X800658Y1049749D01*
X800611Y1049657D01*
X800472Y1049472D01*
X800195Y1049148D01*
X799871Y1048777D01*
X799454Y1048315D01*
X798945Y1047898D01*
X798390Y1047435D01*
X797742Y1047065D01*
X797649Y1047019D01*
X797418Y1046926D01*
X797048Y1046787D01*
X796492Y1046602D01*
X795844Y1046417D01*
X795104Y1046278D01*
X794271Y1046186D01*
X793299Y1046140D01*
X792883D01*
X792374Y1046186D01*
X791772Y1046232D01*
X791078Y1046371D01*
X790337Y1046510D01*
X789597Y1046741D01*
X788903Y1047019D01*
X788810Y1047065D01*
X788625Y1047204D01*
X788301Y1047389D01*
X787885Y1047713D01*
X787468Y1048083D01*
X787005Y1048546D01*
X786542Y1049055D01*
X786126Y1049657D01*
X786080Y1049749D01*
X785941Y1049981D01*
X785802Y1050351D01*
X785571Y1050814D01*
X785339Y1051415D01*
X785108Y1052156D01*
X784876Y1052943D01*
X784691Y1053822D01*
Y1053868D01*
Y1053914D01*
X784645Y1054053D01*
Y1054238D01*
X784599Y1054470D01*
Y1054747D01*
X784506Y1055442D01*
X784460Y1056274D01*
X784367Y1057200D01*
X784321Y1058264D01*
Y1059421D01*
Y1059468D01*
Y1059560D01*
Y1059699D01*
Y1059931D01*
Y1060208D01*
X784367Y1060532D01*
Y1061273D01*
X784460Y1062106D01*
X784553Y1063077D01*
X784645Y1064003D01*
X784830Y1064975D01*
Y1065021D01*
X784876Y1065068D01*
Y1065206D01*
X784923Y1065391D01*
X785061Y1065854D01*
X785247Y1066456D01*
X785432Y1067150D01*
X785709Y1067844D01*
X786080Y1068585D01*
X786450Y1069279D01*
X786496Y1069371D01*
X786635Y1069557D01*
X786913Y1069881D01*
X787237Y1070297D01*
X787653Y1070714D01*
X788162Y1071176D01*
X788717Y1071593D01*
X789365Y1071963D01*
X789458Y1072009D01*
X789689Y1072102D01*
X790106Y1072287D01*
X790615Y1072472D01*
X791263Y1072611D01*
X792003Y1072796D01*
X792883Y1072889D01*
X793808Y1072935D01*
X794271D01*
X794734Y1072889D01*
D02*
G37*
G36*
X773955D02*
X774556Y1072842D01*
X775250Y1072703D01*
X775991Y1072565D01*
X776731Y1072333D01*
X777426Y1072009D01*
X777518Y1071963D01*
X777703Y1071824D01*
X778027Y1071639D01*
X778444Y1071315D01*
X778860Y1070945D01*
X779323Y1070528D01*
X779786Y1069973D01*
X780202Y1069371D01*
X780248Y1069279D01*
X780387Y1069047D01*
X780526Y1068724D01*
X780758Y1068214D01*
X780989Y1067613D01*
X781220Y1066872D01*
X781452Y1066086D01*
X781637Y1065206D01*
Y1065160D01*
Y1065114D01*
X781683Y1064975D01*
Y1064790D01*
X781729Y1064558D01*
X781776Y1064281D01*
X781868Y1063587D01*
X781915Y1062754D01*
X782007Y1061828D01*
X782053Y1060764D01*
Y1059607D01*
Y1059560D01*
Y1059468D01*
Y1059283D01*
Y1059098D01*
Y1058820D01*
X782007Y1058496D01*
Y1057756D01*
X781915Y1056876D01*
X781822Y1055951D01*
X781729Y1054979D01*
X781544Y1054007D01*
Y1053961D01*
Y1053914D01*
X781498Y1053775D01*
X781452Y1053590D01*
X781313Y1053128D01*
X781128Y1052526D01*
X780896Y1051878D01*
X780619Y1051138D01*
X780295Y1050443D01*
X779878Y1049749D01*
X779832Y1049657D01*
X779693Y1049472D01*
X779416Y1049148D01*
X779092Y1048777D01*
X778675Y1048315D01*
X778166Y1047898D01*
X777611Y1047435D01*
X776963Y1047065D01*
X776870Y1047019D01*
X776639Y1046926D01*
X776269Y1046787D01*
X775713Y1046602D01*
X775065Y1046417D01*
X774325Y1046278D01*
X773492Y1046186D01*
X772520Y1046140D01*
X772104D01*
X771594Y1046186D01*
X770993Y1046232D01*
X770299Y1046371D01*
X769558Y1046510D01*
X768818Y1046741D01*
X768123Y1047019D01*
X768031Y1047065D01*
X767846Y1047204D01*
X767522Y1047389D01*
X767105Y1047713D01*
X766689Y1048083D01*
X766226Y1048546D01*
X765763Y1049055D01*
X765347Y1049657D01*
X765301Y1049749D01*
X765162Y1049981D01*
X765023Y1050351D01*
X764791Y1050814D01*
X764560Y1051415D01*
X764329Y1052156D01*
X764097Y1052943D01*
X763912Y1053822D01*
Y1053868D01*
Y1053914D01*
X763866Y1054053D01*
Y1054238D01*
X763820Y1054470D01*
Y1054747D01*
X763727Y1055442D01*
X763681Y1056274D01*
X763588Y1057200D01*
X763542Y1058264D01*
Y1059421D01*
Y1059468D01*
Y1059560D01*
Y1059699D01*
Y1059931D01*
Y1060208D01*
X763588Y1060532D01*
Y1061273D01*
X763681Y1062106D01*
X763773Y1063077D01*
X763866Y1064003D01*
X764051Y1064975D01*
Y1065021D01*
X764097Y1065068D01*
Y1065206D01*
X764144Y1065391D01*
X764282Y1065854D01*
X764467Y1066456D01*
X764653Y1067150D01*
X764930Y1067844D01*
X765301Y1068585D01*
X765671Y1069279D01*
X765717Y1069371D01*
X765856Y1069557D01*
X766133Y1069881D01*
X766457Y1070297D01*
X766874Y1070714D01*
X767383Y1071176D01*
X767938Y1071593D01*
X768586Y1071963D01*
X768679Y1072009D01*
X768910Y1072102D01*
X769327Y1072287D01*
X769836Y1072472D01*
X770484Y1072611D01*
X771224Y1072796D01*
X772104Y1072889D01*
X773029Y1072935D01*
X773492D01*
X773955Y1072889D01*
D02*
G37*
G36*
X742254D02*
X742855Y1072842D01*
X743549Y1072703D01*
X744290Y1072565D01*
X745030Y1072333D01*
X745724Y1072009D01*
X745817Y1071963D01*
X746002Y1071824D01*
X746326Y1071639D01*
X746743Y1071315D01*
X747159Y1070945D01*
X747622Y1070528D01*
X748085Y1069973D01*
X748501Y1069371D01*
X748548Y1069279D01*
X748686Y1069047D01*
X748825Y1068724D01*
X749057Y1068214D01*
X749288Y1067613D01*
X749519Y1066872D01*
X749751Y1066086D01*
X749936Y1065206D01*
Y1065160D01*
Y1065114D01*
X749982Y1064975D01*
Y1064790D01*
X750029Y1064558D01*
X750075Y1064281D01*
X750167Y1063587D01*
X750214Y1062754D01*
X750306Y1061828D01*
X750352Y1060764D01*
Y1059607D01*
Y1059560D01*
Y1059468D01*
Y1059283D01*
Y1059098D01*
Y1058820D01*
X750306Y1058496D01*
Y1057756D01*
X750214Y1056876D01*
X750121Y1055951D01*
X750029Y1054979D01*
X749843Y1054007D01*
Y1053961D01*
Y1053914D01*
X749797Y1053775D01*
X749751Y1053590D01*
X749612Y1053128D01*
X749427Y1052526D01*
X749195Y1051878D01*
X748918Y1051138D01*
X748594Y1050443D01*
X748177Y1049749D01*
X748131Y1049657D01*
X747992Y1049472D01*
X747714Y1049148D01*
X747391Y1048777D01*
X746974Y1048315D01*
X746465Y1047898D01*
X745910Y1047435D01*
X745262Y1047065D01*
X745169Y1047019D01*
X744938Y1046926D01*
X744568Y1046787D01*
X744012Y1046602D01*
X743364Y1046417D01*
X742624Y1046278D01*
X741791Y1046186D01*
X740819Y1046140D01*
X740403D01*
X739893Y1046186D01*
X739292Y1046232D01*
X738598Y1046371D01*
X737857Y1046510D01*
X737117Y1046741D01*
X736423Y1047019D01*
X736330Y1047065D01*
X736145Y1047204D01*
X735821Y1047389D01*
X735404Y1047713D01*
X734988Y1048083D01*
X734525Y1048546D01*
X734062Y1049055D01*
X733646Y1049657D01*
X733599Y1049749D01*
X733461Y1049981D01*
X733322Y1050351D01*
X733090Y1050814D01*
X732859Y1051415D01*
X732628Y1052156D01*
X732396Y1052943D01*
X732211Y1053822D01*
Y1053868D01*
Y1053914D01*
X732165Y1054053D01*
Y1054238D01*
X732119Y1054470D01*
Y1054747D01*
X732026Y1055442D01*
X731980Y1056274D01*
X731887Y1057200D01*
X731841Y1058264D01*
Y1059421D01*
Y1059468D01*
Y1059560D01*
Y1059699D01*
Y1059931D01*
Y1060208D01*
X731887Y1060532D01*
Y1061273D01*
X731980Y1062106D01*
X732072Y1063077D01*
X732165Y1064003D01*
X732350Y1064975D01*
Y1065021D01*
X732396Y1065068D01*
Y1065206D01*
X732442Y1065391D01*
X732581Y1065854D01*
X732766Y1066456D01*
X732952Y1067150D01*
X733229Y1067844D01*
X733599Y1068585D01*
X733970Y1069279D01*
X734016Y1069371D01*
X734155Y1069557D01*
X734433Y1069881D01*
X734756Y1070297D01*
X735173Y1070714D01*
X735682Y1071176D01*
X736237Y1071593D01*
X736885Y1071963D01*
X736978Y1072009D01*
X737209Y1072102D01*
X737626Y1072287D01*
X738135Y1072472D01*
X738783Y1072611D01*
X739523Y1072796D01*
X740403Y1072889D01*
X741328Y1072935D01*
X741791D01*
X742254Y1072889D01*
D02*
G37*
G36*
X1556504Y552786D02*
X1557245D01*
X1558124Y552694D01*
X1559049Y552601D01*
X1560021Y552509D01*
X1560993Y552323D01*
X1561039D01*
X1561086D01*
X1561225Y552277D01*
X1561410Y552231D01*
X1561872Y552092D01*
X1562474Y551907D01*
X1563122Y551676D01*
X1563862Y551398D01*
X1564557Y551074D01*
X1565251Y550658D01*
X1565343Y550611D01*
X1565528Y550472D01*
X1565852Y550195D01*
X1566223Y549871D01*
X1566685Y549454D01*
X1567102Y548945D01*
X1567565Y548390D01*
X1567935Y547742D01*
X1567981Y547649D01*
X1568074Y547418D01*
X1568213Y547048D01*
X1568398Y546492D01*
X1568583Y545844D01*
X1568722Y545104D01*
X1568814Y544271D01*
X1568860Y543299D01*
Y542883D01*
X1568814Y542374D01*
X1568768Y541772D01*
X1568629Y541078D01*
X1568490Y540337D01*
X1568259Y539597D01*
X1567981Y538903D01*
X1567935Y538810D01*
X1567796Y538625D01*
X1567611Y538301D01*
X1567287Y537884D01*
X1566917Y537468D01*
X1566454Y537005D01*
X1565945Y536542D01*
X1565343Y536126D01*
X1565251Y536080D01*
X1565019Y535941D01*
X1564649Y535802D01*
X1564186Y535571D01*
X1563585Y535339D01*
X1562844Y535108D01*
X1562057Y534876D01*
X1561178Y534691D01*
X1561132D01*
X1561086D01*
X1560947Y534645D01*
X1560762D01*
X1560530Y534599D01*
X1560253D01*
X1559559Y534506D01*
X1558725Y534460D01*
X1557800Y534367D01*
X1556735Y534321D01*
X1555578D01*
X1555532D01*
X1555440D01*
X1555301D01*
X1555069D01*
X1554792D01*
X1554468Y534367D01*
X1553727D01*
X1552894Y534460D01*
X1551922Y534552D01*
X1550997Y534645D01*
X1550025Y534830D01*
X1549979D01*
X1549933Y534876D01*
X1549794D01*
X1549608Y534923D01*
X1549146Y535061D01*
X1548544Y535247D01*
X1547850Y535432D01*
X1547156Y535709D01*
X1546415Y536080D01*
X1545721Y536450D01*
X1545629Y536496D01*
X1545443Y536635D01*
X1545119Y536913D01*
X1544703Y537237D01*
X1544286Y537653D01*
X1543824Y538162D01*
X1543407Y538717D01*
X1543037Y539365D01*
X1542991Y539458D01*
X1542898Y539689D01*
X1542713Y540106D01*
X1542528Y540615D01*
X1542389Y541263D01*
X1542204Y542003D01*
X1542111Y542883D01*
X1542065Y543808D01*
Y544271D01*
X1542111Y544734D01*
X1542158Y545335D01*
X1542296Y546030D01*
X1542435Y546770D01*
X1542667Y547510D01*
X1542991Y548205D01*
X1543037Y548297D01*
X1543176Y548482D01*
X1543361Y548806D01*
X1543685Y549223D01*
X1544055Y549639D01*
X1544472Y550102D01*
X1545027Y550565D01*
X1545629Y550981D01*
X1545721Y551028D01*
X1545952Y551166D01*
X1546276Y551305D01*
X1546785Y551537D01*
X1547387Y551768D01*
X1548128Y552000D01*
X1548914Y552231D01*
X1549794Y552416D01*
X1549840D01*
X1549886D01*
X1550025Y552462D01*
X1550210D01*
X1550441Y552509D01*
X1550719Y552555D01*
X1551413Y552648D01*
X1552246Y552694D01*
X1553172Y552786D01*
X1554236Y552833D01*
X1555393D01*
X1555440D01*
X1555532D01*
X1555717D01*
X1555902D01*
X1556180D01*
X1556504Y552786D01*
D02*
G37*
G36*
Y532007D02*
X1557245D01*
X1558124Y531915D01*
X1559049Y531822D01*
X1560021Y531729D01*
X1560993Y531544D01*
X1561039D01*
X1561086D01*
X1561225Y531498D01*
X1561410Y531452D01*
X1561872Y531313D01*
X1562474Y531128D01*
X1563122Y530896D01*
X1563862Y530619D01*
X1564557Y530295D01*
X1565251Y529878D01*
X1565343Y529832D01*
X1565528Y529693D01*
X1565852Y529416D01*
X1566223Y529092D01*
X1566685Y528675D01*
X1567102Y528166D01*
X1567565Y527611D01*
X1567935Y526963D01*
X1567981Y526870D01*
X1568074Y526639D01*
X1568213Y526269D01*
X1568398Y525713D01*
X1568583Y525065D01*
X1568722Y524325D01*
X1568814Y523492D01*
X1568860Y522520D01*
Y522104D01*
X1568814Y521594D01*
X1568768Y520993D01*
X1568629Y520299D01*
X1568490Y519558D01*
X1568259Y518818D01*
X1567981Y518124D01*
X1567935Y518031D01*
X1567796Y517846D01*
X1567611Y517522D01*
X1567287Y517105D01*
X1566917Y516689D01*
X1566454Y516226D01*
X1565945Y515763D01*
X1565343Y515347D01*
X1565251Y515300D01*
X1565019Y515162D01*
X1564649Y515023D01*
X1564186Y514791D01*
X1563585Y514560D01*
X1562844Y514329D01*
X1562057Y514097D01*
X1561178Y513912D01*
X1561132D01*
X1561086D01*
X1560947Y513866D01*
X1560762D01*
X1560530Y513820D01*
X1560253D01*
X1559559Y513727D01*
X1558725Y513681D01*
X1557800Y513588D01*
X1556735Y513542D01*
X1555578D01*
X1555532D01*
X1555440D01*
X1555301D01*
X1555069D01*
X1554792D01*
X1554468Y513588D01*
X1553727D01*
X1552894Y513681D01*
X1551922Y513773D01*
X1550997Y513866D01*
X1550025Y514051D01*
X1549979D01*
X1549933Y514097D01*
X1549794D01*
X1549608Y514143D01*
X1549146Y514282D01*
X1548544Y514467D01*
X1547850Y514653D01*
X1547156Y514930D01*
X1546415Y515300D01*
X1545721Y515671D01*
X1545629Y515717D01*
X1545443Y515856D01*
X1545119Y516133D01*
X1544703Y516457D01*
X1544286Y516874D01*
X1543824Y517383D01*
X1543407Y517938D01*
X1543037Y518586D01*
X1542991Y518679D01*
X1542898Y518910D01*
X1542713Y519327D01*
X1542528Y519836D01*
X1542389Y520484D01*
X1542204Y521224D01*
X1542111Y522104D01*
X1542065Y523029D01*
Y523492D01*
X1542111Y523955D01*
X1542158Y524556D01*
X1542296Y525250D01*
X1542435Y525991D01*
X1542667Y526731D01*
X1542991Y527425D01*
X1543037Y527518D01*
X1543176Y527703D01*
X1543361Y528027D01*
X1543685Y528444D01*
X1544055Y528860D01*
X1544472Y529323D01*
X1545027Y529786D01*
X1545629Y530202D01*
X1545721Y530248D01*
X1545952Y530387D01*
X1546276Y530526D01*
X1546785Y530758D01*
X1547387Y530989D01*
X1548128Y531220D01*
X1548914Y531452D01*
X1549794Y531637D01*
X1549840D01*
X1549886D01*
X1550025Y531683D01*
X1550210D01*
X1550441Y531729D01*
X1550719Y531776D01*
X1551413Y531868D01*
X1552246Y531915D01*
X1553172Y532007D01*
X1554236Y532053D01*
X1555393D01*
X1555440D01*
X1555532D01*
X1555717D01*
X1555902D01*
X1556180D01*
X1556504Y532007D01*
D02*
G37*
G36*
X1566176Y509840D02*
X1566546Y509793D01*
X1567380Y509608D01*
X1567796Y509469D01*
X1568074Y509238D01*
X1568120Y509192D01*
X1568166Y509099D01*
X1568259Y508960D01*
X1568351Y508683D01*
X1568490Y508359D01*
X1568583Y507988D01*
X1568629Y507479D01*
X1568675Y506878D01*
Y506600D01*
X1568629Y506322D01*
X1568583Y505952D01*
X1568398Y505212D01*
X1568259Y504841D01*
X1568074Y504564D01*
X1568027Y504518D01*
X1567935Y504471D01*
X1567796Y504379D01*
X1567518Y504286D01*
X1567195Y504147D01*
X1566778Y504055D01*
X1566269Y504008D01*
X1565667Y503962D01*
X1565575D01*
X1565343D01*
X1565019Y504008D01*
X1564649Y504055D01*
X1563770Y504240D01*
X1563400Y504379D01*
X1563122Y504610D01*
X1563076Y504656D01*
X1563029Y504749D01*
X1562937Y504888D01*
X1562798Y505165D01*
X1562659Y505443D01*
X1562567Y505860D01*
X1562520Y506369D01*
X1562474Y506924D01*
Y507202D01*
X1562520Y507479D01*
X1562567Y507850D01*
X1562752Y508590D01*
X1562890Y508960D01*
X1563122Y509238D01*
X1563168Y509284D01*
X1563261Y509330D01*
X1563400Y509423D01*
X1563677Y509562D01*
X1564001Y509701D01*
X1564418Y509793D01*
X1564927Y509840D01*
X1565528Y509886D01*
X1565621D01*
X1565852D01*
X1566176Y509840D01*
D02*
G37*
G36*
X1556504Y500306D02*
X1557245D01*
X1558124Y500214D01*
X1559049Y500121D01*
X1560021Y500028D01*
X1560993Y499843D01*
X1561039D01*
X1561086D01*
X1561225Y499797D01*
X1561410Y499751D01*
X1561872Y499612D01*
X1562474Y499427D01*
X1563122Y499195D01*
X1563862Y498918D01*
X1564557Y498594D01*
X1565251Y498177D01*
X1565343Y498131D01*
X1565528Y497992D01*
X1565852Y497715D01*
X1566223Y497391D01*
X1566685Y496974D01*
X1567102Y496465D01*
X1567565Y495910D01*
X1567935Y495262D01*
X1567981Y495169D01*
X1568074Y494938D01*
X1568213Y494568D01*
X1568398Y494012D01*
X1568583Y493364D01*
X1568722Y492624D01*
X1568814Y491791D01*
X1568860Y490819D01*
Y490402D01*
X1568814Y489893D01*
X1568768Y489292D01*
X1568629Y488598D01*
X1568490Y487857D01*
X1568259Y487117D01*
X1567981Y486423D01*
X1567935Y486330D01*
X1567796Y486145D01*
X1567611Y485821D01*
X1567287Y485404D01*
X1566917Y484988D01*
X1566454Y484525D01*
X1565945Y484062D01*
X1565343Y483646D01*
X1565251Y483600D01*
X1565019Y483461D01*
X1564649Y483322D01*
X1564186Y483090D01*
X1563585Y482859D01*
X1562844Y482628D01*
X1562057Y482396D01*
X1561178Y482211D01*
X1561132D01*
X1561086D01*
X1560947Y482165D01*
X1560762D01*
X1560530Y482119D01*
X1560253D01*
X1559559Y482026D01*
X1558725Y481980D01*
X1557800Y481887D01*
X1556735Y481841D01*
X1555578D01*
X1555532D01*
X1555440D01*
X1555301D01*
X1555069D01*
X1554792D01*
X1554468Y481887D01*
X1553727D01*
X1552894Y481980D01*
X1551922Y482072D01*
X1550997Y482165D01*
X1550025Y482350D01*
X1549979D01*
X1549933Y482396D01*
X1549794D01*
X1549608Y482443D01*
X1549146Y482581D01*
X1548544Y482766D01*
X1547850Y482952D01*
X1547156Y483229D01*
X1546415Y483600D01*
X1545721Y483970D01*
X1545629Y484016D01*
X1545443Y484155D01*
X1545119Y484432D01*
X1544703Y484757D01*
X1544286Y485173D01*
X1543824Y485682D01*
X1543407Y486237D01*
X1543037Y486885D01*
X1542991Y486978D01*
X1542898Y487209D01*
X1542713Y487626D01*
X1542528Y488135D01*
X1542389Y488783D01*
X1542204Y489523D01*
X1542111Y490402D01*
X1542065Y491328D01*
Y491791D01*
X1542111Y492254D01*
X1542158Y492855D01*
X1542296Y493549D01*
X1542435Y494290D01*
X1542667Y495030D01*
X1542991Y495724D01*
X1543037Y495817D01*
X1543176Y496002D01*
X1543361Y496326D01*
X1543685Y496743D01*
X1544055Y497159D01*
X1544472Y497622D01*
X1545027Y498085D01*
X1545629Y498501D01*
X1545721Y498548D01*
X1545952Y498686D01*
X1546276Y498825D01*
X1546785Y499057D01*
X1547387Y499288D01*
X1548128Y499519D01*
X1548914Y499751D01*
X1549794Y499936D01*
X1549840D01*
X1549886D01*
X1550025Y499982D01*
X1550210D01*
X1550441Y500028D01*
X1550719Y500075D01*
X1551413Y500167D01*
X1552246Y500214D01*
X1553172Y500306D01*
X1554236Y500352D01*
X1555393D01*
X1555440D01*
X1555532D01*
X1555717D01*
X1555902D01*
X1556180D01*
X1556504Y500306D01*
D02*
G37*
G36*
Y479527D02*
X1557245D01*
X1558124Y479434D01*
X1559049Y479342D01*
X1560021Y479249D01*
X1560993Y479064D01*
X1561039D01*
X1561086D01*
X1561225Y479018D01*
X1561410Y478972D01*
X1561872Y478833D01*
X1562474Y478648D01*
X1563122Y478416D01*
X1563862Y478139D01*
X1564557Y477815D01*
X1565251Y477398D01*
X1565343Y477352D01*
X1565528Y477213D01*
X1565852Y476935D01*
X1566223Y476611D01*
X1566685Y476195D01*
X1567102Y475686D01*
X1567565Y475131D01*
X1567935Y474483D01*
X1567981Y474390D01*
X1568074Y474159D01*
X1568213Y473788D01*
X1568398Y473233D01*
X1568583Y472585D01*
X1568722Y471845D01*
X1568814Y471012D01*
X1568860Y470040D01*
Y469623D01*
X1568814Y469114D01*
X1568768Y468513D01*
X1568629Y467818D01*
X1568490Y467078D01*
X1568259Y466338D01*
X1567981Y465643D01*
X1567935Y465551D01*
X1567796Y465366D01*
X1567611Y465042D01*
X1567287Y464625D01*
X1566917Y464209D01*
X1566454Y463746D01*
X1565945Y463283D01*
X1565343Y462867D01*
X1565251Y462820D01*
X1565019Y462682D01*
X1564649Y462543D01*
X1564186Y462311D01*
X1563585Y462080D01*
X1562844Y461848D01*
X1562057Y461617D01*
X1561178Y461432D01*
X1561132D01*
X1561086D01*
X1560947Y461386D01*
X1560762D01*
X1560530Y461339D01*
X1560253D01*
X1559559Y461247D01*
X1558725Y461201D01*
X1557800Y461108D01*
X1556735Y461062D01*
X1555578D01*
X1555532D01*
X1555440D01*
X1555301D01*
X1555069D01*
X1554792D01*
X1554468Y461108D01*
X1553727D01*
X1552894Y461201D01*
X1551922Y461293D01*
X1550997Y461386D01*
X1550025Y461571D01*
X1549979D01*
X1549933Y461617D01*
X1549794D01*
X1549608Y461663D01*
X1549146Y461802D01*
X1548544Y461987D01*
X1547850Y462172D01*
X1547156Y462450D01*
X1546415Y462820D01*
X1545721Y463190D01*
X1545629Y463237D01*
X1545443Y463376D01*
X1545119Y463653D01*
X1544703Y463977D01*
X1544286Y464394D01*
X1543824Y464903D01*
X1543407Y465458D01*
X1543037Y466106D01*
X1542991Y466199D01*
X1542898Y466430D01*
X1542713Y466847D01*
X1542528Y467356D01*
X1542389Y468004D01*
X1542204Y468744D01*
X1542111Y469623D01*
X1542065Y470549D01*
Y471012D01*
X1542111Y471474D01*
X1542158Y472076D01*
X1542296Y472770D01*
X1542435Y473511D01*
X1542667Y474251D01*
X1542991Y474945D01*
X1543037Y475038D01*
X1543176Y475223D01*
X1543361Y475547D01*
X1543685Y475964D01*
X1544055Y476380D01*
X1544472Y476843D01*
X1545027Y477306D01*
X1545629Y477722D01*
X1545721Y477768D01*
X1545952Y477907D01*
X1546276Y478046D01*
X1546785Y478277D01*
X1547387Y478509D01*
X1548128Y478740D01*
X1548914Y478972D01*
X1549794Y479157D01*
X1549840D01*
X1549886D01*
X1550025Y479203D01*
X1550210D01*
X1550441Y479249D01*
X1550719Y479296D01*
X1551413Y479388D01*
X1552246Y479434D01*
X1553172Y479527D01*
X1554236Y479573D01*
X1555393D01*
X1555440D01*
X1555532D01*
X1555717D01*
X1555902D01*
X1556180D01*
X1556504Y479527D01*
D02*
G37*
G36*
X1567056Y457915D02*
X1567380Y457868D01*
X1567426D01*
X1567611Y457822D01*
X1567796Y457776D01*
X1567981Y457683D01*
X1568027D01*
X1568120Y457637D01*
X1568213Y457545D01*
X1568305Y457452D01*
X1568351Y457359D01*
X1568398Y457128D01*
Y442782D01*
X1568305Y442597D01*
X1568213Y442504D01*
X1568120Y442411D01*
X1567981Y442319D01*
X1567935D01*
X1567796Y442272D01*
X1567611Y442226D01*
X1567380Y442180D01*
X1567287D01*
X1567102D01*
X1566778Y442134D01*
X1566408D01*
X1566361D01*
X1566315D01*
X1566084D01*
X1565760D01*
X1565482Y442180D01*
X1565390D01*
X1565251Y442226D01*
X1565019Y442272D01*
X1564834Y442319D01*
X1564788D01*
X1564695Y442365D01*
X1564557Y442458D01*
X1564464Y442550D01*
X1564418Y442597D01*
X1564371Y442643D01*
X1564325Y442735D01*
Y447733D01*
X1547480D01*
X1549794Y443568D01*
X1549840Y443476D01*
X1549933Y443291D01*
X1550025Y443059D01*
X1550071Y442782D01*
Y442458D01*
X1549979Y442319D01*
X1549933D01*
X1549840Y442226D01*
X1549655Y442180D01*
X1549377Y442134D01*
X1549285D01*
X1549053D01*
X1548729Y442087D01*
X1548220D01*
X1548174D01*
X1548128D01*
X1547943D01*
X1547665D01*
X1547433D01*
X1547387D01*
X1547248D01*
X1546878Y442180D01*
X1546832D01*
X1546739Y442226D01*
X1546508Y442411D01*
X1546462Y442458D01*
X1546415Y442504D01*
X1546230Y442782D01*
X1542620Y448335D01*
X1542574Y448381D01*
X1542482Y448566D01*
Y448613D01*
X1542435Y448705D01*
Y449029D01*
X1542389Y449168D01*
Y449677D01*
X1542343Y449862D01*
Y451436D01*
X1542389Y451806D01*
Y451898D01*
X1542435Y452084D01*
X1542482Y452315D01*
X1542528Y452546D01*
Y452593D01*
X1542574Y452685D01*
X1542620Y452778D01*
X1542713Y452870D01*
X1542759Y452917D01*
X1542991Y452963D01*
X1564325D01*
Y457221D01*
X1564371Y457359D01*
X1564464Y457452D01*
Y457498D01*
X1564557Y457545D01*
X1564649Y457637D01*
X1564834Y457730D01*
X1564881D01*
X1565019Y457776D01*
X1565204Y457822D01*
X1565482Y457868D01*
X1565528D01*
X1565714Y457915D01*
X1566037Y457961D01*
X1566408D01*
X1566454D01*
X1566500D01*
X1566732D01*
X1567056Y457915D01*
D02*
G37*
%LPC*%
G36*
X793577Y1068770D02*
X793392D01*
X793160Y1068724D01*
X792883Y1068677D01*
X792281Y1068538D01*
X791957Y1068353D01*
X791633Y1068168D01*
X791587Y1068122D01*
X791494Y1068076D01*
X791355Y1067937D01*
X791217Y1067752D01*
X791031Y1067520D01*
X790800Y1067196D01*
X790615Y1066872D01*
X790430Y1066456D01*
Y1066410D01*
X790337Y1066271D01*
X790291Y1065993D01*
X790199Y1065669D01*
X790060Y1065299D01*
X789967Y1064790D01*
X789874Y1064234D01*
X789782Y1063633D01*
Y1063540D01*
Y1063309D01*
X789736Y1062985D01*
Y1062476D01*
X789689Y1061921D01*
Y1061226D01*
X789643Y1060486D01*
Y1059653D01*
Y1059607D01*
Y1059514D01*
Y1059375D01*
Y1059190D01*
Y1058681D01*
X789689Y1058079D01*
Y1057339D01*
X789736Y1056552D01*
X789782Y1055812D01*
X789828Y1055071D01*
Y1054979D01*
X789874Y1054794D01*
X789921Y1054423D01*
X790013Y1054053D01*
X790106Y1053590D01*
X790199Y1053081D01*
X790384Y1052618D01*
X790522Y1052202D01*
Y1052156D01*
X790615Y1052017D01*
X790707Y1051832D01*
X790846Y1051600D01*
X791217Y1051138D01*
X791448Y1050906D01*
X791726Y1050721D01*
X791772D01*
X791864Y1050675D01*
X792003Y1050582D01*
X792235Y1050536D01*
X792466Y1050443D01*
X792790Y1050351D01*
X793484Y1050305D01*
X793762D01*
X793947Y1050351D01*
X794410Y1050397D01*
X794873Y1050536D01*
X794919D01*
X794965Y1050582D01*
X795243Y1050721D01*
X795567Y1050953D01*
X795891Y1051276D01*
Y1051323D01*
X795983Y1051369D01*
X796168Y1051647D01*
X796400Y1052017D01*
X796631Y1052526D01*
Y1052572D01*
X796677Y1052665D01*
X796724Y1052850D01*
X796816Y1053035D01*
X797001Y1053590D01*
X797140Y1054285D01*
Y1054331D01*
X797187Y1054470D01*
Y1054655D01*
X797233Y1054932D01*
X797279Y1055303D01*
X797325Y1055673D01*
X797418Y1056552D01*
Y1056599D01*
Y1056784D01*
X797464Y1057015D01*
Y1057385D01*
Y1057802D01*
X797511Y1058264D01*
Y1058774D01*
Y1059329D01*
Y1059421D01*
Y1059653D01*
Y1059977D01*
Y1060440D01*
X797464Y1060949D01*
Y1061458D01*
X797372Y1062569D01*
Y1062615D01*
Y1062800D01*
X797325Y1063077D01*
X797279Y1063401D01*
X797233Y1063818D01*
X797187Y1064188D01*
X797048Y1065021D01*
Y1065068D01*
X797001Y1065206D01*
X796955Y1065391D01*
X796909Y1065623D01*
X796770Y1066225D01*
X796539Y1066780D01*
Y1066826D01*
X796492Y1066919D01*
X796354Y1067196D01*
X796122Y1067567D01*
X795798Y1067937D01*
X795706Y1068029D01*
X795520Y1068214D01*
X795197Y1068400D01*
X794826Y1068585D01*
X794780D01*
X794734Y1068631D01*
X794456Y1068677D01*
X794086Y1068724D01*
X793577Y1068770D01*
D02*
G37*
G36*
X772798D02*
X772613D01*
X772381Y1068724D01*
X772104Y1068677D01*
X771502Y1068538D01*
X771178Y1068353D01*
X770854Y1068168D01*
X770808Y1068122D01*
X770715Y1068076D01*
X770576Y1067937D01*
X770437Y1067752D01*
X770252Y1067520D01*
X770021Y1067196D01*
X769836Y1066872D01*
X769651Y1066456D01*
Y1066410D01*
X769558Y1066271D01*
X769512Y1065993D01*
X769419Y1065669D01*
X769280Y1065299D01*
X769188Y1064790D01*
X769095Y1064234D01*
X769003Y1063633D01*
Y1063540D01*
Y1063309D01*
X768957Y1062985D01*
Y1062476D01*
X768910Y1061921D01*
Y1061226D01*
X768864Y1060486D01*
Y1059653D01*
Y1059607D01*
Y1059514D01*
Y1059375D01*
Y1059190D01*
Y1058681D01*
X768910Y1058079D01*
Y1057339D01*
X768957Y1056552D01*
X769003Y1055812D01*
X769049Y1055071D01*
Y1054979D01*
X769095Y1054794D01*
X769142Y1054423D01*
X769234Y1054053D01*
X769327Y1053590D01*
X769419Y1053081D01*
X769604Y1052618D01*
X769743Y1052202D01*
Y1052156D01*
X769836Y1052017D01*
X769928Y1051832D01*
X770067Y1051600D01*
X770437Y1051138D01*
X770669Y1050906D01*
X770947Y1050721D01*
X770993D01*
X771085Y1050675D01*
X771224Y1050582D01*
X771456Y1050536D01*
X771687Y1050443D01*
X772011Y1050351D01*
X772705Y1050305D01*
X772983D01*
X773168Y1050351D01*
X773631Y1050397D01*
X774093Y1050536D01*
X774140D01*
X774186Y1050582D01*
X774464Y1050721D01*
X774788Y1050953D01*
X775112Y1051276D01*
Y1051323D01*
X775204Y1051369D01*
X775389Y1051647D01*
X775621Y1052017D01*
X775852Y1052526D01*
Y1052572D01*
X775898Y1052665D01*
X775945Y1052850D01*
X776037Y1053035D01*
X776222Y1053590D01*
X776361Y1054285D01*
Y1054331D01*
X776407Y1054470D01*
Y1054655D01*
X776454Y1054932D01*
X776500Y1055303D01*
X776546Y1055673D01*
X776639Y1056552D01*
Y1056599D01*
Y1056784D01*
X776685Y1057015D01*
Y1057385D01*
Y1057802D01*
X776731Y1058264D01*
Y1058774D01*
Y1059329D01*
Y1059421D01*
Y1059653D01*
Y1059977D01*
Y1060440D01*
X776685Y1060949D01*
Y1061458D01*
X776592Y1062569D01*
Y1062615D01*
Y1062800D01*
X776546Y1063077D01*
X776500Y1063401D01*
X776454Y1063818D01*
X776407Y1064188D01*
X776269Y1065021D01*
Y1065068D01*
X776222Y1065206D01*
X776176Y1065391D01*
X776130Y1065623D01*
X775991Y1066225D01*
X775760Y1066780D01*
Y1066826D01*
X775713Y1066919D01*
X775574Y1067196D01*
X775343Y1067567D01*
X775019Y1067937D01*
X774927Y1068029D01*
X774741Y1068214D01*
X774417Y1068400D01*
X774047Y1068585D01*
X774001D01*
X773955Y1068631D01*
X773677Y1068677D01*
X773307Y1068724D01*
X772798Y1068770D01*
D02*
G37*
G36*
X741097D02*
X740911D01*
X740680Y1068724D01*
X740403Y1068677D01*
X739801Y1068538D01*
X739477Y1068353D01*
X739153Y1068168D01*
X739107Y1068122D01*
X739014Y1068076D01*
X738875Y1067937D01*
X738736Y1067752D01*
X738551Y1067520D01*
X738320Y1067196D01*
X738135Y1066872D01*
X737950Y1066456D01*
Y1066410D01*
X737857Y1066271D01*
X737811Y1065993D01*
X737718Y1065669D01*
X737579Y1065299D01*
X737487Y1064790D01*
X737394Y1064234D01*
X737302Y1063633D01*
Y1063540D01*
Y1063309D01*
X737255Y1062985D01*
Y1062476D01*
X737209Y1061921D01*
Y1061226D01*
X737163Y1060486D01*
Y1059653D01*
Y1059607D01*
Y1059514D01*
Y1059375D01*
Y1059190D01*
Y1058681D01*
X737209Y1058079D01*
Y1057339D01*
X737255Y1056552D01*
X737302Y1055812D01*
X737348Y1055071D01*
Y1054979D01*
X737394Y1054794D01*
X737441Y1054423D01*
X737533Y1054053D01*
X737626Y1053590D01*
X737718Y1053081D01*
X737903Y1052618D01*
X738042Y1052202D01*
Y1052156D01*
X738135Y1052017D01*
X738227Y1051832D01*
X738366Y1051600D01*
X738736Y1051138D01*
X738968Y1050906D01*
X739246Y1050721D01*
X739292D01*
X739384Y1050675D01*
X739523Y1050582D01*
X739755Y1050536D01*
X739986Y1050443D01*
X740310Y1050351D01*
X741004Y1050305D01*
X741282D01*
X741467Y1050351D01*
X741930Y1050397D01*
X742393Y1050536D01*
X742439D01*
X742485Y1050582D01*
X742763Y1050721D01*
X743087Y1050953D01*
X743411Y1051276D01*
Y1051323D01*
X743503Y1051369D01*
X743688Y1051647D01*
X743920Y1052017D01*
X744151Y1052526D01*
Y1052572D01*
X744197Y1052665D01*
X744244Y1052850D01*
X744336Y1053035D01*
X744521Y1053590D01*
X744660Y1054285D01*
Y1054331D01*
X744706Y1054470D01*
Y1054655D01*
X744753Y1054932D01*
X744799Y1055303D01*
X744845Y1055673D01*
X744938Y1056552D01*
Y1056599D01*
Y1056784D01*
X744984Y1057015D01*
Y1057385D01*
Y1057802D01*
X745030Y1058264D01*
Y1058774D01*
Y1059329D01*
Y1059421D01*
Y1059653D01*
Y1059977D01*
Y1060440D01*
X744984Y1060949D01*
Y1061458D01*
X744892Y1062569D01*
Y1062615D01*
Y1062800D01*
X744845Y1063077D01*
X744799Y1063401D01*
X744753Y1063818D01*
X744706Y1064188D01*
X744568Y1065021D01*
Y1065068D01*
X744521Y1065206D01*
X744475Y1065391D01*
X744429Y1065623D01*
X744290Y1066225D01*
X744059Y1066780D01*
Y1066826D01*
X744012Y1066919D01*
X743873Y1067196D01*
X743642Y1067567D01*
X743318Y1067937D01*
X743225Y1068029D01*
X743040Y1068214D01*
X742716Y1068400D01*
X742346Y1068585D01*
X742300D01*
X742254Y1068631D01*
X741976Y1068677D01*
X741606Y1068724D01*
X741097Y1068770D01*
D02*
G37*
G36*
X1556735Y547510D02*
X1556226D01*
X1555671D01*
X1555578D01*
X1555347D01*
X1555023D01*
X1554560D01*
X1554051Y547464D01*
X1553542D01*
X1552431Y547372D01*
X1552385D01*
X1552200D01*
X1551922Y547325D01*
X1551599Y547279D01*
X1551182Y547233D01*
X1550812Y547187D01*
X1549979Y547048D01*
X1549933D01*
X1549794Y547001D01*
X1549608Y546955D01*
X1549377Y546909D01*
X1548775Y546770D01*
X1548220Y546539D01*
X1548174D01*
X1548081Y546492D01*
X1547804Y546353D01*
X1547433Y546122D01*
X1547063Y545798D01*
X1546971Y545706D01*
X1546785Y545521D01*
X1546600Y545197D01*
X1546415Y544826D01*
Y544780D01*
X1546369Y544734D01*
X1546323Y544456D01*
X1546276Y544086D01*
X1546230Y543577D01*
Y543392D01*
X1546276Y543160D01*
X1546323Y542883D01*
X1546462Y542281D01*
X1546647Y541957D01*
X1546832Y541633D01*
X1546878Y541587D01*
X1546924Y541494D01*
X1547063Y541355D01*
X1547248Y541217D01*
X1547480Y541031D01*
X1547804Y540800D01*
X1548128Y540615D01*
X1548544Y540430D01*
X1548590D01*
X1548729Y540337D01*
X1549007Y540291D01*
X1549331Y540199D01*
X1549701Y540060D01*
X1550210Y539967D01*
X1550766Y539874D01*
X1551367Y539782D01*
X1551460D01*
X1551691D01*
X1552015Y539736D01*
X1552524D01*
X1553079Y539689D01*
X1553774D01*
X1554514Y539643D01*
X1555347D01*
X1555393D01*
X1555486D01*
X1555625D01*
X1555810D01*
X1556319D01*
X1556921Y539689D01*
X1557661D01*
X1558448Y539736D01*
X1559188Y539782D01*
X1559929Y539828D01*
X1560021D01*
X1560206Y539874D01*
X1560577Y539921D01*
X1560947Y540013D01*
X1561410Y540106D01*
X1561919Y540199D01*
X1562381Y540384D01*
X1562798Y540522D01*
X1562844D01*
X1562983Y540615D01*
X1563168Y540708D01*
X1563400Y540846D01*
X1563862Y541217D01*
X1564094Y541448D01*
X1564279Y541726D01*
Y541772D01*
X1564325Y541865D01*
X1564418Y542003D01*
X1564464Y542235D01*
X1564557Y542466D01*
X1564649Y542790D01*
X1564695Y543484D01*
Y543762D01*
X1564649Y543947D01*
X1564603Y544410D01*
X1564464Y544873D01*
Y544919D01*
X1564418Y544965D01*
X1564279Y545243D01*
X1564048Y545567D01*
X1563723Y545891D01*
X1563677D01*
X1563631Y545983D01*
X1563353Y546168D01*
X1562983Y546400D01*
X1562474Y546631D01*
X1562428D01*
X1562335Y546678D01*
X1562150Y546724D01*
X1561965Y546816D01*
X1561410Y547001D01*
X1560715Y547140D01*
X1560669D01*
X1560530Y547187D01*
X1560345D01*
X1560067Y547233D01*
X1559697Y547279D01*
X1559327Y547325D01*
X1558448Y547418D01*
X1558401D01*
X1558216D01*
X1557985Y547464D01*
X1557615D01*
X1557198D01*
X1556735Y547510D01*
D02*
G37*
G36*
Y526731D02*
X1556226D01*
X1555671D01*
X1555578D01*
X1555347D01*
X1555023D01*
X1554560D01*
X1554051Y526685D01*
X1553542D01*
X1552431Y526592D01*
X1552385D01*
X1552200D01*
X1551922Y526546D01*
X1551599Y526500D01*
X1551182Y526454D01*
X1550812Y526407D01*
X1549979Y526269D01*
X1549933D01*
X1549794Y526222D01*
X1549608Y526176D01*
X1549377Y526130D01*
X1548775Y525991D01*
X1548220Y525760D01*
X1548174D01*
X1548081Y525713D01*
X1547804Y525574D01*
X1547433Y525343D01*
X1547063Y525019D01*
X1546971Y524926D01*
X1546785Y524741D01*
X1546600Y524417D01*
X1546415Y524047D01*
Y524001D01*
X1546369Y523955D01*
X1546323Y523677D01*
X1546276Y523307D01*
X1546230Y522798D01*
Y522612D01*
X1546276Y522381D01*
X1546323Y522104D01*
X1546462Y521502D01*
X1546647Y521178D01*
X1546832Y520854D01*
X1546878Y520808D01*
X1546924Y520715D01*
X1547063Y520576D01*
X1547248Y520437D01*
X1547480Y520252D01*
X1547804Y520021D01*
X1548128Y519836D01*
X1548544Y519651D01*
X1548590D01*
X1548729Y519558D01*
X1549007Y519512D01*
X1549331Y519419D01*
X1549701Y519280D01*
X1550210Y519188D01*
X1550766Y519095D01*
X1551367Y519003D01*
X1551460D01*
X1551691D01*
X1552015Y518956D01*
X1552524D01*
X1553079Y518910D01*
X1553774D01*
X1554514Y518864D01*
X1555347D01*
X1555393D01*
X1555486D01*
X1555625D01*
X1555810D01*
X1556319D01*
X1556921Y518910D01*
X1557661D01*
X1558448Y518956D01*
X1559188Y519003D01*
X1559929Y519049D01*
X1560021D01*
X1560206Y519095D01*
X1560577Y519142D01*
X1560947Y519234D01*
X1561410Y519327D01*
X1561919Y519419D01*
X1562381Y519604D01*
X1562798Y519743D01*
X1562844D01*
X1562983Y519836D01*
X1563168Y519928D01*
X1563400Y520067D01*
X1563862Y520437D01*
X1564094Y520669D01*
X1564279Y520947D01*
Y520993D01*
X1564325Y521085D01*
X1564418Y521224D01*
X1564464Y521455D01*
X1564557Y521687D01*
X1564649Y522011D01*
X1564695Y522705D01*
Y522983D01*
X1564649Y523168D01*
X1564603Y523631D01*
X1564464Y524093D01*
Y524140D01*
X1564418Y524186D01*
X1564279Y524464D01*
X1564048Y524788D01*
X1563723Y525112D01*
X1563677D01*
X1563631Y525204D01*
X1563353Y525389D01*
X1562983Y525621D01*
X1562474Y525852D01*
X1562428D01*
X1562335Y525898D01*
X1562150Y525945D01*
X1561965Y526037D01*
X1561410Y526222D01*
X1560715Y526361D01*
X1560669D01*
X1560530Y526407D01*
X1560345D01*
X1560067Y526454D01*
X1559697Y526500D01*
X1559327Y526546D01*
X1558448Y526639D01*
X1558401D01*
X1558216D01*
X1557985Y526685D01*
X1557615D01*
X1557198D01*
X1556735Y526731D01*
D02*
G37*
G36*
Y495030D02*
X1556226D01*
X1555671D01*
X1555578D01*
X1555347D01*
X1555023D01*
X1554560D01*
X1554051Y494984D01*
X1553542D01*
X1552431Y494892D01*
X1552385D01*
X1552200D01*
X1551922Y494845D01*
X1551599Y494799D01*
X1551182Y494753D01*
X1550812Y494706D01*
X1549979Y494568D01*
X1549933D01*
X1549794Y494521D01*
X1549608Y494475D01*
X1549377Y494429D01*
X1548775Y494290D01*
X1548220Y494058D01*
X1548174D01*
X1548081Y494012D01*
X1547804Y493873D01*
X1547433Y493642D01*
X1547063Y493318D01*
X1546971Y493226D01*
X1546785Y493040D01*
X1546600Y492716D01*
X1546415Y492346D01*
Y492300D01*
X1546369Y492254D01*
X1546323Y491976D01*
X1546276Y491606D01*
X1546230Y491097D01*
Y490911D01*
X1546276Y490680D01*
X1546323Y490402D01*
X1546462Y489801D01*
X1546647Y489477D01*
X1546832Y489153D01*
X1546878Y489107D01*
X1546924Y489014D01*
X1547063Y488875D01*
X1547248Y488736D01*
X1547480Y488551D01*
X1547804Y488320D01*
X1548128Y488135D01*
X1548544Y487950D01*
X1548590D01*
X1548729Y487857D01*
X1549007Y487811D01*
X1549331Y487718D01*
X1549701Y487579D01*
X1550210Y487487D01*
X1550766Y487394D01*
X1551367Y487302D01*
X1551460D01*
X1551691D01*
X1552015Y487256D01*
X1552524D01*
X1553079Y487209D01*
X1553774D01*
X1554514Y487163D01*
X1555347D01*
X1555393D01*
X1555486D01*
X1555625D01*
X1555810D01*
X1556319D01*
X1556921Y487209D01*
X1557661D01*
X1558448Y487256D01*
X1559188Y487302D01*
X1559929Y487348D01*
X1560021D01*
X1560206Y487394D01*
X1560577Y487441D01*
X1560947Y487533D01*
X1561410Y487626D01*
X1561919Y487718D01*
X1562381Y487903D01*
X1562798Y488042D01*
X1562844D01*
X1562983Y488135D01*
X1563168Y488227D01*
X1563400Y488366D01*
X1563862Y488736D01*
X1564094Y488968D01*
X1564279Y489245D01*
Y489292D01*
X1564325Y489384D01*
X1564418Y489523D01*
X1564464Y489755D01*
X1564557Y489986D01*
X1564649Y490310D01*
X1564695Y491004D01*
Y491282D01*
X1564649Y491467D01*
X1564603Y491930D01*
X1564464Y492393D01*
Y492439D01*
X1564418Y492485D01*
X1564279Y492763D01*
X1564048Y493087D01*
X1563723Y493411D01*
X1563677D01*
X1563631Y493503D01*
X1563353Y493688D01*
X1562983Y493920D01*
X1562474Y494151D01*
X1562428D01*
X1562335Y494197D01*
X1562150Y494244D01*
X1561965Y494336D01*
X1561410Y494521D01*
X1560715Y494660D01*
X1560669D01*
X1560530Y494706D01*
X1560345D01*
X1560067Y494753D01*
X1559697Y494799D01*
X1559327Y494845D01*
X1558448Y494938D01*
X1558401D01*
X1558216D01*
X1557985Y494984D01*
X1557615D01*
X1557198D01*
X1556735Y495030D01*
D02*
G37*
G36*
Y474251D02*
X1556226D01*
X1555671D01*
X1555578D01*
X1555347D01*
X1555023D01*
X1554560D01*
X1554051Y474205D01*
X1553542D01*
X1552431Y474112D01*
X1552385D01*
X1552200D01*
X1551922Y474066D01*
X1551599Y474020D01*
X1551182Y473974D01*
X1550812Y473927D01*
X1549979Y473788D01*
X1549933D01*
X1549794Y473742D01*
X1549608Y473696D01*
X1549377Y473649D01*
X1548775Y473511D01*
X1548220Y473279D01*
X1548174D01*
X1548081Y473233D01*
X1547804Y473094D01*
X1547433Y472863D01*
X1547063Y472539D01*
X1546971Y472446D01*
X1546785Y472261D01*
X1546600Y471937D01*
X1546415Y471567D01*
Y471521D01*
X1546369Y471474D01*
X1546323Y471197D01*
X1546276Y470826D01*
X1546230Y470317D01*
Y470132D01*
X1546276Y469901D01*
X1546323Y469623D01*
X1546462Y469022D01*
X1546647Y468698D01*
X1546832Y468374D01*
X1546878Y468327D01*
X1546924Y468235D01*
X1547063Y468096D01*
X1547248Y467957D01*
X1547480Y467772D01*
X1547804Y467541D01*
X1548128Y467356D01*
X1548544Y467170D01*
X1548590D01*
X1548729Y467078D01*
X1549007Y467032D01*
X1549331Y466939D01*
X1549701Y466800D01*
X1550210Y466708D01*
X1550766Y466615D01*
X1551367Y466523D01*
X1551460D01*
X1551691D01*
X1552015Y466476D01*
X1552524D01*
X1553079Y466430D01*
X1553774D01*
X1554514Y466384D01*
X1555347D01*
X1555393D01*
X1555486D01*
X1555625D01*
X1555810D01*
X1556319D01*
X1556921Y466430D01*
X1557661D01*
X1558448Y466476D01*
X1559188Y466523D01*
X1559929Y466569D01*
X1560021D01*
X1560206Y466615D01*
X1560577Y466661D01*
X1560947Y466754D01*
X1561410Y466847D01*
X1561919Y466939D01*
X1562381Y467124D01*
X1562798Y467263D01*
X1562844D01*
X1562983Y467356D01*
X1563168Y467448D01*
X1563400Y467587D01*
X1563862Y467957D01*
X1564094Y468189D01*
X1564279Y468466D01*
Y468513D01*
X1564325Y468605D01*
X1564418Y468744D01*
X1564464Y468975D01*
X1564557Y469207D01*
X1564649Y469531D01*
X1564695Y470225D01*
Y470503D01*
X1564649Y470688D01*
X1564603Y471151D01*
X1564464Y471613D01*
Y471660D01*
X1564418Y471706D01*
X1564279Y471983D01*
X1564048Y472308D01*
X1563723Y472631D01*
X1563677D01*
X1563631Y472724D01*
X1563353Y472909D01*
X1562983Y473140D01*
X1562474Y473372D01*
X1562428D01*
X1562335Y473418D01*
X1562150Y473464D01*
X1561965Y473557D01*
X1561410Y473742D01*
X1560715Y473881D01*
X1560669D01*
X1560530Y473927D01*
X1560345D01*
X1560067Y473974D01*
X1559697Y474020D01*
X1559327Y474066D01*
X1558448Y474159D01*
X1558401D01*
X1558216D01*
X1557985Y474205D01*
X1557615D01*
X1557198D01*
X1556735Y474251D01*
D02*
G37*
%LPD*%
D13*
X0Y1060000D02*
X15240Y1065080D01*
X0Y1060000D02*
X15240Y1054920D01*
X1484760D02*
X1500000Y1060000D01*
X1484760Y1065080D02*
X1500000Y1060000D01*
X0D02*
X689547D01*
X805373D02*
X1500000D01*
X0Y1000000D02*
Y1062540D01*
X1500000Y1000000D02*
Y1062540D01*
X1549920Y15240D02*
X1555000Y0D01*
X1560080Y15240D01*
X1555000Y1000000D02*
X1560080Y984760D01*
X1549920D02*
X1555000Y1000000D01*
Y0D02*
Y439547D01*
Y555373D02*
Y1000000D01*
X1500000Y0D02*
X1557540D01*
X1500000Y1000000D02*
X1557540D01*
M02*
