G04*
G04 #@! TF.GenerationSoftware,Altium Limited,Altium Designer,24.9.1 (31)*
G04*
G04 Layer_Color=32768*
%FSLAX44Y44*%
%MOMM*%
G71*
G04*
G04 #@! TF.SameCoordinates,A601D634-93CA-4805-8520-E3EE879C7AED*
G04*
G04*
G04 #@! TF.FilePolarity,Positive*
G04*
G01*
G75*
%ADD15C,0.2000*%
%ADD16C,0.1000*%
%ADD17C,0.1524*%
%ADD233C,0.0500*%
G36*
X912080Y490729D02*
Y508763D01*
X914359D01*
Y513335D01*
X936979D01*
Y508763D01*
X939258D01*
Y490729D01*
X936979D01*
Y486157D01*
X914359D01*
Y490729D01*
X912080D01*
D02*
G37*
D15*
X654000Y738500D02*
Y1001250D01*
Y738500D02*
X846000D01*
Y1001250D01*
X654000D02*
X846000D01*
X752979Y428810D02*
X804041D01*
X752979D02*
Y467810D01*
X804041D01*
Y428810D02*
Y467810D01*
X1033250Y707010D02*
Y723010D01*
Y707010D02*
X1062250D01*
Y723010D01*
X1033250D02*
X1062250D01*
X1194070Y929402D02*
X1307830D01*
Y1079230D01*
X1194070D02*
X1307830D01*
X1194070Y929402D02*
Y1079230D01*
X1030650Y948780D02*
Y985030D01*
X988650D02*
X1030650D01*
X988650Y948780D02*
Y985030D01*
Y948780D02*
X1030650D01*
X561371Y575620D02*
Y608020D01*
Y575620D02*
X590549D01*
Y608020D01*
X561371D02*
X590549D01*
X579250Y460500D02*
X700750D01*
X579250D02*
Y519500D01*
X700750D01*
Y460500D02*
Y519500D01*
X369580Y847870D02*
Y881870D01*
X405120D01*
Y847870D02*
Y881870D01*
X369580Y847870D02*
X405120D01*
X1026590Y499480D02*
Y551480D01*
X1048590D01*
Y499480D02*
Y551480D01*
X1026590Y499480D02*
X1048590D01*
X1390430Y587200D02*
X1426430D01*
X1390430D02*
Y624200D01*
X1426430D01*
Y587200D02*
Y624200D01*
X1033000Y377000D02*
X1267000D01*
Y23000D02*
Y377000D01*
X1033000Y23000D02*
X1267000D01*
X1033000D02*
Y377000D01*
X893128Y539816D02*
X925190D01*
X893128D02*
Y563816D01*
X925190D01*
Y539816D02*
Y563816D01*
X1257100Y590980D02*
Y612980D01*
Y590980D02*
X1295600D01*
Y612980D01*
X1257100D02*
X1295600D01*
X1373070Y662588D02*
X1398070D01*
Y696312D01*
X1373070D02*
X1398070D01*
X1373070Y662588D02*
Y696312D01*
X1058836Y499370D02*
X1092544D01*
Y468370D02*
Y499370D01*
X1058836Y468370D02*
X1092544D01*
X1058836D02*
Y499370D01*
X1351000Y739000D02*
Y901000D01*
X1159000D02*
X1351000D01*
X1159000Y739000D02*
Y901000D01*
Y739000D02*
X1351000D01*
X1190863Y560340D02*
Y587740D01*
X1115457D02*
X1190863D01*
X1115457Y560340D02*
Y587740D01*
Y560340D02*
X1190863D01*
X1230980Y505990D02*
X1268380D01*
Y535410D01*
X1230980D02*
X1268380D01*
X1230980Y505990D02*
Y535410D01*
X1401200Y303350D02*
X1449200D01*
Y344350D01*
X1401200D02*
X1449200D01*
X1401200Y303350D02*
Y344350D01*
X797170Y536950D02*
Y567950D01*
X764770Y536950D02*
X797170D01*
X764770D02*
Y567950D01*
X797170D01*
X716670Y536950D02*
Y567950D01*
X749070D01*
Y536950D02*
Y567950D01*
X716670Y536950D02*
X749070D01*
X1385510Y587200D02*
Y624200D01*
X1349510D02*
X1385510D01*
X1349510Y587200D02*
Y624200D01*
Y587200D02*
X1385510D01*
X1053960Y506170D02*
X1099960D01*
X1053960D02*
Y547930D01*
X1099960D01*
Y506170D02*
Y547930D01*
X1311840Y531460D02*
X1334840D01*
X1311840D02*
Y542960D01*
X1334840D01*
Y531460D02*
Y542960D01*
D16*
X1333950Y269240D02*
X1343450D01*
X1338700Y264490D02*
Y273990D01*
X1333830Y289560D02*
X1343330D01*
X1338580Y284810D02*
Y294310D01*
X742950Y422610D02*
Y432610D01*
X737950Y427610D02*
X747950D01*
X716360Y444500D02*
X726360D01*
X721360Y439500D02*
Y449500D01*
X738200Y465220D02*
X747700D01*
X742950Y460470D02*
Y469970D01*
X814150Y443230D02*
X824150D01*
X819150Y438230D02*
Y448230D01*
X300000Y425000D02*
Y437500D01*
Y425000D02*
X312500D01*
X300000Y412500D02*
Y425000D01*
X287500D02*
X300000D01*
X91440Y393780D02*
Y403780D01*
X86440Y398780D02*
X96440D01*
X193120Y132080D02*
X203120D01*
X198120Y127080D02*
Y137080D01*
X93980Y174070D02*
Y184070D01*
X88980Y179070D02*
X98980D01*
X1277700Y52070D02*
X1287700D01*
X1282700Y47070D02*
Y57070D01*
X1357630Y690960D02*
Y700960D01*
X1352630Y695960D02*
X1362630D01*
X1383110Y708660D02*
X1393110D01*
X1388110Y703660D02*
Y713660D01*
X1238250Y615648D02*
Y625648D01*
X1233250Y620648D02*
X1243250D01*
X1291590Y687150D02*
Y697150D01*
X1286590Y692150D02*
X1296590D01*
X1132920Y801370D02*
X1142920D01*
X1137920Y796370D02*
Y806370D01*
X1111330Y801370D02*
X1121330D01*
X1116330Y796370D02*
Y806370D01*
X1115390Y763270D02*
X1124890D01*
X1120140Y758520D02*
Y768020D01*
X1098880Y763270D02*
X1108380D01*
X1103630Y758520D02*
Y768020D01*
X1070610Y647780D02*
Y657780D01*
X1065610Y652780D02*
X1075610D01*
X1005700Y710010D02*
Y720010D01*
X1000700Y715010D02*
X1010700D01*
X917100Y755650D02*
X927100D01*
X922100Y750650D02*
Y760650D01*
X896780Y755650D02*
X906780D01*
X901780Y750650D02*
Y760650D01*
X1046480Y913460D02*
Y922960D01*
X1041730Y918210D02*
X1051230D01*
X1017270Y913460D02*
Y922960D01*
X1012520Y918210D02*
X1022020D01*
X626440Y829310D02*
X635940D01*
X631190Y824560D02*
Y834060D01*
X598250Y829310D02*
X608250D01*
X603250Y824310D02*
Y834310D01*
X570230Y835990D02*
Y845490D01*
X565480Y840740D02*
X574980D01*
X570230Y813130D02*
Y822630D01*
X565480Y817880D02*
X574980D01*
X561420Y897890D02*
X571420D01*
X566420Y892890D02*
Y902890D01*
X563880Y929720D02*
Y939720D01*
X558880Y934720D02*
X568880D01*
X583260Y707060D02*
X592760D01*
X588010Y702310D02*
Y711810D01*
X570230Y702310D02*
Y711810D01*
X565480Y707060D02*
X574980D01*
X552450Y702310D02*
Y711810D01*
X547700Y707060D02*
X557200D01*
X628980Y645160D02*
X638480D01*
X633730Y640410D02*
Y649910D01*
X528680Y591820D02*
X538180D01*
X533430Y587070D02*
Y596570D01*
X548060Y591900D02*
X553060D01*
X550560Y589400D02*
Y594400D01*
X499190Y482600D02*
X509190D01*
X504190Y477600D02*
Y487600D01*
X531190Y450850D02*
X540690D01*
X535940Y446850D02*
Y454850D01*
X474980Y439500D02*
Y449500D01*
X469980Y444500D02*
X479980D01*
X394030Y439420D02*
X403530D01*
X398780Y434670D02*
Y444170D01*
X394030Y384810D02*
X403530D01*
X398780Y380060D02*
Y389560D01*
X200990Y393700D02*
X210490D01*
X205740Y388950D02*
Y398450D01*
X183210Y393700D02*
X192710D01*
X187960Y388950D02*
Y398450D01*
X388620Y814400D02*
Y823900D01*
X383870Y819150D02*
X393370D01*
X388620Y830910D02*
Y840410D01*
X383870Y835660D02*
X393370D01*
X222250Y847090D02*
Y857090D01*
X217250Y852090D02*
X227250D01*
X222250Y868680D02*
Y878680D01*
X217250Y873680D02*
X227250D01*
X318928Y863312D02*
X324585Y868968D01*
X318398Y869499D02*
X325115Y862781D01*
X744300Y670560D02*
X754300D01*
X749300Y665560D02*
Y675560D01*
X290130Y835372D02*
X295787Y841028D01*
X289599Y841559D02*
X296317Y834841D01*
X623540Y919480D02*
X633540D01*
X628540Y914480D02*
Y924480D01*
X602060Y919480D02*
X612060D01*
X607060Y914480D02*
Y924480D01*
X602060Y881380D02*
X612060D01*
X607060Y876380D02*
Y886380D01*
X795020Y659130D02*
X805020D01*
X800020Y654130D02*
Y664130D01*
X795020Y638810D02*
X805020D01*
X800020Y633810D02*
Y643810D01*
X544830Y892890D02*
Y902890D01*
X539830Y897890D02*
X549830D01*
X623650Y881380D02*
X633650D01*
X628650Y876380D02*
Y886380D01*
X1287780Y111570D02*
Y119570D01*
X1283030Y115570D02*
X1292530D01*
X802890Y552450D02*
X812390D01*
X807640Y547700D02*
Y557200D01*
X701370Y549910D02*
X710870D01*
X706120Y545160D02*
Y554660D01*
X506810Y863495D02*
X516810D01*
X511810Y858495D02*
Y868495D01*
X938369Y531576D02*
Y541576D01*
X933369Y536576D02*
X943369D01*
X959309Y531576D02*
Y541576D01*
X954309Y536576D02*
X964309D01*
X891459Y516256D02*
X901459D01*
X896459Y511256D02*
Y521256D01*
X869869Y516256D02*
X879869D01*
X874869Y511256D02*
Y521256D01*
X1238250Y578312D02*
Y588312D01*
X1233250Y583312D02*
X1243250D01*
X1275410Y635358D02*
X1284910D01*
X1280160Y630608D02*
Y640108D01*
X909239Y461646D02*
X919239D01*
X914239Y456646D02*
Y466646D01*
X885029Y475946D02*
Y485446D01*
X880279Y480696D02*
X889779D01*
X1098880Y445770D02*
X1108380D01*
X1103630Y441020D02*
Y450520D01*
X1037590Y466170D02*
Y476170D01*
X1032590Y471170D02*
X1042590D01*
X1107440Y478870D02*
Y488870D01*
X1102440Y483870D02*
X1112440D01*
X1262380Y630758D02*
Y640258D01*
X1257630Y635508D02*
X1267130D01*
X1306830Y612978D02*
Y622478D01*
X1302080Y617728D02*
X1311580D01*
X946069Y461646D02*
X956069D01*
X951069Y456646D02*
Y466646D01*
X1079580Y445770D02*
X1089580D01*
X1084580Y440770D02*
Y450770D01*
X1064260Y440770D02*
Y450770D01*
X1059260Y445770D02*
X1069260D01*
X1383110Y730250D02*
X1393110D01*
X1388110Y725250D02*
Y735250D01*
X1363018Y643546D02*
X1373018D01*
X1368018Y638546D02*
Y648546D01*
X1402160Y643890D02*
X1412160D01*
X1407160Y638890D02*
Y648890D01*
X1280240Y520700D02*
X1290240D01*
X1285240Y515700D02*
Y525700D01*
X1395730Y411560D02*
Y421560D01*
X1390730Y416560D02*
X1400730D01*
X1394540Y222250D02*
X1404540D01*
X1399540Y217250D02*
Y227250D01*
X1394460Y243840D02*
X1404460D01*
X1399460Y238840D02*
Y248840D01*
X1352630Y243840D02*
X1362630D01*
X1357630Y238840D02*
Y248840D01*
X1352630Y222250D02*
X1362630D01*
X1357630Y217250D02*
Y227250D01*
X1216660Y515700D02*
Y525700D01*
X1211660Y520700D02*
X1221660D01*
X1323340Y509350D02*
Y519350D01*
X1318340Y514350D02*
X1328340D01*
X1407160Y157560D02*
Y167560D01*
X1402160Y162560D02*
X1412160D01*
X1188800Y520700D02*
X1198800D01*
X1193800Y515700D02*
Y525700D01*
X1380490Y470640D02*
Y480640D01*
X1375490Y475640D02*
X1385490D01*
X1395730Y433150D02*
Y443150D01*
X1390730Y438150D02*
X1400730D01*
X1301930Y269240D02*
X1311430D01*
X1306680Y264490D02*
Y273990D01*
X1302080Y289560D02*
X1311580D01*
X1306830Y284810D02*
Y294310D01*
X1417400Y290830D02*
X1427400D01*
X1422400Y285830D02*
Y295830D01*
X1314530Y248920D02*
X1324530D01*
X1319530Y243920D02*
Y253920D01*
X1422400Y264240D02*
Y274240D01*
X1417400Y269240D02*
X1427400D01*
X1261580Y692150D02*
X1271580D01*
X1266580Y687150D02*
Y697150D01*
X1240790Y666830D02*
Y676830D01*
X1235790Y671830D02*
X1245790D01*
X1240790Y706060D02*
Y716060D01*
X1235790Y711060D02*
X1245790D01*
X1219590Y666690D02*
Y676690D01*
X1214590Y671690D02*
X1224590D01*
X1230710Y474980D02*
X1240710D01*
X1235710Y469980D02*
Y479980D01*
X896700Y598170D02*
X906700D01*
X901700Y593170D02*
Y603170D01*
X1346200Y156290D02*
Y166290D01*
X1341200Y161290D02*
X1351200D01*
X1008460Y427990D02*
X1018460D01*
X1013460Y422990D02*
Y432990D01*
X90580Y685800D02*
X100080D01*
X95330Y681050D02*
Y690550D01*
X179070Y731850D02*
Y741350D01*
X174320Y736600D02*
X183820D01*
X179070Y711530D02*
Y721030D01*
X174320Y716280D02*
X183820D01*
X1129030Y478870D02*
Y488870D01*
X1124030Y483870D02*
X1134030D01*
X70260Y685800D02*
X79760D01*
X75010Y681050D02*
Y690550D01*
X531190Y438150D02*
X540690D01*
X535940Y434150D02*
Y442150D01*
X1287780Y84900D02*
Y92900D01*
X1283030Y88900D02*
X1292530D01*
X920560Y826650D02*
X928560D01*
X924560Y821900D02*
Y831400D01*
X920560Y795140D02*
X928560D01*
X924560Y790390D02*
Y799890D01*
X413080Y868680D02*
X422580D01*
X417830Y863930D02*
Y873430D01*
X213360Y722710D02*
Y732710D01*
X208360Y727710D02*
X218360D01*
X271780Y786210D02*
Y796210D01*
X266780Y791210D02*
X276780D01*
X221870Y755730D02*
Y765730D01*
X216870Y760730D02*
X226870D01*
X362030Y751840D02*
X372030D01*
X367030Y746840D02*
Y756840D01*
X195580Y684530D02*
X205580D01*
X200580Y679530D02*
Y689530D01*
X215900Y684530D02*
X225900D01*
X220900Y679530D02*
Y689530D01*
X326390Y651590D02*
Y661590D01*
X321390Y656590D02*
X331390D01*
X321390Y636270D02*
X331390D01*
X326390Y631270D02*
Y641270D01*
X128270Y718900D02*
Y728900D01*
X123270Y723900D02*
X133270D01*
X1365060Y838200D02*
X1373060D01*
X1369060Y833450D02*
Y842950D01*
X780970Y547450D02*
Y557450D01*
X775970Y552450D02*
X785970D01*
X732870Y547450D02*
Y557450D01*
X727870Y552450D02*
X737870D01*
X601980Y536020D02*
Y546020D01*
X596980Y541020D02*
X606980D01*
X778510Y472770D02*
Y482270D01*
X773760Y477520D02*
X783260D01*
D17*
X912080Y508763D02*
X914359D01*
Y513335D01*
X936979D01*
Y508763D02*
Y513335D01*
Y508763D02*
X939258D01*
Y490729D02*
Y508763D01*
X936979Y490729D02*
X939258D01*
X936979Y486157D02*
Y490729D01*
X914359Y486157D02*
X936979D01*
X914359D02*
Y490729D01*
X912080D02*
X914359D01*
X912080D02*
Y508763D01*
D233*
X1258210Y474980D02*
G03*
X1258210Y474980I-22500J0D01*
G01*
X924200Y598170D02*
G03*
X924200Y598170I-22500J0D01*
G01*
X1368700Y161290D02*
G03*
X1368700Y161290I-22500J0D01*
G01*
X1035960Y427990D02*
G03*
X1035960Y427990I-22500J0D01*
G01*
X910920Y645490D02*
X1011420D01*
Y718490D01*
X910920D02*
X1011420D01*
X910920Y645490D02*
Y718490D01*
X1324730Y261740D02*
Y276740D01*
X1352670Y261740D02*
Y276740D01*
X1324730D02*
X1352670D01*
X1324730Y261740D02*
X1352670D01*
X1324610Y282060D02*
Y297060D01*
X1352550Y282060D02*
Y297060D01*
X1324610D02*
X1352550D01*
X1324610Y282060D02*
X1352550D01*
X1393750Y453200D02*
Y546800D01*
X1410000D01*
Y550800D01*
X1432500D01*
Y546800D02*
Y550800D01*
Y546800D02*
X1469500D01*
Y550500D01*
X1491000D01*
Y546800D02*
Y550500D01*
Y546800D02*
X1506250D01*
Y453200D02*
Y546800D01*
X1491000Y453200D02*
X1506250D01*
X1491000Y449500D02*
Y453200D01*
X1469500Y449500D02*
X1491000D01*
X1469500D02*
Y453200D01*
X1432500D02*
X1469500D01*
X1432500Y449500D02*
Y453200D01*
X1410000Y449500D02*
X1432500D01*
X1410000D02*
Y453200D01*
X1393750D02*
X1410000D01*
X733450Y410610D02*
X752450D01*
X733450Y444610D02*
X752450D01*
X733450Y410610D02*
Y444610D01*
X752450Y410610D02*
Y444610D01*
X711860Y427500D02*
Y461500D01*
X730860Y427500D02*
Y461500D01*
X711860Y427500D02*
X730860D01*
X711860Y461500D02*
X730860D01*
X750450Y451720D02*
Y478720D01*
X735450Y451720D02*
Y478720D01*
X750450D01*
X735450Y451720D02*
X750450D01*
X809650Y426230D02*
Y460230D01*
X828650Y426230D02*
Y460230D01*
X809650Y426230D02*
X828650D01*
X809650Y460230D02*
X828650D01*
X219250Y353000D02*
X385750D01*
X219250Y497000D02*
X385750D01*
Y353000D02*
Y497000D01*
X219250Y353000D02*
Y497000D01*
X74440Y408280D02*
X108440D01*
X74440Y389280D02*
X108440D01*
X74440D02*
Y408280D01*
X108440Y389280D02*
Y408280D01*
X181120Y122580D02*
Y141580D01*
X215120Y122580D02*
Y141580D01*
X181120D02*
X215120D01*
X181120Y122580D02*
X215120D01*
X76980Y188570D02*
X110980D01*
X76980Y169570D02*
X110980D01*
X76980D02*
Y188570D01*
X110980Y169570D02*
Y188570D01*
X1273200Y35070D02*
Y69070D01*
X1292200Y35070D02*
Y69070D01*
X1273200Y35070D02*
X1292200D01*
X1273200Y69070D02*
X1292200D01*
X1348130Y712960D02*
X1367130D01*
X1348130Y678960D02*
X1367130D01*
Y712960D01*
X1348130Y678960D02*
Y712960D01*
X1405110Y699160D02*
Y718160D01*
X1371110Y699160D02*
Y718160D01*
Y699160D02*
X1405110D01*
X1371110Y718160D02*
X1405110D01*
X1228750Y637648D02*
X1247750D01*
X1228750Y603648D02*
X1247750D01*
Y637648D01*
X1228750Y603648D02*
Y637648D01*
X1282090Y675150D02*
X1301090D01*
X1282090Y709150D02*
X1301090D01*
X1282090Y675150D02*
Y709150D01*
X1301090Y675150D02*
Y709150D01*
X1147420Y784370D02*
Y818370D01*
X1128420Y784370D02*
Y818370D01*
X1147420D01*
X1128420Y784370D02*
X1147420D01*
X1125830D02*
Y818370D01*
X1106830Y784370D02*
Y818370D01*
X1125830D01*
X1106830Y784370D02*
X1125830D01*
X1112640Y749770D02*
Y776770D01*
X1127640Y749770D02*
Y776770D01*
X1112640Y749770D02*
X1127640Y749770D01*
X1112640Y776770D02*
X1127640D01*
X1096130Y749300D02*
Y777240D01*
X1111130Y749300D02*
Y777240D01*
X1096130Y749300D02*
X1111130D01*
X1096130Y777240D02*
X1111130D01*
X1053610Y662280D02*
X1087610D01*
X1053610Y643280D02*
X1087610D01*
X1053610D02*
Y662280D01*
X1087610Y643280D02*
Y662280D01*
X1101710Y664490D02*
Y699490D01*
X1039510D02*
X1101710D01*
X1039510Y664490D02*
Y699490D01*
Y664490D02*
X1101710D01*
X988700Y705510D02*
X1022700D01*
X988700Y724510D02*
X1022700D01*
Y705510D02*
Y724510D01*
X988700Y705510D02*
Y724510D01*
X931600Y738650D02*
Y772650D01*
X912600Y738650D02*
Y772650D01*
X931600D01*
X912600Y738650D02*
X931600D01*
X911280D02*
Y772650D01*
X892280Y738650D02*
Y772650D01*
X911280D01*
X892280Y738650D02*
X911280D01*
X1032980Y910710D02*
X1059980D01*
X1032980Y925710D02*
X1059980D01*
Y910710D02*
Y925710D01*
X1032980Y910710D02*
Y925710D01*
X1005270Y912210D02*
X1029270D01*
X1005270Y924210D02*
X1029270D01*
Y912210D02*
Y924210D01*
X1005270Y912210D02*
Y924210D01*
X623690Y815810D02*
Y842810D01*
X638690Y815810D02*
Y842810D01*
X623690Y815810D02*
X638690D01*
X623690Y842810D02*
X638690D01*
X618250Y805060D02*
Y853560D01*
X588250Y805060D02*
Y853560D01*
X618250D01*
X588250Y805060D02*
X618250D01*
X556730Y833240D02*
X583730D01*
X556730Y848240D02*
X583730D01*
Y833240D02*
Y848240D01*
X556730Y833240D02*
Y848240D01*
Y810380D02*
X583730D01*
X556730Y825380D02*
X583730D01*
Y810380D02*
Y825380D01*
X556730Y810380D02*
Y825380D01*
X575920Y880890D02*
Y914890D01*
X556920Y880890D02*
Y914890D01*
X575920D01*
X556920Y880890D02*
X575920D01*
X546880Y925220D02*
X580880D01*
X546880Y944220D02*
X580880D01*
Y925220D02*
Y944220D01*
X546880Y925220D02*
Y944220D01*
X580510Y693560D02*
Y720560D01*
X595510Y693560D02*
Y720560D01*
X580510Y693560D02*
X595510D01*
X580510Y720560D02*
X595510D01*
X562730Y720560D02*
X577730D01*
X562730Y693560D02*
X577730D01*
Y720560D01*
X562730Y693560D02*
Y720560D01*
X544950Y720560D02*
X559950D01*
X544950Y693560D02*
X559950D01*
Y720560D01*
X544950Y693560D02*
Y720560D01*
X626230Y631660D02*
Y658660D01*
X641230Y631660D02*
Y658660D01*
X626230Y631660D02*
X641230D01*
X626230Y658660D02*
X641230D01*
X540430Y576820D02*
Y606820D01*
X526430Y576820D02*
Y606820D01*
X540430D01*
X526430Y576820D02*
X540430D01*
X544560Y583900D02*
Y599900D01*
X556560Y583900D02*
Y599900D01*
X544560Y583900D02*
X556560D01*
X544560Y599900D02*
X556560D01*
X521190Y473100D02*
Y492100D01*
X487190Y473100D02*
Y492100D01*
Y473100D02*
X521190D01*
X487190Y492100D02*
X521190D01*
X547940Y445850D02*
Y455850D01*
X523940D02*
X547940D01*
X523940Y445850D02*
X547940D01*
X523940D02*
Y455850D01*
X465480Y427500D02*
X484480D01*
X465480Y461500D02*
X484480D01*
X465480Y427500D02*
Y461500D01*
X484480Y427500D02*
Y461500D01*
X391280Y425920D02*
Y452920D01*
X406280Y425920D02*
Y452920D01*
X391280Y425920D02*
X406280D01*
X391280Y452920D02*
X406280D01*
X406280Y371310D02*
Y398310D01*
X391280Y371310D02*
Y398310D01*
X406280D01*
X391280Y371310D02*
X406280D01*
X213240Y380200D02*
Y407200D01*
X198240Y380200D02*
Y407200D01*
X213240D01*
X198240Y380200D02*
X213240D01*
X180460D02*
Y407200D01*
X195460Y380200D02*
Y407200D01*
X180460Y380200D02*
X195460D01*
X180460Y407200D02*
X195460D01*
X375120Y826650D02*
X402120D01*
X375120Y811650D02*
X402120D01*
X375120D02*
Y826650D01*
X402120Y811650D02*
Y826650D01*
X373620Y842660D02*
X403620D01*
X373620Y828660D02*
X403620D01*
X373620D02*
Y842660D01*
X403620Y828660D02*
Y842660D01*
X205250Y842590D02*
X239250D01*
X205250Y861590D02*
X239250D01*
Y842590D02*
Y861590D01*
X205250Y842590D02*
Y861590D01*
Y864180D02*
X239250D01*
X205250Y883180D02*
X239250D01*
Y864180D02*
Y883180D01*
X205250Y864180D02*
Y883180D01*
X309736Y871090D02*
X316807Y878161D01*
X309736Y871090D02*
X326706Y854119D01*
X316807Y878161D02*
X333777Y861190D01*
X326706Y854119D02*
X333777Y861190D01*
X732300Y661060D02*
Y680060D01*
X766300Y661060D02*
Y680060D01*
X732300D02*
X766300D01*
X732300Y661060D02*
X766300D01*
X1362860Y256660D02*
X1395160D01*
X1362860D02*
Y291660D01*
X1395160D01*
Y256660D02*
Y291660D01*
X280938Y843150D02*
X288009Y850221D01*
X280938Y843150D02*
X297908Y826179D01*
X288009Y850221D02*
X304979Y833250D01*
X297908Y826179D02*
X304979Y833250D01*
X619040Y902480D02*
Y936480D01*
X638040Y902480D02*
Y936480D01*
X619040Y902480D02*
X638040D01*
X619040Y936480D02*
X638040D01*
X597560Y902480D02*
Y936480D01*
X616560Y902480D02*
Y936480D01*
X597560Y902480D02*
X616560D01*
X597560Y936480D02*
X616560D01*
X486690Y470890D02*
X521690D01*
X486690Y435890D02*
Y470890D01*
Y435890D02*
X521690D01*
Y470890D01*
X616560Y864380D02*
Y898380D01*
X597560Y864380D02*
Y898380D01*
X616560D01*
X597560Y864380D02*
X616560D01*
X817020Y649630D02*
Y668630D01*
X783020Y649630D02*
Y668630D01*
Y649630D02*
X817020D01*
X783020Y668630D02*
X817020D01*
Y629310D02*
Y648310D01*
X783020Y629310D02*
Y648310D01*
Y629310D02*
X817020D01*
X783020Y648310D02*
X817020D01*
X535330Y914890D02*
X554330D01*
X535330Y880890D02*
X554330D01*
Y914890D01*
X535330Y880890D02*
Y914890D01*
X619150Y864380D02*
Y898380D01*
X638150Y864380D02*
Y898380D01*
X619150Y864380D02*
X638150D01*
X619150Y898380D02*
X638150D01*
X1275780Y110570D02*
Y120570D01*
Y110570D02*
X1299780D01*
X1275780Y120570D02*
X1299780D01*
Y110570D02*
Y120570D01*
X800140Y538950D02*
Y565950D01*
X815140Y538950D02*
Y565950D01*
X800140Y538950D02*
X815140D01*
X800140Y565950D02*
X815140D01*
X713620Y536410D02*
Y563410D01*
X698620Y536410D02*
Y563410D01*
X713620D01*
X698620Y536410D02*
X713620D01*
X530310Y810260D02*
Y916940D01*
X493310Y810260D02*
X530310D01*
X493310Y916940D02*
X530310D01*
X493310Y810260D02*
Y916940D01*
X716980Y591250D02*
Y653350D01*
X779080Y591250D02*
Y653350D01*
X716980Y591250D02*
X779080D01*
X716980Y653350D02*
X779080D01*
X928869Y553576D02*
X947869D01*
X928869Y519576D02*
X947869D01*
Y553576D01*
X928869Y519576D02*
Y553576D01*
X949809D02*
X968809D01*
X949809Y519576D02*
X968809D01*
Y553576D01*
X949809Y519576D02*
Y553576D01*
X905959Y499256D02*
Y533256D01*
X886959Y499256D02*
Y533256D01*
X905959D01*
X886959Y499256D02*
X905959D01*
X884369D02*
Y533256D01*
X865369Y499256D02*
Y533256D01*
X884369D01*
X865369Y499256D02*
X884369D01*
X1228750Y566312D02*
X1247750D01*
X1228750Y600312D02*
X1247750D01*
X1228750Y566312D02*
Y600312D01*
X1247750Y566312D02*
Y600312D01*
X1272660Y621858D02*
Y648858D01*
X1287660Y621858D02*
Y648858D01*
X1272660Y621858D02*
X1287660D01*
X1272660Y648858D02*
X1287660D01*
X897239Y452646D02*
Y470646D01*
X931239Y452646D02*
Y470646D01*
X897239D02*
X931239D01*
X897239Y452646D02*
X931239D01*
X871529Y473196D02*
X898529D01*
X871529Y488196D02*
X898529D01*
Y473196D02*
Y488196D01*
X871529Y473196D02*
Y488196D01*
X1096130Y432270D02*
Y459270D01*
X1111130Y432270D02*
Y459270D01*
X1096130Y432270D02*
X1111130D01*
X1096130Y459270D02*
X1111130D01*
X1028090Y454170D02*
X1047090D01*
X1028090Y488170D02*
X1047090D01*
X1028090Y454170D02*
Y488170D01*
X1047090Y454170D02*
Y488170D01*
X1097940Y466870D02*
X1116940D01*
X1097940Y500870D02*
X1116940D01*
X1097940Y466870D02*
Y500870D01*
X1116940Y466870D02*
Y500870D01*
X1254880Y621538D02*
X1269880D01*
X1254880Y649478D02*
X1269880D01*
X1254880Y621538D02*
Y649478D01*
X1269880Y621538D02*
Y649478D01*
X1299830Y632728D02*
X1313830D01*
X1299830Y602728D02*
X1313830D01*
Y632728D01*
X1299830Y602728D02*
Y632728D01*
X965069Y453646D02*
Y469646D01*
X937069Y453646D02*
Y469646D01*
Y453646D02*
X965069D01*
X937069Y469646D02*
X965069D01*
X1075080Y428770D02*
Y462770D01*
X1094080Y428770D02*
Y462770D01*
X1075080Y428770D02*
X1094080D01*
X1075080Y462770D02*
X1094080D01*
X1054760Y428770D02*
X1073760D01*
X1054760Y462770D02*
X1073760D01*
X1054760Y428770D02*
Y462770D01*
X1073760Y428770D02*
Y462770D01*
X1371110Y720750D02*
Y739750D01*
X1405110Y720750D02*
Y739750D01*
X1371110D02*
X1405110D01*
X1371110Y720750D02*
X1405110D01*
X1385018Y634046D02*
Y653046D01*
X1351018Y634046D02*
Y653046D01*
Y634046D02*
X1385018D01*
X1351018Y653046D02*
X1385018D01*
X1390160Y634390D02*
Y653390D01*
X1424160Y634390D02*
Y653390D01*
X1390160D02*
X1424160D01*
X1390160Y634390D02*
X1424160D01*
X1081500Y737500D02*
Y902500D01*
X938500D02*
X1081500D01*
X938500Y737500D02*
Y902500D01*
Y737500D02*
X1081500D01*
X1275740Y503700D02*
Y537700D01*
X1294740Y503700D02*
Y537700D01*
X1275740Y503700D02*
X1294740D01*
X1275740Y537700D02*
X1294740D01*
X1378730Y407060D02*
X1412730D01*
X1378730Y426060D02*
X1412730D01*
Y407060D02*
Y426060D01*
X1378730Y407060D02*
Y426060D01*
X1416540Y212750D02*
Y231750D01*
X1382540Y212750D02*
Y231750D01*
Y212750D02*
X1416540D01*
X1382540Y231750D02*
X1416540D01*
X1416460Y234340D02*
Y253340D01*
X1382460Y234340D02*
Y253340D01*
Y234340D02*
X1416460D01*
X1382460Y253340D02*
X1416460D01*
X1340630Y234340D02*
Y253340D01*
X1374630Y234340D02*
Y253340D01*
X1340630D02*
X1374630D01*
X1340630Y234340D02*
X1374630D01*
X1340630Y212750D02*
Y231750D01*
X1374630Y212750D02*
Y231750D01*
X1340630D02*
X1374630D01*
X1340630Y212750D02*
X1374630D01*
X1208160Y503700D02*
X1225160D01*
X1208160Y537700D02*
X1225160D01*
X1208160Y503700D02*
Y537700D01*
X1225160Y503700D02*
Y537700D01*
X1297840Y504100D02*
X1348840D01*
X1297840Y524600D02*
X1348840D01*
Y504100D02*
Y524600D01*
X1297840Y504100D02*
Y524600D01*
X1433560Y129810D02*
Y189730D01*
X1380760D02*
X1433560D01*
X1380760Y129810D02*
Y189730D01*
Y129810D02*
X1433560D01*
X1184300Y503700D02*
Y537700D01*
X1203300Y503700D02*
Y537700D01*
X1184300Y503700D02*
X1203300D01*
X1184300Y537700D02*
X1203300D01*
X1372490Y461640D02*
X1388490D01*
X1372490Y489640D02*
X1388490D01*
X1372490Y461640D02*
Y489640D01*
X1388490Y461640D02*
Y489640D01*
X1378730Y428650D02*
X1412730D01*
X1378730Y447650D02*
X1412730D01*
Y428650D02*
Y447650D01*
X1378730Y428650D02*
Y447650D01*
X1320180Y261740D02*
Y276740D01*
X1293180Y261740D02*
Y276740D01*
Y261740D02*
X1320180D01*
X1293180Y276740D02*
X1320180D01*
X1320330Y282060D02*
Y297060D01*
X1293330Y282060D02*
Y297060D01*
Y282060D02*
X1320330D01*
X1293330Y297060D02*
X1320330D01*
X1405400Y281330D02*
Y300330D01*
X1439400Y281330D02*
Y300330D01*
X1405400D02*
X1439400D01*
X1405400Y281330D02*
X1439400D01*
X1302530Y239420D02*
Y258420D01*
X1336530Y239420D02*
Y258420D01*
X1302530D02*
X1336530D01*
X1302530Y239420D02*
X1336530D01*
X1405400Y278740D02*
X1439400D01*
X1405400Y259740D02*
X1439400D01*
X1405400D02*
Y278740D01*
X1439400Y259740D02*
Y278740D01*
X1254580Y682650D02*
Y701650D01*
X1278580Y682650D02*
Y701650D01*
X1254580D02*
X1278580D01*
X1254580Y682650D02*
X1278580D01*
X1231290Y654830D02*
X1250290D01*
X1231290Y688830D02*
X1250290D01*
X1231290Y654830D02*
Y688830D01*
X1250290Y654830D02*
Y688830D01*
X1231290Y694060D02*
X1250290D01*
X1231290Y728060D02*
X1250290D01*
X1231290Y694060D02*
Y728060D01*
X1250290Y694060D02*
Y728060D01*
X1210090Y688690D02*
X1229090D01*
X1210090Y654690D02*
X1229090D01*
Y688690D01*
X1210090Y654690D02*
Y688690D01*
X87830Y672300D02*
Y699300D01*
X102830Y672300D02*
Y699300D01*
X87830Y672300D02*
X102830D01*
X87830Y699300D02*
X102830D01*
X165570Y729100D02*
X192570D01*
X165570Y744100D02*
X192570D01*
Y729100D02*
Y744100D01*
X165570Y729100D02*
Y744100D01*
Y708780D02*
X192570D01*
X165570Y723780D02*
X192570D01*
Y708780D02*
Y723780D01*
X165570Y708780D02*
Y723780D01*
X1119530Y466870D02*
X1138530D01*
X1119530Y500870D02*
X1138530D01*
X1119530Y466870D02*
Y500870D01*
X1138530Y466870D02*
Y500870D01*
X82510Y672300D02*
Y699300D01*
X67510Y672300D02*
Y699300D01*
X82510D01*
X67510Y672300D02*
X82510D01*
X547940Y433150D02*
Y443150D01*
X523940D02*
X547940D01*
X523940Y433150D02*
X547940D01*
X523940D02*
Y443150D01*
X1275780Y83900D02*
Y93900D01*
Y83900D02*
X1299780D01*
X1275780Y93900D02*
X1299780D01*
Y83900D02*
Y93900D01*
X919560Y814650D02*
X929560D01*
Y838650D01*
X919560Y814650D02*
Y838650D01*
X929560D01*
X919560Y807140D02*
X929560D01*
X919560Y783140D02*
Y807140D01*
X929560Y783140D02*
Y807140D01*
X919560Y783140D02*
X929560D01*
X410330Y855180D02*
Y882180D01*
X425330Y855180D02*
Y882180D01*
X410330Y855180D02*
X425330D01*
X410330Y882180D02*
X425330D01*
X196360Y706710D02*
X230360D01*
X196360Y748710D02*
X230360D01*
X196360Y706710D02*
Y748710D01*
X230360Y706710D02*
Y748710D01*
X254780Y800710D02*
X288780D01*
X254780Y781710D02*
X288780D01*
X254780D02*
Y800710D01*
X288780Y781710D02*
Y800710D01*
X204870Y751230D02*
X238870D01*
X204870Y770230D02*
X238870D01*
Y751230D02*
Y770230D01*
X204870Y751230D02*
Y770230D01*
X357530Y734840D02*
Y768840D01*
X376530Y734840D02*
Y768840D01*
X357530Y734840D02*
X376530D01*
X357530Y768840D02*
X376530D01*
X210080Y667530D02*
Y701530D01*
X191080Y667530D02*
Y701530D01*
X210080D01*
X191080Y667530D02*
X210080D01*
X230400D02*
Y701530D01*
X211400Y667530D02*
Y701530D01*
X230400D01*
X211400Y667530D02*
X230400D01*
X309390Y647090D02*
X343390D01*
X309390Y666090D02*
X343390D01*
Y647090D02*
Y666090D01*
X309390Y647090D02*
Y666090D01*
Y626770D02*
Y645770D01*
X343390Y626770D02*
Y645770D01*
X309390D02*
X343390D01*
X309390Y626770D02*
X343390D01*
X109770Y665950D02*
Y781750D01*
X146770D01*
X109770Y665950D02*
X146770D01*
Y781750D01*
X1364060Y850200D02*
X1374060D01*
X1364060Y826200D02*
Y850200D01*
X1374060Y826200D02*
Y850200D01*
X1364060Y826200D02*
X1374060D01*
X584980Y550520D02*
X618980D01*
X584980Y531520D02*
X618980D01*
X584980D02*
Y550520D01*
X618980Y531520D02*
Y550520D01*
X763510Y484520D02*
X793510D01*
X763510Y470520D02*
X793510D01*
X763510D02*
Y484520D01*
X793510Y470520D02*
Y484520D01*
M02*
