G04*
G04 #@! TF.GenerationSoftware,Altium Limited,Altium Designer,24.9.1 (31)*
G04*
G04 Layer_Physical_Order=3*
G04 Layer_Color=16440176*
%FSLAX44Y44*%
%MOMM*%
G71*
G04*
G04 #@! TF.SameCoordinates,A601D634-93CA-4805-8520-E3EE879C7AED*
G04*
G04*
G04 #@! TF.FilePolarity,Positive*
G04*
G01*
G75*
%ADD13C,0.2540*%
%ADD137C,0.9906*%
%ADD153R,1.0000X1.0000*%
%ADD154C,1.0000*%
%ADD155R,1.5500X1.5500*%
%ADD156C,1.5500*%
%ADD157C,1.8000*%
%ADD160C,1.3890*%
%ADD161R,1.3890X1.3890*%
%ADD171C,0.3500*%
%ADD186R,1.8000X1.8000*%
%ADD187C,2.3000*%
%ADD188C,2.2000*%
%ADD189O,0.8500X1.1500*%
%ADD190O,0.9000X1.5500*%
%ADD191O,1.4000X0.9000*%
%ADD192C,0.8500*%
%ADD193C,0.4000*%
%ADD194C,0.6000*%
%ADD195R,3.2000X2.6000*%
%ADD196R,1.8000X1.8000*%
%ADD197C,2.6000*%
%ADD198C,1.3080*%
%ADD199R,1.3080X1.3080*%
%ADD200C,2.1000*%
%ADD201C,6.0000*%
%ADD202C,2.3749*%
%ADD203C,0.8000*%
%ADD204C,2.0000*%
%ADD205R,3.0480X1.7780*%
%ADD206R,23.7490X1.1430*%
%ADD207R,1.2700X33.1470*%
%ADD208R,5.9690X2.5400*%
%ADD209R,2.5400X6.8580*%
%ADD210R,12.7000X2.5020*%
%ADD211R,2.5400X30.9880*%
%ADD212R,10.9220X3.3020*%
%ADD213R,1.9050X4.0640*%
%ADD214R,3.8100X4.4450*%
%ADD215R,2.5400X13.5890*%
%ADD216R,6.8580X2.9210*%
%ADD217R,16.7640X1.9050*%
%ADD218R,1.7780X27.1780*%
%ADD219R,1.9050X23.4300*%
%ADD220R,35.0520X1.6510*%
%ADD221R,1.7780X8.0010*%
%ADD222R,1.2044X7.6200*%
%ADD223R,8.1280X1.5240*%
%ADD224R,2.2860X7.2390*%
%ADD225R,3.3020X7.7470*%
%ADD226R,21.7170X3.8100*%
%ADD227R,16.7640X1.5240*%
%ADD228R,2.0320X12.0650*%
G36*
X50000Y997706D02*
X620000D01*
X620009Y997708D01*
X624335Y997367D01*
X628562Y996352D01*
X632579Y994688D01*
X636287Y992417D01*
X639593Y989593D01*
X642417Y986287D01*
X644688Y982579D01*
X646352Y978562D01*
X647367Y974335D01*
X647708Y970009D01*
X647706Y970000D01*
Y935000D01*
X647880Y934122D01*
X648378Y933378D01*
X649122Y932881D01*
X650000Y932706D01*
X850000D01*
X850878Y932881D01*
X851622Y933378D01*
X852120Y934122D01*
X852294Y935000D01*
Y970000D01*
X852292Y970009D01*
X852633Y974335D01*
X853648Y978562D01*
X855312Y982579D01*
X857583Y986287D01*
X860407Y989593D01*
X863713Y992417D01*
X867421Y994688D01*
X871438Y996352D01*
X875666Y997367D01*
X878769Y997611D01*
X880000Y997706D01*
X881262Y997706D01*
X881264Y997706D01*
X1448730Y997706D01*
X1450000Y997706D01*
X1451244Y997644D01*
X1456229Y997317D01*
X1462352Y996099D01*
X1468264Y994092D01*
X1473863Y991331D01*
X1479053Y987863D01*
X1483747Y983747D01*
X1487863Y979053D01*
X1491331Y973863D01*
X1494092Y968264D01*
X1496099Y962352D01*
X1497317Y956229D01*
X1497720Y950073D01*
X1497706Y950000D01*
Y50000D01*
X1497720Y49927D01*
X1497317Y43771D01*
X1496099Y37648D01*
X1494092Y31736D01*
X1491331Y26137D01*
X1487863Y20947D01*
X1483747Y16253D01*
X1479053Y12137D01*
X1473863Y8669D01*
X1468264Y5908D01*
X1462352Y3901D01*
X1456229Y2683D01*
X1451254Y2357D01*
X1450000Y2294D01*
X1450000Y2294D01*
X1448749Y2294D01*
X50000D01*
X49927Y2280D01*
X43771Y2683D01*
X37648Y3901D01*
X31736Y5908D01*
X26137Y8669D01*
X20947Y12137D01*
X16253Y16253D01*
X12137Y20947D01*
X8669Y26137D01*
X5908Y31736D01*
X3901Y37648D01*
X2683Y43771D01*
X2357Y48746D01*
X2294Y50000D01*
X2294Y50000D01*
X2294Y51251D01*
Y948737D01*
X2294Y948749D01*
X2294Y950000D01*
X2356Y951244D01*
X2683Y956229D01*
X3901Y962352D01*
X5908Y968264D01*
X8669Y973863D01*
X12137Y979053D01*
X16253Y983747D01*
X20947Y987863D01*
X26137Y991331D01*
X31736Y994092D01*
X37648Y996099D01*
X43771Y997317D01*
X49927Y997720D01*
X50000Y997706D01*
D02*
G37*
%LPC*%
G36*
X1333166Y985960D02*
X1331475D01*
X1329913Y985313D01*
X1328717Y984117D01*
X1328517Y983635D01*
X1327143D01*
X1326943Y984117D01*
X1325747Y985313D01*
X1324185Y985960D01*
X1322495D01*
X1320933Y985313D01*
X1319737Y984117D01*
X1319537Y983635D01*
X1318163D01*
X1317963Y984117D01*
X1316767Y985313D01*
X1315205Y985960D01*
X1313514D01*
X1311952Y985313D01*
X1310757Y984117D01*
X1310110Y982555D01*
Y980865D01*
X1310757Y979303D01*
X1311952Y978107D01*
X1313514Y977460D01*
X1315205D01*
X1316767Y978107D01*
X1317963Y979303D01*
X1318163Y979785D01*
X1319537D01*
X1319737Y979303D01*
X1320933Y978107D01*
X1322495Y977460D01*
X1324185D01*
X1325747Y978107D01*
X1326943Y979303D01*
X1327143Y979785D01*
X1328517D01*
X1328717Y979303D01*
X1329913Y978107D01*
X1331475Y977460D01*
X1333166D01*
X1334728Y978107D01*
X1335923Y979303D01*
X1336570Y980865D01*
Y982555D01*
X1335923Y984117D01*
X1334728Y985313D01*
X1333166Y985960D01*
D02*
G37*
G36*
X1188476D02*
X1186785D01*
X1185223Y985313D01*
X1184027Y984117D01*
X1183828Y983635D01*
X1182453D01*
X1182253Y984117D01*
X1181058Y985313D01*
X1179496Y985960D01*
X1177805D01*
X1176243Y985313D01*
X1175047Y984117D01*
X1174847Y983635D01*
X1173473D01*
X1173273Y984117D01*
X1172077Y985313D01*
X1170515Y985960D01*
X1168825D01*
X1167263Y985313D01*
X1166067Y984117D01*
X1165420Y982555D01*
Y980865D01*
X1166067Y979303D01*
X1167263Y978107D01*
X1168825Y977460D01*
X1170515D01*
X1172077Y978107D01*
X1173273Y979303D01*
X1173473Y979785D01*
X1174847D01*
X1175047Y979303D01*
X1176243Y978107D01*
X1177805Y977460D01*
X1179496D01*
X1181058Y978107D01*
X1182253Y979303D01*
X1182453Y979785D01*
X1183828D01*
X1184027Y979303D01*
X1185223Y978107D01*
X1186785Y977460D01*
X1188476D01*
X1190038Y978107D01*
X1191234Y979303D01*
X1191880Y980865D01*
Y982555D01*
X1191234Y984117D01*
X1190038Y985313D01*
X1188476Y985960D01*
D02*
G37*
G36*
X1333166Y971990D02*
X1331475D01*
X1329913Y971343D01*
X1328717Y970147D01*
X1328517Y969665D01*
X1327143D01*
X1326943Y970147D01*
X1325747Y971343D01*
X1324185Y971990D01*
X1322495D01*
X1320933Y971343D01*
X1319737Y970147D01*
X1319537Y969665D01*
X1318163D01*
X1317963Y970147D01*
X1316767Y971343D01*
X1315205Y971990D01*
X1313514D01*
X1311952Y971343D01*
X1310757Y970147D01*
X1310110Y968585D01*
Y966895D01*
X1310757Y965333D01*
X1311952Y964137D01*
X1313514Y963490D01*
X1315205D01*
X1316767Y964137D01*
X1317963Y965333D01*
X1318163Y965815D01*
X1319537D01*
X1319737Y965333D01*
X1320933Y964137D01*
X1322495Y963490D01*
X1324185D01*
X1325747Y964137D01*
X1326943Y965333D01*
X1327143Y965815D01*
X1328517D01*
X1328717Y965333D01*
X1329913Y964137D01*
X1331475Y963490D01*
X1333166D01*
X1334728Y964137D01*
X1335923Y965333D01*
X1336570Y966895D01*
Y968585D01*
X1335923Y970147D01*
X1334728Y971343D01*
X1333166Y971990D01*
D02*
G37*
G36*
X1188476D02*
X1186785D01*
X1185223Y971343D01*
X1184027Y970147D01*
X1183828Y969665D01*
X1182453D01*
X1182253Y970147D01*
X1181058Y971343D01*
X1179496Y971990D01*
X1177805D01*
X1176243Y971343D01*
X1175047Y970147D01*
X1174847Y969665D01*
X1173473D01*
X1173273Y970147D01*
X1172077Y971343D01*
X1170515Y971990D01*
X1168825D01*
X1167263Y971343D01*
X1166067Y970147D01*
X1165420Y968585D01*
Y966895D01*
X1166067Y965333D01*
X1167263Y964137D01*
X1168825Y963490D01*
X1170515D01*
X1172077Y964137D01*
X1173273Y965333D01*
X1173473Y965815D01*
X1174847D01*
X1175047Y965333D01*
X1176243Y964137D01*
X1177805Y963490D01*
X1179496D01*
X1181058Y964137D01*
X1182253Y965333D01*
X1182453Y965815D01*
X1183828D01*
X1184027Y965333D01*
X1185223Y964137D01*
X1186785Y963490D01*
X1188476D01*
X1190038Y964137D01*
X1191234Y965333D01*
X1191880Y966895D01*
Y968585D01*
X1191234Y970147D01*
X1190038Y971343D01*
X1188476Y971990D01*
D02*
G37*
G36*
X1042245Y980880D02*
X1040555D01*
X1038993Y980233D01*
X1037797Y979037D01*
X1037150Y977475D01*
Y975785D01*
X1037797Y974223D01*
X1038565Y973455D01*
X1037797Y972687D01*
X1037150Y971125D01*
Y969435D01*
X1037797Y967873D01*
X1038565Y967105D01*
X1037797Y966337D01*
X1037150Y964775D01*
Y963085D01*
X1037797Y961523D01*
X1038993Y960327D01*
X1040555Y959680D01*
X1042245D01*
X1043807Y960327D01*
X1045003Y961523D01*
X1045650Y963085D01*
Y964775D01*
X1045003Y966337D01*
X1044235Y967105D01*
X1045003Y967873D01*
X1045650Y969435D01*
Y971125D01*
X1045003Y972687D01*
X1044235Y973455D01*
X1045003Y974223D01*
X1045650Y975785D01*
Y977475D01*
X1045003Y979037D01*
X1043807Y980233D01*
X1042245Y980880D01*
D02*
G37*
G36*
X978745D02*
X977055D01*
X975493Y980233D01*
X974297Y979037D01*
X973650Y977475D01*
Y975785D01*
X974297Y974223D01*
X975065Y973455D01*
X974297Y972687D01*
X973650Y971125D01*
Y969435D01*
X974297Y967873D01*
X975065Y967105D01*
X974297Y966337D01*
X973650Y964775D01*
Y963085D01*
X974297Y961523D01*
X975493Y960327D01*
X977055Y959680D01*
X978745D01*
X980307Y960327D01*
X981503Y961523D01*
X982150Y963085D01*
Y964775D01*
X981503Y966337D01*
X980735Y967105D01*
X981503Y967873D01*
X982150Y969435D01*
Y971125D01*
X981503Y972687D01*
X980735Y973455D01*
X981503Y974223D01*
X982150Y975785D01*
Y977475D01*
X981503Y979037D01*
X980307Y980233D01*
X978745Y980880D01*
D02*
G37*
G36*
X1333166Y959290D02*
X1331475D01*
X1329913Y958643D01*
X1328717Y957447D01*
X1328517Y956965D01*
X1327143D01*
X1326943Y957447D01*
X1325747Y958643D01*
X1324185Y959290D01*
X1322495D01*
X1320933Y958643D01*
X1319737Y957447D01*
X1319537Y956965D01*
X1318163D01*
X1317963Y957447D01*
X1316767Y958643D01*
X1315205Y959290D01*
X1313514D01*
X1311952Y958643D01*
X1310757Y957447D01*
X1310110Y955885D01*
Y954195D01*
X1310757Y952633D01*
X1311952Y951437D01*
X1313514Y950790D01*
X1315205D01*
X1316767Y951437D01*
X1317963Y952633D01*
X1318163Y953115D01*
X1319537D01*
X1319737Y952633D01*
X1320933Y951437D01*
X1322495Y950790D01*
X1324185D01*
X1325747Y951437D01*
X1326943Y952633D01*
X1327143Y953115D01*
X1328517D01*
X1328717Y952633D01*
X1329913Y951437D01*
X1331475Y950790D01*
X1333166D01*
X1334728Y951437D01*
X1335923Y952633D01*
X1336570Y954195D01*
Y955885D01*
X1335923Y957447D01*
X1334728Y958643D01*
X1333166Y959290D01*
D02*
G37*
G36*
X1188476D02*
X1186785D01*
X1185223Y958643D01*
X1184027Y957447D01*
X1183828Y956965D01*
X1182453D01*
X1182253Y957447D01*
X1181058Y958643D01*
X1179496Y959290D01*
X1177805D01*
X1176243Y958643D01*
X1175047Y957447D01*
X1174847Y956965D01*
X1173473D01*
X1173273Y957447D01*
X1172077Y958643D01*
X1170515Y959290D01*
X1168825D01*
X1167263Y958643D01*
X1166067Y957447D01*
X1165420Y955885D01*
Y954195D01*
X1166067Y952633D01*
X1167263Y951437D01*
X1168825Y950790D01*
X1170515D01*
X1172077Y951437D01*
X1173273Y952633D01*
X1173473Y953115D01*
X1174847D01*
X1175047Y952633D01*
X1176243Y951437D01*
X1177805Y950790D01*
X1179496D01*
X1181058Y951437D01*
X1182253Y952633D01*
X1182453Y953115D01*
X1183828D01*
X1184027Y952633D01*
X1185223Y951437D01*
X1186785Y950790D01*
X1188476D01*
X1190038Y951437D01*
X1191234Y952633D01*
X1191880Y954195D01*
Y955885D01*
X1191234Y957447D01*
X1190038Y958643D01*
X1188476Y959290D01*
D02*
G37*
G36*
X551349Y975250D02*
X548651D01*
X546044Y974551D01*
X543706Y973202D01*
X541798Y971294D01*
X540448Y968956D01*
X539750Y966349D01*
Y963651D01*
X540448Y961044D01*
X541798Y958706D01*
X543706Y956798D01*
X546044Y955449D01*
X548651Y954750D01*
X551349D01*
X553956Y955449D01*
X556294Y956798D01*
X558202Y958706D01*
X559552Y961044D01*
X560250Y963651D01*
Y966349D01*
X559552Y968956D01*
X558202Y971294D01*
X556294Y973202D01*
X553956Y974551D01*
X551349Y975250D01*
D02*
G37*
G36*
X525949D02*
X523251D01*
X520644Y974551D01*
X518306Y973202D01*
X516398Y971294D01*
X515048Y968956D01*
X514350Y966349D01*
Y963651D01*
X515048Y961044D01*
X516398Y958706D01*
X518306Y956798D01*
X520644Y955449D01*
X523251Y954750D01*
X525949D01*
X528556Y955449D01*
X530894Y956798D01*
X532802Y958706D01*
X534151Y961044D01*
X534850Y963651D01*
Y966349D01*
X534151Y968956D01*
X532802Y971294D01*
X530894Y973202D01*
X528556Y974551D01*
X525949Y975250D01*
D02*
G37*
G36*
X387949Y965250D02*
X385251D01*
X382644Y964551D01*
X380306Y963202D01*
X378398Y961294D01*
X377048Y958956D01*
X376350Y956349D01*
Y953651D01*
X377048Y951044D01*
X378398Y948706D01*
X380306Y946798D01*
X382644Y945449D01*
X385251Y944750D01*
X387949D01*
X390556Y945449D01*
X392894Y946798D01*
X394802Y948706D01*
X396152Y951044D01*
X396850Y953651D01*
Y956349D01*
X396152Y958956D01*
X394802Y961294D01*
X392894Y963202D01*
X390556Y964551D01*
X387949Y965250D01*
D02*
G37*
G36*
X362549D02*
X359851D01*
X357244Y964551D01*
X354906Y963202D01*
X352998Y961294D01*
X351648Y958956D01*
X350950Y956349D01*
Y953651D01*
X351648Y951044D01*
X352998Y948706D01*
X354906Y946798D01*
X357244Y945449D01*
X359851Y944750D01*
X362549D01*
X365156Y945449D01*
X367494Y946798D01*
X369402Y948706D01*
X370751Y951044D01*
X371450Y953651D01*
Y956349D01*
X370751Y958956D01*
X369402Y961294D01*
X367494Y963202D01*
X365156Y964551D01*
X362549Y965250D01*
D02*
G37*
G36*
X337149D02*
X334451D01*
X331844Y964551D01*
X329506Y963202D01*
X327598Y961294D01*
X326249Y958956D01*
X325550Y956349D01*
Y953651D01*
X326249Y951044D01*
X327598Y948706D01*
X329506Y946798D01*
X331844Y945449D01*
X334451Y944750D01*
X337149D01*
X339756Y945449D01*
X342094Y946798D01*
X344002Y948706D01*
X345351Y951044D01*
X346050Y953651D01*
Y956349D01*
X345351Y958956D01*
X344002Y961294D01*
X342094Y963202D01*
X339756Y964551D01*
X337149Y965250D01*
D02*
G37*
G36*
X311749D02*
X309051D01*
X306444Y964551D01*
X304106Y963202D01*
X302198Y961294D01*
X300849Y958956D01*
X300150Y956349D01*
Y953651D01*
X300849Y951044D01*
X302198Y948706D01*
X304106Y946798D01*
X306444Y945449D01*
X309051Y944750D01*
X311749D01*
X314356Y945449D01*
X316694Y946798D01*
X318602Y948706D01*
X319951Y951044D01*
X320650Y953651D01*
Y956349D01*
X319951Y958956D01*
X318602Y961294D01*
X316694Y963202D01*
X314356Y964551D01*
X311749Y965250D01*
D02*
G37*
G36*
X286349D02*
X283651D01*
X281044Y964551D01*
X278706Y963202D01*
X276798Y961294D01*
X275448Y958956D01*
X274750Y956349D01*
Y953651D01*
X275448Y951044D01*
X276798Y948706D01*
X278706Y946798D01*
X281044Y945449D01*
X283651Y944750D01*
X286349D01*
X288956Y945449D01*
X291294Y946798D01*
X293202Y948706D01*
X294552Y951044D01*
X295250Y953651D01*
Y956349D01*
X294552Y958956D01*
X293202Y961294D01*
X291294Y963202D01*
X288956Y964551D01*
X286349Y965250D01*
D02*
G37*
G36*
X260949D02*
X258251D01*
X255644Y964551D01*
X253306Y963202D01*
X251398Y961294D01*
X250049Y958956D01*
X249350Y956349D01*
Y953651D01*
X250049Y951044D01*
X251398Y948706D01*
X253306Y946798D01*
X255644Y945449D01*
X258251Y944750D01*
X260949D01*
X263556Y945449D01*
X265894Y946798D01*
X267802Y948706D01*
X269151Y951044D01*
X269850Y953651D01*
Y956349D01*
X269151Y958956D01*
X267802Y961294D01*
X265894Y963202D01*
X263556Y964551D01*
X260949Y965250D01*
D02*
G37*
G36*
X219050D02*
X198550D01*
Y944750D01*
X219050D01*
Y965250D01*
D02*
G37*
G36*
X629584Y947590D02*
X627496D01*
X625566Y946791D01*
X624089Y945314D01*
X623290Y943384D01*
Y941296D01*
X624089Y939366D01*
X625566Y937889D01*
X627496Y937090D01*
X629584D01*
X631514Y937889D01*
X632991Y939366D01*
X633790Y941296D01*
Y943384D01*
X632991Y945314D01*
X631514Y946791D01*
X629584Y947590D01*
D02*
G37*
G36*
X608104D02*
X606016D01*
X604086Y946791D01*
X602609Y945314D01*
X601810Y943384D01*
Y941296D01*
X602609Y939366D01*
X604086Y937889D01*
X606016Y937090D01*
X608104D01*
X610034Y937889D01*
X611511Y939366D01*
X612310Y941296D01*
Y943384D01*
X611511Y945314D01*
X610034Y946791D01*
X608104Y947590D01*
D02*
G37*
G36*
X167299Y952510D02*
X163941D01*
X160699Y951641D01*
X157791Y949962D01*
X155417Y947589D01*
X153739Y944681D01*
X152870Y941439D01*
Y938081D01*
X153739Y934839D01*
X155417Y931931D01*
X157791Y929557D01*
X160699Y927879D01*
X163941Y927010D01*
X167299D01*
X170541Y927879D01*
X173449Y929557D01*
X175823Y931931D01*
X177501Y934839D01*
X178370Y938081D01*
Y941439D01*
X177501Y944681D01*
X175823Y947589D01*
X173449Y949962D01*
X170541Y951641D01*
X167299Y952510D01*
D02*
G37*
G36*
X436858Y952280D02*
X433501D01*
X430259Y951411D01*
X427351Y949733D01*
X424977Y947359D01*
X423299Y944451D01*
X422430Y941209D01*
Y937851D01*
X423299Y934609D01*
X424977Y931701D01*
X427351Y929327D01*
X430259Y927649D01*
X433501Y926780D01*
X436858D01*
X440101Y927649D01*
X443009Y929327D01*
X445382Y931701D01*
X447061Y934609D01*
X447930Y937851D01*
Y941209D01*
X447061Y944451D01*
X445382Y947359D01*
X443009Y949733D01*
X440101Y951411D01*
X436858Y952280D01*
D02*
G37*
G36*
X1018115Y949130D02*
X1016425D01*
X1014863Y948483D01*
X1013667Y947287D01*
X1013020Y945725D01*
Y944035D01*
X1013667Y942473D01*
X1014240Y941900D01*
X1014738Y941070D01*
X1014240Y940240D01*
X1013667Y939667D01*
X1013020Y938105D01*
Y936415D01*
X1013667Y934853D01*
X1014863Y933657D01*
X1015236Y933502D01*
Y932128D01*
X1014863Y931973D01*
X1013667Y930777D01*
X1013020Y929215D01*
Y927525D01*
X1013667Y925963D01*
X1014863Y924767D01*
X1016425Y924120D01*
X1018115D01*
X1019677Y924767D01*
X1020873Y925963D01*
X1021520Y927525D01*
Y929215D01*
X1020873Y930777D01*
X1019677Y931973D01*
X1019304Y932128D01*
Y933502D01*
X1019677Y933657D01*
X1020873Y934853D01*
X1021520Y936415D01*
Y938105D01*
X1020873Y939667D01*
X1020300Y940240D01*
X1019802Y941070D01*
X1020300Y941900D01*
X1020873Y942473D01*
X1021520Y944035D01*
Y945725D01*
X1020873Y947287D01*
X1019677Y948483D01*
X1018115Y949130D01*
D02*
G37*
G36*
X1245445Y944050D02*
X1243755D01*
X1242193Y943403D01*
X1240997Y942207D01*
X1240350Y940645D01*
Y938955D01*
X1240997Y937393D01*
X1241570Y936820D01*
X1242068Y935990D01*
X1241570Y935160D01*
X1240997Y934587D01*
X1240350Y933025D01*
Y931335D01*
X1240997Y929773D01*
X1241570Y929200D01*
X1242068Y928370D01*
X1241570Y927540D01*
X1240997Y926967D01*
X1240350Y925405D01*
Y923715D01*
X1240550Y923232D01*
X1239578Y922260D01*
X1239095Y922460D01*
X1237405D01*
X1235843Y921813D01*
X1234647Y920617D01*
X1234000Y919055D01*
Y917365D01*
X1234200Y916882D01*
X1233228Y915910D01*
X1232745Y916110D01*
X1231055D01*
X1229493Y915463D01*
X1228297Y914267D01*
X1227650Y912705D01*
Y911015D01*
X1227850Y910532D01*
X1226878Y909560D01*
X1226395Y909760D01*
X1224705D01*
X1223143Y909113D01*
X1221947Y907917D01*
X1221300Y906355D01*
Y904665D01*
X1221947Y903103D01*
X1223143Y901907D01*
X1224705Y901260D01*
X1226395D01*
X1227957Y901907D01*
X1229153Y903103D01*
X1229800Y904665D01*
Y906355D01*
X1229600Y906838D01*
X1230572Y907810D01*
X1231055Y907610D01*
X1232745D01*
X1234307Y908257D01*
X1235503Y909453D01*
X1236150Y911015D01*
Y912705D01*
X1235950Y913188D01*
X1236922Y914160D01*
X1237405Y913960D01*
X1239095D01*
X1240657Y914607D01*
X1241853Y915803D01*
X1242500Y917365D01*
Y919055D01*
X1242300Y919538D01*
X1243272Y920510D01*
X1243755Y920310D01*
X1245445D01*
X1247007Y920957D01*
X1248203Y922153D01*
X1248850Y923715D01*
Y925405D01*
X1248203Y926967D01*
X1247630Y927540D01*
X1247132Y928370D01*
X1247630Y929200D01*
X1248203Y929773D01*
X1248850Y931335D01*
Y933025D01*
X1248203Y934587D01*
X1247630Y935160D01*
X1247132Y935990D01*
X1247630Y936820D01*
X1248203Y937393D01*
X1248850Y938955D01*
Y940645D01*
X1248203Y942207D01*
X1247007Y943403D01*
X1245445Y944050D01*
D02*
G37*
G36*
X1258145D02*
X1256455D01*
X1254893Y943403D01*
X1253697Y942207D01*
X1253050Y940645D01*
Y938955D01*
X1253697Y937393D01*
X1254270Y936820D01*
X1254768Y935990D01*
X1254270Y935160D01*
X1253697Y934587D01*
X1253050Y933025D01*
Y931335D01*
X1253697Y929773D01*
X1254270Y929200D01*
X1254768Y928370D01*
X1254270Y927540D01*
X1253697Y926967D01*
X1253050Y925405D01*
Y923715D01*
X1253697Y922153D01*
X1254893Y920957D01*
X1256455Y920310D01*
X1258145D01*
X1259707Y920957D01*
X1260903Y922153D01*
X1261550Y923715D01*
Y925405D01*
X1260903Y926967D01*
X1260330Y927540D01*
X1259832Y928370D01*
X1260330Y929200D01*
X1260903Y929773D01*
X1261550Y931335D01*
Y933025D01*
X1260903Y934587D01*
X1260330Y935160D01*
X1259832Y935990D01*
X1260330Y936820D01*
X1260903Y937393D01*
X1261550Y938955D01*
Y940645D01*
X1260903Y942207D01*
X1259707Y943403D01*
X1258145Y944050D01*
D02*
G37*
G36*
X821464Y929810D02*
X819376D01*
X817446Y929011D01*
X815969Y927534D01*
X815170Y925604D01*
Y923516D01*
X815969Y921586D01*
X817446Y920109D01*
X819376Y919310D01*
X821464D01*
X823394Y920109D01*
X824871Y921586D01*
X825670Y923516D01*
Y925604D01*
X824871Y927534D01*
X823394Y929011D01*
X821464Y929810D01*
D02*
G37*
G36*
X647474D02*
X645386D01*
X643456Y929011D01*
X641979Y927534D01*
X641180Y925604D01*
Y923516D01*
X641979Y921586D01*
X643456Y920109D01*
X645386Y919310D01*
X647474D01*
X649404Y920109D01*
X650881Y921586D01*
X651680Y923516D01*
Y925604D01*
X650881Y927534D01*
X649404Y929011D01*
X647474Y929810D01*
D02*
G37*
G36*
X1452459Y981250D02*
X1447541D01*
X1442682Y980480D01*
X1438004Y978960D01*
X1433621Y976727D01*
X1429642Y973836D01*
X1426164Y970358D01*
X1423273Y966379D01*
X1421039Y961996D01*
X1419520Y957318D01*
X1418750Y952459D01*
Y947541D01*
X1419520Y942682D01*
X1421039Y938004D01*
X1423273Y933621D01*
X1426164Y929642D01*
X1429642Y926164D01*
X1433621Y923273D01*
X1438004Y921040D01*
X1442682Y919520D01*
X1447541Y918750D01*
X1452459D01*
X1457318Y919520D01*
X1461996Y921040D01*
X1466379Y923273D01*
X1470358Y926164D01*
X1473836Y929642D01*
X1476727Y933621D01*
X1478961Y938004D01*
X1480480Y942682D01*
X1481250Y947541D01*
Y952459D01*
X1480480Y957318D01*
X1478961Y961996D01*
X1476727Y966379D01*
X1473836Y970358D01*
X1470358Y973836D01*
X1466379Y976727D01*
X1461996Y978960D01*
X1457318Y980480D01*
X1452459Y981250D01*
D02*
G37*
G36*
X52459D02*
X47541D01*
X42682Y980480D01*
X38004Y978960D01*
X33621Y976727D01*
X29642Y973836D01*
X26164Y970358D01*
X23273Y966379D01*
X21040Y961996D01*
X19519Y957318D01*
X18750Y952459D01*
Y947541D01*
X19519Y942682D01*
X21040Y938004D01*
X23273Y933621D01*
X26164Y929642D01*
X29642Y926164D01*
X33621Y923273D01*
X38004Y921040D01*
X42682Y919520D01*
X47541Y918750D01*
X52459D01*
X57318Y919520D01*
X61996Y921040D01*
X66379Y923273D01*
X70358Y926164D01*
X73836Y929642D01*
X76727Y933621D01*
X78960Y938004D01*
X80480Y942682D01*
X81250Y947541D01*
Y952459D01*
X80480Y957318D01*
X78960Y961996D01*
X76727Y966379D01*
X73836Y970358D01*
X70358Y973836D01*
X66379Y976727D01*
X61996Y978960D01*
X57318Y980480D01*
X52459Y981250D01*
D02*
G37*
G36*
X1255605Y918650D02*
X1253915D01*
X1252353Y918003D01*
X1251157Y916807D01*
X1250510Y915245D01*
Y913555D01*
X1250710Y913072D01*
X1249738Y912100D01*
X1249255Y912300D01*
X1247565D01*
X1246003Y911653D01*
X1244807Y910457D01*
X1244160Y908895D01*
Y907205D01*
X1244360Y906722D01*
X1243388Y905750D01*
X1242905Y905950D01*
X1241215D01*
X1239653Y905303D01*
X1238457Y904107D01*
X1237810Y902545D01*
Y901327D01*
X1237405Y900622D01*
X1236700Y900216D01*
X1235481D01*
X1233919Y899569D01*
X1232723Y898374D01*
X1232076Y896812D01*
Y896002D01*
X1231842Y895062D01*
X1230903Y894828D01*
X1230093D01*
X1228531Y894181D01*
X1227335Y892986D01*
X1226688Y891423D01*
Y890613D01*
X1226454Y889674D01*
X1225515Y889440D01*
X1224705D01*
X1223143Y888793D01*
X1221947Y887597D01*
X1221300Y886035D01*
Y885680D01*
X1221124Y885574D01*
X1220030Y885290D01*
X1219067Y886253D01*
X1217505Y886900D01*
X1215815D01*
X1214253Y886253D01*
X1213680Y885680D01*
X1212850Y885182D01*
X1212020Y885680D01*
X1211447Y886253D01*
X1209885Y886900D01*
X1208195D01*
X1206633Y886253D01*
X1206060Y885680D01*
X1205230Y885182D01*
X1204400Y885680D01*
X1203827Y886253D01*
X1202265Y886900D01*
X1200575D01*
X1199013Y886253D01*
X1197817Y885057D01*
X1197170Y883495D01*
Y881805D01*
X1197817Y880243D01*
X1199013Y879047D01*
X1200575Y878400D01*
X1202265D01*
X1203827Y879047D01*
X1204400Y879620D01*
X1205230Y880118D01*
X1206060Y879620D01*
X1206633Y879047D01*
X1208195Y878400D01*
X1209885D01*
X1211447Y879047D01*
X1212020Y879620D01*
X1212850Y880118D01*
X1213680Y879620D01*
X1214253Y879047D01*
X1215815Y878400D01*
X1217505D01*
X1219067Y879047D01*
X1220263Y880243D01*
X1220910Y881805D01*
Y882160D01*
X1221086Y882266D01*
X1222180Y882550D01*
X1223143Y881587D01*
X1224705Y880940D01*
X1226395D01*
X1227957Y881587D01*
X1229153Y882783D01*
X1229800Y884345D01*
Y885155D01*
X1230034Y886094D01*
X1230973Y886328D01*
X1231784D01*
X1233346Y886975D01*
X1234541Y888171D01*
X1235188Y889733D01*
Y890543D01*
X1235423Y891482D01*
X1236361Y891716D01*
X1237172D01*
X1238734Y892363D01*
X1239929Y893559D01*
X1240576Y895121D01*
Y896340D01*
X1240982Y897045D01*
X1241687Y897450D01*
X1242905D01*
X1244467Y898097D01*
X1245663Y899293D01*
X1246310Y900855D01*
Y902545D01*
X1246110Y903028D01*
X1247082Y904000D01*
X1247565Y903800D01*
X1249255D01*
X1250817Y904447D01*
X1252013Y905643D01*
X1252660Y907205D01*
Y908895D01*
X1252460Y909378D01*
X1253432Y910350D01*
X1253915Y910150D01*
X1255605D01*
X1257167Y910797D01*
X1258363Y911993D01*
X1259010Y913555D01*
Y915245D01*
X1258363Y916807D01*
X1257167Y918003D01*
X1255605Y918650D01*
D02*
G37*
G36*
X856825Y916110D02*
X855135D01*
X853573Y915463D01*
X852377Y914267D01*
X851730Y912705D01*
Y911015D01*
X852377Y909453D01*
X853573Y908257D01*
X855135Y907610D01*
X856825D01*
X858387Y908257D01*
X859583Y909453D01*
X860230Y911015D01*
Y912705D01*
X859583Y914267D01*
X858387Y915463D01*
X856825Y916110D01*
D02*
G37*
G36*
X1218775Y903410D02*
X1217085D01*
X1215523Y902763D01*
X1214327Y901567D01*
X1214271Y901433D01*
X1213026Y901185D01*
X1212717Y901493D01*
X1211155Y902140D01*
X1209465D01*
X1207903Y901493D01*
X1206707Y900297D01*
X1206552Y899924D01*
X1205178D01*
X1205023Y900297D01*
X1203827Y901493D01*
X1202265Y902140D01*
X1200575D01*
X1199013Y901493D01*
X1197817Y900297D01*
X1197170Y898735D01*
Y897045D01*
X1197817Y895483D01*
X1199013Y894287D01*
X1200575Y893640D01*
X1202265D01*
X1203827Y894287D01*
X1205023Y895483D01*
X1205178Y895856D01*
X1206552D01*
X1206707Y895483D01*
X1207903Y894287D01*
X1209465Y893640D01*
X1211155D01*
X1212717Y894287D01*
X1213913Y895483D01*
X1213969Y895617D01*
X1215214Y895865D01*
X1215523Y895557D01*
X1217085Y894910D01*
X1218775D01*
X1220337Y895557D01*
X1221533Y896753D01*
X1222180Y898315D01*
Y900005D01*
X1221533Y901567D01*
X1220337Y902763D01*
X1218775Y903410D01*
D02*
G37*
G36*
X1070384Y908220D02*
X1068296D01*
X1066366Y907421D01*
X1064889Y905944D01*
X1064090Y904014D01*
Y901926D01*
X1064889Y899996D01*
X1066366Y898519D01*
X1068296Y897720D01*
X1070384D01*
X1072314Y898519D01*
X1073791Y899996D01*
X1074590Y901926D01*
Y904014D01*
X1073791Y905944D01*
X1072314Y907421D01*
X1070384Y908220D01*
D02*
G37*
G36*
X1002875Y949130D02*
X1001185D01*
X999623Y948483D01*
X998427Y947287D01*
X997780Y945725D01*
Y944035D01*
X998427Y942473D01*
X999623Y941277D01*
X999996Y941122D01*
Y939748D01*
X999623Y939593D01*
X998427Y938397D01*
X997780Y936835D01*
Y935145D01*
X998427Y933583D01*
X999000Y933010D01*
X999498Y932180D01*
X999000Y931350D01*
X998427Y930777D01*
X997780Y929215D01*
Y927525D01*
X998427Y925963D01*
X999623Y924767D01*
X999996Y924612D01*
Y923238D01*
X999623Y923083D01*
X998427Y921887D01*
X997780Y920325D01*
Y918635D01*
X998427Y917073D01*
X999623Y915877D01*
X999996Y915722D01*
Y914348D01*
X999623Y914193D01*
X998427Y912997D01*
X997780Y911435D01*
Y909745D01*
X998427Y908183D01*
X999623Y906987D01*
X1001185Y906340D01*
X1001540D01*
X1001646Y906164D01*
X1001930Y905070D01*
X1000967Y904107D01*
X1000320Y902545D01*
Y900855D01*
X1000967Y899293D01*
X1002163Y898097D01*
X1003725Y897450D01*
X1005415D01*
X1006977Y898097D01*
X1008173Y899293D01*
X1008820Y900855D01*
Y902545D01*
X1008173Y904107D01*
X1006977Y905303D01*
X1005415Y905950D01*
X1005060D01*
X1004954Y906126D01*
X1004670Y907220D01*
X1005633Y908183D01*
X1006280Y909745D01*
Y911435D01*
X1005633Y912997D01*
X1004437Y914193D01*
X1004064Y914348D01*
Y915722D01*
X1004437Y915877D01*
X1005633Y917073D01*
X1006280Y918635D01*
Y920325D01*
X1005633Y921887D01*
X1004437Y923083D01*
X1004064Y923238D01*
Y924612D01*
X1004437Y924767D01*
X1005633Y925963D01*
X1006280Y927525D01*
Y929215D01*
X1005633Y930777D01*
X1005060Y931350D01*
X1004562Y932180D01*
X1005060Y933010D01*
X1005633Y933583D01*
X1006280Y935145D01*
Y936835D01*
X1005633Y938397D01*
X1004437Y939593D01*
X1004064Y939748D01*
Y941122D01*
X1004437Y941277D01*
X1005633Y942473D01*
X1006280Y944035D01*
Y945725D01*
X1005633Y947287D01*
X1004437Y948483D01*
X1002875Y949130D01*
D02*
G37*
G36*
X819945Y903410D02*
X818255D01*
X816693Y902763D01*
X815497Y901567D01*
X814850Y900005D01*
Y898315D01*
X815497Y896753D01*
X816693Y895557D01*
X818255Y894910D01*
X819945D01*
X821507Y895557D01*
X822703Y896753D01*
X823350Y898315D01*
Y900005D01*
X822703Y901567D01*
X821507Y902763D01*
X819945Y903410D01*
D02*
G37*
G36*
X1362484Y895520D02*
X1360396D01*
X1358466Y894721D01*
X1356989Y893244D01*
X1356190Y891314D01*
Y889226D01*
X1356989Y887296D01*
X1358466Y885819D01*
X1360396Y885020D01*
X1362484D01*
X1364414Y885819D01*
X1365891Y887296D01*
X1366690Y889226D01*
Y891314D01*
X1365891Y893244D01*
X1364414Y894721D01*
X1362484Y895520D01*
D02*
G37*
G36*
X931954Y894250D02*
X929866D01*
X927936Y893451D01*
X926459Y891974D01*
X925660Y890044D01*
Y887956D01*
X926459Y886026D01*
X927936Y884549D01*
X929866Y883750D01*
X931954D01*
X933884Y884549D01*
X935361Y886026D01*
X936160Y887956D01*
Y890044D01*
X935361Y891974D01*
X933884Y893451D01*
X931954Y894250D01*
D02*
G37*
G36*
X1011765Y898330D02*
X1010075D01*
X1008513Y897683D01*
X1007317Y896487D01*
X1006670Y894925D01*
Y893235D01*
X1007317Y891673D01*
X1008513Y890477D01*
X1010075Y889830D01*
X1010895D01*
X1011750Y888575D01*
Y886885D01*
X1012397Y885323D01*
X1013593Y884127D01*
X1015155Y883480D01*
X1016845D01*
X1018407Y884127D01*
X1019603Y885323D01*
X1020250Y886885D01*
Y888575D01*
X1019603Y890137D01*
X1018407Y891333D01*
X1016845Y891980D01*
X1016025D01*
X1015170Y893235D01*
Y894925D01*
X1014523Y896487D01*
X1013327Y897683D01*
X1011765Y898330D01*
D02*
G37*
G36*
X1018115Y914840D02*
X1016425D01*
X1014863Y914193D01*
X1013667Y912997D01*
X1013020Y911435D01*
Y909745D01*
X1013667Y908183D01*
X1014863Y906987D01*
X1016425Y906340D01*
X1016809D01*
X1017792Y905394D01*
X1017792Y905167D01*
Y903703D01*
X1018439Y902141D01*
X1019634Y900945D01*
X1021197Y900298D01*
X1022007D01*
X1022946Y900064D01*
X1023180Y899125D01*
Y898315D01*
X1023827Y896753D01*
X1025023Y895557D01*
X1026585Y894910D01*
X1028275D01*
X1029222Y893963D01*
Y892273D01*
X1029869Y890711D01*
X1031064Y889515D01*
X1032626Y888868D01*
X1034317D01*
X1034707Y889029D01*
X1034997Y888917D01*
X1035880Y888141D01*
Y886885D01*
X1036527Y885323D01*
X1037723Y884127D01*
X1039285Y883480D01*
X1040975D01*
X1042537Y884127D01*
X1042846Y884435D01*
X1044091Y884187D01*
X1044147Y884053D01*
X1045343Y882857D01*
X1046905Y882210D01*
X1048595D01*
X1050157Y882857D01*
X1050730Y883430D01*
X1051560Y883928D01*
X1052390Y883430D01*
X1052963Y882857D01*
X1054525Y882210D01*
X1056215D01*
X1057777Y882857D01*
X1058973Y884053D01*
X1059620Y885615D01*
Y887305D01*
X1058973Y888867D01*
X1057777Y890063D01*
X1056215Y890710D01*
X1054525D01*
X1052963Y890063D01*
X1052390Y889490D01*
X1051560Y888992D01*
X1050730Y889490D01*
X1050157Y890063D01*
X1048595Y890710D01*
X1046905D01*
X1045343Y890063D01*
X1045034Y889755D01*
X1043789Y890003D01*
X1043733Y890137D01*
X1042537Y891333D01*
X1040975Y891980D01*
X1039285D01*
X1038895Y891819D01*
X1038605Y891931D01*
X1037722Y892707D01*
Y893963D01*
X1037075Y895526D01*
X1035879Y896721D01*
X1034317Y897368D01*
X1032626D01*
X1031680Y898315D01*
Y900005D01*
X1031033Y901567D01*
X1029837Y902763D01*
X1028275Y903410D01*
X1027465D01*
X1026526Y903644D01*
X1026292Y904583D01*
Y905394D01*
X1025645Y906956D01*
X1024449Y908151D01*
X1022887Y908798D01*
X1022503D01*
X1021520Y909745D01*
X1021520Y909971D01*
Y911435D01*
X1020873Y912997D01*
X1019677Y914193D01*
X1018115Y914840D01*
D02*
G37*
G36*
X864445Y890710D02*
X862755D01*
X861193Y890063D01*
X859997Y888867D01*
X859350Y887305D01*
Y885615D01*
X859997Y884053D01*
X861193Y882857D01*
X862755Y882210D01*
X864445D01*
X866007Y882857D01*
X867203Y884053D01*
X867850Y885615D01*
Y887305D01*
X867203Y888867D01*
X866007Y890063D01*
X864445Y890710D01*
D02*
G37*
G36*
X545874Y880280D02*
X543786D01*
X541856Y879481D01*
X540379Y878004D01*
X539580Y876074D01*
Y873986D01*
X540379Y872056D01*
X541856Y870579D01*
X543786Y869780D01*
X545874D01*
X547804Y870579D01*
X549281Y872056D01*
X550080Y873986D01*
Y876074D01*
X549281Y878004D01*
X547804Y879481D01*
X545874Y880280D01*
D02*
G37*
G36*
X856785Y878050D02*
X855095D01*
X853533Y877403D01*
X852337Y876207D01*
X851690Y874645D01*
Y872955D01*
X852337Y871393D01*
X853533Y870197D01*
X855095Y869550D01*
X856785D01*
X858347Y870197D01*
X859543Y871393D01*
X860190Y872955D01*
Y874645D01*
X859543Y876207D01*
X858347Y877403D01*
X856785Y878050D01*
D02*
G37*
G36*
X1024465Y885630D02*
X1022775D01*
X1021213Y884983D01*
X1020017Y883787D01*
X1019370Y882225D01*
Y880535D01*
X1020017Y878973D01*
X1021213Y877777D01*
X1022775Y877130D01*
X1024465D01*
X1024948Y877330D01*
X1025920Y876358D01*
X1025720Y875875D01*
Y874185D01*
X1026367Y872623D01*
X1027563Y871427D01*
X1029125Y870780D01*
X1030815D01*
X1032377Y871427D01*
X1033340Y872390D01*
X1034434Y872106D01*
X1034610Y872000D01*
Y871645D01*
X1035257Y870083D01*
X1036453Y868887D01*
X1038015Y868240D01*
X1039705D01*
X1041267Y868887D01*
X1042463Y870083D01*
X1042618Y870456D01*
X1043992D01*
X1044147Y870083D01*
X1045343Y868887D01*
X1046905Y868240D01*
X1048595D01*
X1050157Y868887D01*
X1050730Y869460D01*
X1051560Y869958D01*
X1052390Y869460D01*
X1052963Y868887D01*
X1054525Y868240D01*
X1056215D01*
X1057777Y868887D01*
X1058973Y870083D01*
X1059620Y871645D01*
Y873335D01*
X1058973Y874897D01*
X1057777Y876093D01*
X1056215Y876740D01*
X1054525D01*
X1052963Y876093D01*
X1052390Y875520D01*
X1051560Y875022D01*
X1050730Y875520D01*
X1050157Y876093D01*
X1048595Y876740D01*
X1046905D01*
X1045343Y876093D01*
X1044147Y874897D01*
X1043992Y874524D01*
X1042618D01*
X1042463Y874897D01*
X1041267Y876093D01*
X1039705Y876740D01*
X1038015D01*
X1036453Y876093D01*
X1035490Y875130D01*
X1034396Y875414D01*
X1034220Y875520D01*
Y875875D01*
X1033573Y877437D01*
X1032377Y878633D01*
X1030815Y879280D01*
X1029125D01*
X1028642Y879080D01*
X1027670Y880052D01*
X1027870Y880535D01*
Y882225D01*
X1027223Y883787D01*
X1026027Y884983D01*
X1024465Y885630D01*
D02*
G37*
G36*
X1146584Y875200D02*
X1144496D01*
X1142566Y874401D01*
X1141089Y872924D01*
X1140290Y870994D01*
Y868906D01*
X1141089Y866976D01*
X1142566Y865499D01*
X1144496Y864700D01*
X1146584D01*
X1148514Y865499D01*
X1149991Y866976D01*
X1150790Y868906D01*
Y870994D01*
X1149991Y872924D01*
X1148514Y874401D01*
X1146584Y875200D01*
D02*
G37*
G36*
X822535Y865310D02*
X820845D01*
X819283Y864663D01*
X818087Y863467D01*
X817440Y861905D01*
Y860215D01*
X818087Y858653D01*
X819283Y857457D01*
X820845Y856810D01*
X822535D01*
X824097Y857457D01*
X825293Y858653D01*
X825940Y860215D01*
Y861905D01*
X825293Y863467D01*
X824097Y864663D01*
X822535Y865310D01*
D02*
G37*
G36*
X608104Y863770D02*
X606016D01*
X604086Y862971D01*
X602609Y861494D01*
X601810Y859564D01*
Y857476D01*
X602609Y855546D01*
X604086Y854069D01*
X606016Y853270D01*
X608104D01*
X610034Y854069D01*
X611511Y855546D01*
X612310Y857476D01*
Y859564D01*
X611511Y861494D01*
X610034Y862971D01*
X608104Y863770D01*
D02*
G37*
G36*
X1300435Y854250D02*
X1298745D01*
X1297183Y853603D01*
X1295987Y852407D01*
X1295340Y850845D01*
Y849155D01*
X1295987Y847593D01*
X1297183Y846397D01*
X1298745Y845750D01*
X1300435D01*
X1301997Y846397D01*
X1303193Y847593D01*
X1303840Y849155D01*
Y850845D01*
X1303193Y852407D01*
X1301997Y853603D01*
X1300435Y854250D01*
D02*
G37*
G36*
X512854Y851070D02*
X510766D01*
X508836Y850271D01*
X507359Y848794D01*
X506560Y846864D01*
Y844776D01*
X507359Y842846D01*
X508836Y841369D01*
X510766Y840570D01*
X512854D01*
X514784Y841369D01*
X516261Y842846D01*
X517060Y844776D01*
Y846864D01*
X516261Y848794D01*
X514784Y850271D01*
X512854Y851070D01*
D02*
G37*
G36*
X549664Y845990D02*
X547576D01*
X545646Y845191D01*
X544169Y843714D01*
X543370Y841784D01*
Y839696D01*
X544169Y837766D01*
X545646Y836289D01*
X547576Y835490D01*
X549664D01*
X551594Y836289D01*
X553071Y837766D01*
X553870Y839696D01*
Y841784D01*
X553071Y843714D01*
X551594Y845191D01*
X549664Y845990D01*
D02*
G37*
G36*
X855555Y839910D02*
X853865D01*
X852303Y839263D01*
X851107Y838067D01*
X850460Y836505D01*
Y834815D01*
X851107Y833253D01*
X852303Y832057D01*
X853865Y831410D01*
X855555D01*
X857117Y832057D01*
X858313Y833253D01*
X858960Y834815D01*
Y836505D01*
X858313Y838067D01*
X857117Y839263D01*
X855555Y839910D01*
D02*
G37*
G36*
X413024Y840910D02*
X410936D01*
X409006Y840111D01*
X407529Y838634D01*
X406730Y836704D01*
Y834616D01*
X407529Y832686D01*
X409006Y831209D01*
X410936Y830410D01*
X413024D01*
X414954Y831209D01*
X416431Y832686D01*
X417230Y834616D01*
Y836704D01*
X416431Y838634D01*
X414954Y840111D01*
X413024Y840910D01*
D02*
G37*
G36*
X75388Y850054D02*
X71932D01*
X68594Y849160D01*
X65601Y847432D01*
X63158Y844989D01*
X61430Y841996D01*
X60535Y838658D01*
Y835202D01*
X61430Y831864D01*
X61836Y831160D01*
X60827Y830373D01*
X59265Y831020D01*
X57575D01*
X56013Y830373D01*
X54817Y829177D01*
X54170Y827615D01*
Y825925D01*
X54817Y824363D01*
X56013Y823167D01*
X57575Y822520D01*
X59265D01*
X60827Y823167D01*
X62023Y824363D01*
X62670Y825925D01*
Y827563D01*
X62817Y827699D01*
X63784Y828245D01*
X65601Y826428D01*
X68594Y824700D01*
X71932Y823805D01*
X75388D01*
X78726Y824700D01*
X81719Y826428D01*
X84162Y828871D01*
X85890Y831864D01*
X86784Y835202D01*
Y838658D01*
X85890Y841996D01*
X84162Y844989D01*
X81719Y847432D01*
X78726Y849160D01*
X75388Y850054D01*
D02*
G37*
G36*
X43638D02*
X40182D01*
X36844Y849160D01*
X33851Y847432D01*
X31408Y844989D01*
X29680Y841996D01*
X28786Y838658D01*
Y835202D01*
X29680Y831864D01*
X31408Y828871D01*
X33851Y826428D01*
X36844Y824700D01*
X40182Y823805D01*
X43638D01*
X46976Y824700D01*
X49969Y826428D01*
X52412Y828871D01*
X54140Y831864D01*
X55034Y835202D01*
Y838658D01*
X54140Y841996D01*
X52412Y844989D01*
X49969Y847432D01*
X46976Y849160D01*
X43638Y850054D01*
D02*
G37*
G36*
X747804Y825670D02*
X745716D01*
X743786Y824871D01*
X742309Y823394D01*
X741732Y822001D01*
X740358D01*
X739781Y823394D01*
X738304Y824871D01*
X736374Y825670D01*
X734286D01*
X732356Y824871D01*
X730879Y823394D01*
X730302Y822001D01*
X728928D01*
X728351Y823394D01*
X726874Y824871D01*
X724944Y825670D01*
X722856D01*
X720926Y824871D01*
X719449Y823394D01*
X718650Y821464D01*
Y819376D01*
X719449Y817446D01*
X720844Y816051D01*
X720888Y815340D01*
X720844Y814629D01*
X719449Y813234D01*
X718650Y811304D01*
Y809216D01*
X719449Y807286D01*
X720926Y805809D01*
X722856Y805010D01*
X724944D01*
X726874Y805809D01*
X728351Y807286D01*
X728928Y808679D01*
X730302D01*
X730879Y807286D01*
X732356Y805809D01*
X734286Y805010D01*
X736374D01*
X738304Y805809D01*
X739781Y807286D01*
X740358Y808679D01*
X741732D01*
X742309Y807286D01*
X743786Y805809D01*
X745716Y805010D01*
X747804D01*
X749734Y805809D01*
X751211Y807286D01*
X752010Y809216D01*
Y811304D01*
X751211Y813234D01*
X749816Y814629D01*
X749772Y815340D01*
X749816Y816051D01*
X751211Y817446D01*
X752010Y819376D01*
Y821464D01*
X751211Y823394D01*
X749734Y824871D01*
X747804Y825670D01*
D02*
G37*
G36*
X855555Y827210D02*
X853865D01*
X852303Y826563D01*
X851107Y825367D01*
X850460Y823805D01*
Y822115D01*
X851107Y820553D01*
X852303Y819357D01*
X853865Y818710D01*
X855555D01*
X857117Y819357D01*
X858313Y820553D01*
X858960Y822115D01*
Y823805D01*
X858313Y825367D01*
X857117Y826563D01*
X855555Y827210D01*
D02*
G37*
G36*
X93944Y827893D02*
X91476D01*
X89196Y826949D01*
X87451Y825204D01*
X86507Y822924D01*
Y820456D01*
X87451Y818176D01*
X89196Y816431D01*
X91476Y815487D01*
X93944D01*
X96224Y816431D01*
X97969Y818176D01*
X98913Y820456D01*
Y822924D01*
X97969Y825204D01*
X96224Y826949D01*
X93944Y827893D01*
D02*
G37*
G36*
X549664Y823130D02*
X547576D01*
X545646Y822331D01*
X544169Y820854D01*
X543370Y818924D01*
Y816836D01*
X544169Y814906D01*
X545646Y813429D01*
X547576Y812630D01*
X549664D01*
X551594Y813429D01*
X553071Y814906D01*
X553870Y816836D01*
Y818924D01*
X553071Y820854D01*
X551594Y822331D01*
X549664Y823130D01*
D02*
G37*
G36*
X971090Y820555D02*
X969400D01*
X967838Y819908D01*
X966642Y818712D01*
X965995Y817150D01*
Y815460D01*
X966642Y813898D01*
X967838Y812702D01*
X969400Y812055D01*
X971090D01*
X972652Y812702D01*
X973848Y813898D01*
X974495Y815460D01*
Y817150D01*
X973848Y818712D01*
X972652Y819908D01*
X971090Y820555D01*
D02*
G37*
G36*
X1051334Y820590D02*
X1049246D01*
X1047316Y819791D01*
X1045839Y818314D01*
X1045040Y816384D01*
Y814296D01*
X1045839Y812366D01*
X1047316Y810889D01*
X1049246Y810090D01*
X1051334D01*
X1053264Y810889D01*
X1054741Y812366D01*
X1055540Y814296D01*
Y816384D01*
X1054741Y818314D01*
X1053264Y819791D01*
X1051334Y820590D01*
D02*
G37*
G36*
X1241635Y814510D02*
X1239945D01*
X1238383Y813863D01*
X1237187Y812667D01*
X1236540Y811105D01*
Y809415D01*
X1237187Y807853D01*
X1238383Y806657D01*
X1239945Y806010D01*
X1241635D01*
X1243197Y806657D01*
X1244393Y807853D01*
X1245040Y809415D01*
Y811105D01*
X1244393Y812667D01*
X1243197Y813863D01*
X1241635Y814510D01*
D02*
G37*
G36*
X43144Y817733D02*
X40676D01*
X38396Y816789D01*
X36651Y815044D01*
X35707Y812764D01*
Y810296D01*
X36651Y808016D01*
X38396Y806271D01*
X40676Y805327D01*
X43144D01*
X45424Y806271D01*
X47169Y808016D01*
X48113Y810296D01*
Y812764D01*
X47169Y815044D01*
X45424Y816789D01*
X43144Y817733D01*
D02*
G37*
G36*
X280444Y815510D02*
X278356D01*
X276426Y814711D01*
X274949Y813234D01*
X274150Y811304D01*
Y809216D01*
X274949Y807286D01*
X276426Y805809D01*
X278356Y805010D01*
X280444D01*
X282374Y805809D01*
X283851Y807286D01*
X284650Y809216D01*
Y811304D01*
X283851Y813234D01*
X282374Y814711D01*
X280444Y815510D01*
D02*
G37*
G36*
X362795Y810700D02*
X361105D01*
X359543Y810053D01*
X358347Y808857D01*
X357700Y807295D01*
Y805605D01*
X358347Y804043D01*
X359543Y802847D01*
X361105Y802200D01*
X362795D01*
X364357Y802847D01*
X365553Y804043D01*
X366200Y805605D01*
Y807295D01*
X365553Y808857D01*
X364357Y810053D01*
X362795Y810700D01*
D02*
G37*
G36*
X971090Y809555D02*
X969400D01*
X967838Y808908D01*
X966642Y807712D01*
X965995Y806150D01*
Y804460D01*
X966642Y802898D01*
X967838Y801702D01*
X969400Y801055D01*
X971090D01*
X972652Y801702D01*
X973848Y802898D01*
X974495Y804460D01*
Y806150D01*
X973848Y807712D01*
X972652Y808908D01*
X971090Y809555D01*
D02*
G37*
G36*
X27515Y805620D02*
X25825D01*
X24263Y804973D01*
X23067Y803777D01*
X22420Y802215D01*
Y800525D01*
X23067Y798963D01*
X24263Y797767D01*
X25825Y797120D01*
X27515D01*
X29077Y797767D01*
X30273Y798963D01*
X30920Y800525D01*
Y802215D01*
X30273Y803777D01*
X29077Y804973D01*
X27515Y805620D01*
D02*
G37*
G36*
X93944Y807573D02*
X91476D01*
X89196Y806629D01*
X87451Y804884D01*
X86507Y802604D01*
Y800136D01*
X87451Y797856D01*
X89196Y796111D01*
X91476Y795167D01*
X93944D01*
X96224Y796111D01*
X97969Y797856D01*
X98913Y800136D01*
Y802604D01*
X97969Y804884D01*
X96224Y806629D01*
X93944Y807573D01*
D02*
G37*
G36*
X57995Y799270D02*
X56305D01*
X54743Y798623D01*
X53547Y797427D01*
X52900Y795865D01*
Y795497D01*
X51630Y794971D01*
X49969Y796632D01*
X46976Y798360D01*
X43638Y799255D01*
X40182D01*
X36844Y798360D01*
X33851Y796632D01*
X31408Y794189D01*
X29680Y791196D01*
X28786Y787858D01*
Y784402D01*
X29680Y781064D01*
X31408Y778071D01*
X33851Y775628D01*
X36844Y773900D01*
X40182Y773006D01*
X43638D01*
X46976Y773900D01*
X49969Y775628D01*
X52412Y778071D01*
X54140Y781064D01*
X55034Y784402D01*
Y787858D01*
X54413Y790179D01*
X55477Y791113D01*
X56305Y790770D01*
X57995D01*
X59557Y791417D01*
X60753Y792613D01*
X61400Y794175D01*
Y795865D01*
X60753Y797427D01*
X59557Y798623D01*
X57995Y799270D01*
D02*
G37*
G36*
X855555Y801810D02*
X853865D01*
X852303Y801163D01*
X851107Y799967D01*
X850460Y798405D01*
Y796715D01*
X851107Y795153D01*
X852303Y793957D01*
X853865Y793310D01*
X855555D01*
X857117Y793957D01*
X858313Y795153D01*
X858960Y796715D01*
Y798405D01*
X858313Y799967D01*
X857117Y801163D01*
X855555Y801810D01*
D02*
G37*
G36*
X1430626Y808050D02*
X1428574D01*
X1426593Y807519D01*
X1424817Y806494D01*
X1423367Y805043D01*
X1422341Y803267D01*
X1421810Y801286D01*
Y799234D01*
X1422341Y797253D01*
X1423367Y795477D01*
X1424817Y794026D01*
X1426593Y793001D01*
X1428574Y792470D01*
X1430626D01*
X1432607Y793001D01*
X1434383Y794026D01*
X1435834Y795477D01*
X1436859Y797253D01*
X1437390Y799234D01*
Y801286D01*
X1436859Y803267D01*
X1435834Y805043D01*
X1434383Y806494D01*
X1432607Y807519D01*
X1430626Y808050D01*
D02*
G37*
G36*
X315805Y800540D02*
X314115D01*
X312553Y799893D01*
X311357Y798697D01*
X310710Y797135D01*
Y795445D01*
X311357Y793883D01*
X312553Y792687D01*
X314115Y792040D01*
X315805D01*
X317367Y792687D01*
X318563Y793883D01*
X319210Y795445D01*
Y797135D01*
X318563Y798697D01*
X317367Y799893D01*
X315805Y800540D01*
D02*
G37*
G36*
X355239Y799334D02*
X353548D01*
X351986Y798687D01*
X350791Y797491D01*
X350144Y795929D01*
Y794238D01*
X350791Y792676D01*
X351986Y791481D01*
X353548Y790834D01*
X355239D01*
X356801Y791481D01*
X357997Y792676D01*
X358644Y794238D01*
Y795929D01*
X357997Y797491D01*
X356801Y798687D01*
X355239Y799334D01*
D02*
G37*
G36*
X968015Y798250D02*
X966325D01*
X964763Y797603D01*
X963567Y796407D01*
X962920Y794845D01*
Y793155D01*
X963567Y791593D01*
X964763Y790397D01*
X966325Y789750D01*
X968015D01*
X969577Y790397D01*
X970773Y791593D01*
X971420Y793155D01*
Y794845D01*
X970773Y796407D01*
X969577Y797603D01*
X968015Y798250D01*
D02*
G37*
G36*
X1099594Y799000D02*
X1097506D01*
X1095576Y798201D01*
X1094099Y796724D01*
X1093300Y794794D01*
Y792706D01*
X1094099Y790776D01*
X1095576Y789299D01*
X1097506Y788500D01*
X1099594D01*
X1101524Y789299D01*
X1103001Y790776D01*
X1103800Y792706D01*
Y794794D01*
X1103001Y796724D01*
X1101524Y798201D01*
X1099594Y799000D01*
D02*
G37*
G36*
X129314Y797730D02*
X127226D01*
X125296Y796931D01*
X123819Y795454D01*
X123020Y793524D01*
Y791436D01*
X123819Y789506D01*
X125296Y788029D01*
X127226Y787230D01*
X129314D01*
X131244Y788029D01*
X132721Y789506D01*
X133520Y791436D01*
Y793524D01*
X132721Y795454D01*
X131244Y796931D01*
X129314Y797730D01*
D02*
G37*
G36*
X1300435Y794250D02*
X1298745D01*
X1297183Y793603D01*
X1295987Y792408D01*
X1295340Y790845D01*
Y789155D01*
X1295987Y787593D01*
X1297183Y786397D01*
X1298745Y785750D01*
X1300435D01*
X1301997Y786397D01*
X1303193Y787593D01*
X1303840Y789155D01*
Y790845D01*
X1303193Y792408D01*
X1301997Y793603D01*
X1300435Y794250D01*
D02*
G37*
G36*
X1207345Y794190D02*
X1205655D01*
X1204093Y793543D01*
X1202897Y792347D01*
X1202250Y790785D01*
Y789095D01*
X1202897Y787533D01*
X1204093Y786337D01*
X1205655Y785690D01*
X1207345D01*
X1208907Y786337D01*
X1210103Y787533D01*
X1210750Y789095D01*
Y790785D01*
X1210103Y792347D01*
X1208907Y793543D01*
X1207345Y794190D01*
D02*
G37*
G36*
X855555Y789110D02*
X853865D01*
X852303Y788463D01*
X851107Y787267D01*
X850460Y785705D01*
Y784015D01*
X851107Y782453D01*
X852303Y781257D01*
X853865Y780610D01*
X855555D01*
X857117Y781257D01*
X858313Y782453D01*
X858960Y784015D01*
Y785705D01*
X858313Y787267D01*
X857117Y788463D01*
X855555Y789110D01*
D02*
G37*
G36*
X325965D02*
X324275D01*
X322713Y788463D01*
X321517Y787267D01*
X320870Y785705D01*
Y784015D01*
X321517Y782453D01*
X322713Y781257D01*
X324275Y780610D01*
X325965D01*
X327527Y781257D01*
X328723Y782453D01*
X329370Y784015D01*
Y785705D01*
X328723Y787267D01*
X327527Y788463D01*
X325965Y789110D01*
D02*
G37*
G36*
X431375Y787840D02*
X429685D01*
X428123Y787193D01*
X426927Y785997D01*
X426280Y784435D01*
Y782745D01*
X426927Y781183D01*
X428123Y779987D01*
X429685Y779340D01*
X431375D01*
X432937Y779987D01*
X434133Y781183D01*
X434780Y782745D01*
Y784435D01*
X434133Y785997D01*
X432937Y787193D01*
X431375Y787840D01*
D02*
G37*
G36*
X968015Y787250D02*
X966325D01*
X964763Y786603D01*
X963567Y785407D01*
X962920Y783845D01*
Y782155D01*
X963567Y780593D01*
X964763Y779397D01*
X966325Y778750D01*
X968015D01*
X969577Y779397D01*
X970773Y780593D01*
X971420Y782155D01*
Y783845D01*
X970773Y785407D01*
X969577Y786603D01*
X968015Y787250D01*
D02*
G37*
G36*
X75388Y799255D02*
X71932D01*
X68594Y798360D01*
X65601Y796632D01*
X63158Y794189D01*
X61430Y791196D01*
X60535Y787858D01*
Y784402D01*
X61430Y781064D01*
X63158Y778071D01*
X65601Y775628D01*
X68594Y773900D01*
X71932Y773006D01*
X75388D01*
X78726Y773900D01*
X81719Y775628D01*
X84162Y778071D01*
X85890Y781064D01*
X86784Y784402D01*
Y787858D01*
X85890Y791196D01*
X84162Y794189D01*
X81719Y796632D01*
X78726Y798360D01*
X75388Y799255D01*
D02*
G37*
G36*
X1300055Y773870D02*
X1298365D01*
X1296803Y773223D01*
X1295607Y772027D01*
X1294960Y770465D01*
Y768775D01*
X1295607Y767213D01*
X1296803Y766017D01*
X1298365Y765370D01*
X1300055D01*
X1301617Y766017D01*
X1302813Y767213D01*
X1303460Y768775D01*
Y770465D01*
X1302813Y772027D01*
X1301617Y773223D01*
X1300055Y773870D01*
D02*
G37*
G36*
X1136424Y774870D02*
X1134336D01*
X1132406Y774071D01*
X1130929Y772594D01*
X1130130Y770664D01*
Y768576D01*
X1130929Y766646D01*
X1132406Y765169D01*
X1134336Y764370D01*
X1136424D01*
X1138354Y765169D01*
X1139831Y766646D01*
X1140630Y768576D01*
Y770664D01*
X1139831Y772594D01*
X1138354Y774071D01*
X1136424Y774870D01*
D02*
G37*
G36*
X330200Y812829D02*
X308610D01*
X307627Y812634D01*
X306793Y812077D01*
X302983Y808267D01*
X302426Y807433D01*
X302231Y806450D01*
Y799694D01*
X302178Y799575D01*
X302170Y799310D01*
X302152Y799102D01*
X302125Y798917D01*
X302088Y798754D01*
X302044Y798611D01*
X301995Y798487D01*
X301942Y798380D01*
X301884Y798287D01*
X301821Y798204D01*
X301707Y798082D01*
X301623Y797853D01*
X301197Y797427D01*
X300550Y795865D01*
Y794175D01*
X301197Y792613D01*
X302393Y791417D01*
X303955Y790770D01*
X305645D01*
X307207Y791417D01*
X308403Y792613D01*
X309050Y794175D01*
Y795865D01*
X308403Y797427D01*
X307977Y797853D01*
X307892Y798082D01*
X307779Y798204D01*
X307716Y798287D01*
X307658Y798380D01*
X307605Y798487D01*
X307556Y798611D01*
X307512Y798754D01*
X307475Y798917D01*
X307448Y799102D01*
X307430Y799310D01*
X307423Y799575D01*
X307369Y799694D01*
Y805386D01*
X309674Y807691D01*
X329136D01*
X332711Y804116D01*
Y760981D01*
X331441Y760856D01*
X331304Y761543D01*
X330747Y762377D01*
X330747Y762377D01*
X313656Y779468D01*
X313613Y779585D01*
X313406Y779810D01*
X313257Y780002D01*
X313127Y780205D01*
X313014Y780420D01*
X312918Y780650D01*
X312837Y780898D01*
X312774Y781165D01*
X312728Y781453D01*
X312701Y781763D01*
X312693Y782139D01*
X312590Y782372D01*
Y783194D01*
X311791Y785124D01*
X310314Y786601D01*
X308384Y787400D01*
X306296D01*
X304366Y786601D01*
X302889Y785124D01*
X302090Y783194D01*
Y781106D01*
X302889Y779176D01*
X304366Y777699D01*
X306296Y776900D01*
X307118D01*
X307351Y776797D01*
X307726Y776789D01*
X308037Y776762D01*
X308325Y776716D01*
X308592Y776653D01*
X308840Y776572D01*
X309070Y776476D01*
X309285Y776363D01*
X309487Y776233D01*
X309680Y776084D01*
X309905Y775877D01*
X310022Y775834D01*
X326361Y759496D01*
Y622660D01*
X325091Y622134D01*
X324284Y622941D01*
X322354Y623740D01*
X320266D01*
X318336Y622941D01*
X316859Y621464D01*
X316060Y619534D01*
Y617446D01*
X316859Y615516D01*
X318336Y614039D01*
X320266Y613240D01*
X322354D01*
X324284Y614039D01*
X325253Y615008D01*
X325713Y614994D01*
X326709Y614739D01*
X327113Y614133D01*
X329653Y611593D01*
X330487Y611036D01*
X331470Y610841D01*
X372097D01*
X372210Y610788D01*
X372516Y610775D01*
X372757Y610744D01*
X372993Y610693D01*
X373224Y610621D01*
X373456Y610526D01*
X373687Y610408D01*
X373921Y610265D01*
X374157Y610093D01*
X374396Y609893D01*
X374667Y609633D01*
X374905Y609541D01*
X375486Y608959D01*
X377416Y608160D01*
X379504D01*
X381434Y608959D01*
X382911Y610436D01*
X383710Y612366D01*
Y614454D01*
X382911Y616384D01*
X381434Y617861D01*
X379504Y618660D01*
X377416D01*
X375486Y617861D01*
X374905Y617279D01*
X374667Y617187D01*
X374396Y616927D01*
X374157Y616727D01*
X373921Y616556D01*
X373687Y616412D01*
X373456Y616294D01*
X373225Y616199D01*
X372993Y616127D01*
X372757Y616076D01*
X372516Y616045D01*
X372210Y616032D01*
X372097Y615979D01*
X332534D01*
X331499Y617014D01*
Y618274D01*
X332769Y618800D01*
X332873Y618697D01*
X334435Y618050D01*
X336125D01*
X337687Y618697D01*
X338883Y619893D01*
X339530Y621455D01*
Y623145D01*
X338883Y624707D01*
X338457Y625133D01*
X338372Y625362D01*
X338259Y625484D01*
X338196Y625567D01*
X338138Y625660D01*
X338085Y625767D01*
X338036Y625891D01*
X337992Y626034D01*
X337956Y626197D01*
X337928Y626382D01*
X337910Y626590D01*
X337902Y626855D01*
X337849Y626974D01*
Y805180D01*
X337654Y806163D01*
X337097Y806997D01*
X332017Y812077D01*
X331183Y812634D01*
X330200Y812829D01*
D02*
G37*
G36*
X794595Y777680D02*
X792905D01*
X791343Y777033D01*
X790147Y775837D01*
X789500Y774275D01*
Y772585D01*
X790147Y771023D01*
X791343Y769827D01*
X791716Y769672D01*
Y768298D01*
X791343Y768143D01*
X790147Y766947D01*
X789500Y765385D01*
Y763695D01*
X790147Y762133D01*
X791343Y760937D01*
X792905Y760290D01*
X794595D01*
X796157Y760937D01*
X797353Y762133D01*
X798000Y763695D01*
Y765385D01*
X797353Y766947D01*
X796157Y768143D01*
X795784Y768298D01*
Y769672D01*
X796157Y769827D01*
X797353Y771023D01*
X798000Y772585D01*
Y774275D01*
X797353Y775837D01*
X796157Y777033D01*
X794595Y777680D01*
D02*
G37*
G36*
Y789110D02*
X792905D01*
X791343Y788463D01*
X790147Y787267D01*
X789500Y785705D01*
Y784015D01*
X790147Y782453D01*
X791343Y781257D01*
X792905Y780610D01*
X794595D01*
X796157Y781257D01*
X796583Y781683D01*
X796812Y781768D01*
X796934Y781881D01*
X797017Y781944D01*
X797110Y782002D01*
X797217Y782055D01*
X797340Y782104D01*
X797484Y782148D01*
X797647Y782185D01*
X797832Y782212D01*
X798040Y782230D01*
X798305Y782237D01*
X798424Y782291D01*
X838406D01*
X855938Y764758D01*
X855985Y764636D01*
X856168Y764443D01*
X856301Y764285D01*
X856413Y764134D01*
X856503Y763992D01*
X856573Y763860D01*
X856625Y763738D01*
X856663Y763625D01*
X856688Y763518D01*
X856702Y763415D01*
X856708Y763249D01*
X856810Y763027D01*
Y762425D01*
X857457Y760863D01*
X858653Y759667D01*
X860215Y759020D01*
X861905D01*
X863467Y759667D01*
X864663Y760863D01*
X865310Y762425D01*
Y764115D01*
X864663Y765677D01*
X863467Y766873D01*
X861905Y767520D01*
X861303D01*
X861082Y767622D01*
X860915Y767628D01*
X860812Y767642D01*
X860705Y767667D01*
X860592Y767705D01*
X860470Y767757D01*
X860338Y767828D01*
X860196Y767917D01*
X860046Y768028D01*
X859886Y768163D01*
X859694Y768345D01*
X859572Y768392D01*
X841287Y786677D01*
X840453Y787234D01*
X839470Y787429D01*
X798424D01*
X798305Y787483D01*
X798040Y787490D01*
X797832Y787508D01*
X797647Y787535D01*
X797484Y787572D01*
X797340Y787616D01*
X797217Y787665D01*
X797110Y787718D01*
X797017Y787776D01*
X796935Y787839D01*
X796812Y787952D01*
X796583Y788037D01*
X796157Y788463D01*
X794595Y789110D01*
D02*
G37*
G36*
X200054Y765980D02*
X197966D01*
X196036Y765181D01*
X194559Y763704D01*
X193760Y761774D01*
Y759686D01*
X194559Y757756D01*
X196036Y756279D01*
X197966Y755480D01*
X200054D01*
X201984Y756279D01*
X203461Y757756D01*
X204260Y759686D01*
Y761774D01*
X203461Y763704D01*
X201984Y765181D01*
X200054Y765980D01*
D02*
G37*
G36*
X639655Y761170D02*
X637965D01*
X636403Y760523D01*
X635977Y760097D01*
X635748Y760012D01*
X635626Y759899D01*
X635543Y759836D01*
X635450Y759778D01*
X635343Y759725D01*
X635219Y759676D01*
X635076Y759632D01*
X634913Y759595D01*
X634728Y759568D01*
X634520Y759550D01*
X634255Y759542D01*
X634136Y759489D01*
X544830D01*
X543847Y759294D01*
X543013Y758737D01*
X385016Y600739D01*
X328724D01*
X313719Y615744D01*
Y642799D01*
X313524Y643782D01*
X312967Y644616D01*
X297906Y659677D01*
X297072Y660234D01*
X296089Y660429D01*
X276454D01*
X276335Y660482D01*
X276070Y660490D01*
X275862Y660508D01*
X275677Y660536D01*
X275513Y660572D01*
X275371Y660616D01*
X275247Y660665D01*
X275140Y660718D01*
X275047Y660776D01*
X274965Y660839D01*
X274842Y660952D01*
X274613Y661037D01*
X274187Y661463D01*
X272625Y662110D01*
X270935D01*
X270452Y661910D01*
X269480Y662882D01*
X269680Y663365D01*
Y665055D01*
X269033Y666617D01*
X267837Y667813D01*
X266275Y668460D01*
X264585D01*
X263023Y667813D01*
X261827Y666617D01*
X261180Y665055D01*
Y663365D01*
X261827Y661803D01*
X263023Y660607D01*
X264585Y659960D01*
X266275D01*
X266758Y660160D01*
X267730Y659188D01*
X267530Y658705D01*
Y657015D01*
X268177Y655453D01*
X269373Y654257D01*
X270935Y653610D01*
X271154D01*
X271437Y653283D01*
X271860Y652340D01*
X271340Y651085D01*
Y649395D01*
X271987Y647833D01*
X273183Y646637D01*
X274001Y646298D01*
X274509Y645071D01*
X274450Y644842D01*
X273880Y643465D01*
Y641775D01*
X274527Y640213D01*
X274980Y639760D01*
X275069Y639527D01*
X275183Y639406D01*
X275245Y639326D01*
X275303Y639235D01*
X275356Y639130D01*
X275405Y639009D01*
X275448Y638868D01*
X275485Y638706D01*
X275513Y638522D01*
X275531Y638316D01*
X275538Y638051D01*
X275591Y637932D01*
Y609569D01*
X275787Y608586D01*
X276344Y607752D01*
X318223Y565873D01*
X319057Y565316D01*
X320040Y565121D01*
X415290D01*
X416273Y565316D01*
X417107Y565873D01*
X559864Y708631D01*
X688340D01*
X689323Y708826D01*
X690157Y709383D01*
X704632Y723858D01*
X704754Y723905D01*
X704947Y724088D01*
X705106Y724221D01*
X705256Y724333D01*
X705398Y724423D01*
X705530Y724493D01*
X705651Y724545D01*
X705765Y724583D01*
X705872Y724608D01*
X705975Y724622D01*
X706142Y724628D01*
X706363Y724730D01*
X706965D01*
X708527Y725377D01*
X709723Y726573D01*
X710370Y728135D01*
Y729825D01*
X709723Y731387D01*
X708527Y732583D01*
X706965Y733230D01*
X705275D01*
X703713Y732583D01*
X702517Y731387D01*
X701870Y729825D01*
Y729223D01*
X701768Y729002D01*
X701762Y728835D01*
X701748Y728732D01*
X701723Y728625D01*
X701685Y728512D01*
X701633Y728390D01*
X701562Y728258D01*
X701473Y728116D01*
X701362Y727966D01*
X701227Y727806D01*
X701045Y727614D01*
X700998Y727492D01*
X687276Y713769D01*
X558800D01*
X558800Y713769D01*
X557817Y713574D01*
X556983Y713017D01*
X414226Y570259D01*
X321104D01*
X317936Y573428D01*
X318746Y574414D01*
X319057Y574206D01*
X320040Y574011D01*
X397510D01*
X398493Y574206D01*
X399327Y574763D01*
X446317Y621753D01*
X446874Y622587D01*
X447069Y623570D01*
Y623776D01*
X558594Y735301D01*
X590956D01*
X591075Y735247D01*
X591340Y735240D01*
X591548Y735222D01*
X591733Y735194D01*
X591897Y735158D01*
X592039Y735114D01*
X592163Y735065D01*
X592270Y735012D01*
X592363Y734954D01*
X592445Y734891D01*
X592568Y734778D01*
X592797Y734693D01*
X593223Y734267D01*
X594785Y733620D01*
X596475D01*
X598037Y734267D01*
X599233Y735463D01*
X599880Y737025D01*
Y738715D01*
X599233Y740277D01*
X598037Y741473D01*
X596475Y742120D01*
X594785D01*
X593223Y741473D01*
X592797Y741047D01*
X592568Y740962D01*
X592446Y740849D01*
X592363Y740786D01*
X592270Y740728D01*
X592163Y740675D01*
X592039Y740626D01*
X591897Y740582D01*
X591733Y740546D01*
X591548Y740518D01*
X591340Y740500D01*
X591075Y740492D01*
X590956Y740439D01*
X557530D01*
X556547Y740244D01*
X555713Y739687D01*
X442683Y626657D01*
X442126Y625823D01*
X441931Y624840D01*
Y624634D01*
X396446Y579149D01*
X321104D01*
X288319Y611934D01*
Y627786D01*
X288372Y627905D01*
X288380Y628170D01*
X288398Y628378D01*
X288426Y628563D01*
X288462Y628727D01*
X288506Y628870D01*
X288555Y628993D01*
X288608Y629100D01*
X288666Y629193D01*
X288729Y629276D01*
X288842Y629398D01*
X288927Y629627D01*
X289353Y630053D01*
X290000Y631615D01*
Y633305D01*
X289353Y634867D01*
X288157Y636063D01*
X286595Y636710D01*
X284905D01*
X283343Y636063D01*
X282147Y634867D01*
X282000Y634513D01*
X280730Y634766D01*
Y637961D01*
X280783Y638080D01*
X280790Y638346D01*
X280808Y638554D01*
X280836Y638741D01*
X280872Y638906D01*
X280916Y639051D01*
X280965Y639176D01*
X281019Y639286D01*
X281077Y639381D01*
X281140Y639465D01*
X281253Y639589D01*
X281334Y639813D01*
X281733Y640213D01*
X282380Y641775D01*
Y643465D01*
X281733Y645027D01*
X280537Y646223D01*
X281012Y647401D01*
X281236Y647671D01*
X292306D01*
X297151Y642826D01*
Y610870D01*
X297346Y609887D01*
X297903Y609053D01*
X322033Y584923D01*
X322867Y584366D01*
X323850Y584171D01*
X391160D01*
X392143Y584366D01*
X392977Y584923D01*
X552244Y744191D01*
X656996D01*
X657115Y744137D01*
X657380Y744130D01*
X657588Y744112D01*
X657773Y744084D01*
X657936Y744048D01*
X658080Y744004D01*
X658203Y743955D01*
X658310Y743902D01*
X658403Y743844D01*
X658485Y743781D01*
X658608Y743668D01*
X658837Y743583D01*
X659263Y743157D01*
X660825Y742510D01*
X662515D01*
X664077Y743157D01*
X665273Y744353D01*
X665920Y745915D01*
Y747605D01*
X665273Y749167D01*
X664077Y750363D01*
X662515Y751010D01*
X660825D01*
X659263Y750363D01*
X658837Y749937D01*
X658608Y749852D01*
X658486Y749739D01*
X658403Y749676D01*
X658310Y749618D01*
X658203Y749565D01*
X658080Y749516D01*
X657936Y749472D01*
X657773Y749436D01*
X657588Y749408D01*
X657380Y749390D01*
X657115Y749382D01*
X656996Y749329D01*
X551180D01*
X550197Y749134D01*
X549363Y748577D01*
X549363Y748577D01*
X390096Y589309D01*
X324914D01*
X302289Y611934D01*
Y643890D01*
X302094Y644873D01*
X301537Y645707D01*
X295187Y652057D01*
X294353Y652614D01*
X293370Y652809D01*
X280264D01*
X280145Y652862D01*
X279880Y652870D01*
X279672Y652888D01*
X279487Y652915D01*
X279324Y652952D01*
X279181Y652996D01*
X279057Y653045D01*
X278950Y653098D01*
X278857Y653156D01*
X278775Y653219D01*
X278652Y653332D01*
X278423Y653417D01*
X277997Y653843D01*
X277569Y654021D01*
X277821Y655291D01*
X295024D01*
X308581Y641734D01*
Y614680D01*
X308776Y613697D01*
X309333Y612863D01*
X325843Y596353D01*
X326677Y595796D01*
X327660Y595601D01*
X386080D01*
X387063Y595796D01*
X387897Y596353D01*
X545894Y754351D01*
X634136D01*
X634255Y754297D01*
X634520Y754290D01*
X634728Y754272D01*
X634913Y754245D01*
X635076Y754208D01*
X635219Y754164D01*
X635343Y754115D01*
X635450Y754062D01*
X635543Y754004D01*
X635625Y753941D01*
X635748Y753828D01*
X635977Y753743D01*
X636403Y753317D01*
X637965Y752670D01*
X639655D01*
X641217Y753317D01*
X642413Y754513D01*
X643060Y756075D01*
Y757765D01*
X642413Y759327D01*
X641217Y760523D01*
X639655Y761170D01*
D02*
G37*
G36*
X1305334Y755820D02*
X1303246D01*
X1301316Y755021D01*
X1299839Y753544D01*
X1299040Y751614D01*
Y749526D01*
X1299839Y747596D01*
X1301316Y746119D01*
X1303246Y745320D01*
X1305334D01*
X1307264Y746119D01*
X1308741Y747596D01*
X1309540Y749526D01*
Y751614D01*
X1308741Y753544D01*
X1307264Y755021D01*
X1305334Y755820D01*
D02*
G37*
G36*
X313265Y748470D02*
X311575D01*
X310013Y747823D01*
X308817Y746627D01*
X308170Y745065D01*
Y743375D01*
X308817Y741813D01*
X310013Y740617D01*
X311575Y739970D01*
X313265D01*
X314827Y740617D01*
X316023Y741813D01*
X316670Y743375D01*
Y745065D01*
X316023Y746627D01*
X314827Y747823D01*
X313265Y748470D01*
D02*
G37*
G36*
X158504Y741850D02*
X156416D01*
X154486Y741051D01*
X153009Y739574D01*
X152210Y737644D01*
Y735556D01*
X153009Y733626D01*
X154486Y732149D01*
X156416Y731350D01*
X158504D01*
X160434Y732149D01*
X161911Y733626D01*
X162710Y735556D01*
Y737644D01*
X161911Y739574D01*
X160434Y741051D01*
X158504Y741850D01*
D02*
G37*
G36*
X923064Y736770D02*
X920976D01*
X919046Y735971D01*
X917569Y734494D01*
X916770Y732564D01*
Y730476D01*
X917569Y728546D01*
X919046Y727069D01*
X920976Y726270D01*
X923064D01*
X924994Y727069D01*
X926471Y728546D01*
X927270Y730476D01*
Y732564D01*
X926471Y734494D01*
X924994Y735971D01*
X923064Y736770D01*
D02*
G37*
G36*
X693194Y735500D02*
X691106D01*
X689176Y734701D01*
X687699Y733224D01*
X686900Y731294D01*
Y729206D01*
X687699Y727276D01*
X689176Y725799D01*
X691106Y725000D01*
X693194D01*
X695124Y725799D01*
X696601Y727276D01*
X697400Y729206D01*
Y731294D01*
X696601Y733224D01*
X695124Y734701D01*
X693194Y735500D01*
D02*
G37*
G36*
X571274Y733920D02*
X569186D01*
X567256Y733121D01*
X565779Y731644D01*
X564980Y729714D01*
Y727626D01*
X565779Y725696D01*
X567256Y724219D01*
X569186Y723420D01*
X571274D01*
X573204Y724219D01*
X574681Y725696D01*
X575480Y727626D01*
Y729714D01*
X574681Y731644D01*
X573204Y733121D01*
X571274Y733920D01*
D02*
G37*
G36*
X1259614Y726610D02*
X1257526D01*
X1255596Y725811D01*
X1254119Y724334D01*
X1253320Y722404D01*
Y720316D01*
X1254119Y718386D01*
X1255596Y716909D01*
X1257526Y716110D01*
X1259614D01*
X1261544Y716909D01*
X1263021Y718386D01*
X1263820Y720316D01*
Y722404D01*
X1263021Y724334D01*
X1261544Y725811D01*
X1259614Y726610D01*
D02*
G37*
G36*
X1358674Y725340D02*
X1356586D01*
X1354656Y724541D01*
X1353179Y723064D01*
X1352380Y721134D01*
Y719046D01*
X1353179Y717116D01*
X1354656Y715639D01*
X1356586Y714840D01*
X1358674D01*
X1360604Y715639D01*
X1362081Y717116D01*
X1362880Y719046D01*
Y721134D01*
X1362081Y723064D01*
X1360604Y724541D01*
X1358674Y725340D01*
D02*
G37*
G36*
X158504Y721530D02*
X156416D01*
X154486Y720731D01*
X153009Y719254D01*
X152210Y717324D01*
Y715236D01*
X153009Y713306D01*
X154486Y711829D01*
X156416Y711030D01*
X158504D01*
X160434Y711829D01*
X161911Y713306D01*
X162710Y715236D01*
Y717324D01*
X161911Y719254D01*
X160434Y720731D01*
X158504Y721530D01*
D02*
G37*
G36*
X285325Y717990D02*
X283635D01*
X282073Y717343D01*
X280877Y716147D01*
X280230Y714585D01*
Y712895D01*
X280877Y711333D01*
X282073Y710137D01*
X283635Y709490D01*
X285325D01*
X286706Y710062D01*
X287318Y709764D01*
X287850Y709304D01*
Y707815D01*
X288497Y706253D01*
X289693Y705057D01*
X291255Y704410D01*
X292945D01*
X294507Y705057D01*
X295703Y706253D01*
X296350Y707815D01*
Y709505D01*
X295703Y711067D01*
X294507Y712263D01*
X292945Y712910D01*
X291255D01*
X289874Y712338D01*
X289262Y712636D01*
X288730Y713096D01*
Y714585D01*
X288083Y716147D01*
X286887Y717343D01*
X285325Y717990D01*
D02*
G37*
G36*
X1258734Y714790D02*
X1256646D01*
X1254716Y713991D01*
X1253239Y712514D01*
X1252440Y710584D01*
Y708496D01*
X1253239Y706566D01*
X1254716Y705089D01*
X1256646Y704290D01*
X1258734D01*
X1260664Y705089D01*
X1262141Y706566D01*
X1262940Y708496D01*
Y710584D01*
X1262141Y712514D01*
X1260664Y713991D01*
X1258734Y714790D01*
D02*
G37*
G36*
X96374Y712660D02*
X94286D01*
X92356Y711861D01*
X90879Y710384D01*
X90080Y708454D01*
Y706366D01*
X90879Y704436D01*
X92356Y702959D01*
X94286Y702160D01*
X96374D01*
X98304Y702959D01*
X99781Y704436D01*
X100580Y706366D01*
Y708454D01*
X99781Y710384D01*
X98304Y711861D01*
X96374Y712660D01*
D02*
G37*
G36*
X653625Y706560D02*
X651935D01*
X650373Y705913D01*
X649177Y704717D01*
X648530Y703155D01*
Y701465D01*
X649177Y699903D01*
X650373Y698707D01*
X651935Y698060D01*
X653625D01*
X655187Y698707D01*
X656383Y699903D01*
X657030Y701465D01*
Y703155D01*
X656383Y704717D01*
X655187Y705913D01*
X653625Y706560D01*
D02*
G37*
G36*
X300565D02*
X298875D01*
X297313Y705913D01*
X296117Y704717D01*
X295470Y703155D01*
Y701465D01*
X296117Y699903D01*
X297313Y698707D01*
X298875Y698060D01*
X300565D01*
X302127Y698707D01*
X303323Y699903D01*
X303970Y701465D01*
Y703155D01*
X303323Y704717D01*
X302127Y705913D01*
X300565Y706560D01*
D02*
G37*
G36*
X1093244Y707560D02*
X1091156D01*
X1089226Y706761D01*
X1087749Y705284D01*
X1086950Y703354D01*
Y701266D01*
X1087749Y699336D01*
X1089226Y697859D01*
X1091156Y697060D01*
X1093244D01*
X1095174Y697859D01*
X1096651Y699336D01*
X1097450Y701266D01*
Y703354D01*
X1096651Y705284D01*
X1095174Y706761D01*
X1093244Y707560D01*
D02*
G37*
G36*
X534245Y705290D02*
X532555D01*
X530993Y704643D01*
X529797Y703447D01*
X529150Y701885D01*
Y700195D01*
X529797Y698633D01*
X530993Y697437D01*
X532555Y696790D01*
X534245D01*
X535807Y697437D01*
X537003Y698633D01*
X537650Y700195D01*
Y701885D01*
X537003Y703447D01*
X535807Y704643D01*
X534245Y705290D01*
D02*
G37*
G36*
X392005Y716720D02*
X390315D01*
X388753Y716073D01*
X387557Y714877D01*
X386910Y713315D01*
Y711625D01*
X387557Y710063D01*
X388753Y708867D01*
X390315Y708220D01*
X391135D01*
X391990Y706965D01*
Y705275D01*
X392024Y705193D01*
X391201Y703861D01*
X390023Y703373D01*
X388827Y702177D01*
X388180Y700615D01*
Y698925D01*
X388827Y697363D01*
X390023Y696167D01*
X391585Y695520D01*
X393275D01*
X394837Y696167D01*
X396033Y697363D01*
X396680Y698925D01*
Y700615D01*
X396646Y700697D01*
X397469Y702029D01*
X398647Y702517D01*
X399843Y703713D01*
X400490Y705275D01*
Y706965D01*
X399843Y708527D01*
X398647Y709723D01*
X397085Y710370D01*
X396265D01*
X395410Y711625D01*
Y713315D01*
X394763Y714877D01*
X393567Y716073D01*
X392005Y716720D01*
D02*
G37*
G36*
X318345Y701480D02*
X316655D01*
X315093Y700833D01*
X313897Y699637D01*
X313250Y698075D01*
Y696385D01*
X313897Y694823D01*
X315093Y693627D01*
X316655Y692980D01*
X318345D01*
X319907Y693627D01*
X321103Y694823D01*
X321750Y696385D01*
Y698075D01*
X321103Y699637D01*
X319907Y700833D01*
X318345Y701480D01*
D02*
G37*
G36*
X871220Y691399D02*
X871220Y691399D01*
X797560D01*
X797560Y691399D01*
X796389Y691166D01*
X795397Y690503D01*
X795397Y690503D01*
X787032Y682137D01*
X786931Y682099D01*
X786660Y681841D01*
X786422Y681638D01*
X786194Y681467D01*
X785977Y681327D01*
X785772Y681214D01*
X785580Y681128D01*
X785400Y681066D01*
X785231Y681024D01*
X785070Y681001D01*
X784844Y680992D01*
X784625Y680890D01*
X783816D01*
X781886Y680091D01*
X780409Y678614D01*
X779610Y676684D01*
Y674596D01*
X780409Y672666D01*
X781886Y671189D01*
X783816Y670390D01*
X785904D01*
X787834Y671189D01*
X789311Y672666D01*
X790110Y674596D01*
Y675405D01*
X790212Y675624D01*
X790221Y675850D01*
X790244Y676011D01*
X790286Y676180D01*
X790348Y676360D01*
X790434Y676552D01*
X790546Y676757D01*
X790687Y676974D01*
X790859Y677202D01*
X791061Y677440D01*
X791319Y677711D01*
X791357Y677812D01*
X798827Y685281D01*
X869953D01*
X876153Y679082D01*
X876191Y678981D01*
X876449Y678710D01*
X876652Y678472D01*
X876823Y678244D01*
X876963Y678027D01*
X877076Y677822D01*
X877162Y677630D01*
X877224Y677450D01*
X877266Y677281D01*
X877289Y677120D01*
X877298Y676894D01*
X877400Y676675D01*
Y675866D01*
X878199Y673936D01*
X879676Y672459D01*
X881606Y671660D01*
X883694D01*
X885624Y672459D01*
X887101Y673936D01*
X887900Y675866D01*
Y677954D01*
X887101Y679884D01*
X885624Y681361D01*
X883694Y682160D01*
X882885D01*
X882666Y682262D01*
X882440Y682271D01*
X882279Y682294D01*
X882110Y682336D01*
X881930Y682398D01*
X881738Y682484D01*
X881533Y682597D01*
X881316Y682738D01*
X881088Y682908D01*
X880850Y683111D01*
X880579Y683369D01*
X880478Y683407D01*
X873383Y690503D01*
X872391Y691166D01*
X871220Y691399D01*
D02*
G37*
G36*
X1028474Y699940D02*
X1026386D01*
X1024456Y699141D01*
X1022979Y697664D01*
X1022180Y695734D01*
Y693646D01*
X1022979Y691716D01*
X1024456Y690239D01*
X1026386Y689440D01*
X1028474D01*
X1030404Y690239D01*
X1031881Y691716D01*
X1032680Y693646D01*
Y695734D01*
X1031881Y697664D01*
X1030404Y699141D01*
X1028474Y699940D01*
D02*
G37*
G36*
Y687240D02*
X1026386D01*
X1024456Y686441D01*
X1022979Y684964D01*
X1022180Y683034D01*
Y680946D01*
X1022979Y679016D01*
X1024456Y677539D01*
X1026386Y676740D01*
X1028474D01*
X1030404Y677539D01*
X1031881Y679016D01*
X1032680Y680946D01*
Y683034D01*
X1031881Y684964D01*
X1030404Y686441D01*
X1028474Y687240D01*
D02*
G37*
G36*
X810034Y683430D02*
X807946D01*
X806016Y682631D01*
X804539Y681154D01*
X803740Y679224D01*
Y677136D01*
X804539Y675206D01*
X806016Y673729D01*
X807946Y672930D01*
X810034D01*
X811964Y673729D01*
X813441Y675206D01*
X814240Y677136D01*
Y679224D01*
X813441Y681154D01*
X811964Y682631D01*
X810034Y683430D01*
D02*
G37*
G36*
X1032284Y675810D02*
X1030196D01*
X1028266Y675011D01*
X1026789Y673534D01*
X1025990Y671604D01*
Y669516D01*
X1026789Y667586D01*
X1028266Y666109D01*
X1030196Y665310D01*
X1032284D01*
X1034214Y666109D01*
X1035691Y667586D01*
X1036490Y669516D01*
Y671604D01*
X1035691Y673534D01*
X1034214Y675011D01*
X1032284Y675810D01*
D02*
G37*
G36*
X1437640Y829393D02*
X1395730D01*
X1394773Y828997D01*
X1394377Y828040D01*
Y781812D01*
Y772414D01*
Y760476D01*
X1394482Y760222D01*
X1394377Y759968D01*
Y692233D01*
X1143000D01*
X1142043Y691837D01*
X1141647Y690880D01*
Y685800D01*
Y675640D01*
Y565150D01*
X1142043Y564193D01*
X1143000Y563797D01*
X1163320D01*
X1164277Y564193D01*
X1164673Y565150D01*
Y674287D01*
X1191892D01*
X1192145Y673017D01*
X1190826Y672471D01*
X1189349Y670994D01*
X1188550Y669064D01*
Y666976D01*
X1189349Y665046D01*
X1190826Y663569D01*
X1192756Y662770D01*
X1194844D01*
X1196774Y663569D01*
X1198251Y665046D01*
X1199050Y666976D01*
Y669064D01*
X1198251Y670994D01*
X1196774Y672471D01*
X1195455Y673017D01*
X1195708Y674287D01*
X1410970D01*
X1411927Y674683D01*
X1412323Y675640D01*
Y811447D01*
X1437640D01*
X1438597Y811843D01*
X1438993Y812800D01*
Y828040D01*
X1438597Y828997D01*
X1437640Y829393D01*
D02*
G37*
G36*
X680255Y852650D02*
X678565D01*
X677003Y852003D01*
X675807Y850807D01*
X675160Y849245D01*
Y847555D01*
X675807Y845993D01*
X677003Y844797D01*
X678565Y844150D01*
X679167D01*
X679388Y844048D01*
X679555Y844042D01*
X679658Y844028D01*
X679765Y844003D01*
X679878Y843965D01*
X680000Y843913D01*
X680132Y843842D01*
X680274Y843753D01*
X680424Y843642D01*
X680584Y843507D01*
X680776Y843325D01*
X680898Y843278D01*
X694661Y829516D01*
Y796290D01*
X694856Y795307D01*
X695413Y794473D01*
X739111Y750776D01*
Y719884D01*
X680926Y661699D01*
X637900D01*
X637374Y662969D01*
X638181Y663776D01*
X638980Y665706D01*
Y667794D01*
X638181Y669724D01*
X637374Y670531D01*
X637900Y671801D01*
X675640D01*
X676623Y671996D01*
X677457Y672553D01*
X730797Y725893D01*
X730797Y725893D01*
X731354Y726727D01*
X731549Y727710D01*
Y748030D01*
X731354Y749013D01*
X730797Y749847D01*
X689652Y790992D01*
X689605Y791114D01*
X689422Y791307D01*
X689289Y791466D01*
X689177Y791616D01*
X689088Y791758D01*
X689017Y791890D01*
X688965Y792011D01*
X688927Y792125D01*
X688902Y792232D01*
X688888Y792335D01*
X688882Y792502D01*
X688780Y792723D01*
Y793325D01*
X688133Y794887D01*
X686937Y796083D01*
X685375Y796730D01*
X683685D01*
X682123Y796083D01*
X680927Y794887D01*
X680280Y793325D01*
Y791635D01*
X680927Y790073D01*
X682123Y788877D01*
X683685Y788230D01*
X684287D01*
X684508Y788128D01*
X684675Y788122D01*
X684778Y788108D01*
X684885Y788083D01*
X684998Y788045D01*
X685120Y787993D01*
X685252Y787922D01*
X685394Y787833D01*
X685544Y787722D01*
X685704Y787587D01*
X685896Y787405D01*
X686018Y787358D01*
X726411Y746966D01*
Y728774D01*
X674576Y676939D01*
X600710D01*
X599727Y676744D01*
X598893Y676187D01*
X461216Y538509D01*
X440690D01*
X439707Y538314D01*
X438873Y537757D01*
X344956Y443839D01*
X271270D01*
X270287Y443644D01*
X269453Y443087D01*
X237019Y410652D01*
X236914Y410618D01*
X236565Y410318D01*
X236212Y410090D01*
X235769Y409873D01*
X235231Y409673D01*
X234600Y409497D01*
X233876Y409351D01*
X233076Y409238D01*
X231153Y409110D01*
X230068Y409103D01*
X229825Y409000D01*
X228815D01*
X226526Y408387D01*
X224474Y407202D01*
X222798Y405526D01*
X221613Y403474D01*
X221000Y401185D01*
Y398815D01*
X221613Y396526D01*
X222798Y394474D01*
X224474Y392798D01*
X226526Y391613D01*
X228815Y391000D01*
X231185D01*
X233474Y391613D01*
X235526Y392798D01*
X237202Y394474D01*
X238387Y396526D01*
X239000Y398815D01*
Y399825D01*
X239103Y400068D01*
X239110Y401153D01*
X239238Y403076D01*
X239350Y403876D01*
X239498Y404600D01*
X239673Y405231D01*
X239873Y405769D01*
X240090Y406212D01*
X240318Y406565D01*
X240618Y406914D01*
X240652Y407019D01*
X272334Y438700D01*
X346020D01*
X347003Y438896D01*
X347837Y439453D01*
X441754Y533371D01*
X462280D01*
X463263Y533566D01*
X464097Y534123D01*
X601774Y671801D01*
X629560D01*
X630086Y670531D01*
X629279Y669724D01*
X628480Y667794D01*
Y665706D01*
X629279Y663776D01*
X630086Y662969D01*
X629560Y661699D01*
X609130D01*
X608147Y661504D01*
X607313Y660947D01*
X382019Y435652D01*
X381914Y435618D01*
X381565Y435318D01*
X381212Y435090D01*
X380769Y434873D01*
X380231Y434673D01*
X379600Y434497D01*
X378876Y434351D01*
X378076Y434238D01*
X376153Y434110D01*
X375068Y434103D01*
X374825Y434000D01*
X373815D01*
X371526Y433387D01*
X369474Y432202D01*
X367798Y430526D01*
X366613Y428474D01*
X366000Y426185D01*
Y423815D01*
X366613Y421526D01*
X367798Y419474D01*
X369474Y417798D01*
X371526Y416613D01*
X373815Y416000D01*
X376185D01*
X378474Y416613D01*
X380526Y417798D01*
X382202Y419474D01*
X383387Y421526D01*
X384000Y423815D01*
Y424825D01*
X384103Y425068D01*
X384110Y426153D01*
X384238Y428076D01*
X384351Y428876D01*
X384498Y429600D01*
X384673Y430231D01*
X384873Y430769D01*
X385090Y431212D01*
X385318Y431565D01*
X385618Y431914D01*
X385652Y432019D01*
X610194Y656561D01*
X681990D01*
X682973Y656756D01*
X683807Y657313D01*
X743497Y717003D01*
X744054Y717837D01*
X744249Y718820D01*
Y751840D01*
X744054Y752823D01*
X743497Y753657D01*
X699799Y797354D01*
Y830580D01*
X699604Y831563D01*
X699047Y832397D01*
X684532Y846912D01*
X684485Y847034D01*
X684302Y847227D01*
X684169Y847385D01*
X684057Y847536D01*
X683968Y847678D01*
X683897Y847810D01*
X683845Y847932D01*
X683807Y848045D01*
X683782Y848152D01*
X683768Y848255D01*
X683762Y848421D01*
X683660Y848643D01*
Y849245D01*
X683013Y850807D01*
X681817Y852003D01*
X680255Y852650D01*
D02*
G37*
G36*
X221944Y666920D02*
X219856D01*
X217926Y666121D01*
X216449Y664644D01*
X215650Y662714D01*
Y660626D01*
X216449Y658696D01*
X217926Y657219D01*
X219856Y656420D01*
X221944D01*
X223874Y657219D01*
X225351Y658696D01*
X226150Y660626D01*
Y662714D01*
X225351Y664644D01*
X223874Y666121D01*
X221944Y666920D01*
D02*
G37*
G36*
X201624D02*
X199536D01*
X197606Y666121D01*
X196129Y664644D01*
X195330Y662714D01*
Y660626D01*
X196129Y658696D01*
X197606Y657219D01*
X199536Y656420D01*
X201624D01*
X203554Y657219D01*
X205031Y658696D01*
X205830Y660626D01*
Y662714D01*
X205031Y664644D01*
X203554Y666121D01*
X201624Y666920D01*
D02*
G37*
G36*
X1239294Y647870D02*
X1237206D01*
X1235276Y647071D01*
X1233799Y645594D01*
X1233000Y643664D01*
Y641576D01*
X1233799Y639646D01*
X1235276Y638169D01*
X1237206Y637370D01*
X1239294D01*
X1241224Y638169D01*
X1242701Y639646D01*
X1243500Y641576D01*
Y643664D01*
X1242701Y645594D01*
X1241224Y647071D01*
X1239294Y647870D01*
D02*
G37*
G36*
X1307874Y646600D02*
X1305786D01*
X1303856Y645801D01*
X1302379Y644324D01*
X1301580Y642394D01*
Y640306D01*
X1302379Y638376D01*
X1303856Y636899D01*
X1305786Y636100D01*
X1307874D01*
X1309804Y636899D01*
X1311281Y638376D01*
X1312080Y640306D01*
Y642394D01*
X1311281Y644324D01*
X1309804Y645801D01*
X1307874Y646600D01*
D02*
G37*
G36*
X757964Y637710D02*
X755876D01*
X753946Y636911D01*
X752469Y635434D01*
X751670Y633504D01*
Y631416D01*
X752469Y629486D01*
X753946Y628009D01*
X755876Y627210D01*
X757964D01*
X759894Y628009D01*
X761371Y629486D01*
X762170Y631416D01*
Y633504D01*
X761371Y635434D01*
X759894Y636911D01*
X757964Y637710D01*
D02*
G37*
G36*
X740184D02*
X738096D01*
X736166Y636911D01*
X734689Y635434D01*
X733890Y633504D01*
Y631416D01*
X734689Y629486D01*
X736166Y628009D01*
X738096Y627210D01*
X740184D01*
X742114Y628009D01*
X743591Y629486D01*
X744390Y631416D01*
Y633504D01*
X743591Y635434D01*
X742114Y636911D01*
X740184Y637710D01*
D02*
G37*
G36*
X1378304Y634150D02*
X1376216D01*
X1374286Y633351D01*
X1372809Y631874D01*
X1372010Y629944D01*
Y627856D01*
X1372809Y625926D01*
X1374286Y624449D01*
X1376216Y623650D01*
X1378304D01*
X1380234Y624449D01*
X1381711Y625926D01*
X1382510Y627856D01*
Y629944D01*
X1381711Y631874D01*
X1380234Y633351D01*
X1378304Y634150D01*
D02*
G37*
G36*
X1293904Y633900D02*
X1291816D01*
X1289886Y633101D01*
X1288409Y631624D01*
X1287610Y629694D01*
Y627606D01*
X1288409Y625676D01*
X1289886Y624199D01*
X1291816Y623400D01*
X1293904D01*
X1295834Y624199D01*
X1297311Y625676D01*
X1298110Y627606D01*
Y629694D01*
X1297311Y631624D01*
X1295834Y633101D01*
X1293904Y633900D01*
D02*
G37*
G36*
X336986Y820014D02*
X301426D01*
X300443Y819818D01*
X299609Y819261D01*
X292823Y812475D01*
X292266Y811642D01*
X292071Y810658D01*
Y799694D01*
X292017Y799575D01*
X292010Y799310D01*
X291992Y799102D01*
X291964Y798917D01*
X291928Y798754D01*
X291884Y798611D01*
X291835Y798487D01*
X291782Y798380D01*
X291724Y798287D01*
X291661Y798204D01*
X291548Y798082D01*
X291463Y797853D01*
X291037Y797427D01*
X290390Y795865D01*
Y794175D01*
X291037Y792613D01*
X292233Y791417D01*
X293795Y790770D01*
X295485D01*
X297047Y791417D01*
X298243Y792613D01*
X298890Y794175D01*
Y795865D01*
X298243Y797427D01*
X297817Y797853D01*
X297733Y798082D01*
X297619Y798204D01*
X297556Y798287D01*
X297498Y798380D01*
X297445Y798487D01*
X297396Y798611D01*
X297352Y798754D01*
X297316Y798917D01*
X297288Y799102D01*
X297270Y799310D01*
X297262Y799575D01*
X297209Y799694D01*
Y809594D01*
X302490Y814875D01*
X335922D01*
X342871Y807926D01*
Y626974D01*
X342817Y626855D01*
X342810Y626590D01*
X342792Y626382D01*
X342765Y626197D01*
X342728Y626034D01*
X342684Y625891D01*
X342635Y625767D01*
X342582Y625660D01*
X342524Y625567D01*
X342461Y625485D01*
X342347Y625362D01*
X342263Y625133D01*
X341837Y624707D01*
X341190Y623145D01*
Y621455D01*
X341837Y619893D01*
X343033Y618697D01*
X344595Y618050D01*
X346285D01*
X347847Y618697D01*
X349043Y619893D01*
X349690Y621455D01*
Y623145D01*
X349043Y624707D01*
X348617Y625133D01*
X348532Y625362D01*
X348419Y625484D01*
X348356Y625567D01*
X348298Y625660D01*
X348245Y625767D01*
X348196Y625891D01*
X348152Y626034D01*
X348116Y626197D01*
X348088Y626382D01*
X348070Y626590D01*
X348063Y626855D01*
X348009Y626974D01*
Y808990D01*
X347814Y809973D01*
X347257Y810807D01*
X338803Y819261D01*
X337969Y819818D01*
X336986Y820014D01*
D02*
G37*
G36*
X749074Y627550D02*
X746986D01*
X745056Y626751D01*
X743579Y625274D01*
X742780Y623344D01*
Y621256D01*
X743579Y619326D01*
X745056Y617849D01*
X746986Y617050D01*
X749074D01*
X751004Y617849D01*
X752481Y619326D01*
X753280Y621256D01*
Y623344D01*
X752481Y625274D01*
X751004Y626751D01*
X749074Y627550D01*
D02*
G37*
G36*
X512655Y620200D02*
X510965D01*
X509403Y619553D01*
X508207Y618357D01*
X507560Y616795D01*
Y615105D01*
X508207Y613543D01*
X509403Y612347D01*
X510965Y611700D01*
X512655D01*
X514217Y612347D01*
X515413Y613543D01*
X516060Y615105D01*
Y616795D01*
X515413Y618357D01*
X514217Y619553D01*
X512655Y620200D01*
D02*
G37*
G36*
X757964Y617390D02*
X755876D01*
X753946Y616591D01*
X752469Y615114D01*
X751670Y613184D01*
Y611096D01*
X752469Y609166D01*
X753946Y607689D01*
X755876Y606890D01*
X757964D01*
X759894Y607689D01*
X761371Y609166D01*
X762170Y611096D01*
Y613184D01*
X761371Y615114D01*
X759894Y616591D01*
X757964Y617390D01*
D02*
G37*
G36*
X740184D02*
X738096D01*
X736166Y616591D01*
X734689Y615114D01*
X733890Y613184D01*
Y611096D01*
X734689Y609166D01*
X736166Y607689D01*
X738096Y606890D01*
X740184D01*
X742114Y607689D01*
X743591Y609166D01*
X744390Y611096D01*
Y613184D01*
X743591Y615114D01*
X742114Y616591D01*
X740184Y617390D01*
D02*
G37*
G36*
X525355Y615120D02*
X523665D01*
X522103Y614473D01*
X520907Y613277D01*
X520260Y611715D01*
Y610025D01*
X520907Y608463D01*
X522103Y607267D01*
X523665Y606620D01*
X525355D01*
X526917Y607267D01*
X528113Y608463D01*
X528760Y610025D01*
Y611715D01*
X528113Y613277D01*
X526917Y614473D01*
X525355Y615120D01*
D02*
G37*
G36*
X1417403Y611310D02*
X1415713D01*
X1414151Y610663D01*
X1412955Y609467D01*
X1412308Y607905D01*
Y607322D01*
X1412276Y607278D01*
X1411038Y606578D01*
X1410037Y606992D01*
X1408347D01*
X1406785Y606345D01*
X1406233Y605794D01*
X1405610Y606017D01*
X1405060Y606417D01*
Y607905D01*
X1404413Y609467D01*
X1403217Y610663D01*
X1401655Y611310D01*
X1399965D01*
X1398403Y610663D01*
X1397207Y609467D01*
X1396560Y607905D01*
Y606215D01*
X1397207Y604653D01*
X1398403Y603457D01*
X1398903Y603250D01*
Y601875D01*
X1398657Y601773D01*
X1397461Y600577D01*
X1396814Y599015D01*
Y597325D01*
X1397461Y595763D01*
X1398657Y594567D01*
X1400219Y593920D01*
X1401909D01*
X1403471Y594567D01*
X1404667Y595763D01*
X1405314Y597325D01*
Y598814D01*
X1405864Y599213D01*
X1406487Y599436D01*
X1406785Y599139D01*
X1408347Y598492D01*
X1410037D01*
X1411038Y598906D01*
X1412276Y598206D01*
X1412308Y598162D01*
Y597325D01*
X1412955Y595763D01*
X1414151Y594567D01*
X1415713Y593920D01*
X1417403D01*
X1418965Y594567D01*
X1420161Y595763D01*
X1420808Y597325D01*
Y599015D01*
X1420161Y600577D01*
X1418965Y601773D01*
X1418592Y601928D01*
Y603302D01*
X1418965Y603457D01*
X1420161Y604653D01*
X1420808Y606215D01*
Y607905D01*
X1420161Y609467D01*
X1418965Y610663D01*
X1417403Y611310D01*
D02*
G37*
G36*
X1375975Y611220D02*
X1374285D01*
X1372723Y610573D01*
X1371527Y609377D01*
X1370880Y607815D01*
Y607089D01*
X1369664Y606509D01*
X1368102Y607156D01*
X1366411D01*
X1365410Y606742D01*
X1364172Y607442D01*
X1364140Y607486D01*
Y607815D01*
X1363493Y609377D01*
X1362298Y610573D01*
X1360735Y611220D01*
X1359045D01*
X1357483Y610573D01*
X1356287Y609377D01*
X1355640Y607815D01*
Y606125D01*
X1356287Y604563D01*
X1357483Y603367D01*
X1357856Y603212D01*
Y601838D01*
X1357483Y601683D01*
X1356287Y600487D01*
X1355640Y598925D01*
Y597235D01*
X1356287Y595673D01*
X1357483Y594477D01*
X1359045Y593830D01*
X1360735D01*
X1362298Y594477D01*
X1363493Y595673D01*
X1364140Y597235D01*
Y598326D01*
X1364174Y598374D01*
X1365338Y599100D01*
X1366411Y598656D01*
X1368102D01*
X1369664Y599303D01*
X1369707Y599346D01*
X1370330Y599123D01*
X1370880Y598723D01*
Y597235D01*
X1371527Y595673D01*
X1372723Y594477D01*
X1374285Y593830D01*
X1375975D01*
X1377538Y594477D01*
X1378733Y595673D01*
X1379380Y597235D01*
Y598925D01*
X1378733Y600487D01*
X1377538Y601683D01*
X1377164Y601838D01*
Y603212D01*
X1377538Y603367D01*
X1378733Y604563D01*
X1379380Y606125D01*
Y607815D01*
X1378733Y609377D01*
X1377538Y610573D01*
X1375975Y611220D01*
D02*
G37*
G36*
X1277394Y607230D02*
X1275306D01*
X1273376Y606431D01*
X1271899Y604954D01*
X1271100Y603024D01*
Y600936D01*
X1271899Y599006D01*
X1273376Y597529D01*
X1275306Y596730D01*
X1277394D01*
X1279324Y597529D01*
X1280801Y599006D01*
X1281600Y600936D01*
Y603024D01*
X1280801Y604954D01*
X1279324Y606431D01*
X1277394Y607230D01*
D02*
G37*
G36*
X1304064Y599610D02*
X1301976D01*
X1300046Y598811D01*
X1298569Y597334D01*
X1297770Y595404D01*
Y593316D01*
X1298569Y591386D01*
X1300046Y589909D01*
X1301976Y589110D01*
X1304064D01*
X1305994Y589909D01*
X1307471Y591386D01*
X1308270Y593316D01*
Y595404D01*
X1307471Y597334D01*
X1305994Y598811D01*
X1304064Y599610D01*
D02*
G37*
G36*
X577624Y588180D02*
X575536D01*
X573606Y587381D01*
X572129Y585904D01*
X571330Y583974D01*
Y581886D01*
X572129Y579956D01*
X573606Y578479D01*
X575536Y577680D01*
X577624D01*
X579554Y578479D01*
X581031Y579956D01*
X581830Y581886D01*
Y583974D01*
X581031Y585904D01*
X579554Y587381D01*
X577624Y588180D01*
D02*
G37*
G36*
X759234Y581830D02*
X757146D01*
X755216Y581031D01*
X753739Y579554D01*
X752940Y577624D01*
Y575536D01*
X753739Y573606D01*
X755216Y572129D01*
X757146Y571330D01*
X759234D01*
X761164Y572129D01*
X762641Y573606D01*
X763440Y575536D01*
Y577624D01*
X762641Y579554D01*
X761164Y581031D01*
X759234Y581830D01*
D02*
G37*
G36*
X745264D02*
X743176D01*
X741246Y581031D01*
X739769Y579554D01*
X738970Y577624D01*
Y575536D01*
X739769Y573606D01*
X741246Y572129D01*
X743176Y571330D01*
X745264D01*
X747194Y572129D01*
X748671Y573606D01*
X749470Y575536D01*
Y577624D01*
X748671Y579554D01*
X747194Y581031D01*
X745264Y581830D01*
D02*
G37*
G36*
X1235438Y633813D02*
X1196340D01*
X1195383Y633417D01*
X1194987Y632460D01*
Y596900D01*
X1195383Y595943D01*
X1196340Y595547D01*
X1211497D01*
Y533400D01*
X1211893Y532443D01*
X1212850Y532047D01*
X1222927D01*
Y463550D01*
X1223323Y462593D01*
X1224280Y462197D01*
X1247140D01*
X1248097Y462593D01*
X1248493Y463550D01*
Y532047D01*
X1257300D01*
X1258257Y532443D01*
X1258653Y533400D01*
Y571086D01*
X1259923Y571612D01*
X1260676Y570859D01*
X1262606Y570060D01*
X1264694D01*
X1266624Y570859D01*
X1268019Y572254D01*
X1268730Y572298D01*
X1269441Y572254D01*
X1270836Y570859D01*
X1272766Y570060D01*
X1274854D01*
X1276784Y570859D01*
X1278261Y572336D01*
X1279060Y574266D01*
Y576354D01*
X1278261Y578284D01*
X1276784Y579761D01*
X1274854Y580560D01*
X1272766D01*
X1270836Y579761D01*
X1269441Y578366D01*
X1268730Y578322D01*
X1268019Y578366D01*
X1266624Y579761D01*
X1264694Y580560D01*
X1262606D01*
X1260676Y579761D01*
X1259923Y579008D01*
X1258653Y579534D01*
Y610598D01*
X1258257Y611555D01*
X1236395Y633417D01*
X1235438Y633813D01*
D02*
G37*
G36*
X1186755Y582235D02*
X1170365D01*
Y565845D01*
X1186755D01*
Y582235D01*
D02*
G37*
G36*
X978784Y567226D02*
X976695D01*
X974765Y566427D01*
X973289Y564950D01*
X972489Y563020D01*
Y560932D01*
X973289Y559002D01*
X974765Y557525D01*
X976695Y556726D01*
X978784D01*
X980713Y557525D01*
X982190Y559002D01*
X982989Y560932D01*
Y563020D01*
X982190Y564950D01*
X980713Y566427D01*
X978784Y567226D01*
D02*
G37*
G36*
X965237D02*
X963148D01*
X961219Y566427D01*
X959742Y564950D01*
X958943Y563020D01*
Y560932D01*
X959742Y559002D01*
X961219Y557525D01*
X963148Y556726D01*
X965237D01*
X967167Y557525D01*
X968643Y559002D01*
X969443Y560932D01*
Y563020D01*
X968643Y564950D01*
X967167Y566427D01*
X965237Y567226D01*
D02*
G37*
G36*
X951690D02*
X949602D01*
X947672Y566427D01*
X946195Y564950D01*
X945396Y563020D01*
Y560932D01*
X946195Y559002D01*
X947672Y557525D01*
X949602Y556726D01*
X951690D01*
X953620Y557525D01*
X955097Y559002D01*
X955896Y560932D01*
Y563020D01*
X955097Y564950D01*
X953620Y566427D01*
X951690Y567226D01*
D02*
G37*
G36*
X938144D02*
X936055D01*
X934126Y566427D01*
X932649Y564950D01*
X931849Y563020D01*
Y560932D01*
X932649Y559002D01*
X934126Y557525D01*
X936055Y556726D01*
X938144D01*
X940073Y557525D01*
X941550Y559002D01*
X942349Y560932D01*
Y563020D01*
X941550Y564950D01*
X940073Y566427D01*
X938144Y567226D01*
D02*
G37*
G36*
X1196114Y557700D02*
X1194026D01*
X1192096Y556901D01*
X1190619Y555424D01*
X1190042Y554031D01*
X1188668D01*
X1188091Y555424D01*
X1186614Y556901D01*
X1184684Y557700D01*
X1182596D01*
X1180666Y556901D01*
X1179189Y555424D01*
X1178390Y553494D01*
Y551406D01*
X1179189Y549476D01*
X1180660Y548005D01*
X1179189Y546534D01*
X1178390Y544604D01*
Y542516D01*
X1179189Y540586D01*
X1180666Y539109D01*
X1182596Y538310D01*
X1184684D01*
X1186614Y539109D01*
X1188091Y540586D01*
X1188668Y541979D01*
X1190042D01*
X1190619Y540586D01*
X1192096Y539109D01*
X1194026Y538310D01*
X1196114D01*
X1198044Y539109D01*
X1199521Y540586D01*
X1200320Y542516D01*
Y544604D01*
X1199521Y546534D01*
X1198050Y548005D01*
X1199521Y549476D01*
X1200320Y551406D01*
Y553494D01*
X1199521Y555424D01*
X1198044Y556901D01*
X1196114Y557700D01*
D02*
G37*
G36*
X436539Y574050D02*
X433181D01*
X429939Y573181D01*
X427031Y571502D01*
X424657Y569129D01*
X422979Y566221D01*
X422110Y562979D01*
Y559621D01*
X422979Y556379D01*
X424657Y553471D01*
X427031Y551097D01*
X429939Y549419D01*
X433181Y548550D01*
X436539D01*
X439781Y549419D01*
X442689Y551097D01*
X445062Y553471D01*
X446741Y556379D01*
X447610Y559621D01*
Y562979D01*
X446741Y566221D01*
X445062Y569129D01*
X442689Y571502D01*
X439781Y573181D01*
X436539Y574050D01*
D02*
G37*
G36*
X167299D02*
X163941D01*
X160699Y573181D01*
X157791Y571502D01*
X155417Y569129D01*
X153739Y566221D01*
X152870Y562979D01*
Y559621D01*
X153739Y556379D01*
X155417Y553471D01*
X157791Y551097D01*
X160699Y549419D01*
X163941Y548550D01*
X167299D01*
X170541Y549419D01*
X173449Y551097D01*
X175823Y553471D01*
X177501Y556379D01*
X178370Y559621D01*
Y562979D01*
X177501Y566221D01*
X175823Y569129D01*
X173449Y571502D01*
X170541Y573181D01*
X167299Y574050D01*
D02*
G37*
G36*
X1418250Y549163D02*
X1416006Y548716D01*
X1414104Y547445D01*
X1412834Y545544D01*
X1412387Y543300D01*
Y542878D01*
X1411117Y542199D01*
X1410396Y542681D01*
X1408250Y543108D01*
X1406104Y542681D01*
X1404285Y541465D01*
X1403069Y539646D01*
X1402642Y537500D01*
Y534500D01*
X1403069Y532354D01*
X1404285Y530535D01*
X1406104Y529319D01*
X1408250Y528892D01*
X1409327Y529106D01*
X1409347Y529102D01*
X1410500Y528045D01*
Y527155D01*
X1411147Y525592D01*
X1412343Y524397D01*
X1413905Y523750D01*
X1415595D01*
X1416230Y524013D01*
X1417500Y523164D01*
Y523155D01*
X1418147Y521593D01*
X1418932Y520808D01*
X1419207Y520000D01*
X1418932Y519192D01*
X1418147Y518407D01*
X1417500Y516845D01*
Y516465D01*
X1409498D01*
X1404307Y521657D01*
X1403350Y522053D01*
X1352550D01*
X1351593Y521657D01*
X1351197Y520700D01*
Y509270D01*
X1351593Y508313D01*
X1352550Y507917D01*
X1395647D01*
Y484886D01*
X1396043Y483929D01*
X1397000Y483533D01*
X1417500D01*
Y483155D01*
X1418147Y481593D01*
X1418932Y480808D01*
X1419207Y480000D01*
X1418932Y479192D01*
X1418147Y478407D01*
X1417500Y476845D01*
Y476836D01*
X1416230Y475987D01*
X1415595Y476250D01*
X1413905D01*
X1412343Y475603D01*
X1411147Y474407D01*
X1410500Y472845D01*
Y471155D01*
X1410879Y470239D01*
X1409907Y469267D01*
X1409344Y469500D01*
X1407156D01*
X1405134Y468663D01*
X1403587Y467116D01*
X1402750Y465094D01*
Y462906D01*
X1403587Y460885D01*
X1405134Y459337D01*
X1407156Y458500D01*
X1409344D01*
X1411117Y459235D01*
X1412387Y458700D01*
Y456700D01*
X1412834Y454456D01*
X1414104Y452555D01*
X1416006Y451284D01*
X1418250Y450837D01*
X1418750Y450937D01*
X1419250Y450837D01*
X1424250D01*
X1426494Y451284D01*
X1428396Y452555D01*
X1429666Y454456D01*
X1430113Y456700D01*
X1429666Y458943D01*
X1428396Y460845D01*
X1426494Y462116D01*
X1424250Y462563D01*
X1424113D01*
Y463200D01*
X1423666Y465443D01*
X1422395Y467346D01*
X1420493Y468616D01*
X1419316Y468851D01*
X1419263Y468891D01*
X1418638Y470280D01*
X1419000Y471155D01*
Y471164D01*
X1420270Y472013D01*
X1420905Y471750D01*
X1422595D01*
X1424158Y472397D01*
X1425353Y473593D01*
X1426000Y475155D01*
Y476845D01*
X1425353Y478407D01*
X1424568Y479192D01*
X1424293Y480000D01*
X1424568Y480808D01*
X1425353Y481593D01*
X1426000Y483155D01*
Y484845D01*
X1425353Y486407D01*
X1424568Y487192D01*
X1424293Y488000D01*
X1424568Y488808D01*
X1425353Y489593D01*
X1426000Y491155D01*
Y492845D01*
X1425353Y494407D01*
X1424158Y495603D01*
X1422595Y496250D01*
X1420905D01*
X1419343Y495603D01*
X1419270Y495530D01*
X1418000Y496057D01*
Y496646D01*
X1417505Y497841D01*
X1416591Y498755D01*
X1415397Y499250D01*
X1414104D01*
X1412909Y498755D01*
X1411995Y497841D01*
X1411500Y496646D01*
Y495354D01*
X1411995Y494159D01*
X1412549Y493605D01*
X1412039Y492335D01*
X1407243D01*
Y507663D01*
X1412034D01*
X1412547Y506393D01*
X1411995Y505841D01*
X1411500Y504646D01*
Y503354D01*
X1411995Y502159D01*
X1412909Y501245D01*
X1414104Y500750D01*
X1415397D01*
X1416591Y501245D01*
X1417505Y502159D01*
X1418000Y503354D01*
Y503943D01*
X1419270Y504470D01*
X1419343Y504397D01*
X1420905Y503750D01*
X1422595D01*
X1424158Y504397D01*
X1425353Y505593D01*
X1426000Y507155D01*
Y508845D01*
X1425353Y510407D01*
X1424568Y511192D01*
X1424293Y512000D01*
X1424568Y512808D01*
X1425353Y513592D01*
X1426000Y515155D01*
Y516845D01*
X1425353Y518407D01*
X1424568Y519192D01*
X1424293Y520000D01*
X1424568Y520808D01*
X1425353Y521593D01*
X1426000Y523155D01*
Y524845D01*
X1425353Y526407D01*
X1424158Y527603D01*
X1422595Y528250D01*
X1420905D01*
X1420270Y527987D01*
X1419000Y528836D01*
Y528845D01*
X1418638Y529720D01*
X1419263Y531109D01*
X1419316Y531149D01*
X1420493Y531384D01*
X1422395Y532654D01*
X1423666Y534557D01*
X1424113Y536800D01*
Y537437D01*
X1424250D01*
X1426494Y537884D01*
X1428396Y539155D01*
X1429666Y541056D01*
X1430113Y543300D01*
X1429666Y545544D01*
X1428396Y547445D01*
X1426494Y548716D01*
X1424250Y549163D01*
X1419250D01*
X1418750Y549063D01*
X1418250Y549163D01*
D02*
G37*
G36*
X978784Y549446D02*
X976695D01*
X974765Y548647D01*
X973289Y547170D01*
X972489Y545240D01*
Y543152D01*
X973289Y541222D01*
X974765Y539745D01*
X976695Y538946D01*
X978784D01*
X980713Y539745D01*
X982190Y541222D01*
X982989Y543152D01*
Y545240D01*
X982190Y547170D01*
X980713Y548647D01*
X978784Y549446D01*
D02*
G37*
G36*
X1286284Y557700D02*
X1284196D01*
X1282266Y556901D01*
X1280789Y555424D01*
X1279990Y553494D01*
Y551406D01*
X1280789Y549476D01*
X1282260Y548005D01*
X1280789Y546534D01*
X1279990Y544604D01*
Y542516D01*
X1280789Y540586D01*
X1282266Y539109D01*
X1284196Y538310D01*
X1286284D01*
X1288214Y539109D01*
X1289691Y540586D01*
X1290490Y542516D01*
Y544604D01*
X1289691Y546534D01*
X1288220Y548005D01*
X1289691Y549476D01*
X1290490Y551406D01*
Y553494D01*
X1289691Y555424D01*
X1288214Y556901D01*
X1286284Y557700D01*
D02*
G37*
G36*
X1482750Y549163D02*
X1477750D01*
X1475506Y548716D01*
X1473604Y547445D01*
X1472334Y545544D01*
X1471887Y543300D01*
X1472334Y541057D01*
X1473604Y539155D01*
X1475506Y537884D01*
X1477750Y537437D01*
X1482750D01*
X1484993Y537884D01*
X1486895Y539155D01*
X1488166Y541057D01*
X1488613Y543300D01*
X1488166Y545544D01*
X1486895Y547445D01*
X1484993Y548716D01*
X1482750Y549163D01*
D02*
G37*
G36*
X1344704Y542460D02*
X1342616D01*
X1340686Y541661D01*
X1339209Y540184D01*
X1338410Y538254D01*
Y536166D01*
X1339209Y534236D01*
X1340686Y532759D01*
X1342616Y531960D01*
X1344704D01*
X1346634Y532759D01*
X1348111Y534236D01*
X1348910Y536166D01*
Y538254D01*
X1348111Y540184D01*
X1346634Y541661D01*
X1344704Y542460D01*
D02*
G37*
G36*
X821265Y763710D02*
X819575D01*
X818013Y763063D01*
X816817Y761867D01*
X816170Y760305D01*
Y758615D01*
X816817Y757053D01*
X817243Y756627D01*
X817327Y756398D01*
X817441Y756276D01*
X817504Y756193D01*
X817562Y756100D01*
X817615Y755993D01*
X817664Y755870D01*
X817708Y755726D01*
X817745Y755563D01*
X817772Y755378D01*
X817790Y755170D01*
X817797Y754905D01*
X817851Y754786D01*
Y736566D01*
X761453Y680168D01*
X760896Y679335D01*
X760701Y678352D01*
Y648970D01*
X760896Y647987D01*
X761453Y647153D01*
X778481Y630126D01*
Y615695D01*
X778311Y614841D01*
Y609439D01*
X778481Y608585D01*
Y534683D01*
X778428Y534570D01*
X778415Y534264D01*
X778384Y534023D01*
X778333Y533787D01*
X778261Y533556D01*
X778166Y533325D01*
X778048Y533093D01*
X777905Y532859D01*
X777733Y532623D01*
X777533Y532384D01*
X777273Y532113D01*
X777181Y531875D01*
X776599Y531294D01*
X775800Y529364D01*
Y527276D01*
X776599Y525346D01*
X778076Y523869D01*
X780006Y523070D01*
X782094D01*
X784024Y523869D01*
X785501Y525346D01*
X786300Y527276D01*
Y529364D01*
X785501Y531294D01*
X784919Y531875D01*
X784827Y532113D01*
X784567Y532384D01*
X784367Y532623D01*
X784196Y532859D01*
X784052Y533093D01*
X783934Y533325D01*
X783839Y533555D01*
X783767Y533787D01*
X783716Y534023D01*
X783685Y534264D01*
X783672Y534570D01*
X783619Y534683D01*
Y609269D01*
X783449Y610124D01*
Y614156D01*
X783619Y615011D01*
Y631190D01*
X783424Y632173D01*
X782867Y633007D01*
X782867Y633007D01*
X765839Y650034D01*
Y677287D01*
X822237Y733685D01*
X822237Y733685D01*
X822794Y734518D01*
X822989Y735501D01*
X822989Y735502D01*
Y754786D01*
X823043Y754905D01*
X823050Y755170D01*
X823068Y755378D01*
X823095Y755563D01*
X823132Y755726D01*
X823176Y755870D01*
X823225Y755993D01*
X823278Y756100D01*
X823336Y756193D01*
X823399Y756275D01*
X823512Y756398D01*
X823597Y756627D01*
X824023Y757053D01*
X824670Y758615D01*
Y760305D01*
X824023Y761867D01*
X822827Y763063D01*
X821265Y763710D01*
D02*
G37*
G36*
X681764Y904410D02*
X679676D01*
X677746Y903611D01*
X676269Y902134D01*
X675470Y900204D01*
Y898116D01*
X676269Y896186D01*
X677746Y894709D01*
X679676Y893910D01*
X681764D01*
X683694Y894709D01*
X684275Y895291D01*
X684513Y895383D01*
X684784Y895643D01*
X685023Y895843D01*
X685259Y896014D01*
X685493Y896158D01*
X685724Y896276D01*
X685955Y896371D01*
X686187Y896443D01*
X686423Y896494D01*
X686664Y896525D01*
X686970Y896538D01*
X687083Y896591D01*
X707596D01*
X773401Y830786D01*
Y714804D01*
X723353Y664757D01*
X722796Y663923D01*
X722601Y662940D01*
Y543560D01*
X722796Y542577D01*
X723353Y541743D01*
X735529Y529567D01*
X735576Y529445D01*
X736277Y528707D01*
X736863Y528014D01*
X737367Y527333D01*
X737567Y527028D01*
X737945Y526371D01*
X738103Y526049D01*
X738269Y525903D01*
X738499Y525346D01*
X739976Y523869D01*
X741906Y523070D01*
X743994D01*
X745924Y523869D01*
X747401Y525346D01*
X748200Y527276D01*
Y529364D01*
X747401Y531294D01*
X745924Y532771D01*
X743994Y533570D01*
X741906D01*
X740814Y533118D01*
X740564Y533110D01*
X740313Y532998D01*
X740154Y532948D01*
X740021Y532924D01*
X739904Y532920D01*
X739794Y532933D01*
X739678Y532963D01*
X739547Y533018D01*
X739396Y533106D01*
X739224Y533234D01*
X738990Y533448D01*
X738917Y533474D01*
X738877Y533540D01*
X738806Y533558D01*
X727739Y544624D01*
Y661876D01*
X777787Y711923D01*
X778344Y712757D01*
X778539Y713740D01*
Y831850D01*
X778344Y832833D01*
X777787Y833667D01*
X710477Y900977D01*
X709643Y901534D01*
X708660Y901729D01*
X687083D01*
X686970Y901782D01*
X686664Y901795D01*
X686423Y901826D01*
X686187Y901877D01*
X685956Y901949D01*
X685724Y902044D01*
X685493Y902162D01*
X685259Y902306D01*
X685023Y902477D01*
X684784Y902677D01*
X684513Y902937D01*
X684275Y903029D01*
X683694Y903611D01*
X681764Y904410D01*
D02*
G37*
G36*
X754154Y570400D02*
X752066D01*
X750136Y569601D01*
X748659Y568124D01*
X747860Y566194D01*
Y564106D01*
X748659Y562176D01*
X749241Y561595D01*
X749333Y561357D01*
X749593Y561086D01*
X749793Y560847D01*
X749964Y560611D01*
X750108Y560377D01*
X750226Y560145D01*
X750321Y559915D01*
X750393Y559683D01*
X750444Y559447D01*
X750475Y559206D01*
X750488Y558900D01*
X750541Y558787D01*
Y532130D01*
X750736Y531147D01*
X751293Y530313D01*
X766533Y515073D01*
X767367Y514516D01*
X768350Y514321D01*
X792480D01*
X793463Y514516D01*
X794297Y515073D01*
X805038Y525814D01*
X805154Y525857D01*
X805380Y526064D01*
X805573Y526213D01*
X805775Y526343D01*
X805990Y526456D01*
X806220Y526552D01*
X806468Y526633D01*
X806735Y526696D01*
X807023Y526742D01*
X807334Y526769D01*
X807709Y526777D01*
X807942Y526880D01*
X808764D01*
X810694Y527679D01*
X812171Y529156D01*
X812970Y531086D01*
Y533174D01*
X812171Y535104D01*
X810694Y536581D01*
X808764Y537380D01*
X806676D01*
X804746Y536581D01*
X803269Y535104D01*
X802470Y533174D01*
Y532352D01*
X802367Y532119D01*
X802359Y531744D01*
X802332Y531433D01*
X802286Y531145D01*
X802223Y530878D01*
X802142Y530630D01*
X802046Y530400D01*
X801933Y530185D01*
X801803Y529983D01*
X801654Y529790D01*
X801447Y529565D01*
X801404Y529448D01*
X791416Y519459D01*
X769414D01*
X755679Y533194D01*
Y558787D01*
X755732Y558900D01*
X755745Y559206D01*
X755776Y559447D01*
X755827Y559683D01*
X755899Y559914D01*
X755994Y560145D01*
X756112Y560377D01*
X756255Y560611D01*
X756427Y560847D01*
X756627Y561086D01*
X756887Y561357D01*
X756979Y561595D01*
X757561Y562176D01*
X758360Y564106D01*
Y566194D01*
X757561Y568124D01*
X756084Y569601D01*
X754154Y570400D01*
D02*
G37*
G36*
X861944Y515156D02*
X859855D01*
X857925Y514357D01*
X856454Y512886D01*
X854983Y514357D01*
X853054Y515156D01*
X850965D01*
X849035Y514357D01*
X847559Y512880D01*
X846759Y510950D01*
Y508862D01*
X847559Y506932D01*
X849035Y505455D01*
X850965Y504656D01*
X853054D01*
X854983Y505455D01*
X856454Y506926D01*
X857925Y505455D01*
X859855Y504656D01*
X861944D01*
X863873Y505455D01*
X865350Y506932D01*
X866149Y508862D01*
Y510950D01*
X865350Y512880D01*
X863873Y514357D01*
X861944Y515156D01*
D02*
G37*
G36*
X584200Y975443D02*
X566420D01*
X565954Y975250D01*
X565150D01*
Y974290D01*
X565067Y974090D01*
Y910673D01*
X233680D01*
X232723Y910277D01*
X232327Y909320D01*
Y892810D01*
Y641433D01*
X82550D01*
X81593Y641037D01*
X81197Y640080D01*
Y414103D01*
X54859D01*
X54518Y415373D01*
X56294Y416398D01*
X58202Y418306D01*
X59552Y420644D01*
X60250Y423251D01*
Y425949D01*
X59552Y428556D01*
X58202Y430894D01*
X56294Y432802D01*
X53956Y434151D01*
X51349Y434850D01*
X48651D01*
X46044Y434151D01*
X43706Y432802D01*
X41798Y430894D01*
X40448Y428556D01*
X39750Y425949D01*
Y423251D01*
X40448Y420644D01*
X41798Y418306D01*
X43706Y416398D01*
X45482Y415373D01*
X45141Y414103D01*
X38100D01*
X37143Y413707D01*
X36747Y412750D01*
Y387350D01*
X37143Y386393D01*
X38100Y385997D01*
X81197D01*
Y191853D01*
X38100D01*
X37143Y191457D01*
X36747Y190500D01*
Y165100D01*
X37143Y164143D01*
X38100Y163747D01*
X101600D01*
X102557Y164143D01*
X102953Y165100D01*
Y271697D01*
X186607D01*
Y147320D01*
Y118110D01*
X187003Y117153D01*
X187960Y116757D01*
X256540D01*
X257497Y117153D01*
X257893Y118110D01*
Y147320D01*
X257497Y148277D01*
X256540Y148673D01*
X214713D01*
Y271697D01*
X716280D01*
X717237Y272093D01*
X717633Y273050D01*
Y449580D01*
X717237Y450537D01*
X716280Y450933D01*
X602677D01*
Y502438D01*
X603947Y502964D01*
X605210Y501702D01*
X607507Y500750D01*
X609993D01*
X612290Y501702D01*
X614049Y503460D01*
X614365Y504224D01*
X615635D01*
X615951Y503460D01*
X617710Y501702D01*
X620007Y500750D01*
X622493D01*
X624790Y501702D01*
X626549Y503460D01*
X626865Y504224D01*
X628135D01*
X628451Y503460D01*
X630210Y501702D01*
X632507Y500750D01*
X634993D01*
X637290Y501702D01*
X639049Y503460D01*
X639365Y504224D01*
X640635D01*
X640952Y503460D01*
X642710Y501702D01*
X645007Y500750D01*
X647493D01*
X649790Y501702D01*
X651548Y503460D01*
X651865Y504224D01*
X653135D01*
X653452Y503460D01*
X655210Y501702D01*
X657507Y500750D01*
X659993D01*
X662290Y501702D01*
X664048Y503460D01*
X664365Y504224D01*
X665635D01*
X665952Y503460D01*
X667710Y501702D01*
X670007Y500750D01*
X672493D01*
X674790Y501702D01*
X676548Y503460D01*
X676865Y504224D01*
X678135D01*
X678452Y503460D01*
X680210Y501702D01*
X682507Y500750D01*
X684993D01*
X687290Y501702D01*
X689048Y503460D01*
X690000Y505757D01*
Y508243D01*
X689048Y510540D01*
X687290Y512299D01*
X684993Y513250D01*
X682507D01*
X680210Y512299D01*
X678452Y510540D01*
X678135Y509776D01*
X676865D01*
X676548Y510540D01*
X674790Y512299D01*
X672493Y513250D01*
X670007D01*
X667710Y512299D01*
X665952Y510540D01*
X665635Y509776D01*
X664365D01*
X664048Y510540D01*
X662290Y512299D01*
X659993Y513250D01*
X657507D01*
X655210Y512299D01*
X653452Y510540D01*
X653135Y509776D01*
X651865D01*
X651548Y510540D01*
X649790Y512299D01*
X647493Y513250D01*
X645007D01*
X642710Y512299D01*
X640952Y510540D01*
X640635Y509776D01*
X639365D01*
X639049Y510540D01*
X637290Y512299D01*
X634993Y513250D01*
X632507D01*
X630210Y512299D01*
X628451Y510540D01*
X628135Y509776D01*
X626865D01*
X626549Y510540D01*
X624790Y512299D01*
X622493Y513250D01*
X620007D01*
X617710Y512299D01*
X615951Y510540D01*
X615635Y509776D01*
X614365D01*
X614049Y510540D01*
X612290Y512299D01*
X609993Y513250D01*
X607507D01*
X605210Y512299D01*
X603947Y511036D01*
X602677Y511562D01*
Y511810D01*
X602500Y512238D01*
Y513250D01*
X590000D01*
Y513163D01*
X589280D01*
X588323Y512767D01*
X587927Y511810D01*
Y449580D01*
Y434340D01*
X588323Y433383D01*
X589280Y432987D01*
X666667D01*
Y303613D01*
X102953D01*
Y412750D01*
Y619677D01*
X251460D01*
X252417Y620073D01*
X252813Y621030D01*
Y640080D01*
Y891457D01*
X584200D01*
X585157Y891853D01*
X585553Y892810D01*
Y909320D01*
Y954750D01*
X585650D01*
Y975250D01*
X584666D01*
X584200Y975443D01*
D02*
G37*
G36*
X1460274Y509440D02*
X1458186D01*
X1456256Y508641D01*
X1454779Y507164D01*
X1453980Y505234D01*
Y503146D01*
X1454779Y501216D01*
X1456256Y499739D01*
X1458186Y498940D01*
X1460274D01*
X1462204Y499739D01*
X1463681Y501216D01*
X1464480Y503146D01*
Y505234D01*
X1463681Y507164D01*
X1462204Y508641D01*
X1460274Y509440D01*
D02*
G37*
G36*
X1439556Y502360D02*
X1438264D01*
X1437069Y501865D01*
X1436155Y500951D01*
X1435660Y499757D01*
Y498464D01*
X1436155Y497269D01*
X1437069Y496355D01*
X1438264Y495860D01*
X1439556D01*
X1440751Y496355D01*
X1441665Y497269D01*
X1442160Y498464D01*
Y499757D01*
X1441665Y500951D01*
X1440751Y501865D01*
X1439556Y502360D01*
D02*
G37*
G36*
X876074Y499280D02*
X873986D01*
X872056Y498481D01*
X870579Y497004D01*
X870002Y495611D01*
X868628D01*
X868051Y497004D01*
X866574Y498481D01*
X864644Y499280D01*
X862556D01*
X860626Y498481D01*
X859149Y497004D01*
X858572Y495611D01*
X857198D01*
X856621Y497004D01*
X855144Y498481D01*
X853214Y499280D01*
X851126D01*
X849196Y498481D01*
X847719Y497004D01*
X846920Y495074D01*
Y492986D01*
X847719Y491056D01*
X849196Y489579D01*
X851126Y488780D01*
X853214D01*
X855144Y489579D01*
X856621Y491056D01*
X857198Y492449D01*
X858572D01*
X859149Y491056D01*
X860626Y489579D01*
X862556Y488780D01*
X864644D01*
X866574Y489579D01*
X868051Y491056D01*
X868628Y492449D01*
X870002D01*
X870579Y491056D01*
X872056Y489579D01*
X873986Y488780D01*
X876074D01*
X878004Y489579D01*
X879481Y491056D01*
X880280Y492986D01*
Y495074D01*
X879481Y497004D01*
X878004Y498481D01*
X876074Y499280D01*
D02*
G37*
G36*
X1387487Y496010D02*
X1386194D01*
X1384999Y495515D01*
X1384085Y494601D01*
X1383590Y493406D01*
Y492113D01*
X1384085Y490919D01*
X1384999Y490005D01*
X1386194Y489510D01*
X1387487D01*
X1388681Y490005D01*
X1389595Y490919D01*
X1390090Y492113D01*
Y493406D01*
X1389595Y494601D01*
X1388681Y495515D01*
X1387487Y496010D01*
D02*
G37*
G36*
X788444Y498010D02*
X786356D01*
X784426Y497211D01*
X782949Y495734D01*
X782150Y493804D01*
Y491716D01*
X782949Y489786D01*
X784426Y488309D01*
X786356Y487510D01*
X788444D01*
X790374Y488309D01*
X791851Y489786D01*
X792650Y491716D01*
Y493804D01*
X791851Y495734D01*
X790374Y497211D01*
X788444Y498010D01*
D02*
G37*
G36*
X910204Y497376D02*
X908115D01*
X906186Y496577D01*
X904709Y495100D01*
X903909Y493170D01*
Y491082D01*
X904709Y489152D01*
X906186Y487675D01*
X908115Y486876D01*
X910204D01*
X912133Y487675D01*
X913610Y489152D01*
X914409Y491082D01*
Y493170D01*
X913610Y495100D01*
X912133Y496577D01*
X910204Y497376D01*
D02*
G37*
G36*
X864484Y485946D02*
X862395D01*
X860465Y485147D01*
X858989Y483670D01*
X858412Y482277D01*
X857037D01*
X856460Y483670D01*
X854983Y485147D01*
X853054Y485946D01*
X850965D01*
X849035Y485147D01*
X847559Y483670D01*
X846759Y481740D01*
Y479652D01*
X847559Y477722D01*
X849035Y476245D01*
X850965Y475446D01*
X853054D01*
X854983Y476245D01*
X856460Y477722D01*
X857037Y479115D01*
X858412D01*
X858989Y477722D01*
X860465Y476245D01*
X862395Y475446D01*
X864484D01*
X866413Y476245D01*
X867890Y477722D01*
X868689Y479652D01*
Y481740D01*
X867890Y483670D01*
X866413Y485147D01*
X864484Y485946D01*
D02*
G37*
G36*
X528094Y487850D02*
X526006D01*
X524076Y487051D01*
X522599Y485574D01*
X521800Y483644D01*
Y481556D01*
X522599Y479626D01*
X524076Y478149D01*
X526006Y477350D01*
X528094D01*
X530024Y478149D01*
X531501Y479626D01*
X532300Y481556D01*
Y483644D01*
X531501Y485574D01*
X530024Y487051D01*
X528094Y487850D01*
D02*
G37*
G36*
X1080544Y486580D02*
X1078456D01*
X1076526Y485781D01*
X1075049Y484304D01*
X1074250Y482374D01*
Y480286D01*
X1075049Y478356D01*
X1076526Y476879D01*
X1078456Y476080D01*
X1080544D01*
X1082474Y476879D01*
X1083951Y478356D01*
X1084750Y480286D01*
Y482374D01*
X1083951Y484304D01*
X1082474Y485781D01*
X1080544Y486580D01*
D02*
G37*
G36*
X317250Y496250D02*
X282750D01*
Y467750D01*
X317250D01*
Y496250D01*
D02*
G37*
G36*
X730024Y477690D02*
X727936D01*
X726006Y476891D01*
X724529Y475414D01*
X723730Y473484D01*
Y471396D01*
X724529Y469466D01*
X726006Y467989D01*
X727936Y467190D01*
X730024D01*
X731954Y467989D01*
X733431Y469466D01*
X734230Y471396D01*
Y473484D01*
X733431Y475414D01*
X731954Y476891D01*
X730024Y477690D01*
D02*
G37*
G36*
X51349Y485650D02*
X48651D01*
X46044Y484952D01*
X43706Y483602D01*
X41798Y481694D01*
X40448Y479356D01*
X39750Y476749D01*
Y474051D01*
X40448Y471444D01*
X41798Y469106D01*
X43706Y467198D01*
X46044Y465849D01*
X48651Y465150D01*
X51349D01*
X53956Y465849D01*
X56294Y467198D01*
X58202Y469106D01*
X59552Y471444D01*
X60250Y474051D01*
Y476749D01*
X59552Y479356D01*
X58202Y481694D01*
X56294Y483602D01*
X53956Y484952D01*
X51349Y485650D01*
D02*
G37*
G36*
X816384Y472610D02*
X814296D01*
X812366Y471811D01*
X810889Y470334D01*
X810090Y468404D01*
Y466316D01*
X810889Y464386D01*
X812366Y462909D01*
X814296Y462110D01*
X816384D01*
X818314Y462909D01*
X819791Y464386D01*
X820590Y466316D01*
Y468404D01*
X819791Y470334D01*
X818314Y471811D01*
X816384Y472610D01*
D02*
G37*
G36*
X877344Y471340D02*
X875256D01*
X873326Y470541D01*
X871849Y469064D01*
X871050Y467134D01*
Y465046D01*
X871849Y463116D01*
X873326Y461639D01*
X875256Y460840D01*
X877344D01*
X879274Y461639D01*
X880751Y463116D01*
X881550Y465046D01*
Y467134D01*
X880751Y469064D01*
X879274Y470541D01*
X877344Y471340D01*
D02*
G37*
G36*
X1146584Y482770D02*
X1144496D01*
X1142566Y481971D01*
X1141089Y480494D01*
X1140290Y478564D01*
Y476476D01*
X1141089Y474546D01*
X1142484Y473151D01*
X1142528Y472440D01*
X1142484Y471729D01*
X1141089Y470334D01*
X1140290Y468404D01*
Y466316D01*
X1141089Y464386D01*
X1142484Y462991D01*
X1142528Y462280D01*
X1142484Y461569D01*
X1141171Y460256D01*
X1140460Y460212D01*
X1139749Y460256D01*
X1138354Y461651D01*
X1136424Y462450D01*
X1134336D01*
X1132406Y461651D01*
X1131011Y460256D01*
X1130300Y460212D01*
X1129589Y460256D01*
X1128194Y461651D01*
X1126264Y462450D01*
X1124176D01*
X1122246Y461651D01*
X1120769Y460174D01*
X1119970Y458244D01*
Y456156D01*
X1120769Y454226D01*
X1122246Y452749D01*
X1124176Y451950D01*
X1126264D01*
X1128194Y452749D01*
X1129589Y454144D01*
X1130300Y454188D01*
X1131011Y454144D01*
X1132406Y452749D01*
X1134336Y451950D01*
X1136424D01*
X1138354Y452749D01*
X1139749Y454144D01*
X1140460Y454188D01*
X1141171Y454144D01*
X1142566Y452749D01*
X1144496Y451950D01*
X1146584D01*
X1148514Y452749D01*
X1149991Y454226D01*
X1150790Y456156D01*
Y458244D01*
X1149991Y460174D01*
X1148596Y461569D01*
X1148552Y462280D01*
X1148596Y462991D01*
X1149991Y464386D01*
X1150790Y466316D01*
Y468404D01*
X1149991Y470334D01*
X1148596Y471729D01*
X1148552Y472440D01*
X1148596Y473151D01*
X1149991Y474546D01*
X1150790Y476476D01*
Y478564D01*
X1149991Y480494D01*
X1148514Y481971D01*
X1146584Y482770D01*
D02*
G37*
G36*
X975134Y466260D02*
X973046D01*
X971116Y465461D01*
X969639Y463984D01*
X968840Y462054D01*
Y459966D01*
X969639Y458036D01*
X971116Y456559D01*
X973046Y455760D01*
X975134D01*
X977064Y456559D01*
X978541Y458036D01*
X979340Y459966D01*
Y462054D01*
X978541Y463984D01*
X977064Y465461D01*
X975134Y466260D01*
D02*
G37*
G36*
X1482750Y462563D02*
X1477750D01*
X1475506Y462116D01*
X1473604Y460845D01*
X1472334Y458943D01*
X1471887Y456700D01*
X1472334Y454456D01*
X1473604Y452555D01*
X1475506Y451284D01*
X1477750Y450837D01*
X1482750D01*
X1484993Y451284D01*
X1486895Y452555D01*
X1488166Y454456D01*
X1488613Y456700D01*
X1488166Y458943D01*
X1486895Y460845D01*
X1484993Y462116D01*
X1482750Y462563D01*
D02*
G37*
G36*
X1381534Y459910D02*
X1379446D01*
X1377516Y459111D01*
X1376039Y457634D01*
X1375240Y455704D01*
Y453616D01*
X1376039Y451686D01*
X1377516Y450209D01*
X1379446Y449410D01*
X1381534D01*
X1383464Y450209D01*
X1384941Y451686D01*
X1385740Y453616D01*
Y455704D01*
X1384941Y457634D01*
X1383464Y459111D01*
X1381534Y459910D01*
D02*
G37*
G36*
X507575Y453830D02*
X505885D01*
X504323Y453183D01*
X503127Y451987D01*
X502480Y450425D01*
Y448735D01*
X503127Y447173D01*
X504323Y445977D01*
X505885Y445330D01*
X507575D01*
X509137Y445977D01*
X510333Y447173D01*
X510980Y448735D01*
Y450425D01*
X510333Y451987D01*
X509137Y453183D01*
X507575Y453830D01*
D02*
G37*
G36*
X1029970Y515703D02*
X996950D01*
X995993Y515307D01*
X995597Y514350D01*
Y439503D01*
X812800D01*
X811843Y439107D01*
X811447Y438150D01*
Y400050D01*
X811843Y399093D01*
X812800Y398697D01*
X982897D01*
Y74930D01*
Y63500D01*
X983293Y62543D01*
X984250Y62147D01*
X1212290D01*
X1228007Y46430D01*
Y30480D01*
X1228403Y29523D01*
X1229360Y29127D01*
X1259840D01*
X1260797Y29523D01*
X1261193Y30480D01*
Y48260D01*
X1260797Y49217D01*
X1259840Y49613D01*
X1248970D01*
X1222697Y75887D01*
X1221740Y76283D01*
X998303D01*
Y398697D01*
X1029970D01*
X1030927Y399093D01*
X1031323Y400050D01*
Y431386D01*
X1032593Y431912D01*
X1033346Y431159D01*
X1035276Y430360D01*
X1037364D01*
X1039294Y431159D01*
X1040689Y432554D01*
X1041400Y432598D01*
X1042111Y432554D01*
X1043506Y431159D01*
X1045436Y430360D01*
X1047524D01*
X1049454Y431159D01*
X1050931Y432636D01*
X1051730Y434566D01*
Y436654D01*
X1050931Y438584D01*
X1049454Y440061D01*
X1047524Y440860D01*
X1045436D01*
X1043506Y440061D01*
X1042111Y438666D01*
X1041400Y438622D01*
X1040689Y438666D01*
X1039294Y440061D01*
X1037364Y440860D01*
X1035276D01*
X1033346Y440061D01*
X1032593Y439308D01*
X1031323Y439834D01*
Y444086D01*
X1032593Y444612D01*
X1033346Y443859D01*
X1035276Y443060D01*
X1037364D01*
X1039294Y443859D01*
X1040771Y445336D01*
X1041570Y447266D01*
Y449354D01*
X1040771Y451284D01*
X1039294Y452761D01*
X1037364Y453560D01*
X1035276D01*
X1033346Y452761D01*
X1032593Y452008D01*
X1031323Y452534D01*
Y514350D01*
X1030927Y515307D01*
X1029970Y515703D01*
D02*
G37*
G36*
X376185Y459000D02*
X373815D01*
X371526Y458387D01*
X369474Y457202D01*
X367798Y455526D01*
X366613Y453474D01*
X366000Y451185D01*
Y448815D01*
X366613Y446526D01*
X367798Y444474D01*
X369474Y442798D01*
X371526Y441613D01*
X373815Y441000D01*
X376185D01*
X378474Y441613D01*
X380526Y442798D01*
X382202Y444474D01*
X383387Y446526D01*
X384000Y448815D01*
Y451185D01*
X383387Y453474D01*
X382202Y455526D01*
X380526Y457202D01*
X378474Y458387D01*
X376185Y459000D01*
D02*
G37*
G36*
X231185D02*
X228815D01*
X226526Y458387D01*
X224474Y457202D01*
X222798Y455526D01*
X221613Y453474D01*
X221000Y451185D01*
Y448815D01*
X221613Y446526D01*
X222798Y444474D01*
X224474Y442798D01*
X226526Y441613D01*
X228815Y441000D01*
X231185D01*
X233474Y441613D01*
X235526Y442798D01*
X237202Y444474D01*
X238387Y446526D01*
X239000Y448815D01*
Y451185D01*
X238387Y453474D01*
X237202Y455526D01*
X235526Y457202D01*
X233474Y458387D01*
X231185Y459000D01*
D02*
G37*
G36*
X51349Y460250D02*
X48651D01*
X46044Y459552D01*
X43706Y458202D01*
X41798Y456294D01*
X40448Y453956D01*
X39750Y451349D01*
Y448651D01*
X40448Y446044D01*
X41798Y443706D01*
X43706Y441798D01*
X46044Y440448D01*
X48651Y439750D01*
X51349D01*
X53956Y440448D01*
X56294Y441798D01*
X58202Y443706D01*
X59552Y446044D01*
X60250Y448651D01*
Y451349D01*
X59552Y453956D01*
X58202Y456294D01*
X56294Y458202D01*
X53956Y459552D01*
X51349Y460250D01*
D02*
G37*
G36*
X507575Y443670D02*
X505885D01*
X504323Y443023D01*
X503127Y441827D01*
X502480Y440265D01*
Y438575D01*
X503127Y437013D01*
X504323Y435817D01*
X505885Y435170D01*
X507575D01*
X509137Y435817D01*
X510333Y437013D01*
X510980Y438575D01*
Y440265D01*
X510333Y441827D01*
X509137Y443023D01*
X507575Y443670D01*
D02*
G37*
G36*
X1372644Y443400D02*
X1370556D01*
X1368626Y442601D01*
X1367149Y441124D01*
X1366350Y439194D01*
Y437106D01*
X1367149Y435176D01*
X1368626Y433699D01*
X1370556Y432900D01*
X1372644D01*
X1374574Y433699D01*
X1376051Y435176D01*
X1376850Y437106D01*
Y439194D01*
X1376051Y441124D01*
X1374574Y442601D01*
X1372644Y443400D01*
D02*
G37*
G36*
X476024Y425620D02*
X473936D01*
X472006Y424821D01*
X470529Y423344D01*
X469730Y421414D01*
Y419326D01*
X470529Y417396D01*
X472006Y415919D01*
X473936Y415120D01*
X476024D01*
X477954Y415919D01*
X479431Y417396D01*
X480230Y419326D01*
Y421414D01*
X479431Y423344D01*
X477954Y424821D01*
X476024Y425620D01*
D02*
G37*
G36*
X1372644Y421810D02*
X1370556D01*
X1368626Y421011D01*
X1367149Y419534D01*
X1366350Y417604D01*
Y415516D01*
X1367149Y413586D01*
X1368626Y412109D01*
X1370556Y411310D01*
X1372644D01*
X1374574Y412109D01*
X1376051Y413586D01*
X1376850Y415516D01*
Y417604D01*
X1376051Y419534D01*
X1374574Y421011D01*
X1372644Y421810D01*
D02*
G37*
G36*
X743994Y409110D02*
X741906D01*
X739976Y408311D01*
X738499Y406834D01*
X737700Y404904D01*
Y402816D01*
X738499Y400886D01*
X739976Y399409D01*
X741906Y398610D01*
X743994D01*
X745924Y399409D01*
X747401Y400886D01*
X748200Y402816D01*
Y404904D01*
X747401Y406834D01*
X745924Y408311D01*
X743994Y409110D01*
D02*
G37*
G36*
X120424Y404030D02*
X118336D01*
X116406Y403231D01*
X114929Y401754D01*
X114130Y399824D01*
Y397736D01*
X114929Y395806D01*
X116406Y394329D01*
X118336Y393530D01*
X120424D01*
X122354Y394329D01*
X123831Y395806D01*
X124630Y397736D01*
Y399824D01*
X123831Y401754D01*
X122354Y403231D01*
X120424Y404030D01*
D02*
G37*
G36*
X680295Y865310D02*
X678605D01*
X677043Y864663D01*
X675847Y863467D01*
X675200Y861905D01*
Y860215D01*
X675847Y858653D01*
X677043Y857457D01*
X678605Y856810D01*
X679207D01*
X679428Y856708D01*
X679595Y856702D01*
X679698Y856688D01*
X679805Y856663D01*
X679918Y856625D01*
X680040Y856573D01*
X680172Y856502D01*
X680314Y856413D01*
X680464Y856302D01*
X680624Y856167D01*
X680816Y855985D01*
X680938Y855938D01*
X704821Y832056D01*
Y801370D01*
X705016Y800387D01*
X705573Y799553D01*
X751811Y753316D01*
Y712264D01*
X687276Y647729D01*
X620160D01*
X619177Y647534D01*
X618343Y646977D01*
X618343Y646977D01*
X382019Y410652D01*
X381914Y410618D01*
X381565Y410318D01*
X381212Y410090D01*
X380769Y409873D01*
X380231Y409673D01*
X379600Y409497D01*
X378876Y409351D01*
X378076Y409238D01*
X376153Y409110D01*
X375068Y409103D01*
X374825Y409000D01*
X373815D01*
X371526Y408387D01*
X369474Y407202D01*
X367798Y405526D01*
X366613Y403474D01*
X366000Y401185D01*
Y398815D01*
X366613Y396526D01*
X367798Y394474D01*
X369474Y392798D01*
X371526Y391613D01*
X373815Y391000D01*
X376185D01*
X378474Y391613D01*
X380526Y392798D01*
X382202Y394474D01*
X383387Y396526D01*
X384000Y398815D01*
Y399825D01*
X384103Y400068D01*
X384110Y401153D01*
X384238Y403076D01*
X384351Y403876D01*
X384498Y404600D01*
X384673Y405231D01*
X384873Y405769D01*
X385090Y406212D01*
X385318Y406565D01*
X385618Y406914D01*
X385652Y407019D01*
X621224Y642591D01*
X688340D01*
X689323Y642786D01*
X690157Y643343D01*
X756197Y709383D01*
X756754Y710217D01*
X756949Y711200D01*
Y754380D01*
X756754Y755363D01*
X756197Y756197D01*
X709959Y802434D01*
Y833120D01*
X709764Y834103D01*
X709207Y834937D01*
X684572Y859572D01*
X684525Y859694D01*
X684342Y859887D01*
X684209Y860045D01*
X684097Y860196D01*
X684007Y860338D01*
X683937Y860470D01*
X683885Y860592D01*
X683847Y860705D01*
X683822Y860812D01*
X683808Y860915D01*
X683802Y861081D01*
X683700Y861303D01*
Y861905D01*
X683053Y863467D01*
X681857Y864663D01*
X680295Y865310D01*
D02*
G37*
G36*
X206784Y377360D02*
X204696D01*
X202766Y376561D01*
X201289Y375084D01*
X200490Y373154D01*
Y371066D01*
X201289Y369136D01*
X202766Y367659D01*
X204696Y366860D01*
X206784D01*
X208714Y367659D01*
X210191Y369136D01*
X210990Y371066D01*
Y373154D01*
X210191Y375084D01*
X208714Y376561D01*
X206784Y377360D01*
D02*
G37*
G36*
X399824Y368470D02*
X397736D01*
X395806Y367671D01*
X394329Y366194D01*
X393530Y364264D01*
Y362176D01*
X394329Y360246D01*
X395806Y358769D01*
X397736Y357970D01*
X399824D01*
X401754Y358769D01*
X403231Y360246D01*
X404030Y362176D01*
Y364264D01*
X403231Y366194D01*
X401754Y367671D01*
X399824Y368470D01*
D02*
G37*
G36*
X317250Y382250D02*
X282750D01*
Y353750D01*
X317250D01*
Y382250D01*
D02*
G37*
G36*
X1051349Y370250D02*
X1048651D01*
X1046044Y369552D01*
X1043706Y368202D01*
X1041798Y366294D01*
X1040449Y363956D01*
X1039750Y361349D01*
Y358651D01*
X1040449Y356044D01*
X1041798Y353706D01*
X1043706Y351798D01*
X1046044Y350448D01*
X1048651Y349750D01*
X1051349D01*
X1053956Y350448D01*
X1056294Y351798D01*
X1058202Y353706D01*
X1059551Y356044D01*
X1060250Y358651D01*
Y361349D01*
X1059551Y363956D01*
X1058202Y366294D01*
X1056294Y368202D01*
X1053956Y369552D01*
X1051349Y370250D01*
D02*
G37*
G36*
X1410545Y356040D02*
X1408855D01*
X1407293Y355393D01*
X1406097Y354197D01*
X1405450Y352635D01*
Y350945D01*
X1406097Y349383D01*
X1407293Y348187D01*
X1408855Y347540D01*
X1410545D01*
X1412107Y348187D01*
X1413303Y349383D01*
X1413950Y350945D01*
Y352635D01*
X1413303Y354197D01*
X1412107Y355393D01*
X1410545Y356040D01*
D02*
G37*
G36*
X1443764Y351960D02*
X1441676D01*
X1439746Y351161D01*
X1438269Y349684D01*
X1437470Y347754D01*
Y345666D01*
X1438269Y343736D01*
X1439746Y342259D01*
X1441676Y341460D01*
X1443764D01*
X1445694Y342259D01*
X1447171Y343736D01*
X1447970Y345666D01*
Y347754D01*
X1447171Y349684D01*
X1445694Y351161D01*
X1443764Y351960D01*
D02*
G37*
G36*
X951613Y347250D02*
X948387D01*
X945272Y346415D01*
X942478Y344803D01*
X940198Y342522D01*
X938585Y339728D01*
X937750Y336613D01*
Y333387D01*
X938585Y330272D01*
X940198Y327478D01*
X942478Y325197D01*
X945272Y323585D01*
X948387Y322750D01*
X951613D01*
X954728Y323585D01*
X957522Y325197D01*
X959802Y327478D01*
X961415Y330272D01*
X962250Y333387D01*
Y336613D01*
X961415Y339728D01*
X959802Y342522D01*
X957522Y344803D01*
X954728Y346415D01*
X951613Y347250D01*
D02*
G37*
G36*
X551613D02*
X548387D01*
X545272Y346415D01*
X542478Y344803D01*
X540197Y342522D01*
X538585Y339728D01*
X537750Y336613D01*
Y333387D01*
X538585Y330272D01*
X540197Y327478D01*
X542478Y325197D01*
X545272Y323585D01*
X548387Y322750D01*
X551613D01*
X554728Y323585D01*
X557522Y325197D01*
X559803Y327478D01*
X561415Y330272D01*
X562250Y333387D01*
Y336613D01*
X561415Y339728D01*
X559803Y342522D01*
X557522Y344803D01*
X554728Y346415D01*
X551613Y347250D01*
D02*
G37*
G36*
X1286434Y294810D02*
X1284346D01*
X1282416Y294011D01*
X1280939Y292534D01*
X1280140Y290604D01*
Y288516D01*
X1280939Y286586D01*
X1282416Y285109D01*
X1284346Y284310D01*
X1286434D01*
X1288364Y285109D01*
X1289841Y286586D01*
X1290640Y288516D01*
Y290604D01*
X1289841Y292534D01*
X1288364Y294011D01*
X1286434Y294810D01*
D02*
G37*
G36*
X1131344Y284650D02*
X1129256D01*
X1127326Y283851D01*
X1125849Y282374D01*
X1125050Y280444D01*
Y278356D01*
X1125849Y276426D01*
X1127326Y274949D01*
X1129256Y274150D01*
X1131344D01*
X1133274Y274949D01*
X1134751Y276426D01*
X1135550Y278356D01*
Y280444D01*
X1134751Y282374D01*
X1133274Y283851D01*
X1131344Y284650D01*
D02*
G37*
G36*
X1446304Y274490D02*
X1444216D01*
X1442286Y273691D01*
X1440809Y272214D01*
X1440010Y270284D01*
Y268196D01*
X1440809Y266266D01*
X1442286Y264789D01*
X1444216Y263990D01*
X1446304D01*
X1448234Y264789D01*
X1449711Y266266D01*
X1450510Y268196D01*
Y270284D01*
X1449711Y272214D01*
X1448234Y273691D01*
X1446304Y274490D01*
D02*
G37*
G36*
X1286284D02*
X1284196D01*
X1282266Y273691D01*
X1280789Y272214D01*
X1279990Y270284D01*
Y268196D01*
X1280789Y266266D01*
X1282266Y264789D01*
X1284196Y263990D01*
X1286284D01*
X1288214Y264789D01*
X1289691Y266266D01*
X1290490Y268196D01*
Y270284D01*
X1289691Y272214D01*
X1288214Y273691D01*
X1286284Y274490D01*
D02*
G37*
G36*
X1380065Y286190D02*
X1378375D01*
X1376813Y285543D01*
X1375617Y284347D01*
X1374970Y282785D01*
Y281095D01*
X1375617Y279533D01*
X1376185Y278965D01*
X1376547Y277922D01*
X1376165Y277325D01*
X1375407Y276567D01*
X1374760Y275005D01*
Y273315D01*
X1375407Y271753D01*
X1376005Y271155D01*
X1376591Y270537D01*
X1376005Y269495D01*
X1375617Y269107D01*
X1374970Y267545D01*
Y265855D01*
X1375617Y264293D01*
X1376813Y263097D01*
X1378375Y262450D01*
X1380065D01*
X1381627Y263097D01*
X1382823Y264293D01*
X1383470Y265855D01*
Y267545D01*
X1382823Y269107D01*
X1382225Y269705D01*
X1381639Y270323D01*
X1382225Y271365D01*
X1382613Y271753D01*
X1383260Y273315D01*
Y275005D01*
X1382613Y276567D01*
X1382045Y277135D01*
X1381683Y278178D01*
X1382065Y278775D01*
X1382823Y279533D01*
X1383470Y281095D01*
Y282785D01*
X1382823Y284347D01*
X1381627Y285543D01*
X1380065Y286190D01*
D02*
G37*
G36*
X1286284Y259250D02*
X1284196D01*
X1282266Y258451D01*
X1280789Y256974D01*
X1279990Y255044D01*
Y252956D01*
X1280789Y251026D01*
X1282266Y249549D01*
X1284196Y248750D01*
X1286284D01*
X1288214Y249549D01*
X1289691Y251026D01*
X1290490Y252956D01*
Y255044D01*
X1289691Y256974D01*
X1288214Y258451D01*
X1286284Y259250D01*
D02*
G37*
G36*
X1434874Y250360D02*
X1432786D01*
X1430856Y249561D01*
X1429461Y248166D01*
X1428750Y248122D01*
X1428039Y248166D01*
X1426644Y249561D01*
X1424714Y250360D01*
X1422626D01*
X1420696Y249561D01*
X1419219Y248084D01*
X1418420Y246154D01*
Y244066D01*
X1419219Y242136D01*
X1420696Y240659D01*
X1422089Y240082D01*
Y238708D01*
X1420696Y238131D01*
X1419219Y236654D01*
X1418420Y234724D01*
Y232636D01*
X1419219Y230706D01*
X1420696Y229229D01*
X1422626Y228430D01*
X1424714D01*
X1426644Y229229D01*
X1428039Y230624D01*
X1428750Y230668D01*
X1429461Y230624D01*
X1430856Y229229D01*
X1432786Y228430D01*
X1434874D01*
X1436804Y229229D01*
X1438281Y230706D01*
X1439080Y232636D01*
Y234724D01*
X1438281Y236654D01*
X1436804Y238131D01*
X1435411Y238708D01*
Y240082D01*
X1436804Y240659D01*
X1438281Y242136D01*
X1439080Y244066D01*
Y246154D01*
X1438281Y248084D01*
X1436804Y249561D01*
X1434874Y250360D01*
D02*
G37*
G36*
X51349Y266050D02*
X48651D01*
X46044Y265352D01*
X43706Y264002D01*
X41798Y262094D01*
X40448Y259756D01*
X39750Y257149D01*
Y254451D01*
X40448Y251844D01*
X41798Y249506D01*
X43706Y247598D01*
X46044Y246249D01*
X48651Y245550D01*
X51349D01*
X53956Y246249D01*
X56294Y247598D01*
X58202Y249506D01*
X59552Y251844D01*
X60250Y254451D01*
Y257149D01*
X59552Y259756D01*
X58202Y262094D01*
X56294Y264002D01*
X53956Y265352D01*
X51349Y266050D01*
D02*
G37*
G36*
X1434874Y226230D02*
X1432786D01*
X1430856Y225431D01*
X1429461Y224036D01*
X1428750Y223992D01*
X1428039Y224036D01*
X1426644Y225431D01*
X1424714Y226230D01*
X1422626D01*
X1420696Y225431D01*
X1419219Y223954D01*
X1418420Y222024D01*
Y219936D01*
X1419219Y218006D01*
X1420696Y216529D01*
X1422626Y215730D01*
X1424714D01*
X1426644Y216529D01*
X1428039Y217924D01*
X1428750Y217968D01*
X1429461Y217924D01*
X1430856Y216529D01*
X1432786Y215730D01*
X1434874D01*
X1436804Y216529D01*
X1438281Y218006D01*
X1439080Y219936D01*
Y222024D01*
X1438281Y223954D01*
X1436804Y225431D01*
X1434874Y226230D01*
D02*
G37*
G36*
X51349Y240650D02*
X48651D01*
X46044Y239951D01*
X43706Y238602D01*
X41798Y236694D01*
X40448Y234356D01*
X39750Y231749D01*
Y229051D01*
X40448Y226444D01*
X41798Y224106D01*
X43706Y222198D01*
X46044Y220849D01*
X48651Y220150D01*
X51349D01*
X53956Y220849D01*
X56294Y222198D01*
X58202Y224106D01*
X59552Y226444D01*
X60250Y229051D01*
Y231749D01*
X59552Y234356D01*
X58202Y236694D01*
X56294Y238602D01*
X53956Y239951D01*
X51349Y240650D01*
D02*
G37*
G36*
X1347244Y212260D02*
X1345156D01*
X1343226Y211461D01*
X1341749Y209984D01*
X1340950Y208054D01*
Y205966D01*
X1341749Y204036D01*
X1343226Y202559D01*
X1345156Y201760D01*
X1347244D01*
X1349174Y202559D01*
X1350651Y204036D01*
X1351450Y205966D01*
Y208054D01*
X1350651Y209984D01*
X1349174Y211461D01*
X1347244Y212260D01*
D02*
G37*
G36*
X1334544Y232580D02*
X1332456D01*
X1330526Y231781D01*
X1329049Y230304D01*
X1328250Y228374D01*
Y226286D01*
X1329049Y224356D01*
X1330444Y222961D01*
X1330488Y222250D01*
X1330444Y221539D01*
X1329049Y220144D01*
X1328250Y218214D01*
Y216126D01*
X1329049Y214196D01*
X1330444Y212801D01*
X1330488Y212090D01*
X1330444Y211379D01*
X1329049Y209984D01*
X1328250Y208054D01*
Y205966D01*
X1329049Y204036D01*
X1330526Y202559D01*
X1332456Y201760D01*
X1334544D01*
X1336474Y202559D01*
X1337951Y204036D01*
X1338750Y205966D01*
Y208054D01*
X1337951Y209984D01*
X1336556Y211379D01*
X1336512Y212090D01*
X1336556Y212801D01*
X1337951Y214196D01*
X1338750Y216126D01*
Y218214D01*
X1337951Y220144D01*
X1336556Y221539D01*
X1336512Y222250D01*
X1336556Y222961D01*
X1337951Y224356D01*
X1338750Y226286D01*
Y228374D01*
X1337951Y230304D01*
X1336474Y231781D01*
X1334544Y232580D01*
D02*
G37*
G36*
X51349Y215250D02*
X48651D01*
X46044Y214552D01*
X43706Y213202D01*
X41798Y211294D01*
X40448Y208956D01*
X39750Y206349D01*
Y203651D01*
X40448Y201044D01*
X41798Y198706D01*
X43706Y196798D01*
X46044Y195449D01*
X48651Y194750D01*
X51349D01*
X53956Y195449D01*
X56294Y196798D01*
X58202Y198706D01*
X59552Y201044D01*
X60250Y203651D01*
Y206349D01*
X59552Y208956D01*
X58202Y211294D01*
X56294Y213202D01*
X53956Y214552D01*
X51349Y215250D01*
D02*
G37*
G36*
X371900Y221842D02*
X368148D01*
X364524Y220871D01*
X361274Y218995D01*
X358621Y216342D01*
X356745Y213092D01*
X355774Y209468D01*
Y205716D01*
X356745Y202092D01*
X358621Y198842D01*
X361274Y196189D01*
X364524Y194313D01*
X368148Y193342D01*
X371900D01*
X375524Y194313D01*
X378774Y196189D01*
X381427Y198842D01*
X383303Y202092D01*
X384274Y205716D01*
Y209468D01*
X383303Y213092D01*
X381427Y216342D01*
X378774Y218995D01*
X375524Y220871D01*
X371900Y221842D01*
D02*
G37*
G36*
X241852D02*
X238100D01*
X234476Y220871D01*
X231226Y218995D01*
X228573Y216342D01*
X226697Y213092D01*
X225726Y209468D01*
Y205716D01*
X226697Y202092D01*
X228573Y198842D01*
X231226Y196189D01*
X234476Y194313D01*
X238100Y193342D01*
X241852D01*
X245476Y194313D01*
X248726Y196189D01*
X251379Y198842D01*
X253255Y202092D01*
X254226Y205716D01*
Y209468D01*
X253255Y213092D01*
X251379Y216342D01*
X248726Y218995D01*
X245476Y220871D01*
X241852Y221842D01*
D02*
G37*
G36*
X1048794Y202100D02*
X1046706D01*
X1044776Y201301D01*
X1043299Y199824D01*
X1042500Y197894D01*
Y195806D01*
X1043299Y193876D01*
X1044776Y192399D01*
X1046706Y191600D01*
X1048794D01*
X1050724Y192399D01*
X1052201Y193876D01*
X1053000Y195806D01*
Y197894D01*
X1052201Y199824D01*
X1050724Y201301D01*
X1048794Y202100D01*
D02*
G37*
G36*
X1252185Y200400D02*
X1249815D01*
X1247526Y199787D01*
X1245474Y198602D01*
X1243798Y196926D01*
X1242613Y194874D01*
X1242000Y192585D01*
Y190215D01*
X1242613Y187926D01*
X1243798Y185874D01*
X1245474Y184198D01*
X1247526Y183013D01*
X1249815Y182400D01*
X1252185D01*
X1254474Y183013D01*
X1256526Y184198D01*
X1258202Y185874D01*
X1259387Y187926D01*
X1260000Y190215D01*
Y192585D01*
X1259387Y194874D01*
X1258202Y196926D01*
X1256526Y198602D01*
X1254474Y199787D01*
X1252185Y200400D01*
D02*
G37*
G36*
X122964Y184320D02*
X120876D01*
X118946Y183521D01*
X117469Y182044D01*
X116670Y180114D01*
Y178026D01*
X117469Y176096D01*
X118946Y174619D01*
X120876Y173820D01*
X122964D01*
X124894Y174619D01*
X126371Y176096D01*
X127170Y178026D01*
Y180114D01*
X126371Y182044D01*
X124894Y183521D01*
X122964Y184320D01*
D02*
G37*
G36*
X1252185Y175000D02*
X1249815D01*
X1247526Y174387D01*
X1245474Y173202D01*
X1243798Y171526D01*
X1242613Y169474D01*
X1242000Y167185D01*
Y164815D01*
X1242613Y162526D01*
X1243798Y160474D01*
X1245474Y158798D01*
X1247526Y157613D01*
X1249815Y157000D01*
X1252185D01*
X1254474Y157613D01*
X1256526Y158798D01*
X1258202Y160474D01*
X1259387Y162526D01*
X1260000Y164815D01*
Y167185D01*
X1259387Y169474D01*
X1258202Y171526D01*
X1256526Y173202D01*
X1254474Y174387D01*
X1252185Y175000D01*
D02*
G37*
G36*
X1421209Y172810D02*
X1418511D01*
X1415904Y172111D01*
X1413566Y170762D01*
X1411658Y168854D01*
X1410309Y166516D01*
X1409610Y163909D01*
Y161211D01*
X1410309Y158604D01*
X1411658Y156266D01*
X1413566Y154358D01*
X1415904Y153008D01*
X1418511Y152310D01*
X1421209D01*
X1423816Y153008D01*
X1426154Y154358D01*
X1428062Y156266D01*
X1429411Y158604D01*
X1430110Y161211D01*
Y163909D01*
X1429411Y166516D01*
X1428062Y168854D01*
X1426154Y170762D01*
X1423816Y172111D01*
X1421209Y172810D01*
D02*
G37*
G36*
X1404710D02*
X1384210D01*
Y152310D01*
X1404710D01*
Y172810D01*
D02*
G37*
G36*
X1137920Y590633D02*
X990600D01*
X989643Y590237D01*
X989247Y589280D01*
Y528320D01*
X989643Y527363D01*
X990600Y526967D01*
X1095927D01*
Y497840D01*
Y495300D01*
X1096323Y494343D01*
X1097280Y493947D01*
X1179747D01*
Y240920D01*
Y215900D01*
X1180143Y214943D01*
X1181100Y214547D01*
X1281347D01*
Y149860D01*
X1281743Y148903D01*
X1282700Y148507D01*
X1360170D01*
X1361127Y148903D01*
X1361523Y149860D01*
Y175260D01*
X1361127Y176217D01*
X1360170Y176613D01*
X1309453D01*
Y218440D01*
Y240920D01*
X1309057Y241877D01*
X1308100Y242273D01*
X1207853D01*
Y525780D01*
Y528320D01*
X1207457Y529277D01*
X1206500Y529673D01*
X1139273D01*
Y546100D01*
Y581660D01*
Y589280D01*
X1138877Y590237D01*
X1137920Y590633D01*
D02*
G37*
G36*
X1252185Y149600D02*
X1249815D01*
X1247526Y148987D01*
X1245474Y147802D01*
X1243798Y146126D01*
X1242613Y144074D01*
X1242000Y141785D01*
Y139415D01*
X1242613Y137126D01*
X1243798Y135074D01*
X1245474Y133398D01*
X1247526Y132213D01*
X1249815Y131600D01*
X1252185D01*
X1254474Y132213D01*
X1256526Y133398D01*
X1258202Y135074D01*
X1259387Y137126D01*
X1260000Y139415D01*
Y141785D01*
X1259387Y144074D01*
X1258202Y146126D01*
X1256526Y147802D01*
X1254474Y148987D01*
X1252185Y149600D01*
D02*
G37*
G36*
X172494Y137330D02*
X170406D01*
X168476Y136531D01*
X166999Y135054D01*
X166200Y133124D01*
Y131036D01*
X166999Y129106D01*
X168476Y127629D01*
X170406Y126830D01*
X172494D01*
X174424Y127629D01*
X175901Y129106D01*
X176700Y131036D01*
Y133124D01*
X175901Y135054D01*
X174424Y136531D01*
X172494Y137330D01*
D02*
G37*
G36*
X371900Y146658D02*
X368148D01*
X364524Y145687D01*
X361274Y143811D01*
X358621Y141158D01*
X356745Y137908D01*
X355774Y134284D01*
Y130532D01*
X356745Y126908D01*
X358621Y123658D01*
X361274Y121005D01*
X364524Y119129D01*
X368148Y118158D01*
X371900D01*
X375524Y119129D01*
X378774Y121005D01*
X381427Y123658D01*
X383303Y126908D01*
X384274Y130532D01*
Y134284D01*
X383303Y137908D01*
X381427Y141158D01*
X378774Y143811D01*
X375524Y145687D01*
X371900Y146658D01*
D02*
G37*
G36*
X1252185Y124200D02*
X1249815D01*
X1247526Y123587D01*
X1245474Y122402D01*
X1243798Y120726D01*
X1242613Y118674D01*
X1242000Y116385D01*
Y114015D01*
X1242613Y111726D01*
X1243798Y109674D01*
X1245474Y107998D01*
X1247526Y106813D01*
X1249815Y106200D01*
X1252185D01*
X1254474Y106813D01*
X1256526Y107998D01*
X1258202Y109674D01*
X1259387Y111726D01*
X1260000Y114015D01*
Y116385D01*
X1259387Y118674D01*
X1258202Y120726D01*
X1256526Y122402D01*
X1254474Y123587D01*
X1252185Y124200D01*
D02*
G37*
G36*
Y98800D02*
X1249815D01*
X1247526Y98187D01*
X1245474Y97002D01*
X1243798Y95326D01*
X1242613Y93274D01*
X1242000Y90985D01*
Y88615D01*
X1242613Y86326D01*
X1243798Y84274D01*
X1245474Y82598D01*
X1247526Y81413D01*
X1249815Y80800D01*
X1252185D01*
X1254474Y81413D01*
X1256526Y82598D01*
X1258202Y84274D01*
X1259387Y86326D01*
X1260000Y88615D01*
Y90985D01*
X1259387Y93274D01*
X1258202Y95326D01*
X1256526Y97002D01*
X1254474Y98187D01*
X1252185Y98800D01*
D02*
G37*
G36*
X306876Y109066D02*
X303124D01*
X299500Y108095D01*
X296250Y106219D01*
X293597Y103566D01*
X291721Y100316D01*
X290750Y96692D01*
Y92940D01*
X291721Y89316D01*
X293597Y86066D01*
X296250Y83413D01*
X299500Y81537D01*
X303124Y80566D01*
X306876D01*
X310500Y81537D01*
X313750Y83413D01*
X316403Y86066D01*
X318279Y89316D01*
X319250Y92940D01*
Y96692D01*
X318279Y100316D01*
X316403Y103566D01*
X313750Y106219D01*
X310500Y108095D01*
X306876Y109066D01*
D02*
G37*
G36*
X1252185Y73400D02*
X1249815D01*
X1247526Y72787D01*
X1245474Y71602D01*
X1243798Y69926D01*
X1242613Y67874D01*
X1242000Y65585D01*
Y63215D01*
X1242613Y60926D01*
X1243798Y58874D01*
X1245474Y57198D01*
X1247526Y56013D01*
X1249815Y55400D01*
X1252185D01*
X1254474Y56013D01*
X1256526Y57198D01*
X1258202Y58874D01*
X1259387Y60926D01*
X1260000Y63215D01*
Y65585D01*
X1259387Y67874D01*
X1258202Y69926D01*
X1256526Y71602D01*
X1254474Y72787D01*
X1252185Y73400D01*
D02*
G37*
G36*
X951613Y67250D02*
X948387D01*
X945272Y66415D01*
X942478Y64802D01*
X940198Y62522D01*
X938585Y59728D01*
X937750Y56613D01*
Y53387D01*
X938585Y50272D01*
X940198Y47478D01*
X942478Y45198D01*
X945272Y43585D01*
X948387Y42750D01*
X951613D01*
X954728Y43585D01*
X957522Y45198D01*
X959802Y47478D01*
X961415Y50272D01*
X962250Y53387D01*
Y56613D01*
X961415Y59728D01*
X959802Y62522D01*
X957522Y64802D01*
X954728Y66415D01*
X951613Y67250D01*
D02*
G37*
G36*
X551613D02*
X548387D01*
X545272Y66415D01*
X542478Y64802D01*
X540197Y62522D01*
X538585Y59728D01*
X537750Y56613D01*
Y53387D01*
X538585Y50272D01*
X540197Y47478D01*
X542478Y45198D01*
X545272Y43585D01*
X548387Y42750D01*
X551613D01*
X554728Y43585D01*
X557522Y45198D01*
X559803Y47478D01*
X561415Y50272D01*
X562250Y53387D01*
Y56613D01*
X561415Y59728D01*
X559803Y62522D01*
X557522Y64802D01*
X554728Y66415D01*
X551613Y67250D01*
D02*
G37*
G36*
X1213599Y50250D02*
X1210901D01*
X1208294Y49552D01*
X1205956Y48202D01*
X1204048Y46294D01*
X1202699Y43956D01*
X1202000Y41349D01*
Y38651D01*
X1202699Y36044D01*
X1204048Y33706D01*
X1205956Y31798D01*
X1208294Y30449D01*
X1210901Y29750D01*
X1213599D01*
X1216206Y30449D01*
X1218544Y31798D01*
X1220452Y33706D01*
X1221802Y36044D01*
X1222500Y38651D01*
Y41349D01*
X1221802Y43956D01*
X1220452Y46294D01*
X1218544Y48202D01*
X1216206Y49552D01*
X1213599Y50250D01*
D02*
G37*
G36*
X1452459Y81250D02*
X1447541D01*
X1442682Y80480D01*
X1438004Y78960D01*
X1433621Y76727D01*
X1429642Y73836D01*
X1426164Y70358D01*
X1423273Y66379D01*
X1421039Y61996D01*
X1419520Y57318D01*
X1418750Y52459D01*
Y47541D01*
X1419520Y42682D01*
X1421039Y38004D01*
X1423273Y33621D01*
X1426164Y29642D01*
X1429642Y26164D01*
X1433621Y23273D01*
X1438004Y21040D01*
X1442682Y19519D01*
X1447541Y18750D01*
X1452459D01*
X1457318Y19519D01*
X1461996Y21040D01*
X1466379Y23273D01*
X1470358Y26164D01*
X1473836Y29642D01*
X1476727Y33621D01*
X1478961Y38004D01*
X1480480Y42682D01*
X1481250Y47541D01*
Y52459D01*
X1480480Y57318D01*
X1478961Y61996D01*
X1476727Y66379D01*
X1473836Y70358D01*
X1470358Y73836D01*
X1466379Y76727D01*
X1461996Y78960D01*
X1457318Y80480D01*
X1452459Y81250D01*
D02*
G37*
G36*
X52459D02*
X47541D01*
X42682Y80480D01*
X38004Y78960D01*
X33621Y76727D01*
X29642Y73836D01*
X26164Y70358D01*
X23273Y66379D01*
X21040Y61996D01*
X19519Y57318D01*
X18750Y52459D01*
Y47541D01*
X19519Y42682D01*
X21040Y38004D01*
X23273Y33621D01*
X26164Y29642D01*
X29642Y26164D01*
X33621Y23273D01*
X38004Y21040D01*
X42682Y19519D01*
X47541Y18750D01*
X52459D01*
X57318Y19519D01*
X61996Y21040D01*
X66379Y23273D01*
X70358Y26164D01*
X73836Y29642D01*
X76727Y33621D01*
X78960Y38004D01*
X80480Y42682D01*
X81250Y47541D01*
Y52459D01*
X80480Y57318D01*
X78960Y61996D01*
X76727Y66379D01*
X73836Y70358D01*
X70358Y73836D01*
X66379Y76727D01*
X61996Y78960D01*
X57318Y80480D01*
X52459Y81250D01*
D02*
G37*
%LPD*%
G36*
X306078Y799233D02*
X306103Y798943D01*
X306145Y798668D01*
X306203Y798408D01*
X306278Y798163D01*
X306369Y797933D01*
X306477Y797718D01*
X306601Y797518D01*
X306742Y797333D01*
X306900Y797162D01*
X302700D01*
X302858Y797333D01*
X302999Y797518D01*
X303123Y797718D01*
X303231Y797933D01*
X303323Y798163D01*
X303397Y798408D01*
X303455Y798668D01*
X303497Y798943D01*
X303522Y799233D01*
X303530Y799538D01*
X306070D01*
X306078Y799233D01*
D02*
G37*
G36*
X311349Y781690D02*
X311384Y781287D01*
X311446Y780900D01*
X311534Y780531D01*
X311648Y780179D01*
X311789Y779843D01*
X311957Y779524D01*
X312150Y779222D01*
X312371Y778937D01*
X312617Y778669D01*
X310821Y776873D01*
X310553Y777119D01*
X310268Y777339D01*
X309966Y777533D01*
X309647Y777701D01*
X309311Y777841D01*
X308959Y777956D01*
X308589Y778044D01*
X308203Y778106D01*
X307800Y778141D01*
X307380Y778150D01*
X311340Y782110D01*
X311349Y781690D01*
D02*
G37*
G36*
X336558Y626513D02*
X336583Y626223D01*
X336625Y625948D01*
X336683Y625688D01*
X336758Y625443D01*
X336849Y625213D01*
X336957Y624998D01*
X337081Y624798D01*
X337222Y624613D01*
X337380Y624442D01*
X333180D01*
X333338Y624613D01*
X333479Y624798D01*
X333603Y624998D01*
X333711Y625213D01*
X333802Y625443D01*
X333877Y625688D01*
X333935Y625948D01*
X333977Y626223D01*
X334002Y626513D01*
X334010Y626818D01*
X336550D01*
X336558Y626513D01*
D02*
G37*
G36*
X375603Y610610D02*
X375300Y610901D01*
X374990Y611161D01*
X374673Y611390D01*
X374350Y611589D01*
X374019Y611758D01*
X373682Y611895D01*
X373339Y612002D01*
X372988Y612079D01*
X372631Y612125D01*
X372267Y612140D01*
Y614680D01*
X372631Y614695D01*
X372988Y614741D01*
X373339Y614818D01*
X373682Y614925D01*
X374019Y615062D01*
X374350Y615231D01*
X374673Y615430D01*
X374990Y615659D01*
X375300Y615919D01*
X375603Y616210D01*
Y610610D01*
D02*
G37*
G36*
X796063Y786802D02*
X796248Y786661D01*
X796448Y786537D01*
X796663Y786429D01*
X796893Y786338D01*
X797138Y786263D01*
X797398Y786205D01*
X797673Y786163D01*
X797963Y786138D01*
X798268Y786130D01*
Y783590D01*
X797963Y783582D01*
X797673Y783557D01*
X797398Y783515D01*
X797138Y783457D01*
X796893Y783382D01*
X796663Y783291D01*
X796448Y783183D01*
X796248Y783059D01*
X796063Y782918D01*
X795892Y782760D01*
Y786960D01*
X796063Y786802D01*
D02*
G37*
G36*
X858985Y767153D02*
X859208Y766965D01*
X859431Y766800D01*
X859656Y766658D01*
X859882Y766537D01*
X860109Y766439D01*
X860338Y766363D01*
X860567Y766310D01*
X860798Y766279D01*
X861030Y766270D01*
X858060Y763300D01*
X858051Y763532D01*
X858020Y763763D01*
X857967Y763992D01*
X857891Y764221D01*
X857793Y764448D01*
X857672Y764674D01*
X857530Y764899D01*
X857365Y765123D01*
X857177Y765345D01*
X856967Y765567D01*
X858763Y767363D01*
X858985Y767153D01*
D02*
G37*
G36*
X636668Y754820D02*
X636497Y754978D01*
X636312Y755119D01*
X636112Y755243D01*
X635897Y755351D01*
X635667Y755443D01*
X635422Y755517D01*
X635162Y755575D01*
X634887Y755617D01*
X634597Y755642D01*
X634292Y755650D01*
Y758190D01*
X634597Y758198D01*
X634887Y758223D01*
X635162Y758265D01*
X635422Y758323D01*
X635667Y758398D01*
X635897Y758489D01*
X636112Y758597D01*
X636312Y758721D01*
X636497Y758862D01*
X636668Y759020D01*
Y754820D01*
D02*
G37*
G36*
X659528Y744660D02*
X659357Y744818D01*
X659172Y744959D01*
X658972Y745083D01*
X658757Y745191D01*
X658527Y745283D01*
X658282Y745357D01*
X658022Y745415D01*
X657747Y745457D01*
X657457Y745482D01*
X657152Y745490D01*
Y748030D01*
X657457Y748038D01*
X657747Y748063D01*
X658022Y748105D01*
X658282Y748163D01*
X658527Y748238D01*
X658757Y748329D01*
X658972Y748437D01*
X659172Y748561D01*
X659357Y748702D01*
X659528Y748860D01*
Y744660D01*
D02*
G37*
G36*
X593488Y735770D02*
X593317Y735928D01*
X593132Y736069D01*
X592932Y736193D01*
X592717Y736301D01*
X592487Y736393D01*
X592242Y736467D01*
X591982Y736525D01*
X591707Y736567D01*
X591417Y736592D01*
X591112Y736600D01*
Y739140D01*
X591417Y739148D01*
X591707Y739173D01*
X591982Y739215D01*
X592242Y739273D01*
X592487Y739348D01*
X592717Y739439D01*
X592932Y739547D01*
X593132Y739671D01*
X593317Y739812D01*
X593488Y739970D01*
Y735770D01*
D02*
G37*
G36*
X706090Y725980D02*
X705858Y725971D01*
X705627Y725940D01*
X705398Y725887D01*
X705170Y725811D01*
X704942Y725713D01*
X704716Y725592D01*
X704491Y725450D01*
X704268Y725285D01*
X704045Y725097D01*
X703823Y724887D01*
X702027Y726683D01*
X702237Y726905D01*
X702424Y727128D01*
X702590Y727351D01*
X702732Y727576D01*
X702853Y727802D01*
X702951Y728029D01*
X703027Y728258D01*
X703080Y728487D01*
X703111Y728718D01*
X703120Y728950D01*
X706090Y725980D01*
D02*
G37*
G36*
X274093Y659802D02*
X274278Y659661D01*
X274478Y659537D01*
X274693Y659429D01*
X274923Y659337D01*
X275168Y659263D01*
X275428Y659205D01*
X275703Y659163D01*
X275993Y659138D01*
X276298Y659130D01*
Y656590D01*
X275993Y656582D01*
X275703Y656557D01*
X275428Y656515D01*
X275168Y656457D01*
X274923Y656383D01*
X274693Y656291D01*
X274478Y656183D01*
X274278Y656059D01*
X274093Y655918D01*
X273922Y655760D01*
Y659960D01*
X274093Y659802D01*
D02*
G37*
G36*
X277903Y652182D02*
X278088Y652041D01*
X278288Y651917D01*
X278503Y651809D01*
X278733Y651718D01*
X278978Y651643D01*
X279238Y651585D01*
X279513Y651543D01*
X279803Y651518D01*
X280108Y651510D01*
Y648970D01*
X279803Y648962D01*
X279513Y648937D01*
X279238Y648895D01*
X278978Y648837D01*
X278733Y648763D01*
X278503Y648671D01*
X278288Y648563D01*
X278088Y648439D01*
X277903Y648298D01*
X277732Y648140D01*
Y652340D01*
X277903Y652182D01*
D02*
G37*
G36*
X280096Y640328D02*
X279956Y640141D01*
X279833Y639940D01*
X279726Y639724D01*
X279636Y639493D01*
X279562Y639247D01*
X279505Y638987D01*
X279464Y638712D01*
X279439Y638422D01*
X279431Y638117D01*
X276891Y638088D01*
X276882Y638393D01*
X276857Y638683D01*
X276815Y638957D01*
X276757Y639217D01*
X276681Y639461D01*
X276589Y639691D01*
X276480Y639905D01*
X276354Y640104D01*
X276211Y640287D01*
X276052Y640456D01*
X280252Y640499D01*
X280096Y640328D01*
D02*
G37*
G36*
X287692Y630147D02*
X287551Y629962D01*
X287427Y629762D01*
X287319Y629547D01*
X287227Y629317D01*
X287153Y629072D01*
X287095Y628812D01*
X287053Y628537D01*
X287028Y628247D01*
X287020Y627942D01*
X284480D01*
X284472Y628247D01*
X284447Y628537D01*
X284405Y628812D01*
X284347Y629072D01*
X284272Y629317D01*
X284181Y629547D01*
X284073Y629762D01*
X283949Y629962D01*
X283808Y630147D01*
X283650Y630318D01*
X287850D01*
X287692Y630147D01*
D02*
G37*
G36*
X879945Y682104D02*
X880243Y681851D01*
X880541Y681628D01*
X880838Y681435D01*
X881134Y681272D01*
X881430Y681139D01*
X881726Y681037D01*
X882021Y680964D01*
X882316Y680922D01*
X882610Y680910D01*
X878650Y676950D01*
X878638Y677244D01*
X878596Y677539D01*
X878523Y677834D01*
X878421Y678130D01*
X878288Y678426D01*
X878125Y678722D01*
X877932Y679019D01*
X877709Y679317D01*
X877456Y679615D01*
X877172Y679913D01*
X879647Y682388D01*
X879945Y682104D01*
D02*
G37*
G36*
X790338Y678643D02*
X790054Y678345D01*
X789801Y678047D01*
X789578Y677749D01*
X789385Y677452D01*
X789222Y677156D01*
X789089Y676860D01*
X788987Y676564D01*
X788914Y676269D01*
X788872Y675974D01*
X788860Y675680D01*
X784900Y679640D01*
X785194Y679652D01*
X785489Y679694D01*
X785784Y679767D01*
X786080Y679869D01*
X786376Y680002D01*
X786672Y680165D01*
X786969Y680358D01*
X787267Y680581D01*
X787565Y680834D01*
X787863Y681118D01*
X790338Y678643D01*
D02*
G37*
G36*
X1437640Y812800D02*
X1410970D01*
Y675640D01*
X1303020D01*
Y690880D01*
X1395730D01*
Y759968D01*
X1395984Y760222D01*
X1395730Y760476D01*
Y771906D01*
Y772160D01*
Y772414D01*
Y778002D01*
Y781812D01*
Y828040D01*
X1437640D01*
Y812800D01*
D02*
G37*
G36*
X682419Y848138D02*
X682450Y847907D01*
X682503Y847678D01*
X682579Y847449D01*
X682677Y847222D01*
X682798Y846996D01*
X682940Y846771D01*
X683105Y846547D01*
X683293Y846325D01*
X683503Y846103D01*
X681707Y844307D01*
X681485Y844517D01*
X681263Y844705D01*
X681039Y844870D01*
X680814Y845012D01*
X680588Y845133D01*
X680360Y845231D01*
X680132Y845307D01*
X679903Y845360D01*
X679672Y845391D01*
X679440Y845400D01*
X682410Y848370D01*
X682419Y848138D01*
D02*
G37*
G36*
X687539Y792218D02*
X687570Y791987D01*
X687623Y791758D01*
X687699Y791529D01*
X687797Y791302D01*
X687918Y791076D01*
X688060Y790851D01*
X688225Y790628D01*
X688413Y790405D01*
X688623Y790183D01*
X686827Y788387D01*
X686605Y788597D01*
X686383Y788784D01*
X686159Y788950D01*
X685934Y789092D01*
X685708Y789213D01*
X685480Y789311D01*
X685252Y789387D01*
X685023Y789440D01*
X684792Y789471D01*
X684560Y789480D01*
X687530Y792450D01*
X687539Y792218D01*
D02*
G37*
G36*
X384592Y432796D02*
X384231Y432377D01*
X383910Y431879D01*
X383628Y431303D01*
X383385Y430649D01*
X383181Y429916D01*
X383017Y429105D01*
X382891Y428216D01*
X382758Y426202D01*
X382750Y425078D01*
X375078Y432750D01*
X376202Y432758D01*
X378216Y432891D01*
X379105Y433017D01*
X379916Y433181D01*
X380649Y433385D01*
X381303Y433628D01*
X381879Y433910D01*
X382377Y434231D01*
X382796Y434592D01*
X384592Y432796D01*
D02*
G37*
G36*
X239592Y407796D02*
X239231Y407377D01*
X238910Y406879D01*
X238628Y406303D01*
X238385Y405649D01*
X238181Y404916D01*
X238016Y404105D01*
X237891Y403216D01*
X237758Y401202D01*
X237750Y400078D01*
X230077Y407750D01*
X231202Y407758D01*
X233216Y407891D01*
X234105Y408017D01*
X234916Y408181D01*
X235649Y408385D01*
X236303Y408628D01*
X236879Y408910D01*
X237377Y409231D01*
X237796Y409592D01*
X239592Y407796D01*
D02*
G37*
G36*
X295918Y799233D02*
X295943Y798943D01*
X295985Y798668D01*
X296043Y798408D01*
X296117Y798163D01*
X296209Y797933D01*
X296317Y797718D01*
X296441Y797518D01*
X296582Y797333D01*
X296740Y797162D01*
X292540D01*
X292698Y797333D01*
X292839Y797518D01*
X292963Y797718D01*
X293071Y797933D01*
X293162Y798163D01*
X293237Y798408D01*
X293295Y798668D01*
X293337Y798943D01*
X293362Y799233D01*
X293370Y799538D01*
X295910D01*
X295918Y799233D01*
D02*
G37*
G36*
X346718Y626513D02*
X346743Y626223D01*
X346785Y625948D01*
X346843Y625688D01*
X346917Y625443D01*
X347009Y625213D01*
X347117Y624998D01*
X347241Y624798D01*
X347382Y624613D01*
X347540Y624442D01*
X343340D01*
X343498Y624613D01*
X343639Y624798D01*
X343763Y624998D01*
X343871Y625213D01*
X343963Y625443D01*
X344037Y625688D01*
X344095Y625948D01*
X344137Y626223D01*
X344162Y626513D01*
X344170Y626818D01*
X346710D01*
X346718Y626513D01*
D02*
G37*
G36*
X1257300Y610598D02*
Y533400D01*
X1212850D01*
Y596900D01*
X1196340D01*
Y632460D01*
X1235438D01*
X1257300Y610598D01*
D02*
G37*
G36*
X1408938Y515112D02*
X1417574D01*
Y509016D01*
X1405890D01*
Y490982D01*
X1417574D01*
Y484886D01*
X1397000D01*
Y509270D01*
X1352550D01*
Y520700D01*
X1403350D01*
X1408938Y515112D01*
D02*
G37*
G36*
X822362Y757147D02*
X822221Y756962D01*
X822097Y756762D01*
X821989Y756547D01*
X821898Y756317D01*
X821823Y756072D01*
X821765Y755812D01*
X821723Y755537D01*
X821698Y755247D01*
X821690Y754942D01*
X819150D01*
X819142Y755247D01*
X819117Y755537D01*
X819075Y755812D01*
X819017Y756072D01*
X818942Y756317D01*
X818851Y756547D01*
X818743Y756762D01*
X818619Y756962D01*
X818478Y757147D01*
X818320Y757318D01*
X822520D01*
X822362Y757147D01*
D02*
G37*
G36*
X782335Y534149D02*
X782381Y533792D01*
X782458Y533441D01*
X782565Y533098D01*
X782702Y532761D01*
X782871Y532430D01*
X783070Y532107D01*
X783299Y531790D01*
X783559Y531480D01*
X783850Y531177D01*
X778250D01*
X778541Y531480D01*
X778801Y531790D01*
X779030Y532107D01*
X779229Y532430D01*
X779398Y532761D01*
X779535Y533098D01*
X779642Y533441D01*
X779719Y533792D01*
X779765Y534149D01*
X779780Y534513D01*
X782320D01*
X782335Y534149D01*
D02*
G37*
G36*
X683880Y901669D02*
X684190Y901409D01*
X684507Y901180D01*
X684830Y900981D01*
X685161Y900813D01*
X685498Y900675D01*
X685841Y900568D01*
X686192Y900491D01*
X686549Y900445D01*
X686913Y900430D01*
Y897890D01*
X686549Y897875D01*
X686192Y897829D01*
X685841Y897752D01*
X685498Y897645D01*
X685161Y897507D01*
X684830Y897339D01*
X684507Y897140D01*
X684190Y896911D01*
X683880Y896651D01*
X683577Y896360D01*
Y901960D01*
X683880Y901669D01*
D02*
G37*
G36*
X738362Y532189D02*
X738651Y531974D01*
X738944Y531804D01*
X739241Y531679D01*
X739544Y531600D01*
X739850Y531565D01*
X740160Y531575D01*
X740475Y531630D01*
X740795Y531731D01*
X741118Y531876D01*
X739318Y526644D01*
X739140Y527006D01*
X738720Y527738D01*
X738477Y528107D01*
X737925Y528854D01*
X737285Y529610D01*
X736558Y530376D01*
X738077Y532449D01*
X738362Y532189D01*
D02*
G37*
G36*
X755619Y561990D02*
X755359Y561680D01*
X755130Y561363D01*
X754931Y561040D01*
X754762Y560709D01*
X754625Y560372D01*
X754518Y560029D01*
X754441Y559678D01*
X754395Y559321D01*
X754380Y558957D01*
X751840D01*
X751825Y559321D01*
X751779Y559678D01*
X751702Y560029D01*
X751595Y560372D01*
X751458Y560709D01*
X751289Y561040D01*
X751090Y561363D01*
X750861Y561680D01*
X750601Y561990D01*
X750310Y562293D01*
X755910D01*
X755619Y561990D01*
D02*
G37*
G36*
X807680Y528130D02*
X807260Y528121D01*
X806857Y528086D01*
X806470Y528024D01*
X806101Y527936D01*
X805749Y527822D01*
X805413Y527681D01*
X805094Y527513D01*
X804792Y527319D01*
X804507Y527099D01*
X804239Y526853D01*
X802443Y528649D01*
X802689Y528917D01*
X802909Y529202D01*
X803103Y529504D01*
X803271Y529823D01*
X803412Y530159D01*
X803526Y530511D01*
X803614Y530881D01*
X803676Y531267D01*
X803711Y531670D01*
X803720Y532090D01*
X807680Y528130D01*
D02*
G37*
G36*
X716280Y273050D02*
X101600D01*
Y165100D01*
X38100D01*
Y190500D01*
X82550D01*
Y387350D01*
X38100D01*
Y412750D01*
X101600D01*
Y302260D01*
X668020D01*
Y449580D01*
X716280D01*
Y273050D01*
D02*
G37*
G36*
X1249680Y46990D02*
X1229360Y46990D01*
X1211580Y64770D01*
X1221740Y74930D01*
X1249680Y46990D01*
D02*
G37*
G36*
X682459Y860798D02*
X682490Y860567D01*
X682543Y860338D01*
X682619Y860109D01*
X682717Y859882D01*
X682838Y859656D01*
X682980Y859431D01*
X683146Y859208D01*
X683333Y858985D01*
X683543Y858763D01*
X681747Y856967D01*
X681525Y857177D01*
X681302Y857365D01*
X681079Y857530D01*
X680854Y857672D01*
X680628Y857793D01*
X680400Y857891D01*
X680172Y857967D01*
X679943Y858020D01*
X679712Y858051D01*
X679480Y858060D01*
X682450Y861030D01*
X682459Y860798D01*
D02*
G37*
G36*
X384592Y407796D02*
X384231Y407377D01*
X383910Y406879D01*
X383628Y406303D01*
X383385Y405649D01*
X383181Y404916D01*
X383017Y404105D01*
X382891Y403216D01*
X382758Y401202D01*
X382750Y400078D01*
X375078Y407750D01*
X376202Y407758D01*
X378216Y407891D01*
X379105Y408017D01*
X379916Y408181D01*
X380649Y408385D01*
X381303Y408628D01*
X381879Y408910D01*
X382377Y409231D01*
X382796Y409592D01*
X384592Y407796D01*
D02*
G37*
G36*
X1137920Y497840D02*
X1097280D01*
Y528320D01*
X990600D01*
Y589280D01*
X1137920D01*
Y497840D01*
D02*
G37*
D13*
X820420Y735501D02*
Y759460D01*
X839470Y784860D02*
X861060Y763270D01*
X753110Y532130D02*
Y565150D01*
X780880Y609439D02*
Y614841D01*
X781050Y615011D01*
Y528320D02*
Y609269D01*
X780880Y609439D02*
X781050Y609269D01*
Y615011D02*
Y631190D01*
X763270Y648970D02*
X781050Y631190D01*
X328930Y615950D02*
Y760560D01*
X307340Y782150D02*
X328930Y760560D01*
Y615950D02*
X331470Y613410D01*
X378460D01*
X311150Y614680D02*
Y642799D01*
X335280Y622300D02*
Y805180D01*
X296089Y657860D02*
X311150Y642799D01*
X308610Y810260D02*
X330200D01*
X271780Y657860D02*
X296089D01*
X275590Y650240D02*
X293370D01*
X299720Y643890D01*
Y610870D02*
Y643890D01*
X304800Y806450D02*
X308610Y810260D01*
X330200D02*
X335280Y805180D01*
X304800Y795020D02*
Y806450D01*
X299720Y610870D02*
X323850Y586740D01*
X753110Y532130D02*
X768350Y516890D01*
X792480D01*
X807720Y532130D01*
X763270Y648970D02*
Y678352D01*
X820420Y735501D01*
X680720Y899160D02*
X708660D01*
X775970Y713740D02*
Y831850D01*
X708660Y899160D02*
X775970Y831850D01*
X725170Y662940D02*
X775970Y713740D01*
X725170Y543560D02*
Y662940D01*
X741993Y529277D02*
X742950Y528320D01*
X725170Y543560D02*
X739453Y529277D01*
X741993D01*
X345440Y622300D02*
Y808990D01*
X336986Y817444D02*
X345440Y808990D01*
X557530Y737870D02*
X595630D01*
X444500Y624840D02*
X557530Y737870D01*
X440690Y535940D02*
X462280D01*
X271270Y441270D02*
X346020D01*
X440690Y535940D01*
X675640Y674370D02*
X728980Y727710D01*
X684530Y792480D02*
X728980Y748030D01*
Y727710D02*
Y748030D01*
X697230Y796290D02*
X741680Y751840D01*
Y718820D02*
Y751840D01*
X697230Y796290D02*
Y830580D01*
X707390Y801370D02*
X754380Y754380D01*
Y711200D02*
Y754380D01*
X707390Y801370D02*
Y833120D01*
X600710Y674370D02*
X675640D01*
X462280Y535940D02*
X600710Y674370D01*
X230000Y400000D02*
X271270Y441270D01*
X679410Y848400D02*
X697230Y830580D01*
X679450Y861060D02*
X707390Y833120D01*
X688340Y645160D02*
X754380Y711200D01*
X620160Y645160D02*
X688340D01*
X375000Y400000D02*
X620160Y645160D01*
X681990Y659130D02*
X741680Y718820D01*
X544830Y756920D02*
X638810D01*
X386080Y598170D02*
X544830Y756920D01*
X609130Y659130D02*
X681990D01*
X375000Y425000D02*
X609130Y659130D01*
X285750Y610870D02*
Y632460D01*
Y610870D02*
X320040Y576580D01*
X397510D02*
X444500Y623570D01*
X320040Y576580D02*
X397510D01*
X391160Y586740D02*
X551180Y746760D01*
X323850Y586740D02*
X391160D01*
X278161Y609569D02*
Y642589D01*
X327660Y598170D02*
X386080D01*
X278161Y609569D02*
X320040Y567690D01*
X311150Y614680D02*
X327660Y598170D01*
X320040Y567690D02*
X415290D01*
X444500Y623570D02*
Y624840D01*
X688340Y711200D02*
X706120Y728980D01*
X558800Y711200D02*
X688340D01*
X415290Y567690D02*
X558800Y711200D01*
X278130Y642620D02*
X278161Y642589D01*
X551180Y746760D02*
X661670D01*
X294640Y810658D02*
X301426Y817444D01*
X336986D01*
X294640Y795020D02*
Y810658D01*
X793750Y784860D02*
X839470D01*
X506730Y439420D02*
X507198D01*
D137*
X41910Y811530D02*
D03*
X92710Y821690D02*
D03*
Y801370D02*
D03*
D153*
X596250Y507000D02*
D03*
D154*
X608750D02*
D03*
X621250D02*
D03*
X633750D02*
D03*
X646250D02*
D03*
X658750D02*
D03*
X671250D02*
D03*
X683750D02*
D03*
D155*
X1251000Y39000D02*
D03*
D156*
X375000Y425000D02*
D03*
Y450000D02*
D03*
Y400000D02*
D03*
X230000D02*
D03*
Y450000D02*
D03*
X1251000Y64400D02*
D03*
Y89800D02*
D03*
Y115200D02*
D03*
Y140600D02*
D03*
Y166000D02*
D03*
Y191400D02*
D03*
D157*
X386600Y955000D02*
D03*
X361200D02*
D03*
X335800D02*
D03*
X310400D02*
D03*
X285000D02*
D03*
X259600D02*
D03*
X234200D02*
D03*
X50000Y424600D02*
D03*
Y450000D02*
D03*
Y475400D02*
D03*
Y255800D02*
D03*
Y230400D02*
D03*
Y205000D02*
D03*
X550000Y965000D02*
D03*
X524600D02*
D03*
X1212250Y40000D02*
D03*
X1050000Y360000D02*
D03*
X1419860Y162560D02*
D03*
D160*
X1127760Y574040D02*
D03*
X1153160D02*
D03*
D161*
X1178560D02*
D03*
D171*
X784860Y675640D02*
X797560Y688340D01*
X871220D01*
X882650Y676910D01*
D186*
X208800Y955000D02*
D03*
X575400Y965000D02*
D03*
D187*
X435180Y939530D02*
D03*
X165620Y561300D02*
D03*
Y939760D02*
D03*
X434860Y561300D02*
D03*
D188*
X950000Y55000D02*
D03*
Y335000D02*
D03*
X550000D02*
D03*
Y55000D02*
D03*
D189*
X1408250Y536000D02*
D03*
D190*
X1418250Y540050D02*
D03*
Y459950D02*
D03*
D191*
X1421750Y543300D02*
D03*
Y456700D02*
D03*
X1480250D02*
D03*
Y543300D02*
D03*
D192*
X1408250Y464000D02*
D03*
D193*
X1414750Y496000D02*
D03*
Y504000D02*
D03*
X1438910Y499110D02*
D03*
X1386840Y492760D02*
D03*
D194*
X1414750Y488000D02*
D03*
Y472000D02*
D03*
Y512000D02*
D03*
Y528000D02*
D03*
X1421750Y492000D02*
D03*
Y484000D02*
D03*
Y476000D02*
D03*
Y508000D02*
D03*
Y516000D02*
D03*
Y524000D02*
D03*
X820420Y759460D02*
D03*
X861060Y763270D02*
D03*
X1409700Y351790D02*
D03*
X1047750Y872490D02*
D03*
X1029970Y875030D02*
D03*
X1016000Y887730D02*
D03*
X1004570Y901700D02*
D03*
X1002030Y919480D02*
D03*
Y935990D02*
D03*
X1379220Y266700D02*
D03*
Y281940D02*
D03*
X1379010Y274160D02*
D03*
X1010920Y894080D02*
D03*
X511810Y615950D02*
D03*
X1055370Y886460D02*
D03*
X1002030Y928370D02*
D03*
X1047750Y886460D02*
D03*
X1023620Y881380D02*
D03*
X1038860Y872490D02*
D03*
X1027430Y899160D02*
D03*
X1017270Y910590D02*
D03*
X1022042Y904548D02*
D03*
X1209040Y882650D02*
D03*
X1201420D02*
D03*
X1332320Y967740D02*
D03*
X1323340D02*
D03*
X1314360Y981710D02*
D03*
Y967740D02*
D03*
X1332320Y955040D02*
D03*
X1314360D02*
D03*
X1332320Y981710D02*
D03*
X1323340D02*
D03*
Y955040D02*
D03*
X1187630Y967740D02*
D03*
X1178650D02*
D03*
X1169670D02*
D03*
X1187630Y955040D02*
D03*
X1178650D02*
D03*
X1169670D02*
D03*
X1187630Y981710D02*
D03*
X1178650D02*
D03*
X1169670D02*
D03*
X1244600Y924560D02*
D03*
X1257300Y939800D02*
D03*
Y932180D02*
D03*
Y924560D02*
D03*
X1244600Y939800D02*
D03*
Y932180D02*
D03*
X1254760Y914400D02*
D03*
X1248410Y908050D02*
D03*
X1242060Y901700D02*
D03*
X1236326Y895966D02*
D03*
X1230938Y890578D02*
D03*
X1225550Y885190D02*
D03*
X1238250Y918210D02*
D03*
X1231900Y911860D02*
D03*
X1225550Y905510D02*
D03*
X1216660Y882650D02*
D03*
X1201420Y897890D02*
D03*
X1210310D02*
D03*
X1217930Y899160D02*
D03*
X1041400Y976630D02*
D03*
Y970280D02*
D03*
Y963930D02*
D03*
X977900D02*
D03*
Y970280D02*
D03*
Y976630D02*
D03*
X1055370Y872490D02*
D03*
X1033472Y893118D02*
D03*
X1040130Y887730D02*
D03*
X1002030Y910590D02*
D03*
X1017270Y928370D02*
D03*
X1002030Y944880D02*
D03*
X1017270Y937260D02*
D03*
Y944880D02*
D03*
X58420Y826770D02*
D03*
X1465876Y66364D02*
D03*
X1434124Y33636D02*
D03*
X1465876D02*
D03*
X1434124Y66364D02*
D03*
X1472860Y50000D02*
D03*
X1427140D02*
D03*
X1450000Y27140D02*
D03*
Y72860D02*
D03*
X1465876Y966364D02*
D03*
X1434124Y933636D02*
D03*
X1465876D02*
D03*
X1434124Y966364D02*
D03*
X1472860Y950000D02*
D03*
X1427140D02*
D03*
X1450000Y927140D02*
D03*
Y972860D02*
D03*
X65876Y966364D02*
D03*
X34125Y933636D02*
D03*
X65876D02*
D03*
X34125Y966364D02*
D03*
X72860Y950000D02*
D03*
X27140D02*
D03*
X50000Y927140D02*
D03*
Y972860D02*
D03*
X65876Y66364D02*
D03*
X34125Y33636D02*
D03*
X65876D02*
D03*
X34125Y66364D02*
D03*
X72860Y50000D02*
D03*
X27140D02*
D03*
X50000Y27140D02*
D03*
Y72860D02*
D03*
X335280Y622300D02*
D03*
X345440D02*
D03*
X299720Y702310D02*
D03*
X506730Y449580D02*
D03*
X317500Y697230D02*
D03*
X793750Y764540D02*
D03*
X638810Y756920D02*
D03*
X679410Y848400D02*
D03*
X679450Y861060D02*
D03*
X652780Y702310D02*
D03*
X595630Y737870D02*
D03*
X312420Y744220D02*
D03*
X284480Y713740D02*
D03*
X285750Y632460D02*
D03*
X278130Y642620D02*
D03*
X292100Y708660D02*
D03*
X275590Y650240D02*
D03*
X271780Y657860D02*
D03*
X265430Y664210D02*
D03*
X661670Y746760D02*
D03*
X706120Y728980D02*
D03*
X684530Y792480D02*
D03*
X970245Y816305D02*
D03*
X793750Y784860D02*
D03*
X1206500Y789940D02*
D03*
X819100Y899160D02*
D03*
X1240790Y810260D02*
D03*
X855940Y873800D02*
D03*
X855980Y911860D02*
D03*
X854710Y835660D02*
D03*
Y822960D02*
D03*
X1299590Y850000D02*
D03*
Y790000D02*
D03*
X1299210Y769620D02*
D03*
X863600Y886460D02*
D03*
X967170Y783000D02*
D03*
Y794000D02*
D03*
X854710Y797560D02*
D03*
Y784860D02*
D03*
X970245Y805305D02*
D03*
X524510Y610870D02*
D03*
X821690Y861060D02*
D03*
X430530Y783590D02*
D03*
X361950Y806450D02*
D03*
X354394Y795084D02*
D03*
X793750Y773430D02*
D03*
X392430Y699770D02*
D03*
X396240Y706120D02*
D03*
X391160Y712470D02*
D03*
X506730Y439420D02*
D03*
X304800Y795020D02*
D03*
X294640D02*
D03*
X314960Y796290D02*
D03*
X533400Y701040D02*
D03*
X57150Y795020D02*
D03*
X325120Y784860D02*
D03*
X105410Y812800D02*
D03*
X26670Y801370D02*
D03*
X1416558Y607060D02*
D03*
Y598170D02*
D03*
X1409192Y602742D02*
D03*
X1400810Y607060D02*
D03*
X1401064Y598170D02*
D03*
X1375130Y606970D02*
D03*
X1359890D02*
D03*
X1367256Y602906D02*
D03*
X1375130Y598080D02*
D03*
X1359890D02*
D03*
D195*
X300000Y482000D02*
D03*
Y368000D02*
D03*
D196*
X50000Y399200D02*
D03*
Y179600D02*
D03*
X1394460Y162560D02*
D03*
D197*
X239976Y132408D02*
D03*
X370024D02*
D03*
Y207592D02*
D03*
X305000Y94816D02*
D03*
X239976Y207592D02*
D03*
D198*
X1429600Y800260D02*
D03*
D199*
Y820260D02*
D03*
D200*
X1235710Y474980D02*
D03*
X901700Y598170D02*
D03*
X1346200Y161290D02*
D03*
X1013460Y427990D02*
D03*
D201*
X1450000Y50000D02*
D03*
Y950000D02*
D03*
X50000D02*
D03*
Y50000D02*
D03*
D202*
X41910Y836930D02*
D03*
Y786130D02*
D03*
X73660Y836930D02*
D03*
Y786130D02*
D03*
D203*
X1145540Y477520D02*
D03*
X815340Y467360D02*
D03*
X607060Y942340D02*
D03*
X1346200Y207010D02*
D03*
X1135380Y457200D02*
D03*
X1145540D02*
D03*
X1333500Y227330D02*
D03*
Y207010D02*
D03*
Y217170D02*
D03*
X1145540Y467360D02*
D03*
X1285240Y254000D02*
D03*
X1445260Y269240D02*
D03*
X1442720Y346710D02*
D03*
X1193800Y668020D02*
D03*
X692150Y730250D02*
D03*
X1263650Y575310D02*
D03*
X1273810D02*
D03*
X820420Y924560D02*
D03*
X1046480Y435610D02*
D03*
X171450Y132080D02*
D03*
X121920Y179070D02*
D03*
X1036320Y448310D02*
D03*
Y435610D02*
D03*
X321310Y618490D02*
D03*
X1183640Y543560D02*
D03*
X1195070D02*
D03*
Y552450D02*
D03*
X1183640D02*
D03*
X527050Y482600D02*
D03*
X474980Y420370D02*
D03*
X742950Y403860D02*
D03*
X728980Y472440D02*
D03*
X974090Y461010D02*
D03*
X1092200Y702310D02*
D03*
X646430Y924560D02*
D03*
X1031240Y670560D02*
D03*
X1377260Y628900D02*
D03*
X1357630Y720090D02*
D03*
X1257690Y709540D02*
D03*
X1258570Y721360D02*
D03*
X1125220Y457200D02*
D03*
X279400Y810260D02*
D03*
X1423670Y245110D02*
D03*
Y233680D02*
D03*
Y220980D02*
D03*
X1433830D02*
D03*
Y245110D02*
D03*
Y233680D02*
D03*
X128270Y792480D02*
D03*
X1304290Y750570D02*
D03*
X1145540Y869950D02*
D03*
X1361440Y890270D02*
D03*
X1306830Y641350D02*
D03*
X1238250Y642620D02*
D03*
X1276350Y601980D02*
D03*
X1285240Y552450D02*
D03*
Y543560D02*
D03*
X1343660Y537210D02*
D03*
X1459230Y504190D02*
D03*
X1380490Y454660D02*
D03*
X1371600Y416560D02*
D03*
Y438150D02*
D03*
X922020Y731520D02*
D03*
X1050290Y815340D02*
D03*
X1069340Y902970D02*
D03*
X930910Y889000D02*
D03*
X1135380Y769620D02*
D03*
X1098550Y793750D02*
D03*
X570230Y728670D02*
D03*
X633730Y666750D02*
D03*
X398780Y363220D02*
D03*
X205740Y372110D02*
D03*
X119380Y398780D02*
D03*
X511810Y845820D02*
D03*
X735330Y820420D02*
D03*
X411980Y835660D02*
D03*
X808990Y678180D02*
D03*
X739140Y612140D02*
D03*
X748030Y622300D02*
D03*
X756920Y632460D02*
D03*
X739140D02*
D03*
X756920Y612140D02*
D03*
X746760Y820420D02*
D03*
X723900D02*
D03*
X746760Y810260D02*
D03*
X723900D02*
D03*
X735330D02*
D03*
X875030Y494030D02*
D03*
X863600D02*
D03*
X852170D02*
D03*
X199010Y760730D02*
D03*
X95330Y707410D02*
D03*
X220900Y661670D02*
D03*
X200580D02*
D03*
X548620Y817880D02*
D03*
Y840740D02*
D03*
X157460Y716280D02*
D03*
Y736600D02*
D03*
X544830Y875030D02*
D03*
X628540Y942340D02*
D03*
X607060Y858520D02*
D03*
X852009Y509906D02*
D03*
X860899D02*
D03*
X852009Y480696D02*
D03*
X863439D02*
D03*
X950646Y561976D02*
D03*
X977739D02*
D03*
Y544196D02*
D03*
X937099Y561976D02*
D03*
X964193D02*
D03*
X1130300Y523240D02*
D03*
X1117600D02*
D03*
X753110Y565150D02*
D03*
X1057910Y706120D02*
D03*
X543560Y426720D02*
D03*
X222250Y777240D02*
D03*
X591820Y911860D02*
D03*
X307340Y782150D02*
D03*
X378460Y613410D02*
D03*
X876300Y466090D02*
D03*
X1004570Y565150D02*
D03*
Y552450D02*
D03*
Y539750D02*
D03*
X1073150Y575310D02*
D03*
X1085850D02*
D03*
X1098550D02*
D03*
X181610Y678180D02*
D03*
X356870Y775970D02*
D03*
X576580Y582930D02*
D03*
X758190Y477520D02*
D03*
X889000Y462280D02*
D03*
X1043940Y651510D02*
D03*
X715010Y654050D02*
D03*
X775970D02*
D03*
X784860Y675640D02*
D03*
X481330Y482600D02*
D03*
X680720Y899160D02*
D03*
X1079500Y481330D02*
D03*
X1107440Y509270D02*
D03*
X1118870D02*
D03*
X1130300D02*
D03*
X1129030Y539750D02*
D03*
X1117600D02*
D03*
X1106170D02*
D03*
X335280Y852170D02*
D03*
X289560Y824230D02*
D03*
X265430Y810260D02*
D03*
X354330Y636270D02*
D03*
X1130300Y279400D02*
D03*
X1047750Y196850D02*
D03*
X1295400Y129540D02*
D03*
X1285390Y289560D02*
D03*
X74930Y707390D02*
D03*
X882650Y676910D02*
D03*
X1369060Y857250D02*
D03*
X1303020Y594360D02*
D03*
X924560Y847090D02*
D03*
X886460Y763270D02*
D03*
X1098550Y808990D02*
D03*
X187960Y372110D02*
D03*
X1027430Y681990D02*
D03*
X844550Y407670D02*
D03*
Y419100D02*
D03*
Y431800D02*
D03*
X833120Y407670D02*
D03*
Y419100D02*
D03*
X820420D02*
D03*
Y407670D02*
D03*
X703580Y434340D02*
D03*
X692150D02*
D03*
X680720D02*
D03*
X703580Y424180D02*
D03*
X692150D02*
D03*
X680720D02*
D03*
X833120Y431800D02*
D03*
X787400Y492760D02*
D03*
X1008380Y488950D02*
D03*
X1018540D02*
D03*
X1008380Y478790D02*
D03*
X1018540D02*
D03*
X1008380Y497840D02*
D03*
X1018540D02*
D03*
Y506730D02*
D03*
X1008380D02*
D03*
X628650Y858520D02*
D03*
X1320800Y683260D02*
D03*
X1308100D02*
D03*
X909159Y492126D02*
D03*
X1292860Y628650D02*
D03*
X1214120Y626110D02*
D03*
Y617220D02*
D03*
Y608330D02*
D03*
X1203960D02*
D03*
Y617220D02*
D03*
Y626110D02*
D03*
X1248410Y539750D02*
D03*
X1238250D02*
D03*
X1228090D02*
D03*
Y548640D02*
D03*
X1238250D02*
D03*
X1248410D02*
D03*
X1217930D02*
D03*
X1376426Y514096D02*
D03*
X1366774D02*
D03*
X1356868D02*
D03*
X807720Y532130D02*
D03*
X781050Y528320D02*
D03*
X742950D02*
D03*
X758190Y576580D02*
D03*
X744220D02*
D03*
X1027430Y694690D02*
D03*
X1285240Y269240D02*
D03*
D204*
X1117600Y523240D02*
X1118751Y522089D01*
D205*
X1244600Y39370D02*
D03*
D206*
X1102995Y69215D02*
D03*
D207*
X990600Y239395D02*
D03*
D208*
X1330325Y162560D02*
D03*
D209*
X1295400Y184150D02*
D03*
D210*
X1244600Y228410D02*
D03*
D211*
X1193800Y370840D02*
D03*
D212*
X1151890Y511810D02*
D03*
D213*
X1128395Y561340D02*
D03*
D214*
X1118870Y523875D02*
D03*
D215*
X200660Y213995D02*
D03*
D216*
X222250Y132715D02*
D03*
D217*
X167640Y630555D02*
D03*
D218*
X242570Y773430D02*
D03*
D219*
X92075Y522930D02*
D03*
D220*
X408940Y901065D02*
D03*
D221*
X575310Y934085D02*
D03*
D222*
X595302Y473710D02*
D03*
D223*
X629920Y441960D02*
D03*
D224*
X1235710Y499745D02*
D03*
D225*
X1013460Y475615D02*
D03*
D226*
X921385Y419100D02*
D03*
D227*
X1226820Y683260D02*
D03*
D228*
X1153160Y625475D02*
D03*
M02*
