G04*
G04 #@! TF.GenerationSoftware,Altium Limited,Altium Designer,24.9.1 (31)*
G04*
G04 Layer_Color=16711935*
%FSLAX44Y44*%
%MOMM*%
G71*
G04*
G04 #@! TF.SameCoordinates,A601D634-93CA-4805-8520-E3EE879C7AED*
G04*
G04*
G04 #@! TF.FilePolarity,Positive*
G04*
G01*
G75*
%ADD10C,0.1270*%
%ADD13C,0.2540*%
%ADD15C,0.2000*%
%ADD16C,0.1000*%
%ADD231C,0.0254*%
%ADD232C,0.0000*%
D10*
X981420Y681990D02*
G03*
X981420Y681990I-34000J0D01*
G01*
X776305Y405055D02*
G03*
X776305Y405055I-9300J0D01*
G01*
X919300Y925000D02*
G03*
X919300Y925000I-9300J0D01*
G01*
X456340Y875030D02*
G03*
X456340Y875030I-9300J0D01*
G01*
X894300Y925000D02*
G03*
X894300Y925000I-9300J0D01*
G01*
X996420Y698450D02*
X1000420D01*
X998420Y696450D02*
Y700450D01*
X185620Y50620D02*
X414220D01*
X424380D01*
Y289380D01*
X185620D02*
X424380D01*
X185620Y50620D02*
Y289380D01*
X1085610Y666990D02*
Y696990D01*
X1055610D02*
X1085610D01*
X1055610Y666990D02*
Y696990D01*
Y666990D02*
X1085610D01*
X1369010Y289160D02*
X1389010D01*
X1369010Y259160D02*
Y289160D01*
Y259160D02*
X1389010D01*
Y289160D01*
X489190Y438390D02*
Y468390D01*
Y438390D02*
X519190D01*
Y468390D01*
X489190D02*
X519190D01*
X773030Y597300D02*
Y647300D01*
X723030Y597300D02*
Y647300D01*
Y597300D02*
X773030D01*
X723030Y647300D02*
X773030D01*
X1071000Y740000D02*
Y900000D01*
X949000D02*
X1071000D01*
X949000Y740000D02*
Y900000D01*
Y740000D02*
X1071000D01*
D13*
X135140Y891500D02*
Y977860D01*
Y891500D02*
X460260Y891500D01*
X135140Y977860D02*
X460260Y977860D01*
Y891500D02*
Y977860D01*
X34760Y490640D02*
X34760Y383960D01*
X34760Y490640D02*
X65240D01*
X34760Y383960D02*
X65240D01*
X65240Y490640D01*
X65240Y164360D02*
X65240Y271040D01*
X34760Y164360D02*
X65240D01*
X34760Y271040D02*
X65240D01*
X34760D02*
X34760Y164360D01*
X509360Y980240D02*
X590640Y980240D01*
Y949760D02*
Y980240D01*
X509360Y949760D02*
Y980240D01*
Y949760D02*
X590640Y949760D01*
D15*
X1105610Y668990D02*
G03*
X1105610Y668990I-1000J0D01*
G01*
X1400010Y263460D02*
G03*
X1400010Y263460I-1000J0D01*
G01*
X529690Y465390D02*
G03*
X529690Y465390I-1000J0D01*
G01*
X784430Y607300D02*
G03*
X784430Y607300I-1000J0D01*
G01*
X1087000Y746000D02*
G03*
X1087000Y746000I-1000J0D01*
G01*
X659250Y743750D02*
Y1000250D01*
Y743750D02*
X840750D01*
Y1000250D01*
X659250D02*
X840750D01*
X770510Y433810D02*
X786510D01*
X770510D02*
Y462810D01*
X786510D01*
Y433810D02*
Y462810D01*
X1038750Y708010D02*
Y722010D01*
Y708010D02*
X1056750D01*
Y722010D01*
X1038750D02*
X1056750D01*
X1194070Y996950D02*
X1307830D01*
X1202690Y930402D02*
X1299210D01*
Y1078230D01*
X1202690D02*
X1299210D01*
X1202690Y930402D02*
Y1078230D01*
X1023400Y956530D02*
Y984030D01*
X995900D02*
X1023400D01*
X995900Y956530D02*
Y984030D01*
Y956530D02*
X1023400D01*
X568960Y576620D02*
Y607020D01*
Y576620D02*
X582960D01*
Y607020D01*
X568960D02*
X582960D01*
X580250Y461500D02*
X699750D01*
X580250D02*
Y518500D01*
X699750D01*
Y461500D02*
Y518500D01*
X371850Y855870D02*
Y873870D01*
X402850D01*
Y855870D02*
Y873870D01*
X371850Y855870D02*
X402850D01*
X1029590Y506980D02*
Y543980D01*
X1045590D01*
Y506980D02*
Y543980D01*
X1029590Y506980D02*
X1045590D01*
X1391430Y588700D02*
X1425430D01*
X1391430D02*
Y622700D01*
X1425430D01*
Y588700D02*
Y622700D01*
X1034000Y376000D02*
X1266000D01*
Y24000D02*
Y376000D01*
X1034000Y24000D02*
X1266000D01*
X1034000D02*
Y376000D01*
X896659Y541816D02*
X921659D01*
X896659D02*
Y561816D01*
X921659D01*
Y541816D02*
Y561816D01*
X1261350Y591980D02*
Y611980D01*
Y591980D02*
X1291350D01*
Y611980D01*
X1261350D02*
X1291350D01*
X1378070Y671950D02*
X1393070D01*
Y686950D01*
X1378070D02*
X1393070D01*
X1378070Y671950D02*
Y686950D01*
X1067690Y498370D02*
X1083690D01*
Y469370D02*
Y498370D01*
X1067690Y469370D02*
X1083690D01*
X1067690D02*
Y498370D01*
X1335000Y740000D02*
Y900000D01*
X1175000D02*
X1335000D01*
X1175000Y740000D02*
Y900000D01*
Y740000D02*
X1335000D01*
X1189863Y561340D02*
Y586740D01*
X1116457D02*
X1189863D01*
X1116457Y561340D02*
Y586740D01*
Y561340D02*
X1189863D01*
X1234480Y513700D02*
X1264880D01*
Y527700D01*
X1234480D02*
X1264880D01*
X1234480Y513700D02*
Y527700D01*
X1403700Y304350D02*
X1447200D01*
Y343350D01*
X1403700D02*
X1447200D01*
X1403700Y304350D02*
Y343350D01*
X1384510Y588700D02*
Y622700D01*
X1350510D02*
X1384510D01*
X1350510Y588700D02*
Y622700D01*
Y588700D02*
X1384510D01*
X1057080Y507170D02*
X1096840D01*
X1057080D02*
Y546930D01*
X1096840D01*
Y507170D02*
Y546930D01*
X1314590Y532460D02*
X1332090D01*
X1314590D02*
Y541960D01*
X1332090D01*
Y532460D02*
Y541960D01*
D16*
X1401150Y472500D02*
G03*
X1401150Y472500I-500J0D01*
G01*
X1251560Y474980D02*
G03*
X1251560Y474980I-15850J0D01*
G01*
X917550Y598170D02*
G03*
X917550Y598170I-15850J0D01*
G01*
X1362050Y161290D02*
G03*
X1362050Y161290I-15850J0D01*
G01*
X1029310Y427990D02*
G03*
X1029310Y427990I-15850J0D01*
G01*
X1329950Y264490D02*
Y273990D01*
X1347450Y264490D02*
Y273990D01*
X1329950D02*
X1347450D01*
X1329950Y264490D02*
X1347450D01*
X1329830Y284810D02*
Y294310D01*
X1347330Y284810D02*
Y294310D01*
X1329830D02*
X1347330D01*
X1329830Y284810D02*
X1347330D01*
X1395750Y455200D02*
Y544800D01*
X1504250D01*
Y455200D02*
Y544800D01*
X1395750Y455200D02*
X1504250D01*
X735950Y416610D02*
X749950D01*
X735950Y438610D02*
X749950D01*
X735950Y416610D02*
Y438610D01*
X749950Y416610D02*
Y438610D01*
X714610Y433500D02*
Y455500D01*
X728110Y433500D02*
Y455500D01*
X714610Y433500D02*
X728110D01*
X714610Y455500D02*
X728110D01*
X747700Y456470D02*
Y473970D01*
X738200Y456470D02*
Y473970D01*
X747700D01*
X738200Y456470D02*
X747700D01*
X812150Y432230D02*
Y454230D01*
X826150Y432230D02*
Y454230D01*
X812150Y432230D02*
X826150D01*
X812150Y454230D02*
X826150D01*
X228000Y355002D02*
Y494998D01*
X377000D01*
Y355002D02*
Y494998D01*
X228000Y355002D02*
X377000D01*
X80440Y405780D02*
X102440D01*
X80440Y391780D02*
X102440D01*
X80440D02*
Y405780D01*
X102440Y391780D02*
Y405780D01*
X187120Y125080D02*
Y139080D01*
X209120Y125080D02*
Y139080D01*
X187120D02*
X209120D01*
X187120Y125080D02*
X209120D01*
X82980Y186070D02*
X104980D01*
X82980Y172070D02*
X104980D01*
X82980D02*
Y186070D01*
X104980Y172070D02*
Y186070D01*
X1275700Y41070D02*
Y63070D01*
X1289700Y41070D02*
Y63070D01*
X1275700Y41070D02*
X1289700D01*
X1275700Y63070D02*
X1289700D01*
X1350880Y706960D02*
X1364380D01*
X1350880Y684960D02*
X1364380D01*
Y706960D01*
X1350880Y684960D02*
Y706960D01*
X1399110Y701660D02*
Y715660D01*
X1377110Y701660D02*
Y715660D01*
Y701660D02*
X1399110D01*
X1377110Y715660D02*
X1399110D01*
X1231250Y631648D02*
X1245250D01*
X1231250Y609648D02*
X1245250D01*
Y631648D01*
X1231250Y609648D02*
Y631648D01*
X1284840Y681150D02*
X1298340D01*
X1284840Y703150D02*
X1298340D01*
X1284840Y681150D02*
Y703150D01*
X1298340Y681150D02*
Y703150D01*
X1144920Y790370D02*
Y812370D01*
X1130920Y790370D02*
Y812370D01*
X1144920D01*
X1130920Y790370D02*
X1144920D01*
X1123330D02*
Y812370D01*
X1109330Y790370D02*
Y812370D01*
X1123330D01*
X1109330Y790370D02*
X1123330D01*
X1115390Y754520D02*
Y772020D01*
X1124890Y754520D02*
Y772020D01*
X1115390Y754520D02*
X1124890D01*
X1115390Y772020D02*
X1124890D01*
X1098880Y754520D02*
Y772020D01*
X1108380Y754520D02*
Y772020D01*
X1098880Y754520D02*
X1108380D01*
X1098880Y772020D02*
X1108380D01*
X1059610Y659780D02*
X1081610D01*
X1059610Y645780D02*
X1081610D01*
X1059610D02*
Y659780D01*
X1081610Y645780D02*
Y659780D01*
X994700Y708260D02*
X1016700D01*
X994700Y721760D02*
X1016700D01*
Y708260D02*
Y721760D01*
X994700Y708260D02*
Y721760D01*
X929100Y744650D02*
Y766650D01*
X915100Y744650D02*
Y766650D01*
X929100D01*
X915100Y744650D02*
X929100D01*
X908780D02*
Y766650D01*
X894780Y744650D02*
Y766650D01*
X908780D01*
X894780Y744650D02*
X908780D01*
X1037730Y913460D02*
X1055230D01*
X1037730Y922960D02*
X1055230D01*
Y913460D02*
Y922960D01*
X1037730Y913460D02*
Y922960D01*
X1008520Y913460D02*
X1026020D01*
X1008520Y922960D02*
X1026020D01*
Y913460D02*
Y922960D01*
X1008520Y913460D02*
Y922960D01*
X626440Y820560D02*
Y838060D01*
X635940Y820560D02*
Y838060D01*
X626440Y820560D02*
X635940D01*
X626440Y838060D02*
X635940D01*
X611250Y812810D02*
Y845810D01*
X595250Y812810D02*
Y845810D01*
X611250D01*
X595250Y812810D02*
X611250D01*
X561480Y835990D02*
X578980D01*
X561480Y845490D02*
X578980D01*
Y835990D02*
Y845490D01*
X561480Y835990D02*
Y845490D01*
Y813130D02*
X578980D01*
X561480Y822630D02*
X578980D01*
Y813130D02*
Y822630D01*
X561480Y813130D02*
Y822630D01*
X573170Y886890D02*
Y908890D01*
X559670Y886890D02*
Y908890D01*
X573170D01*
X559670Y886890D02*
X573170D01*
X552880Y927720D02*
X574880D01*
X552880Y941720D02*
X574880D01*
Y927720D02*
Y941720D01*
X552880Y927720D02*
Y941720D01*
X583260Y698310D02*
Y715810D01*
X592760Y698310D02*
Y715810D01*
X583260Y698310D02*
X592760D01*
X583260Y715810D02*
X592760D01*
X565480Y715810D02*
X574980D01*
X565480Y698310D02*
X574980D01*
Y715810D01*
X565480Y698310D02*
Y715810D01*
X547700Y715810D02*
X557200D01*
X547700Y698310D02*
X557200D01*
Y715810D01*
X547700Y698310D02*
Y715810D01*
X628980Y636410D02*
Y653910D01*
X638480Y636410D02*
Y653910D01*
X628980Y636410D02*
X638480D01*
X628980Y653910D02*
X638480D01*
X538180Y583070D02*
Y600570D01*
X528680Y583070D02*
Y600570D01*
X538180D01*
X528680Y583070D02*
X538180D01*
X547560Y587900D02*
Y595900D01*
X553560Y587900D02*
Y595900D01*
X547560Y587900D02*
X553560D01*
X547560Y595900D02*
X553560D01*
X515190Y475600D02*
Y489600D01*
X493190Y475600D02*
Y489600D01*
Y475600D02*
X515190D01*
X493190Y489600D02*
X515190D01*
X527190Y446850D02*
Y454850D01*
X544690Y446850D02*
Y454850D01*
X527190D02*
X544690D01*
X527190Y446850D02*
X544690D01*
X467980Y433500D02*
X481980D01*
X467980Y455500D02*
X481980D01*
X467980Y433500D02*
Y455500D01*
X481980Y433500D02*
Y455500D01*
X394030Y430670D02*
Y448170D01*
X403530Y430670D02*
Y448170D01*
X394030Y430670D02*
X403530D01*
X394030Y448170D02*
X403530D01*
X403530Y376060D02*
Y393560D01*
X394030Y376060D02*
Y393560D01*
X403530D01*
X394030Y376060D02*
X403530D01*
X210490Y384950D02*
Y402450D01*
X200990Y384950D02*
Y402450D01*
X210490D01*
X200990Y384950D02*
X210490D01*
X183210D02*
Y402450D01*
X192710Y384950D02*
Y402450D01*
X183210Y384950D02*
X192710D01*
X183210Y402450D02*
X192710D01*
X379870Y823900D02*
X397370D01*
X379870Y814400D02*
X397370D01*
X379870D02*
Y823900D01*
X397370Y814400D02*
Y823900D01*
X379870Y840410D02*
X397370D01*
X379870Y830910D02*
X397370D01*
X379870D02*
Y840410D01*
X397370Y830910D02*
Y840410D01*
X211250Y845090D02*
X233250D01*
X211250Y859090D02*
X233250D01*
Y845090D02*
Y859090D01*
X211250Y845090D02*
Y859090D01*
Y866680D02*
X233250D01*
X211250Y880680D02*
X233250D01*
Y866680D02*
Y880680D01*
X211250Y866680D02*
Y880680D01*
X312741Y869499D02*
X325115Y857124D01*
X318398Y875156D02*
X330772Y862781D01*
X325115Y857124D02*
X330772Y862781D01*
X312741Y869499D02*
X318398Y875156D01*
X738300Y663810D02*
Y677310D01*
X760300Y663810D02*
Y677310D01*
X738300D02*
X760300D01*
X738300Y663810D02*
X760300D01*
X283943Y841559D02*
X296317Y829184D01*
X289599Y847216D02*
X301974Y834841D01*
X296317Y829184D02*
X301974Y834841D01*
X283943Y841559D02*
X289599Y847216D01*
X621540Y908480D02*
Y930480D01*
X635540Y908480D02*
Y930480D01*
X621540Y908480D02*
X635540D01*
X621540Y930480D02*
X635540D01*
X600060Y908480D02*
Y930480D01*
X614060Y908480D02*
Y930480D01*
X600060Y908480D02*
X614060D01*
X600060Y930480D02*
X614060D01*
X614060Y870380D02*
Y892380D01*
X600060Y870380D02*
Y892380D01*
X614060D01*
X600060Y870380D02*
X614060D01*
X811020Y652130D02*
Y666130D01*
X789020Y652130D02*
Y666130D01*
Y652130D02*
X811020D01*
X789020Y666130D02*
X811020D01*
Y631810D02*
Y645810D01*
X789020Y631810D02*
Y645810D01*
Y631810D02*
X811020D01*
X789020Y645810D02*
X811020D01*
X537830Y908890D02*
X551830D01*
X537830Y886890D02*
X551830D01*
Y908890D01*
X537830Y886890D02*
Y908890D01*
X621900Y870380D02*
Y892380D01*
X635400Y870380D02*
Y892380D01*
X621900Y870380D02*
X635400D01*
X621900Y892380D02*
X635400D01*
X1279030Y111570D02*
X1296530D01*
X1279030Y119570D02*
X1296530D01*
Y111570D02*
Y119570D01*
X1279030Y111570D02*
Y119570D01*
X802890Y543700D02*
Y561200D01*
X812390Y543700D02*
Y561200D01*
X802890Y543700D02*
X812390D01*
X802890Y561200D02*
X812390D01*
X710870Y541160D02*
Y558660D01*
X701370Y541160D02*
Y558660D01*
X710870D01*
X701370Y541160D02*
X710870D01*
X494310Y839470D02*
X529310D01*
Y887730D01*
X494310D02*
X529310D01*
X494310Y839470D02*
Y887730D01*
X931369Y547576D02*
X945369D01*
X931369Y525576D02*
X945369D01*
Y547576D01*
X931369Y525576D02*
Y547576D01*
X952309D02*
X966309D01*
X952309Y525576D02*
X966309D01*
Y547576D01*
X952309Y525576D02*
Y547576D01*
X903459Y505256D02*
Y527256D01*
X889459Y505256D02*
Y527256D01*
X903459D01*
X889459Y505256D02*
X903459D01*
X881869D02*
Y527256D01*
X867869Y505256D02*
Y527256D01*
X881869D01*
X867869Y505256D02*
X881869D01*
X1231250Y572312D02*
X1245250D01*
X1231250Y594312D02*
X1245250D01*
X1231250Y572312D02*
Y594312D01*
X1245250Y572312D02*
Y594312D01*
X1275410Y626608D02*
Y644108D01*
X1284910Y626608D02*
Y644108D01*
X1275410Y626608D02*
X1284910D01*
X1275410Y644108D02*
X1284910D01*
X903239Y454896D02*
Y468396D01*
X925239Y454896D02*
Y468396D01*
X903239D02*
X925239D01*
X903239Y454896D02*
X925239D01*
X876279Y475946D02*
X893779D01*
X876279Y485446D02*
X893779D01*
Y475946D02*
Y485446D01*
X876279Y475946D02*
Y485446D01*
X1098880Y437020D02*
Y454520D01*
X1108380Y437020D02*
Y454520D01*
X1098880Y437020D02*
X1108380D01*
X1098880Y454520D02*
X1108380D01*
X1030590Y460170D02*
X1044590D01*
X1030590Y482170D02*
X1044590D01*
X1030590Y460170D02*
Y482170D01*
X1044590Y460170D02*
Y482170D01*
X1100440Y472870D02*
X1114440D01*
X1100440Y494870D02*
X1114440D01*
X1100440Y472870D02*
Y494870D01*
X1114440Y472870D02*
Y494870D01*
X1257630Y626758D02*
X1267130D01*
X1257630Y644258D02*
X1267130D01*
X1257630Y626758D02*
Y644258D01*
X1267130Y626758D02*
Y644258D01*
X1302080Y626478D02*
X1311580D01*
X1302080Y608978D02*
X1311580D01*
Y626478D01*
X1302080Y608978D02*
Y626478D01*
X962069Y454896D02*
Y468396D01*
X940069Y454896D02*
Y468396D01*
Y454896D02*
X962069D01*
X940069Y468396D02*
X962069D01*
X1077830Y434770D02*
Y456770D01*
X1091330Y434770D02*
Y456770D01*
X1077830Y434770D02*
X1091330D01*
X1077830Y456770D02*
X1091330D01*
X1057510Y434770D02*
X1071010D01*
X1057510Y456770D02*
X1071010D01*
X1057510Y434770D02*
Y456770D01*
X1071010Y434770D02*
Y456770D01*
X1377110Y723500D02*
Y737000D01*
X1399110Y723500D02*
Y737000D01*
X1377110D02*
X1399110D01*
X1377110Y723500D02*
X1399110D01*
X1379018Y636796D02*
Y650296D01*
X1357018Y636796D02*
Y650296D01*
Y636796D02*
X1379018D01*
X1357018Y650296D02*
X1379018D01*
X1396160Y637140D02*
Y650640D01*
X1418160Y637140D02*
Y650640D01*
X1396160D02*
X1418160D01*
X1396160Y637140D02*
X1418160D01*
X1278240Y509700D02*
Y531700D01*
X1292240Y509700D02*
Y531700D01*
X1278240Y509700D02*
X1292240D01*
X1278240Y531700D02*
X1292240D01*
X1384730Y409560D02*
X1406730D01*
X1384730Y423560D02*
X1406730D01*
Y409560D02*
Y423560D01*
X1384730Y409560D02*
Y423560D01*
X1410540Y215250D02*
Y229250D01*
X1388540Y215250D02*
Y229250D01*
Y215250D02*
X1410540D01*
X1388540Y229250D02*
X1410540D01*
X1410460Y236840D02*
Y250840D01*
X1388460Y236840D02*
Y250840D01*
Y236840D02*
X1410460D01*
X1388460Y250840D02*
X1410460D01*
X1346630Y236840D02*
Y250840D01*
X1368630Y236840D02*
Y250840D01*
X1346630D02*
X1368630D01*
X1346630Y236840D02*
X1368630D01*
X1346630Y215250D02*
Y229250D01*
X1368630Y215250D02*
Y229250D01*
X1346630D02*
X1368630D01*
X1346630Y215250D02*
X1368630D01*
X1209910Y511700D02*
X1223410D01*
X1209910Y529700D02*
X1223410D01*
X1209910Y511700D02*
Y529700D01*
X1223410Y511700D02*
Y529700D01*
X1307840Y506600D02*
X1338840D01*
X1307840Y522100D02*
X1338840D01*
Y506600D02*
Y522100D01*
X1307840Y506600D02*
Y522100D01*
X1381760Y130810D02*
Y187960D01*
X1432560D01*
Y130810D02*
Y187960D01*
X1381760Y130810D02*
X1432560D01*
X1187050Y509700D02*
Y531700D01*
X1200550Y509700D02*
Y531700D01*
X1187050Y509700D02*
X1200550D01*
X1187050Y531700D02*
X1200550D01*
X1373740Y464640D02*
X1387240D01*
X1373740Y486640D02*
X1387240D01*
X1373740Y464640D02*
Y486640D01*
X1387240Y464640D02*
Y486640D01*
X1384730Y431400D02*
X1406730D01*
X1384730Y444900D02*
X1406730D01*
Y431400D02*
Y444900D01*
X1384730Y431400D02*
Y444900D01*
X1315430Y264490D02*
Y273990D01*
X1297930Y264490D02*
Y273990D01*
Y264490D02*
X1315430D01*
X1297930Y273990D02*
X1315430D01*
X1315580Y284810D02*
Y294310D01*
X1298080Y284810D02*
Y294310D01*
Y284810D02*
X1315580D01*
X1298080Y294310D02*
X1315580D01*
X1411400Y284080D02*
Y297580D01*
X1433400Y284080D02*
Y297580D01*
X1411400D02*
X1433400D01*
X1411400Y284080D02*
X1433400D01*
X1308530Y242170D02*
Y255670D01*
X1330530Y242170D02*
Y255670D01*
X1308530D02*
X1330530D01*
X1308530Y242170D02*
X1330530D01*
X1411400Y275990D02*
X1433400D01*
X1411400Y262490D02*
X1433400D01*
X1411400D02*
Y275990D01*
X1433400Y262490D02*
Y275990D01*
X1260330Y683650D02*
Y700650D01*
X1272830Y683650D02*
Y700650D01*
X1260330D02*
X1272830D01*
X1260330Y683650D02*
X1272830D01*
X1234040Y660830D02*
X1247540D01*
X1234040Y682830D02*
X1247540D01*
X1234040Y660830D02*
Y682830D01*
X1247540Y660830D02*
Y682830D01*
X1234040Y700060D02*
X1247540D01*
X1234040Y722060D02*
X1247540D01*
X1234040Y700060D02*
Y722060D01*
X1247540Y700060D02*
Y722060D01*
X1212840Y682690D02*
X1226340D01*
X1212840Y660690D02*
X1226340D01*
Y682690D01*
X1212840Y660690D02*
Y682690D01*
X90580Y677050D02*
Y694550D01*
X100080Y677050D02*
Y694550D01*
X90580Y677050D02*
X100080D01*
X90580Y694550D02*
X100080D01*
X170320Y731850D02*
X187820D01*
X170320Y741350D02*
X187820D01*
Y731850D02*
Y741350D01*
X170320Y731850D02*
Y741350D01*
Y711530D02*
X187820D01*
X170320Y721030D02*
X187820D01*
Y711530D02*
Y721030D01*
X170320Y711530D02*
Y721030D01*
X1122030Y472870D02*
X1136030D01*
X1122030Y494870D02*
X1136030D01*
X1122030Y472870D02*
Y494870D01*
X1136030Y472870D02*
Y494870D01*
X79760Y677050D02*
Y694550D01*
X70260Y677050D02*
Y694550D01*
X79760D01*
X70260Y677050D02*
X79760D01*
X527190Y434150D02*
Y442150D01*
X544690Y434150D02*
Y442150D01*
X527190D02*
X544690D01*
X527190Y434150D02*
X544690D01*
X1279030Y84900D02*
X1296530D01*
X1279030Y92900D02*
X1296530D01*
Y84900D02*
Y92900D01*
X1279030Y84900D02*
Y92900D01*
X928560Y817900D02*
Y835400D01*
X920560Y817900D02*
Y835400D01*
X928560D01*
X920560Y817900D02*
X928560D01*
X920560Y786390D02*
Y803890D01*
X928560Y786390D02*
Y803890D01*
X920560Y786390D02*
X928560D01*
X920560Y803890D02*
X928560D01*
X413080Y859930D02*
Y877430D01*
X422580Y859930D02*
Y877430D01*
X413080Y859930D02*
X422580D01*
X413080Y877430D02*
X422580D01*
X200360Y711210D02*
X226360D01*
X200360Y744210D02*
X226360D01*
X200360Y711210D02*
Y744210D01*
X226360Y711210D02*
Y744210D01*
X260780Y798210D02*
X282780D01*
X260780Y784210D02*
X282780D01*
X260780D02*
Y798210D01*
X282780Y784210D02*
Y798210D01*
X210870Y753730D02*
X232870D01*
X210870Y767730D02*
X232870D01*
Y753730D02*
Y767730D01*
X210870Y753730D02*
Y767730D01*
X360030Y740840D02*
Y762840D01*
X374030Y740840D02*
Y762840D01*
X360030Y740840D02*
X374030D01*
X360030Y762840D02*
X374030D01*
X207580Y673530D02*
Y695530D01*
X193580Y673530D02*
Y695530D01*
X207580D01*
X193580Y673530D02*
X207580D01*
X227900D02*
Y695530D01*
X213900Y673530D02*
Y695530D01*
X227900D01*
X213900Y673530D02*
X227900D01*
X315390Y649590D02*
X337390D01*
X315390Y663590D02*
X337390D01*
Y649590D02*
Y663590D01*
X315390Y649590D02*
Y663590D01*
Y629270D02*
Y643270D01*
X337390Y629270D02*
Y643270D01*
X315390D02*
X337390D01*
X315390Y629270D02*
X337390D01*
X110770Y693900D02*
X145770D01*
X110770Y753900D02*
X145770D01*
X110770Y693900D02*
Y753900D01*
X145770Y693900D02*
Y753900D01*
X1365060Y829450D02*
Y846950D01*
X1373060Y829450D02*
Y846950D01*
X1365060Y829450D02*
X1373060D01*
X1365060Y846950D02*
X1373060D01*
X590980Y548020D02*
X612980D01*
X590980Y534020D02*
X612980D01*
X590980D02*
Y548020D01*
X612980Y534020D02*
Y548020D01*
X769760Y482270D02*
X787260D01*
X769760Y472770D02*
X787260D01*
X769760D02*
Y482270D01*
X787260Y472770D02*
Y482270D01*
D231*
X914620Y493269D02*
Y506223D01*
Y493269D02*
X936718D01*
Y506223D01*
X914620D02*
X936718D01*
D232*
X933931Y504191D02*
G03*
X933931Y504191I-762J0D01*
G01*
X936718Y502794D02*
G03*
X936718Y496698I0J-3048D01*
G01*
M02*
