G04*
G04 #@! TF.GenerationSoftware,Altium Limited,Altium Designer,24.9.1 (31)*
G04*
G04 Layer_Color=2752767*
%FSLAX44Y44*%
%MOMM*%
G71*
G04*
G04 #@! TF.SameCoordinates,A601D634-93CA-4805-8520-E3EE879C7AED*
G04*
G04*
G04 #@! TF.FilePolarity,Positive*
G04*
G01*
G75*
%ADD10C,0.1270*%
%ADD235C,0.1693*%
%ADD236C,0.1016*%
D10*
X381520Y949920D02*
X384060Y955000D01*
X381520Y960080D01*
X386600Y957540D01*
X391680Y960080D01*
X389140Y955000D01*
X391680Y949920D01*
X386600Y952460D01*
X381520Y949920D01*
X356120D02*
X358660Y955000D01*
X356120Y960080D01*
X361200Y957540D01*
X366280Y960080D01*
X363740Y955000D01*
X366280Y949920D01*
X361200Y952460D01*
X356120Y949920D01*
X330720D02*
X333260Y955000D01*
X330720Y960080D01*
X335800Y957540D01*
X340880Y960080D01*
X338340Y955000D01*
X340880Y949920D01*
X335800Y952460D01*
X330720Y949920D01*
X305320D02*
X307860Y955000D01*
X305320Y960080D01*
X310400Y957540D01*
X315480Y960080D01*
X312940Y955000D01*
X315480Y949920D01*
X310400Y952460D01*
X305320Y949920D01*
X279920D02*
X282460Y955000D01*
X279920Y960080D01*
X285000Y957540D01*
X290080Y960080D01*
X287540Y955000D01*
X290080Y949920D01*
X285000Y952460D01*
X279920Y949920D01*
X254520D02*
X257060Y955000D01*
X254520Y960080D01*
X259600Y957540D01*
X264680Y960080D01*
X262140Y955000D01*
X264680Y949920D01*
X259600Y952460D01*
X254520Y949920D01*
X229120D02*
X231660Y955000D01*
X229120Y960080D01*
X234200Y957540D01*
X239280Y960080D01*
X236740Y955000D01*
X239280Y949920D01*
X234200Y952460D01*
X229120Y949920D01*
X203720D02*
X206260Y955000D01*
X203720Y960080D01*
X208800Y957540D01*
X213880Y960080D01*
X211340Y955000D01*
X213880Y949920D01*
X208800Y952460D01*
X203720Y949920D01*
X435180Y939530D02*
Y947994D01*
X439412Y952226D01*
X443644Y947994D01*
Y939530D01*
Y945878D01*
X435180D01*
X165620Y561300D02*
Y569764D01*
X169852Y573996D01*
X174084Y569764D01*
Y561300D01*
Y567648D01*
X165620D01*
Y939760D02*
Y948224D01*
X169852Y952456D01*
X174084Y948224D01*
Y939760D01*
Y946108D01*
X165620D01*
X434860Y561300D02*
Y569764D01*
X439092Y573996D01*
X443324Y569764D01*
Y561300D01*
Y567648D01*
X434860D01*
X950000Y49920D02*
X944920Y60080D01*
X955080D01*
X950000Y49920D01*
Y329920D02*
X944920Y340080D01*
X955080D01*
X950000Y329920D01*
X550000D02*
X544920Y340080D01*
X555080D01*
X550000Y329920D01*
Y49920D02*
X544920Y60080D01*
X555080D01*
X550000Y49920D01*
X1413170Y540050D02*
X1418250Y545130D01*
X1423330Y540050D01*
X1418250Y534970D01*
X1413170Y540050D01*
X1419210Y540760D02*
Y538220D01*
X1424290D01*
Y540760D01*
X1426830D01*
Y545840D01*
X1424290D01*
Y548380D01*
X1419210D01*
Y545840D01*
X1416670D01*
Y540760D01*
X1419210D01*
Y454160D02*
Y451620D01*
X1424290D01*
Y454160D01*
X1426830D01*
Y459240D01*
X1424290D01*
Y461780D01*
X1419210D01*
Y459240D01*
X1416670D01*
Y454160D01*
X1419210D01*
X1403170Y458920D02*
Y469080D01*
X1413330D01*
Y458920D01*
X1403170D01*
X1405202Y460952D02*
Y467048D01*
X1411298D01*
Y460952D01*
X1405202D01*
X1423214Y506580D02*
X1421098Y508696D01*
X1416866D01*
X1414750Y506580D01*
Y498116D01*
X1416866Y496000D01*
X1421098D01*
X1423214Y498116D01*
Y502348D01*
X1418982D01*
X1413170Y459950D02*
X1418250Y465030D01*
X1423330Y459950D01*
X1418250Y454870D01*
X1413170Y459950D01*
X1409670Y482920D02*
X1412210D01*
X1414750Y485460D01*
X1417290Y482920D01*
X1419830D01*
Y485460D01*
X1417290Y488000D01*
X1419830Y490540D01*
Y493080D01*
X1417290D01*
X1414750Y490540D01*
X1412210Y493080D01*
X1409670D01*
Y490540D01*
X1412210Y488000D01*
X1409670Y485460D01*
Y482920D01*
Y466920D02*
X1412210D01*
X1414750Y469460D01*
X1417290Y466920D01*
X1419830D01*
Y469460D01*
X1417290Y472000D01*
X1419830Y474540D01*
Y477080D01*
X1417290D01*
X1414750Y474540D01*
X1412210Y477080D01*
X1409670D01*
Y474540D01*
X1412210Y472000D01*
X1409670Y469460D01*
Y466920D01*
X1423214Y514580D02*
X1421098Y516696D01*
X1416866D01*
X1414750Y514580D01*
Y506116D01*
X1416866Y504000D01*
X1421098D01*
X1423214Y506116D01*
Y510348D01*
X1418982D01*
X1409670Y506920D02*
X1412210D01*
X1414750Y509460D01*
X1417290Y506920D01*
X1419830D01*
Y509460D01*
X1417290Y512000D01*
X1419830Y514540D01*
Y517080D01*
X1417290D01*
X1414750Y514540D01*
X1412210Y517080D01*
X1409670D01*
Y514540D01*
X1412210Y512000D01*
X1409670Y509460D01*
Y506920D01*
Y522920D02*
X1412210D01*
X1414750Y525460D01*
X1417290Y522920D01*
X1419830D01*
Y525460D01*
X1417290Y528000D01*
X1419830Y530540D01*
Y533080D01*
X1417290D01*
X1414750Y530540D01*
X1412210Y533080D01*
X1409670D01*
Y530540D01*
X1412210Y528000D01*
X1409670Y525460D01*
Y522920D01*
X1416670Y486920D02*
X1419210D01*
X1421750Y489460D01*
X1424290Y486920D01*
X1426830D01*
Y489460D01*
X1424290Y492000D01*
X1426830Y494540D01*
Y497080D01*
X1424290D01*
X1421750Y494540D01*
X1419210Y497080D01*
X1416670D01*
Y494540D01*
X1419210Y492000D01*
X1416670Y489460D01*
Y486920D01*
Y478920D02*
X1419210D01*
X1421750Y481460D01*
X1424290Y478920D01*
X1426830D01*
Y481460D01*
X1424290Y484000D01*
X1426830Y486540D01*
Y489080D01*
X1424290D01*
X1421750Y486540D01*
X1419210Y489080D01*
X1416670D01*
Y486540D01*
X1419210Y484000D01*
X1416670Y481460D01*
Y478920D01*
Y470920D02*
X1419210D01*
X1421750Y473460D01*
X1424290Y470920D01*
X1426830D01*
Y473460D01*
X1424290Y476000D01*
X1426830Y478540D01*
Y481080D01*
X1424290D01*
X1421750Y478540D01*
X1419210Y481080D01*
X1416670D01*
Y478540D01*
X1419210Y476000D01*
X1416670Y473460D01*
Y470920D01*
Y502920D02*
X1419210D01*
X1421750Y505460D01*
X1424290Y502920D01*
X1426830D01*
Y505460D01*
X1424290Y508000D01*
X1426830Y510540D01*
Y513080D01*
X1424290D01*
X1421750Y510540D01*
X1419210Y513080D01*
X1416670D01*
Y510540D01*
X1419210Y508000D01*
X1416670Y505460D01*
Y502920D01*
Y510920D02*
X1419210D01*
X1421750Y513460D01*
X1424290Y510920D01*
X1426830D01*
Y513460D01*
X1424290Y516000D01*
X1426830Y518540D01*
Y521080D01*
X1424290D01*
X1421750Y518540D01*
X1419210Y521080D01*
X1416670D01*
Y518540D01*
X1419210Y516000D01*
X1416670Y513460D01*
Y510920D01*
Y518920D02*
X1419210D01*
X1421750Y521460D01*
X1424290Y518920D01*
X1426830D01*
Y521460D01*
X1424290Y524000D01*
X1426830Y526540D01*
Y529080D01*
X1424290D01*
X1421750Y526540D01*
X1419210Y529080D01*
X1416670D01*
Y526540D01*
X1419210Y524000D01*
X1416670Y521460D01*
Y518920D01*
X1477710Y454160D02*
Y451620D01*
X1482790D01*
Y454160D01*
X1485330D01*
Y459240D01*
X1482790D01*
Y461780D01*
X1477710D01*
Y459240D01*
X1475170D01*
Y454160D01*
X1477710D01*
Y540760D02*
Y538220D01*
X1482790D01*
Y540760D01*
X1485330D01*
Y545840D01*
X1482790D01*
Y548380D01*
X1477710D01*
Y545840D01*
X1475170D01*
Y540760D01*
X1477710D01*
X300000Y494696D02*
Y482000D01*
X306348D01*
X308464Y484116D01*
Y492580D01*
X306348Y494696D01*
X300000D01*
Y380696D02*
Y368000D01*
X306348D01*
X308464Y370116D01*
Y378580D01*
X306348Y380696D01*
X300000D01*
X383464Y435580D02*
X381348Y437696D01*
X377116D01*
X375000Y435580D01*
Y427116D01*
X377116Y425000D01*
X381348D01*
X383464Y427116D01*
Y460580D02*
X381348Y462696D01*
X377116D01*
X375000Y460580D01*
Y452116D01*
X377116Y450000D01*
X381348D01*
X383464Y452116D01*
Y410580D02*
X381348Y412696D01*
X377116D01*
X375000Y410580D01*
Y402116D01*
X377116Y400000D01*
X381348D01*
X383464Y402116D01*
X238464Y410580D02*
X236348Y412696D01*
X232116D01*
X230000Y410580D01*
Y402116D01*
X232116Y400000D01*
X236348D01*
X238464Y402116D01*
Y460580D02*
X236348Y462696D01*
X232116D01*
X230000Y460580D01*
Y452116D01*
X232116Y450000D01*
X236348D01*
X238464Y452116D01*
X44920Y394120D02*
X47460Y399200D01*
X44920Y404280D01*
X50000Y401740D01*
X55080Y404280D01*
X52540Y399200D01*
X55080Y394120D01*
X50000Y396660D01*
X44920Y394120D01*
Y419520D02*
X47460Y424600D01*
X44920Y429680D01*
X50000Y427140D01*
X55080Y429680D01*
X52540Y424600D01*
X55080Y419520D01*
X50000Y422060D01*
X44920Y419520D01*
Y444920D02*
X47460Y450000D01*
X44920Y455080D01*
X50000Y452540D01*
X55080Y455080D01*
X52540Y450000D01*
X55080Y444920D01*
X50000Y447460D01*
X44920Y444920D01*
Y470320D02*
X47460Y475400D01*
X44920Y480480D01*
X50000Y477940D01*
X55080Y480480D01*
X52540Y475400D01*
X55080Y470320D01*
X50000Y472860D01*
X44920Y470320D01*
Y250720D02*
X47460Y255800D01*
X44920Y260880D01*
X50000Y258340D01*
X55080Y260880D01*
X52540Y255800D01*
X55080Y250720D01*
X50000Y253260D01*
X44920Y250720D01*
Y225320D02*
X47460Y230400D01*
X44920Y235480D01*
X50000Y232940D01*
X55080Y235480D01*
X52540Y230400D01*
X55080Y225320D01*
X50000Y227860D01*
X44920Y225320D01*
Y199920D02*
X47460Y205000D01*
X44920Y210080D01*
X50000Y207540D01*
X55080Y210080D01*
X52540Y205000D01*
X55080Y199920D01*
X50000Y202460D01*
X44920Y199920D01*
Y174520D02*
X47460Y179600D01*
X44920Y184680D01*
X50000Y182140D01*
X55080Y184680D01*
X52540Y179600D01*
X55080Y174520D01*
X50000Y177060D01*
X44920Y174520D01*
X239976Y127328D02*
X242516Y129868D01*
X245056D01*
X242516Y132408D01*
X245056Y134948D01*
X242516D01*
X239976Y137488D01*
X237436Y134948D01*
X234896D01*
X237436Y132408D01*
X234896Y129868D01*
X237436D01*
X239976Y127328D01*
Y129360D02*
X241500Y130884D01*
X243024D01*
X241500Y132408D01*
X243024Y133932D01*
X241500D01*
X239976Y135456D01*
X238452Y133932D01*
X236928D01*
X238452Y132408D01*
X236928Y130884D01*
X238452D01*
X239976Y129360D01*
X370024Y127328D02*
X372564Y129868D01*
X375104D01*
X372564Y132408D01*
X375104Y134948D01*
X372564D01*
X370024Y137488D01*
X367484Y134948D01*
X364944D01*
X367484Y132408D01*
X364944Y129868D01*
X367484D01*
X370024Y127328D01*
Y129360D02*
X371548Y130884D01*
X373072D01*
X371548Y132408D01*
X373072Y133932D01*
X371548D01*
X370024Y135456D01*
X368500Y133932D01*
X366976D01*
X368500Y132408D01*
X366976Y130884D01*
X368500D01*
X370024Y129360D01*
Y202512D02*
X372564Y205052D01*
X375104D01*
X372564Y207592D01*
X375104Y210132D01*
X372564D01*
X370024Y212672D01*
X367484Y210132D01*
X364944D01*
X367484Y207592D01*
X364944Y205052D01*
X367484D01*
X370024Y202512D01*
Y204544D02*
X371548Y206068D01*
X373072D01*
X371548Y207592D01*
X373072Y209116D01*
X371548D01*
X370024Y210640D01*
X368500Y209116D01*
X366976D01*
X368500Y207592D01*
X366976Y206068D01*
X368500D01*
X370024Y204544D01*
X305000Y89736D02*
X307540Y92276D01*
X310080D01*
X307540Y94816D01*
X310080Y97356D01*
X307540D01*
X305000Y99896D01*
X302460Y97356D01*
X299920D01*
X302460Y94816D01*
X299920Y92276D01*
X302460D01*
X305000Y89736D01*
Y91768D02*
X306524Y93292D01*
X308048D01*
X306524Y94816D01*
X308048Y96340D01*
X306524D01*
X305000Y97864D01*
X303476Y96340D01*
X301952D01*
X303476Y94816D01*
X301952Y93292D01*
X303476D01*
X305000Y91768D01*
X239976Y202512D02*
X242516Y205052D01*
X245056D01*
X242516Y207592D01*
X245056Y210132D01*
X242516D01*
X239976Y212672D01*
X237436Y210132D01*
X234896D01*
X237436Y207592D01*
X234896Y205052D01*
X237436D01*
X239976Y202512D01*
Y204544D02*
X241500Y206068D01*
X243024D01*
X241500Y207592D01*
X243024Y209116D01*
X241500D01*
X239976Y210640D01*
X238452Y209116D01*
X236928D01*
X238452Y207592D01*
X236928Y206068D01*
X238452D01*
X239976Y204544D01*
X544920Y959920D02*
X547460Y965000D01*
X544920Y970080D01*
X550000Y967540D01*
X555080Y970080D01*
X552540Y965000D01*
X555080Y959920D01*
X550000Y962460D01*
X544920Y959920D01*
X570320D02*
X572860Y965000D01*
X570320Y970080D01*
X575400Y967540D01*
X580480Y970080D01*
X577940Y965000D01*
X580480Y959920D01*
X575400Y962460D01*
X570320Y959920D01*
X519520D02*
X522060Y965000D01*
X519520Y970080D01*
X524600Y967540D01*
X529680Y970080D01*
X527140Y965000D01*
X529680Y959920D01*
X524600Y962460D01*
X519520Y959920D01*
X591170Y501920D02*
X593710D01*
X596250Y504460D01*
X598790Y501920D01*
X601330D01*
Y504460D01*
X598790Y507000D01*
X601330Y509540D01*
Y512080D01*
X598790D01*
X596250Y509540D01*
X593710Y512080D01*
X591170D01*
Y509540D01*
X593710Y507000D01*
X591170Y504460D01*
Y501920D01*
X593202Y503952D02*
X594726D01*
X596250Y505476D01*
X597774Y503952D01*
X599298D01*
Y505476D01*
X597774Y507000D01*
X599298Y508524D01*
Y510048D01*
X597774D01*
X596250Y508524D01*
X594726Y510048D01*
X593202D01*
Y508524D01*
X594726Y507000D01*
X593202Y505476D01*
Y503952D01*
X603670Y501920D02*
X606210D01*
X608750Y504460D01*
X611290Y501920D01*
X613830D01*
Y504460D01*
X611290Y507000D01*
X613830Y509540D01*
Y512080D01*
X611290D01*
X608750Y509540D01*
X606210Y512080D01*
X603670D01*
Y509540D01*
X606210Y507000D01*
X603670Y504460D01*
Y501920D01*
X605702Y503952D02*
X607226D01*
X608750Y505476D01*
X610274Y503952D01*
X611798D01*
Y505476D01*
X610274Y507000D01*
X611798Y508524D01*
Y510048D01*
X610274D01*
X608750Y508524D01*
X607226Y510048D01*
X605702D01*
Y508524D01*
X607226Y507000D01*
X605702Y505476D01*
Y503952D01*
X616170Y501920D02*
X618710D01*
X621250Y504460D01*
X623790Y501920D01*
X626330D01*
Y504460D01*
X623790Y507000D01*
X626330Y509540D01*
Y512080D01*
X623790D01*
X621250Y509540D01*
X618710Y512080D01*
X616170D01*
Y509540D01*
X618710Y507000D01*
X616170Y504460D01*
Y501920D01*
X618202Y503952D02*
X619726D01*
X621250Y505476D01*
X622774Y503952D01*
X624298D01*
Y505476D01*
X622774Y507000D01*
X624298Y508524D01*
Y510048D01*
X622774D01*
X621250Y508524D01*
X619726Y510048D01*
X618202D01*
Y508524D01*
X619726Y507000D01*
X618202Y505476D01*
Y503952D01*
X628670Y501920D02*
X631210D01*
X633750Y504460D01*
X636290Y501920D01*
X638830D01*
Y504460D01*
X636290Y507000D01*
X638830Y509540D01*
Y512080D01*
X636290D01*
X633750Y509540D01*
X631210Y512080D01*
X628670D01*
Y509540D01*
X631210Y507000D01*
X628670Y504460D01*
Y501920D01*
X630702Y503952D02*
X632226D01*
X633750Y505476D01*
X635274Y503952D01*
X636798D01*
Y505476D01*
X635274Y507000D01*
X636798Y508524D01*
Y510048D01*
X635274D01*
X633750Y508524D01*
X632226Y510048D01*
X630702D01*
Y508524D01*
X632226Y507000D01*
X630702Y505476D01*
Y503952D01*
X641170Y501920D02*
X643710D01*
X646250Y504460D01*
X648790Y501920D01*
X651330D01*
Y504460D01*
X648790Y507000D01*
X651330Y509540D01*
Y512080D01*
X648790D01*
X646250Y509540D01*
X643710Y512080D01*
X641170D01*
Y509540D01*
X643710Y507000D01*
X641170Y504460D01*
Y501920D01*
X643202Y503952D02*
X644726D01*
X646250Y505476D01*
X647774Y503952D01*
X649298D01*
Y505476D01*
X647774Y507000D01*
X649298Y508524D01*
Y510048D01*
X647774D01*
X646250Y508524D01*
X644726Y510048D01*
X643202D01*
Y508524D01*
X644726Y507000D01*
X643202Y505476D01*
Y503952D01*
X653670Y501920D02*
X656210D01*
X658750Y504460D01*
X661290Y501920D01*
X663830D01*
Y504460D01*
X661290Y507000D01*
X663830Y509540D01*
Y512080D01*
X661290D01*
X658750Y509540D01*
X656210Y512080D01*
X653670D01*
Y509540D01*
X656210Y507000D01*
X653670Y504460D01*
Y501920D01*
X655702Y503952D02*
X657226D01*
X658750Y505476D01*
X660274Y503952D01*
X661798D01*
Y505476D01*
X660274Y507000D01*
X661798Y508524D01*
Y510048D01*
X660274D01*
X658750Y508524D01*
X657226Y510048D01*
X655702D01*
Y508524D01*
X657226Y507000D01*
X655702Y505476D01*
Y503952D01*
X666170Y501920D02*
X668710D01*
X671250Y504460D01*
X673790Y501920D01*
X676330D01*
Y504460D01*
X673790Y507000D01*
X676330Y509540D01*
Y512080D01*
X673790D01*
X671250Y509540D01*
X668710Y512080D01*
X666170D01*
Y509540D01*
X668710Y507000D01*
X666170Y504460D01*
Y501920D01*
X668202Y503952D02*
X669726D01*
X671250Y505476D01*
X672774Y503952D01*
X674298D01*
Y505476D01*
X672774Y507000D01*
X674298Y508524D01*
Y510048D01*
X672774D01*
X671250Y508524D01*
X669726Y510048D01*
X668202D01*
Y508524D01*
X669726Y507000D01*
X668202Y505476D01*
Y503952D01*
X678670Y501920D02*
X681210D01*
X683750Y504460D01*
X686290Y501920D01*
X688830D01*
Y504460D01*
X686290Y507000D01*
X688830Y509540D01*
Y512080D01*
X686290D01*
X683750Y509540D01*
X681210Y512080D01*
X678670D01*
Y509540D01*
X681210Y507000D01*
X678670Y504460D01*
Y501920D01*
X680702Y503952D02*
X682226D01*
X683750Y505476D01*
X685274Y503952D01*
X686798D01*
Y505476D01*
X685274Y507000D01*
X686798Y508524D01*
Y510048D01*
X685274D01*
X683750Y508524D01*
X682226Y510048D01*
X680702D01*
Y508524D01*
X682226Y507000D01*
X680702Y505476D01*
Y503952D01*
X1207170Y34920D02*
Y45080D01*
X1217330D01*
Y34920D01*
X1207170D01*
X1044920Y354920D02*
Y365080D01*
X1055080D01*
Y354920D01*
X1044920D01*
X1429600Y795180D02*
X1424520Y805340D01*
X1434680D01*
X1429600Y795180D01*
Y797212D02*
X1426552Y803308D01*
X1432648D01*
X1429600Y797212D01*
Y815180D02*
X1424520Y825340D01*
X1434680D01*
X1429600Y815180D01*
Y817212D02*
X1426552Y823308D01*
X1432648D01*
X1429600Y817212D01*
X1122680Y568960D02*
X1125220Y574040D01*
X1122680Y579120D01*
X1127760Y576580D01*
X1132840Y579120D01*
X1130300Y574040D01*
X1132840Y568960D01*
X1127760Y571500D01*
X1122680Y568960D01*
X1124712Y570992D02*
X1126236Y574040D01*
X1124712Y577088D01*
X1127760Y575564D01*
X1130808Y577088D01*
X1129284Y574040D01*
X1130808Y570992D01*
X1127760Y572516D01*
X1124712Y570992D01*
X1148080Y568960D02*
X1150620Y574040D01*
X1148080Y579120D01*
X1153160Y576580D01*
X1158240Y579120D01*
X1155700Y574040D01*
X1158240Y568960D01*
X1153160Y571500D01*
X1148080Y568960D01*
X1150112Y570992D02*
X1151636Y574040D01*
X1150112Y577088D01*
X1153160Y575564D01*
X1156208Y577088D01*
X1154684Y574040D01*
X1156208Y570992D01*
X1153160Y572516D01*
X1150112Y570992D01*
X1173480Y568960D02*
X1176020Y574040D01*
X1173480Y579120D01*
X1178560Y576580D01*
X1183640Y579120D01*
X1181100Y574040D01*
X1183640Y568960D01*
X1178560Y571500D01*
X1173480Y568960D01*
X1175512Y570992D02*
X1177036Y574040D01*
X1175512Y577088D01*
X1178560Y575564D01*
X1181608Y577088D01*
X1180084Y574040D01*
X1181608Y570992D01*
X1178560Y572516D01*
X1175512Y570992D01*
X1391920Y160020D02*
Y157480D01*
X1397000D01*
Y160020D01*
X1399540D01*
Y165100D01*
X1397000D01*
Y167640D01*
X1391920D01*
Y165100D01*
X1389380D01*
Y160020D01*
X1391920D01*
X1392936Y161036D02*
Y159512D01*
X1395984D01*
Y161036D01*
X1397508D01*
Y164084D01*
X1395984D01*
Y165608D01*
X1392936D01*
Y164084D01*
X1391412D01*
Y161036D01*
X1392936D01*
X1417320Y160020D02*
Y157480D01*
X1422400D01*
Y160020D01*
X1424940D01*
Y165100D01*
X1422400D01*
Y167640D01*
X1417320D01*
Y165100D01*
X1414780D01*
Y160020D01*
X1417320D01*
X1418336Y161036D02*
Y159512D01*
X1421384D01*
Y161036D01*
X1422908D01*
Y164084D01*
X1421384D01*
Y165608D01*
X1418336D01*
Y164084D01*
X1416812D01*
Y161036D01*
X1418336D01*
X1235710Y469900D02*
X1238250Y472440D01*
X1240790D01*
X1238250Y474980D01*
X1240790Y477520D01*
X1238250D01*
X1235710Y480060D01*
X1233170Y477520D01*
X1230630D01*
X1233170Y474980D01*
X1230630Y472440D01*
X1233170D01*
X1235710Y469900D01*
Y471932D02*
X1237234Y473456D01*
X1238758D01*
X1237234Y474980D01*
X1238758Y476504D01*
X1237234D01*
X1235710Y478028D01*
X1234186Y476504D01*
X1232662D01*
X1234186Y474980D01*
X1232662Y473456D01*
X1234186D01*
X1235710Y471932D01*
X901700Y593090D02*
X904240Y595630D01*
X906780D01*
X904240Y598170D01*
X906780Y600710D01*
X904240D01*
X901700Y603250D01*
X899160Y600710D01*
X896620D01*
X899160Y598170D01*
X896620Y595630D01*
X899160D01*
X901700Y593090D01*
Y595122D02*
X903224Y596646D01*
X904748D01*
X903224Y598170D01*
X904748Y599694D01*
X903224D01*
X901700Y601218D01*
X900176Y599694D01*
X898652D01*
X900176Y598170D01*
X898652Y596646D01*
X900176D01*
X901700Y595122D01*
X1346200Y156210D02*
X1348740Y158750D01*
X1351280D01*
X1348740Y161290D01*
X1351280Y163830D01*
X1348740D01*
X1346200Y166370D01*
X1343660Y163830D01*
X1341120D01*
X1343660Y161290D01*
X1341120Y158750D01*
X1343660D01*
X1346200Y156210D01*
Y158242D02*
X1347724Y159766D01*
X1349248D01*
X1347724Y161290D01*
X1349248Y162814D01*
X1347724D01*
X1346200Y164338D01*
X1344676Y162814D01*
X1343152D01*
X1344676Y161290D01*
X1343152Y159766D01*
X1344676D01*
X1346200Y158242D01*
X1013460Y422910D02*
X1016000Y425450D01*
X1018540D01*
X1016000Y427990D01*
X1018540Y430530D01*
X1016000D01*
X1013460Y433070D01*
X1010920Y430530D01*
X1008380D01*
X1010920Y427990D01*
X1008380Y425450D01*
X1010920D01*
X1013460Y422910D01*
Y424942D02*
X1014984Y426466D01*
X1016508D01*
X1014984Y427990D01*
X1016508Y429514D01*
X1014984D01*
X1013460Y431038D01*
X1011936Y429514D01*
X1010412D01*
X1011936Y427990D01*
X1010412Y426466D01*
X1011936D01*
X1013460Y424942D01*
X1450000Y44920D02*
X1452540Y47460D01*
X1455080D01*
X1452540Y50000D01*
X1455080Y52540D01*
X1452540D01*
X1450000Y55080D01*
X1447460Y52540D01*
X1444920D01*
X1447460Y50000D01*
X1444920Y47460D01*
X1447460D01*
X1450000Y44920D01*
Y944920D02*
X1452540Y947460D01*
X1455080D01*
X1452540Y950000D01*
X1455080Y952540D01*
X1452540D01*
X1450000Y955080D01*
X1447460Y952540D01*
X1444920D01*
X1447460Y950000D01*
X1444920Y947460D01*
X1447460D01*
X1450000Y944920D01*
X50000D02*
X52540Y947460D01*
X55080D01*
X52540Y950000D01*
X55080Y952540D01*
X52540D01*
X50000Y955080D01*
X47460Y952540D01*
X44920D01*
X47460Y950000D01*
X44920Y947460D01*
X47460D01*
X50000Y944920D01*
Y44920D02*
X52540Y47460D01*
X55080D01*
X52540Y50000D01*
X55080Y52540D01*
X52540D01*
X50000Y55080D01*
X47460Y52540D01*
X44920D01*
X47460Y50000D01*
X44920Y47460D01*
X47460D01*
X50000Y44920D01*
X50374Y824226D02*
X41910D01*
Y817878D01*
X46142D01*
X41910D01*
Y811530D01*
X101174Y834386D02*
X92710D01*
Y828038D01*
X96942D01*
X92710D01*
Y821690D01*
X101174Y814066D02*
X92710D01*
Y807718D01*
X96942D01*
X92710D01*
Y801370D01*
X50374Y849626D02*
X41910D01*
Y836930D01*
X50374D01*
X41910Y843278D02*
X46142D01*
X50374Y798826D02*
X41910D01*
Y786130D01*
X50374D01*
X41910Y792478D02*
X46142D01*
X82124Y849626D02*
X73660D01*
Y836930D01*
X82124D01*
X73660Y843278D02*
X77892D01*
X82124Y798826D02*
X73660D01*
Y786130D01*
X82124D01*
X73660Y792478D02*
X77892D01*
X820420Y772156D02*
Y759460D01*
X826768D01*
X828884Y761576D01*
Y763692D01*
X826768Y765808D01*
X820420D01*
X826768D01*
X828884Y767924D01*
Y770040D01*
X826768Y772156D01*
X820420D01*
X861060Y775966D02*
Y763270D01*
X867408D01*
X869524Y765386D01*
Y767502D01*
X867408Y769618D01*
X861060D01*
X867408D01*
X869524Y771734D01*
Y773850D01*
X867408Y775966D01*
X861060D01*
X1140460Y472440D02*
X1143000D01*
X1145540Y474980D01*
X1148080Y472440D01*
X1150620D01*
Y474980D01*
X1148080Y477520D01*
X1150620Y480060D01*
Y482600D01*
X1148080D01*
X1145540Y480060D01*
X1143000Y482600D01*
X1140460D01*
Y480060D01*
X1143000Y477520D01*
X1140460Y474980D01*
Y472440D01*
X810260Y462280D02*
X812800D01*
X815340Y464820D01*
X817880Y462280D01*
X820420D01*
Y464820D01*
X817880Y467360D01*
X820420Y469900D01*
Y472440D01*
X817880D01*
X815340Y469900D01*
X812800Y472440D01*
X810260D01*
Y469900D01*
X812800Y467360D01*
X810260Y464820D01*
Y462280D01*
X601980Y937260D02*
X604520D01*
X607060Y939800D01*
X609600Y937260D01*
X612140D01*
Y939800D01*
X609600Y942340D01*
X612140Y944880D01*
Y947420D01*
X609600D01*
X607060Y944880D01*
X604520Y947420D01*
X601980D01*
Y944880D01*
X604520Y942340D01*
X601980Y939800D01*
Y937260D01*
X1409700Y364486D02*
Y351790D01*
X1416048D01*
X1418164Y353906D01*
Y356022D01*
X1416048Y358138D01*
X1409700D01*
X1416048D01*
X1418164Y360254D01*
Y362370D01*
X1416048Y364486D01*
X1409700D01*
X1341120Y201930D02*
X1343660D01*
X1346200Y204470D01*
X1348740Y201930D01*
X1351280D01*
Y204470D01*
X1348740Y207010D01*
X1351280Y209550D01*
Y212090D01*
X1348740D01*
X1346200Y209550D01*
X1343660Y212090D01*
X1341120D01*
Y209550D01*
X1343660Y207010D01*
X1341120Y204470D01*
Y201930D01*
X1130300Y452120D02*
X1132840D01*
X1135380Y454660D01*
X1137920Y452120D01*
X1140460D01*
Y454660D01*
X1137920Y457200D01*
X1140460Y459740D01*
Y462280D01*
X1137920D01*
X1135380Y459740D01*
X1132840Y462280D01*
X1130300D01*
Y459740D01*
X1132840Y457200D01*
X1130300Y454660D01*
Y452120D01*
X1140460D02*
X1143000D01*
X1145540Y454660D01*
X1148080Y452120D01*
X1150620D01*
Y454660D01*
X1148080Y457200D01*
X1150620Y459740D01*
Y462280D01*
X1148080D01*
X1145540Y459740D01*
X1143000Y462280D01*
X1140460D01*
Y459740D01*
X1143000Y457200D01*
X1140460Y454660D01*
Y452120D01*
X1328420Y222250D02*
X1330960D01*
X1333500Y224790D01*
X1336040Y222250D01*
X1338580D01*
Y224790D01*
X1336040Y227330D01*
X1338580Y229870D01*
Y232410D01*
X1336040D01*
X1333500Y229870D01*
X1330960Y232410D01*
X1328420D01*
Y229870D01*
X1330960Y227330D01*
X1328420Y224790D01*
Y222250D01*
Y201930D02*
X1330960D01*
X1333500Y204470D01*
X1336040Y201930D01*
X1338580D01*
Y204470D01*
X1336040Y207010D01*
X1338580Y209550D01*
Y212090D01*
X1336040D01*
X1333500Y209550D01*
X1330960Y212090D01*
X1328420D01*
Y209550D01*
X1330960Y207010D01*
X1328420Y204470D01*
Y201930D01*
Y212090D02*
X1330960D01*
X1333500Y214630D01*
X1336040Y212090D01*
X1338580D01*
Y214630D01*
X1336040Y217170D01*
X1338580Y219710D01*
Y222250D01*
X1336040D01*
X1333500Y219710D01*
X1330960Y222250D01*
X1328420D01*
Y219710D01*
X1330960Y217170D01*
X1328420Y214630D01*
Y212090D01*
X1140460Y462280D02*
X1143000D01*
X1145540Y464820D01*
X1148080Y462280D01*
X1150620D01*
Y464820D01*
X1148080Y467360D01*
X1150620Y469900D01*
Y472440D01*
X1148080D01*
X1145540Y469900D01*
X1143000Y472440D01*
X1140460D01*
Y469900D01*
X1143000Y467360D01*
X1140460Y464820D01*
Y462280D01*
X1280160Y248920D02*
X1282700D01*
X1285240Y251460D01*
X1287780Y248920D01*
X1290320D01*
Y251460D01*
X1287780Y254000D01*
X1290320Y256540D01*
Y259080D01*
X1287780D01*
X1285240Y256540D01*
X1282700Y259080D01*
X1280160D01*
Y256540D01*
X1282700Y254000D01*
X1280160Y251460D01*
Y248920D01*
X1047750Y885186D02*
Y872490D01*
X1054098D01*
X1056214Y874606D01*
Y876722D01*
X1054098Y878838D01*
X1047750D01*
X1054098D01*
X1056214Y880954D01*
Y883070D01*
X1054098Y885186D01*
X1047750D01*
X1029970Y887726D02*
Y875030D01*
X1036318D01*
X1038434Y877146D01*
Y879262D01*
X1036318Y881378D01*
X1029970D01*
X1036318D01*
X1038434Y883494D01*
Y885610D01*
X1036318Y887726D01*
X1029970D01*
X1016000Y900426D02*
Y887730D01*
X1022348D01*
X1024464Y889846D01*
Y891962D01*
X1022348Y894078D01*
X1016000D01*
X1022348D01*
X1024464Y896194D01*
Y898310D01*
X1022348Y900426D01*
X1016000D01*
X1004570Y914396D02*
Y901700D01*
X1010918D01*
X1013034Y903816D01*
Y905932D01*
X1010918Y908048D01*
X1004570D01*
X1010918D01*
X1013034Y910164D01*
Y912280D01*
X1010918Y914396D01*
X1004570D01*
X1002030Y932176D02*
Y919480D01*
X1008378D01*
X1010494Y921596D01*
Y923712D01*
X1008378Y925828D01*
X1002030D01*
X1008378D01*
X1010494Y927944D01*
Y930060D01*
X1008378Y932176D01*
X1002030D01*
Y948686D02*
Y935990D01*
X1008378D01*
X1010494Y938106D01*
Y940222D01*
X1008378Y942338D01*
X1002030D01*
X1008378D01*
X1010494Y944454D01*
Y946570D01*
X1008378Y948686D01*
X1002030D01*
X1440180Y264160D02*
X1442720D01*
X1445260Y266700D01*
X1447800Y264160D01*
X1450340D01*
Y266700D01*
X1447800Y269240D01*
X1450340Y271780D01*
Y274320D01*
X1447800D01*
X1445260Y271780D01*
X1442720Y274320D01*
X1440180D01*
Y271780D01*
X1442720Y269240D01*
X1440180Y266700D01*
Y264160D01*
X1437640Y341630D02*
X1440180D01*
X1442720Y344170D01*
X1445260Y341630D01*
X1447800D01*
Y344170D01*
X1445260Y346710D01*
X1447800Y349250D01*
Y351790D01*
X1445260D01*
X1442720Y349250D01*
X1440180Y351790D01*
X1437640D01*
Y349250D01*
X1440180Y346710D01*
X1437640Y344170D01*
Y341630D01*
X1188720Y662940D02*
X1191260D01*
X1193800Y665480D01*
X1196340Y662940D01*
X1198880D01*
Y665480D01*
X1196340Y668020D01*
X1198880Y670560D01*
Y673100D01*
X1196340D01*
X1193800Y670560D01*
X1191260Y673100D01*
X1188720D01*
Y670560D01*
X1191260Y668020D01*
X1188720Y665480D01*
Y662940D01*
X1379220Y279396D02*
Y266700D01*
X1385568D01*
X1387684Y268816D01*
Y270932D01*
X1385568Y273048D01*
X1379220D01*
X1385568D01*
X1387684Y275164D01*
Y277280D01*
X1385568Y279396D01*
X1379220D01*
Y294636D02*
Y281940D01*
X1385568D01*
X1387684Y284056D01*
Y286172D01*
X1385568Y288288D01*
X1379220D01*
X1385568D01*
X1387684Y290404D01*
Y292520D01*
X1385568Y294636D01*
X1379220D01*
X1379010Y286856D02*
Y274160D01*
X1385358D01*
X1387474Y276276D01*
Y278392D01*
X1385358Y280508D01*
X1379010D01*
X1385358D01*
X1387474Y282624D01*
Y284740D01*
X1385358Y286856D01*
X1379010D01*
X687070Y725170D02*
X689610D01*
X692150Y727710D01*
X694690Y725170D01*
X697230D01*
Y727710D01*
X694690Y730250D01*
X697230Y732790D01*
Y735330D01*
X694690D01*
X692150Y732790D01*
X689610Y735330D01*
X687070D01*
Y732790D01*
X689610Y730250D01*
X687070Y727710D01*
Y725170D01*
X1258570Y570230D02*
X1261110D01*
X1263650Y572770D01*
X1266190Y570230D01*
X1268730D01*
Y572770D01*
X1266190Y575310D01*
X1268730Y577850D01*
Y580390D01*
X1266190D01*
X1263650Y577850D01*
X1261110Y580390D01*
X1258570D01*
Y577850D01*
X1261110Y575310D01*
X1258570Y572770D01*
Y570230D01*
X1268730D02*
X1271270D01*
X1273810Y572770D01*
X1276350Y570230D01*
X1278890D01*
Y572770D01*
X1276350Y575310D01*
X1278890Y577850D01*
Y580390D01*
X1276350D01*
X1273810Y577850D01*
X1271270Y580390D01*
X1268730D01*
Y577850D01*
X1271270Y575310D01*
X1268730Y572770D01*
Y570230D01*
X815340Y919480D02*
X817880D01*
X820420Y922020D01*
X822960Y919480D01*
X825500D01*
Y922020D01*
X822960Y924560D01*
X825500Y927100D01*
Y929640D01*
X822960D01*
X820420Y927100D01*
X817880Y929640D01*
X815340D01*
Y927100D01*
X817880Y924560D01*
X815340Y922020D01*
Y919480D01*
X1041400Y430530D02*
X1043940D01*
X1046480Y433070D01*
X1049020Y430530D01*
X1051560D01*
Y433070D01*
X1049020Y435610D01*
X1051560Y438150D01*
Y440690D01*
X1049020D01*
X1046480Y438150D01*
X1043940Y440690D01*
X1041400D01*
Y438150D01*
X1043940Y435610D01*
X1041400Y433070D01*
Y430530D01*
X166370Y127000D02*
X168910D01*
X171450Y129540D01*
X173990Y127000D01*
X176530D01*
Y129540D01*
X173990Y132080D01*
X176530Y134620D01*
Y137160D01*
X173990D01*
X171450Y134620D01*
X168910Y137160D01*
X166370D01*
Y134620D01*
X168910Y132080D01*
X166370Y129540D01*
Y127000D01*
X116840Y173990D02*
X119380D01*
X121920Y176530D01*
X124460Y173990D01*
X127000D01*
Y176530D01*
X124460Y179070D01*
X127000Y181610D01*
Y184150D01*
X124460D01*
X121920Y181610D01*
X119380Y184150D01*
X116840D01*
Y181610D01*
X119380Y179070D01*
X116840Y176530D01*
Y173990D01*
X1031240Y443230D02*
X1033780D01*
X1036320Y445770D01*
X1038860Y443230D01*
X1041400D01*
Y445770D01*
X1038860Y448310D01*
X1041400Y450850D01*
Y453390D01*
X1038860D01*
X1036320Y450850D01*
X1033780Y453390D01*
X1031240D01*
Y450850D01*
X1033780Y448310D01*
X1031240Y445770D01*
Y443230D01*
Y430530D02*
X1033780D01*
X1036320Y433070D01*
X1038860Y430530D01*
X1041400D01*
Y433070D01*
X1038860Y435610D01*
X1041400Y438150D01*
Y440690D01*
X1038860D01*
X1036320Y438150D01*
X1033780Y440690D01*
X1031240D01*
Y438150D01*
X1033780Y435610D01*
X1031240Y433070D01*
Y430530D01*
X316230Y613410D02*
X318770D01*
X321310Y615950D01*
X323850Y613410D01*
X326390D01*
Y615950D01*
X323850Y618490D01*
X326390Y621030D01*
Y623570D01*
X323850D01*
X321310Y621030D01*
X318770Y623570D01*
X316230D01*
Y621030D01*
X318770Y618490D01*
X316230Y615950D01*
Y613410D01*
X1010920Y906776D02*
Y894080D01*
X1017268D01*
X1019384Y896196D01*
Y898312D01*
X1017268Y900428D01*
X1010920D01*
X1017268D01*
X1019384Y902544D01*
Y904660D01*
X1017268Y906776D01*
X1010920D01*
X1178560Y538480D02*
X1181100D01*
X1183640Y541020D01*
X1186180Y538480D01*
X1188720D01*
Y541020D01*
X1186180Y543560D01*
X1188720Y546100D01*
Y548640D01*
X1186180D01*
X1183640Y546100D01*
X1181100Y548640D01*
X1178560D01*
Y546100D01*
X1181100Y543560D01*
X1178560Y541020D01*
Y538480D01*
X1189990D02*
X1192530D01*
X1195070Y541020D01*
X1197610Y538480D01*
X1200150D01*
Y541020D01*
X1197610Y543560D01*
X1200150Y546100D01*
Y548640D01*
X1197610D01*
X1195070Y546100D01*
X1192530Y548640D01*
X1189990D01*
Y546100D01*
X1192530Y543560D01*
X1189990Y541020D01*
Y538480D01*
Y547370D02*
X1192530D01*
X1195070Y549910D01*
X1197610Y547370D01*
X1200150D01*
Y549910D01*
X1197610Y552450D01*
X1200150Y554990D01*
Y557530D01*
X1197610D01*
X1195070Y554990D01*
X1192530Y557530D01*
X1189990D01*
Y554990D01*
X1192530Y552450D01*
X1189990Y549910D01*
Y547370D01*
X1178560D02*
X1181100D01*
X1183640Y549910D01*
X1186180Y547370D01*
X1188720D01*
Y549910D01*
X1186180Y552450D01*
X1188720Y554990D01*
Y557530D01*
X1186180D01*
X1183640Y554990D01*
X1181100Y557530D01*
X1178560D01*
Y554990D01*
X1181100Y552450D01*
X1178560Y549910D01*
Y547370D01*
X511810Y628646D02*
Y615950D01*
X518158D01*
X520274Y618066D01*
Y620182D01*
X518158Y622298D01*
X511810D01*
X518158D01*
X520274Y624414D01*
Y626530D01*
X518158Y628646D01*
X511810D01*
X521970Y477520D02*
X524510D01*
X527050Y480060D01*
X529590Y477520D01*
X532130D01*
Y480060D01*
X529590Y482600D01*
X532130Y485140D01*
Y487680D01*
X529590D01*
X527050Y485140D01*
X524510Y487680D01*
X521970D01*
Y485140D01*
X524510Y482600D01*
X521970Y480060D01*
Y477520D01*
X469900Y415290D02*
X472440D01*
X474980Y417830D01*
X477520Y415290D01*
X480060D01*
Y417830D01*
X477520Y420370D01*
X480060Y422910D01*
Y425450D01*
X477520D01*
X474980Y422910D01*
X472440Y425450D01*
X469900D01*
Y422910D01*
X472440Y420370D01*
X469900Y417830D01*
Y415290D01*
X737870Y398780D02*
X740410D01*
X742950Y401320D01*
X745490Y398780D01*
X748030D01*
Y401320D01*
X745490Y403860D01*
X748030Y406400D01*
Y408940D01*
X745490D01*
X742950Y406400D01*
X740410Y408940D01*
X737870D01*
Y406400D01*
X740410Y403860D01*
X737870Y401320D01*
Y398780D01*
X723900Y467360D02*
X726440D01*
X728980Y469900D01*
X731520Y467360D01*
X734060D01*
Y469900D01*
X731520Y472440D01*
X734060Y474980D01*
Y477520D01*
X731520D01*
X728980Y474980D01*
X726440Y477520D01*
X723900D01*
Y474980D01*
X726440Y472440D01*
X723900Y469900D01*
Y467360D01*
X969010Y455930D02*
X971550D01*
X974090Y458470D01*
X976630Y455930D01*
X979170D01*
Y458470D01*
X976630Y461010D01*
X979170Y463550D01*
Y466090D01*
X976630D01*
X974090Y463550D01*
X971550Y466090D01*
X969010D01*
Y463550D01*
X971550Y461010D01*
X969010Y458470D01*
Y455930D01*
X1087120Y697230D02*
X1089660D01*
X1092200Y699770D01*
X1094740Y697230D01*
X1097280D01*
Y699770D01*
X1094740Y702310D01*
X1097280Y704850D01*
Y707390D01*
X1094740D01*
X1092200Y704850D01*
X1089660Y707390D01*
X1087120D01*
Y704850D01*
X1089660Y702310D01*
X1087120Y699770D01*
Y697230D01*
X641350Y919480D02*
X643890D01*
X646430Y922020D01*
X648970Y919480D01*
X651510D01*
Y922020D01*
X648970Y924560D01*
X651510Y927100D01*
Y929640D01*
X648970D01*
X646430Y927100D01*
X643890Y929640D01*
X641350D01*
Y927100D01*
X643890Y924560D01*
X641350Y922020D01*
Y919480D01*
X1026160Y665480D02*
X1028700D01*
X1031240Y668020D01*
X1033780Y665480D01*
X1036320D01*
Y668020D01*
X1033780Y670560D01*
X1036320Y673100D01*
Y675640D01*
X1033780D01*
X1031240Y673100D01*
X1028700Y675640D01*
X1026160D01*
Y673100D01*
X1028700Y670560D01*
X1026160Y668020D01*
Y665480D01*
X1372180Y623820D02*
X1374720D01*
X1377260Y626360D01*
X1379800Y623820D01*
X1382340D01*
Y626360D01*
X1379800Y628900D01*
X1382340Y631440D01*
Y633980D01*
X1379800D01*
X1377260Y631440D01*
X1374720Y633980D01*
X1372180D01*
Y631440D01*
X1374720Y628900D01*
X1372180Y626360D01*
Y623820D01*
X1352550Y715010D02*
X1355090D01*
X1357630Y717550D01*
X1360170Y715010D01*
X1362710D01*
Y717550D01*
X1360170Y720090D01*
X1362710Y722630D01*
Y725170D01*
X1360170D01*
X1357630Y722630D01*
X1355090Y725170D01*
X1352550D01*
Y722630D01*
X1355090Y720090D01*
X1352550Y717550D01*
Y715010D01*
X1252610Y704460D02*
X1255150D01*
X1257690Y707000D01*
X1260230Y704460D01*
X1262770D01*
Y707000D01*
X1260230Y709540D01*
X1262770Y712080D01*
Y714620D01*
X1260230D01*
X1257690Y712080D01*
X1255150Y714620D01*
X1252610D01*
Y712080D01*
X1255150Y709540D01*
X1252610Y707000D01*
Y704460D01*
X1253490Y716280D02*
X1256030D01*
X1258570Y718820D01*
X1261110Y716280D01*
X1263650D01*
Y718820D01*
X1261110Y721360D01*
X1263650Y723900D01*
Y726440D01*
X1261110D01*
X1258570Y723900D01*
X1256030Y726440D01*
X1253490D01*
Y723900D01*
X1256030Y721360D01*
X1253490Y718820D01*
Y716280D01*
X1120140Y452120D02*
X1122680D01*
X1125220Y454660D01*
X1127760Y452120D01*
X1130300D01*
Y454660D01*
X1127760Y457200D01*
X1130300Y459740D01*
Y462280D01*
X1127760D01*
X1125220Y459740D01*
X1122680Y462280D01*
X1120140D01*
Y459740D01*
X1122680Y457200D01*
X1120140Y454660D01*
Y452120D01*
X274320Y805180D02*
X276860D01*
X279400Y807720D01*
X281940Y805180D01*
X284480D01*
Y807720D01*
X281940Y810260D01*
X284480Y812800D01*
Y815340D01*
X281940D01*
X279400Y812800D01*
X276860Y815340D01*
X274320D01*
Y812800D01*
X276860Y810260D01*
X274320Y807720D01*
Y805180D01*
X1418590Y240030D02*
X1421130D01*
X1423670Y242570D01*
X1426210Y240030D01*
X1428750D01*
Y242570D01*
X1426210Y245110D01*
X1428750Y247650D01*
Y250190D01*
X1426210D01*
X1423670Y247650D01*
X1421130Y250190D01*
X1418590D01*
Y247650D01*
X1421130Y245110D01*
X1418590Y242570D01*
Y240030D01*
Y228600D02*
X1421130D01*
X1423670Y231140D01*
X1426210Y228600D01*
X1428750D01*
Y231140D01*
X1426210Y233680D01*
X1428750Y236220D01*
Y238760D01*
X1426210D01*
X1423670Y236220D01*
X1421130Y238760D01*
X1418590D01*
Y236220D01*
X1421130Y233680D01*
X1418590Y231140D01*
Y228600D01*
Y215900D02*
X1421130D01*
X1423670Y218440D01*
X1426210Y215900D01*
X1428750D01*
Y218440D01*
X1426210Y220980D01*
X1428750Y223520D01*
Y226060D01*
X1426210D01*
X1423670Y223520D01*
X1421130Y226060D01*
X1418590D01*
Y223520D01*
X1421130Y220980D01*
X1418590Y218440D01*
Y215900D01*
X1428750D02*
X1431290D01*
X1433830Y218440D01*
X1436370Y215900D01*
X1438910D01*
Y218440D01*
X1436370Y220980D01*
X1438910Y223520D01*
Y226060D01*
X1436370D01*
X1433830Y223520D01*
X1431290Y226060D01*
X1428750D01*
Y223520D01*
X1431290Y220980D01*
X1428750Y218440D01*
Y215900D01*
Y240030D02*
X1431290D01*
X1433830Y242570D01*
X1436370Y240030D01*
X1438910D01*
Y242570D01*
X1436370Y245110D01*
X1438910Y247650D01*
Y250190D01*
X1436370D01*
X1433830Y247650D01*
X1431290Y250190D01*
X1428750D01*
Y247650D01*
X1431290Y245110D01*
X1428750Y242570D01*
Y240030D01*
Y228600D02*
X1431290D01*
X1433830Y231140D01*
X1436370Y228600D01*
X1438910D01*
Y231140D01*
X1436370Y233680D01*
X1438910Y236220D01*
Y238760D01*
X1436370D01*
X1433830Y236220D01*
X1431290Y238760D01*
X1428750D01*
Y236220D01*
X1431290Y233680D01*
X1428750Y231140D01*
Y228600D01*
X123190Y787400D02*
X125730D01*
X128270Y789940D01*
X130810Y787400D01*
X133350D01*
Y789940D01*
X130810Y792480D01*
X133350Y795020D01*
Y797560D01*
X130810D01*
X128270Y795020D01*
X125730Y797560D01*
X123190D01*
Y795020D01*
X125730Y792480D01*
X123190Y789940D01*
Y787400D01*
X1299210Y745490D02*
X1301750D01*
X1304290Y748030D01*
X1306830Y745490D01*
X1309370D01*
Y748030D01*
X1306830Y750570D01*
X1309370Y753110D01*
Y755650D01*
X1306830D01*
X1304290Y753110D01*
X1301750Y755650D01*
X1299210D01*
Y753110D01*
X1301750Y750570D01*
X1299210Y748030D01*
Y745490D01*
X1140460Y864870D02*
X1143000D01*
X1145540Y867410D01*
X1148080Y864870D01*
X1150620D01*
Y867410D01*
X1148080Y869950D01*
X1150620Y872490D01*
Y875030D01*
X1148080D01*
X1145540Y872490D01*
X1143000Y875030D01*
X1140460D01*
Y872490D01*
X1143000Y869950D01*
X1140460Y867410D01*
Y864870D01*
X1356360Y885190D02*
X1358900D01*
X1361440Y887730D01*
X1363980Y885190D01*
X1366520D01*
Y887730D01*
X1363980Y890270D01*
X1366520Y892810D01*
Y895350D01*
X1363980D01*
X1361440Y892810D01*
X1358900Y895350D01*
X1356360D01*
Y892810D01*
X1358900Y890270D01*
X1356360Y887730D01*
Y885190D01*
X1301750Y636270D02*
X1304290D01*
X1306830Y638810D01*
X1309370Y636270D01*
X1311910D01*
Y638810D01*
X1309370Y641350D01*
X1311910Y643890D01*
Y646430D01*
X1309370D01*
X1306830Y643890D01*
X1304290Y646430D01*
X1301750D01*
Y643890D01*
X1304290Y641350D01*
X1301750Y638810D01*
Y636270D01*
X1233170Y637540D02*
X1235710D01*
X1238250Y640080D01*
X1240790Y637540D01*
X1243330D01*
Y640080D01*
X1240790Y642620D01*
X1243330Y645160D01*
Y647700D01*
X1240790D01*
X1238250Y645160D01*
X1235710Y647700D01*
X1233170D01*
Y645160D01*
X1235710Y642620D01*
X1233170Y640080D01*
Y637540D01*
X1271270Y596900D02*
X1273810D01*
X1276350Y599440D01*
X1278890Y596900D01*
X1281430D01*
Y599440D01*
X1278890Y601980D01*
X1281430Y604520D01*
Y607060D01*
X1278890D01*
X1276350Y604520D01*
X1273810Y607060D01*
X1271270D01*
Y604520D01*
X1273810Y601980D01*
X1271270Y599440D01*
Y596900D01*
X1280160Y547370D02*
X1282700D01*
X1285240Y549910D01*
X1287780Y547370D01*
X1290320D01*
Y549910D01*
X1287780Y552450D01*
X1290320Y554990D01*
Y557530D01*
X1287780D01*
X1285240Y554990D01*
X1282700Y557530D01*
X1280160D01*
Y554990D01*
X1282700Y552450D01*
X1280160Y549910D01*
Y547370D01*
Y538480D02*
X1282700D01*
X1285240Y541020D01*
X1287780Y538480D01*
X1290320D01*
Y541020D01*
X1287780Y543560D01*
X1290320Y546100D01*
Y548640D01*
X1287780D01*
X1285240Y546100D01*
X1282700Y548640D01*
X1280160D01*
Y546100D01*
X1282700Y543560D01*
X1280160Y541020D01*
Y538480D01*
X1338580Y532130D02*
X1341120D01*
X1343660Y534670D01*
X1346200Y532130D01*
X1348740D01*
Y534670D01*
X1346200Y537210D01*
X1348740Y539750D01*
Y542290D01*
X1346200D01*
X1343660Y539750D01*
X1341120Y542290D01*
X1338580D01*
Y539750D01*
X1341120Y537210D01*
X1338580Y534670D01*
Y532130D01*
X1454150Y499110D02*
X1456690D01*
X1459230Y501650D01*
X1461770Y499110D01*
X1464310D01*
Y501650D01*
X1461770Y504190D01*
X1464310Y506730D01*
Y509270D01*
X1461770D01*
X1459230Y506730D01*
X1456690Y509270D01*
X1454150D01*
Y506730D01*
X1456690Y504190D01*
X1454150Y501650D01*
Y499110D01*
X1375410Y449580D02*
X1377950D01*
X1380490Y452120D01*
X1383030Y449580D01*
X1385570D01*
Y452120D01*
X1383030Y454660D01*
X1385570Y457200D01*
Y459740D01*
X1383030D01*
X1380490Y457200D01*
X1377950Y459740D01*
X1375410D01*
Y457200D01*
X1377950Y454660D01*
X1375410Y452120D01*
Y449580D01*
X1366520Y411480D02*
X1369060D01*
X1371600Y414020D01*
X1374140Y411480D01*
X1376680D01*
Y414020D01*
X1374140Y416560D01*
X1376680Y419100D01*
Y421640D01*
X1374140D01*
X1371600Y419100D01*
X1369060Y421640D01*
X1366520D01*
Y419100D01*
X1369060Y416560D01*
X1366520Y414020D01*
Y411480D01*
Y433070D02*
X1369060D01*
X1371600Y435610D01*
X1374140Y433070D01*
X1376680D01*
Y435610D01*
X1374140Y438150D01*
X1376680Y440690D01*
Y443230D01*
X1374140D01*
X1371600Y440690D01*
X1369060Y443230D01*
X1366520D01*
Y440690D01*
X1369060Y438150D01*
X1366520Y435610D01*
Y433070D01*
X916940Y726440D02*
X919480D01*
X922020Y728980D01*
X924560Y726440D01*
X927100D01*
Y728980D01*
X924560Y731520D01*
X927100Y734060D01*
Y736600D01*
X924560D01*
X922020Y734060D01*
X919480Y736600D01*
X916940D01*
Y734060D01*
X919480Y731520D01*
X916940Y728980D01*
Y726440D01*
X1045210Y810260D02*
X1047750D01*
X1050290Y812800D01*
X1052830Y810260D01*
X1055370D01*
Y812800D01*
X1052830Y815340D01*
X1055370Y817880D01*
Y820420D01*
X1052830D01*
X1050290Y817880D01*
X1047750Y820420D01*
X1045210D01*
Y817880D01*
X1047750Y815340D01*
X1045210Y812800D01*
Y810260D01*
X1064260Y897890D02*
X1066800D01*
X1069340Y900430D01*
X1071880Y897890D01*
X1074420D01*
Y900430D01*
X1071880Y902970D01*
X1074420Y905510D01*
Y908050D01*
X1071880D01*
X1069340Y905510D01*
X1066800Y908050D01*
X1064260D01*
Y905510D01*
X1066800Y902970D01*
X1064260Y900430D01*
Y897890D01*
X925830Y883920D02*
X928370D01*
X930910Y886460D01*
X933450Y883920D01*
X935990D01*
Y886460D01*
X933450Y889000D01*
X935990Y891540D01*
Y894080D01*
X933450D01*
X930910Y891540D01*
X928370Y894080D01*
X925830D01*
Y891540D01*
X928370Y889000D01*
X925830Y886460D01*
Y883920D01*
X1130300Y764540D02*
X1132840D01*
X1135380Y767080D01*
X1137920Y764540D01*
X1140460D01*
Y767080D01*
X1137920Y769620D01*
X1140460Y772160D01*
Y774700D01*
X1137920D01*
X1135380Y772160D01*
X1132840Y774700D01*
X1130300D01*
Y772160D01*
X1132840Y769620D01*
X1130300Y767080D01*
Y764540D01*
X1093470Y788670D02*
X1096010D01*
X1098550Y791210D01*
X1101090Y788670D01*
X1103630D01*
Y791210D01*
X1101090Y793750D01*
X1103630Y796290D01*
Y798830D01*
X1101090D01*
X1098550Y796290D01*
X1096010Y798830D01*
X1093470D01*
Y796290D01*
X1096010Y793750D01*
X1093470Y791210D01*
Y788670D01*
X565150Y723590D02*
X567690D01*
X570230Y726130D01*
X572770Y723590D01*
X575310D01*
Y726130D01*
X572770Y728670D01*
X575310Y731210D01*
Y733750D01*
X572770D01*
X570230Y731210D01*
X567690Y733750D01*
X565150D01*
Y731210D01*
X567690Y728670D01*
X565150Y726130D01*
Y723590D01*
X628650Y661670D02*
X631190D01*
X633730Y664210D01*
X636270Y661670D01*
X638810D01*
Y664210D01*
X636270Y666750D01*
X638810Y669290D01*
Y671830D01*
X636270D01*
X633730Y669290D01*
X631190Y671830D01*
X628650D01*
Y669290D01*
X631190Y666750D01*
X628650Y664210D01*
Y661670D01*
X393700Y358140D02*
X396240D01*
X398780Y360680D01*
X401320Y358140D01*
X403860D01*
Y360680D01*
X401320Y363220D01*
X403860Y365760D01*
Y368300D01*
X401320D01*
X398780Y365760D01*
X396240Y368300D01*
X393700D01*
Y365760D01*
X396240Y363220D01*
X393700Y360680D01*
Y358140D01*
X200660Y367030D02*
X203200D01*
X205740Y369570D01*
X208280Y367030D01*
X210820D01*
Y369570D01*
X208280Y372110D01*
X210820Y374650D01*
Y377190D01*
X208280D01*
X205740Y374650D01*
X203200Y377190D01*
X200660D01*
Y374650D01*
X203200Y372110D01*
X200660Y369570D01*
Y367030D01*
X114300Y393700D02*
X116840D01*
X119380Y396240D01*
X121920Y393700D01*
X124460D01*
Y396240D01*
X121920Y398780D01*
X124460Y401320D01*
Y403860D01*
X121920D01*
X119380Y401320D01*
X116840Y403860D01*
X114300D01*
Y401320D01*
X116840Y398780D01*
X114300Y396240D01*
Y393700D01*
X1055370Y899156D02*
Y886460D01*
X1061718D01*
X1063834Y888576D01*
Y890692D01*
X1061718Y892808D01*
X1055370D01*
X1061718D01*
X1063834Y894924D01*
Y897040D01*
X1061718Y899156D01*
X1055370D01*
X1002030Y941066D02*
Y928370D01*
X1008378D01*
X1010494Y930486D01*
Y932602D01*
X1008378Y934718D01*
X1002030D01*
X1008378D01*
X1010494Y936834D01*
Y938950D01*
X1008378Y941066D01*
X1002030D01*
X1047750Y899156D02*
Y886460D01*
X1054098D01*
X1056214Y888576D01*
Y890692D01*
X1054098Y892808D01*
X1047750D01*
X1054098D01*
X1056214Y894924D01*
Y897040D01*
X1054098Y899156D01*
X1047750D01*
X1023620Y894076D02*
Y881380D01*
X1029968D01*
X1032084Y883496D01*
Y885612D01*
X1029968Y887728D01*
X1023620D01*
X1029968D01*
X1032084Y889844D01*
Y891960D01*
X1029968Y894076D01*
X1023620D01*
X1038860Y885186D02*
Y872490D01*
X1045208D01*
X1047324Y874606D01*
Y876722D01*
X1045208Y878838D01*
X1038860D01*
X1045208D01*
X1047324Y880954D01*
Y883070D01*
X1045208Y885186D01*
X1038860D01*
X1027430Y911856D02*
Y899160D01*
X1033778D01*
X1035894Y901276D01*
Y903392D01*
X1033778Y905508D01*
X1027430D01*
X1033778D01*
X1035894Y907624D01*
Y909740D01*
X1033778Y911856D01*
X1027430D01*
X1017270Y923286D02*
Y910590D01*
X1023618D01*
X1025734Y912706D01*
Y914822D01*
X1023618Y916938D01*
X1017270D01*
X1023618D01*
X1025734Y919054D01*
Y921170D01*
X1023618Y923286D01*
X1017270D01*
X1022042Y917244D02*
Y904548D01*
X1028390D01*
X1030506Y906664D01*
Y908780D01*
X1028390Y910896D01*
X1022042D01*
X1028390D01*
X1030506Y913012D01*
Y915128D01*
X1028390Y917244D01*
X1022042D01*
X1209040Y895346D02*
Y882650D01*
X1215388D01*
X1217504Y884766D01*
Y886882D01*
X1215388Y888998D01*
X1209040D01*
X1215388D01*
X1217504Y891114D01*
Y893230D01*
X1215388Y895346D01*
X1209040D01*
X1201420D02*
Y882650D01*
X1207768D01*
X1209884Y884766D01*
Y886882D01*
X1207768Y888998D01*
X1201420D01*
X1207768D01*
X1209884Y891114D01*
Y893230D01*
X1207768Y895346D01*
X1201420D01*
X1332320Y980436D02*
Y967740D01*
X1338668D01*
X1340784Y969856D01*
Y971972D01*
X1338668Y974088D01*
X1332320D01*
X1338668D01*
X1340784Y976204D01*
Y978320D01*
X1338668Y980436D01*
X1332320D01*
X1323340D02*
Y967740D01*
X1329688D01*
X1331804Y969856D01*
Y971972D01*
X1329688Y974088D01*
X1323340D01*
X1329688D01*
X1331804Y976204D01*
Y978320D01*
X1329688Y980436D01*
X1323340D01*
X1314360Y994406D02*
Y981710D01*
X1320708D01*
X1322824Y983826D01*
Y985942D01*
X1320708Y988058D01*
X1314360D01*
X1320708D01*
X1322824Y990174D01*
Y992290D01*
X1320708Y994406D01*
X1314360D01*
Y980436D02*
Y967740D01*
X1320708D01*
X1322824Y969856D01*
Y971972D01*
X1320708Y974088D01*
X1314360D01*
X1320708D01*
X1322824Y976204D01*
Y978320D01*
X1320708Y980436D01*
X1314360D01*
X1332320Y967736D02*
Y955040D01*
X1338668D01*
X1340784Y957156D01*
Y959272D01*
X1338668Y961388D01*
X1332320D01*
X1338668D01*
X1340784Y963504D01*
Y965620D01*
X1338668Y967736D01*
X1332320D01*
X1314360D02*
Y955040D01*
X1320708D01*
X1322824Y957156D01*
Y959272D01*
X1320708Y961388D01*
X1314360D01*
X1320708D01*
X1322824Y963504D01*
Y965620D01*
X1320708Y967736D01*
X1314360D01*
X1332320Y994406D02*
Y981710D01*
X1338668D01*
X1340784Y983826D01*
Y985942D01*
X1338668Y988058D01*
X1332320D01*
X1338668D01*
X1340784Y990174D01*
Y992290D01*
X1338668Y994406D01*
X1332320D01*
X1323340D02*
Y981710D01*
X1329688D01*
X1331804Y983826D01*
Y985942D01*
X1329688Y988058D01*
X1323340D01*
X1329688D01*
X1331804Y990174D01*
Y992290D01*
X1329688Y994406D01*
X1323340D01*
Y967736D02*
Y955040D01*
X1329688D01*
X1331804Y957156D01*
Y959272D01*
X1329688Y961388D01*
X1323340D01*
X1329688D01*
X1331804Y963504D01*
Y965620D01*
X1329688Y967736D01*
X1323340D01*
X1187630Y980436D02*
Y967740D01*
X1193979D01*
X1196095Y969856D01*
Y971972D01*
X1193979Y974088D01*
X1187630D01*
X1193979D01*
X1196095Y976204D01*
Y978320D01*
X1193979Y980436D01*
X1187630D01*
X1178650D02*
Y967740D01*
X1184998D01*
X1187114Y969856D01*
Y971972D01*
X1184998Y974088D01*
X1178650D01*
X1184998D01*
X1187114Y976204D01*
Y978320D01*
X1184998Y980436D01*
X1178650D01*
X1169670D02*
Y967740D01*
X1176018D01*
X1178134Y969856D01*
Y971972D01*
X1176018Y974088D01*
X1169670D01*
X1176018D01*
X1178134Y976204D01*
Y978320D01*
X1176018Y980436D01*
X1169670D01*
X1187630Y967736D02*
Y955040D01*
X1193979D01*
X1196095Y957156D01*
Y959272D01*
X1193979Y961388D01*
X1187630D01*
X1193979D01*
X1196095Y963504D01*
Y965620D01*
X1193979Y967736D01*
X1187630D01*
X1178650D02*
Y955040D01*
X1184998D01*
X1187114Y957156D01*
Y959272D01*
X1184998Y961388D01*
X1178650D01*
X1184998D01*
X1187114Y963504D01*
Y965620D01*
X1184998Y967736D01*
X1178650D01*
X1169670D02*
Y955040D01*
X1176018D01*
X1178134Y957156D01*
Y959272D01*
X1176018Y961388D01*
X1169670D01*
X1176018D01*
X1178134Y963504D01*
Y965620D01*
X1176018Y967736D01*
X1169670D01*
X1187630Y994406D02*
Y981710D01*
X1193979D01*
X1196095Y983826D01*
Y985942D01*
X1193979Y988058D01*
X1187630D01*
X1193979D01*
X1196095Y990174D01*
Y992290D01*
X1193979Y994406D01*
X1187630D01*
X1178650D02*
Y981710D01*
X1184998D01*
X1187114Y983826D01*
Y985942D01*
X1184998Y988058D01*
X1178650D01*
X1184998D01*
X1187114Y990174D01*
Y992290D01*
X1184998Y994406D01*
X1178650D01*
X1169670D02*
Y981710D01*
X1176018D01*
X1178134Y983826D01*
Y985942D01*
X1176018Y988058D01*
X1169670D01*
X1176018D01*
X1178134Y990174D01*
Y992290D01*
X1176018Y994406D01*
X1169670D01*
X1244600Y937256D02*
Y924560D01*
X1250948D01*
X1253064Y926676D01*
Y928792D01*
X1250948Y930908D01*
X1244600D01*
X1250948D01*
X1253064Y933024D01*
Y935140D01*
X1250948Y937256D01*
X1244600D01*
X1257300Y952496D02*
Y939800D01*
X1263648D01*
X1265764Y941916D01*
Y944032D01*
X1263648Y946148D01*
X1257300D01*
X1263648D01*
X1265764Y948264D01*
Y950380D01*
X1263648Y952496D01*
X1257300D01*
Y944876D02*
Y932180D01*
X1263648D01*
X1265764Y934296D01*
Y936412D01*
X1263648Y938528D01*
X1257300D01*
X1263648D01*
X1265764Y940644D01*
Y942760D01*
X1263648Y944876D01*
X1257300D01*
Y937256D02*
Y924560D01*
X1263648D01*
X1265764Y926676D01*
Y928792D01*
X1263648Y930908D01*
X1257300D01*
X1263648D01*
X1265764Y933024D01*
Y935140D01*
X1263648Y937256D01*
X1257300D01*
X1244600Y952496D02*
Y939800D01*
X1250948D01*
X1253064Y941916D01*
Y944032D01*
X1250948Y946148D01*
X1244600D01*
X1250948D01*
X1253064Y948264D01*
Y950380D01*
X1250948Y952496D01*
X1244600D01*
Y944876D02*
Y932180D01*
X1250948D01*
X1253064Y934296D01*
Y936412D01*
X1250948Y938528D01*
X1244600D01*
X1250948D01*
X1253064Y940644D01*
Y942760D01*
X1250948Y944876D01*
X1244600D01*
X1254760Y927096D02*
Y914400D01*
X1261108D01*
X1263224Y916516D01*
Y918632D01*
X1261108Y920748D01*
X1254760D01*
X1261108D01*
X1263224Y922864D01*
Y924980D01*
X1261108Y927096D01*
X1254760D01*
X1248410Y920746D02*
Y908050D01*
X1254758D01*
X1256874Y910166D01*
Y912282D01*
X1254758Y914398D01*
X1248410D01*
X1254758D01*
X1256874Y916514D01*
Y918630D01*
X1254758Y920746D01*
X1248410D01*
X1242060Y914396D02*
Y901700D01*
X1248408D01*
X1250524Y903816D01*
Y905932D01*
X1248408Y908048D01*
X1242060D01*
X1248408D01*
X1250524Y910164D01*
Y912280D01*
X1248408Y914396D01*
X1242060D01*
X1236326Y908662D02*
Y895966D01*
X1242674D01*
X1244790Y898082D01*
Y900198D01*
X1242674Y902314D01*
X1236326D01*
X1242674D01*
X1244790Y904430D01*
Y906546D01*
X1242674Y908662D01*
X1236326D01*
X1230938Y903274D02*
Y890578D01*
X1237286D01*
X1239402Y892694D01*
Y894810D01*
X1237286Y896926D01*
X1230938D01*
X1237286D01*
X1239402Y899042D01*
Y901158D01*
X1237286Y903274D01*
X1230938D01*
X1225550Y897886D02*
Y885190D01*
X1231898D01*
X1234014Y887306D01*
Y889422D01*
X1231898Y891538D01*
X1225550D01*
X1231898D01*
X1234014Y893654D01*
Y895770D01*
X1231898Y897886D01*
X1225550D01*
X1238250Y930906D02*
Y918210D01*
X1244598D01*
X1246714Y920326D01*
Y922442D01*
X1244598Y924558D01*
X1238250D01*
X1244598D01*
X1246714Y926674D01*
Y928790D01*
X1244598Y930906D01*
X1238250D01*
X1231900Y924556D02*
Y911860D01*
X1238248D01*
X1240364Y913976D01*
Y916092D01*
X1238248Y918208D01*
X1231900D01*
X1238248D01*
X1240364Y920324D01*
Y922440D01*
X1238248Y924556D01*
X1231900D01*
X1225550Y918206D02*
Y905510D01*
X1231898D01*
X1234014Y907626D01*
Y909742D01*
X1231898Y911858D01*
X1225550D01*
X1231898D01*
X1234014Y913974D01*
Y916090D01*
X1231898Y918206D01*
X1225550D01*
X1216660Y895346D02*
Y882650D01*
X1223008D01*
X1225124Y884766D01*
Y886882D01*
X1223008Y888998D01*
X1216660D01*
X1223008D01*
X1225124Y891114D01*
Y893230D01*
X1223008Y895346D01*
X1216660D01*
X1201420Y910586D02*
Y897890D01*
X1207768D01*
X1209884Y900006D01*
Y902122D01*
X1207768Y904238D01*
X1201420D01*
X1207768D01*
X1209884Y906354D01*
Y908470D01*
X1207768Y910586D01*
X1201420D01*
X1210310D02*
Y897890D01*
X1216658D01*
X1218774Y900006D01*
Y902122D01*
X1216658Y904238D01*
X1210310D01*
X1216658D01*
X1218774Y906354D01*
Y908470D01*
X1216658Y910586D01*
X1210310D01*
X1217930Y911856D02*
Y899160D01*
X1224278D01*
X1226394Y901276D01*
Y903392D01*
X1224278Y905508D01*
X1217930D01*
X1224278D01*
X1226394Y907624D01*
Y909740D01*
X1224278Y911856D01*
X1217930D01*
X1041400Y989326D02*
Y976630D01*
X1047748D01*
X1049864Y978746D01*
Y980862D01*
X1047748Y982978D01*
X1041400D01*
X1047748D01*
X1049864Y985094D01*
Y987210D01*
X1047748Y989326D01*
X1041400D01*
Y982976D02*
Y970280D01*
X1047748D01*
X1049864Y972396D01*
Y974512D01*
X1047748Y976628D01*
X1041400D01*
X1047748D01*
X1049864Y978744D01*
Y980860D01*
X1047748Y982976D01*
X1041400D01*
Y976626D02*
Y963930D01*
X1047748D01*
X1049864Y966046D01*
Y968162D01*
X1047748Y970278D01*
X1041400D01*
X1047748D01*
X1049864Y972394D01*
Y974510D01*
X1047748Y976626D01*
X1041400D01*
X977900D02*
Y963930D01*
X984248D01*
X986364Y966046D01*
Y968162D01*
X984248Y970278D01*
X977900D01*
X984248D01*
X986364Y972394D01*
Y974510D01*
X984248Y976626D01*
X977900D01*
Y982976D02*
Y970280D01*
X984248D01*
X986364Y972396D01*
Y974512D01*
X984248Y976628D01*
X977900D01*
X984248D01*
X986364Y978744D01*
Y980860D01*
X984248Y982976D01*
X977900D01*
Y989326D02*
Y976630D01*
X984248D01*
X986364Y978746D01*
Y980862D01*
X984248Y982978D01*
X977900D01*
X984248D01*
X986364Y985094D01*
Y987210D01*
X984248Y989326D01*
X977900D01*
X1055370Y885186D02*
Y872490D01*
X1061718D01*
X1063834Y874606D01*
Y876722D01*
X1061718Y878838D01*
X1055370D01*
X1061718D01*
X1063834Y880954D01*
Y883070D01*
X1061718Y885186D01*
X1055370D01*
X1033472Y905814D02*
Y893118D01*
X1039820D01*
X1041936Y895234D01*
Y897350D01*
X1039820Y899466D01*
X1033472D01*
X1039820D01*
X1041936Y901582D01*
Y903698D01*
X1039820Y905814D01*
X1033472D01*
X1040130Y900426D02*
Y887730D01*
X1046478D01*
X1048594Y889846D01*
Y891962D01*
X1046478Y894078D01*
X1040130D01*
X1046478D01*
X1048594Y896194D01*
Y898310D01*
X1046478Y900426D01*
X1040130D01*
X1002030Y923286D02*
Y910590D01*
X1008378D01*
X1010494Y912706D01*
Y914822D01*
X1008378Y916938D01*
X1002030D01*
X1008378D01*
X1010494Y919054D01*
Y921170D01*
X1008378Y923286D01*
X1002030D01*
X1017270Y941066D02*
Y928370D01*
X1023618D01*
X1025734Y930486D01*
Y932602D01*
X1023618Y934718D01*
X1017270D01*
X1023618D01*
X1025734Y936834D01*
Y938950D01*
X1023618Y941066D01*
X1017270D01*
X1002030Y957576D02*
Y944880D01*
X1008378D01*
X1010494Y946996D01*
Y949112D01*
X1008378Y951228D01*
X1002030D01*
X1008378D01*
X1010494Y953344D01*
Y955460D01*
X1008378Y957576D01*
X1002030D01*
X1017270Y949956D02*
Y937260D01*
X1023618D01*
X1025734Y939376D01*
Y941492D01*
X1023618Y943608D01*
X1017270D01*
X1023618D01*
X1025734Y945724D01*
Y947840D01*
X1023618Y949956D01*
X1017270D01*
Y957576D02*
Y944880D01*
X1023618D01*
X1025734Y946996D01*
Y949112D01*
X1023618Y951228D01*
X1017270D01*
X1023618D01*
X1025734Y953344D01*
Y955460D01*
X1023618Y957576D01*
X1017270D01*
X1447374Y509690D02*
X1445258Y511806D01*
X1441026D01*
X1438910Y509690D01*
Y501226D01*
X1441026Y499110D01*
X1445258D01*
X1447374Y501226D01*
Y505458D01*
X1443142D01*
X506730Y840740D02*
X509270D01*
X511810Y843280D01*
X514350Y840740D01*
X516890D01*
Y843280D01*
X514350Y845820D01*
X516890Y848360D01*
Y850900D01*
X514350D01*
X511810Y848360D01*
X509270Y850900D01*
X506730D01*
Y848360D01*
X509270Y845820D01*
X506730Y843280D01*
Y840740D01*
X730250Y815340D02*
X732790D01*
X735330Y817880D01*
X737870Y815340D01*
X740410D01*
Y817880D01*
X737870Y820420D01*
X740410Y822960D01*
Y825500D01*
X737870D01*
X735330Y822960D01*
X732790Y825500D01*
X730250D01*
Y822960D01*
X732790Y820420D01*
X730250Y817880D01*
Y815340D01*
X406900Y830580D02*
X409440D01*
X411980Y833120D01*
X414520Y830580D01*
X417060D01*
Y833120D01*
X414520Y835660D01*
X417060Y838200D01*
Y840740D01*
X414520D01*
X411980Y838200D01*
X409440Y840740D01*
X406900D01*
Y838200D01*
X409440Y835660D01*
X406900Y833120D01*
Y830580D01*
X803910Y673100D02*
X806450D01*
X808990Y675640D01*
X811530Y673100D01*
X814070D01*
Y675640D01*
X811530Y678180D01*
X814070Y680720D01*
Y683260D01*
X811530D01*
X808990Y680720D01*
X806450Y683260D01*
X803910D01*
Y680720D01*
X806450Y678180D01*
X803910Y675640D01*
Y673100D01*
X734060Y607060D02*
X736600D01*
X739140Y609600D01*
X741680Y607060D01*
X744220D01*
Y609600D01*
X741680Y612140D01*
X744220Y614680D01*
Y617220D01*
X741680D01*
X739140Y614680D01*
X736600Y617220D01*
X734060D01*
Y614680D01*
X736600Y612140D01*
X734060Y609600D01*
Y607060D01*
X742950Y617220D02*
X745490D01*
X748030Y619760D01*
X750570Y617220D01*
X753110D01*
Y619760D01*
X750570Y622300D01*
X753110Y624840D01*
Y627380D01*
X750570D01*
X748030Y624840D01*
X745490Y627380D01*
X742950D01*
Y624840D01*
X745490Y622300D01*
X742950Y619760D01*
Y617220D01*
X751840Y627380D02*
X754380D01*
X756920Y629920D01*
X759460Y627380D01*
X762000D01*
Y629920D01*
X759460Y632460D01*
X762000Y635000D01*
Y637540D01*
X759460D01*
X756920Y635000D01*
X754380Y637540D01*
X751840D01*
Y635000D01*
X754380Y632460D01*
X751840Y629920D01*
Y627380D01*
X734060D02*
X736600D01*
X739140Y629920D01*
X741680Y627380D01*
X744220D01*
Y629920D01*
X741680Y632460D01*
X744220Y635000D01*
Y637540D01*
X741680D01*
X739140Y635000D01*
X736600Y637540D01*
X734060D01*
Y635000D01*
X736600Y632460D01*
X734060Y629920D01*
Y627380D01*
X751840Y607060D02*
X754380D01*
X756920Y609600D01*
X759460Y607060D01*
X762000D01*
Y609600D01*
X759460Y612140D01*
X762000Y614680D01*
Y617220D01*
X759460D01*
X756920Y614680D01*
X754380Y617220D01*
X751840D01*
Y614680D01*
X754380Y612140D01*
X751840Y609600D01*
Y607060D01*
X741680Y815340D02*
X744220D01*
X746760Y817880D01*
X749300Y815340D01*
X751840D01*
Y817880D01*
X749300Y820420D01*
X751840Y822960D01*
Y825500D01*
X749300D01*
X746760Y822960D01*
X744220Y825500D01*
X741680D01*
Y822960D01*
X744220Y820420D01*
X741680Y817880D01*
Y815340D01*
X718820D02*
X721360D01*
X723900Y817880D01*
X726440Y815340D01*
X728980D01*
Y817880D01*
X726440Y820420D01*
X728980Y822960D01*
Y825500D01*
X726440D01*
X723900Y822960D01*
X721360Y825500D01*
X718820D01*
Y822960D01*
X721360Y820420D01*
X718820Y817880D01*
Y815340D01*
X741680Y805180D02*
X744220D01*
X746760Y807720D01*
X749300Y805180D01*
X751840D01*
Y807720D01*
X749300Y810260D01*
X751840Y812800D01*
Y815340D01*
X749300D01*
X746760Y812800D01*
X744220Y815340D01*
X741680D01*
Y812800D01*
X744220Y810260D01*
X741680Y807720D01*
Y805180D01*
X718820D02*
X721360D01*
X723900Y807720D01*
X726440Y805180D01*
X728980D01*
Y807720D01*
X726440Y810260D01*
X728980Y812800D01*
Y815340D01*
X726440D01*
X723900Y812800D01*
X721360Y815340D01*
X718820D01*
Y812800D01*
X721360Y810260D01*
X718820Y807720D01*
Y805180D01*
X730250D02*
X732790D01*
X735330Y807720D01*
X737870Y805180D01*
X740410D01*
Y807720D01*
X737870Y810260D01*
X740410Y812800D01*
Y815340D01*
X737870D01*
X735330Y812800D01*
X732790Y815340D01*
X730250D01*
Y812800D01*
X732790Y810260D01*
X730250Y807720D01*
Y805180D01*
X869950Y488950D02*
X872490D01*
X875030Y491490D01*
X877570Y488950D01*
X880110D01*
Y491490D01*
X877570Y494030D01*
X880110Y496570D01*
Y499110D01*
X877570D01*
X875030Y496570D01*
X872490Y499110D01*
X869950D01*
Y496570D01*
X872490Y494030D01*
X869950Y491490D01*
Y488950D01*
X858520D02*
X861060D01*
X863600Y491490D01*
X866140Y488950D01*
X868680D01*
Y491490D01*
X866140Y494030D01*
X868680Y496570D01*
Y499110D01*
X866140D01*
X863600Y496570D01*
X861060Y499110D01*
X858520D01*
Y496570D01*
X861060Y494030D01*
X858520Y491490D01*
Y488950D01*
X847090D02*
X849630D01*
X852170Y491490D01*
X854710Y488950D01*
X857250D01*
Y491490D01*
X854710Y494030D01*
X857250Y496570D01*
Y499110D01*
X854710D01*
X852170Y496570D01*
X849630Y499110D01*
X847090D01*
Y496570D01*
X849630Y494030D01*
X847090Y491490D01*
Y488950D01*
X193930Y755650D02*
X196470D01*
X199010Y758190D01*
X201550Y755650D01*
X204090D01*
Y758190D01*
X201550Y760730D01*
X204090Y763270D01*
Y765810D01*
X201550D01*
X199010Y763270D01*
X196470Y765810D01*
X193930D01*
Y763270D01*
X196470Y760730D01*
X193930Y758190D01*
Y755650D01*
X58420Y839466D02*
Y826770D01*
X64768D01*
X66884Y828886D01*
Y831002D01*
X64768Y833118D01*
X58420D01*
X64768D01*
X66884Y835234D01*
Y837350D01*
X64768Y839466D01*
X58420D01*
X90250Y702330D02*
X92790D01*
X95330Y704870D01*
X97870Y702330D01*
X100410D01*
Y704870D01*
X97870Y707410D01*
X100410Y709950D01*
Y712490D01*
X97870D01*
X95330Y709950D01*
X92790Y712490D01*
X90250D01*
Y709950D01*
X92790Y707410D01*
X90250Y704870D01*
Y702330D01*
X215820Y656590D02*
X218360D01*
X220900Y659130D01*
X223440Y656590D01*
X225980D01*
Y659130D01*
X223440Y661670D01*
X225980Y664210D01*
Y666750D01*
X223440D01*
X220900Y664210D01*
X218360Y666750D01*
X215820D01*
Y664210D01*
X218360Y661670D01*
X215820Y659130D01*
Y656590D01*
X195500D02*
X198040D01*
X200580Y659130D01*
X203120Y656590D01*
X205660D01*
Y659130D01*
X203120Y661670D01*
X205660Y664210D01*
Y666750D01*
X203120D01*
X200580Y664210D01*
X198040Y666750D01*
X195500D01*
Y664210D01*
X198040Y661670D01*
X195500Y659130D01*
Y656590D01*
X543540Y812800D02*
X546080D01*
X548620Y815340D01*
X551160Y812800D01*
X553700D01*
Y815340D01*
X551160Y817880D01*
X553700Y820420D01*
Y822960D01*
X551160D01*
X548620Y820420D01*
X546080Y822960D01*
X543540D01*
Y820420D01*
X546080Y817880D01*
X543540Y815340D01*
Y812800D01*
Y835660D02*
X546080D01*
X548620Y838200D01*
X551160Y835660D01*
X553700D01*
Y838200D01*
X551160Y840740D01*
X553700Y843280D01*
Y845820D01*
X551160D01*
X548620Y843280D01*
X546080Y845820D01*
X543540D01*
Y843280D01*
X546080Y840740D01*
X543540Y838200D01*
Y835660D01*
X152380Y711200D02*
X154920D01*
X157460Y713740D01*
X160000Y711200D01*
X162540D01*
Y713740D01*
X160000Y716280D01*
X162540Y718820D01*
Y721360D01*
X160000D01*
X157460Y718820D01*
X154920Y721360D01*
X152380D01*
Y718820D01*
X154920Y716280D01*
X152380Y713740D01*
Y711200D01*
Y731520D02*
X154920D01*
X157460Y734060D01*
X160000Y731520D01*
X162540D01*
Y734060D01*
X160000Y736600D01*
X162540Y739140D01*
Y741680D01*
X160000D01*
X157460Y739140D01*
X154920Y741680D01*
X152380D01*
Y739140D01*
X154920Y736600D01*
X152380Y734060D01*
Y731520D01*
X539750Y869950D02*
X542290D01*
X544830Y872490D01*
X547370Y869950D01*
X549910D01*
Y872490D01*
X547370Y875030D01*
X549910Y877570D01*
Y880110D01*
X547370D01*
X544830Y877570D01*
X542290Y880110D01*
X539750D01*
Y877570D01*
X542290Y875030D01*
X539750Y872490D01*
Y869950D01*
X623460Y937260D02*
X626000D01*
X628540Y939800D01*
X631080Y937260D01*
X633620D01*
Y939800D01*
X631080Y942340D01*
X633620Y944880D01*
Y947420D01*
X631080D01*
X628540Y944880D01*
X626000Y947420D01*
X623460D01*
Y944880D01*
X626000Y942340D01*
X623460Y939800D01*
Y937260D01*
X601980Y853440D02*
X604520D01*
X607060Y855980D01*
X609600Y853440D01*
X612140D01*
Y855980D01*
X609600Y858520D01*
X612140Y861060D01*
Y863600D01*
X609600D01*
X607060Y861060D01*
X604520Y863600D01*
X601980D01*
Y861060D01*
X604520Y858520D01*
X601980Y855980D01*
Y853440D01*
X846929Y504826D02*
X849469D01*
X852009Y507366D01*
X854549Y504826D01*
X857089D01*
Y507366D01*
X854549Y509906D01*
X857089Y512446D01*
Y514986D01*
X854549D01*
X852009Y512446D01*
X849469Y514986D01*
X846929D01*
Y512446D01*
X849469Y509906D01*
X846929Y507366D01*
Y504826D01*
X855819D02*
X858359D01*
X860899Y507366D01*
X863439Y504826D01*
X865979D01*
Y507366D01*
X863439Y509906D01*
X865979Y512446D01*
Y514986D01*
X863439D01*
X860899Y512446D01*
X858359Y514986D01*
X855819D01*
Y512446D01*
X858359Y509906D01*
X855819Y507366D01*
Y504826D01*
X846929Y475616D02*
X849469D01*
X852009Y478156D01*
X854549Y475616D01*
X857089D01*
Y478156D01*
X854549Y480696D01*
X857089Y483236D01*
Y485776D01*
X854549D01*
X852009Y483236D01*
X849469Y485776D01*
X846929D01*
Y483236D01*
X849469Y480696D01*
X846929Y478156D01*
Y475616D01*
X858359D02*
X860899D01*
X863439Y478156D01*
X865979Y475616D01*
X868519D01*
Y478156D01*
X865979Y480696D01*
X868519Y483236D01*
Y485776D01*
X865979D01*
X863439Y483236D01*
X860899Y485776D01*
X858359D01*
Y483236D01*
X860899Y480696D01*
X858359Y478156D01*
Y475616D01*
X945566Y556896D02*
X948106D01*
X950646Y559436D01*
X953186Y556896D01*
X955726D01*
Y559436D01*
X953186Y561976D01*
X955726Y564516D01*
Y567056D01*
X953186D01*
X950646Y564516D01*
X948106Y567056D01*
X945566D01*
Y564516D01*
X948106Y561976D01*
X945566Y559436D01*
Y556896D01*
X972659D02*
X975199D01*
X977739Y559436D01*
X980279Y556896D01*
X982819D01*
Y559436D01*
X980279Y561976D01*
X982819Y564516D01*
Y567056D01*
X980279D01*
X977739Y564516D01*
X975199Y567056D01*
X972659D01*
Y564516D01*
X975199Y561976D01*
X972659Y559436D01*
Y556896D01*
Y539116D02*
X975199D01*
X977739Y541656D01*
X980279Y539116D01*
X982819D01*
Y541656D01*
X980279Y544196D01*
X982819Y546736D01*
Y549276D01*
X980279D01*
X977739Y546736D01*
X975199Y549276D01*
X972659D01*
Y546736D01*
X975199Y544196D01*
X972659Y541656D01*
Y539116D01*
X932019Y556896D02*
X934559D01*
X937099Y559436D01*
X939639Y556896D01*
X942179D01*
Y559436D01*
X939639Y561976D01*
X942179Y564516D01*
Y567056D01*
X939639D01*
X937099Y564516D01*
X934559Y567056D01*
X932019D01*
Y564516D01*
X934559Y561976D01*
X932019Y559436D01*
Y556896D01*
X959113D02*
X961653D01*
X964193Y559436D01*
X966733Y556896D01*
X969273D01*
Y559436D01*
X966733Y561976D01*
X969273Y564516D01*
Y567056D01*
X966733D01*
X964193Y564516D01*
X961653Y567056D01*
X959113D01*
Y564516D01*
X961653Y561976D01*
X959113Y559436D01*
Y556896D01*
X1125220Y518160D02*
X1127760D01*
X1130300Y520700D01*
X1132840Y518160D01*
X1135380D01*
Y520700D01*
X1132840Y523240D01*
X1135380Y525780D01*
Y528320D01*
X1132840D01*
X1130300Y525780D01*
X1127760Y528320D01*
X1125220D01*
Y525780D01*
X1127760Y523240D01*
X1125220Y520700D01*
Y518160D01*
X1112520D02*
X1115060D01*
X1117600Y520700D01*
X1120140Y518160D01*
X1122680D01*
Y520700D01*
X1120140Y523240D01*
X1122680Y525780D01*
Y528320D01*
X1120140D01*
X1117600Y525780D01*
X1115060Y528320D01*
X1112520D01*
Y525780D01*
X1115060Y523240D01*
X1112520Y520700D01*
Y518160D01*
X1465876Y79060D02*
Y66364D01*
X1472223D01*
X1474339Y68480D01*
Y70596D01*
X1472223Y72712D01*
X1465876D01*
X1472223D01*
X1474339Y74828D01*
Y76944D01*
X1472223Y79060D01*
X1465876D01*
X1434124Y46332D02*
Y33636D01*
X1440472D01*
X1442588Y35752D01*
Y37868D01*
X1440472Y39984D01*
X1434124D01*
X1440472D01*
X1442588Y42100D01*
Y44216D01*
X1440472Y46332D01*
X1434124D01*
X1465876D02*
Y33636D01*
X1472223D01*
X1474339Y35752D01*
Y37868D01*
X1472223Y39984D01*
X1465876D01*
X1472223D01*
X1474339Y42100D01*
Y44216D01*
X1472223Y46332D01*
X1465876D01*
X1434124Y79060D02*
Y66364D01*
X1440472D01*
X1442588Y68480D01*
Y70596D01*
X1440472Y72712D01*
X1434124D01*
X1440472D01*
X1442588Y74828D01*
Y76944D01*
X1440472Y79060D01*
X1434124D01*
X1472860Y62696D02*
Y50000D01*
X1479208D01*
X1481324Y52116D01*
Y54232D01*
X1479208Y56348D01*
X1472860D01*
X1479208D01*
X1481324Y58464D01*
Y60580D01*
X1479208Y62696D01*
X1472860D01*
X1427140D02*
Y50000D01*
X1433488D01*
X1435604Y52116D01*
Y54232D01*
X1433488Y56348D01*
X1427140D01*
X1433488D01*
X1435604Y58464D01*
Y60580D01*
X1433488Y62696D01*
X1427140D01*
X1450000Y39836D02*
Y27140D01*
X1456348D01*
X1458464Y29256D01*
Y31372D01*
X1456348Y33488D01*
X1450000D01*
X1456348D01*
X1458464Y35604D01*
Y37720D01*
X1456348Y39836D01*
X1450000D01*
Y85556D02*
Y72860D01*
X1456348D01*
X1458464Y74976D01*
Y77092D01*
X1456348Y79208D01*
X1450000D01*
X1456348D01*
X1458464Y81324D01*
Y83440D01*
X1456348Y85556D01*
X1450000D01*
X1465876Y979060D02*
Y966364D01*
X1472223D01*
X1474339Y968480D01*
Y970596D01*
X1472223Y972712D01*
X1465876D01*
X1472223D01*
X1474339Y974828D01*
Y976944D01*
X1472223Y979060D01*
X1465876D01*
X1434124Y946332D02*
Y933636D01*
X1440472D01*
X1442588Y935752D01*
Y937868D01*
X1440472Y939984D01*
X1434124D01*
X1440472D01*
X1442588Y942100D01*
Y944216D01*
X1440472Y946332D01*
X1434124D01*
X1465876D02*
Y933636D01*
X1472223D01*
X1474339Y935752D01*
Y937868D01*
X1472223Y939984D01*
X1465876D01*
X1472223D01*
X1474339Y942100D01*
Y944216D01*
X1472223Y946332D01*
X1465876D01*
X1434124Y979060D02*
Y966364D01*
X1440472D01*
X1442588Y968480D01*
Y970596D01*
X1440472Y972712D01*
X1434124D01*
X1440472D01*
X1442588Y974828D01*
Y976944D01*
X1440472Y979060D01*
X1434124D01*
X1472860Y962696D02*
Y950000D01*
X1479208D01*
X1481324Y952116D01*
Y954232D01*
X1479208Y956348D01*
X1472860D01*
X1479208D01*
X1481324Y958464D01*
Y960580D01*
X1479208Y962696D01*
X1472860D01*
X1427140D02*
Y950000D01*
X1433488D01*
X1435604Y952116D01*
Y954232D01*
X1433488Y956348D01*
X1427140D01*
X1433488D01*
X1435604Y958464D01*
Y960580D01*
X1433488Y962696D01*
X1427140D01*
X1450000Y939836D02*
Y927140D01*
X1456348D01*
X1458464Y929256D01*
Y931372D01*
X1456348Y933488D01*
X1450000D01*
X1456348D01*
X1458464Y935604D01*
Y937720D01*
X1456348Y939836D01*
X1450000D01*
Y985556D02*
Y972860D01*
X1456348D01*
X1458464Y974976D01*
Y977092D01*
X1456348Y979208D01*
X1450000D01*
X1456348D01*
X1458464Y981324D01*
Y983440D01*
X1456348Y985556D01*
X1450000D01*
X65876Y979060D02*
Y966364D01*
X72224D01*
X74339Y968480D01*
Y970596D01*
X72224Y972712D01*
X65876D01*
X72224D01*
X74339Y974828D01*
Y976944D01*
X72224Y979060D01*
X65876D01*
X34125Y946332D02*
Y933636D01*
X40472D01*
X42588Y935752D01*
Y937868D01*
X40472Y939984D01*
X34125D01*
X40472D01*
X42588Y942100D01*
Y944216D01*
X40472Y946332D01*
X34125D01*
X65876D02*
Y933636D01*
X72224D01*
X74339Y935752D01*
Y937868D01*
X72224Y939984D01*
X65876D01*
X72224D01*
X74339Y942100D01*
Y944216D01*
X72224Y946332D01*
X65876D01*
X34125Y979060D02*
Y966364D01*
X40472D01*
X42588Y968480D01*
Y970596D01*
X40472Y972712D01*
X34125D01*
X40472D01*
X42588Y974828D01*
Y976944D01*
X40472Y979060D01*
X34125D01*
X72860Y962696D02*
Y950000D01*
X79208D01*
X81324Y952116D01*
Y954232D01*
X79208Y956348D01*
X72860D01*
X79208D01*
X81324Y958464D01*
Y960580D01*
X79208Y962696D01*
X72860D01*
X27140D02*
Y950000D01*
X33488D01*
X35604Y952116D01*
Y954232D01*
X33488Y956348D01*
X27140D01*
X33488D01*
X35604Y958464D01*
Y960580D01*
X33488Y962696D01*
X27140D01*
X50000Y939836D02*
Y927140D01*
X56348D01*
X58464Y929256D01*
Y931372D01*
X56348Y933488D01*
X50000D01*
X56348D01*
X58464Y935604D01*
Y937720D01*
X56348Y939836D01*
X50000D01*
Y985556D02*
Y972860D01*
X56348D01*
X58464Y974976D01*
Y977092D01*
X56348Y979208D01*
X50000D01*
X56348D01*
X58464Y981324D01*
Y983440D01*
X56348Y985556D01*
X50000D01*
X65876Y79060D02*
Y66364D01*
X72224D01*
X74339Y68480D01*
Y70596D01*
X72224Y72712D01*
X65876D01*
X72224D01*
X74339Y74828D01*
Y76944D01*
X72224Y79060D01*
X65876D01*
X34125Y46332D02*
Y33636D01*
X40472D01*
X42588Y35752D01*
Y37868D01*
X40472Y39984D01*
X34125D01*
X40472D01*
X42588Y42100D01*
Y44216D01*
X40472Y46332D01*
X34125D01*
X65876D02*
Y33636D01*
X72224D01*
X74339Y35752D01*
Y37868D01*
X72224Y39984D01*
X65876D01*
X72224D01*
X74339Y42100D01*
Y44216D01*
X72224Y46332D01*
X65876D01*
X34125Y79060D02*
Y66364D01*
X40472D01*
X42588Y68480D01*
Y70596D01*
X40472Y72712D01*
X34125D01*
X40472D01*
X42588Y74828D01*
Y76944D01*
X40472Y79060D01*
X34125D01*
X72860Y62696D02*
Y50000D01*
X79208D01*
X81324Y52116D01*
Y54232D01*
X79208Y56348D01*
X72860D01*
X79208D01*
X81324Y58464D01*
Y60580D01*
X79208Y62696D01*
X72860D01*
X27140D02*
Y50000D01*
X33488D01*
X35604Y52116D01*
Y54232D01*
X33488Y56348D01*
X27140D01*
X33488D01*
X35604Y58464D01*
Y60580D01*
X33488Y62696D01*
X27140D01*
X50000Y39836D02*
Y27140D01*
X56348D01*
X58464Y29256D01*
Y31372D01*
X56348Y33488D01*
X50000D01*
X56348D01*
X58464Y35604D01*
Y37720D01*
X56348Y39836D01*
X50000D01*
Y85556D02*
Y72860D01*
X56348D01*
X58464Y74976D01*
Y77092D01*
X56348Y79208D01*
X50000D01*
X56348D01*
X58464Y81324D01*
Y83440D01*
X56348Y85556D01*
X50000D01*
X748030Y560070D02*
X750570D01*
X753110Y562610D01*
X755650Y560070D01*
X758190D01*
Y562610D01*
X755650Y565150D01*
X758190Y567690D01*
Y570230D01*
X755650D01*
X753110Y567690D01*
X750570Y570230D01*
X748030D01*
Y567690D01*
X750570Y565150D01*
X748030Y562610D01*
Y560070D01*
X1052830Y701040D02*
X1055370D01*
X1057910Y703580D01*
X1060450Y701040D01*
X1062990D01*
Y703580D01*
X1060450Y706120D01*
X1062990Y708660D01*
Y711200D01*
X1060450D01*
X1057910Y708660D01*
X1055370Y711200D01*
X1052830D01*
Y708660D01*
X1055370Y706120D01*
X1052830Y703580D01*
Y701040D01*
X538480Y421640D02*
X541020D01*
X543560Y424180D01*
X546100Y421640D01*
X548640D01*
Y424180D01*
X546100Y426720D01*
X548640Y429260D01*
Y431800D01*
X546100D01*
X543560Y429260D01*
X541020Y431800D01*
X538480D01*
Y429260D01*
X541020Y426720D01*
X538480Y424180D01*
Y421640D01*
X217170Y772160D02*
X219710D01*
X222250Y774700D01*
X224790Y772160D01*
X227330D01*
Y774700D01*
X224790Y777240D01*
X227330Y779780D01*
Y782320D01*
X224790D01*
X222250Y779780D01*
X219710Y782320D01*
X217170D01*
Y779780D01*
X219710Y777240D01*
X217170Y774700D01*
Y772160D01*
X586740Y906780D02*
X589280D01*
X591820Y909320D01*
X594360Y906780D01*
X596900D01*
Y909320D01*
X594360Y911860D01*
X596900Y914400D01*
Y916940D01*
X594360D01*
X591820Y914400D01*
X589280Y916940D01*
X586740D01*
Y914400D01*
X589280Y911860D01*
X586740Y909320D01*
Y906780D01*
X335280Y634996D02*
Y622300D01*
X341628D01*
X343744Y624416D01*
Y626532D01*
X341628Y628648D01*
X335280D01*
X341628D01*
X343744Y630764D01*
Y632880D01*
X341628Y634996D01*
X335280D01*
X345440D02*
Y622300D01*
X351788D01*
X353904Y624416D01*
Y626532D01*
X351788Y628648D01*
X345440D01*
X351788D01*
X353904Y630764D01*
Y632880D01*
X351788Y634996D01*
X345440D01*
X302260Y777070D02*
X304800D01*
X307340Y779610D01*
X309880Y777070D01*
X312420D01*
Y779610D01*
X309880Y782150D01*
X312420Y784690D01*
Y787230D01*
X309880D01*
X307340Y784690D01*
X304800Y787230D01*
X302260D01*
Y784690D01*
X304800Y782150D01*
X302260Y779610D01*
Y777070D01*
X299720Y715006D02*
Y702310D01*
X306068D01*
X308184Y704426D01*
Y706542D01*
X306068Y708658D01*
X299720D01*
X306068D01*
X308184Y710774D01*
Y712890D01*
X306068Y715006D01*
X299720D01*
X373380Y608330D02*
X375920D01*
X378460Y610870D01*
X381000Y608330D01*
X383540D01*
Y610870D01*
X381000Y613410D01*
X383540Y615950D01*
Y618490D01*
X381000D01*
X378460Y615950D01*
X375920Y618490D01*
X373380D01*
Y615950D01*
X375920Y613410D01*
X373380Y610870D01*
Y608330D01*
X871220Y461010D02*
X873760D01*
X876300Y463550D01*
X878840Y461010D01*
X881380D01*
Y463550D01*
X878840Y466090D01*
X881380Y468630D01*
Y471170D01*
X878840D01*
X876300Y468630D01*
X873760Y471170D01*
X871220D01*
Y468630D01*
X873760Y466090D01*
X871220Y463550D01*
Y461010D01*
X999490Y560070D02*
X1002030D01*
X1004570Y562610D01*
X1007110Y560070D01*
X1009650D01*
Y562610D01*
X1007110Y565150D01*
X1009650Y567690D01*
Y570230D01*
X1007110D01*
X1004570Y567690D01*
X1002030Y570230D01*
X999490D01*
Y567690D01*
X1002030Y565150D01*
X999490Y562610D01*
Y560070D01*
Y547370D02*
X1002030D01*
X1004570Y549910D01*
X1007110Y547370D01*
X1009650D01*
Y549910D01*
X1007110Y552450D01*
X1009650Y554990D01*
Y557530D01*
X1007110D01*
X1004570Y554990D01*
X1002030Y557530D01*
X999490D01*
Y554990D01*
X1002030Y552450D01*
X999490Y549910D01*
Y547370D01*
Y534670D02*
X1002030D01*
X1004570Y537210D01*
X1007110Y534670D01*
X1009650D01*
Y537210D01*
X1007110Y539750D01*
X1009650Y542290D01*
Y544830D01*
X1007110D01*
X1004570Y542290D01*
X1002030Y544830D01*
X999490D01*
Y542290D01*
X1002030Y539750D01*
X999490Y537210D01*
Y534670D01*
X1068070Y570230D02*
X1070610D01*
X1073150Y572770D01*
X1075690Y570230D01*
X1078230D01*
Y572770D01*
X1075690Y575310D01*
X1078230Y577850D01*
Y580390D01*
X1075690D01*
X1073150Y577850D01*
X1070610Y580390D01*
X1068070D01*
Y577850D01*
X1070610Y575310D01*
X1068070Y572770D01*
Y570230D01*
X1080770D02*
X1083310D01*
X1085850Y572770D01*
X1088390Y570230D01*
X1090930D01*
Y572770D01*
X1088390Y575310D01*
X1090930Y577850D01*
Y580390D01*
X1088390D01*
X1085850Y577850D01*
X1083310Y580390D01*
X1080770D01*
Y577850D01*
X1083310Y575310D01*
X1080770Y572770D01*
Y570230D01*
X1093470D02*
X1096010D01*
X1098550Y572770D01*
X1101090Y570230D01*
X1103630D01*
Y572770D01*
X1101090Y575310D01*
X1103630Y577850D01*
Y580390D01*
X1101090D01*
X1098550Y577850D01*
X1096010Y580390D01*
X1093470D01*
Y577850D01*
X1096010Y575310D01*
X1093470Y572770D01*
Y570230D01*
X176530Y673100D02*
X179070D01*
X181610Y675640D01*
X184150Y673100D01*
X186690D01*
Y675640D01*
X184150Y678180D01*
X186690Y680720D01*
Y683260D01*
X184150D01*
X181610Y680720D01*
X179070Y683260D01*
X176530D01*
Y680720D01*
X179070Y678180D01*
X176530Y675640D01*
Y673100D01*
X351790Y770890D02*
X354330D01*
X356870Y773430D01*
X359410Y770890D01*
X361950D01*
Y773430D01*
X359410Y775970D01*
X361950Y778510D01*
Y781050D01*
X359410D01*
X356870Y778510D01*
X354330Y781050D01*
X351790D01*
Y778510D01*
X354330Y775970D01*
X351790Y773430D01*
Y770890D01*
X571500Y577850D02*
X574040D01*
X576580Y580390D01*
X579120Y577850D01*
X581660D01*
Y580390D01*
X579120Y582930D01*
X581660Y585470D01*
Y588010D01*
X579120D01*
X576580Y585470D01*
X574040Y588010D01*
X571500D01*
Y585470D01*
X574040Y582930D01*
X571500Y580390D01*
Y577850D01*
X753110Y472440D02*
X755650D01*
X758190Y474980D01*
X760730Y472440D01*
X763270D01*
Y474980D01*
X760730Y477520D01*
X763270Y480060D01*
Y482600D01*
X760730D01*
X758190Y480060D01*
X755650Y482600D01*
X753110D01*
Y480060D01*
X755650Y477520D01*
X753110Y474980D01*
Y472440D01*
X883920Y457200D02*
X886460D01*
X889000Y459740D01*
X891540Y457200D01*
X894080D01*
Y459740D01*
X891540Y462280D01*
X894080Y464820D01*
Y467360D01*
X891540D01*
X889000Y464820D01*
X886460Y467360D01*
X883920D01*
Y464820D01*
X886460Y462280D01*
X883920Y459740D01*
Y457200D01*
X1038860Y646430D02*
X1041400D01*
X1043940Y648970D01*
X1046480Y646430D01*
X1049020D01*
Y648970D01*
X1046480Y651510D01*
X1049020Y654050D01*
Y656590D01*
X1046480D01*
X1043940Y654050D01*
X1041400Y656590D01*
X1038860D01*
Y654050D01*
X1041400Y651510D01*
X1038860Y648970D01*
Y646430D01*
X709930Y648970D02*
X712470D01*
X715010Y651510D01*
X717550Y648970D01*
X720090D01*
Y651510D01*
X717550Y654050D01*
X720090Y656590D01*
Y659130D01*
X717550D01*
X715010Y656590D01*
X712470Y659130D01*
X709930D01*
Y656590D01*
X712470Y654050D01*
X709930Y651510D01*
Y648970D01*
X770890D02*
X773430D01*
X775970Y651510D01*
X778510Y648970D01*
X781050D01*
Y651510D01*
X778510Y654050D01*
X781050Y656590D01*
Y659130D01*
X778510D01*
X775970Y656590D01*
X773430Y659130D01*
X770890D01*
Y656590D01*
X773430Y654050D01*
X770890Y651510D01*
Y648970D01*
X779780Y670560D02*
X782320D01*
X784860Y673100D01*
X787400Y670560D01*
X789940D01*
Y673100D01*
X787400Y675640D01*
X789940Y678180D01*
Y680720D01*
X787400D01*
X784860Y678180D01*
X782320Y680720D01*
X779780D01*
Y678180D01*
X782320Y675640D01*
X779780Y673100D01*
Y670560D01*
X476250Y477520D02*
X478790D01*
X481330Y480060D01*
X483870Y477520D01*
X486410D01*
Y480060D01*
X483870Y482600D01*
X486410Y485140D01*
Y487680D01*
X483870D01*
X481330Y485140D01*
X478790Y487680D01*
X476250D01*
Y485140D01*
X478790Y482600D01*
X476250Y480060D01*
Y477520D01*
X506730Y462276D02*
Y449580D01*
X513078D01*
X515194Y451696D01*
Y453812D01*
X513078Y455928D01*
X506730D01*
X513078D01*
X515194Y458044D01*
Y460160D01*
X513078Y462276D01*
X506730D01*
X675640Y894080D02*
X678180D01*
X680720Y896620D01*
X683260Y894080D01*
X685800D01*
Y896620D01*
X683260Y899160D01*
X685800Y901700D01*
Y904240D01*
X683260D01*
X680720Y901700D01*
X678180Y904240D01*
X675640D01*
Y901700D01*
X678180Y899160D01*
X675640Y896620D01*
Y894080D01*
X1074420Y476250D02*
X1076960D01*
X1079500Y478790D01*
X1082040Y476250D01*
X1084580D01*
Y478790D01*
X1082040Y481330D01*
X1084580Y483870D01*
Y486410D01*
X1082040D01*
X1079500Y483870D01*
X1076960Y486410D01*
X1074420D01*
Y483870D01*
X1076960Y481330D01*
X1074420Y478790D01*
Y476250D01*
X1102360Y504190D02*
X1104900D01*
X1107440Y506730D01*
X1109980Y504190D01*
X1112520D01*
Y506730D01*
X1109980Y509270D01*
X1112520Y511810D01*
Y514350D01*
X1109980D01*
X1107440Y511810D01*
X1104900Y514350D01*
X1102360D01*
Y511810D01*
X1104900Y509270D01*
X1102360Y506730D01*
Y504190D01*
X1113790D02*
X1116330D01*
X1118870Y506730D01*
X1121410Y504190D01*
X1123950D01*
Y506730D01*
X1121410Y509270D01*
X1123950Y511810D01*
Y514350D01*
X1121410D01*
X1118870Y511810D01*
X1116330Y514350D01*
X1113790D01*
Y511810D01*
X1116330Y509270D01*
X1113790Y506730D01*
Y504190D01*
X1125220D02*
X1127760D01*
X1130300Y506730D01*
X1132840Y504190D01*
X1135380D01*
Y506730D01*
X1132840Y509270D01*
X1135380Y511810D01*
Y514350D01*
X1132840D01*
X1130300Y511810D01*
X1127760Y514350D01*
X1125220D01*
Y511810D01*
X1127760Y509270D01*
X1125220Y506730D01*
Y504190D01*
X1123950Y534670D02*
X1126490D01*
X1129030Y537210D01*
X1131570Y534670D01*
X1134110D01*
Y537210D01*
X1131570Y539750D01*
X1134110Y542290D01*
Y544830D01*
X1131570D01*
X1129030Y542290D01*
X1126490Y544830D01*
X1123950D01*
Y542290D01*
X1126490Y539750D01*
X1123950Y537210D01*
Y534670D01*
X1112520D02*
X1115060D01*
X1117600Y537210D01*
X1120140Y534670D01*
X1122680D01*
Y537210D01*
X1120140Y539750D01*
X1122680Y542290D01*
Y544830D01*
X1120140D01*
X1117600Y542290D01*
X1115060Y544830D01*
X1112520D01*
Y542290D01*
X1115060Y539750D01*
X1112520Y537210D01*
Y534670D01*
X1101090D02*
X1103630D01*
X1106170Y537210D01*
X1108710Y534670D01*
X1111250D01*
Y537210D01*
X1108710Y539750D01*
X1111250Y542290D01*
Y544830D01*
X1108710D01*
X1106170Y542290D01*
X1103630Y544830D01*
X1101090D01*
Y542290D01*
X1103630Y539750D01*
X1101090Y537210D01*
Y534670D01*
X330200Y847090D02*
X332740D01*
X335280Y849630D01*
X337820Y847090D01*
X340360D01*
Y849630D01*
X337820Y852170D01*
X340360Y854710D01*
Y857250D01*
X337820D01*
X335280Y854710D01*
X332740Y857250D01*
X330200D01*
Y854710D01*
X332740Y852170D01*
X330200Y849630D01*
Y847090D01*
X284480Y819150D02*
X287020D01*
X289560Y821690D01*
X292100Y819150D01*
X294640D01*
Y821690D01*
X292100Y824230D01*
X294640Y826770D01*
Y829310D01*
X292100D01*
X289560Y826770D01*
X287020Y829310D01*
X284480D01*
Y826770D01*
X287020Y824230D01*
X284480Y821690D01*
Y819150D01*
X260350Y805180D02*
X262890D01*
X265430Y807720D01*
X267970Y805180D01*
X270510D01*
Y807720D01*
X267970Y810260D01*
X270510Y812800D01*
Y815340D01*
X267970D01*
X265430Y812800D01*
X262890Y815340D01*
X260350D01*
Y812800D01*
X262890Y810260D01*
X260350Y807720D01*
Y805180D01*
X349250Y631190D02*
X351790D01*
X354330Y633730D01*
X356870Y631190D01*
X359410D01*
Y633730D01*
X356870Y636270D01*
X359410Y638810D01*
Y641350D01*
X356870D01*
X354330Y638810D01*
X351790Y641350D01*
X349250D01*
Y638810D01*
X351790Y636270D01*
X349250Y633730D01*
Y631190D01*
X317500Y709926D02*
Y697230D01*
X323848D01*
X325964Y699346D01*
Y701462D01*
X323848Y703578D01*
X317500D01*
X323848D01*
X325964Y705694D01*
Y707810D01*
X323848Y709926D01*
X317500D01*
X1125220Y274320D02*
X1127760D01*
X1130300Y276860D01*
X1132840Y274320D01*
X1135380D01*
Y276860D01*
X1132840Y279400D01*
X1135380Y281940D01*
Y284480D01*
X1132840D01*
X1130300Y281940D01*
X1127760Y284480D01*
X1125220D01*
Y281940D01*
X1127760Y279400D01*
X1125220Y276860D01*
Y274320D01*
X1042670Y191770D02*
X1045210D01*
X1047750Y194310D01*
X1050290Y191770D01*
X1052830D01*
Y194310D01*
X1050290Y196850D01*
X1052830Y199390D01*
Y201930D01*
X1050290D01*
X1047750Y199390D01*
X1045210Y201930D01*
X1042670D01*
Y199390D01*
X1045210Y196850D01*
X1042670Y194310D01*
Y191770D01*
X1290320Y124460D02*
X1292860D01*
X1295400Y127000D01*
X1297940Y124460D01*
X1300480D01*
Y127000D01*
X1297940Y129540D01*
X1300480Y132080D01*
Y134620D01*
X1297940D01*
X1295400Y132080D01*
X1292860Y134620D01*
X1290320D01*
Y132080D01*
X1292860Y129540D01*
X1290320Y127000D01*
Y124460D01*
X1280310Y284480D02*
X1282850D01*
X1285390Y287020D01*
X1287930Y284480D01*
X1290470D01*
Y287020D01*
X1287930Y289560D01*
X1290470Y292100D01*
Y294640D01*
X1287930D01*
X1285390Y292100D01*
X1282850Y294640D01*
X1280310D01*
Y292100D01*
X1282850Y289560D01*
X1280310Y287020D01*
Y284480D01*
X69850Y702310D02*
X72390D01*
X74930Y704850D01*
X77470Y702310D01*
X80010D01*
Y704850D01*
X77470Y707390D01*
X80010Y709930D01*
Y712470D01*
X77470D01*
X74930Y709930D01*
X72390Y712470D01*
X69850D01*
Y709930D01*
X72390Y707390D01*
X69850Y704850D01*
Y702310D01*
X877570Y671830D02*
X880110D01*
X882650Y674370D01*
X885190Y671830D01*
X887730D01*
Y674370D01*
X885190Y676910D01*
X887730Y679450D01*
Y681990D01*
X885190D01*
X882650Y679450D01*
X880110Y681990D01*
X877570D01*
Y679450D01*
X880110Y676910D01*
X877570Y674370D01*
Y671830D01*
X1363980Y852170D02*
X1366520D01*
X1369060Y854710D01*
X1371600Y852170D01*
X1374140D01*
Y854710D01*
X1371600Y857250D01*
X1374140Y859790D01*
Y862330D01*
X1371600D01*
X1369060Y859790D01*
X1366520Y862330D01*
X1363980D01*
Y859790D01*
X1366520Y857250D01*
X1363980Y854710D01*
Y852170D01*
X1297940Y589280D02*
X1300480D01*
X1303020Y591820D01*
X1305560Y589280D01*
X1308100D01*
Y591820D01*
X1305560Y594360D01*
X1308100Y596900D01*
Y599440D01*
X1305560D01*
X1303020Y596900D01*
X1300480Y599440D01*
X1297940D01*
Y596900D01*
X1300480Y594360D01*
X1297940Y591820D01*
Y589280D01*
X919480Y842010D02*
X922020D01*
X924560Y844550D01*
X927100Y842010D01*
X929640D01*
Y844550D01*
X927100Y847090D01*
X929640Y849630D01*
Y852170D01*
X927100D01*
X924560Y849630D01*
X922020Y852170D01*
X919480D01*
Y849630D01*
X922020Y847090D01*
X919480Y844550D01*
Y842010D01*
X881380Y758190D02*
X883920D01*
X886460Y760730D01*
X889000Y758190D01*
X891540D01*
Y760730D01*
X889000Y763270D01*
X891540Y765810D01*
Y768350D01*
X889000D01*
X886460Y765810D01*
X883920Y768350D01*
X881380D01*
Y765810D01*
X883920Y763270D01*
X881380Y760730D01*
Y758190D01*
X1093470Y803910D02*
X1096010D01*
X1098550Y806450D01*
X1101090Y803910D01*
X1103630D01*
Y806450D01*
X1101090Y808990D01*
X1103630Y811530D01*
Y814070D01*
X1101090D01*
X1098550Y811530D01*
X1096010Y814070D01*
X1093470D01*
Y811530D01*
X1096010Y808990D01*
X1093470Y806450D01*
Y803910D01*
X182880Y367030D02*
X185420D01*
X187960Y369570D01*
X190500Y367030D01*
X193040D01*
Y369570D01*
X190500Y372110D01*
X193040Y374650D01*
Y377190D01*
X190500D01*
X187960Y374650D01*
X185420Y377190D01*
X182880D01*
Y374650D01*
X185420Y372110D01*
X182880Y369570D01*
Y367030D01*
X793750Y777236D02*
Y764540D01*
X800098D01*
X802214Y766656D01*
Y768772D01*
X800098Y770888D01*
X793750D01*
X800098D01*
X802214Y773004D01*
Y775120D01*
X800098Y777236D01*
X793750D01*
X638810Y769616D02*
Y756920D01*
X645158D01*
X647274Y759036D01*
Y761152D01*
X645158Y763268D01*
X638810D01*
X645158D01*
X647274Y765384D01*
Y767500D01*
X645158Y769616D01*
X638810D01*
X679410Y861096D02*
Y848400D01*
X685758D01*
X687874Y850516D01*
Y852632D01*
X685758Y854748D01*
X679410D01*
X685758D01*
X687874Y856864D01*
Y858980D01*
X685758Y861096D01*
X679410D01*
X679450Y873756D02*
Y861060D01*
X685798D01*
X687914Y863176D01*
Y865292D01*
X685798Y867408D01*
X679450D01*
X685798D01*
X687914Y869524D01*
Y871640D01*
X685798Y873756D01*
X679450D01*
X652780Y715006D02*
Y702310D01*
X659128D01*
X661244Y704426D01*
Y706542D01*
X659128Y708658D01*
X652780D01*
X659128D01*
X661244Y710774D01*
Y712890D01*
X659128Y715006D01*
X652780D01*
X595630Y750566D02*
Y737870D01*
X601978D01*
X604094Y739986D01*
Y742102D01*
X601978Y744218D01*
X595630D01*
X601978D01*
X604094Y746334D01*
Y748450D01*
X601978Y750566D01*
X595630D01*
X312420Y756916D02*
Y744220D01*
X318768D01*
X320884Y746336D01*
Y748452D01*
X318768Y750568D01*
X312420D01*
X318768D01*
X320884Y752684D01*
Y754800D01*
X318768Y756916D01*
X312420D01*
X284480Y726436D02*
Y713740D01*
X290828D01*
X292944Y715856D01*
Y717972D01*
X290828Y720088D01*
X284480D01*
X290828D01*
X292944Y722204D01*
Y724320D01*
X290828Y726436D01*
X284480D01*
X285750Y645156D02*
Y632460D01*
X292098D01*
X294214Y634576D01*
Y636692D01*
X292098Y638808D01*
X285750D01*
X292098D01*
X294214Y640924D01*
Y643040D01*
X292098Y645156D01*
X285750D01*
X278130Y655316D02*
Y642620D01*
X284478D01*
X286594Y644736D01*
Y646852D01*
X284478Y648968D01*
X278130D01*
X284478D01*
X286594Y651084D01*
Y653200D01*
X284478Y655316D01*
X278130D01*
X292100Y721356D02*
Y708660D01*
X298448D01*
X300564Y710776D01*
Y712892D01*
X298448Y715008D01*
X292100D01*
X298448D01*
X300564Y717124D01*
Y719240D01*
X298448Y721356D01*
X292100D01*
X275590Y662936D02*
Y650240D01*
X281938D01*
X284054Y652356D01*
Y654472D01*
X281938Y656588D01*
X275590D01*
X281938D01*
X284054Y658704D01*
Y660820D01*
X281938Y662936D01*
X275590D01*
X271780Y670556D02*
Y657860D01*
X278128D01*
X280244Y659976D01*
Y662092D01*
X278128Y664208D01*
X271780D01*
X278128D01*
X280244Y666324D01*
Y668440D01*
X278128Y670556D01*
X271780D01*
X265430Y676906D02*
Y664210D01*
X271778D01*
X273894Y666326D01*
Y668442D01*
X271778Y670558D01*
X265430D01*
X271778D01*
X273894Y672674D01*
Y674790D01*
X271778Y676906D01*
X265430D01*
X661670Y759456D02*
Y746760D01*
X668018D01*
X670134Y748876D01*
Y750992D01*
X668018Y753108D01*
X661670D01*
X668018D01*
X670134Y755224D01*
Y757340D01*
X668018Y759456D01*
X661670D01*
X706120Y741676D02*
Y728980D01*
X712468D01*
X714584Y731096D01*
Y733212D01*
X712468Y735328D01*
X706120D01*
X712468D01*
X714584Y737444D01*
Y739560D01*
X712468Y741676D01*
X706120D01*
X684530Y805176D02*
Y792480D01*
X690878D01*
X692994Y794596D01*
Y796712D01*
X690878Y798828D01*
X684530D01*
X690878D01*
X692994Y800944D01*
Y803060D01*
X690878Y805176D01*
X684530D01*
X1022350Y676910D02*
X1024890D01*
X1027430Y679450D01*
X1029970Y676910D01*
X1032510D01*
Y679450D01*
X1029970Y681990D01*
X1032510Y684530D01*
Y687070D01*
X1029970D01*
X1027430Y684530D01*
X1024890Y687070D01*
X1022350D01*
Y684530D01*
X1024890Y681990D01*
X1022350Y679450D01*
Y676910D01*
X970245Y829001D02*
Y816305D01*
X976593D01*
X978709Y818421D01*
Y820537D01*
X976593Y822653D01*
X970245D01*
X976593D01*
X978709Y824769D01*
Y826885D01*
X976593Y829001D01*
X970245D01*
X793750Y797556D02*
Y784860D01*
X800098D01*
X802214Y786976D01*
Y789092D01*
X800098Y791208D01*
X793750D01*
X800098D01*
X802214Y793324D01*
Y795440D01*
X800098Y797556D01*
X793750D01*
X1206500Y802636D02*
Y789940D01*
X1212848D01*
X1214964Y792056D01*
Y794172D01*
X1212848Y796288D01*
X1206500D01*
X1212848D01*
X1214964Y798404D01*
Y800520D01*
X1212848Y802636D01*
X1206500D01*
X819100Y911856D02*
Y899160D01*
X825448D01*
X827564Y901276D01*
Y903392D01*
X825448Y905508D01*
X819100D01*
X825448D01*
X827564Y907624D01*
Y909740D01*
X825448Y911856D01*
X819100D01*
X1240790Y822956D02*
Y810260D01*
X1247138D01*
X1249254Y812376D01*
Y814492D01*
X1247138Y816608D01*
X1240790D01*
X1247138D01*
X1249254Y818724D01*
Y820840D01*
X1247138Y822956D01*
X1240790D01*
X855940Y886496D02*
Y873800D01*
X862288D01*
X864404Y875916D01*
Y878032D01*
X862288Y880148D01*
X855940D01*
X862288D01*
X864404Y882264D01*
Y884380D01*
X862288Y886496D01*
X855940D01*
X855980Y924556D02*
Y911860D01*
X862328D01*
X864444Y913976D01*
Y916092D01*
X862328Y918208D01*
X855980D01*
X862328D01*
X864444Y920324D01*
Y922440D01*
X862328Y924556D01*
X855980D01*
X854710Y848356D02*
Y835660D01*
X861058D01*
X863174Y837776D01*
Y839892D01*
X861058Y842008D01*
X854710D01*
X861058D01*
X863174Y844124D01*
Y846240D01*
X861058Y848356D01*
X854710D01*
Y835656D02*
Y822960D01*
X861058D01*
X863174Y825076D01*
Y827192D01*
X861058Y829308D01*
X854710D01*
X861058D01*
X863174Y831424D01*
Y833540D01*
X861058Y835656D01*
X854710D01*
X1299590Y862696D02*
Y850000D01*
X1305938D01*
X1308054Y852116D01*
Y854232D01*
X1305938Y856348D01*
X1299590D01*
X1305938D01*
X1308054Y858464D01*
Y860580D01*
X1305938Y862696D01*
X1299590D01*
Y802696D02*
Y790000D01*
X1305938D01*
X1308054Y792116D01*
Y794232D01*
X1305938Y796348D01*
X1299590D01*
X1305938D01*
X1308054Y798464D01*
Y800580D01*
X1305938Y802696D01*
X1299590D01*
X1299210Y782316D02*
Y769620D01*
X1305558D01*
X1307674Y771736D01*
Y773852D01*
X1305558Y775968D01*
X1299210D01*
X1305558D01*
X1307674Y778084D01*
Y780200D01*
X1305558Y782316D01*
X1299210D01*
X863600Y899156D02*
Y886460D01*
X869948D01*
X872064Y888576D01*
Y890692D01*
X869948Y892808D01*
X863600D01*
X869948D01*
X872064Y894924D01*
Y897040D01*
X869948Y899156D01*
X863600D01*
X967170Y795696D02*
Y783000D01*
X973518D01*
X975634Y785116D01*
Y787232D01*
X973518Y789348D01*
X967170D01*
X973518D01*
X975634Y791464D01*
Y793580D01*
X973518Y795696D01*
X967170D01*
Y806696D02*
Y794000D01*
X973518D01*
X975634Y796116D01*
Y798232D01*
X973518Y800348D01*
X967170D01*
X973518D01*
X975634Y802464D01*
Y804580D01*
X973518Y806696D01*
X967170D01*
X854710Y810256D02*
Y797560D01*
X861058D01*
X863174Y799676D01*
Y801792D01*
X861058Y803908D01*
X854710D01*
X861058D01*
X863174Y806024D01*
Y808140D01*
X861058Y810256D01*
X854710D01*
Y797556D02*
Y784860D01*
X861058D01*
X863174Y786976D01*
Y789092D01*
X861058Y791208D01*
X854710D01*
X861058D01*
X863174Y793324D01*
Y795440D01*
X861058Y797556D01*
X854710D01*
X1395304Y503340D02*
X1393188Y505456D01*
X1388956D01*
X1386840Y503340D01*
Y494876D01*
X1388956Y492760D01*
X1393188D01*
X1395304Y494876D01*
Y499108D01*
X1391072D01*
X970245Y818001D02*
Y805305D01*
X976593D01*
X978709Y807421D01*
Y809537D01*
X976593Y811653D01*
X970245D01*
X976593D01*
X978709Y813769D01*
Y815885D01*
X976593Y818001D01*
X970245D01*
X839470Y402590D02*
X842010D01*
X844550Y405130D01*
X847090Y402590D01*
X849630D01*
Y405130D01*
X847090Y407670D01*
X849630Y410210D01*
Y412750D01*
X847090D01*
X844550Y410210D01*
X842010Y412750D01*
X839470D01*
Y410210D01*
X842010Y407670D01*
X839470Y405130D01*
Y402590D01*
Y414020D02*
X842010D01*
X844550Y416560D01*
X847090Y414020D01*
X849630D01*
Y416560D01*
X847090Y419100D01*
X849630Y421640D01*
Y424180D01*
X847090D01*
X844550Y421640D01*
X842010Y424180D01*
X839470D01*
Y421640D01*
X842010Y419100D01*
X839470Y416560D01*
Y414020D01*
Y426720D02*
X842010D01*
X844550Y429260D01*
X847090Y426720D01*
X849630D01*
Y429260D01*
X847090Y431800D01*
X849630Y434340D01*
Y436880D01*
X847090D01*
X844550Y434340D01*
X842010Y436880D01*
X839470D01*
Y434340D01*
X842010Y431800D01*
X839470Y429260D01*
Y426720D01*
X828040Y402590D02*
X830580D01*
X833120Y405130D01*
X835660Y402590D01*
X838200D01*
Y405130D01*
X835660Y407670D01*
X838200Y410210D01*
Y412750D01*
X835660D01*
X833120Y410210D01*
X830580Y412750D01*
X828040D01*
Y410210D01*
X830580Y407670D01*
X828040Y405130D01*
Y402590D01*
Y414020D02*
X830580D01*
X833120Y416560D01*
X835660Y414020D01*
X838200D01*
Y416560D01*
X835660Y419100D01*
X838200Y421640D01*
Y424180D01*
X835660D01*
X833120Y421640D01*
X830580Y424180D01*
X828040D01*
Y421640D01*
X830580Y419100D01*
X828040Y416560D01*
Y414020D01*
X815340D02*
X817880D01*
X820420Y416560D01*
X822960Y414020D01*
X825500D01*
Y416560D01*
X822960Y419100D01*
X825500Y421640D01*
Y424180D01*
X822960D01*
X820420Y421640D01*
X817880Y424180D01*
X815340D01*
Y421640D01*
X817880Y419100D01*
X815340Y416560D01*
Y414020D01*
Y402590D02*
X817880D01*
X820420Y405130D01*
X822960Y402590D01*
X825500D01*
Y405130D01*
X822960Y407670D01*
X825500Y410210D01*
Y412750D01*
X822960D01*
X820420Y410210D01*
X817880Y412750D01*
X815340D01*
Y410210D01*
X817880Y407670D01*
X815340Y405130D01*
Y402590D01*
X698500Y429260D02*
X701040D01*
X703580Y431800D01*
X706120Y429260D01*
X708660D01*
Y431800D01*
X706120Y434340D01*
X708660Y436880D01*
Y439420D01*
X706120D01*
X703580Y436880D01*
X701040Y439420D01*
X698500D01*
Y436880D01*
X701040Y434340D01*
X698500Y431800D01*
Y429260D01*
X687070D02*
X689610D01*
X692150Y431800D01*
X694690Y429260D01*
X697230D01*
Y431800D01*
X694690Y434340D01*
X697230Y436880D01*
Y439420D01*
X694690D01*
X692150Y436880D01*
X689610Y439420D01*
X687070D01*
Y436880D01*
X689610Y434340D01*
X687070Y431800D01*
Y429260D01*
X675640D02*
X678180D01*
X680720Y431800D01*
X683260Y429260D01*
X685800D01*
Y431800D01*
X683260Y434340D01*
X685800Y436880D01*
Y439420D01*
X683260D01*
X680720Y436880D01*
X678180Y439420D01*
X675640D01*
Y436880D01*
X678180Y434340D01*
X675640Y431800D01*
Y429260D01*
X698500Y419100D02*
X701040D01*
X703580Y421640D01*
X706120Y419100D01*
X708660D01*
Y421640D01*
X706120Y424180D01*
X708660Y426720D01*
Y429260D01*
X706120D01*
X703580Y426720D01*
X701040Y429260D01*
X698500D01*
Y426720D01*
X701040Y424180D01*
X698500Y421640D01*
Y419100D01*
X687070D02*
X689610D01*
X692150Y421640D01*
X694690Y419100D01*
X697230D01*
Y421640D01*
X694690Y424180D01*
X697230Y426720D01*
Y429260D01*
X694690D01*
X692150Y426720D01*
X689610Y429260D01*
X687070D01*
Y426720D01*
X689610Y424180D01*
X687070Y421640D01*
Y419100D01*
X675640D02*
X678180D01*
X680720Y421640D01*
X683260Y419100D01*
X685800D01*
Y421640D01*
X683260Y424180D01*
X685800Y426720D01*
Y429260D01*
X683260D01*
X680720Y426720D01*
X678180Y429260D01*
X675640D01*
Y426720D01*
X678180Y424180D01*
X675640Y421640D01*
Y419100D01*
X828040Y426720D02*
X830580D01*
X833120Y429260D01*
X835660Y426720D01*
X838200D01*
Y429260D01*
X835660Y431800D01*
X838200Y434340D01*
Y436880D01*
X835660D01*
X833120Y434340D01*
X830580Y436880D01*
X828040D01*
Y434340D01*
X830580Y431800D01*
X828040Y429260D01*
Y426720D01*
X524510Y623566D02*
Y610870D01*
X530858D01*
X532974Y612986D01*
Y615102D01*
X530858Y617218D01*
X524510D01*
X530858D01*
X532974Y619334D01*
Y621450D01*
X530858Y623566D01*
X524510D01*
X821690Y873756D02*
Y861060D01*
X828038D01*
X830154Y863176D01*
Y865292D01*
X828038Y867408D01*
X821690D01*
X828038D01*
X830154Y869524D01*
Y871640D01*
X828038Y873756D01*
X821690D01*
X430530Y796286D02*
Y783590D01*
X436878D01*
X438994Y785706D01*
Y787822D01*
X436878Y789938D01*
X430530D01*
X436878D01*
X438994Y792054D01*
Y794170D01*
X436878Y796286D01*
X430530D01*
X361950Y819146D02*
Y806450D01*
X368298D01*
X370414Y808566D01*
Y810682D01*
X368298Y812798D01*
X361950D01*
X368298D01*
X370414Y814914D01*
Y817030D01*
X368298Y819146D01*
X361950D01*
X354394Y807780D02*
Y795084D01*
X360742D01*
X362858Y797200D01*
Y799316D01*
X360742Y801432D01*
X354394D01*
X360742D01*
X362858Y803548D01*
Y805664D01*
X360742Y807780D01*
X354394D01*
X793750Y786126D02*
Y773430D01*
X800098D01*
X802214Y775546D01*
Y777662D01*
X800098Y779778D01*
X793750D01*
X800098D01*
X802214Y781894D01*
Y784010D01*
X800098Y786126D01*
X793750D01*
X392430Y712466D02*
Y699770D01*
X398778D01*
X400894Y701886D01*
Y704002D01*
X398778Y706118D01*
X392430D01*
X398778D01*
X400894Y708234D01*
Y710350D01*
X398778Y712466D01*
X392430D01*
X396240Y718816D02*
Y706120D01*
X402588D01*
X404704Y708236D01*
Y710352D01*
X402588Y712468D01*
X396240D01*
X402588D01*
X404704Y714584D01*
Y716700D01*
X402588Y718816D01*
X396240D01*
X391160Y725166D02*
Y712470D01*
X397508D01*
X399624Y714586D01*
Y716702D01*
X397508Y718818D01*
X391160D01*
X397508D01*
X399624Y720934D01*
Y723050D01*
X397508Y725166D01*
X391160D01*
X506730Y452116D02*
Y439420D01*
X513078D01*
X515194Y441536D01*
Y443652D01*
X513078Y445768D01*
X506730D01*
X513078D01*
X515194Y447884D01*
Y450000D01*
X513078Y452116D01*
X506730D01*
X304800Y807716D02*
Y795020D01*
X311148D01*
X313264Y797136D01*
Y799252D01*
X311148Y801368D01*
X304800D01*
X311148D01*
X313264Y803484D01*
Y805600D01*
X311148Y807716D01*
X304800D01*
X294640D02*
Y795020D01*
X300988D01*
X303104Y797136D01*
Y799252D01*
X300988Y801368D01*
X294640D01*
X300988D01*
X303104Y803484D01*
Y805600D01*
X300988Y807716D01*
X294640D01*
X314960Y808986D02*
Y796290D01*
X321308D01*
X323424Y798406D01*
Y800522D01*
X321308Y802638D01*
X314960D01*
X321308D01*
X323424Y804754D01*
Y806870D01*
X321308Y808986D01*
X314960D01*
X533400Y713736D02*
Y701040D01*
X539748D01*
X541864Y703156D01*
Y705272D01*
X539748Y707388D01*
X533400D01*
X539748D01*
X541864Y709504D01*
Y711620D01*
X539748Y713736D01*
X533400D01*
X782320Y487680D02*
X784860D01*
X787400Y490220D01*
X789940Y487680D01*
X792480D01*
Y490220D01*
X789940Y492760D01*
X792480Y495300D01*
Y497840D01*
X789940D01*
X787400Y495300D01*
X784860Y497840D01*
X782320D01*
Y495300D01*
X784860Y492760D01*
X782320Y490220D01*
Y487680D01*
X1003300Y483870D02*
X1005840D01*
X1008380Y486410D01*
X1010920Y483870D01*
X1013460D01*
Y486410D01*
X1010920Y488950D01*
X1013460Y491490D01*
Y494030D01*
X1010920D01*
X1008380Y491490D01*
X1005840Y494030D01*
X1003300D01*
Y491490D01*
X1005840Y488950D01*
X1003300Y486410D01*
Y483870D01*
X1013460D02*
X1016000D01*
X1018540Y486410D01*
X1021080Y483870D01*
X1023620D01*
Y486410D01*
X1021080Y488950D01*
X1023620Y491490D01*
Y494030D01*
X1021080D01*
X1018540Y491490D01*
X1016000Y494030D01*
X1013460D01*
Y491490D01*
X1016000Y488950D01*
X1013460Y486410D01*
Y483870D01*
X1003300Y473710D02*
X1005840D01*
X1008380Y476250D01*
X1010920Y473710D01*
X1013460D01*
Y476250D01*
X1010920Y478790D01*
X1013460Y481330D01*
Y483870D01*
X1010920D01*
X1008380Y481330D01*
X1005840Y483870D01*
X1003300D01*
Y481330D01*
X1005840Y478790D01*
X1003300Y476250D01*
Y473710D01*
X1013460D02*
X1016000D01*
X1018540Y476250D01*
X1021080Y473710D01*
X1023620D01*
Y476250D01*
X1021080Y478790D01*
X1023620Y481330D01*
Y483870D01*
X1021080D01*
X1018540Y481330D01*
X1016000Y483870D01*
X1013460D01*
Y481330D01*
X1016000Y478790D01*
X1013460Y476250D01*
Y473710D01*
X1003300Y492760D02*
X1005840D01*
X1008380Y495300D01*
X1010920Y492760D01*
X1013460D01*
Y495300D01*
X1010920Y497840D01*
X1013460Y500380D01*
Y502920D01*
X1010920D01*
X1008380Y500380D01*
X1005840Y502920D01*
X1003300D01*
Y500380D01*
X1005840Y497840D01*
X1003300Y495300D01*
Y492760D01*
X1013460D02*
X1016000D01*
X1018540Y495300D01*
X1021080Y492760D01*
X1023620D01*
Y495300D01*
X1021080Y497840D01*
X1023620Y500380D01*
Y502920D01*
X1021080D01*
X1018540Y500380D01*
X1016000Y502920D01*
X1013460D01*
Y500380D01*
X1016000Y497840D01*
X1013460Y495300D01*
Y492760D01*
Y501650D02*
X1016000D01*
X1018540Y504190D01*
X1021080Y501650D01*
X1023620D01*
Y504190D01*
X1021080Y506730D01*
X1023620Y509270D01*
Y511810D01*
X1021080D01*
X1018540Y509270D01*
X1016000Y511810D01*
X1013460D01*
Y509270D01*
X1016000Y506730D01*
X1013460Y504190D01*
Y501650D01*
X1003300D02*
X1005840D01*
X1008380Y504190D01*
X1010920Y501650D01*
X1013460D01*
Y504190D01*
X1010920Y506730D01*
X1013460Y509270D01*
Y511810D01*
X1010920D01*
X1008380Y509270D01*
X1005840Y511810D01*
X1003300D01*
Y509270D01*
X1005840Y506730D01*
X1003300Y504190D01*
Y501650D01*
X57150Y807716D02*
Y795020D01*
X63498D01*
X65614Y797136D01*
Y799252D01*
X63498Y801368D01*
X57150D01*
X63498D01*
X65614Y803484D01*
Y805600D01*
X63498Y807716D01*
X57150D01*
X325120Y797556D02*
Y784860D01*
X331468D01*
X333584Y786976D01*
Y789092D01*
X331468Y791208D01*
X325120D01*
X331468D01*
X333584Y793324D01*
Y795440D01*
X331468Y797556D01*
X325120D01*
X105410Y825496D02*
Y812800D01*
X111758D01*
X113874Y814916D01*
Y817032D01*
X111758Y819148D01*
X105410D01*
X111758D01*
X113874Y821264D01*
Y823380D01*
X111758Y825496D01*
X105410D01*
X26670Y814066D02*
Y801370D01*
X33018D01*
X35134Y803486D01*
Y805602D01*
X33018Y807718D01*
X26670D01*
X33018D01*
X35134Y809834D01*
Y811950D01*
X33018Y814066D01*
X26670D01*
X623570Y853440D02*
X626110D01*
X628650Y855980D01*
X631190Y853440D01*
X633730D01*
Y855980D01*
X631190Y858520D01*
X633730Y861060D01*
Y863600D01*
X631190D01*
X628650Y861060D01*
X626110Y863600D01*
X623570D01*
Y861060D01*
X626110Y858520D01*
X623570Y855980D01*
Y853440D01*
X1315720Y678180D02*
X1318260D01*
X1320800Y680720D01*
X1323340Y678180D01*
X1325880D01*
Y680720D01*
X1323340Y683260D01*
X1325880Y685800D01*
Y688340D01*
X1323340D01*
X1320800Y685800D01*
X1318260Y688340D01*
X1315720D01*
Y685800D01*
X1318260Y683260D01*
X1315720Y680720D01*
Y678180D01*
X1303020D02*
X1305560D01*
X1308100Y680720D01*
X1310640Y678180D01*
X1313180D01*
Y680720D01*
X1310640Y683260D01*
X1313180Y685800D01*
Y688340D01*
X1310640D01*
X1308100Y685800D01*
X1305560Y688340D01*
X1303020D01*
Y685800D01*
X1305560Y683260D01*
X1303020Y680720D01*
Y678180D01*
X1416558Y619756D02*
Y607060D01*
X1422906D01*
X1425022Y609176D01*
Y611292D01*
X1422906Y613408D01*
X1416558D01*
X1422906D01*
X1425022Y615524D01*
Y617640D01*
X1422906Y619756D01*
X1416558D01*
Y610866D02*
Y598170D01*
X1422906D01*
X1425022Y600286D01*
Y602402D01*
X1422906Y604518D01*
X1416558D01*
X1422906D01*
X1425022Y606634D01*
Y608750D01*
X1422906Y610866D01*
X1416558D01*
X1409192Y615438D02*
Y602742D01*
X1415540D01*
X1417656Y604858D01*
Y606974D01*
X1415540Y609090D01*
X1409192D01*
X1415540D01*
X1417656Y611206D01*
Y613322D01*
X1415540Y615438D01*
X1409192D01*
X1400810Y619756D02*
Y607060D01*
X1407158D01*
X1409274Y609176D01*
Y611292D01*
X1407158Y613408D01*
X1400810D01*
X1407158D01*
X1409274Y615524D01*
Y617640D01*
X1407158Y619756D01*
X1400810D01*
X1401064Y610866D02*
Y598170D01*
X1407412D01*
X1409528Y600286D01*
Y602402D01*
X1407412Y604518D01*
X1401064D01*
X1407412D01*
X1409528Y606634D01*
Y608750D01*
X1407412Y610866D01*
X1401064D01*
X904079Y487046D02*
X906619D01*
X909159Y489586D01*
X911699Y487046D01*
X914239D01*
Y489586D01*
X911699Y492126D01*
X914239Y494666D01*
Y497206D01*
X911699D01*
X909159Y494666D01*
X906619Y497206D01*
X904079D01*
Y494666D01*
X906619Y492126D01*
X904079Y489586D01*
Y487046D01*
X1375130Y619666D02*
Y606970D01*
X1381478D01*
X1383594Y609086D01*
Y611202D01*
X1381478Y613318D01*
X1375130D01*
X1381478D01*
X1383594Y615434D01*
Y617550D01*
X1381478Y619666D01*
X1375130D01*
X1359890D02*
Y606970D01*
X1366238D01*
X1368354Y609086D01*
Y611202D01*
X1366238Y613318D01*
X1359890D01*
X1366238D01*
X1368354Y615434D01*
Y617550D01*
X1366238Y619666D01*
X1359890D01*
X1367256Y615602D02*
Y602906D01*
X1373604D01*
X1375720Y605022D01*
Y607138D01*
X1373604Y609254D01*
X1367256D01*
X1373604D01*
X1375720Y611370D01*
Y613486D01*
X1373604Y615602D01*
X1367256D01*
X1375130Y610776D02*
Y598080D01*
X1381478D01*
X1383594Y600196D01*
Y602312D01*
X1381478Y604428D01*
X1375130D01*
X1381478D01*
X1383594Y606544D01*
Y608660D01*
X1381478Y610776D01*
X1375130D01*
X1359890D02*
Y598080D01*
X1366238D01*
X1368354Y600196D01*
Y602312D01*
X1366238Y604428D01*
X1359890D01*
X1366238D01*
X1368354Y606544D01*
Y608660D01*
X1366238Y610776D01*
X1359890D01*
X1287780Y623570D02*
X1290320D01*
X1292860Y626110D01*
X1295400Y623570D01*
X1297940D01*
Y626110D01*
X1295400Y628650D01*
X1297940Y631190D01*
Y633730D01*
X1295400D01*
X1292860Y631190D01*
X1290320Y633730D01*
X1287780D01*
Y631190D01*
X1290320Y628650D01*
X1287780Y626110D01*
Y623570D01*
X1209040Y621030D02*
X1211580D01*
X1214120Y623570D01*
X1216660Y621030D01*
X1219200D01*
Y623570D01*
X1216660Y626110D01*
X1219200Y628650D01*
Y631190D01*
X1216660D01*
X1214120Y628650D01*
X1211580Y631190D01*
X1209040D01*
Y628650D01*
X1211580Y626110D01*
X1209040Y623570D01*
Y621030D01*
Y612140D02*
X1211580D01*
X1214120Y614680D01*
X1216660Y612140D01*
X1219200D01*
Y614680D01*
X1216660Y617220D01*
X1219200Y619760D01*
Y622300D01*
X1216660D01*
X1214120Y619760D01*
X1211580Y622300D01*
X1209040D01*
Y619760D01*
X1211580Y617220D01*
X1209040Y614680D01*
Y612140D01*
Y603250D02*
X1211580D01*
X1214120Y605790D01*
X1216660Y603250D01*
X1219200D01*
Y605790D01*
X1216660Y608330D01*
X1219200Y610870D01*
Y613410D01*
X1216660D01*
X1214120Y610870D01*
X1211580Y613410D01*
X1209040D01*
Y610870D01*
X1211580Y608330D01*
X1209040Y605790D01*
Y603250D01*
X1198880D02*
X1201420D01*
X1203960Y605790D01*
X1206500Y603250D01*
X1209040D01*
Y605790D01*
X1206500Y608330D01*
X1209040Y610870D01*
Y613410D01*
X1206500D01*
X1203960Y610870D01*
X1201420Y613410D01*
X1198880D01*
Y610870D01*
X1201420Y608330D01*
X1198880Y605790D01*
Y603250D01*
Y612140D02*
X1201420D01*
X1203960Y614680D01*
X1206500Y612140D01*
X1209040D01*
Y614680D01*
X1206500Y617220D01*
X1209040Y619760D01*
Y622300D01*
X1206500D01*
X1203960Y619760D01*
X1201420Y622300D01*
X1198880D01*
Y619760D01*
X1201420Y617220D01*
X1198880Y614680D01*
Y612140D01*
Y621030D02*
X1201420D01*
X1203960Y623570D01*
X1206500Y621030D01*
X1209040D01*
Y623570D01*
X1206500Y626110D01*
X1209040Y628650D01*
Y631190D01*
X1206500D01*
X1203960Y628650D01*
X1201420Y631190D01*
X1198880D01*
Y628650D01*
X1201420Y626110D01*
X1198880Y623570D01*
Y621030D01*
X1243330Y534670D02*
X1245870D01*
X1248410Y537210D01*
X1250950Y534670D01*
X1253490D01*
Y537210D01*
X1250950Y539750D01*
X1253490Y542290D01*
Y544830D01*
X1250950D01*
X1248410Y542290D01*
X1245870Y544830D01*
X1243330D01*
Y542290D01*
X1245870Y539750D01*
X1243330Y537210D01*
Y534670D01*
X1233170D02*
X1235710D01*
X1238250Y537210D01*
X1240790Y534670D01*
X1243330D01*
Y537210D01*
X1240790Y539750D01*
X1243330Y542290D01*
Y544830D01*
X1240790D01*
X1238250Y542290D01*
X1235710Y544830D01*
X1233170D01*
Y542290D01*
X1235710Y539750D01*
X1233170Y537210D01*
Y534670D01*
X1223010D02*
X1225550D01*
X1228090Y537210D01*
X1230630Y534670D01*
X1233170D01*
Y537210D01*
X1230630Y539750D01*
X1233170Y542290D01*
Y544830D01*
X1230630D01*
X1228090Y542290D01*
X1225550Y544830D01*
X1223010D01*
Y542290D01*
X1225550Y539750D01*
X1223010Y537210D01*
Y534670D01*
Y543560D02*
X1225550D01*
X1228090Y546100D01*
X1230630Y543560D01*
X1233170D01*
Y546100D01*
X1230630Y548640D01*
X1233170Y551180D01*
Y553720D01*
X1230630D01*
X1228090Y551180D01*
X1225550Y553720D01*
X1223010D01*
Y551180D01*
X1225550Y548640D01*
X1223010Y546100D01*
Y543560D01*
X1233170D02*
X1235710D01*
X1238250Y546100D01*
X1240790Y543560D01*
X1243330D01*
Y546100D01*
X1240790Y548640D01*
X1243330Y551180D01*
Y553720D01*
X1240790D01*
X1238250Y551180D01*
X1235710Y553720D01*
X1233170D01*
Y551180D01*
X1235710Y548640D01*
X1233170Y546100D01*
Y543560D01*
X1243330D02*
X1245870D01*
X1248410Y546100D01*
X1250950Y543560D01*
X1253490D01*
Y546100D01*
X1250950Y548640D01*
X1253490Y551180D01*
Y553720D01*
X1250950D01*
X1248410Y551180D01*
X1245870Y553720D01*
X1243330D01*
Y551180D01*
X1245870Y548640D01*
X1243330Y546100D01*
Y543560D01*
X1212850D02*
X1215390D01*
X1217930Y546100D01*
X1220470Y543560D01*
X1223010D01*
Y546100D01*
X1220470Y548640D01*
X1223010Y551180D01*
Y553720D01*
X1220470D01*
X1217930Y551180D01*
X1215390Y553720D01*
X1212850D01*
Y551180D01*
X1215390Y548640D01*
X1212850Y546100D01*
Y543560D01*
X1371346Y509016D02*
X1373886D01*
X1376426Y511556D01*
X1378966Y509016D01*
X1381506D01*
Y511556D01*
X1378966Y514096D01*
X1381506Y516636D01*
Y519176D01*
X1378966D01*
X1376426Y516636D01*
X1373886Y519176D01*
X1371346D01*
Y516636D01*
X1373886Y514096D01*
X1371346Y511556D01*
Y509016D01*
X1361694D02*
X1364234D01*
X1366774Y511556D01*
X1369314Y509016D01*
X1371854D01*
Y511556D01*
X1369314Y514096D01*
X1371854Y516636D01*
Y519176D01*
X1369314D01*
X1366774Y516636D01*
X1364234Y519176D01*
X1361694D01*
Y516636D01*
X1364234Y514096D01*
X1361694Y511556D01*
Y509016D01*
X1351788D02*
X1354328D01*
X1356868Y511556D01*
X1359408Y509016D01*
X1361948D01*
Y511556D01*
X1359408Y514096D01*
X1361948Y516636D01*
Y519176D01*
X1359408D01*
X1356868Y516636D01*
X1354328Y519176D01*
X1351788D01*
Y516636D01*
X1354328Y514096D01*
X1351788Y511556D01*
Y509016D01*
X802640Y527050D02*
X805180D01*
X807720Y529590D01*
X810260Y527050D01*
X812800D01*
Y529590D01*
X810260Y532130D01*
X812800Y534670D01*
Y537210D01*
X810260D01*
X807720Y534670D01*
X805180Y537210D01*
X802640D01*
Y534670D01*
X805180Y532130D01*
X802640Y529590D01*
Y527050D01*
X775970Y523240D02*
X778510D01*
X781050Y525780D01*
X783590Y523240D01*
X786130D01*
Y525780D01*
X783590Y528320D01*
X786130Y530860D01*
Y533400D01*
X783590D01*
X781050Y530860D01*
X778510Y533400D01*
X775970D01*
Y530860D01*
X778510Y528320D01*
X775970Y525780D01*
Y523240D01*
X737870D02*
X740410D01*
X742950Y525780D01*
X745490Y523240D01*
X748030D01*
Y525780D01*
X745490Y528320D01*
X748030Y530860D01*
Y533400D01*
X745490D01*
X742950Y530860D01*
X740410Y533400D01*
X737870D01*
Y530860D01*
X740410Y528320D01*
X737870Y525780D01*
Y523240D01*
X753110Y571500D02*
X755650D01*
X758190Y574040D01*
X760730Y571500D01*
X763270D01*
Y574040D01*
X760730Y576580D01*
X763270Y579120D01*
Y581660D01*
X760730D01*
X758190Y579120D01*
X755650Y581660D01*
X753110D01*
Y579120D01*
X755650Y576580D01*
X753110Y574040D01*
Y571500D01*
X739140D02*
X741680D01*
X744220Y574040D01*
X746760Y571500D01*
X749300D01*
Y574040D01*
X746760Y576580D01*
X749300Y579120D01*
Y581660D01*
X746760D01*
X744220Y579120D01*
X741680Y581660D01*
X739140D01*
Y579120D01*
X741680Y576580D01*
X739140Y574040D01*
Y571500D01*
X1022350Y689610D02*
X1024890D01*
X1027430Y692150D01*
X1029970Y689610D01*
X1032510D01*
Y692150D01*
X1029970Y694690D01*
X1032510Y697230D01*
Y699770D01*
X1029970D01*
X1027430Y697230D01*
X1024890Y699770D01*
X1022350D01*
Y697230D01*
X1024890Y694690D01*
X1022350Y692150D01*
Y689610D01*
X1280160Y264160D02*
X1282700D01*
X1285240Y266700D01*
X1287780Y264160D01*
X1290320D01*
Y266700D01*
X1287780Y269240D01*
X1290320Y271780D01*
Y274320D01*
X1287780D01*
X1285240Y271780D01*
X1282700Y274320D01*
X1280160D01*
Y271780D01*
X1282700Y269240D01*
X1280160Y266700D01*
Y264160D01*
D235*
X1413330Y536000D02*
G03*
X1413330Y536000I-5080J0D01*
G01*
X1256080Y39000D02*
G03*
X1256080Y39000I-5080J0D01*
G01*
Y64400D02*
G03*
X1256080Y64400I-5080J0D01*
G01*
Y89800D02*
G03*
X1256080Y89800I-5080J0D01*
G01*
Y115200D02*
G03*
X1256080Y115200I-5080J0D01*
G01*
Y140600D02*
G03*
X1256080Y140600I-5080J0D01*
G01*
Y166000D02*
G03*
X1256080Y166000I-5080J0D01*
G01*
Y191400D02*
G03*
X1256080Y191400I-5080J0D01*
G01*
D236*
X1411298Y536000D02*
G03*
X1411298Y536000I-3048J0D01*
G01*
M02*
