G04*
G04 #@! TF.GenerationSoftware,Altium Limited,Altium Designer,24.9.1 (31)*
G04*
G04 Layer_Physical_Order=2*
G04 Layer_Color=36540*
%FSLAX44Y44*%
%MOMM*%
G71*
G04*
G04 #@! TF.SameCoordinates,A601D634-93CA-4805-8520-E3EE879C7AED*
G04*
G04*
G04 #@! TF.FilePolarity,Positive*
G04*
G01*
G75*
%ADD137C,0.9906*%
%ADD153R,1.0000X1.0000*%
%ADD154C,1.0000*%
%ADD155R,1.5500X1.5500*%
%ADD156C,1.5500*%
%ADD157C,1.8000*%
%ADD160C,1.3890*%
%ADD161R,1.3890X1.3890*%
%ADD186R,1.8000X1.8000*%
%ADD187C,2.3000*%
%ADD188C,2.2000*%
%ADD189O,0.8500X1.1500*%
%ADD190O,0.9000X1.5500*%
%ADD191O,1.4000X0.9000*%
%ADD192C,0.8500*%
%ADD193C,0.4000*%
%ADD194C,0.6000*%
%ADD195R,3.2000X2.6000*%
%ADD196R,1.8000X1.8000*%
%ADD197C,2.6000*%
%ADD198C,1.3080*%
%ADD199R,1.3080X1.3080*%
%ADD200C,2.1000*%
%ADD201C,6.0000*%
%ADD202C,2.3749*%
%ADD203C,0.8000*%
G36*
X50000Y997706D02*
X620000D01*
X620009Y997708D01*
X624335Y997367D01*
X628562Y996352D01*
X632579Y994688D01*
X636287Y992417D01*
X639593Y989593D01*
X642417Y986287D01*
X644688Y982579D01*
X646352Y978562D01*
X647367Y974335D01*
X647708Y970009D01*
X647706Y970000D01*
Y935000D01*
X647880Y934122D01*
X648378Y933378D01*
X649122Y932881D01*
X650000Y932706D01*
X850000D01*
X850878Y932881D01*
X851622Y933378D01*
X852120Y934122D01*
X852294Y935000D01*
Y970000D01*
X852292Y970009D01*
X852633Y974335D01*
X853648Y978562D01*
X855312Y982579D01*
X857583Y986287D01*
X860407Y989593D01*
X863713Y992417D01*
X867421Y994688D01*
X871438Y996352D01*
X875666Y997367D01*
X878769Y997611D01*
X880000Y997706D01*
X881262Y997706D01*
X881264Y997706D01*
X1448730Y997706D01*
X1450000Y997706D01*
X1451244Y997644D01*
X1456229Y997317D01*
X1462352Y996099D01*
X1468264Y994092D01*
X1473863Y991331D01*
X1479053Y987863D01*
X1483747Y983747D01*
X1487863Y979053D01*
X1491331Y973863D01*
X1494092Y968264D01*
X1496099Y962352D01*
X1497317Y956229D01*
X1497720Y950073D01*
X1497706Y950000D01*
Y50000D01*
X1497720Y49927D01*
X1497317Y43771D01*
X1496099Y37648D01*
X1494092Y31736D01*
X1491331Y26137D01*
X1487863Y20947D01*
X1483747Y16253D01*
X1479053Y12137D01*
X1473863Y8669D01*
X1468264Y5908D01*
X1462352Y3901D01*
X1456229Y2683D01*
X1451254Y2357D01*
X1450000Y2294D01*
X1450000Y2294D01*
X1448749Y2294D01*
X50000D01*
X49927Y2280D01*
X43771Y2683D01*
X37648Y3901D01*
X31736Y5908D01*
X26137Y8669D01*
X20947Y12137D01*
X16253Y16253D01*
X12137Y20947D01*
X8669Y26137D01*
X5908Y31736D01*
X3901Y37648D01*
X2683Y43771D01*
X2357Y48746D01*
X2294Y50000D01*
X2294Y50000D01*
X2294Y51251D01*
Y948737D01*
X2294Y948749D01*
X2294Y950000D01*
X2356Y951244D01*
X2683Y956229D01*
X3901Y962352D01*
X5908Y968264D01*
X8669Y973863D01*
X12137Y979053D01*
X16253Y983747D01*
X20947Y987863D01*
X26137Y991331D01*
X31736Y994092D01*
X37648Y996099D01*
X43771Y997317D01*
X49927Y997720D01*
X50000Y997706D01*
D02*
G37*
%LPC*%
G36*
X585650Y975250D02*
X565150D01*
Y954750D01*
X585650D01*
Y975250D01*
D02*
G37*
G36*
X525949D02*
X523251D01*
X520644Y974551D01*
X518306Y973202D01*
X516398Y971294D01*
X515048Y968956D01*
X514350Y966349D01*
Y963651D01*
X515048Y961044D01*
X516398Y958706D01*
X518306Y956798D01*
X520644Y955449D01*
X523251Y954750D01*
X525949D01*
X528556Y955449D01*
X530894Y956798D01*
X532802Y958706D01*
X534151Y961044D01*
X534850Y963651D01*
Y966349D01*
X534151Y968956D01*
X532802Y971294D01*
X530894Y973202D01*
X528556Y974551D01*
X525949Y975250D01*
D02*
G37*
G36*
X387949Y965250D02*
X385251D01*
X382644Y964551D01*
X380306Y963202D01*
X378398Y961294D01*
X377048Y958956D01*
X376350Y956349D01*
Y953651D01*
X377048Y951044D01*
X378398Y948706D01*
X380306Y946798D01*
X382644Y945449D01*
X385251Y944750D01*
X387949D01*
X390556Y945449D01*
X392894Y946798D01*
X394802Y948706D01*
X396152Y951044D01*
X396850Y953651D01*
Y956349D01*
X396152Y958956D01*
X394802Y961294D01*
X392894Y963202D01*
X390556Y964551D01*
X387949Y965250D01*
D02*
G37*
G36*
X362549D02*
X359851D01*
X357244Y964551D01*
X354906Y963202D01*
X352998Y961294D01*
X351648Y958956D01*
X350950Y956349D01*
Y953651D01*
X351648Y951044D01*
X352998Y948706D01*
X354906Y946798D01*
X357244Y945449D01*
X359851Y944750D01*
X362549D01*
X365156Y945449D01*
X367494Y946798D01*
X369402Y948706D01*
X370751Y951044D01*
X371450Y953651D01*
Y956349D01*
X370751Y958956D01*
X369402Y961294D01*
X367494Y963202D01*
X365156Y964551D01*
X362549Y965250D01*
D02*
G37*
G36*
X337149D02*
X334451D01*
X331844Y964551D01*
X329506Y963202D01*
X327598Y961294D01*
X326249Y958956D01*
X325550Y956349D01*
Y953651D01*
X326249Y951044D01*
X327598Y948706D01*
X329506Y946798D01*
X331844Y945449D01*
X334451Y944750D01*
X337149D01*
X339756Y945449D01*
X342094Y946798D01*
X344002Y948706D01*
X345351Y951044D01*
X346050Y953651D01*
Y956349D01*
X345351Y958956D01*
X344002Y961294D01*
X342094Y963202D01*
X339756Y964551D01*
X337149Y965250D01*
D02*
G37*
G36*
X311749D02*
X309051D01*
X306444Y964551D01*
X304106Y963202D01*
X302198Y961294D01*
X300849Y958956D01*
X300150Y956349D01*
Y953651D01*
X300849Y951044D01*
X302198Y948706D01*
X304106Y946798D01*
X306444Y945449D01*
X309051Y944750D01*
X311749D01*
X314356Y945449D01*
X316694Y946798D01*
X318602Y948706D01*
X319951Y951044D01*
X320650Y953651D01*
Y956349D01*
X319951Y958956D01*
X318602Y961294D01*
X316694Y963202D01*
X314356Y964551D01*
X311749Y965250D01*
D02*
G37*
G36*
X286349D02*
X283651D01*
X281044Y964551D01*
X278706Y963202D01*
X276798Y961294D01*
X275448Y958956D01*
X274750Y956349D01*
Y953651D01*
X275448Y951044D01*
X276798Y948706D01*
X278706Y946798D01*
X281044Y945449D01*
X283651Y944750D01*
X286349D01*
X288956Y945449D01*
X291294Y946798D01*
X293202Y948706D01*
X294552Y951044D01*
X295250Y953651D01*
Y956349D01*
X294552Y958956D01*
X293202Y961294D01*
X291294Y963202D01*
X288956Y964551D01*
X286349Y965250D01*
D02*
G37*
G36*
X260949D02*
X258251D01*
X255644Y964551D01*
X253306Y963202D01*
X251398Y961294D01*
X250049Y958956D01*
X249350Y956349D01*
Y953651D01*
X250049Y951044D01*
X251398Y948706D01*
X253306Y946798D01*
X255644Y945449D01*
X258251Y944750D01*
X260949D01*
X263556Y945449D01*
X265894Y946798D01*
X267802Y948706D01*
X269151Y951044D01*
X269850Y953651D01*
Y956349D01*
X269151Y958956D01*
X267802Y961294D01*
X265894Y963202D01*
X263556Y964551D01*
X260949Y965250D01*
D02*
G37*
G36*
X235549D02*
X232851D01*
X230244Y964551D01*
X227906Y963202D01*
X225998Y961294D01*
X224648Y958956D01*
X223950Y956349D01*
Y953651D01*
X224648Y951044D01*
X225998Y948706D01*
X227906Y946798D01*
X230244Y945449D01*
X232851Y944750D01*
X235549D01*
X238156Y945449D01*
X240494Y946798D01*
X242402Y948706D01*
X243752Y951044D01*
X244450Y953651D01*
Y956349D01*
X243752Y958956D01*
X242402Y961294D01*
X240494Y963202D01*
X238156Y964551D01*
X235549Y965250D01*
D02*
G37*
G36*
X167299Y952510D02*
X163941D01*
X160699Y951641D01*
X157791Y949962D01*
X155417Y947589D01*
X153739Y944681D01*
X152870Y941439D01*
Y938081D01*
X153739Y934839D01*
X155417Y931931D01*
X157791Y929557D01*
X160699Y927879D01*
X163941Y927010D01*
X167299D01*
X170541Y927879D01*
X173449Y929557D01*
X175823Y931931D01*
X177501Y934839D01*
X178370Y938081D01*
Y941439D01*
X177501Y944681D01*
X175823Y947589D01*
X173449Y949962D01*
X170541Y951641D01*
X167299Y952510D01*
D02*
G37*
G36*
X436858Y952280D02*
X433501D01*
X430259Y951411D01*
X427351Y949733D01*
X424977Y947359D01*
X423299Y944451D01*
X422430Y941209D01*
Y937851D01*
X423299Y934609D01*
X424977Y931701D01*
X427351Y929327D01*
X430259Y927649D01*
X433501Y926780D01*
X436858D01*
X440101Y927649D01*
X443009Y929327D01*
X445382Y931701D01*
X447061Y934609D01*
X447930Y937851D01*
Y941209D01*
X447061Y944451D01*
X445382Y947359D01*
X443009Y949733D01*
X440101Y951411D01*
X436858Y952280D01*
D02*
G37*
G36*
X856825Y916110D02*
X855135D01*
X853573Y915463D01*
X852377Y914267D01*
X851730Y912705D01*
Y911015D01*
X852377Y909453D01*
X853573Y908257D01*
X855135Y907610D01*
X856825D01*
X858387Y908257D01*
X859583Y909453D01*
X860230Y911015D01*
Y912705D01*
X859583Y914267D01*
X858387Y915463D01*
X856825Y916110D01*
D02*
G37*
G36*
X592864Y917110D02*
X590776D01*
X588846Y916311D01*
X587369Y914834D01*
X586570Y912904D01*
Y910816D01*
X587369Y908886D01*
X588846Y907409D01*
X590776Y906610D01*
X592864D01*
X594794Y907409D01*
X596271Y908886D01*
X597070Y910816D01*
Y912904D01*
X596271Y914834D01*
X594794Y916311D01*
X592864Y917110D01*
D02*
G37*
G36*
X819945Y903410D02*
X818255D01*
X816693Y902763D01*
X815497Y901567D01*
X814850Y900005D01*
Y898315D01*
X815497Y896753D01*
X816693Y895557D01*
X818255Y894910D01*
X819945D01*
X821507Y895557D01*
X822703Y896753D01*
X823350Y898315D01*
Y900005D01*
X822703Y901567D01*
X821507Y902763D01*
X819945Y903410D01*
D02*
G37*
G36*
X681764Y904410D02*
X679676D01*
X677746Y903611D01*
X676269Y902134D01*
X675470Y900204D01*
Y898116D01*
X676269Y896186D01*
X677746Y894709D01*
X679676Y893910D01*
X681764D01*
X683694Y894709D01*
X685171Y896186D01*
X685970Y898116D01*
Y900204D01*
X685171Y902134D01*
X683694Y903611D01*
X681764Y904410D01*
D02*
G37*
G36*
X864445Y890710D02*
X862755D01*
X861193Y890063D01*
X859997Y888867D01*
X859350Y887305D01*
Y885615D01*
X859997Y884053D01*
X861193Y882857D01*
X862755Y882210D01*
X864445D01*
X866007Y882857D01*
X867203Y884053D01*
X867850Y885615D01*
Y887305D01*
X867203Y888867D01*
X866007Y890063D01*
X864445Y890710D01*
D02*
G37*
G36*
X856785Y878050D02*
X855095D01*
X853533Y877403D01*
X852337Y876207D01*
X851690Y874645D01*
Y872955D01*
X852337Y871393D01*
X853533Y870197D01*
X855095Y869550D01*
X856785D01*
X858347Y870197D01*
X859543Y871393D01*
X860190Y872955D01*
Y874645D01*
X859543Y876207D01*
X858347Y877403D01*
X856785Y878050D01*
D02*
G37*
G36*
X822535Y865310D02*
X820845D01*
X819283Y864663D01*
X818087Y863467D01*
X817440Y861905D01*
Y860215D01*
X818087Y858653D01*
X819283Y857457D01*
X820845Y856810D01*
X822535D01*
X824097Y857457D01*
X825293Y858653D01*
X825940Y860215D01*
Y861905D01*
X825293Y863467D01*
X824097Y864663D01*
X822535Y865310D01*
D02*
G37*
G36*
X680295D02*
X678605D01*
X677043Y864663D01*
X675847Y863467D01*
X675200Y861905D01*
Y860215D01*
X675847Y858653D01*
X677043Y857457D01*
X678605Y856810D01*
X680295D01*
X681857Y857457D01*
X683053Y858653D01*
X683700Y860215D01*
Y861905D01*
X683053Y863467D01*
X681857Y864663D01*
X680295Y865310D01*
D02*
G37*
G36*
X629694Y863770D02*
X627606D01*
X625676Y862971D01*
X624199Y861494D01*
X623400Y859564D01*
Y857476D01*
X624199Y855546D01*
X625676Y854069D01*
X627606Y853270D01*
X629694D01*
X631624Y854069D01*
X633101Y855546D01*
X633900Y857476D01*
Y859564D01*
X633101Y861494D01*
X631624Y862971D01*
X629694Y863770D01*
D02*
G37*
G36*
X1370104Y862500D02*
X1368016D01*
X1366086Y861701D01*
X1364609Y860224D01*
X1363810Y858294D01*
Y856206D01*
X1364609Y854276D01*
X1366086Y852799D01*
X1368016Y852000D01*
X1370104D01*
X1372034Y852799D01*
X1373511Y854276D01*
X1374310Y856206D01*
Y858294D01*
X1373511Y860224D01*
X1372034Y861701D01*
X1370104Y862500D01*
D02*
G37*
G36*
X336324Y857420D02*
X334236D01*
X332306Y856621D01*
X330829Y855144D01*
X330030Y853214D01*
Y851126D01*
X330829Y849196D01*
X332306Y847719D01*
X334236Y846920D01*
X336324D01*
X338254Y847719D01*
X339731Y849196D01*
X340530Y851126D01*
Y853214D01*
X339731Y855144D01*
X338254Y856621D01*
X336324Y857420D01*
D02*
G37*
G36*
X1300435Y854250D02*
X1298745D01*
X1297183Y853603D01*
X1295987Y852407D01*
X1295340Y850845D01*
Y849155D01*
X1295987Y847593D01*
X1297183Y846397D01*
X1298745Y845750D01*
X1300435D01*
X1301997Y846397D01*
X1303193Y847593D01*
X1303840Y849155D01*
Y850845D01*
X1303193Y852407D01*
X1301997Y853603D01*
X1300435Y854250D01*
D02*
G37*
G36*
X680255Y852650D02*
X678565D01*
X677003Y852003D01*
X675807Y850807D01*
X675160Y849245D01*
Y847555D01*
X675807Y845993D01*
X677003Y844797D01*
X678565Y844150D01*
X680255D01*
X681817Y844797D01*
X683013Y845993D01*
X683660Y847555D01*
Y849245D01*
X683013Y850807D01*
X681817Y852003D01*
X680255Y852650D01*
D02*
G37*
G36*
X925604Y852340D02*
X923516D01*
X921586Y851541D01*
X920109Y850064D01*
X919310Y848134D01*
Y846046D01*
X920109Y844116D01*
X921586Y842639D01*
X923516Y841840D01*
X925604D01*
X927534Y842639D01*
X929011Y844116D01*
X929810Y846046D01*
Y848134D01*
X929011Y850064D01*
X927534Y851541D01*
X925604Y852340D01*
D02*
G37*
G36*
X855555Y839910D02*
X853865D01*
X852303Y839263D01*
X851107Y838067D01*
X850460Y836505D01*
Y834815D01*
X851107Y833253D01*
X852303Y832057D01*
X853865Y831410D01*
X855555D01*
X857117Y832057D01*
X858313Y833253D01*
X858960Y834815D01*
Y836505D01*
X858313Y838067D01*
X857117Y839263D01*
X855555Y839910D01*
D02*
G37*
G36*
X75388Y850054D02*
X71932D01*
X68594Y849160D01*
X65601Y847432D01*
X63158Y844989D01*
X61430Y841996D01*
X60535Y838658D01*
Y835202D01*
X61430Y831864D01*
X63158Y828871D01*
X65601Y826428D01*
X68594Y824700D01*
X71932Y823805D01*
X75388D01*
X78726Y824700D01*
X81719Y826428D01*
X84162Y828871D01*
X85890Y831864D01*
X86784Y835202D01*
Y838658D01*
X85890Y841996D01*
X84162Y844989D01*
X81719Y847432D01*
X78726Y849160D01*
X75388Y850054D01*
D02*
G37*
G36*
X43638D02*
X40182D01*
X36844Y849160D01*
X33851Y847432D01*
X31408Y844989D01*
X29680Y841996D01*
X28786Y838658D01*
Y835202D01*
X29680Y831864D01*
X31408Y828871D01*
X33851Y826428D01*
X36844Y824700D01*
X40182Y823805D01*
X43638D01*
X46976Y824700D01*
X49969Y826428D01*
X52412Y828871D01*
X54140Y831864D01*
X55034Y835202D01*
Y838658D01*
X54140Y841996D01*
X52412Y844989D01*
X49969Y847432D01*
X46976Y849160D01*
X43638Y850054D01*
D02*
G37*
G36*
X290604Y829480D02*
X288516D01*
X286586Y828681D01*
X285109Y827204D01*
X284310Y825274D01*
Y823186D01*
X285109Y821256D01*
X286586Y819779D01*
X288516Y818980D01*
X290604D01*
X292534Y819779D01*
X294011Y821256D01*
X294810Y823186D01*
Y825274D01*
X294011Y827204D01*
X292534Y828681D01*
X290604Y829480D01*
D02*
G37*
G36*
X855555Y827210D02*
X853865D01*
X852303Y826563D01*
X851107Y825367D01*
X850460Y823805D01*
Y822115D01*
X851107Y820553D01*
X852303Y819357D01*
X853865Y818710D01*
X855555D01*
X857117Y819357D01*
X858313Y820553D01*
X858960Y822115D01*
Y823805D01*
X858313Y825367D01*
X857117Y826563D01*
X855555Y827210D01*
D02*
G37*
G36*
X93944Y827893D02*
X91476D01*
X89196Y826949D01*
X87451Y825204D01*
X86507Y822924D01*
Y820456D01*
X87451Y818176D01*
X89196Y816431D01*
X91476Y815487D01*
X93944D01*
X96224Y816431D01*
X97969Y818176D01*
X98913Y820456D01*
Y822924D01*
X97969Y825204D01*
X96224Y826949D01*
X93944Y827893D01*
D02*
G37*
G36*
X1437390Y828050D02*
X1421810D01*
Y812470D01*
X1437390D01*
Y828050D01*
D02*
G37*
G36*
X971090Y820555D02*
X969400D01*
X967838Y819908D01*
X966642Y818712D01*
X965995Y817150D01*
Y815460D01*
X966642Y813898D01*
X967838Y812702D01*
X969400Y812055D01*
X971090D01*
X972652Y812702D01*
X973848Y813898D01*
X974495Y815460D01*
Y817150D01*
X973848Y818712D01*
X972652Y819908D01*
X971090Y820555D01*
D02*
G37*
G36*
X106255Y817050D02*
X104565D01*
X103003Y816403D01*
X101807Y815207D01*
X101160Y813645D01*
Y811955D01*
X101807Y810393D01*
X103003Y809197D01*
X104565Y808550D01*
X106255D01*
X107817Y809197D01*
X109013Y810393D01*
X109660Y811955D01*
Y813645D01*
X109013Y815207D01*
X107817Y816403D01*
X106255Y817050D01*
D02*
G37*
G36*
X1241635Y814510D02*
X1239945D01*
X1238383Y813863D01*
X1237187Y812667D01*
X1236540Y811105D01*
Y809415D01*
X1237187Y807853D01*
X1238383Y806657D01*
X1239945Y806010D01*
X1241635D01*
X1243197Y806657D01*
X1244393Y807853D01*
X1245040Y809415D01*
Y811105D01*
X1244393Y812667D01*
X1243197Y813863D01*
X1241635Y814510D01*
D02*
G37*
G36*
X43144Y817733D02*
X40676D01*
X38396Y816789D01*
X36651Y815044D01*
X35707Y812764D01*
Y810296D01*
X36651Y808016D01*
X38396Y806271D01*
X40676Y805327D01*
X43144D01*
X45424Y806271D01*
X47169Y808016D01*
X48113Y810296D01*
Y812764D01*
X47169Y815044D01*
X45424Y816789D01*
X43144Y817733D01*
D02*
G37*
G36*
X266474Y815510D02*
X264386D01*
X262456Y814711D01*
X260979Y813234D01*
X260180Y811304D01*
Y809216D01*
X260979Y807286D01*
X262456Y805809D01*
X264386Y805010D01*
X266474D01*
X268404Y805809D01*
X269881Y807286D01*
X270680Y809216D01*
Y811304D01*
X269881Y813234D01*
X268404Y814711D01*
X266474Y815510D01*
D02*
G37*
G36*
X1099594Y814240D02*
X1097506D01*
X1095576Y813441D01*
X1094099Y811964D01*
X1093300Y810034D01*
Y807946D01*
X1094099Y806016D01*
X1095576Y804539D01*
X1097506Y803740D01*
X1099594D01*
X1101524Y804539D01*
X1103001Y806016D01*
X1103800Y807946D01*
Y810034D01*
X1103001Y811964D01*
X1101524Y813441D01*
X1099594Y814240D01*
D02*
G37*
G36*
X362795Y810700D02*
X361105D01*
X359543Y810053D01*
X358347Y808857D01*
X357700Y807295D01*
Y805605D01*
X358347Y804043D01*
X359543Y802847D01*
X361105Y802200D01*
X362795D01*
X364357Y802847D01*
X365553Y804043D01*
X366200Y805605D01*
Y807295D01*
X365553Y808857D01*
X364357Y810053D01*
X362795Y810700D01*
D02*
G37*
G36*
X971090Y809555D02*
X969400D01*
X967838Y808908D01*
X966642Y807712D01*
X965995Y806150D01*
Y804460D01*
X966642Y802898D01*
X967838Y801702D01*
X969400Y801055D01*
X971090D01*
X972652Y801702D01*
X973848Y802898D01*
X974495Y804460D01*
Y806150D01*
X973848Y807712D01*
X972652Y808908D01*
X971090Y809555D01*
D02*
G37*
G36*
X27515Y805620D02*
X25825D01*
X24263Y804973D01*
X23067Y803777D01*
X22420Y802215D01*
Y800525D01*
X23067Y798963D01*
X24263Y797767D01*
X25825Y797120D01*
X27515D01*
X29077Y797767D01*
X30273Y798963D01*
X30920Y800525D01*
Y802215D01*
X30273Y803777D01*
X29077Y804973D01*
X27515Y805620D01*
D02*
G37*
G36*
X93944Y807573D02*
X91476D01*
X89196Y806629D01*
X87451Y804884D01*
X86507Y802604D01*
Y800136D01*
X87451Y797856D01*
X89196Y796111D01*
X91476Y795167D01*
X93944D01*
X96224Y796111D01*
X97969Y797856D01*
X98913Y800136D01*
Y802604D01*
X97969Y804884D01*
X96224Y806629D01*
X93944Y807573D01*
D02*
G37*
G36*
X57995Y799270D02*
X56305D01*
X54743Y798623D01*
X53547Y797427D01*
X52900Y795865D01*
Y795497D01*
X51630Y794971D01*
X49969Y796632D01*
X46976Y798360D01*
X43638Y799255D01*
X40182D01*
X36844Y798360D01*
X33851Y796632D01*
X31408Y794189D01*
X29680Y791196D01*
X28786Y787858D01*
Y784402D01*
X29680Y781064D01*
X31408Y778071D01*
X33851Y775628D01*
X36844Y773900D01*
X40182Y773006D01*
X43638D01*
X46976Y773900D01*
X49969Y775628D01*
X52412Y778071D01*
X54140Y781064D01*
X55034Y784402D01*
Y787858D01*
X54413Y790179D01*
X55477Y791113D01*
X56305Y790770D01*
X57995D01*
X59557Y791417D01*
X60753Y792613D01*
X61400Y794175D01*
Y795865D01*
X60753Y797427D01*
X59557Y798623D01*
X57995Y799270D01*
D02*
G37*
G36*
X855555Y801810D02*
X853865D01*
X852303Y801163D01*
X851107Y799967D01*
X850460Y798405D01*
Y796715D01*
X851107Y795153D01*
X852303Y793957D01*
X853865Y793310D01*
X855555D01*
X857117Y793957D01*
X858313Y795153D01*
X858960Y796715D01*
Y798405D01*
X858313Y799967D01*
X857117Y801163D01*
X855555Y801810D01*
D02*
G37*
G36*
X1430626Y808050D02*
X1428574D01*
X1426593Y807519D01*
X1424817Y806494D01*
X1423367Y805043D01*
X1422341Y803267D01*
X1421810Y801286D01*
Y799234D01*
X1422341Y797253D01*
X1423367Y795477D01*
X1424817Y794026D01*
X1426593Y793001D01*
X1428574Y792470D01*
X1430626D01*
X1432607Y793001D01*
X1434383Y794026D01*
X1435834Y795477D01*
X1436859Y797253D01*
X1437390Y799234D01*
Y801286D01*
X1436859Y803267D01*
X1435834Y805043D01*
X1434383Y806494D01*
X1432607Y807519D01*
X1430626Y808050D01*
D02*
G37*
G36*
X315805Y800540D02*
X314115D01*
X312553Y799893D01*
X311357Y798697D01*
X310710Y797135D01*
Y795445D01*
X311357Y793883D01*
X312553Y792687D01*
X314115Y792040D01*
X315805D01*
X317367Y792687D01*
X318563Y793883D01*
X319210Y795445D01*
Y797135D01*
X318563Y798697D01*
X317367Y799893D01*
X315805Y800540D01*
D02*
G37*
G36*
X355239Y799334D02*
X353548D01*
X351986Y798687D01*
X350791Y797491D01*
X350144Y795929D01*
Y794238D01*
X350791Y792676D01*
X351986Y791481D01*
X353548Y790834D01*
X355239D01*
X356801Y791481D01*
X357997Y792676D01*
X358644Y794238D01*
Y795929D01*
X357997Y797491D01*
X356801Y798687D01*
X355239Y799334D01*
D02*
G37*
G36*
X305645Y799270D02*
X303955D01*
X302393Y798623D01*
X301197Y797427D01*
X300550Y795865D01*
Y794175D01*
X301197Y792613D01*
X302393Y791417D01*
X303955Y790770D01*
X305645D01*
X307207Y791417D01*
X308403Y792613D01*
X309050Y794175D01*
Y795865D01*
X308403Y797427D01*
X307207Y798623D01*
X305645Y799270D01*
D02*
G37*
G36*
X295485D02*
X293795D01*
X292233Y798623D01*
X291037Y797427D01*
X290390Y795865D01*
Y794175D01*
X291037Y792613D01*
X292233Y791417D01*
X293795Y790770D01*
X295485D01*
X297047Y791417D01*
X298243Y792613D01*
X298890Y794175D01*
Y795865D01*
X298243Y797427D01*
X297047Y798623D01*
X295485Y799270D01*
D02*
G37*
G36*
X968015Y798250D02*
X966325D01*
X964763Y797603D01*
X963567Y796407D01*
X962920Y794845D01*
Y793155D01*
X963567Y791593D01*
X964763Y790397D01*
X966325Y789750D01*
X968015D01*
X969577Y790397D01*
X970773Y791593D01*
X971420Y793155D01*
Y794845D01*
X970773Y796407D01*
X969577Y797603D01*
X968015Y798250D01*
D02*
G37*
G36*
X685375Y796730D02*
X683685D01*
X682123Y796083D01*
X680927Y794887D01*
X680280Y793325D01*
Y791635D01*
X680927Y790073D01*
X682123Y788877D01*
X683685Y788230D01*
X685375D01*
X686937Y788877D01*
X688133Y790073D01*
X688780Y791635D01*
Y793325D01*
X688133Y794887D01*
X686937Y796083D01*
X685375Y796730D01*
D02*
G37*
G36*
X1300435Y794250D02*
X1298745D01*
X1297183Y793603D01*
X1295987Y792408D01*
X1295340Y790845D01*
Y789155D01*
X1295987Y787593D01*
X1297183Y786397D01*
X1298745Y785750D01*
X1300435D01*
X1301997Y786397D01*
X1303193Y787593D01*
X1303840Y789155D01*
Y790845D01*
X1303193Y792408D01*
X1301997Y793603D01*
X1300435Y794250D01*
D02*
G37*
G36*
X1207345Y794190D02*
X1205655D01*
X1204093Y793543D01*
X1202897Y792347D01*
X1202250Y790785D01*
Y789095D01*
X1202897Y787533D01*
X1204093Y786337D01*
X1205655Y785690D01*
X1207345D01*
X1208907Y786337D01*
X1210103Y787533D01*
X1210750Y789095D01*
Y790785D01*
X1210103Y792347D01*
X1208907Y793543D01*
X1207345Y794190D01*
D02*
G37*
G36*
X855555Y789110D02*
X853865D01*
X852303Y788463D01*
X851107Y787267D01*
X850460Y785705D01*
Y784015D01*
X851107Y782453D01*
X852303Y781257D01*
X853865Y780610D01*
X855555D01*
X857117Y781257D01*
X858313Y782453D01*
X858960Y784015D01*
Y785705D01*
X858313Y787267D01*
X857117Y788463D01*
X855555Y789110D01*
D02*
G37*
G36*
X794595D02*
X792905D01*
X791343Y788463D01*
X790147Y787267D01*
X789500Y785705D01*
Y784015D01*
X790147Y782453D01*
X791343Y781257D01*
X792905Y780610D01*
X794595D01*
X796157Y781257D01*
X797353Y782453D01*
X798000Y784015D01*
Y785705D01*
X797353Y787267D01*
X796157Y788463D01*
X794595Y789110D01*
D02*
G37*
G36*
X325965D02*
X324275D01*
X322713Y788463D01*
X321517Y787267D01*
X320870Y785705D01*
Y784015D01*
X321517Y782453D01*
X322713Y781257D01*
X324275Y780610D01*
X325965D01*
X327527Y781257D01*
X328723Y782453D01*
X329370Y784015D01*
Y785705D01*
X328723Y787267D01*
X327527Y788463D01*
X325965Y789110D01*
D02*
G37*
G36*
X431375Y787840D02*
X429685D01*
X428123Y787193D01*
X426927Y785997D01*
X426280Y784435D01*
Y782745D01*
X426927Y781183D01*
X428123Y779987D01*
X429685Y779340D01*
X431375D01*
X432937Y779987D01*
X434133Y781183D01*
X434780Y782745D01*
Y784435D01*
X434133Y785997D01*
X432937Y787193D01*
X431375Y787840D01*
D02*
G37*
G36*
X968015Y787250D02*
X966325D01*
X964763Y786603D01*
X963567Y785407D01*
X962920Y783845D01*
Y782155D01*
X963567Y780593D01*
X964763Y779397D01*
X966325Y778750D01*
X968015D01*
X969577Y779397D01*
X970773Y780593D01*
X971420Y782155D01*
Y783845D01*
X970773Y785407D01*
X969577Y786603D01*
X968015Y787250D01*
D02*
G37*
G36*
X308384Y787400D02*
X306296D01*
X304366Y786601D01*
X302889Y785124D01*
X302090Y783194D01*
Y781106D01*
X302889Y779176D01*
X304366Y777699D01*
X306296Y776900D01*
X308384D01*
X310314Y777699D01*
X311791Y779176D01*
X312590Y781106D01*
Y783194D01*
X311791Y785124D01*
X310314Y786601D01*
X308384Y787400D01*
D02*
G37*
G36*
X75388Y799255D02*
X71932D01*
X68594Y798360D01*
X65601Y796632D01*
X63158Y794189D01*
X61430Y791196D01*
X60535Y787858D01*
Y784402D01*
X61430Y781064D01*
X63158Y778071D01*
X65601Y775628D01*
X68594Y773900D01*
X71932Y773006D01*
X75388D01*
X78726Y773900D01*
X81719Y775628D01*
X84162Y778071D01*
X85890Y781064D01*
X86784Y784402D01*
Y787858D01*
X85890Y791196D01*
X84162Y794189D01*
X81719Y796632D01*
X78726Y798360D01*
X75388Y799255D01*
D02*
G37*
G36*
X223294Y782490D02*
X221206D01*
X219276Y781691D01*
X217799Y780214D01*
X217000Y778284D01*
Y776196D01*
X217799Y774266D01*
X219276Y772789D01*
X221206Y771990D01*
X223294D01*
X225224Y772789D01*
X226701Y774266D01*
X227500Y776196D01*
Y778284D01*
X226701Y780214D01*
X225224Y781691D01*
X223294Y782490D01*
D02*
G37*
G36*
X357914Y781220D02*
X355826D01*
X353896Y780421D01*
X352419Y778944D01*
X351620Y777014D01*
Y774926D01*
X352419Y772996D01*
X353896Y771519D01*
X355826Y770720D01*
X357914D01*
X359844Y771519D01*
X361321Y772996D01*
X362120Y774926D01*
Y777014D01*
X361321Y778944D01*
X359844Y780421D01*
X357914Y781220D01*
D02*
G37*
G36*
X1300055Y773870D02*
X1298365D01*
X1296803Y773223D01*
X1295607Y772027D01*
X1294960Y770465D01*
Y768775D01*
X1295607Y767213D01*
X1296803Y766017D01*
X1298365Y765370D01*
X1300055D01*
X1301617Y766017D01*
X1302813Y767213D01*
X1303460Y768775D01*
Y770465D01*
X1302813Y772027D01*
X1301617Y773223D01*
X1300055Y773870D01*
D02*
G37*
G36*
X794595Y777680D02*
X792905D01*
X791343Y777033D01*
X790147Y775837D01*
X789500Y774275D01*
Y772585D01*
X790147Y771023D01*
X791343Y769827D01*
X791716Y769672D01*
Y768298D01*
X791343Y768143D01*
X790147Y766947D01*
X789500Y765385D01*
Y763695D01*
X790147Y762133D01*
X791343Y760937D01*
X792905Y760290D01*
X794595D01*
X796157Y760937D01*
X797353Y762133D01*
X798000Y763695D01*
Y765385D01*
X797353Y766947D01*
X796157Y768143D01*
X795784Y768298D01*
Y769672D01*
X796157Y769827D01*
X797353Y771023D01*
X798000Y772585D01*
Y774275D01*
X797353Y775837D01*
X796157Y777033D01*
X794595Y777680D01*
D02*
G37*
G36*
X861905Y767520D02*
X860215D01*
X858653Y766873D01*
X857457Y765677D01*
X856810Y764115D01*
Y762425D01*
X857457Y760863D01*
X858653Y759667D01*
X860215Y759020D01*
X861905D01*
X863467Y759667D01*
X864663Y760863D01*
X865310Y762425D01*
Y764115D01*
X864663Y765677D01*
X863467Y766873D01*
X861905Y767520D01*
D02*
G37*
G36*
X887504Y768520D02*
X885416D01*
X883486Y767721D01*
X882009Y766244D01*
X881210Y764314D01*
Y762226D01*
X882009Y760296D01*
X883486Y758819D01*
X885416Y758020D01*
X887504D01*
X889434Y758819D01*
X890911Y760296D01*
X891710Y762226D01*
Y764314D01*
X890911Y766244D01*
X889434Y767721D01*
X887504Y768520D01*
D02*
G37*
G36*
X821265Y763710D02*
X819575D01*
X818013Y763063D01*
X816817Y761867D01*
X816170Y760305D01*
Y758615D01*
X816817Y757053D01*
X818013Y755857D01*
X819575Y755210D01*
X821265D01*
X822827Y755857D01*
X824023Y757053D01*
X824670Y758615D01*
Y760305D01*
X824023Y761867D01*
X822827Y763063D01*
X821265Y763710D01*
D02*
G37*
G36*
X639655Y761170D02*
X637965D01*
X636403Y760523D01*
X635207Y759327D01*
X634560Y757765D01*
Y756075D01*
X635207Y754513D01*
X636403Y753317D01*
X637965Y752670D01*
X639655D01*
X641217Y753317D01*
X642413Y754513D01*
X643060Y756075D01*
Y757765D01*
X642413Y759327D01*
X641217Y760523D01*
X639655Y761170D01*
D02*
G37*
G36*
X662515Y751010D02*
X660825D01*
X659263Y750363D01*
X658067Y749167D01*
X657420Y747605D01*
Y745915D01*
X658067Y744353D01*
X659263Y743157D01*
X660825Y742510D01*
X662515D01*
X664077Y743157D01*
X665273Y744353D01*
X665920Y745915D01*
Y747605D01*
X665273Y749167D01*
X664077Y750363D01*
X662515Y751010D01*
D02*
G37*
G36*
X313265Y748470D02*
X311575D01*
X310013Y747823D01*
X308817Y746627D01*
X308170Y745065D01*
Y743375D01*
X308817Y741813D01*
X310013Y740617D01*
X311575Y739970D01*
X313265D01*
X314827Y740617D01*
X316023Y741813D01*
X316670Y743375D01*
Y745065D01*
X316023Y746627D01*
X314827Y747823D01*
X313265Y748470D01*
D02*
G37*
G36*
X596475Y742120D02*
X594785D01*
X593223Y741473D01*
X592027Y740277D01*
X591380Y738715D01*
Y737025D01*
X592027Y735463D01*
X593223Y734267D01*
X594785Y733620D01*
X596475D01*
X598037Y734267D01*
X599233Y735463D01*
X599880Y737025D01*
Y738715D01*
X599233Y740277D01*
X598037Y741473D01*
X596475Y742120D01*
D02*
G37*
G36*
X706965Y733230D02*
X705275D01*
X703713Y732583D01*
X702517Y731387D01*
X701870Y729825D01*
Y728135D01*
X702517Y726573D01*
X703713Y725377D01*
X705275Y724730D01*
X706965D01*
X708527Y725377D01*
X709723Y726573D01*
X710370Y728135D01*
Y729825D01*
X709723Y731387D01*
X708527Y732583D01*
X706965Y733230D01*
D02*
G37*
G36*
X285325Y717990D02*
X283635D01*
X282073Y717343D01*
X280877Y716147D01*
X280230Y714585D01*
Y712895D01*
X280877Y711333D01*
X282073Y710137D01*
X283635Y709490D01*
X285325D01*
X286706Y710062D01*
X287318Y709764D01*
X287850Y709304D01*
Y707815D01*
X288497Y706253D01*
X289693Y705057D01*
X291255Y704410D01*
X292945D01*
X294507Y705057D01*
X295703Y706253D01*
X296350Y707815D01*
Y709505D01*
X295703Y711067D01*
X294507Y712263D01*
X292945Y712910D01*
X291255D01*
X289874Y712338D01*
X289262Y712636D01*
X288730Y713096D01*
Y714585D01*
X288083Y716147D01*
X286887Y717343D01*
X285325Y717990D01*
D02*
G37*
G36*
X75974Y712640D02*
X73886D01*
X71956Y711841D01*
X70479Y710364D01*
X69680Y708434D01*
Y706346D01*
X70479Y704416D01*
X71956Y702939D01*
X73886Y702140D01*
X75974D01*
X77904Y702939D01*
X79381Y704416D01*
X80180Y706346D01*
Y708434D01*
X79381Y710364D01*
X77904Y711841D01*
X75974Y712640D01*
D02*
G37*
G36*
X1058954Y711370D02*
X1056866D01*
X1054936Y710571D01*
X1053459Y709094D01*
X1052660Y707164D01*
Y705076D01*
X1053459Y703146D01*
X1054936Y701669D01*
X1056866Y700870D01*
X1058954D01*
X1060884Y701669D01*
X1062361Y703146D01*
X1063160Y705076D01*
Y707164D01*
X1062361Y709094D01*
X1060884Y710571D01*
X1058954Y711370D01*
D02*
G37*
G36*
X653625Y706560D02*
X651935D01*
X650373Y705913D01*
X649177Y704717D01*
X648530Y703155D01*
Y701465D01*
X649177Y699903D01*
X650373Y698707D01*
X651935Y698060D01*
X653625D01*
X655187Y698707D01*
X656383Y699903D01*
X657030Y701465D01*
Y703155D01*
X656383Y704717D01*
X655187Y705913D01*
X653625Y706560D01*
D02*
G37*
G36*
X300565D02*
X298875D01*
X297313Y705913D01*
X296117Y704717D01*
X295470Y703155D01*
Y701465D01*
X296117Y699903D01*
X297313Y698707D01*
X298875Y698060D01*
X300565D01*
X302127Y698707D01*
X303323Y699903D01*
X303970Y701465D01*
Y703155D01*
X303323Y704717D01*
X302127Y705913D01*
X300565Y706560D01*
D02*
G37*
G36*
X534245Y705290D02*
X532555D01*
X530993Y704643D01*
X529797Y703447D01*
X529150Y701885D01*
Y700195D01*
X529797Y698633D01*
X530993Y697437D01*
X532555Y696790D01*
X534245D01*
X535807Y697437D01*
X537003Y698633D01*
X537650Y700195D01*
Y701885D01*
X537003Y703447D01*
X535807Y704643D01*
X534245Y705290D01*
D02*
G37*
G36*
X392005Y716720D02*
X390315D01*
X388753Y716073D01*
X387557Y714877D01*
X386910Y713315D01*
Y711625D01*
X387557Y710063D01*
X388753Y708867D01*
X390315Y708220D01*
X391135D01*
X391990Y706965D01*
Y705275D01*
X392024Y705193D01*
X391201Y703861D01*
X390023Y703373D01*
X388827Y702177D01*
X388180Y700615D01*
Y698925D01*
X388827Y697363D01*
X390023Y696167D01*
X391585Y695520D01*
X393275D01*
X394837Y696167D01*
X396033Y697363D01*
X396680Y698925D01*
Y700615D01*
X396646Y700697D01*
X397469Y702029D01*
X398647Y702517D01*
X399843Y703713D01*
X400490Y705275D01*
Y706965D01*
X399843Y708527D01*
X398647Y709723D01*
X397085Y710370D01*
X396265D01*
X395410Y711625D01*
Y713315D01*
X394763Y714877D01*
X393567Y716073D01*
X392005Y716720D01*
D02*
G37*
G36*
X318345Y701480D02*
X316655D01*
X315093Y700833D01*
X313897Y699637D01*
X313250Y698075D01*
Y696385D01*
X313897Y694823D01*
X315093Y693627D01*
X316655Y692980D01*
X318345D01*
X319907Y693627D01*
X321103Y694823D01*
X321750Y696385D01*
Y698075D01*
X321103Y699637D01*
X319907Y700833D01*
X318345Y701480D01*
D02*
G37*
G36*
X1028474Y699940D02*
X1026386D01*
X1024456Y699141D01*
X1022979Y697664D01*
X1022180Y695734D01*
Y693646D01*
X1022979Y691716D01*
X1024456Y690239D01*
X1026386Y689440D01*
X1028474D01*
X1030404Y690239D01*
X1031881Y691716D01*
X1032680Y693646D01*
Y695734D01*
X1031881Y697664D01*
X1030404Y699141D01*
X1028474Y699940D01*
D02*
G37*
G36*
X1321844Y688510D02*
X1319756D01*
X1317826Y687711D01*
X1316349Y686234D01*
X1315550Y684304D01*
Y682216D01*
X1316349Y680286D01*
X1317826Y678809D01*
X1319756Y678010D01*
X1321844D01*
X1323774Y678809D01*
X1325251Y680286D01*
X1326050Y682216D01*
Y684304D01*
X1325251Y686234D01*
X1323774Y687711D01*
X1321844Y688510D01*
D02*
G37*
G36*
X1309144D02*
X1307056D01*
X1305126Y687711D01*
X1303649Y686234D01*
X1302850Y684304D01*
Y682216D01*
X1303649Y680286D01*
X1305126Y678809D01*
X1307056Y678010D01*
X1309144D01*
X1311074Y678809D01*
X1312551Y680286D01*
X1313350Y682216D01*
Y684304D01*
X1312551Y686234D01*
X1311074Y687711D01*
X1309144Y688510D01*
D02*
G37*
G36*
X1028474Y687240D02*
X1026386D01*
X1024456Y686441D01*
X1022979Y684964D01*
X1022180Y683034D01*
Y680946D01*
X1022979Y679016D01*
X1024456Y677539D01*
X1026386Y676740D01*
X1028474D01*
X1030404Y677539D01*
X1031881Y679016D01*
X1032680Y680946D01*
Y683034D01*
X1031881Y684964D01*
X1030404Y686441D01*
X1028474Y687240D01*
D02*
G37*
G36*
X182654Y683430D02*
X180566D01*
X178636Y682631D01*
X177159Y681154D01*
X176360Y679224D01*
Y677136D01*
X177159Y675206D01*
X178636Y673729D01*
X180566Y672930D01*
X182654D01*
X184584Y673729D01*
X186061Y675206D01*
X186860Y677136D01*
Y679224D01*
X186061Y681154D01*
X184584Y682631D01*
X182654Y683430D01*
D02*
G37*
G36*
X883694Y682160D02*
X881606D01*
X879676Y681361D01*
X878199Y679884D01*
X877400Y677954D01*
Y675866D01*
X878199Y673936D01*
X879676Y672459D01*
X881606Y671660D01*
X883694D01*
X885624Y672459D01*
X887101Y673936D01*
X887900Y675866D01*
Y677954D01*
X887101Y679884D01*
X885624Y681361D01*
X883694Y682160D01*
D02*
G37*
G36*
X785904Y680890D02*
X783816D01*
X781886Y680091D01*
X780409Y678614D01*
X779610Y676684D01*
Y674596D01*
X780409Y672666D01*
X781886Y671189D01*
X783816Y670390D01*
X785904D01*
X787834Y671189D01*
X789311Y672666D01*
X790110Y674596D01*
Y676684D01*
X789311Y678614D01*
X787834Y680091D01*
X785904Y680890D01*
D02*
G37*
G36*
X777014Y659300D02*
X774926D01*
X772996Y658501D01*
X771519Y657024D01*
X770720Y655094D01*
Y653006D01*
X771519Y651076D01*
X772996Y649599D01*
X774926Y648800D01*
X777014D01*
X778944Y649599D01*
X780421Y651076D01*
X781220Y653006D01*
Y655094D01*
X780421Y657024D01*
X778944Y658501D01*
X777014Y659300D01*
D02*
G37*
G36*
X716054D02*
X713966D01*
X712036Y658501D01*
X710559Y657024D01*
X709760Y655094D01*
Y653006D01*
X710559Y651076D01*
X712036Y649599D01*
X713966Y648800D01*
X716054D01*
X717984Y649599D01*
X719461Y651076D01*
X720260Y653006D01*
Y655094D01*
X719461Y657024D01*
X717984Y658501D01*
X716054Y659300D01*
D02*
G37*
G36*
X1044984Y656760D02*
X1042896D01*
X1040966Y655961D01*
X1039489Y654484D01*
X1038690Y652554D01*
Y650466D01*
X1039489Y648536D01*
X1040966Y647059D01*
X1042896Y646260D01*
X1044984D01*
X1046914Y647059D01*
X1048391Y648536D01*
X1049190Y650466D01*
Y652554D01*
X1048391Y654484D01*
X1046914Y655961D01*
X1044984Y656760D01*
D02*
G37*
G36*
X266275Y668460D02*
X264585D01*
X263023Y667813D01*
X261827Y666617D01*
X261180Y665055D01*
Y663365D01*
X261827Y661803D01*
X263023Y660607D01*
X264585Y659960D01*
X266275D01*
X266758Y660160D01*
X267730Y659188D01*
X267530Y658705D01*
Y657015D01*
X268177Y655453D01*
X269373Y654257D01*
X270935Y653610D01*
X271154D01*
X271437Y653283D01*
X271860Y652340D01*
X271340Y651085D01*
Y649395D01*
X271987Y647833D01*
X273183Y646637D01*
X274001Y646298D01*
X274509Y645071D01*
X274450Y644842D01*
X273880Y643465D01*
Y641775D01*
X274527Y640213D01*
X275723Y639017D01*
X277285Y638370D01*
X278975D01*
X280537Y639017D01*
X281733Y640213D01*
X282380Y641775D01*
Y643465D01*
X281733Y645027D01*
X280537Y646223D01*
X279719Y646562D01*
X279211Y647789D01*
X279270Y648018D01*
X279840Y649395D01*
Y651085D01*
X279193Y652647D01*
X277997Y653843D01*
X276435Y654490D01*
X276217D01*
X275933Y654817D01*
X275510Y655760D01*
X276030Y657015D01*
Y658705D01*
X275383Y660267D01*
X274187Y661463D01*
X272625Y662110D01*
X270935D01*
X270452Y661910D01*
X269480Y662882D01*
X269680Y663365D01*
Y665055D01*
X269033Y666617D01*
X267837Y667813D01*
X266275Y668460D01*
D02*
G37*
G36*
X355374Y641520D02*
X353286D01*
X351356Y640721D01*
X349879Y639244D01*
X349080Y637314D01*
Y635226D01*
X349879Y633296D01*
X351356Y631819D01*
X353286Y631020D01*
X355374D01*
X357304Y631819D01*
X358781Y633296D01*
X359580Y635226D01*
Y637314D01*
X358781Y639244D01*
X357304Y640721D01*
X355374Y641520D01*
D02*
G37*
G36*
X1215164Y631360D02*
X1213076D01*
X1211146Y630561D01*
X1209751Y629166D01*
X1209040Y629122D01*
X1208329Y629166D01*
X1206934Y630561D01*
X1205004Y631360D01*
X1202916D01*
X1200986Y630561D01*
X1199509Y629084D01*
X1198710Y627154D01*
Y625066D01*
X1199509Y623136D01*
X1200980Y621665D01*
X1199509Y620194D01*
X1198710Y618264D01*
Y616176D01*
X1199509Y614246D01*
X1200980Y612775D01*
X1199509Y611304D01*
X1198710Y609374D01*
Y607286D01*
X1199509Y605356D01*
X1200986Y603879D01*
X1202916Y603080D01*
X1205004D01*
X1206934Y603879D01*
X1208329Y605274D01*
X1209040Y605318D01*
X1209751Y605274D01*
X1211146Y603879D01*
X1213076Y603080D01*
X1215164D01*
X1217094Y603879D01*
X1218571Y605356D01*
X1219370Y607286D01*
Y609374D01*
X1218571Y611304D01*
X1217100Y612775D01*
X1218571Y614246D01*
X1219370Y616176D01*
Y618264D01*
X1218571Y620194D01*
X1217100Y621665D01*
X1218571Y623136D01*
X1219370Y625066D01*
Y627154D01*
X1218571Y629084D01*
X1217094Y630561D01*
X1215164Y631360D01*
D02*
G37*
G36*
X286595Y636710D02*
X284905D01*
X283343Y636063D01*
X282147Y634867D01*
X281500Y633305D01*
Y631615D01*
X282147Y630053D01*
X283343Y628857D01*
X284905Y628210D01*
X286595D01*
X288157Y628857D01*
X289353Y630053D01*
X290000Y631615D01*
Y633305D01*
X289353Y634867D01*
X288157Y636063D01*
X286595Y636710D01*
D02*
G37*
G36*
X1293904Y633900D02*
X1291816D01*
X1289886Y633101D01*
X1288409Y631624D01*
X1287610Y629694D01*
Y627606D01*
X1288409Y625676D01*
X1289886Y624199D01*
X1291816Y623400D01*
X1293904D01*
X1295834Y624199D01*
X1297311Y625676D01*
X1298110Y627606D01*
Y629694D01*
X1297311Y631624D01*
X1295834Y633101D01*
X1293904Y633900D01*
D02*
G37*
G36*
X346285Y626550D02*
X344595D01*
X343033Y625903D01*
X341837Y624707D01*
X341190Y623145D01*
Y621455D01*
X341837Y619893D01*
X343033Y618697D01*
X344595Y618050D01*
X346285D01*
X347847Y618697D01*
X349043Y619893D01*
X349690Y621455D01*
Y623145D01*
X349043Y624707D01*
X347847Y625903D01*
X346285Y626550D01*
D02*
G37*
G36*
X336125D02*
X334435D01*
X332873Y625903D01*
X331677Y624707D01*
X331030Y623145D01*
Y621455D01*
X331677Y619893D01*
X332873Y618697D01*
X334435Y618050D01*
X336125D01*
X337687Y618697D01*
X338883Y619893D01*
X339530Y621455D01*
Y623145D01*
X338883Y624707D01*
X337687Y625903D01*
X336125Y626550D01*
D02*
G37*
G36*
X379504Y618660D02*
X377416D01*
X375486Y617861D01*
X374009Y616384D01*
X373210Y614454D01*
Y612366D01*
X374009Y610436D01*
X375486Y608959D01*
X377416Y608160D01*
X379504D01*
X381434Y608959D01*
X382911Y610436D01*
X383710Y612366D01*
Y614454D01*
X382911Y616384D01*
X381434Y617861D01*
X379504Y618660D01*
D02*
G37*
G36*
X525355Y615120D02*
X523665D01*
X522103Y614473D01*
X520907Y613277D01*
X520260Y611715D01*
Y610025D01*
X520907Y608463D01*
X522103Y607267D01*
X523665Y606620D01*
X525355D01*
X526917Y607267D01*
X528113Y608463D01*
X528760Y610025D01*
Y611715D01*
X528113Y613277D01*
X526917Y614473D01*
X525355Y615120D01*
D02*
G37*
G36*
X1417403Y611310D02*
X1415713D01*
X1414151Y610663D01*
X1412955Y609467D01*
X1412308Y607905D01*
Y607322D01*
X1412276Y607278D01*
X1411038Y606578D01*
X1410037Y606992D01*
X1408347D01*
X1406785Y606345D01*
X1406233Y605794D01*
X1405610Y606017D01*
X1405060Y606417D01*
Y607905D01*
X1404413Y609467D01*
X1403217Y610663D01*
X1401655Y611310D01*
X1399965D01*
X1398403Y610663D01*
X1397207Y609467D01*
X1396560Y607905D01*
Y606215D01*
X1397207Y604653D01*
X1398403Y603457D01*
X1398903Y603250D01*
Y601875D01*
X1398657Y601773D01*
X1397461Y600577D01*
X1396814Y599015D01*
Y597325D01*
X1397461Y595763D01*
X1398657Y594567D01*
X1400219Y593920D01*
X1401909D01*
X1403471Y594567D01*
X1404667Y595763D01*
X1405314Y597325D01*
Y598814D01*
X1405864Y599213D01*
X1406487Y599436D01*
X1406785Y599139D01*
X1408347Y598492D01*
X1410037D01*
X1411038Y598906D01*
X1412276Y598206D01*
X1412308Y598162D01*
Y597325D01*
X1412955Y595763D01*
X1414151Y594567D01*
X1415713Y593920D01*
X1417403D01*
X1418965Y594567D01*
X1420161Y595763D01*
X1420808Y597325D01*
Y599015D01*
X1420161Y600577D01*
X1418965Y601773D01*
X1418592Y601928D01*
Y603302D01*
X1418965Y603457D01*
X1420161Y604653D01*
X1420808Y606215D01*
Y607905D01*
X1420161Y609467D01*
X1418965Y610663D01*
X1417403Y611310D01*
D02*
G37*
G36*
X1375975Y611220D02*
X1374285D01*
X1372723Y610573D01*
X1371527Y609377D01*
X1370880Y607815D01*
Y607089D01*
X1369664Y606509D01*
X1368102Y607156D01*
X1366411D01*
X1365410Y606742D01*
X1364172Y607442D01*
X1364140Y607486D01*
Y607815D01*
X1363493Y609377D01*
X1362298Y610573D01*
X1360735Y611220D01*
X1359045D01*
X1357483Y610573D01*
X1356287Y609377D01*
X1355640Y607815D01*
Y606125D01*
X1356287Y604563D01*
X1357483Y603367D01*
X1357856Y603212D01*
Y601838D01*
X1357483Y601683D01*
X1356287Y600487D01*
X1355640Y598925D01*
Y597235D01*
X1356287Y595673D01*
X1357483Y594477D01*
X1359045Y593830D01*
X1360735D01*
X1362298Y594477D01*
X1363493Y595673D01*
X1364140Y597235D01*
Y598326D01*
X1364174Y598374D01*
X1365338Y599100D01*
X1366411Y598656D01*
X1368102D01*
X1369664Y599303D01*
X1369707Y599346D01*
X1370330Y599123D01*
X1370880Y598723D01*
Y597235D01*
X1371527Y595673D01*
X1372723Y594477D01*
X1374285Y593830D01*
X1375975D01*
X1377538Y594477D01*
X1378733Y595673D01*
X1379380Y597235D01*
Y598925D01*
X1378733Y600487D01*
X1377538Y601683D01*
X1377164Y601838D01*
Y603212D01*
X1377538Y603367D01*
X1378733Y604563D01*
X1379380Y606125D01*
Y607815D01*
X1378733Y609377D01*
X1377538Y610573D01*
X1375975Y611220D01*
D02*
G37*
G36*
X1304064Y599610D02*
X1301976D01*
X1300046Y598811D01*
X1298569Y597334D01*
X1297770Y595404D01*
Y593316D01*
X1298569Y591386D01*
X1300046Y589909D01*
X1301976Y589110D01*
X1304064D01*
X1305994Y589909D01*
X1307471Y591386D01*
X1308270Y593316D01*
Y595404D01*
X1307471Y597334D01*
X1305994Y598811D01*
X1304064Y599610D01*
D02*
G37*
G36*
X903247Y609920D02*
X900153D01*
X897165Y609119D01*
X894485Y607572D01*
X892298Y605385D01*
X890751Y602705D01*
X889950Y599717D01*
Y596623D01*
X890751Y593635D01*
X892298Y590955D01*
X894485Y588768D01*
X897165Y587221D01*
X900153Y586420D01*
X903247D01*
X906235Y587221D01*
X908915Y588768D01*
X911102Y590955D01*
X912649Y593635D01*
X913450Y596623D01*
Y599717D01*
X912649Y602705D01*
X911102Y605385D01*
X908915Y607572D01*
X906235Y609119D01*
X903247Y609920D01*
D02*
G37*
G36*
X577624Y588180D02*
X575536D01*
X573606Y587381D01*
X572129Y585904D01*
X571330Y583974D01*
Y581886D01*
X572129Y579956D01*
X573606Y578479D01*
X575536Y577680D01*
X577624D01*
X579554Y578479D01*
X581031Y579956D01*
X581830Y581886D01*
Y583974D01*
X581031Y585904D01*
X579554Y587381D01*
X577624Y588180D01*
D02*
G37*
G36*
X759234Y581830D02*
X757146D01*
X755216Y581031D01*
X753739Y579554D01*
X752940Y577624D01*
Y575536D01*
X753739Y573606D01*
X755216Y572129D01*
X757146Y571330D01*
X759234D01*
X761164Y572129D01*
X762641Y573606D01*
X763440Y575536D01*
Y577624D01*
X762641Y579554D01*
X761164Y581031D01*
X759234Y581830D01*
D02*
G37*
G36*
X745264D02*
X743176D01*
X741246Y581031D01*
X739769Y579554D01*
X738970Y577624D01*
Y575536D01*
X739769Y573606D01*
X741246Y572129D01*
X743176Y571330D01*
X745264D01*
X747194Y572129D01*
X748671Y573606D01*
X749470Y575536D01*
Y577624D01*
X748671Y579554D01*
X747194Y581031D01*
X745264Y581830D01*
D02*
G37*
G36*
X1099594Y580560D02*
X1097506D01*
X1095576Y579761D01*
X1094099Y578284D01*
X1093300Y576354D01*
Y574266D01*
X1094099Y572336D01*
X1095576Y570859D01*
X1097506Y570060D01*
X1099594D01*
X1101524Y570859D01*
X1103001Y572336D01*
X1103800Y574266D01*
Y576354D01*
X1103001Y578284D01*
X1101524Y579761D01*
X1099594Y580560D01*
D02*
G37*
G36*
X1086894D02*
X1084806D01*
X1082876Y579761D01*
X1081399Y578284D01*
X1080600Y576354D01*
Y574266D01*
X1081399Y572336D01*
X1082876Y570859D01*
X1084806Y570060D01*
X1086894D01*
X1088824Y570859D01*
X1090301Y572336D01*
X1091100Y574266D01*
Y576354D01*
X1090301Y578284D01*
X1088824Y579761D01*
X1086894Y580560D01*
D02*
G37*
G36*
X1074194D02*
X1072106D01*
X1070176Y579761D01*
X1068699Y578284D01*
X1067900Y576354D01*
Y574266D01*
X1068699Y572336D01*
X1070176Y570859D01*
X1072106Y570060D01*
X1074194D01*
X1076124Y570859D01*
X1077601Y572336D01*
X1078400Y574266D01*
Y576354D01*
X1077601Y578284D01*
X1076124Y579761D01*
X1074194Y580560D01*
D02*
G37*
G36*
X1186755Y582235D02*
X1170365D01*
Y565845D01*
X1186755D01*
Y582235D01*
D02*
G37*
G36*
X1154239D02*
X1152081D01*
X1149997Y581676D01*
X1148128Y580598D01*
X1146602Y579072D01*
X1145524Y577203D01*
X1144965Y575119D01*
Y572961D01*
X1145524Y570877D01*
X1146602Y569008D01*
X1148128Y567482D01*
X1149997Y566404D01*
X1152081Y565845D01*
X1154239D01*
X1156323Y566404D01*
X1158192Y567482D01*
X1159718Y569008D01*
X1160797Y570877D01*
X1161355Y572961D01*
Y575119D01*
X1160797Y577203D01*
X1159718Y579072D01*
X1158192Y580598D01*
X1156323Y581676D01*
X1154239Y582235D01*
D02*
G37*
G36*
X1128839D02*
X1126681D01*
X1124597Y581676D01*
X1122728Y580598D01*
X1121202Y579072D01*
X1120124Y577203D01*
X1119565Y575119D01*
Y572961D01*
X1120124Y570877D01*
X1121202Y569008D01*
X1122728Y567482D01*
X1124597Y566404D01*
X1126681Y565845D01*
X1128839D01*
X1130923Y566404D01*
X1132792Y567482D01*
X1134318Y569008D01*
X1135396Y570877D01*
X1135955Y572961D01*
Y575119D01*
X1135396Y577203D01*
X1134318Y579072D01*
X1132792Y580598D01*
X1130923Y581676D01*
X1128839Y582235D01*
D02*
G37*
G36*
X1005614Y570400D02*
X1003526D01*
X1001596Y569601D01*
X1000119Y568124D01*
X999320Y566194D01*
Y564106D01*
X1000119Y562176D01*
X1001596Y560699D01*
X1003526Y559900D01*
X1005614D01*
X1007544Y560699D01*
X1009021Y562176D01*
X1009820Y564106D01*
Y566194D01*
X1009021Y568124D01*
X1007544Y569601D01*
X1005614Y570400D01*
D02*
G37*
G36*
X754154D02*
X752066D01*
X750136Y569601D01*
X748659Y568124D01*
X747860Y566194D01*
Y564106D01*
X748659Y562176D01*
X750136Y560699D01*
X752066Y559900D01*
X754154D01*
X756084Y560699D01*
X757561Y562176D01*
X758360Y564106D01*
Y566194D01*
X757561Y568124D01*
X756084Y569601D01*
X754154Y570400D01*
D02*
G37*
G36*
X1249454Y553890D02*
X1247366D01*
X1245436Y553091D01*
X1244041Y551696D01*
X1243330Y551652D01*
X1242619Y551696D01*
X1241224Y553091D01*
X1239294Y553890D01*
X1237206D01*
X1235276Y553091D01*
X1233881Y551696D01*
X1233170Y551652D01*
X1232459Y551696D01*
X1231064Y553091D01*
X1229134Y553890D01*
X1227046D01*
X1225116Y553091D01*
X1223721Y551696D01*
X1223010Y551652D01*
X1222299Y551696D01*
X1220904Y553091D01*
X1218974Y553890D01*
X1216886D01*
X1214956Y553091D01*
X1213479Y551614D01*
X1212680Y549684D01*
Y547596D01*
X1213479Y545666D01*
X1214956Y544189D01*
X1216886Y543390D01*
X1218974D01*
X1220904Y544189D01*
X1222299Y545584D01*
X1223010Y545628D01*
X1223721Y545584D01*
X1225110Y544195D01*
X1223639Y542724D01*
X1222840Y540794D01*
Y538706D01*
X1223639Y536776D01*
X1225116Y535299D01*
X1227046Y534500D01*
X1229134D01*
X1231064Y535299D01*
X1232459Y536694D01*
X1233170Y536738D01*
X1233881Y536694D01*
X1235276Y535299D01*
X1237206Y534500D01*
X1239294D01*
X1241224Y535299D01*
X1242619Y536694D01*
X1243330Y536738D01*
X1244041Y536694D01*
X1245436Y535299D01*
X1247366Y534500D01*
X1249454D01*
X1251384Y535299D01*
X1252861Y536776D01*
X1253660Y538706D01*
Y540794D01*
X1252861Y542724D01*
X1251390Y544195D01*
X1252861Y545666D01*
X1253660Y547596D01*
Y549684D01*
X1252861Y551614D01*
X1251384Y553091D01*
X1249454Y553890D01*
D02*
G37*
G36*
X436539Y574050D02*
X433181D01*
X429939Y573181D01*
X427031Y571502D01*
X424657Y569129D01*
X422979Y566221D01*
X422110Y562979D01*
Y559621D01*
X422979Y556379D01*
X424657Y553471D01*
X427031Y551097D01*
X429939Y549419D01*
X433181Y548550D01*
X436539D01*
X439781Y549419D01*
X442689Y551097D01*
X445062Y553471D01*
X446741Y556379D01*
X447610Y559621D01*
Y562979D01*
X446741Y566221D01*
X445062Y569129D01*
X442689Y571502D01*
X439781Y573181D01*
X436539Y574050D01*
D02*
G37*
G36*
X167299D02*
X163941D01*
X160699Y573181D01*
X157791Y571502D01*
X155417Y569129D01*
X153739Y566221D01*
X152870Y562979D01*
Y559621D01*
X153739Y556379D01*
X155417Y553471D01*
X157791Y551097D01*
X160699Y549419D01*
X163941Y548550D01*
X167299D01*
X170541Y549419D01*
X173449Y551097D01*
X175823Y553471D01*
X177501Y556379D01*
X178370Y559621D01*
Y562979D01*
X177501Y566221D01*
X175823Y569129D01*
X173449Y571502D01*
X170541Y573181D01*
X167299Y574050D01*
D02*
G37*
G36*
X1005614Y557700D02*
X1003526D01*
X1001596Y556901D01*
X1000119Y555424D01*
X999320Y553494D01*
Y551406D01*
X1000119Y549476D01*
X1001596Y547999D01*
X1003526Y547200D01*
X1005614D01*
X1007544Y547999D01*
X1009021Y549476D01*
X1009820Y551406D01*
Y553494D01*
X1009021Y555424D01*
X1007544Y556901D01*
X1005614Y557700D01*
D02*
G37*
G36*
X1418250Y549163D02*
X1416006Y548716D01*
X1414104Y547445D01*
X1412834Y545544D01*
X1412387Y543300D01*
Y542878D01*
X1411117Y542199D01*
X1410396Y542681D01*
X1408250Y543108D01*
X1406104Y542681D01*
X1404285Y541465D01*
X1403069Y539646D01*
X1402642Y537500D01*
Y534500D01*
X1403069Y532354D01*
X1404285Y530535D01*
X1406104Y529319D01*
X1408250Y528892D01*
X1410396Y529319D01*
X1412215Y530535D01*
X1413126Y531897D01*
X1413213Y531965D01*
X1414461Y532272D01*
X1414706Y532253D01*
X1416006Y531384D01*
X1418250Y530937D01*
X1420493Y531384D01*
X1422395Y532654D01*
X1423666Y534557D01*
X1424113Y536800D01*
Y537437D01*
X1424250D01*
X1426494Y537884D01*
X1428396Y539155D01*
X1429666Y541056D01*
X1430113Y543300D01*
X1429666Y545544D01*
X1428396Y547445D01*
X1426494Y548716D01*
X1424250Y549163D01*
X1419250D01*
X1418750Y549063D01*
X1418250Y549163D01*
D02*
G37*
G36*
X1130074Y545000D02*
X1127986D01*
X1126056Y544201D01*
X1124579Y542724D01*
X1124002Y541331D01*
X1122628D01*
X1122051Y542724D01*
X1120574Y544201D01*
X1118644Y545000D01*
X1116556D01*
X1114626Y544201D01*
X1113149Y542724D01*
X1112572Y541331D01*
X1111198D01*
X1110621Y542724D01*
X1109144Y544201D01*
X1107214Y545000D01*
X1105126D01*
X1103196Y544201D01*
X1101719Y542724D01*
X1100920Y540794D01*
Y538706D01*
X1101719Y536776D01*
X1103196Y535299D01*
X1105126Y534500D01*
X1107214D01*
X1109144Y535299D01*
X1110621Y536776D01*
X1111198Y538169D01*
X1112572D01*
X1113149Y536776D01*
X1114626Y535299D01*
X1116556Y534500D01*
X1118644D01*
X1120574Y535299D01*
X1122051Y536776D01*
X1122628Y538169D01*
X1124002D01*
X1124579Y536776D01*
X1126056Y535299D01*
X1127986Y534500D01*
X1130074D01*
X1132004Y535299D01*
X1133481Y536776D01*
X1134280Y538706D01*
Y540794D01*
X1133481Y542724D01*
X1132004Y544201D01*
X1130074Y545000D01*
D02*
G37*
G36*
X1482750Y549163D02*
X1477750D01*
X1475506Y548716D01*
X1473604Y547445D01*
X1472334Y545544D01*
X1471887Y543300D01*
X1472334Y541057D01*
X1473604Y539155D01*
X1475506Y537884D01*
X1477750Y537437D01*
X1482750D01*
X1484993Y537884D01*
X1486895Y539155D01*
X1488166Y541057D01*
X1488613Y543300D01*
X1488166Y545544D01*
X1486895Y547445D01*
X1484993Y548716D01*
X1482750Y549163D01*
D02*
G37*
G36*
X1005614Y545000D02*
X1003526D01*
X1001596Y544201D01*
X1000119Y542724D01*
X999320Y540794D01*
Y538706D01*
X1000119Y536776D01*
X1001596Y535299D01*
X1003526Y534500D01*
X1005614D01*
X1007544Y535299D01*
X1009021Y536776D01*
X1009820Y538706D01*
Y540794D01*
X1009021Y542724D01*
X1007544Y544201D01*
X1005614Y545000D01*
D02*
G37*
G36*
X808764Y537380D02*
X806676D01*
X804746Y536581D01*
X803269Y535104D01*
X802470Y533174D01*
Y531086D01*
X803269Y529156D01*
X804746Y527679D01*
X806676Y526880D01*
X808764D01*
X810694Y527679D01*
X812171Y529156D01*
X812970Y531086D01*
Y533174D01*
X812171Y535104D01*
X810694Y536581D01*
X808764Y537380D01*
D02*
G37*
G36*
X782094Y533570D02*
X780006D01*
X778076Y532771D01*
X776599Y531294D01*
X775800Y529364D01*
Y527276D01*
X776599Y525346D01*
X778076Y523869D01*
X780006Y523070D01*
X782094D01*
X784024Y523869D01*
X785501Y525346D01*
X786300Y527276D01*
Y529364D01*
X785501Y531294D01*
X784024Y532771D01*
X782094Y533570D01*
D02*
G37*
G36*
X743994D02*
X741906D01*
X739976Y532771D01*
X738499Y531294D01*
X737700Y529364D01*
Y527276D01*
X738499Y525346D01*
X739976Y523869D01*
X741906Y523070D01*
X743994D01*
X745924Y523869D01*
X747401Y525346D01*
X748200Y527276D01*
Y529364D01*
X747401Y531294D01*
X745924Y532771D01*
X743994Y533570D01*
D02*
G37*
G36*
X1131344Y528490D02*
X1129256D01*
X1127326Y527691D01*
X1125849Y526214D01*
X1125050Y524284D01*
Y522196D01*
X1125849Y520266D01*
X1127326Y518789D01*
X1129256Y517990D01*
X1131344D01*
X1133274Y518789D01*
X1134751Y520266D01*
X1135550Y522196D01*
Y524284D01*
X1134751Y526214D01*
X1133274Y527691D01*
X1131344Y528490D01*
D02*
G37*
G36*
X1118644D02*
X1116556D01*
X1114626Y527691D01*
X1113149Y526214D01*
X1112350Y524284D01*
Y522196D01*
X1113149Y520266D01*
X1114626Y518789D01*
X1116556Y517990D01*
X1118644D01*
X1120574Y518789D01*
X1122051Y520266D01*
X1122850Y522196D01*
Y524284D01*
X1122051Y526214D01*
X1120574Y527691D01*
X1118644Y528490D01*
D02*
G37*
G36*
X1377470Y519346D02*
X1375382D01*
X1373452Y518547D01*
X1372417Y517511D01*
X1371600Y517209D01*
X1370783Y517511D01*
X1369748Y518547D01*
X1367818Y519346D01*
X1365730D01*
X1363800Y518547D01*
X1362585Y517332D01*
X1361821Y517174D01*
X1361057Y517332D01*
X1359842Y518547D01*
X1357912Y519346D01*
X1355824D01*
X1353894Y518547D01*
X1352417Y517070D01*
X1351618Y515140D01*
Y513052D01*
X1352417Y511122D01*
X1353894Y509645D01*
X1355824Y508846D01*
X1357912D01*
X1359842Y509645D01*
X1361057Y510860D01*
X1361821Y511018D01*
X1362585Y510860D01*
X1363800Y509645D01*
X1365730Y508846D01*
X1367818D01*
X1369748Y509645D01*
X1370783Y510681D01*
X1371600Y510983D01*
X1372417Y510681D01*
X1373452Y509645D01*
X1375382Y508846D01*
X1377470D01*
X1379400Y509645D01*
X1380877Y511122D01*
X1381676Y513052D01*
Y515140D01*
X1380877Y517070D01*
X1379400Y518547D01*
X1377470Y519346D01*
D02*
G37*
G36*
X1422595Y528250D02*
X1420905D01*
X1419343Y527603D01*
X1418147Y526407D01*
X1417500Y524845D01*
Y523155D01*
X1418147Y521593D01*
X1418932Y520808D01*
X1419207Y520000D01*
X1418932Y519192D01*
X1418147Y518407D01*
X1417500Y516845D01*
Y516836D01*
X1416230Y515987D01*
X1415595Y516250D01*
X1413905D01*
X1412343Y515603D01*
X1411147Y514407D01*
X1410500Y512845D01*
Y511155D01*
X1411147Y509593D01*
X1412343Y508397D01*
X1412948Y508146D01*
Y506772D01*
X1412909Y506755D01*
X1411995Y505841D01*
X1411500Y504646D01*
Y503354D01*
X1411995Y502159D01*
X1412909Y501245D01*
X1414104Y500750D01*
X1415397D01*
X1416591Y501245D01*
X1417505Y502159D01*
X1418000Y503354D01*
Y503943D01*
X1419270Y504470D01*
X1419343Y504397D01*
X1420905Y503750D01*
X1422595D01*
X1424158Y504397D01*
X1425353Y505593D01*
X1426000Y507155D01*
Y508845D01*
X1425353Y510407D01*
X1424568Y511192D01*
X1424293Y512000D01*
X1424568Y512808D01*
X1425353Y513592D01*
X1426000Y515155D01*
Y516845D01*
X1425353Y518407D01*
X1424568Y519192D01*
X1424293Y520000D01*
X1424568Y520808D01*
X1425353Y521593D01*
X1426000Y523155D01*
Y524845D01*
X1425353Y526407D01*
X1424158Y527603D01*
X1422595Y528250D01*
D02*
G37*
G36*
X1131344Y514520D02*
X1129256D01*
X1127326Y513721D01*
X1125849Y512244D01*
X1125272Y510851D01*
X1123898D01*
X1123321Y512244D01*
X1121844Y513721D01*
X1119914Y514520D01*
X1117826D01*
X1115896Y513721D01*
X1114419Y512244D01*
X1113842Y510851D01*
X1112468D01*
X1111891Y512244D01*
X1110414Y513721D01*
X1108484Y514520D01*
X1106396D01*
X1104466Y513721D01*
X1102989Y512244D01*
X1102190Y510314D01*
Y508226D01*
X1102989Y506296D01*
X1104466Y504819D01*
X1106396Y504020D01*
X1108484D01*
X1110414Y504819D01*
X1111891Y506296D01*
X1112468Y507689D01*
X1113842D01*
X1114419Y506296D01*
X1115896Y504819D01*
X1117826Y504020D01*
X1119914D01*
X1121844Y504819D01*
X1123321Y506296D01*
X1123898Y507689D01*
X1125272D01*
X1125849Y506296D01*
X1127326Y504819D01*
X1129256Y504020D01*
X1131344D01*
X1133274Y504819D01*
X1134751Y506296D01*
X1135550Y508226D01*
Y510314D01*
X1134751Y512244D01*
X1133274Y513721D01*
X1131344Y514520D01*
D02*
G37*
G36*
X684993Y513250D02*
X682507D01*
X680210Y512299D01*
X678452Y510540D01*
X678135Y509776D01*
X676865D01*
X676548Y510540D01*
X674790Y512299D01*
X672493Y513250D01*
X670007D01*
X667710Y512299D01*
X665952Y510540D01*
X665635Y509776D01*
X664365D01*
X664048Y510540D01*
X662290Y512299D01*
X659993Y513250D01*
X657507D01*
X655210Y512299D01*
X653452Y510540D01*
X653135Y509776D01*
X651865D01*
X651548Y510540D01*
X649790Y512299D01*
X647493Y513250D01*
X645007D01*
X642710Y512299D01*
X640952Y510540D01*
X640635Y509776D01*
X639365D01*
X639049Y510540D01*
X637290Y512299D01*
X634993Y513250D01*
X632507D01*
X630210Y512299D01*
X628451Y510540D01*
X628135Y509776D01*
X626865D01*
X626549Y510540D01*
X624790Y512299D01*
X622493Y513250D01*
X620007D01*
X617710Y512299D01*
X615951Y510540D01*
X615000Y508243D01*
Y505757D01*
X615951Y503460D01*
X617710Y501702D01*
X620007Y500750D01*
X622493D01*
X624790Y501702D01*
X626549Y503460D01*
X626865Y504224D01*
X628135D01*
X628451Y503460D01*
X630210Y501702D01*
X632507Y500750D01*
X634993D01*
X637290Y501702D01*
X639049Y503460D01*
X639365Y504224D01*
X640635D01*
X640952Y503460D01*
X642710Y501702D01*
X645007Y500750D01*
X647493D01*
X649790Y501702D01*
X651548Y503460D01*
X651865Y504224D01*
X653135D01*
X653452Y503460D01*
X655210Y501702D01*
X657507Y500750D01*
X659993D01*
X662290Y501702D01*
X664048Y503460D01*
X664365Y504224D01*
X665635D01*
X665952Y503460D01*
X667710Y501702D01*
X670007Y500750D01*
X672493D01*
X674790Y501702D01*
X676548Y503460D01*
X676865Y504224D01*
X678135D01*
X678452Y503460D01*
X680210Y501702D01*
X682507Y500750D01*
X684993D01*
X687290Y501702D01*
X689048Y503460D01*
X690000Y505757D01*
Y508243D01*
X689048Y510540D01*
X687290Y512299D01*
X684993Y513250D01*
D02*
G37*
G36*
X1019584Y511980D02*
X1017496D01*
X1015566Y511181D01*
X1014171Y509786D01*
X1013460Y509742D01*
X1012749Y509786D01*
X1011354Y511181D01*
X1009424Y511980D01*
X1007336D01*
X1005406Y511181D01*
X1003929Y509704D01*
X1003130Y507774D01*
Y505686D01*
X1003929Y503756D01*
X1005400Y502285D01*
X1003929Y500814D01*
X1003130Y498884D01*
Y496796D01*
X1003929Y494866D01*
X1005400Y493395D01*
X1003929Y491924D01*
X1003130Y489994D01*
Y487906D01*
X1003929Y485976D01*
X1005324Y484581D01*
X1005368Y483870D01*
X1005324Y483159D01*
X1003929Y481764D01*
X1003130Y479834D01*
Y477746D01*
X1003929Y475816D01*
X1005406Y474339D01*
X1007336Y473540D01*
X1009424D01*
X1011354Y474339D01*
X1012749Y475734D01*
X1013460Y475778D01*
X1014171Y475734D01*
X1015566Y474339D01*
X1017496Y473540D01*
X1019584D01*
X1021514Y474339D01*
X1022991Y475816D01*
X1023790Y477746D01*
Y479834D01*
X1022991Y481764D01*
X1021596Y483159D01*
X1021552Y483870D01*
X1021596Y484581D01*
X1022991Y485976D01*
X1023790Y487906D01*
Y489994D01*
X1022991Y491924D01*
X1021520Y493395D01*
X1022991Y494866D01*
X1023790Y496796D01*
Y498884D01*
X1022991Y500814D01*
X1021520Y502285D01*
X1022991Y503756D01*
X1023790Y505686D01*
Y507774D01*
X1022991Y509704D01*
X1021514Y511181D01*
X1019584Y511980D01*
D02*
G37*
G36*
X602500Y513250D02*
X590000D01*
Y500750D01*
X602500D01*
Y513250D01*
D02*
G37*
G36*
X1387487Y496010D02*
X1386194D01*
X1384999Y495515D01*
X1384085Y494601D01*
X1383590Y493406D01*
Y492113D01*
X1384085Y490919D01*
X1384999Y490005D01*
X1386194Y489510D01*
X1387487D01*
X1388681Y490005D01*
X1389595Y490919D01*
X1390090Y492113D01*
Y493406D01*
X1389595Y494601D01*
X1388681Y495515D01*
X1387487Y496010D01*
D02*
G37*
G36*
X788444Y498010D02*
X786356D01*
X784426Y497211D01*
X782949Y495734D01*
X782150Y493804D01*
Y491716D01*
X782949Y489786D01*
X784426Y488309D01*
X786356Y487510D01*
X788444D01*
X790374Y488309D01*
X791851Y489786D01*
X792650Y491716D01*
Y493804D01*
X791851Y495734D01*
X790374Y497211D01*
X788444Y498010D01*
D02*
G37*
G36*
X910204Y497376D02*
X908115D01*
X906186Y496577D01*
X904709Y495100D01*
X903909Y493170D01*
Y491082D01*
X904709Y489152D01*
X906186Y487675D01*
X908115Y486876D01*
X910204D01*
X912133Y487675D01*
X913610Y489152D01*
X914409Y491082D01*
Y493170D01*
X913610Y495100D01*
X912133Y496577D01*
X910204Y497376D01*
D02*
G37*
G36*
X482374Y487850D02*
X480286D01*
X478356Y487051D01*
X476879Y485574D01*
X476080Y483644D01*
Y481556D01*
X476879Y479626D01*
X478356Y478149D01*
X480286Y477350D01*
X482374D01*
X484304Y478149D01*
X485781Y479626D01*
X486580Y481556D01*
Y483644D01*
X485781Y485574D01*
X484304Y487051D01*
X482374Y487850D01*
D02*
G37*
G36*
X1080544Y486580D02*
X1078456D01*
X1076526Y485781D01*
X1075049Y484304D01*
X1074250Y482374D01*
Y480286D01*
X1075049Y478356D01*
X1076526Y476879D01*
X1078456Y476080D01*
X1080544D01*
X1082474Y476879D01*
X1083951Y478356D01*
X1084750Y480286D01*
Y482374D01*
X1083951Y484304D01*
X1082474Y485781D01*
X1080544Y486580D01*
D02*
G37*
G36*
X759234Y482770D02*
X757146D01*
X755216Y481971D01*
X753739Y480494D01*
X752940Y478564D01*
Y476476D01*
X753739Y474546D01*
X755216Y473069D01*
X757146Y472270D01*
X759234D01*
X761164Y473069D01*
X762641Y474546D01*
X763440Y476476D01*
Y478564D01*
X762641Y480494D01*
X761164Y481971D01*
X759234Y482770D01*
D02*
G37*
G36*
X1415397Y499250D02*
X1414104D01*
X1412909Y498755D01*
X1411995Y497841D01*
X1411500Y496646D01*
Y495354D01*
X1411995Y494159D01*
X1412909Y493245D01*
X1412948Y493228D01*
Y491854D01*
X1412343Y491603D01*
X1411147Y490407D01*
X1410500Y488845D01*
Y487155D01*
X1411147Y485593D01*
X1412343Y484397D01*
X1413905Y483750D01*
X1415595D01*
X1416230Y484013D01*
X1417500Y483164D01*
Y483155D01*
X1418147Y481593D01*
X1418932Y480808D01*
X1419207Y480000D01*
X1418932Y479192D01*
X1418147Y478407D01*
X1417500Y476845D01*
Y475155D01*
X1418147Y473593D01*
X1419343Y472397D01*
X1420905Y471750D01*
X1422595D01*
X1424158Y472397D01*
X1425353Y473593D01*
X1426000Y475155D01*
Y476845D01*
X1425353Y478407D01*
X1424568Y479192D01*
X1424293Y480000D01*
X1424568Y480808D01*
X1425353Y481593D01*
X1426000Y483155D01*
Y484845D01*
X1425353Y486407D01*
X1424568Y487192D01*
X1424293Y488000D01*
X1424568Y488808D01*
X1425353Y489593D01*
X1426000Y491155D01*
Y492845D01*
X1425353Y494407D01*
X1424158Y495603D01*
X1422595Y496250D01*
X1420905D01*
X1419343Y495603D01*
X1419270Y495530D01*
X1418000Y496057D01*
Y496646D01*
X1417505Y497841D01*
X1416591Y498755D01*
X1415397Y499250D01*
D02*
G37*
G36*
X1237257Y486730D02*
X1234163D01*
X1231175Y485929D01*
X1228495Y484382D01*
X1226308Y482195D01*
X1224761Y479515D01*
X1223960Y476527D01*
Y473433D01*
X1224761Y470445D01*
X1226308Y467765D01*
X1228495Y465578D01*
X1231175Y464031D01*
X1234163Y463230D01*
X1237257D01*
X1240245Y464031D01*
X1242925Y465578D01*
X1245112Y467765D01*
X1246659Y470445D01*
X1247460Y473433D01*
Y476527D01*
X1246659Y479515D01*
X1245112Y482195D01*
X1242925Y484382D01*
X1240245Y485929D01*
X1237257Y486730D01*
D02*
G37*
G36*
X877344Y471340D02*
X875256D01*
X873326Y470541D01*
X871849Y469064D01*
X871050Y467134D01*
Y465046D01*
X871849Y463116D01*
X873326Y461639D01*
X875256Y460840D01*
X877344D01*
X879274Y461639D01*
X880751Y463116D01*
X881550Y465046D01*
Y467134D01*
X880751Y469064D01*
X879274Y470541D01*
X877344Y471340D01*
D02*
G37*
G36*
X890044Y467530D02*
X887956D01*
X886026Y466731D01*
X884549Y465254D01*
X883750Y463324D01*
Y461236D01*
X884549Y459306D01*
X886026Y457829D01*
X887956Y457030D01*
X890044D01*
X891974Y457829D01*
X893451Y459306D01*
X894250Y461236D01*
Y463324D01*
X893451Y465254D01*
X891974Y466731D01*
X890044Y467530D01*
D02*
G37*
G36*
X1482750Y462563D02*
X1477750D01*
X1475506Y462116D01*
X1473604Y460845D01*
X1472334Y458943D01*
X1471887Y456700D01*
X1472334Y454456D01*
X1473604Y452555D01*
X1475506Y451284D01*
X1477750Y450837D01*
X1482750D01*
X1484993Y451284D01*
X1486895Y452555D01*
X1488166Y454456D01*
X1488613Y456700D01*
X1488166Y458943D01*
X1486895Y460845D01*
X1484993Y462116D01*
X1482750Y462563D01*
D02*
G37*
G36*
X1409344Y469500D02*
X1407156D01*
X1405134Y468663D01*
X1403587Y467116D01*
X1402750Y465094D01*
Y462906D01*
X1403587Y460885D01*
X1405134Y459337D01*
X1407156Y458500D01*
X1409344D01*
X1411117Y459235D01*
X1412387Y458700D01*
Y456700D01*
X1412834Y454456D01*
X1414104Y452555D01*
X1416006Y451284D01*
X1418250Y450837D01*
X1418750Y450937D01*
X1419250Y450837D01*
X1424250D01*
X1426494Y451284D01*
X1428396Y452555D01*
X1429666Y454456D01*
X1430113Y456700D01*
X1429666Y458943D01*
X1428396Y460845D01*
X1426494Y462116D01*
X1424250Y462563D01*
X1424113D01*
Y463200D01*
X1423666Y465443D01*
X1422395Y467346D01*
X1420493Y468616D01*
X1418250Y469063D01*
X1416006Y468616D01*
X1414173Y467391D01*
X1414027Y467333D01*
X1412619Y467409D01*
X1411366Y468663D01*
X1409344Y469500D01*
D02*
G37*
G36*
X507575Y453830D02*
X505885D01*
X504323Y453183D01*
X503127Y451987D01*
X502480Y450425D01*
Y448735D01*
X503127Y447173D01*
X504323Y445977D01*
X505885Y445330D01*
X507575D01*
X509137Y445977D01*
X510333Y447173D01*
X510980Y448735D01*
Y450425D01*
X510333Y451987D01*
X509137Y453183D01*
X507575Y453830D01*
D02*
G37*
G36*
X51349Y460250D02*
X48651D01*
X46044Y459552D01*
X43706Y458202D01*
X41798Y456294D01*
X40448Y453956D01*
X39750Y451349D01*
Y448651D01*
X40448Y446044D01*
X41798Y443706D01*
X43706Y441798D01*
X46044Y440448D01*
X48651Y439750D01*
X51349D01*
X53956Y440448D01*
X56294Y441798D01*
X58202Y443706D01*
X59552Y446044D01*
X60250Y448651D01*
Y451349D01*
X59552Y453956D01*
X58202Y456294D01*
X56294Y458202D01*
X53956Y459552D01*
X51349Y460250D01*
D02*
G37*
G36*
X704624Y439590D02*
X702536D01*
X700606Y438791D01*
X699129Y437314D01*
X698552Y435921D01*
X697178D01*
X696601Y437314D01*
X695124Y438791D01*
X693194Y439590D01*
X691106D01*
X689176Y438791D01*
X687699Y437314D01*
X687122Y435921D01*
X685748D01*
X685171Y437314D01*
X683694Y438791D01*
X681764Y439590D01*
X679676D01*
X677746Y438791D01*
X676269Y437314D01*
X675470Y435384D01*
Y433296D01*
X676269Y431366D01*
X677664Y429971D01*
X677708Y429260D01*
X677664Y428549D01*
X676269Y427154D01*
X675470Y425224D01*
Y423136D01*
X676269Y421206D01*
X677746Y419729D01*
X679676Y418930D01*
X681764D01*
X683694Y419729D01*
X685171Y421206D01*
X685748Y422599D01*
X687122D01*
X687699Y421206D01*
X689176Y419729D01*
X691106Y418930D01*
X693194D01*
X695124Y419729D01*
X696601Y421206D01*
X697178Y422599D01*
X698552D01*
X699129Y421206D01*
X700606Y419729D01*
X702536Y418930D01*
X704624D01*
X706554Y419729D01*
X708031Y421206D01*
X708830Y423136D01*
Y425224D01*
X708031Y427154D01*
X706636Y428549D01*
X706592Y429260D01*
X706636Y429971D01*
X708031Y431366D01*
X708830Y433296D01*
Y435384D01*
X708031Y437314D01*
X706554Y438791D01*
X704624Y439590D01*
D02*
G37*
G36*
X507575Y443670D02*
X505885D01*
X504323Y443023D01*
X503127Y441827D01*
X502480Y440265D01*
Y438575D01*
X503127Y437013D01*
X504323Y435817D01*
X505885Y435170D01*
X507575D01*
X509137Y435817D01*
X510333Y437013D01*
X510980Y438575D01*
Y440265D01*
X510333Y441827D01*
X509137Y443023D01*
X507575Y443670D01*
D02*
G37*
G36*
X845594Y437050D02*
X843506D01*
X841576Y436251D01*
X840099Y434774D01*
X839522Y433381D01*
X838148D01*
X837571Y434774D01*
X836094Y436251D01*
X834164Y437050D01*
X832076D01*
X830146Y436251D01*
X828669Y434774D01*
X827870Y432844D01*
Y430756D01*
X828669Y428826D01*
X830146Y427349D01*
X832076Y426550D01*
X834164D01*
X836094Y427349D01*
X837571Y428826D01*
X838148Y430219D01*
X839522D01*
X840099Y428826D01*
X841576Y427349D01*
X843506Y426550D01*
X845594D01*
X847524Y427349D01*
X849001Y428826D01*
X849800Y430756D01*
Y432844D01*
X849001Y434774D01*
X847524Y436251D01*
X845594Y437050D01*
D02*
G37*
G36*
X544604Y431970D02*
X542516D01*
X540586Y431171D01*
X539109Y429694D01*
X538310Y427764D01*
Y425676D01*
X539109Y423746D01*
X540586Y422269D01*
X542516Y421470D01*
X544604D01*
X546534Y422269D01*
X548011Y423746D01*
X548810Y425676D01*
Y427764D01*
X548011Y429694D01*
X546534Y431171D01*
X544604Y431970D01*
D02*
G37*
G36*
X845594Y424350D02*
X843506D01*
X841576Y423551D01*
X840099Y422074D01*
X839522Y420681D01*
X838148D01*
X837571Y422074D01*
X836094Y423551D01*
X834164Y424350D01*
X832076D01*
X830146Y423551D01*
X828669Y422074D01*
X827870Y420144D01*
Y418056D01*
X828669Y416126D01*
X830146Y414649D01*
X831539Y414072D01*
Y412698D01*
X830146Y412121D01*
X828669Y410644D01*
X827870Y408714D01*
Y406626D01*
X828669Y404696D01*
X830146Y403219D01*
X832076Y402420D01*
X834164D01*
X836094Y403219D01*
X837571Y404696D01*
X838148Y406089D01*
X839522D01*
X840099Y404696D01*
X841576Y403219D01*
X843506Y402420D01*
X845594D01*
X847524Y403219D01*
X849001Y404696D01*
X849800Y406626D01*
Y408714D01*
X849001Y410644D01*
X847524Y412121D01*
X846131Y412698D01*
Y414072D01*
X847524Y414649D01*
X849001Y416126D01*
X849800Y418056D01*
Y420144D01*
X849001Y422074D01*
X847524Y423551D01*
X845594Y424350D01*
D02*
G37*
G36*
X1015007Y439740D02*
X1011913D01*
X1008925Y438939D01*
X1006245Y437392D01*
X1004058Y435205D01*
X1002511Y432525D01*
X1001710Y429537D01*
Y426443D01*
X1002511Y423455D01*
X1004058Y420775D01*
X1006245Y418588D01*
X1008925Y417041D01*
X1011913Y416240D01*
X1015007D01*
X1017995Y417041D01*
X1020675Y418588D01*
X1022862Y420775D01*
X1024409Y423455D01*
X1025210Y426443D01*
Y429537D01*
X1024409Y432525D01*
X1022862Y435205D01*
X1020675Y437392D01*
X1017995Y438939D01*
X1015007Y439740D01*
D02*
G37*
G36*
X376185Y434000D02*
X373815D01*
X371526Y433387D01*
X369474Y432202D01*
X367798Y430526D01*
X366613Y428474D01*
X366000Y426185D01*
Y423815D01*
X366613Y421526D01*
X367798Y419474D01*
X369474Y417798D01*
X371526Y416613D01*
X373815Y416000D01*
X376185D01*
X378474Y416613D01*
X380526Y417798D01*
X382202Y419474D01*
X383387Y421526D01*
X384000Y423815D01*
Y426185D01*
X383387Y428474D01*
X382202Y430526D01*
X380526Y432202D01*
X378474Y433387D01*
X376185Y434000D01*
D02*
G37*
G36*
X51349Y434850D02*
X48651D01*
X46044Y434151D01*
X43706Y432802D01*
X41798Y430894D01*
X40448Y428556D01*
X39750Y425949D01*
Y423251D01*
X40448Y420644D01*
X41798Y418306D01*
X43706Y416398D01*
X46044Y415048D01*
X48651Y414350D01*
X51349D01*
X53956Y415048D01*
X56294Y416398D01*
X58202Y418306D01*
X59552Y420644D01*
X60250Y423251D01*
Y425949D01*
X59552Y428556D01*
X58202Y430894D01*
X56294Y432802D01*
X53956Y434151D01*
X51349Y434850D01*
D02*
G37*
G36*
X821464Y424350D02*
X819376D01*
X817446Y423551D01*
X815969Y422074D01*
X815170Y420144D01*
Y418056D01*
X815969Y416126D01*
X817446Y414649D01*
X818839Y414072D01*
Y412698D01*
X817446Y412121D01*
X815969Y410644D01*
X815170Y408714D01*
Y406626D01*
X815969Y404696D01*
X817446Y403219D01*
X819376Y402420D01*
X821464D01*
X823394Y403219D01*
X824871Y404696D01*
X825670Y406626D01*
Y408714D01*
X824871Y410644D01*
X823394Y412121D01*
X822001Y412698D01*
Y414072D01*
X823394Y414649D01*
X824871Y416126D01*
X825670Y418056D01*
Y420144D01*
X824871Y422074D01*
X823394Y423551D01*
X821464Y424350D01*
D02*
G37*
G36*
X376185Y409000D02*
X373815D01*
X371526Y408387D01*
X369474Y407202D01*
X367798Y405526D01*
X366613Y403474D01*
X366000Y401185D01*
Y398815D01*
X366613Y396526D01*
X367798Y394474D01*
X369474Y392798D01*
X371526Y391613D01*
X373815Y391000D01*
X376185D01*
X378474Y391613D01*
X380526Y392798D01*
X382202Y394474D01*
X383387Y396526D01*
X384000Y398815D01*
Y401185D01*
X383387Y403474D01*
X382202Y405526D01*
X380526Y407202D01*
X378474Y408387D01*
X376185Y409000D01*
D02*
G37*
G36*
X231185D02*
X228815D01*
X226526Y408387D01*
X224474Y407202D01*
X222798Y405526D01*
X221613Y403474D01*
X221000Y401185D01*
Y398815D01*
X221613Y396526D01*
X222798Y394474D01*
X224474Y392798D01*
X226526Y391613D01*
X228815Y391000D01*
X231185D01*
X233474Y391613D01*
X235526Y392798D01*
X237202Y394474D01*
X238387Y396526D01*
X239000Y398815D01*
Y401185D01*
X238387Y403474D01*
X237202Y405526D01*
X235526Y407202D01*
X233474Y408387D01*
X231185Y409000D01*
D02*
G37*
G36*
X60250Y409450D02*
X39750D01*
Y388950D01*
X60250D01*
Y409450D01*
D02*
G37*
G36*
X189004Y377360D02*
X186916D01*
X184986Y376561D01*
X183509Y375084D01*
X182710Y373154D01*
Y371066D01*
X183509Y369136D01*
X184986Y367659D01*
X186916Y366860D01*
X189004D01*
X190934Y367659D01*
X192411Y369136D01*
X193210Y371066D01*
Y373154D01*
X192411Y375084D01*
X190934Y376561D01*
X189004Y377360D01*
D02*
G37*
G36*
X1051349Y370250D02*
X1048651D01*
X1046044Y369552D01*
X1043706Y368202D01*
X1041798Y366294D01*
X1040449Y363956D01*
X1039750Y361349D01*
Y358651D01*
X1040449Y356044D01*
X1041798Y353706D01*
X1043706Y351798D01*
X1046044Y350448D01*
X1048651Y349750D01*
X1051349D01*
X1053956Y350448D01*
X1056294Y351798D01*
X1058202Y353706D01*
X1059551Y356044D01*
X1060250Y358651D01*
Y361349D01*
X1059551Y363956D01*
X1058202Y366294D01*
X1056294Y368202D01*
X1053956Y369552D01*
X1051349Y370250D01*
D02*
G37*
G36*
X1410545Y356040D02*
X1408855D01*
X1407293Y355393D01*
X1406097Y354197D01*
X1405450Y352635D01*
Y350945D01*
X1406097Y349383D01*
X1407293Y348187D01*
X1408855Y347540D01*
X1410545D01*
X1412107Y348187D01*
X1413303Y349383D01*
X1413950Y350945D01*
Y352635D01*
X1413303Y354197D01*
X1412107Y355393D01*
X1410545Y356040D01*
D02*
G37*
G36*
X951613Y347250D02*
X948387D01*
X945272Y346415D01*
X942478Y344803D01*
X940198Y342522D01*
X938585Y339728D01*
X937750Y336613D01*
Y333387D01*
X938585Y330272D01*
X940198Y327478D01*
X942478Y325197D01*
X945272Y323585D01*
X948387Y322750D01*
X951613D01*
X954728Y323585D01*
X957522Y325197D01*
X959802Y327478D01*
X961415Y330272D01*
X962250Y333387D01*
Y336613D01*
X961415Y339728D01*
X959802Y342522D01*
X957522Y344803D01*
X954728Y346415D01*
X951613Y347250D01*
D02*
G37*
G36*
X551613D02*
X548387D01*
X545272Y346415D01*
X542478Y344803D01*
X540197Y342522D01*
X538585Y339728D01*
X537750Y336613D01*
Y333387D01*
X538585Y330272D01*
X540197Y327478D01*
X542478Y325197D01*
X545272Y323585D01*
X548387Y322750D01*
X551613D01*
X554728Y323585D01*
X557522Y325197D01*
X559803Y327478D01*
X561415Y330272D01*
X562250Y333387D01*
Y336613D01*
X561415Y339728D01*
X559803Y342522D01*
X557522Y344803D01*
X554728Y346415D01*
X551613Y347250D01*
D02*
G37*
G36*
X1286434Y294810D02*
X1284346D01*
X1282416Y294011D01*
X1280939Y292534D01*
X1280140Y290604D01*
Y288516D01*
X1280939Y286586D01*
X1282416Y285109D01*
X1284346Y284310D01*
X1286434D01*
X1288364Y285109D01*
X1289841Y286586D01*
X1290640Y288516D01*
Y290604D01*
X1289841Y292534D01*
X1288364Y294011D01*
X1286434Y294810D01*
D02*
G37*
G36*
X1131344Y284650D02*
X1129256D01*
X1127326Y283851D01*
X1125849Y282374D01*
X1125050Y280444D01*
Y278356D01*
X1125849Y276426D01*
X1127326Y274949D01*
X1129256Y274150D01*
X1131344D01*
X1133274Y274949D01*
X1134751Y276426D01*
X1135550Y278356D01*
Y280444D01*
X1134751Y282374D01*
X1133274Y283851D01*
X1131344Y284650D01*
D02*
G37*
G36*
X1286284Y274490D02*
X1284196D01*
X1282266Y273691D01*
X1280789Y272214D01*
X1279990Y270284D01*
Y268196D01*
X1280789Y266266D01*
X1282266Y264789D01*
X1284196Y263990D01*
X1286284D01*
X1288214Y264789D01*
X1289691Y266266D01*
X1290490Y268196D01*
Y270284D01*
X1289691Y272214D01*
X1288214Y273691D01*
X1286284Y274490D01*
D02*
G37*
G36*
X51349Y240650D02*
X48651D01*
X46044Y239951D01*
X43706Y238602D01*
X41798Y236694D01*
X40448Y234356D01*
X39750Y231749D01*
Y229051D01*
X40448Y226444D01*
X41798Y224106D01*
X43706Y222198D01*
X46044Y220849D01*
X48651Y220150D01*
X51349D01*
X53956Y220849D01*
X56294Y222198D01*
X58202Y224106D01*
X59552Y226444D01*
X60250Y229051D01*
Y231749D01*
X59552Y234356D01*
X58202Y236694D01*
X56294Y238602D01*
X53956Y239951D01*
X51349Y240650D01*
D02*
G37*
G36*
Y215250D02*
X48651D01*
X46044Y214552D01*
X43706Y213202D01*
X41798Y211294D01*
X40448Y208956D01*
X39750Y206349D01*
Y203651D01*
X40448Y201044D01*
X41798Y198706D01*
X43706Y196798D01*
X46044Y195449D01*
X48651Y194750D01*
X51349D01*
X53956Y195449D01*
X56294Y196798D01*
X58202Y198706D01*
X59552Y201044D01*
X60250Y203651D01*
Y206349D01*
X59552Y208956D01*
X58202Y211294D01*
X56294Y213202D01*
X53956Y214552D01*
X51349Y215250D01*
D02*
G37*
G36*
X371900Y221842D02*
X368148D01*
X364524Y220871D01*
X361274Y218995D01*
X358621Y216342D01*
X356745Y213092D01*
X355774Y209468D01*
Y205716D01*
X356745Y202092D01*
X358621Y198842D01*
X361274Y196189D01*
X364524Y194313D01*
X368148Y193342D01*
X371900D01*
X375524Y194313D01*
X378774Y196189D01*
X381427Y198842D01*
X383303Y202092D01*
X384274Y205716D01*
Y209468D01*
X383303Y213092D01*
X381427Y216342D01*
X378774Y218995D01*
X375524Y220871D01*
X371900Y221842D01*
D02*
G37*
G36*
X1048794Y202100D02*
X1046706D01*
X1044776Y201301D01*
X1043299Y199824D01*
X1042500Y197894D01*
Y195806D01*
X1043299Y193876D01*
X1044776Y192399D01*
X1046706Y191600D01*
X1048794D01*
X1050724Y192399D01*
X1052201Y193876D01*
X1053000Y195806D01*
Y197894D01*
X1052201Y199824D01*
X1050724Y201301D01*
X1048794Y202100D01*
D02*
G37*
G36*
X60250Y189850D02*
X39750D01*
Y169350D01*
X60250D01*
Y189850D01*
D02*
G37*
G36*
X1252185Y175000D02*
X1249815D01*
X1247526Y174387D01*
X1245474Y173202D01*
X1243798Y171526D01*
X1242613Y169474D01*
X1242000Y167185D01*
Y164815D01*
X1242613Y162526D01*
X1243798Y160474D01*
X1245474Y158798D01*
X1247526Y157613D01*
X1249815Y157000D01*
X1252185D01*
X1254474Y157613D01*
X1256526Y158798D01*
X1258202Y160474D01*
X1259387Y162526D01*
X1260000Y164815D01*
Y167185D01*
X1259387Y169474D01*
X1258202Y171526D01*
X1256526Y173202D01*
X1254474Y174387D01*
X1252185Y175000D01*
D02*
G37*
G36*
X1404710Y172810D02*
X1384210D01*
Y152310D01*
X1404710D01*
Y172810D01*
D02*
G37*
G36*
X1347747Y173040D02*
X1344653D01*
X1341665Y172239D01*
X1338985Y170692D01*
X1336798Y168505D01*
X1335251Y165825D01*
X1334450Y162837D01*
Y159743D01*
X1335251Y156755D01*
X1336798Y154075D01*
X1338985Y151888D01*
X1341665Y150341D01*
X1344653Y149540D01*
X1347747D01*
X1350735Y150341D01*
X1353415Y151888D01*
X1355602Y154075D01*
X1357149Y156755D01*
X1357950Y159743D01*
Y162837D01*
X1357149Y165825D01*
X1355602Y168505D01*
X1353415Y170692D01*
X1350735Y172239D01*
X1347747Y173040D01*
D02*
G37*
G36*
X1252185Y149600D02*
X1249815D01*
X1247526Y148987D01*
X1245474Y147802D01*
X1243798Y146126D01*
X1242613Y144074D01*
X1242000Y141785D01*
Y139415D01*
X1242613Y137126D01*
X1243798Y135074D01*
X1245474Y133398D01*
X1247526Y132213D01*
X1249815Y131600D01*
X1252185D01*
X1254474Y132213D01*
X1256526Y133398D01*
X1258202Y135074D01*
X1259387Y137126D01*
X1260000Y139415D01*
Y141785D01*
X1259387Y144074D01*
X1258202Y146126D01*
X1256526Y147802D01*
X1254474Y148987D01*
X1252185Y149600D01*
D02*
G37*
G36*
X1296444Y134790D02*
X1294356D01*
X1292426Y133991D01*
X1290949Y132514D01*
X1290150Y130584D01*
Y128496D01*
X1290949Y126566D01*
X1292426Y125089D01*
X1294356Y124290D01*
X1296444D01*
X1298374Y125089D01*
X1299851Y126566D01*
X1300650Y128496D01*
Y130584D01*
X1299851Y132514D01*
X1298374Y133991D01*
X1296444Y134790D01*
D02*
G37*
G36*
X371900Y146658D02*
X368148D01*
X364524Y145687D01*
X361274Y143811D01*
X358621Y141158D01*
X356745Y137908D01*
X355774Y134284D01*
Y130532D01*
X356745Y126908D01*
X358621Y123658D01*
X361274Y121005D01*
X364524Y119129D01*
X368148Y118158D01*
X371900D01*
X375524Y119129D01*
X378774Y121005D01*
X381427Y123658D01*
X383303Y126908D01*
X384274Y130532D01*
Y134284D01*
X383303Y137908D01*
X381427Y141158D01*
X378774Y143811D01*
X375524Y145687D01*
X371900Y146658D01*
D02*
G37*
G36*
X241852D02*
X238100D01*
X234476Y145687D01*
X231226Y143811D01*
X228573Y141158D01*
X226697Y137908D01*
X225726Y134284D01*
Y130532D01*
X226697Y126908D01*
X228573Y123658D01*
X231226Y121005D01*
X234476Y119129D01*
X238100Y118158D01*
X241852D01*
X245476Y119129D01*
X248726Y121005D01*
X251379Y123658D01*
X253255Y126908D01*
X254226Y130532D01*
Y134284D01*
X253255Y137908D01*
X251379Y141158D01*
X248726Y143811D01*
X245476Y145687D01*
X241852Y146658D01*
D02*
G37*
G36*
X1252185Y124200D02*
X1249815D01*
X1247526Y123587D01*
X1245474Y122402D01*
X1243798Y120726D01*
X1242613Y118674D01*
X1242000Y116385D01*
Y114015D01*
X1242613Y111726D01*
X1243798Y109674D01*
X1245474Y107998D01*
X1247526Y106813D01*
X1249815Y106200D01*
X1252185D01*
X1254474Y106813D01*
X1256526Y107998D01*
X1258202Y109674D01*
X1259387Y111726D01*
X1260000Y114015D01*
Y116385D01*
X1259387Y118674D01*
X1258202Y120726D01*
X1256526Y122402D01*
X1254474Y123587D01*
X1252185Y124200D01*
D02*
G37*
G36*
Y98800D02*
X1249815D01*
X1247526Y98187D01*
X1245474Y97002D01*
X1243798Y95326D01*
X1242613Y93274D01*
X1242000Y90985D01*
Y88615D01*
X1242613Y86326D01*
X1243798Y84274D01*
X1245474Y82598D01*
X1247526Y81413D01*
X1249815Y80800D01*
X1252185D01*
X1254474Y81413D01*
X1256526Y82598D01*
X1258202Y84274D01*
X1259387Y86326D01*
X1260000Y88615D01*
Y90985D01*
X1259387Y93274D01*
X1258202Y95326D01*
X1256526Y97002D01*
X1254474Y98187D01*
X1252185Y98800D01*
D02*
G37*
G36*
X306876Y109066D02*
X303124D01*
X299500Y108095D01*
X296250Y106219D01*
X293597Y103566D01*
X291721Y100316D01*
X290750Y96692D01*
Y92940D01*
X291721Y89316D01*
X293597Y86066D01*
X296250Y83413D01*
X299500Y81537D01*
X303124Y80566D01*
X306876D01*
X310500Y81537D01*
X313750Y83413D01*
X316403Y86066D01*
X318279Y89316D01*
X319250Y92940D01*
Y96692D01*
X318279Y100316D01*
X316403Y103566D01*
X313750Y106219D01*
X310500Y108095D01*
X306876Y109066D01*
D02*
G37*
G36*
X951613Y67250D02*
X948387D01*
X945272Y66415D01*
X942478Y64802D01*
X940198Y62522D01*
X938585Y59728D01*
X937750Y56613D01*
Y53387D01*
X938585Y50272D01*
X940198Y47478D01*
X942478Y45198D01*
X945272Y43585D01*
X948387Y42750D01*
X951613D01*
X954728Y43585D01*
X957522Y45198D01*
X959802Y47478D01*
X961415Y50272D01*
X962250Y53387D01*
Y56613D01*
X961415Y59728D01*
X959802Y62522D01*
X957522Y64802D01*
X954728Y66415D01*
X951613Y67250D01*
D02*
G37*
G36*
X551613D02*
X548387D01*
X545272Y66415D01*
X542478Y64802D01*
X540197Y62522D01*
X538585Y59728D01*
X537750Y56613D01*
Y53387D01*
X538585Y50272D01*
X540197Y47478D01*
X542478Y45198D01*
X545272Y43585D01*
X548387Y42750D01*
X551613D01*
X554728Y43585D01*
X557522Y45198D01*
X559803Y47478D01*
X561415Y50272D01*
X562250Y53387D01*
Y56613D01*
X561415Y59728D01*
X559803Y62522D01*
X557522Y64802D01*
X554728Y66415D01*
X551613Y67250D01*
D02*
G37*
G36*
X1260000Y48000D02*
X1242000D01*
Y30000D01*
X1260000D01*
Y48000D01*
D02*
G37*
G36*
X1213599Y50250D02*
X1210901D01*
X1208294Y49552D01*
X1205956Y48202D01*
X1204048Y46294D01*
X1202699Y43956D01*
X1202000Y41349D01*
Y38651D01*
X1202699Y36044D01*
X1204048Y33706D01*
X1205956Y31798D01*
X1208294Y30449D01*
X1210901Y29750D01*
X1213599D01*
X1216206Y30449D01*
X1218544Y31798D01*
X1220452Y33706D01*
X1221802Y36044D01*
X1222500Y38651D01*
Y41349D01*
X1221802Y43956D01*
X1220452Y46294D01*
X1218544Y48202D01*
X1216206Y49552D01*
X1213599Y50250D01*
D02*
G37*
%LPD*%
D137*
X41910Y811530D02*
D03*
X92710Y821690D02*
D03*
Y801370D02*
D03*
D153*
X596250Y507000D02*
D03*
D154*
X608750D02*
D03*
X621250D02*
D03*
X633750D02*
D03*
X646250D02*
D03*
X658750D02*
D03*
X671250D02*
D03*
X683750D02*
D03*
D155*
X1251000Y39000D02*
D03*
D156*
X375000Y425000D02*
D03*
Y450000D02*
D03*
Y400000D02*
D03*
X230000D02*
D03*
Y450000D02*
D03*
X1251000Y64400D02*
D03*
Y89800D02*
D03*
Y115200D02*
D03*
Y140600D02*
D03*
Y166000D02*
D03*
Y191400D02*
D03*
D157*
X386600Y955000D02*
D03*
X361200D02*
D03*
X335800D02*
D03*
X310400D02*
D03*
X285000D02*
D03*
X259600D02*
D03*
X234200D02*
D03*
X50000Y424600D02*
D03*
Y450000D02*
D03*
Y475400D02*
D03*
Y255800D02*
D03*
Y230400D02*
D03*
Y205000D02*
D03*
X550000Y965000D02*
D03*
X524600D02*
D03*
X1212250Y40000D02*
D03*
X1050000Y360000D02*
D03*
X1419860Y162560D02*
D03*
D160*
X1127760Y574040D02*
D03*
X1153160D02*
D03*
D161*
X1178560D02*
D03*
D186*
X208800Y955000D02*
D03*
X575400Y965000D02*
D03*
D187*
X435180Y939530D02*
D03*
X165620Y561300D02*
D03*
Y939760D02*
D03*
X434860Y561300D02*
D03*
D188*
X950000Y55000D02*
D03*
Y335000D02*
D03*
X550000D02*
D03*
Y55000D02*
D03*
D189*
X1408250Y536000D02*
D03*
D190*
X1418250Y540050D02*
D03*
Y459950D02*
D03*
D191*
X1421750Y543300D02*
D03*
Y456700D02*
D03*
X1480250D02*
D03*
Y543300D02*
D03*
D192*
X1408250Y464000D02*
D03*
D193*
X1414750Y496000D02*
D03*
Y504000D02*
D03*
X1438910Y499110D02*
D03*
X1386840Y492760D02*
D03*
D194*
X1414750Y488000D02*
D03*
Y472000D02*
D03*
Y512000D02*
D03*
Y528000D02*
D03*
X1421750Y492000D02*
D03*
Y484000D02*
D03*
Y476000D02*
D03*
Y508000D02*
D03*
Y516000D02*
D03*
Y524000D02*
D03*
X820420Y759460D02*
D03*
X861060Y763270D02*
D03*
X1409700Y351790D02*
D03*
X1047750Y872490D02*
D03*
X1029970Y875030D02*
D03*
X1016000Y887730D02*
D03*
X1004570Y901700D02*
D03*
X1002030Y919480D02*
D03*
Y935990D02*
D03*
X1379220Y266700D02*
D03*
Y281940D02*
D03*
X1379010Y274160D02*
D03*
X1010920Y894080D02*
D03*
X511810Y615950D02*
D03*
X1055370Y886460D02*
D03*
X1002030Y928370D02*
D03*
X1047750Y886460D02*
D03*
X1023620Y881380D02*
D03*
X1038860Y872490D02*
D03*
X1027430Y899160D02*
D03*
X1017270Y910590D02*
D03*
X1022042Y904548D02*
D03*
X1209040Y882650D02*
D03*
X1201420D02*
D03*
X1332320Y967740D02*
D03*
X1323340D02*
D03*
X1314360Y981710D02*
D03*
Y967740D02*
D03*
X1332320Y955040D02*
D03*
X1314360D02*
D03*
X1332320Y981710D02*
D03*
X1323340D02*
D03*
Y955040D02*
D03*
X1187630Y967740D02*
D03*
X1178650D02*
D03*
X1169670D02*
D03*
X1187630Y955040D02*
D03*
X1178650D02*
D03*
X1169670D02*
D03*
X1187630Y981710D02*
D03*
X1178650D02*
D03*
X1169670D02*
D03*
X1244600Y924560D02*
D03*
X1257300Y939800D02*
D03*
Y932180D02*
D03*
Y924560D02*
D03*
X1244600Y939800D02*
D03*
Y932180D02*
D03*
X1254760Y914400D02*
D03*
X1248410Y908050D02*
D03*
X1242060Y901700D02*
D03*
X1236326Y895966D02*
D03*
X1230938Y890578D02*
D03*
X1225550Y885190D02*
D03*
X1238250Y918210D02*
D03*
X1231900Y911860D02*
D03*
X1225550Y905510D02*
D03*
X1216660Y882650D02*
D03*
X1201420Y897890D02*
D03*
X1210310D02*
D03*
X1217930Y899160D02*
D03*
X1041400Y976630D02*
D03*
Y970280D02*
D03*
Y963930D02*
D03*
X977900D02*
D03*
Y970280D02*
D03*
Y976630D02*
D03*
X1055370Y872490D02*
D03*
X1033472Y893118D02*
D03*
X1040130Y887730D02*
D03*
X1002030Y910590D02*
D03*
X1017270Y928370D02*
D03*
X1002030Y944880D02*
D03*
X1017270Y937260D02*
D03*
Y944880D02*
D03*
X58420Y826770D02*
D03*
X1465876Y66364D02*
D03*
X1434124Y33636D02*
D03*
X1465876D02*
D03*
X1434124Y66364D02*
D03*
X1472860Y50000D02*
D03*
X1427140D02*
D03*
X1450000Y27140D02*
D03*
Y72860D02*
D03*
X1465876Y966364D02*
D03*
X1434124Y933636D02*
D03*
X1465876D02*
D03*
X1434124Y966364D02*
D03*
X1472860Y950000D02*
D03*
X1427140D02*
D03*
X1450000Y927140D02*
D03*
Y972860D02*
D03*
X65876Y966364D02*
D03*
X34125Y933636D02*
D03*
X65876D02*
D03*
X34125Y966364D02*
D03*
X72860Y950000D02*
D03*
X27140D02*
D03*
X50000Y927140D02*
D03*
Y972860D02*
D03*
X65876Y66364D02*
D03*
X34125Y33636D02*
D03*
X65876D02*
D03*
X34125Y66364D02*
D03*
X72860Y50000D02*
D03*
X27140D02*
D03*
X50000Y27140D02*
D03*
Y72860D02*
D03*
X335280Y622300D02*
D03*
X345440D02*
D03*
X299720Y702310D02*
D03*
X506730Y449580D02*
D03*
X317500Y697230D02*
D03*
X793750Y764540D02*
D03*
X638810Y756920D02*
D03*
X679410Y848400D02*
D03*
X679450Y861060D02*
D03*
X652780Y702310D02*
D03*
X595630Y737870D02*
D03*
X312420Y744220D02*
D03*
X284480Y713740D02*
D03*
X285750Y632460D02*
D03*
X278130Y642620D02*
D03*
X292100Y708660D02*
D03*
X275590Y650240D02*
D03*
X271780Y657860D02*
D03*
X265430Y664210D02*
D03*
X661670Y746760D02*
D03*
X706120Y728980D02*
D03*
X684530Y792480D02*
D03*
X970245Y816305D02*
D03*
X793750Y784860D02*
D03*
X1206500Y789940D02*
D03*
X819100Y899160D02*
D03*
X1240790Y810260D02*
D03*
X855940Y873800D02*
D03*
X855980Y911860D02*
D03*
X854710Y835660D02*
D03*
Y822960D02*
D03*
X1299590Y850000D02*
D03*
Y790000D02*
D03*
X1299210Y769620D02*
D03*
X863600Y886460D02*
D03*
X967170Y783000D02*
D03*
Y794000D02*
D03*
X854710Y797560D02*
D03*
Y784860D02*
D03*
X970245Y805305D02*
D03*
X524510Y610870D02*
D03*
X821690Y861060D02*
D03*
X430530Y783590D02*
D03*
X361950Y806450D02*
D03*
X354394Y795084D02*
D03*
X793750Y773430D02*
D03*
X392430Y699770D02*
D03*
X396240Y706120D02*
D03*
X391160Y712470D02*
D03*
X506730Y439420D02*
D03*
X304800Y795020D02*
D03*
X294640D02*
D03*
X314960Y796290D02*
D03*
X533400Y701040D02*
D03*
X57150Y795020D02*
D03*
X325120Y784860D02*
D03*
X105410Y812800D02*
D03*
X26670Y801370D02*
D03*
X1416558Y607060D02*
D03*
Y598170D02*
D03*
X1409192Y602742D02*
D03*
X1400810Y607060D02*
D03*
X1401064Y598170D02*
D03*
X1375130Y606970D02*
D03*
X1359890D02*
D03*
X1367256Y602906D02*
D03*
X1375130Y598080D02*
D03*
X1359890D02*
D03*
D195*
X300000Y482000D02*
D03*
Y368000D02*
D03*
D196*
X50000Y399200D02*
D03*
Y179600D02*
D03*
X1394460Y162560D02*
D03*
D197*
X239976Y132408D02*
D03*
X370024D02*
D03*
Y207592D02*
D03*
X305000Y94816D02*
D03*
X239976Y207592D02*
D03*
D198*
X1429600Y800260D02*
D03*
D199*
Y820260D02*
D03*
D200*
X1235710Y474980D02*
D03*
X901700Y598170D02*
D03*
X1346200Y161290D02*
D03*
X1013460Y427990D02*
D03*
D201*
X1450000Y50000D02*
D03*
Y950000D02*
D03*
X50000D02*
D03*
Y50000D02*
D03*
D202*
X41910Y836930D02*
D03*
Y786130D02*
D03*
X73660Y836930D02*
D03*
Y786130D02*
D03*
D203*
X1145540Y477520D02*
D03*
X815340Y467360D02*
D03*
X607060Y942340D02*
D03*
X1346200Y207010D02*
D03*
X1135380Y457200D02*
D03*
X1145540D02*
D03*
X1333500Y227330D02*
D03*
Y207010D02*
D03*
Y217170D02*
D03*
X1145540Y467360D02*
D03*
X1285240Y254000D02*
D03*
X1445260Y269240D02*
D03*
X1442720Y346710D02*
D03*
X1193800Y668020D02*
D03*
X692150Y730250D02*
D03*
X1263650Y575310D02*
D03*
X1273810D02*
D03*
X820420Y924560D02*
D03*
X1046480Y435610D02*
D03*
X171450Y132080D02*
D03*
X121920Y179070D02*
D03*
X1036320Y448310D02*
D03*
Y435610D02*
D03*
X321310Y618490D02*
D03*
X1183640Y543560D02*
D03*
X1195070D02*
D03*
Y552450D02*
D03*
X1183640D02*
D03*
X527050Y482600D02*
D03*
X474980Y420370D02*
D03*
X742950Y403860D02*
D03*
X728980Y472440D02*
D03*
X974090Y461010D02*
D03*
X1092200Y702310D02*
D03*
X646430Y924560D02*
D03*
X1031240Y670560D02*
D03*
X1377260Y628900D02*
D03*
X1357630Y720090D02*
D03*
X1257690Y709540D02*
D03*
X1258570Y721360D02*
D03*
X1125220Y457200D02*
D03*
X279400Y810260D02*
D03*
X1423670Y245110D02*
D03*
Y233680D02*
D03*
Y220980D02*
D03*
X1433830D02*
D03*
Y245110D02*
D03*
Y233680D02*
D03*
X128270Y792480D02*
D03*
X1304290Y750570D02*
D03*
X1145540Y869950D02*
D03*
X1361440Y890270D02*
D03*
X1306830Y641350D02*
D03*
X1238250Y642620D02*
D03*
X1276350Y601980D02*
D03*
X1285240Y552450D02*
D03*
Y543560D02*
D03*
X1343660Y537210D02*
D03*
X1459230Y504190D02*
D03*
X1380490Y454660D02*
D03*
X1371600Y416560D02*
D03*
Y438150D02*
D03*
X922020Y731520D02*
D03*
X1050290Y815340D02*
D03*
X1069340Y902970D02*
D03*
X930910Y889000D02*
D03*
X1135380Y769620D02*
D03*
X1098550Y793750D02*
D03*
X570230Y728670D02*
D03*
X633730Y666750D02*
D03*
X398780Y363220D02*
D03*
X205740Y372110D02*
D03*
X119380Y398780D02*
D03*
X511810Y845820D02*
D03*
X735330Y820420D02*
D03*
X411980Y835660D02*
D03*
X808990Y678180D02*
D03*
X739140Y612140D02*
D03*
X748030Y622300D02*
D03*
X756920Y632460D02*
D03*
X739140D02*
D03*
X756920Y612140D02*
D03*
X746760Y820420D02*
D03*
X723900D02*
D03*
X746760Y810260D02*
D03*
X723900D02*
D03*
X735330D02*
D03*
X875030Y494030D02*
D03*
X863600D02*
D03*
X852170D02*
D03*
X199010Y760730D02*
D03*
X95330Y707410D02*
D03*
X220900Y661670D02*
D03*
X200580D02*
D03*
X548620Y817880D02*
D03*
Y840740D02*
D03*
X157460Y716280D02*
D03*
Y736600D02*
D03*
X544830Y875030D02*
D03*
X628540Y942340D02*
D03*
X607060Y858520D02*
D03*
X852009Y509906D02*
D03*
X860899D02*
D03*
X852009Y480696D02*
D03*
X863439D02*
D03*
X950646Y561976D02*
D03*
X977739D02*
D03*
Y544196D02*
D03*
X937099Y561976D02*
D03*
X964193D02*
D03*
X1130300Y523240D02*
D03*
X1117600D02*
D03*
X753110Y565150D02*
D03*
X1057910Y706120D02*
D03*
X543560Y426720D02*
D03*
X222250Y777240D02*
D03*
X591820Y911860D02*
D03*
X307340Y782150D02*
D03*
X378460Y613410D02*
D03*
X876300Y466090D02*
D03*
X1004570Y565150D02*
D03*
Y552450D02*
D03*
Y539750D02*
D03*
X1073150Y575310D02*
D03*
X1085850D02*
D03*
X1098550D02*
D03*
X181610Y678180D02*
D03*
X356870Y775970D02*
D03*
X576580Y582930D02*
D03*
X758190Y477520D02*
D03*
X889000Y462280D02*
D03*
X1043940Y651510D02*
D03*
X715010Y654050D02*
D03*
X775970D02*
D03*
X784860Y675640D02*
D03*
X481330Y482600D02*
D03*
X680720Y899160D02*
D03*
X1079500Y481330D02*
D03*
X1107440Y509270D02*
D03*
X1118870D02*
D03*
X1130300D02*
D03*
X1129030Y539750D02*
D03*
X1117600D02*
D03*
X1106170D02*
D03*
X335280Y852170D02*
D03*
X289560Y824230D02*
D03*
X265430Y810260D02*
D03*
X354330Y636270D02*
D03*
X1130300Y279400D02*
D03*
X1047750Y196850D02*
D03*
X1295400Y129540D02*
D03*
X1285390Y289560D02*
D03*
X74930Y707390D02*
D03*
X882650Y676910D02*
D03*
X1369060Y857250D02*
D03*
X1303020Y594360D02*
D03*
X924560Y847090D02*
D03*
X886460Y763270D02*
D03*
X1098550Y808990D02*
D03*
X187960Y372110D02*
D03*
X1027430Y681990D02*
D03*
X844550Y407670D02*
D03*
Y419100D02*
D03*
Y431800D02*
D03*
X833120Y407670D02*
D03*
Y419100D02*
D03*
X820420D02*
D03*
Y407670D02*
D03*
X703580Y434340D02*
D03*
X692150D02*
D03*
X680720D02*
D03*
X703580Y424180D02*
D03*
X692150D02*
D03*
X680720D02*
D03*
X833120Y431800D02*
D03*
X787400Y492760D02*
D03*
X1008380Y488950D02*
D03*
X1018540D02*
D03*
X1008380Y478790D02*
D03*
X1018540D02*
D03*
X1008380Y497840D02*
D03*
X1018540D02*
D03*
Y506730D02*
D03*
X1008380D02*
D03*
X628650Y858520D02*
D03*
X1320800Y683260D02*
D03*
X1308100D02*
D03*
X909159Y492126D02*
D03*
X1292860Y628650D02*
D03*
X1214120Y626110D02*
D03*
Y617220D02*
D03*
Y608330D02*
D03*
X1203960D02*
D03*
Y617220D02*
D03*
Y626110D02*
D03*
X1248410Y539750D02*
D03*
X1238250D02*
D03*
X1228090D02*
D03*
Y548640D02*
D03*
X1238250D02*
D03*
X1248410D02*
D03*
X1217930D02*
D03*
X1376426Y514096D02*
D03*
X1366774D02*
D03*
X1356868D02*
D03*
X807720Y532130D02*
D03*
X781050Y528320D02*
D03*
X742950D02*
D03*
X758190Y576580D02*
D03*
X744220D02*
D03*
X1027430Y694690D02*
D03*
X1285240Y269240D02*
D03*
M02*
