G04*
G04 #@! TF.GenerationSoftware,Altium Limited,Altium Designer,24.9.1 (31)*
G04*
G04 Layer_Color=8388736*
%FSLAX44Y44*%
%MOMM*%
G71*
G04*
G04 #@! TF.SameCoordinates,A601D634-93CA-4805-8520-E3EE879C7AED*
G04*
G04*
G04 #@! TF.FilePolarity,Negative*
G04*
G01*
G75*
%ADD25R,0.9000X0.9000*%
%ADD26R,0.9000X1.5000*%
%ADD27R,1.5000X0.9000*%
%ADD28R,0.2794X0.6096*%
%ADD31R,1.8052X0.6098*%
G04:AMPARAMS|DCode=32|XSize=1.8052mm|YSize=0.6098mm|CornerRadius=0.3049mm|HoleSize=0mm|Usage=FLASHONLY|Rotation=180.000|XOffset=0mm|YOffset=0mm|HoleType=Round|Shape=RoundedRectangle|*
%AMROUNDEDRECTD32*
21,1,1.8052,0.0000,0,0,180.0*
21,1,1.1954,0.6098,0,0,180.0*
1,1,0.6098,-0.5977,0.0000*
1,1,0.6098,0.5977,0.0000*
1,1,0.6098,0.5977,0.0000*
1,1,0.6098,-0.5977,0.0000*
%
%ADD32ROUNDEDRECTD32*%
%ADD33R,0.8000X0.8000*%
%ADD42R,0.5900X0.4500*%
%ADD47R,2.2860X5.0800*%
%ADD48R,2.4130X5.0800*%
%ADD51R,0.8000X0.9000*%
%ADD52R,0.7366X0.5588*%
%ADD57R,2.0000X1.2500*%
%ADD65R,1.1549X2.1062*%
%ADD68R,1.7500X1.4500*%
%ADD69R,0.7500X0.3000*%
G04:AMPARAMS|DCode=70|XSize=1.0654mm|YSize=0.2425mm|CornerRadius=0.1212mm|HoleSize=0mm|Usage=FLASHONLY|Rotation=90.000|XOffset=0mm|YOffset=0mm|HoleType=Round|Shape=RoundedRectangle|*
%AMROUNDEDRECTD70*
21,1,1.0654,0.0000,0,0,90.0*
21,1,0.8229,0.2425,0,0,90.0*
1,1,0.2425,0.0000,0.4114*
1,1,0.2425,0.0000,-0.4114*
1,1,0.2425,0.0000,-0.4114*
1,1,0.2425,0.0000,0.4114*
%
%ADD70ROUNDEDRECTD70*%
%ADD71R,0.2425X1.0654*%
%ADD72R,0.9397X0.5321*%
G04:AMPARAMS|DCode=73|XSize=0.9397mm|YSize=0.5321mm|CornerRadius=0.2661mm|HoleSize=0mm|Usage=FLASHONLY|Rotation=0.000|XOffset=0mm|YOffset=0mm|HoleType=Round|Shape=RoundedRectangle|*
%AMROUNDEDRECTD73*
21,1,0.9397,0.0000,0,0,0.0*
21,1,0.4076,0.5321,0,0,0.0*
1,1,0.5321,0.2038,0.0000*
1,1,0.5321,-0.2038,0.0000*
1,1,0.5321,-0.2038,0.0000*
1,1,0.5321,0.2038,0.0000*
%
%ADD73ROUNDEDRECTD73*%
%ADD76R,3.5000X1.0000*%
%ADD79R,0.8020X0.9720*%
%ADD81R,1.2000X1.2000*%
%ADD82R,1.5000X1.6000*%
%ADD86C,1.0259*%
%ADD89R,2.5032X0.8532*%
%ADD90R,2.4032X0.8532*%
%ADD91R,0.4524X1.8524*%
%ADD92R,1.8524X0.4524*%
%ADD93R,1.0032X1.0032*%
%ADD94R,0.9032X0.5232*%
%ADD95R,1.6032X1.5032*%
%ADD96R,1.5532X1.3532*%
%ADD97R,1.2032X1.1032*%
%ADD98C,1.7032*%
%ADD99R,1.5032X1.6032*%
%ADD100R,1.1532X1.0532*%
%ADD101R,1.0032X1.0032*%
G04:AMPARAMS|DCode=102|XSize=1.7032mm|YSize=0.6932mm|CornerRadius=0.2241mm|HoleSize=0mm|Usage=FLASHONLY|Rotation=180.000|XOffset=0mm|YOffset=0mm|HoleType=Round|Shape=RoundedRectangle|*
%AMROUNDEDRECTD102*
21,1,1.7032,0.2450,0,0,180.0*
21,1,1.2550,0.6932,0,0,180.0*
1,1,0.4482,-0.6275,0.1225*
1,1,0.4482,0.6275,0.1225*
1,1,0.4482,0.6275,-0.1225*
1,1,0.4482,-0.6275,-0.1225*
%
%ADD102ROUNDEDRECTD102*%
%ADD103R,1.3532X1.5532*%
%ADD104R,1.0532X1.1532*%
%ADD105R,0.8032X1.0032*%
%ADD106R,1.0000X1.0500*%
%ADD107R,1.0500X2.2000*%
%ADD108R,2.1032X1.6032*%
%ADD109R,1.1032X1.2032*%
%ADD110R,1.0032X1.1032*%
%ADD111R,0.9032X0.6032*%
%ADD112R,0.7032X0.8032*%
%ADD113R,1.1032X1.0032*%
G04:AMPARAMS|DCode=114|XSize=0.7032mm|YSize=0.8032mm|CornerRadius=0mm|HoleSize=0mm|Usage=FLASHONLY|Rotation=315.000|XOffset=0mm|YOffset=0mm|HoleType=Round|Shape=Rectangle|*
%AMROTATEDRECTD114*
4,1,4,-0.5326,-0.0354,0.0354,0.5326,0.5326,0.0354,-0.0354,-0.5326,-0.5326,-0.0354,0.0*
%
%ADD114ROTATEDRECTD114*%

%ADD115R,0.5000X0.6300*%
%ADD116C,1.6955*%
G04:AMPARAMS|DCode=117|XSize=0.9432mm|YSize=0.4732mm|CornerRadius=0.1354mm|HoleSize=0mm|Usage=FLASHONLY|Rotation=180.000|XOffset=0mm|YOffset=0mm|HoleType=Round|Shape=RoundedRectangle|*
%AMROUNDEDRECTD117*
21,1,0.9432,0.2025,0,0,180.0*
21,1,0.6725,0.4732,0,0,180.0*
1,1,0.2707,-0.3363,0.1013*
1,1,0.2707,0.3363,0.1013*
1,1,0.2707,0.3363,-0.1013*
1,1,0.2707,-0.3363,-0.1013*
%
%ADD117ROUNDEDRECTD117*%
%ADD118R,1.0432X2.6032*%
G04:AMPARAMS|DCode=119|XSize=0.7032mm|YSize=0.7032mm|CornerRadius=0.1641mm|HoleSize=0mm|Usage=FLASHONLY|Rotation=270.000|XOffset=0mm|YOffset=0mm|HoleType=Round|Shape=RoundedRectangle|*
%AMROUNDEDRECTD119*
21,1,0.7032,0.3750,0,0,270.0*
21,1,0.3750,0.7032,0,0,270.0*
1,1,0.3282,-0.1875,-0.1875*
1,1,0.3282,-0.1875,0.1875*
1,1,0.3282,0.1875,0.1875*
1,1,0.3282,0.1875,-0.1875*
%
%ADD119ROUNDEDRECTD119*%
%ADD120R,1.8032X2.3832*%
%ADD121R,1.8032X2.4032*%
%ADD122R,3.3532X3.3532*%
G04:AMPARAMS|DCode=123|XSize=1.1732mm|YSize=0.4632mm|CornerRadius=0.1341mm|HoleSize=0mm|Usage=FLASHONLY|Rotation=180.000|XOffset=0mm|YOffset=0mm|HoleType=Round|Shape=RoundedRectangle|*
%AMROUNDEDRECTD123*
21,1,1.1732,0.1950,0,0,180.0*
21,1,0.9050,0.4632,0,0,180.0*
1,1,0.2682,-0.4525,0.0975*
1,1,0.2682,0.4525,0.0975*
1,1,0.2682,0.4525,-0.0975*
1,1,0.2682,-0.4525,-0.0975*
%
%ADD123ROUNDEDRECTD123*%
G04:AMPARAMS|DCode=124|XSize=0.4632mm|YSize=1.1732mm|CornerRadius=0.1341mm|HoleSize=0mm|Usage=FLASHONLY|Rotation=180.000|XOffset=0mm|YOffset=0mm|HoleType=Round|Shape=RoundedRectangle|*
%AMROUNDEDRECTD124*
21,1,0.4632,0.9050,0,0,180.0*
21,1,0.1950,1.1732,0,0,180.0*
1,1,0.2682,-0.0975,0.4525*
1,1,0.2682,0.0975,0.4525*
1,1,0.2682,0.0975,-0.4525*
1,1,0.2682,-0.0975,-0.4525*
%
%ADD124ROUNDEDRECTD124*%
%ADD125R,1.1032X1.4032*%
%ADD126R,0.8032X1.2532*%
%ADD127R,2.2032X0.8032*%
%ADD128R,0.8032X2.2032*%
%ADD129R,2.0032X1.0032*%
%ADD130R,1.0332X0.8282*%
%ADD131R,1.4532X1.8532*%
%ADD132R,1.2532X0.8032*%
%ADD133R,0.7032X0.5782*%
%ADD134C,3.0000*%
%ADD135R,0.8032X0.7032*%
%ADD136R,2.9032X1.7032*%
%ADD137C,0.9906*%
%ADD138R,0.8532X1.1032*%
%ADD139C,2.0032*%
%ADD140R,2.0032X2.0032*%
%ADD141C,2.5032*%
%ADD142C,2.4032*%
%ADD143O,1.0532X1.3532*%
%ADD144O,1.1032X1.7532*%
%ADD145O,1.6032X1.1032*%
%ADD146C,1.0532*%
%ADD147C,0.6032*%
%ADD148C,0.8032*%
%ADD149R,3.4032X2.8032*%
%ADD150C,1.7532*%
%ADD151R,2.0032X2.0032*%
%ADD152C,2.8032*%
%ADD153R,1.0000X1.0000*%
%ADD154C,1.0000*%
%ADD155R,1.5500X1.5500*%
%ADD156C,1.5500*%
%ADD157C,1.8000*%
%ADD158C,1.5112*%
%ADD159R,1.5112X1.5112*%
%ADD160C,1.3890*%
%ADD161R,1.3890X1.3890*%
%ADD162C,2.3032*%
%ADD163C,6.2032*%
%ADD164C,1.1938*%
%ADD165C,2.5781*%
%ADD166C,1.0032*%
G36*
X1069460Y538750D02*
X1063660Y532800D01*
Y521300D01*
X1069460Y515350D01*
Y507600D01*
X1060560D01*
X1054960Y513100D01*
Y541000D01*
X1060560Y546500D01*
X1069460D01*
Y538750D01*
D02*
G37*
G36*
X1098960Y541000D02*
Y513100D01*
X1093360Y507600D01*
X1084460D01*
Y515350D01*
X1090260Y521300D01*
Y532800D01*
X1084460Y538750D01*
Y546500D01*
X1093360D01*
X1098960Y541000D01*
D02*
G37*
G36*
X1379760Y588200D02*
X1374760D01*
Y592300D01*
X1373260D01*
Y588200D01*
X1368260D01*
Y592300D01*
X1366760D01*
Y588200D01*
X1361760D01*
Y592300D01*
X1360260D01*
Y588200D01*
X1355260D01*
Y611300D01*
X1379760D01*
Y588200D01*
D02*
G37*
G36*
X1420680D02*
X1415680D01*
Y592300D01*
X1414180D01*
Y588200D01*
X1409180D01*
Y592300D01*
X1407680D01*
Y588200D01*
X1402680D01*
Y592300D01*
X1401180D01*
Y588200D01*
X1396180D01*
Y611300D01*
X1420680D01*
Y588200D01*
D02*
G37*
D25*
X749000Y833400D02*
D03*
X735000D02*
D03*
X721000D02*
D03*
X749000Y847400D02*
D03*
X735000D02*
D03*
X721000D02*
D03*
X749000Y861400D02*
D03*
X735000D02*
D03*
X721000D02*
D03*
D26*
X807150Y747000D02*
D03*
X794450D02*
D03*
X781750D02*
D03*
X769050D02*
D03*
X756350D02*
D03*
X743650D02*
D03*
X730950D02*
D03*
X718250D02*
D03*
X705550D02*
D03*
X692850D02*
D03*
D27*
X837500Y924600D02*
D03*
Y911900D02*
D03*
Y899200D02*
D03*
Y886500D02*
D03*
Y873800D02*
D03*
Y861100D02*
D03*
Y848400D02*
D03*
Y835700D02*
D03*
Y823000D02*
D03*
Y810300D02*
D03*
Y797600D02*
D03*
Y784900D02*
D03*
Y772200D02*
D03*
Y759500D02*
D03*
X662500D02*
D03*
Y772200D02*
D03*
Y784900D02*
D03*
Y797600D02*
D03*
Y810300D02*
D03*
Y823000D02*
D03*
Y835700D02*
D03*
Y848400D02*
D03*
Y861100D02*
D03*
Y873800D02*
D03*
Y886500D02*
D03*
Y899200D02*
D03*
Y911900D02*
D03*
Y924600D02*
D03*
D28*
X933169Y507239D02*
D03*
X928169D02*
D03*
X923169D02*
D03*
X918169D02*
D03*
Y492253D02*
D03*
X923169D02*
D03*
X928169D02*
D03*
X933169D02*
D03*
D31*
X790015Y438810D02*
D03*
D32*
Y448310D02*
D03*
Y457810D02*
D03*
X767005D02*
D03*
Y448310D02*
D03*
Y438810D02*
D03*
D33*
X377850Y852870D02*
D03*
X396850D02*
D03*
X387350Y876870D02*
D03*
D42*
X1058300Y715010D02*
D03*
X1037200D02*
D03*
D47*
X1250950Y971550D02*
D03*
D48*
X1294765D02*
D03*
X1207135D02*
D03*
D51*
X790470Y562450D02*
D03*
X771470D02*
D03*
X780970Y542450D02*
D03*
X723370D02*
D03*
X742370D02*
D03*
X732870Y562450D02*
D03*
D52*
X585866Y591820D02*
D03*
X566054Y582295D02*
D03*
Y601345D02*
D03*
D57*
X1037590Y506730D02*
D03*
Y544230D02*
D03*
D65*
X918416Y551816D02*
D03*
X899903D02*
D03*
D68*
X1276350Y601980D02*
D03*
D69*
X1290850Y609480D02*
D03*
Y604480D02*
D03*
Y599480D02*
D03*
Y594480D02*
D03*
X1261850D02*
D03*
Y599480D02*
D03*
Y604480D02*
D03*
Y609480D02*
D03*
D70*
X1380570Y685986D02*
D03*
X1385570D02*
D03*
X1390570D02*
D03*
Y672914D02*
D03*
X1385570D02*
D03*
D71*
X1380570D02*
D03*
D72*
X1064535Y493370D02*
D03*
D73*
Y483870D02*
D03*
Y474370D02*
D03*
X1086845D02*
D03*
Y493370D02*
D03*
D76*
X1177500Y750000D02*
D03*
Y770000D02*
D03*
Y790000D02*
D03*
Y810000D02*
D03*
Y830000D02*
D03*
Y850000D02*
D03*
Y870000D02*
D03*
Y890000D02*
D03*
X1332500D02*
D03*
Y870000D02*
D03*
Y850000D02*
D03*
Y830000D02*
D03*
Y810000D02*
D03*
Y790000D02*
D03*
Y770000D02*
D03*
Y750000D02*
D03*
D79*
X1249680Y529550D02*
D03*
X1259180Y511850D02*
D03*
X1240180D02*
D03*
D81*
X1442200Y333850D02*
D03*
Y313850D02*
D03*
D82*
X1409700Y323850D02*
D03*
D86*
X1093069Y538797D02*
D03*
X1060851D02*
D03*
D89*
X997420Y674490D02*
D03*
D90*
X997920Y689490D02*
D03*
D91*
X319680Y681520D02*
D03*
X269680D02*
D03*
X274680D02*
D03*
X279680D02*
D03*
X284680D02*
D03*
X289680D02*
D03*
X294680D02*
D03*
X299680D02*
D03*
X304680D02*
D03*
X309680D02*
D03*
X314680D02*
D03*
X324680D02*
D03*
Y766280D02*
D03*
X319680D02*
D03*
X314680D02*
D03*
X309680D02*
D03*
X304680D02*
D03*
X299680D02*
D03*
X294680D02*
D03*
X289680D02*
D03*
X284680D02*
D03*
X279680D02*
D03*
X274680D02*
D03*
X269680D02*
D03*
D92*
X339560Y711400D02*
D03*
Y696400D02*
D03*
Y701400D02*
D03*
Y706400D02*
D03*
Y716400D02*
D03*
X254800Y751400D02*
D03*
Y746400D02*
D03*
Y741400D02*
D03*
Y736400D02*
D03*
Y731400D02*
D03*
Y726400D02*
D03*
Y721400D02*
D03*
Y716400D02*
D03*
Y711400D02*
D03*
Y706400D02*
D03*
Y701400D02*
D03*
Y696400D02*
D03*
X339560Y721400D02*
D03*
Y726400D02*
D03*
Y731400D02*
D03*
Y736400D02*
D03*
Y741400D02*
D03*
Y751400D02*
D03*
Y746400D02*
D03*
D93*
X1331200Y269240D02*
D03*
X1346200D02*
D03*
X1331080Y289560D02*
D03*
X1346080D02*
D03*
D94*
X1401650Y472500D02*
D03*
Y477500D02*
D03*
Y482500D02*
D03*
Y487500D02*
D03*
Y492500D02*
D03*
Y497500D02*
D03*
Y502500D02*
D03*
Y507500D02*
D03*
Y512500D02*
D03*
Y517500D02*
D03*
Y522500D02*
D03*
Y527500D02*
D03*
D95*
X742950Y419610D02*
D03*
Y435610D02*
D03*
X819150Y435230D02*
D03*
Y451230D02*
D03*
X1282700Y44070D02*
D03*
Y60070D02*
D03*
X1238250Y628648D02*
D03*
Y612648D02*
D03*
X1137920Y809370D02*
D03*
Y793370D02*
D03*
X1116330Y809370D02*
D03*
Y793370D02*
D03*
X922100Y763650D02*
D03*
Y747650D02*
D03*
X901780Y763650D02*
D03*
Y747650D02*
D03*
X474980Y436500D02*
D03*
Y452500D02*
D03*
X628540Y911480D02*
D03*
Y927480D02*
D03*
X607060Y911480D02*
D03*
Y927480D02*
D03*
Y889380D02*
D03*
Y873380D02*
D03*
X544830Y905890D02*
D03*
Y889890D02*
D03*
X938369Y544576D02*
D03*
Y528576D02*
D03*
X959309Y544576D02*
D03*
Y528576D02*
D03*
X896459Y524256D02*
D03*
Y508256D02*
D03*
X874869Y524256D02*
D03*
Y508256D02*
D03*
X1238250Y575312D02*
D03*
Y591312D02*
D03*
X1037590Y463170D02*
D03*
Y479170D02*
D03*
X1107440Y475870D02*
D03*
Y491870D02*
D03*
X1285240Y512700D02*
D03*
Y528700D02*
D03*
X1129030Y475870D02*
D03*
Y491870D02*
D03*
X367030Y743840D02*
D03*
Y759840D02*
D03*
X200580Y692530D02*
D03*
Y676530D02*
D03*
X220900Y692530D02*
D03*
Y676530D02*
D03*
D96*
X721360Y435750D02*
D03*
Y453250D02*
D03*
X1357630Y704710D02*
D03*
Y687210D02*
D03*
X1291590Y683400D02*
D03*
Y700900D02*
D03*
X566420Y906640D02*
D03*
Y889140D02*
D03*
X628650Y872630D02*
D03*
Y890130D02*
D03*
X1084580Y437020D02*
D03*
Y454520D02*
D03*
X1064260Y437020D02*
D03*
Y454520D02*
D03*
X1193800Y511950D02*
D03*
Y529450D02*
D03*
X1240790Y663080D02*
D03*
Y680580D02*
D03*
Y702310D02*
D03*
Y719810D02*
D03*
X1219590Y680440D02*
D03*
Y662940D02*
D03*
D97*
X742950Y471970D02*
D03*
Y458470D02*
D03*
X570230Y713810D02*
D03*
Y700310D02*
D03*
X633730Y638410D02*
D03*
Y651910D02*
D03*
X398780Y432670D02*
D03*
Y446170D02*
D03*
Y391560D02*
D03*
Y378060D02*
D03*
X205740Y400450D02*
D03*
Y386950D02*
D03*
X1103630Y439020D02*
D03*
Y452520D02*
D03*
X95330Y679050D02*
D03*
Y692550D02*
D03*
D98*
X767005Y405055D02*
D03*
X910000Y925000D02*
D03*
X447040Y875030D02*
D03*
X885000Y925000D02*
D03*
D99*
X83440Y398780D02*
D03*
X99440D02*
D03*
X190120Y132080D02*
D03*
X206120D02*
D03*
X85980Y179070D02*
D03*
X101980D02*
D03*
X1396110Y708660D02*
D03*
X1380110D02*
D03*
X1062610Y652780D02*
D03*
X1078610D02*
D03*
X571880Y934720D02*
D03*
X555880D02*
D03*
X512190Y482600D02*
D03*
X496190D02*
D03*
X230250Y852090D02*
D03*
X214250D02*
D03*
X230250Y873680D02*
D03*
X214250D02*
D03*
X808020Y659130D02*
D03*
X792020D02*
D03*
X808020Y638810D02*
D03*
X792020D02*
D03*
X1403730Y416560D02*
D03*
X1387730D02*
D03*
X1407540Y222250D02*
D03*
X1391540D02*
D03*
X1407460Y243840D02*
D03*
X1391460D02*
D03*
X1349630D02*
D03*
X1365630D02*
D03*
X1349630Y222250D02*
D03*
X1365630D02*
D03*
X263780Y791210D02*
D03*
X279780D02*
D03*
X229870Y760730D02*
D03*
X213870D02*
D03*
X334390Y656590D02*
D03*
X318390D02*
D03*
Y636270D02*
D03*
X334390D02*
D03*
X593980Y541020D02*
D03*
X609980D02*
D03*
D100*
X1120140Y756770D02*
D03*
Y769770D02*
D03*
X631190Y822810D02*
D03*
Y835810D02*
D03*
X588010Y700560D02*
D03*
Y713560D02*
D03*
X552450D02*
D03*
Y700560D02*
D03*
X187960Y387200D02*
D03*
Y400200D02*
D03*
X807640Y545950D02*
D03*
Y558950D02*
D03*
X706120Y556410D02*
D03*
Y543410D02*
D03*
X1280160Y628858D02*
D03*
Y641858D02*
D03*
X75010Y692300D02*
D03*
Y679300D02*
D03*
X417830Y862180D02*
D03*
Y875180D02*
D03*
D101*
X1103630Y755770D02*
D03*
Y770770D02*
D03*
X1262380Y628008D02*
D03*
Y643008D02*
D03*
D102*
X1049560Y672240D02*
D03*
Y678740D02*
D03*
Y691740D02*
D03*
X1091660D02*
D03*
Y685240D02*
D03*
Y678740D02*
D03*
Y672240D02*
D03*
X1049560Y685240D02*
D03*
D103*
X1014450Y715010D02*
D03*
X996950D02*
D03*
X740550Y670560D02*
D03*
X758050D02*
D03*
X1379360Y730250D02*
D03*
X1396860D02*
D03*
X1376768Y643546D02*
D03*
X1359268D02*
D03*
X1398410Y643890D02*
D03*
X1415910D02*
D03*
X1404480Y438150D02*
D03*
X1386980D02*
D03*
X1413650Y290830D02*
D03*
X1431150D02*
D03*
X1310780Y248920D02*
D03*
X1328280D02*
D03*
X1413650Y269240D02*
D03*
X1431150D02*
D03*
D104*
X1052980Y918210D02*
D03*
X1039980D02*
D03*
X382120Y819150D02*
D03*
X395120D02*
D03*
X1313180Y269240D02*
D03*
X1300180D02*
D03*
X1313330Y289560D02*
D03*
X1300330D02*
D03*
D105*
X1024270Y918210D02*
D03*
X1010270D02*
D03*
D106*
X1009650Y955030D02*
D03*
D107*
X994900Y970280D02*
D03*
X1024400D02*
D03*
D108*
X603250Y841310D02*
D03*
Y817310D02*
D03*
D109*
X576980Y840740D02*
D03*
X563480D02*
D03*
X576980Y817880D02*
D03*
X563480D02*
D03*
X891779Y480696D02*
D03*
X878279D02*
D03*
X185820Y736600D02*
D03*
X172320D02*
D03*
X185820Y716280D02*
D03*
X172320D02*
D03*
D110*
X533430Y600320D02*
D03*
Y583320D02*
D03*
X1306830Y626228D02*
D03*
Y609228D02*
D03*
D111*
X550560Y588400D02*
D03*
Y595400D02*
D03*
D112*
X528440Y450850D02*
D03*
X543440D02*
D03*
X1295280Y115570D02*
D03*
X1280280D02*
D03*
X528440Y438150D02*
D03*
X543440D02*
D03*
X1295280Y88900D02*
D03*
X1280280D02*
D03*
D113*
X380120Y835660D02*
D03*
X397120D02*
D03*
X770010Y477520D02*
D03*
X787010D02*
D03*
D114*
X327060Y860837D02*
D03*
X316453Y871443D02*
D03*
X298262Y832897D02*
D03*
X287655Y843503D02*
D03*
D115*
X1418180Y620050D02*
D03*
X1411680D02*
D03*
X1405180D02*
D03*
X1398680D02*
D03*
X1357760D02*
D03*
X1364260D02*
D03*
X1370760D02*
D03*
X1377260D02*
D03*
D116*
X1410935Y601555D02*
D03*
X1370015D02*
D03*
D117*
X1388960Y264160D02*
D03*
Y269160D02*
D03*
Y274160D02*
D03*
Y279160D02*
D03*
Y284160D02*
D03*
X1369060D02*
D03*
Y279160D02*
D03*
Y274160D02*
D03*
Y269160D02*
D03*
Y264160D02*
D03*
D118*
X1379010Y274160D02*
D03*
D119*
X516190Y465390D02*
D03*
Y457390D02*
D03*
Y449390D02*
D03*
Y441390D02*
D03*
X492190Y441190D02*
D03*
Y449390D02*
D03*
Y457390D02*
D03*
Y465390D02*
D03*
D120*
X511810Y904575D02*
D03*
X128270Y769850D02*
D03*
D121*
X511810Y822625D02*
D03*
X128270Y677950D02*
D03*
D122*
X748030Y622300D02*
D03*
D123*
X724330Y607300D02*
D03*
Y612300D02*
D03*
Y617300D02*
D03*
Y622300D02*
D03*
Y627300D02*
D03*
Y632300D02*
D03*
Y637300D02*
D03*
X771730D02*
D03*
Y632300D02*
D03*
Y627300D02*
D03*
Y622300D02*
D03*
Y617300D02*
D03*
Y612300D02*
D03*
Y607300D02*
D03*
D124*
X763030Y598600D02*
D03*
X758030D02*
D03*
X753030D02*
D03*
X748030D02*
D03*
X743030D02*
D03*
X738030D02*
D03*
X733030D02*
D03*
Y646000D02*
D03*
X738030D02*
D03*
X743030D02*
D03*
X748030D02*
D03*
X753030D02*
D03*
X758030D02*
D03*
X763030D02*
D03*
D125*
X903739Y461646D02*
D03*
X924739D02*
D03*
D126*
X960569D02*
D03*
X941569D02*
D03*
D127*
X537770Y662940D02*
D03*
Y637540D02*
D03*
X607770Y662940D02*
D03*
Y637540D02*
D03*
D128*
X560270Y675640D02*
D03*
X572770D02*
D03*
X585270D02*
D03*
X560270Y624840D02*
D03*
X572770D02*
D03*
X585270D02*
D03*
D129*
X950000Y750000D02*
D03*
Y761000D02*
D03*
Y772000D02*
D03*
Y783000D02*
D03*
Y794000D02*
D03*
Y805000D02*
D03*
Y816000D02*
D03*
Y846000D02*
D03*
Y857000D02*
D03*
Y868000D02*
D03*
Y879000D02*
D03*
Y890000D02*
D03*
X1070000D02*
D03*
Y879000D02*
D03*
Y868000D02*
D03*
Y857000D02*
D03*
Y846000D02*
D03*
Y816000D02*
D03*
Y805000D02*
D03*
Y794000D02*
D03*
Y783000D02*
D03*
Y772000D02*
D03*
Y761000D02*
D03*
Y750000D02*
D03*
D130*
X1216660Y509575D02*
D03*
Y531825D02*
D03*
D131*
X1340590Y514350D02*
D03*
X1306090D02*
D03*
D132*
X1380490Y466140D02*
D03*
Y485140D02*
D03*
D133*
X1258080Y697150D02*
D03*
Y692150D02*
D03*
Y687150D02*
D03*
X1275080D02*
D03*
Y692150D02*
D03*
Y697150D02*
D03*
D134*
X1400000Y100000D02*
D03*
X100000D02*
D03*
Y900000D02*
D03*
D135*
X924560Y834150D02*
D03*
Y819150D02*
D03*
Y787640D02*
D03*
Y802640D02*
D03*
X1369060Y830700D02*
D03*
Y845700D02*
D03*
D136*
X213360Y718210D02*
D03*
Y737210D02*
D03*
D137*
X54610Y817880D02*
D03*
Y805180D02*
D03*
X67310Y817880D02*
D03*
Y805180D02*
D03*
X80010Y817880D02*
D03*
Y805180D02*
D03*
D138*
X1330590Y537210D02*
D03*
X1316090D02*
D03*
D139*
X386600Y955000D02*
D03*
X361200D02*
D03*
X335800D02*
D03*
X310400D02*
D03*
X285000D02*
D03*
X259600D02*
D03*
X234200D02*
D03*
X50000Y424600D02*
D03*
Y450000D02*
D03*
Y475400D02*
D03*
Y255800D02*
D03*
Y230400D02*
D03*
Y205000D02*
D03*
X550000Y965000D02*
D03*
X524600D02*
D03*
X1419860Y162560D02*
D03*
D140*
X208800Y955000D02*
D03*
X575400Y965000D02*
D03*
D141*
X435180Y939530D02*
D03*
X165620Y561300D02*
D03*
Y939760D02*
D03*
X434860Y561300D02*
D03*
D142*
X950000Y55000D02*
D03*
Y335000D02*
D03*
X550000D02*
D03*
Y55000D02*
D03*
D143*
X1408250Y536000D02*
D03*
D144*
X1418250Y540050D02*
D03*
Y459950D02*
D03*
D145*
X1421750Y543300D02*
D03*
Y456700D02*
D03*
X1480250D02*
D03*
Y543300D02*
D03*
D146*
X1408250Y464000D02*
D03*
D147*
X1414750Y496000D02*
D03*
Y504000D02*
D03*
D148*
Y488000D02*
D03*
Y472000D02*
D03*
Y512000D02*
D03*
Y528000D02*
D03*
X1421750Y492000D02*
D03*
Y484000D02*
D03*
Y476000D02*
D03*
Y508000D02*
D03*
Y516000D02*
D03*
Y524000D02*
D03*
X1379220Y266700D02*
D03*
Y281940D02*
D03*
X1379010Y274160D02*
D03*
X1416558Y607060D02*
D03*
Y598170D02*
D03*
X1409192Y602742D02*
D03*
X1400810Y607060D02*
D03*
X1401064Y598170D02*
D03*
X1375130Y606970D02*
D03*
X1359890D02*
D03*
X1367256Y602906D02*
D03*
X1375130Y598080D02*
D03*
X1359890D02*
D03*
D149*
X300000Y482000D02*
D03*
Y368000D02*
D03*
D150*
X375000Y425000D02*
D03*
Y450000D02*
D03*
Y400000D02*
D03*
X230000D02*
D03*
Y450000D02*
D03*
D151*
X50000Y399200D02*
D03*
Y179600D02*
D03*
X1394460Y162560D02*
D03*
D152*
X239976Y132408D02*
D03*
X370024D02*
D03*
Y207592D02*
D03*
X305000Y94816D02*
D03*
X239976Y207592D02*
D03*
D153*
X596250Y507000D02*
D03*
D154*
X608750D02*
D03*
X621250D02*
D03*
X633750D02*
D03*
X646250D02*
D03*
X658750D02*
D03*
X671250D02*
D03*
X683750D02*
D03*
D155*
X1251000Y39000D02*
D03*
D156*
Y64400D02*
D03*
Y89800D02*
D03*
Y115200D02*
D03*
Y140600D02*
D03*
Y166000D02*
D03*
Y191400D02*
D03*
D157*
X1212250Y40000D02*
D03*
X1050000Y360000D02*
D03*
D158*
X1429600Y800260D02*
D03*
D159*
Y820260D02*
D03*
D160*
X1127760Y574040D02*
D03*
X1153160D02*
D03*
D161*
X1178560D02*
D03*
D162*
X1235710Y474980D02*
D03*
X901700Y598170D02*
D03*
X1346200Y161290D02*
D03*
X1013460Y427990D02*
D03*
D163*
X1450000Y50000D02*
D03*
Y950000D02*
D03*
X50000D02*
D03*
Y50000D02*
D03*
D164*
X41910Y811530D02*
D03*
X92710Y821690D02*
D03*
Y801370D02*
D03*
D165*
X41910Y836930D02*
D03*
Y786130D02*
D03*
X73660Y836930D02*
D03*
Y786130D02*
D03*
D166*
X1145540Y477520D02*
D03*
X1346200Y207010D02*
D03*
X1135380Y457200D02*
D03*
X1145540D02*
D03*
X1333500Y227330D02*
D03*
Y207010D02*
D03*
Y217170D02*
D03*
X1145540Y467360D02*
D03*
X1263650Y575310D02*
D03*
X1273810D02*
D03*
X1046480Y435610D02*
D03*
X1036320Y448310D02*
D03*
Y435610D02*
D03*
X1183640Y543560D02*
D03*
X1195070D02*
D03*
Y552450D02*
D03*
X1183640D02*
D03*
X1377260Y628900D02*
D03*
X1125220Y457200D02*
D03*
X1423670Y245110D02*
D03*
Y233680D02*
D03*
Y220980D02*
D03*
X1433830D02*
D03*
Y245110D02*
D03*
Y233680D02*
D03*
X1238250Y642620D02*
D03*
X1276350Y601980D02*
D03*
X1285240Y552450D02*
D03*
Y543560D02*
D03*
X1343660Y537210D02*
D03*
X739140Y612140D02*
D03*
X748030Y622300D02*
D03*
X756920Y632460D02*
D03*
X739140D02*
D03*
X756920Y612140D02*
D03*
X875030Y494030D02*
D03*
X863600D02*
D03*
X852170D02*
D03*
X852009Y509906D02*
D03*
X860899D02*
D03*
X852009Y480696D02*
D03*
X863439D02*
D03*
X950646Y561976D02*
D03*
X977739D02*
D03*
Y544196D02*
D03*
X937099Y561976D02*
D03*
X964193D02*
D03*
X1130300Y523240D02*
D03*
X1117600D02*
D03*
X1004570Y565150D02*
D03*
Y552450D02*
D03*
Y539750D02*
D03*
X1073150Y575310D02*
D03*
X1085850D02*
D03*
X1098550D02*
D03*
X1107440Y509270D02*
D03*
X1118870D02*
D03*
X1130300D02*
D03*
X1129030Y539750D02*
D03*
X1117600D02*
D03*
X1106170D02*
D03*
X844550Y407670D02*
D03*
Y419100D02*
D03*
Y431800D02*
D03*
X833120Y407670D02*
D03*
Y419100D02*
D03*
X820420D02*
D03*
Y407670D02*
D03*
X703580Y434340D02*
D03*
X692150D02*
D03*
X680720D02*
D03*
X703580Y424180D02*
D03*
X692150D02*
D03*
X680720D02*
D03*
X833120Y431800D02*
D03*
X1008380Y488950D02*
D03*
X1018540D02*
D03*
X1008380Y478790D02*
D03*
X1018540D02*
D03*
X1008380Y497840D02*
D03*
X1018540D02*
D03*
Y506730D02*
D03*
X1008380D02*
D03*
X1214120Y626110D02*
D03*
Y617220D02*
D03*
Y608330D02*
D03*
X1203960D02*
D03*
Y617220D02*
D03*
Y626110D02*
D03*
X1248410Y539750D02*
D03*
X1238250D02*
D03*
X1228090D02*
D03*
Y548640D02*
D03*
X1238250D02*
D03*
X1248410D02*
D03*
X1217930D02*
D03*
X1376426Y514096D02*
D03*
X1366774D02*
D03*
X1356868D02*
D03*
M02*
