G04*
G04 #@! TF.GenerationSoftware,Altium Limited,Altium Designer,24.9.1 (31)*
G04*
G04 Layer_Color=32896*
%FSLAX44Y44*%
%MOMM*%
G71*
G04*
G04 #@! TF.SameCoordinates,A601D634-93CA-4805-8520-E3EE879C7AED*
G04*
G04*
G04 #@! TF.FilePolarity,Positive*
G04*
G01*
G75*
%ADD10C,0.1270*%
%ADD15C,0.2000*%
%ADD18C,0.1500*%
G36*
X1439426Y489122D02*
X1439525D01*
X1439553Y489108D01*
X1439567D01*
X1439637Y489094D01*
X1439651Y489080D01*
X1439665D01*
X1439708Y489066D01*
X1439722Y489052D01*
X1441526Y487896D01*
X1441597Y487854D01*
X1441611Y487840D01*
X1441625Y487826D01*
X1441653Y487769D01*
X1441667Y487755D01*
Y487741D01*
X1441681Y487699D01*
Y487656D01*
X1441695Y487628D01*
Y487614D01*
Y487501D01*
Y487459D01*
Y487445D01*
Y487346D01*
X1441681Y487276D01*
Y487219D01*
Y487205D01*
X1441667Y487149D01*
X1441653Y487107D01*
X1441625Y487092D01*
Y487078D01*
X1441583Y487050D01*
X1441512D01*
X1441456Y487064D01*
X1441399Y487092D01*
X1441343Y487121D01*
X1441329Y487135D01*
X1439806Y488037D01*
Y482046D01*
X1441456D01*
X1441512Y482032D01*
X1441526Y482018D01*
X1441540D01*
X1441597Y481961D01*
X1441611Y481947D01*
Y481933D01*
X1441639Y481848D01*
X1441653Y481806D01*
Y481792D01*
X1441667Y481736D01*
Y481679D01*
Y481623D01*
Y481609D01*
Y481524D01*
X1441653Y481468D01*
Y481426D01*
Y481411D01*
X1441625Y481327D01*
X1441611Y481299D01*
Y481284D01*
X1441554Y481228D01*
X1441540Y481214D01*
X1441484Y481200D01*
X1437339D01*
X1437283Y481214D01*
X1437255D01*
X1437198Y481256D01*
X1437184Y481284D01*
X1437156Y481369D01*
X1437142Y481397D01*
Y481411D01*
X1437128Y481482D01*
X1437114Y481538D01*
Y481595D01*
Y481609D01*
Y481679D01*
X1437128Y481750D01*
X1437142Y481778D01*
Y481792D01*
X1437156Y481848D01*
X1437170Y481891D01*
X1437184Y481919D01*
Y481933D01*
X1437227Y482003D01*
X1437241Y482018D01*
X1437255D01*
X1437311Y482046D01*
X1438763D01*
Y488953D01*
X1438777Y489010D01*
X1438791Y489024D01*
X1438806Y489052D01*
X1438834Y489066D01*
X1438848Y489080D01*
X1438862D01*
X1438904Y489094D01*
X1438961Y489108D01*
X1439003Y489122D01*
X1439017D01*
X1439102Y489137D01*
X1439384D01*
X1439426Y489122D01*
D02*
G37*
G36*
X1432758Y489179D02*
X1432984Y489165D01*
X1433195Y489137D01*
X1433364Y489108D01*
X1433505Y489066D01*
X1433618Y489038D01*
X1433674Y489024D01*
X1433702Y489010D01*
X1433886Y488939D01*
X1434041Y488855D01*
X1434196Y488770D01*
X1434323Y488685D01*
X1434421Y488615D01*
X1434492Y488559D01*
X1434548Y488516D01*
X1434562Y488502D01*
X1434689Y488375D01*
X1434816Y488262D01*
X1434915Y488136D01*
X1434999Y488023D01*
X1435070Y487924D01*
X1435126Y487840D01*
X1435154Y487783D01*
X1435168Y487769D01*
X1435324Y487445D01*
X1435394Y487304D01*
X1435450Y487163D01*
X1435493Y487036D01*
X1435521Y486951D01*
X1435549Y486895D01*
Y486867D01*
X1435634Y486515D01*
X1435676Y486345D01*
X1435704Y486190D01*
X1435718Y486063D01*
X1435732Y485951D01*
X1435746Y485894D01*
Y485866D01*
X1435775Y485485D01*
Y485316D01*
X1435789Y485161D01*
Y485020D01*
Y484921D01*
Y484865D01*
Y484837D01*
Y484626D01*
X1435775Y484428D01*
Y484245D01*
X1435761Y484090D01*
Y483963D01*
X1435746Y483850D01*
Y483794D01*
Y483766D01*
X1435732Y483582D01*
X1435704Y483413D01*
X1435676Y483258D01*
X1435648Y483117D01*
X1435634Y483004D01*
X1435605Y482920D01*
X1435591Y482863D01*
Y482849D01*
X1435549Y482694D01*
X1435493Y482553D01*
X1435450Y482426D01*
X1435394Y482314D01*
X1435366Y482229D01*
X1435324Y482159D01*
X1435309Y482116D01*
X1435295Y482102D01*
X1435140Y481877D01*
X1435056Y481792D01*
X1434985Y481707D01*
X1434929Y481637D01*
X1434872Y481595D01*
X1434844Y481566D01*
X1434830Y481552D01*
X1434605Y481397D01*
X1434393Y481299D01*
X1434309Y481256D01*
X1434224Y481228D01*
X1434182Y481200D01*
X1434168D01*
X1433872Y481129D01*
X1433716Y481115D01*
X1433590Y481101D01*
X1433463Y481087D01*
X1433294D01*
X1433040Y481101D01*
X1432814Y481115D01*
X1432617Y481158D01*
X1432448Y481200D01*
X1432307Y481228D01*
X1432194Y481270D01*
X1432138Y481284D01*
X1432110Y481299D01*
X1431926Y481383D01*
X1431771Y481482D01*
X1431616Y481581D01*
X1431503Y481679D01*
X1431405Y481764D01*
X1431334Y481834D01*
X1431292Y481877D01*
X1431278Y481891D01*
X1431165Y482032D01*
X1431052Y482173D01*
X1430968Y482314D01*
X1430897Y482454D01*
X1430855Y482567D01*
X1430813Y482652D01*
X1430784Y482722D01*
Y482737D01*
X1430728Y482920D01*
X1430686Y483103D01*
X1430658Y483272D01*
X1430629Y483427D01*
Y483554D01*
X1430615Y483667D01*
Y483723D01*
Y483751D01*
Y483935D01*
X1430629Y484090D01*
X1430658Y484245D01*
X1430672Y484372D01*
X1430700Y484484D01*
X1430728Y484569D01*
X1430742Y484626D01*
Y484640D01*
X1430784Y484795D01*
X1430855Y484936D01*
X1430911Y485062D01*
X1430968Y485161D01*
X1431038Y485246D01*
X1431080Y485316D01*
X1431109Y485359D01*
X1431123Y485373D01*
X1431235Y485485D01*
X1431348Y485584D01*
X1431461Y485655D01*
X1431588Y485725D01*
X1431687Y485781D01*
X1431771Y485824D01*
X1431828Y485838D01*
X1431842Y485852D01*
X1432011Y485908D01*
X1432194Y485965D01*
X1432377Y485993D01*
X1432547Y486007D01*
X1432687Y486021D01*
X1432800Y486035D01*
X1432913D01*
X1433124Y486021D01*
X1433308Y486007D01*
X1433378Y485993D01*
X1433435D01*
X1433463Y485979D01*
X1433477D01*
X1433660Y485951D01*
X1433815Y485908D01*
X1433886Y485894D01*
X1433928Y485880D01*
X1433956Y485866D01*
X1433970D01*
X1434139Y485810D01*
X1434266Y485753D01*
X1434323Y485739D01*
X1434365Y485711D01*
X1434393Y485697D01*
X1434407D01*
X1434548Y485626D01*
X1434661Y485570D01*
X1434731Y485528D01*
X1434746Y485514D01*
X1434760D01*
X1434746Y485725D01*
X1434731Y485922D01*
X1434703Y486106D01*
X1434675Y486261D01*
X1434661Y486402D01*
X1434633Y486500D01*
X1434619Y486557D01*
Y486585D01*
X1434562Y486768D01*
X1434506Y486951D01*
X1434435Y487107D01*
X1434379Y487233D01*
X1434323Y487346D01*
X1434280Y487431D01*
X1434252Y487487D01*
X1434238Y487501D01*
X1434125Y487642D01*
X1434012Y487769D01*
X1433900Y487868D01*
X1433801Y487966D01*
X1433702Y488023D01*
X1433632Y488079D01*
X1433575Y488107D01*
X1433561Y488121D01*
X1433406Y488206D01*
X1433237Y488262D01*
X1433068Y488305D01*
X1432927Y488333D01*
X1432786Y488347D01*
X1432687Y488361D01*
X1432589D01*
X1432377Y488347D01*
X1432279D01*
X1432208Y488333D01*
X1432138Y488319D01*
X1432095D01*
X1432067Y488305D01*
X1432053D01*
X1431884Y488277D01*
X1431771Y488234D01*
X1431687Y488220D01*
X1431658Y488206D01*
X1431546Y488178D01*
X1431447Y488150D01*
X1431391Y488136D01*
X1431376Y488121D01*
X1431292Y488093D01*
X1431235Y488079D01*
X1431193D01*
X1431123Y488093D01*
X1431109Y488107D01*
X1431066Y488150D01*
X1431052Y488178D01*
X1431038Y488220D01*
X1431024Y488262D01*
Y488291D01*
Y488305D01*
X1431010Y488375D01*
Y488432D01*
Y488474D01*
Y488488D01*
Y488544D01*
Y488587D01*
X1431024Y488615D01*
Y488629D01*
Y488714D01*
X1431038Y488728D01*
Y488742D01*
X1431066Y488798D01*
X1431080Y488826D01*
X1431109Y488883D01*
X1431123Y488897D01*
X1431137D01*
X1431179Y488925D01*
X1431250Y488953D01*
X1431292Y488967D01*
X1431320Y488981D01*
X1431419Y489024D01*
X1431532Y489052D01*
X1431616Y489080D01*
X1431644D01*
X1431799Y489122D01*
X1431926Y489151D01*
X1431983D01*
X1432025Y489165D01*
X1432067D01*
X1432236Y489179D01*
X1432377Y489193D01*
X1432518D01*
X1432758Y489179D01*
D02*
G37*
G36*
X1449421Y489108D02*
X1449477Y489094D01*
X1449491D01*
X1449547Y489080D01*
X1449604Y489066D01*
X1449632Y489052D01*
X1449646D01*
X1449702Y489024D01*
X1449731Y489010D01*
Y488996D01*
X1449745Y488953D01*
Y488939D01*
Y488925D01*
Y484033D01*
X1449731Y483766D01*
X1449717Y483526D01*
X1449688Y483300D01*
X1449646Y483117D01*
X1449604Y482962D01*
X1449576Y482849D01*
X1449561Y482779D01*
X1449547Y482751D01*
X1449463Y482553D01*
X1449364Y482370D01*
X1449265Y482215D01*
X1449167Y482074D01*
X1449082Y481975D01*
X1449012Y481891D01*
X1448970Y481834D01*
X1448955Y481820D01*
X1448800Y481693D01*
X1448645Y481581D01*
X1448504Y481482D01*
X1448349Y481411D01*
X1448222Y481355D01*
X1448124Y481299D01*
X1448067Y481284D01*
X1448039Y481270D01*
X1447828Y481214D01*
X1447630Y481172D01*
X1447433Y481129D01*
X1447250Y481115D01*
X1447095Y481101D01*
X1446968Y481087D01*
X1446855D01*
X1446587Y481101D01*
X1446347Y481115D01*
X1446136Y481143D01*
X1445953Y481186D01*
X1445798Y481228D01*
X1445685Y481256D01*
X1445614Y481270D01*
X1445586Y481284D01*
X1445389Y481369D01*
X1445191Y481454D01*
X1445036Y481552D01*
X1444895Y481651D01*
X1444783Y481736D01*
X1444698Y481806D01*
X1444642Y481848D01*
X1444628Y481862D01*
X1444487Y482018D01*
X1444360Y482173D01*
X1444261Y482342D01*
X1444176Y482497D01*
X1444106Y482624D01*
X1444064Y482722D01*
X1444035Y482793D01*
X1444021Y482821D01*
X1443951Y483032D01*
X1443895Y483258D01*
X1443866Y483470D01*
X1443838Y483681D01*
X1443824Y483850D01*
X1443810Y483977D01*
Y484033D01*
Y484076D01*
Y484090D01*
Y484104D01*
Y488925D01*
X1443824Y488981D01*
X1443838Y488996D01*
X1443866Y489024D01*
X1443895Y489038D01*
X1443923Y489052D01*
X1443937D01*
X1443979Y489066D01*
X1444035Y489080D01*
X1444078Y489094D01*
X1444092D01*
X1444176Y489108D01*
X1444247Y489122D01*
X1444430D01*
X1444515Y489108D01*
X1444571Y489094D01*
X1444585D01*
X1444656Y489080D01*
X1444712Y489066D01*
X1444740Y489052D01*
X1444754D01*
X1444811Y489024D01*
X1444839Y489010D01*
Y488996D01*
X1444853Y488953D01*
Y488939D01*
Y488925D01*
Y484104D01*
Y483921D01*
X1444881Y483737D01*
X1444895Y483582D01*
X1444924Y483441D01*
X1444952Y483329D01*
X1444966Y483244D01*
X1444994Y483188D01*
Y483173D01*
X1445051Y483032D01*
X1445107Y482906D01*
X1445163Y482793D01*
X1445234Y482694D01*
X1445290Y482624D01*
X1445332Y482553D01*
X1445361Y482525D01*
X1445375Y482511D01*
X1445572Y482342D01*
X1445755Y482215D01*
X1445840Y482173D01*
X1445910Y482144D01*
X1445953Y482116D01*
X1445967D01*
X1446249Y482046D01*
X1446376Y482018D01*
X1446503Y482003D01*
X1446615D01*
X1446700Y481989D01*
X1446784D01*
X1447095Y482003D01*
X1447236Y482032D01*
X1447348Y482060D01*
X1447447Y482074D01*
X1447518Y482102D01*
X1447574Y482116D01*
X1447588D01*
X1447828Y482243D01*
X1447940Y482314D01*
X1448025Y482370D01*
X1448096Y482426D01*
X1448152Y482483D01*
X1448180Y482511D01*
X1448194Y482525D01*
X1448363Y482751D01*
X1448476Y482962D01*
X1448518Y483061D01*
X1448547Y483131D01*
X1448575Y483188D01*
Y483202D01*
X1448645Y483526D01*
X1448673Y483681D01*
X1448687Y483836D01*
Y483963D01*
X1448702Y484062D01*
Y484132D01*
Y484160D01*
Y488925D01*
X1448716Y488981D01*
X1448730Y488996D01*
X1448786Y489038D01*
X1448800Y489052D01*
X1448814D01*
X1448871Y489066D01*
X1448913Y489080D01*
X1448970Y489094D01*
X1448984D01*
X1449068Y489108D01*
X1449139Y489122D01*
X1449336D01*
X1449421Y489108D01*
D02*
G37*
G36*
X1449753Y539951D02*
X1449852D01*
X1449880Y539936D01*
X1449894D01*
X1449965Y539922D01*
X1449979Y539908D01*
X1449993D01*
X1450035Y539894D01*
X1450049Y539880D01*
X1451854Y538724D01*
X1451924Y538682D01*
X1451938Y538668D01*
X1451952Y538654D01*
X1451981Y538597D01*
X1451995Y538583D01*
Y538569D01*
X1452009Y538527D01*
Y538484D01*
X1452023Y538456D01*
Y538442D01*
Y538330D01*
Y538287D01*
Y538273D01*
Y538174D01*
X1452009Y538104D01*
Y538047D01*
Y538033D01*
X1451995Y537977D01*
X1451981Y537935D01*
X1451952Y537921D01*
Y537906D01*
X1451910Y537878D01*
X1451840D01*
X1451783Y537892D01*
X1451727Y537921D01*
X1451671Y537949D01*
X1451656Y537963D01*
X1450134Y538865D01*
Y532874D01*
X1451783D01*
X1451840Y532860D01*
X1451854Y532846D01*
X1451868D01*
X1451924Y532789D01*
X1451938Y532775D01*
Y532761D01*
X1451967Y532677D01*
X1451981Y532634D01*
Y532620D01*
X1451995Y532564D01*
Y532507D01*
Y532451D01*
Y532437D01*
Y532352D01*
X1451981Y532296D01*
Y532254D01*
Y532240D01*
X1451952Y532155D01*
X1451938Y532127D01*
Y532113D01*
X1451882Y532056D01*
X1451868Y532042D01*
X1451811Y532028D01*
X1447667D01*
X1447610Y532042D01*
X1447582D01*
X1447526Y532085D01*
X1447512Y532113D01*
X1447484Y532197D01*
X1447470Y532225D01*
Y532240D01*
X1447455Y532310D01*
X1447441Y532366D01*
Y532423D01*
Y532437D01*
Y532507D01*
X1447455Y532578D01*
X1447470Y532606D01*
Y532620D01*
X1447484Y532677D01*
X1447498Y532719D01*
X1447512Y532747D01*
Y532761D01*
X1447554Y532832D01*
X1447568Y532846D01*
X1447582D01*
X1447639Y532874D01*
X1449091D01*
Y539781D01*
X1449105Y539838D01*
X1449119Y539852D01*
X1449133Y539880D01*
X1449161Y539894D01*
X1449175Y539908D01*
X1449189D01*
X1449232Y539922D01*
X1449288Y539936D01*
X1449330Y539951D01*
X1449344D01*
X1449429Y539965D01*
X1449711D01*
X1449753Y539951D01*
D02*
G37*
G36*
X1445496Y539894D02*
X1445581Y539866D01*
X1445637Y539824D01*
X1445651Y539810D01*
X1445693Y539725D01*
X1445721Y539612D01*
X1445736Y539528D01*
Y539514D01*
Y539500D01*
Y536300D01*
X1445721Y536158D01*
X1445693Y536060D01*
X1445679Y536003D01*
X1445665Y535989D01*
X1445595Y535947D01*
X1445524Y535919D01*
X1445454Y535905D01*
X1445426D01*
X1445256Y535919D01*
X1445087Y535933D01*
X1445031D01*
X1444974Y535947D01*
X1444932D01*
X1444721Y535975D01*
X1444509Y535989D01*
X1444115D01*
X1443931Y535975D01*
X1443776Y535961D01*
X1443649Y535947D01*
X1443537Y535919D01*
X1443466Y535905D01*
X1443410Y535891D01*
X1443396D01*
X1443255Y535848D01*
X1443142Y535806D01*
X1443029Y535750D01*
X1442944Y535707D01*
X1442874Y535665D01*
X1442818Y535623D01*
X1442789Y535609D01*
X1442775Y535595D01*
X1442606Y535440D01*
X1442493Y535285D01*
X1442451Y535214D01*
X1442423Y535172D01*
X1442409Y535129D01*
Y535115D01*
X1442338Y534890D01*
X1442296Y534678D01*
X1442282Y534594D01*
Y534523D01*
Y534467D01*
Y534453D01*
Y534298D01*
X1442310Y534143D01*
X1442324Y534016D01*
X1442352Y533903D01*
X1442381Y533818D01*
X1442395Y533748D01*
X1442423Y533706D01*
Y533691D01*
X1442550Y533480D01*
X1442606Y533396D01*
X1442677Y533311D01*
X1442733Y533255D01*
X1442775Y533212D01*
X1442803Y533184D01*
X1442818Y533170D01*
X1443015Y533029D01*
X1443198Y532930D01*
X1443283Y532902D01*
X1443353Y532874D01*
X1443396Y532860D01*
X1443410D01*
X1443663Y532817D01*
X1443790Y532789D01*
X1443903D01*
X1444016Y532775D01*
X1444312D01*
X1444453Y532789D01*
X1444594Y532803D01*
X1444707Y532817D01*
X1444791D01*
X1444862Y532832D01*
X1444904Y532846D01*
X1444918D01*
X1445130Y532902D01*
X1445228Y532930D01*
X1445299Y532958D01*
X1445369Y532987D01*
X1445411Y533001D01*
X1445440Y533015D01*
X1445454D01*
X1445595Y533085D01*
X1445707Y533142D01*
X1445764Y533170D01*
X1445792Y533184D01*
X1445877Y533240D01*
X1445933Y533255D01*
X1445961Y533269D01*
X1445975D01*
X1446032Y533255D01*
X1446046Y533240D01*
X1446060D01*
X1446102Y533184D01*
X1446116Y533170D01*
Y533156D01*
X1446130Y533114D01*
Y533071D01*
X1446145Y533043D01*
Y533029D01*
Y532958D01*
Y532902D01*
Y532860D01*
Y532846D01*
Y532761D01*
Y532705D01*
Y532663D01*
Y532648D01*
X1446130Y532564D01*
Y532536D01*
Y532522D01*
X1446102Y532451D01*
X1446088Y532437D01*
Y532423D01*
X1446060Y532380D01*
X1446032Y532366D01*
Y532352D01*
X1445975Y532324D01*
X1445905Y532282D01*
X1445848Y532254D01*
X1445820Y532240D01*
X1445679Y532183D01*
X1445538Y532141D01*
X1445482Y532127D01*
X1445440Y532113D01*
X1445411Y532099D01*
X1445397D01*
X1445200Y532056D01*
X1445017Y532014D01*
X1444932Y532000D01*
X1444876Y531986D01*
X1444833Y531972D01*
X1444819D01*
X1444566Y531944D01*
X1444453Y531929D01*
X1444340D01*
X1444241Y531915D01*
X1444115D01*
X1443875Y531929D01*
X1443649Y531944D01*
X1443452Y531972D01*
X1443283Y532000D01*
X1443128Y532028D01*
X1443029Y532056D01*
X1442959Y532085D01*
X1442930D01*
X1442733Y532155D01*
X1442550Y532240D01*
X1442395Y532324D01*
X1442254Y532409D01*
X1442155Y532479D01*
X1442070Y532536D01*
X1442014Y532578D01*
X1442000Y532592D01*
X1441859Y532719D01*
X1441732Y532860D01*
X1441633Y533001D01*
X1441549Y533142D01*
X1441478Y533255D01*
X1441436Y533339D01*
X1441408Y533396D01*
X1441394Y533424D01*
X1441323Y533621D01*
X1441267Y533804D01*
X1441225Y534002D01*
X1441196Y534171D01*
X1441182Y534326D01*
X1441168Y534439D01*
Y534523D01*
Y534552D01*
Y534735D01*
X1441196Y534918D01*
X1441225Y535073D01*
X1441253Y535214D01*
X1441281Y535327D01*
X1441309Y535411D01*
X1441323Y535468D01*
X1441337Y535482D01*
X1441408Y535637D01*
X1441478Y535778D01*
X1441563Y535891D01*
X1441647Y536003D01*
X1441718Y536088D01*
X1441774Y536144D01*
X1441817Y536187D01*
X1441831Y536201D01*
X1441958Y536300D01*
X1442099Y536398D01*
X1442225Y536469D01*
X1442366Y536539D01*
X1442479Y536581D01*
X1442564Y536624D01*
X1442620Y536652D01*
X1442648D01*
X1442832Y536708D01*
X1443029Y536751D01*
X1443226Y536779D01*
X1443396Y536807D01*
X1443551D01*
X1443678Y536821D01*
X1444143D01*
X1444199Y536807D01*
X1444439D01*
X1444566Y536793D01*
X1444622Y536779D01*
X1444664D01*
X1444678Y536765D01*
X1444693D01*
Y538992D01*
X1441887D01*
X1441817Y539006D01*
X1441774Y539048D01*
X1441746Y539091D01*
X1441732Y539105D01*
X1441690Y539218D01*
X1441676Y539316D01*
X1441662Y539415D01*
Y539429D01*
Y539443D01*
Y539528D01*
X1441676Y539598D01*
X1441690Y539641D01*
Y539655D01*
X1441704Y539711D01*
X1441718Y539753D01*
X1441732Y539781D01*
Y539795D01*
X1441774Y539866D01*
X1441788Y539880D01*
X1441803D01*
X1441873Y539908D01*
X1445383D01*
X1445496Y539894D01*
D02*
G37*
G36*
X1458550D02*
X1458634Y539866D01*
X1458691Y539824D01*
X1458719Y539810D01*
X1458790Y539711D01*
X1458818Y539598D01*
X1458832Y539514D01*
Y539485D01*
Y539471D01*
Y532169D01*
X1458818Y532113D01*
Y532099D01*
Y532085D01*
X1458761Y532056D01*
X1458747Y532042D01*
X1458733D01*
X1458620Y532028D01*
X1458578Y532014D01*
X1458564D01*
X1458479Y532000D01*
X1458395Y531986D01*
X1458212D01*
X1458141Y532000D01*
X1458085Y532014D01*
X1458071D01*
X1458000Y532028D01*
X1457958D01*
X1457930Y532042D01*
X1457915D01*
X1457873Y532056D01*
X1457845Y532070D01*
X1457817Y532085D01*
X1457789Y532141D01*
Y532169D01*
Y535538D01*
X1457098D01*
X1456844Y535524D01*
X1456745Y535510D01*
X1456647Y535482D01*
X1456576Y535468D01*
X1456520Y535440D01*
X1456492Y535425D01*
X1456478D01*
X1456308Y535327D01*
X1456167Y535228D01*
X1456111Y535186D01*
X1456069Y535144D01*
X1456055Y535129D01*
X1456040Y535115D01*
X1455900Y534974D01*
X1455801Y534819D01*
X1455759Y534763D01*
X1455730Y534706D01*
X1455702Y534678D01*
Y534664D01*
X1455603Y534467D01*
X1455519Y534284D01*
X1455477Y534199D01*
X1455463Y534143D01*
X1455434Y534100D01*
Y534086D01*
X1454715Y532225D01*
X1454673Y532141D01*
X1454659Y532113D01*
Y532099D01*
X1454589Y532042D01*
X1454574Y532028D01*
X1454560D01*
X1454518Y532014D01*
X1454462D01*
X1454419Y532000D01*
X1454405D01*
X1454321Y531986D01*
X1454011D01*
X1453926Y532000D01*
X1453855D01*
X1453785Y532014D01*
X1453729D01*
X1453700Y532028D01*
X1453686D01*
X1453644Y532056D01*
X1453616Y532070D01*
X1453602Y532085D01*
X1453588Y532141D01*
Y532169D01*
X1453602Y532268D01*
X1453616Y532296D01*
Y532310D01*
X1453630Y532395D01*
X1453672Y532493D01*
X1453700Y532578D01*
X1453714Y532606D01*
Y532620D01*
X1454419Y534354D01*
X1454518Y534566D01*
X1454589Y534735D01*
X1454631Y534805D01*
X1454645Y534847D01*
X1454673Y534876D01*
Y534890D01*
X1454758Y535059D01*
X1454842Y535186D01*
X1454870Y535242D01*
X1454899Y535285D01*
X1454927Y535299D01*
Y535313D01*
X1455026Y535440D01*
X1455124Y535538D01*
X1455195Y535595D01*
X1455209Y535623D01*
X1455223D01*
X1455350Y535707D01*
X1455463Y535778D01*
X1455547Y535834D01*
X1455561Y535848D01*
X1455575D01*
X1455322Y535947D01*
X1455223Y535989D01*
X1455124Y536032D01*
X1455054Y536074D01*
X1454983Y536102D01*
X1454955Y536130D01*
X1454941D01*
X1454744Y536271D01*
X1454589Y536412D01*
X1454532Y536469D01*
X1454490Y536511D01*
X1454476Y536539D01*
X1454462Y536553D01*
X1454335Y536736D01*
X1454236Y536920D01*
X1454194Y536990D01*
X1454166Y537047D01*
X1454151Y537089D01*
Y537103D01*
X1454081Y537357D01*
X1454067Y537469D01*
X1454053Y537582D01*
X1454039Y537681D01*
Y537752D01*
Y537808D01*
Y537822D01*
X1454053Y538118D01*
X1454081Y538245D01*
X1454095Y538344D01*
X1454123Y538442D01*
X1454151Y538513D01*
X1454166Y538555D01*
Y538569D01*
X1454264Y538809D01*
X1454321Y538907D01*
X1454377Y538992D01*
X1454433Y539062D01*
X1454476Y539119D01*
X1454504Y539147D01*
X1454518Y539161D01*
X1454715Y539344D01*
X1454899Y539485D01*
X1454983Y539528D01*
X1455054Y539570D01*
X1455096Y539584D01*
X1455110Y539598D01*
X1455378Y539711D01*
X1455519Y539753D01*
X1455646Y539795D01*
X1455759Y539824D01*
X1455843Y539838D01*
X1455900Y539852D01*
X1455914D01*
X1456040Y539866D01*
X1456153D01*
X1456252Y539880D01*
X1456280D01*
X1456435Y539894D01*
X1456604Y539908D01*
X1458451D01*
X1458550Y539894D01*
D02*
G37*
G36*
X873466Y883065D02*
X873565Y883023D01*
X873635Y882981D01*
X873649Y882967D01*
X873691Y882868D01*
X873720Y882784D01*
X873734Y882727D01*
Y880471D01*
X873720Y880331D01*
Y880190D01*
X873706Y880077D01*
X873691Y879978D01*
Y879908D01*
X873677Y879865D01*
Y879851D01*
X873621Y879597D01*
X873579Y879485D01*
X873550Y879400D01*
X873522Y879316D01*
X873494Y879259D01*
X873480Y879217D01*
Y879203D01*
X873381Y878991D01*
X873325Y878893D01*
X873283Y878808D01*
X873240Y878752D01*
X873198Y878695D01*
X873184Y878667D01*
X873170Y878653D01*
X873029Y878484D01*
X872888Y878357D01*
X872818Y878315D01*
X872775Y878272D01*
X872747Y878258D01*
X872733Y878244D01*
X872535Y878131D01*
X872352Y878047D01*
X872282Y878019D01*
X872225Y877990D01*
X872183Y877976D01*
X872169D01*
X871929Y877920D01*
X871817Y877906D01*
X871704Y877892D01*
X871619Y877878D01*
X871549D01*
X871492D01*
X871478D01*
X871196Y877892D01*
X871084Y877920D01*
X870971Y877934D01*
X870886Y877962D01*
X870816Y877990D01*
X870773Y878005D01*
X870759D01*
X870520Y878117D01*
X870421Y878174D01*
X870336Y878216D01*
X870266Y878272D01*
X870210Y878301D01*
X870181Y878329D01*
X870167Y878343D01*
X869998Y878498D01*
X869871Y878653D01*
X869815Y878724D01*
X869787Y878780D01*
X869758Y878808D01*
Y878822D01*
X869646Y879034D01*
X869575Y879231D01*
X869561Y879316D01*
X869547Y879372D01*
X869533Y879414D01*
Y879428D01*
X869434Y879245D01*
X869350Y879104D01*
X869307Y879048D01*
X869279Y879006D01*
X869251Y878991D01*
Y878977D01*
X869124Y878836D01*
X868997Y878738D01*
X868898Y878681D01*
X868884Y878653D01*
X868870D01*
X868701Y878554D01*
X868546Y878498D01*
X868490Y878470D01*
X868433Y878456D01*
X868405Y878442D01*
X868391D01*
X868194Y878399D01*
X868025Y878385D01*
X867954Y878371D01*
X867898D01*
X867869D01*
X867855D01*
X867686D01*
X867531Y878399D01*
X867390Y878413D01*
X867263Y878442D01*
X867165Y878470D01*
X867094Y878498D01*
X867038Y878512D01*
X867024Y878526D01*
X866883Y878597D01*
X866770Y878667D01*
X866657Y878738D01*
X866558Y878822D01*
X866488Y878879D01*
X866432Y878935D01*
X866403Y878977D01*
X866389Y878991D01*
X866305Y879104D01*
X866220Y879231D01*
X866093Y879471D01*
X866051Y879583D01*
X866023Y879668D01*
X865994Y879724D01*
Y879738D01*
X865952Y879922D01*
X865910Y880105D01*
X865882Y880302D01*
X865868Y880486D01*
X865854Y880641D01*
Y882699D01*
X865868Y882797D01*
X865896Y882882D01*
X865938Y882939D01*
X865952Y882967D01*
X866051Y883037D01*
X866164Y883065D01*
X866248Y883080D01*
X866276D01*
X866291D01*
X873311D01*
X873466Y883065D01*
D02*
G37*
G36*
X867658Y876256D02*
X867714D01*
X867728D01*
X867785Y876242D01*
X867827Y876228D01*
X867841Y876200D01*
X867855D01*
X867884Y876158D01*
Y876087D01*
X867869Y876031D01*
X867841Y875975D01*
X867813Y875918D01*
X867799Y875904D01*
X866897Y874382D01*
X872888D01*
Y876031D01*
X872902Y876087D01*
X872916Y876102D01*
Y876116D01*
X872972Y876172D01*
X872987Y876186D01*
X873001D01*
X873085Y876214D01*
X873128Y876228D01*
X873142D01*
X873198Y876242D01*
X873254D01*
X873311D01*
X873325D01*
X873410D01*
X873466Y876228D01*
X873508D01*
X873522D01*
X873607Y876200D01*
X873635Y876186D01*
X873649D01*
X873706Y876130D01*
X873720Y876116D01*
X873734Y876059D01*
Y871915D01*
X873720Y871858D01*
Y871830D01*
X873677Y871774D01*
X873649Y871760D01*
X873565Y871731D01*
X873536Y871717D01*
X873522D01*
X873452Y871703D01*
X873395Y871689D01*
X873339D01*
X873325D01*
X873254D01*
X873184Y871703D01*
X873156Y871717D01*
X873142D01*
X873085Y871731D01*
X873043Y871746D01*
X873015Y871760D01*
X873001D01*
X872930Y871802D01*
X872916Y871816D01*
Y871830D01*
X872888Y871887D01*
Y873338D01*
X865980D01*
X865924Y873353D01*
X865910Y873367D01*
X865882Y873381D01*
X865868Y873409D01*
X865854Y873423D01*
Y873437D01*
X865839Y873479D01*
X865825Y873536D01*
X865811Y873578D01*
Y873592D01*
X865797Y873677D01*
Y873959D01*
X865811Y874001D01*
Y874100D01*
X865825Y874128D01*
Y874142D01*
X865839Y874212D01*
X865854Y874227D01*
Y874241D01*
X865868Y874283D01*
X865882Y874297D01*
X867038Y876102D01*
X867080Y876172D01*
X867094Y876186D01*
X867108Y876200D01*
X867165Y876228D01*
X867179Y876242D01*
X867193D01*
X867235Y876256D01*
X867277D01*
X867306Y876271D01*
X867320D01*
X867432D01*
X867475D01*
X867489D01*
X867588D01*
X867658Y876256D01*
D02*
G37*
G36*
X1435159Y854911D02*
X1435258D01*
X1435286Y854896D01*
X1435300D01*
X1435370Y854882D01*
X1435385Y854868D01*
X1435399D01*
X1435441Y854854D01*
X1435455Y854840D01*
X1437259Y853684D01*
X1437330Y853642D01*
X1437344Y853628D01*
X1437358Y853614D01*
X1437386Y853557D01*
X1437400Y853543D01*
Y853529D01*
X1437414Y853487D01*
Y853445D01*
X1437428Y853416D01*
Y853402D01*
Y853289D01*
Y853247D01*
Y853233D01*
Y853134D01*
X1437414Y853064D01*
Y853008D01*
Y852993D01*
X1437400Y852937D01*
X1437386Y852895D01*
X1437358Y852881D01*
Y852867D01*
X1437316Y852838D01*
X1437245D01*
X1437189Y852852D01*
X1437133Y852881D01*
X1437076Y852909D01*
X1437062Y852923D01*
X1435540Y853825D01*
Y847834D01*
X1437189D01*
X1437245Y847820D01*
X1437259Y847806D01*
X1437274D01*
X1437330Y847749D01*
X1437344Y847735D01*
Y847721D01*
X1437372Y847637D01*
X1437386Y847594D01*
Y847580D01*
X1437400Y847524D01*
Y847467D01*
Y847411D01*
Y847397D01*
Y847312D01*
X1437386Y847256D01*
Y847214D01*
Y847200D01*
X1437358Y847115D01*
X1437344Y847087D01*
Y847073D01*
X1437288Y847016D01*
X1437274Y847002D01*
X1437217Y846988D01*
X1433073D01*
X1433016Y847002D01*
X1432988D01*
X1432932Y847045D01*
X1432917Y847073D01*
X1432889Y847157D01*
X1432875Y847186D01*
Y847200D01*
X1432861Y847270D01*
X1432847Y847326D01*
Y847383D01*
Y847397D01*
Y847467D01*
X1432861Y847538D01*
X1432875Y847566D01*
Y847580D01*
X1432889Y847637D01*
X1432903Y847679D01*
X1432917Y847707D01*
Y847721D01*
X1432960Y847792D01*
X1432974Y847806D01*
X1432988D01*
X1433044Y847834D01*
X1434496D01*
Y854741D01*
X1434510Y854798D01*
X1434525Y854812D01*
X1434539Y854840D01*
X1434567Y854854D01*
X1434581Y854868D01*
X1434595D01*
X1434637Y854882D01*
X1434694Y854896D01*
X1434736Y854911D01*
X1434750D01*
X1434835Y854925D01*
X1435117D01*
X1435159Y854911D01*
D02*
G37*
G36*
X1440290Y854896D02*
X1440304D01*
X1440375Y854882D01*
X1440431Y854868D01*
X1440459Y854854D01*
X1440473D01*
X1440530Y854812D01*
X1440558Y854798D01*
Y854784D01*
X1440572Y854741D01*
Y854727D01*
Y854713D01*
Y849074D01*
Y848933D01*
X1440586Y848807D01*
Y848694D01*
X1440600Y848609D01*
X1440614Y848525D01*
Y848468D01*
X1440629Y848440D01*
Y848426D01*
X1440671Y848271D01*
X1440713Y848144D01*
X1440755Y848074D01*
X1440770Y848045D01*
X1440854Y847961D01*
X1440939Y847890D01*
X1440995Y847862D01*
X1441009Y847848D01*
X1441023D01*
X1441136Y847820D01*
X1441249Y847806D01*
X1441376D01*
X1441503Y847820D01*
X1441601Y847834D01*
X1441672Y847848D01*
X1441700D01*
X1441799Y847876D01*
X1441883Y847918D01*
X1441940Y847933D01*
X1441954Y847947D01*
X1442024Y847989D01*
X1442081Y848017D01*
X1442123Y848045D01*
X1442137D01*
X1442179Y848074D01*
X1442222Y848102D01*
X1442264D01*
X1442320Y848088D01*
X1442334Y848074D01*
X1442348D01*
X1442391Y848017D01*
X1442405Y848003D01*
Y847989D01*
X1442419Y847947D01*
Y847904D01*
X1442433Y847876D01*
Y847862D01*
Y847792D01*
Y847721D01*
Y847665D01*
Y847637D01*
Y847552D01*
Y847496D01*
Y847453D01*
Y847439D01*
X1442419Y847355D01*
Y847326D01*
Y847312D01*
X1442391Y847256D01*
X1442377Y847242D01*
Y847228D01*
X1442334Y847186D01*
X1442320Y847171D01*
Y847157D01*
X1442292Y847129D01*
X1442250Y847101D01*
X1442207Y847087D01*
X1442193Y847073D01*
X1442109Y847030D01*
X1442024Y847002D01*
X1441968Y846988D01*
X1441940Y846974D01*
X1441827Y846946D01*
X1441728Y846918D01*
X1441658Y846904D01*
X1441629D01*
X1441503Y846889D01*
X1441390Y846875D01*
X1441108D01*
X1440953Y846904D01*
X1440812Y846918D01*
X1440685Y846946D01*
X1440586Y846974D01*
X1440516Y846988D01*
X1440473Y847016D01*
X1440459D01*
X1440332Y847073D01*
X1440234Y847143D01*
X1440135Y847214D01*
X1440065Y847284D01*
X1440008Y847340D01*
X1439966Y847397D01*
X1439938Y847425D01*
X1439924Y847439D01*
X1439783Y847665D01*
X1439698Y847876D01*
X1439670Y847961D01*
X1439642Y848045D01*
X1439628Y848088D01*
Y848102D01*
X1439571Y848398D01*
X1439557Y848553D01*
X1439543Y848680D01*
X1439529Y848792D01*
Y848877D01*
Y848948D01*
Y848962D01*
Y854713D01*
X1439543Y854770D01*
X1439557Y854784D01*
X1439585Y854812D01*
X1439614Y854840D01*
X1439642Y854854D01*
X1439656D01*
X1439698Y854868D01*
X1439755Y854882D01*
X1439797Y854896D01*
X1439811D01*
X1439895Y854911D01*
X1440234D01*
X1440290Y854896D01*
D02*
G37*
%LPC*%
G36*
X1433237Y485203D02*
X1432955D01*
X1432828Y485189D01*
X1432716Y485175D01*
X1432617Y485147D01*
X1432532Y485133D01*
X1432476Y485105D01*
X1432448Y485091D01*
X1432434D01*
X1432250Y484992D01*
X1432095Y484893D01*
X1432053Y484851D01*
X1432011Y484809D01*
X1431997Y484795D01*
X1431983Y484781D01*
X1431870Y484626D01*
X1431799Y484456D01*
X1431771Y484386D01*
X1431757Y484343D01*
X1431743Y484301D01*
Y484287D01*
X1431701Y484076D01*
X1431687Y483864D01*
X1431672Y483780D01*
Y483709D01*
Y483667D01*
Y483653D01*
X1431687Y483413D01*
X1431701Y483315D01*
X1431715Y483216D01*
X1431743Y483131D01*
X1431757Y483075D01*
X1431771Y483032D01*
Y483018D01*
X1431856Y482807D01*
X1431898Y482708D01*
X1431940Y482624D01*
X1431983Y482553D01*
X1432025Y482497D01*
X1432039Y482469D01*
X1432053Y482454D01*
X1432208Y482299D01*
X1432349Y482173D01*
X1432420Y482130D01*
X1432476Y482102D01*
X1432504Y482074D01*
X1432518D01*
X1432744Y481989D01*
X1432955Y481947D01*
X1433054D01*
X1433124Y481933D01*
X1433195D01*
X1433463Y481947D01*
X1433575Y481975D01*
X1433674Y482003D01*
X1433759Y482018D01*
X1433815Y482046D01*
X1433858Y482060D01*
X1433872D01*
X1433970Y482116D01*
X1434069Y482187D01*
X1434210Y482342D01*
X1434266Y482412D01*
X1434309Y482454D01*
X1434337Y482497D01*
X1434351Y482511D01*
X1434421Y482638D01*
X1434478Y482779D01*
X1434520Y482920D01*
X1434562Y483061D01*
X1434590Y483173D01*
X1434619Y483272D01*
X1434633Y483329D01*
Y483357D01*
X1434661Y483568D01*
X1434689Y483794D01*
X1434703Y484005D01*
X1434717Y484217D01*
X1434731Y484400D01*
Y484555D01*
Y484611D01*
Y484654D01*
Y484668D01*
Y484682D01*
X1434619Y484766D01*
X1434506Y484823D01*
X1434421Y484865D01*
X1434407Y484879D01*
X1434393D01*
X1434252Y484950D01*
X1434111Y485006D01*
X1434055Y485020D01*
X1434027Y485034D01*
X1433999Y485048D01*
X1433984D01*
X1433829Y485091D01*
X1433688Y485133D01*
X1433632Y485147D01*
X1433590D01*
X1433561Y485161D01*
X1433547D01*
X1433378Y485189D01*
X1433237Y485203D01*
D02*
G37*
G36*
X1457789Y539048D02*
X1456703D01*
X1456618Y539034D01*
X1456492D01*
X1456435Y539020D01*
X1456407D01*
X1456266Y539006D01*
X1456167Y538992D01*
X1456097Y538978D01*
X1456069Y538964D01*
X1455900Y538907D01*
X1455744Y538837D01*
X1455632Y538752D01*
X1455533Y538682D01*
X1455463Y538611D01*
X1455406Y538555D01*
X1455378Y538513D01*
X1455364Y538499D01*
X1455293Y538372D01*
X1455237Y538245D01*
X1455209Y538104D01*
X1455181Y537977D01*
X1455166Y537878D01*
X1455152Y537794D01*
Y537723D01*
Y537709D01*
X1455166Y537512D01*
X1455195Y537343D01*
X1455223Y537272D01*
X1455237Y537216D01*
X1455251Y537188D01*
Y537174D01*
X1455336Y537004D01*
X1455434Y536878D01*
X1455477Y536821D01*
X1455519Y536779D01*
X1455533Y536765D01*
X1455547Y536751D01*
X1455702Y536638D01*
X1455871Y536553D01*
X1455942Y536525D01*
X1455998Y536497D01*
X1456040Y536483D01*
X1456055D01*
X1456294Y536426D01*
X1456520Y536398D01*
X1456618Y536384D01*
X1457789D01*
Y539048D01*
D02*
G37*
G36*
X869265Y882036D02*
X866713D01*
Y880796D01*
X866728Y880641D01*
X866742Y880528D01*
X866756Y880415D01*
X866784Y880345D01*
X866798Y880274D01*
X866812Y880246D01*
Y880232D01*
X866883Y880049D01*
X866967Y879894D01*
X866995Y879851D01*
X867024Y879809D01*
X867038Y879795D01*
X867052Y879781D01*
X867179Y879668D01*
X867306Y879583D01*
X867362Y879555D01*
X867404Y879541D01*
X867432Y879527D01*
X867447D01*
X867616Y879471D01*
X867785Y879457D01*
X867855Y879443D01*
X867912D01*
X867954D01*
X867968D01*
X868151Y879457D01*
X868306Y879485D01*
X868377Y879499D01*
X868419Y879513D01*
X868447Y879527D01*
X868462D01*
X868631Y879597D01*
X868757Y879668D01*
X868814Y879710D01*
X868856Y879738D01*
X868870Y879753D01*
X868884Y879767D01*
X868997Y879908D01*
X869082Y880034D01*
X869124Y880105D01*
X869152Y880147D01*
X869166Y880175D01*
Y880190D01*
X869194Y880288D01*
X869223Y880387D01*
X869251Y880598D01*
X869265Y880697D01*
Y882036D01*
D02*
G37*
G36*
X872874D02*
X870097D01*
Y880598D01*
X870111Y880443D01*
X870125Y880302D01*
X870139Y880190D01*
X870167Y880091D01*
X870181Y880020D01*
X870195Y879978D01*
Y879964D01*
X870280Y879738D01*
X870322Y879654D01*
X870379Y879569D01*
X870407Y879513D01*
X870449Y879471D01*
X870463Y879443D01*
X870477Y879428D01*
X870618Y879273D01*
X870773Y879175D01*
X870830Y879132D01*
X870886Y879104D01*
X870914Y879090D01*
X870928D01*
X871140Y879020D01*
X871337Y878991D01*
X871422Y878977D01*
X871492D01*
X871535D01*
X871549D01*
X871774Y878991D01*
X871873Y879020D01*
X871957Y879034D01*
X872028Y879062D01*
X872084Y879090D01*
X872113Y879104D01*
X872127D01*
X872296Y879203D01*
X872437Y879302D01*
X872521Y879386D01*
X872535Y879414D01*
X872550Y879428D01*
X872648Y879583D01*
X872733Y879738D01*
X872747Y879795D01*
X872775Y879851D01*
X872789Y879880D01*
Y879894D01*
X872832Y880105D01*
X872860Y880302D01*
X872874Y880387D01*
Y882036D01*
D02*
G37*
%LPD*%
D10*
X1412600Y780760D02*
Y839760D01*
X1457600D01*
X1412600Y780760D02*
X1457600D01*
Y839760D01*
D15*
X1406600Y820260D02*
G03*
X1406600Y820260I-1000J0D01*
G01*
X1434660Y504610D02*
X1437660D01*
X1434660Y493610D02*
X1437660D01*
D18*
X1450000Y511930D02*
Y526930D01*
X1435250D02*
X1464750D01*
Y524930D02*
Y526930D01*
X1435250Y524930D02*
Y526930D01*
Y511930D02*
X1464750D01*
Y513930D01*
X1435250Y511930D02*
Y513930D01*
M02*
