G04*
G04 #@! TF.GenerationSoftware,Altium Limited,Altium Designer,24.9.1 (31)*
G04*
G04 Layer_Color=0*
%FSLAX44Y44*%
%MOMM*%
G71*
G04*
G04 #@! TF.SameCoordinates,A601D634-93CA-4805-8520-E3EE879C7AED*
G04*
G04*
G04 #@! TF.FilePolarity,Positive*
G04*
G01*
G75*
%ADD16C,0.1000*%
D16*
X750000Y867000D02*
Y877000D01*
X745000Y872000D02*
X755000D01*
X773510Y448310D02*
X783510D01*
X778510Y443310D02*
Y453310D01*
X1047750Y710010D02*
Y720010D01*
X1042750Y715010D02*
X1052750D01*
X1245950Y1004316D02*
X1255950D01*
X1250950Y999316D02*
Y1009316D01*
X1009650Y964843D02*
Y975717D01*
X1004212Y970280D02*
X1015088D01*
X575960Y586820D02*
Y596820D01*
X570960Y591820D02*
X580960D01*
X635000Y490000D02*
X645000D01*
X640000Y485000D02*
Y495000D01*
X387350Y859870D02*
Y869870D01*
X382350Y864870D02*
X392350D01*
X1037590Y520480D02*
Y530480D01*
X1032590Y525480D02*
X1042590D01*
X1403430Y605700D02*
X1413430D01*
X1408430Y600700D02*
Y610700D01*
X1145000Y200000D02*
X1155000D01*
X1150000Y195000D02*
Y205000D01*
X904159Y551816D02*
X914159D01*
X909159Y546816D02*
Y556816D01*
X1276350Y596980D02*
Y606980D01*
X1271350Y601980D02*
X1281350D01*
X1380570Y679450D02*
X1390570D01*
X1385570Y674450D02*
Y684450D01*
X1070690Y483870D02*
X1080690D01*
X1075690Y478870D02*
Y488870D01*
X1255000Y815000D02*
Y825000D01*
X1250000Y820000D02*
X1260000D01*
X1153160Y569040D02*
Y579040D01*
X1148160Y574040D02*
X1158160D01*
X1244680Y520700D02*
X1254680D01*
X1249680Y515700D02*
Y525700D01*
X1420450Y323850D02*
X1430450D01*
X1425450Y318850D02*
Y328850D01*
X1367510Y600700D02*
Y610700D01*
X1362510Y605700D02*
X1372510D01*
X1071960Y527050D02*
X1081960D01*
X1076960Y522050D02*
Y532050D01*
X1318340Y537210D02*
X1328340D01*
X1323340Y532210D02*
Y542210D01*
M02*
