G04*
G04 #@! TF.GenerationSoftware,Altium Limited,Altium Designer,24.9.1 (31)*
G04*
G04 Layer_Color=16711935*
%FSLAX44Y44*%
%MOMM*%
G71*
G04*
G04 #@! TF.SameCoordinates,A601D634-93CA-4805-8520-E3EE879C7AED*
G04*
G04*
G04 #@! TF.FilePolarity,Positive*
G04*
G01*
G75*
%ADD15C,0.2000*%
G36*
X755030Y872686D02*
Y872676D01*
Y872639D01*
Y872593D01*
Y872528D01*
X755020Y872445D01*
Y872353D01*
X755011Y872242D01*
X755002Y872131D01*
X754974Y871881D01*
X754937Y871622D01*
X754882Y871373D01*
X754845Y871253D01*
X754808Y871142D01*
Y871132D01*
X754798Y871114D01*
X754780Y871086D01*
X754761Y871049D01*
X754706Y870947D01*
X754623Y870818D01*
X754512Y870670D01*
X754382Y870522D01*
X754216Y870365D01*
X754013Y870226D01*
X754003D01*
X753985Y870208D01*
X753957Y870199D01*
X753911Y870171D01*
X753855Y870143D01*
X753781Y870115D01*
X753707Y870088D01*
X753615Y870051D01*
X753513Y870014D01*
X753402Y869986D01*
X753282Y869958D01*
X753143Y869930D01*
X753005Y869912D01*
X752857Y869893D01*
X752524Y869875D01*
X752441D01*
X752376Y869884D01*
X752302D01*
X752210Y869893D01*
X752108Y869903D01*
X752006Y869912D01*
X751775Y869949D01*
X751525Y870004D01*
X751285Y870078D01*
X751054Y870180D01*
X751045D01*
X751026Y870199D01*
X750998Y870217D01*
X750961Y870236D01*
X750860Y870309D01*
X750740Y870411D01*
X750601Y870541D01*
X750471Y870688D01*
X750342Y870873D01*
X750240Y871077D01*
Y871086D01*
X750231Y871105D01*
X750222Y871142D01*
X750203Y871188D01*
X750185Y871243D01*
X750166Y871317D01*
X750139Y871400D01*
X750120Y871502D01*
X750102Y871613D01*
X750074Y871733D01*
X750055Y871863D01*
X750037Y872001D01*
X750018Y872159D01*
X750009Y872325D01*
X750000Y872501D01*
Y872686D01*
Y876384D01*
X750851D01*
Y872686D01*
Y872676D01*
Y872649D01*
Y872602D01*
Y872547D01*
X750860Y872482D01*
Y872399D01*
X750869Y872223D01*
X750887Y872020D01*
X750915Y871816D01*
X750952Y871622D01*
X750971Y871539D01*
X750998Y871456D01*
X751008Y871437D01*
X751026Y871391D01*
X751072Y871327D01*
X751128Y871234D01*
X751193Y871142D01*
X751285Y871040D01*
X751396Y870938D01*
X751525Y870855D01*
X751544Y870846D01*
X751590Y870818D01*
X751673Y870790D01*
X751784Y870753D01*
X751914Y870707D01*
X752080Y870679D01*
X752256Y870651D01*
X752450Y870642D01*
X752542D01*
X752598Y870651D01*
X752681D01*
X752764Y870661D01*
X752968Y870698D01*
X753190Y870744D01*
X753402Y870818D01*
X753606Y870920D01*
X753698Y870984D01*
X753781Y871058D01*
X753791Y871068D01*
X753800Y871077D01*
X753818Y871105D01*
X753846Y871142D01*
X753874Y871197D01*
X753911Y871253D01*
X753948Y871336D01*
X753985Y871419D01*
X754022Y871521D01*
X754049Y871641D01*
X754086Y871779D01*
X754114Y871927D01*
X754142Y872094D01*
X754160Y872270D01*
X754179Y872473D01*
Y872686D01*
Y876384D01*
X755030D01*
Y872686D01*
D02*
G37*
G36*
X758395Y876402D02*
X758469Y876393D01*
X758561Y876384D01*
X758663Y876365D01*
X758765Y876347D01*
X759005Y876282D01*
X759246Y876190D01*
X759366Y876134D01*
X759486Y876069D01*
X759597Y875986D01*
X759698Y875894D01*
X759708Y875884D01*
X759726Y875875D01*
X759745Y875838D01*
X759782Y875801D01*
X759828Y875755D01*
X759874Y875690D01*
X759920Y875626D01*
X759976Y875542D01*
X760068Y875367D01*
X760161Y875145D01*
X760198Y875034D01*
X760216Y874904D01*
X760235Y874775D01*
X760244Y874636D01*
Y874618D01*
Y874572D01*
X760235Y874498D01*
X760226Y874396D01*
X760207Y874285D01*
X760170Y874156D01*
X760133Y874017D01*
X760078Y873878D01*
X760068Y873860D01*
X760050Y873813D01*
X760013Y873740D01*
X759957Y873638D01*
X759883Y873527D01*
X759791Y873388D01*
X759680Y873250D01*
X759551Y873092D01*
X759532Y873074D01*
X759486Y873018D01*
X759440Y872972D01*
X759393Y872926D01*
X759338Y872870D01*
X759264Y872796D01*
X759190Y872722D01*
X759098Y872639D01*
X759005Y872547D01*
X758894Y872445D01*
X758774Y872344D01*
X758644Y872223D01*
X758497Y872103D01*
X758349Y871974D01*
X758339Y871964D01*
X758321Y871946D01*
X758284Y871918D01*
X758238Y871881D01*
X758182Y871826D01*
X758118Y871770D01*
X757970Y871650D01*
X757812Y871511D01*
X757664Y871373D01*
X757535Y871253D01*
X757480Y871206D01*
X757433Y871160D01*
X757424Y871151D01*
X757396Y871123D01*
X757359Y871086D01*
X757313Y871031D01*
X757267Y870966D01*
X757211Y870901D01*
X757101Y870744D01*
X760253D01*
Y869986D01*
X756010D01*
Y869995D01*
Y870032D01*
Y870088D01*
X756019Y870162D01*
X756028Y870245D01*
X756047Y870337D01*
X756065Y870430D01*
X756102Y870531D01*
Y870541D01*
X756111Y870550D01*
X756130Y870605D01*
X756167Y870688D01*
X756222Y870799D01*
X756296Y870929D01*
X756389Y871077D01*
X756490Y871225D01*
X756620Y871382D01*
Y871391D01*
X756638Y871400D01*
X756684Y871456D01*
X756768Y871539D01*
X756888Y871659D01*
X757027Y871798D01*
X757202Y871964D01*
X757415Y872149D01*
X757646Y872344D01*
X757655Y872353D01*
X757692Y872380D01*
X757748Y872427D01*
X757812Y872482D01*
X757896Y872556D01*
X757997Y872639D01*
X758099Y872732D01*
X758219Y872833D01*
X758450Y873055D01*
X758681Y873277D01*
X758792Y873388D01*
X758894Y873499D01*
X758987Y873601D01*
X759061Y873703D01*
Y873712D01*
X759079Y873721D01*
X759098Y873749D01*
X759116Y873786D01*
X759181Y873887D01*
X759255Y874008D01*
X759319Y874156D01*
X759384Y874313D01*
X759421Y874488D01*
X759440Y874655D01*
Y874664D01*
Y874673D01*
X759430Y874729D01*
X759421Y874821D01*
X759393Y874923D01*
X759356Y875052D01*
X759292Y875182D01*
X759209Y875311D01*
X759098Y875441D01*
X759079Y875459D01*
X759033Y875496D01*
X758968Y875542D01*
X758866Y875607D01*
X758737Y875663D01*
X758589Y875718D01*
X758413Y875755D01*
X758219Y875764D01*
X758164D01*
X758127Y875755D01*
X758016Y875746D01*
X757886Y875718D01*
X757748Y875681D01*
X757590Y875616D01*
X757443Y875533D01*
X757304Y875422D01*
X757285Y875404D01*
X757248Y875358D01*
X757193Y875284D01*
X757138Y875173D01*
X757073Y875043D01*
X757017Y874877D01*
X756980Y874692D01*
X756962Y874479D01*
X756157Y874562D01*
Y874572D01*
X756167Y874599D01*
Y874646D01*
X756176Y874710D01*
X756194Y874784D01*
X756213Y874867D01*
X756241Y874969D01*
X756268Y875071D01*
X756342Y875293D01*
X756453Y875515D01*
X756518Y875626D01*
X756601Y875737D01*
X756684Y875838D01*
X756777Y875931D01*
X756786Y875940D01*
X756805Y875949D01*
X756832Y875977D01*
X756879Y876005D01*
X756934Y876042D01*
X756999Y876079D01*
X757073Y876125D01*
X757165Y876171D01*
X757267Y876217D01*
X757378Y876264D01*
X757498Y876301D01*
X757627Y876338D01*
X757766Y876365D01*
X757914Y876393D01*
X758071Y876402D01*
X758238Y876412D01*
X758330D01*
X758395Y876402D01*
D02*
G37*
G36*
X771437Y448190D02*
Y448162D01*
Y448125D01*
X771428Y448070D01*
Y447996D01*
X771419Y447903D01*
X771410Y447802D01*
X771400Y447691D01*
X771382Y447561D01*
X771363Y447432D01*
X771336Y447275D01*
X771308Y447117D01*
X771280Y446951D01*
X771243Y446766D01*
X771151Y446387D01*
Y446378D01*
X771141Y446341D01*
X771123Y446285D01*
X771095Y446202D01*
X771067Y446110D01*
X771030Y445999D01*
X770993Y445869D01*
X770938Y445731D01*
X770882Y445573D01*
X770827Y445416D01*
X770688Y445065D01*
X770522Y444695D01*
X770337Y444325D01*
X770328Y444316D01*
X770309Y444279D01*
X770282Y444233D01*
X770245Y444159D01*
X770198Y444076D01*
X770134Y443974D01*
X770069Y443863D01*
X769995Y443743D01*
X769819Y443475D01*
X769634Y443197D01*
X769422Y442911D01*
X769200Y442643D01*
X772334D01*
Y441884D01*
X768192D01*
Y442504D01*
X768201Y442513D01*
X768220Y442532D01*
X768257Y442569D01*
X768294Y442624D01*
X768349Y442689D01*
X768423Y442763D01*
X768497Y442855D01*
X768580Y442966D01*
X768663Y443077D01*
X768765Y443206D01*
X768867Y443354D01*
X768969Y443502D01*
X769080Y443669D01*
X769191Y443844D01*
X769302Y444039D01*
X769412Y444233D01*
X769422Y444242D01*
X769440Y444279D01*
X769468Y444334D01*
X769514Y444418D01*
X769560Y444519D01*
X769616Y444630D01*
X769680Y444760D01*
X769745Y444908D01*
X769819Y445074D01*
X769902Y445241D01*
X769976Y445425D01*
X770050Y445620D01*
X770198Y446017D01*
X770337Y446442D01*
Y446452D01*
X770346Y446479D01*
X770356Y446526D01*
X770374Y446581D01*
X770392Y446655D01*
X770411Y446748D01*
X770439Y446849D01*
X770457Y446960D01*
X770485Y447090D01*
X770513Y447228D01*
X770559Y447524D01*
X770605Y447848D01*
X770633Y448199D01*
X771437D01*
Y448190D01*
D02*
G37*
G36*
X776134Y448301D02*
X776208D01*
X776300Y448292D01*
X776402Y448282D01*
X776504Y448273D01*
X776735Y448236D01*
X776985Y448181D01*
X777225Y448107D01*
X777456Y448005D01*
X777465D01*
X777484Y447986D01*
X777512Y447968D01*
X777549Y447949D01*
X777650Y447876D01*
X777770Y447774D01*
X777909Y447644D01*
X778039Y447496D01*
X778168Y447312D01*
X778270Y447108D01*
Y447099D01*
X778279Y447080D01*
X778288Y447043D01*
X778307Y446997D01*
X778325Y446942D01*
X778344Y446868D01*
X778371Y446785D01*
X778390Y446683D01*
X778408Y446572D01*
X778436Y446452D01*
X778455Y446322D01*
X778473Y446184D01*
X778492Y446026D01*
X778501Y445860D01*
X778510Y445684D01*
Y445499D01*
Y441801D01*
X777660D01*
Y445499D01*
Y445509D01*
Y445536D01*
Y445583D01*
Y445638D01*
X777650Y445703D01*
Y445786D01*
X777641Y445962D01*
X777623Y446165D01*
X777595Y446368D01*
X777558Y446563D01*
X777539Y446646D01*
X777512Y446729D01*
X777502Y446748D01*
X777484Y446794D01*
X777438Y446858D01*
X777382Y446951D01*
X777317Y447043D01*
X777225Y447145D01*
X777114Y447247D01*
X776985Y447330D01*
X776966Y447339D01*
X776920Y447367D01*
X776837Y447395D01*
X776726Y447432D01*
X776596Y447478D01*
X776430Y447506D01*
X776254Y447533D01*
X776060Y447543D01*
X775967D01*
X775912Y447533D01*
X775829D01*
X775746Y447524D01*
X775542Y447487D01*
X775320Y447441D01*
X775108Y447367D01*
X774904Y447265D01*
X774812Y447201D01*
X774729Y447127D01*
X774719Y447117D01*
X774710Y447108D01*
X774692Y447080D01*
X774664Y447043D01*
X774636Y446988D01*
X774599Y446932D01*
X774562Y446849D01*
X774525Y446766D01*
X774488Y446664D01*
X774461Y446544D01*
X774424Y446405D01*
X774396Y446258D01*
X774368Y446091D01*
X774350Y445915D01*
X774331Y445712D01*
Y445499D01*
Y441801D01*
X773481D01*
Y445499D01*
Y445509D01*
Y445546D01*
Y445592D01*
Y445657D01*
X773490Y445740D01*
Y445832D01*
X773499Y445943D01*
X773508Y446054D01*
X773536Y446304D01*
X773573Y446563D01*
X773628Y446812D01*
X773665Y446932D01*
X773702Y447043D01*
Y447053D01*
X773712Y447071D01*
X773730Y447099D01*
X773749Y447136D01*
X773804Y447238D01*
X773887Y447367D01*
X773998Y447515D01*
X774128Y447663D01*
X774294Y447820D01*
X774498Y447959D01*
X774507D01*
X774525Y447977D01*
X774553Y447986D01*
X774599Y448014D01*
X774655Y448042D01*
X774729Y448070D01*
X774803Y448097D01*
X774895Y448134D01*
X774997Y448171D01*
X775108Y448199D01*
X775228Y448227D01*
X775367Y448255D01*
X775505Y448273D01*
X775653Y448292D01*
X775986Y448310D01*
X776069D01*
X776134Y448301D01*
D02*
G37*
G36*
X1061128Y721426D02*
X1061202Y721417D01*
X1061295Y721408D01*
X1061396Y721389D01*
X1061498Y721371D01*
X1061739Y721306D01*
X1061979Y721214D01*
X1062099Y721158D01*
X1062219Y721094D01*
X1062330Y721010D01*
X1062432Y720918D01*
X1062441Y720909D01*
X1062460Y720899D01*
X1062478Y720862D01*
X1062515Y720825D01*
X1062561Y720779D01*
X1062608Y720714D01*
X1062654Y720650D01*
X1062709Y720566D01*
X1062802Y720391D01*
X1062894Y720169D01*
X1062931Y720058D01*
X1062950Y719929D01*
X1062968Y719799D01*
X1062977Y719660D01*
Y719642D01*
Y719596D01*
X1062968Y719522D01*
X1062959Y719420D01*
X1062940Y719309D01*
X1062903Y719180D01*
X1062866Y719041D01*
X1062811Y718902D01*
X1062802Y718884D01*
X1062783Y718838D01*
X1062746Y718764D01*
X1062691Y718662D01*
X1062617Y718551D01*
X1062524Y718412D01*
X1062413Y718274D01*
X1062284Y718116D01*
X1062265Y718098D01*
X1062219Y718042D01*
X1062173Y717996D01*
X1062127Y717950D01*
X1062071Y717895D01*
X1061997Y717821D01*
X1061923Y717747D01*
X1061831Y717663D01*
X1061739Y717571D01*
X1061628Y717469D01*
X1061507Y717367D01*
X1061378Y717247D01*
X1061230Y717127D01*
X1061082Y716998D01*
X1061073Y716988D01*
X1061054Y716970D01*
X1061017Y716942D01*
X1060971Y716905D01*
X1060916Y716850D01*
X1060851Y716794D01*
X1060703Y716674D01*
X1060546Y716535D01*
X1060398Y716397D01*
X1060268Y716276D01*
X1060213Y716230D01*
X1060167Y716184D01*
X1060157Y716175D01*
X1060130Y716147D01*
X1060093Y716110D01*
X1060046Y716055D01*
X1060000Y715990D01*
X1059945Y715925D01*
X1059834Y715768D01*
X1062987D01*
Y715010D01*
X1058743D01*
Y715019D01*
Y715056D01*
Y715112D01*
X1058752Y715185D01*
X1058761Y715269D01*
X1058780Y715361D01*
X1058798Y715454D01*
X1058835Y715555D01*
Y715565D01*
X1058845Y715574D01*
X1058863Y715629D01*
X1058900Y715713D01*
X1058956Y715824D01*
X1059029Y715953D01*
X1059122Y716101D01*
X1059224Y716249D01*
X1059353Y716406D01*
Y716415D01*
X1059372Y716424D01*
X1059418Y716480D01*
X1059501Y716563D01*
X1059621Y716683D01*
X1059760Y716822D01*
X1059936Y716988D01*
X1060148Y717173D01*
X1060379Y717367D01*
X1060389Y717377D01*
X1060426Y717404D01*
X1060481Y717451D01*
X1060546Y717506D01*
X1060629Y717580D01*
X1060731Y717663D01*
X1060832Y717756D01*
X1060953Y717858D01*
X1061184Y718079D01*
X1061415Y718301D01*
X1061526Y718412D01*
X1061628Y718523D01*
X1061720Y718625D01*
X1061794Y718727D01*
Y718736D01*
X1061812Y718745D01*
X1061831Y718773D01*
X1061849Y718810D01*
X1061914Y718912D01*
X1061988Y719032D01*
X1062053Y719180D01*
X1062117Y719337D01*
X1062154Y719512D01*
X1062173Y719679D01*
Y719688D01*
Y719697D01*
X1062164Y719753D01*
X1062154Y719845D01*
X1062127Y719947D01*
X1062090Y720077D01*
X1062025Y720206D01*
X1061942Y720335D01*
X1061831Y720465D01*
X1061812Y720483D01*
X1061766Y720520D01*
X1061702Y720566D01*
X1061600Y720631D01*
X1061470Y720687D01*
X1061322Y720742D01*
X1061147Y720779D01*
X1060953Y720788D01*
X1060897D01*
X1060860Y720779D01*
X1060749Y720770D01*
X1060620Y720742D01*
X1060481Y720705D01*
X1060324Y720640D01*
X1060176Y720557D01*
X1060037Y720446D01*
X1060019Y720428D01*
X1059982Y720382D01*
X1059926Y720308D01*
X1059871Y720197D01*
X1059806Y720067D01*
X1059751Y719901D01*
X1059714Y719716D01*
X1059695Y719503D01*
X1058891Y719586D01*
Y719596D01*
X1058900Y719623D01*
Y719670D01*
X1058909Y719734D01*
X1058928Y719808D01*
X1058946Y719892D01*
X1058974Y719993D01*
X1059002Y720095D01*
X1059076Y720317D01*
X1059187Y720539D01*
X1059251Y720650D01*
X1059335Y720761D01*
X1059418Y720862D01*
X1059510Y720955D01*
X1059520Y720964D01*
X1059538Y720973D01*
X1059566Y721001D01*
X1059612Y721029D01*
X1059668Y721066D01*
X1059732Y721103D01*
X1059806Y721149D01*
X1059899Y721195D01*
X1060000Y721241D01*
X1060111Y721288D01*
X1060231Y721325D01*
X1060361Y721362D01*
X1060500Y721389D01*
X1060648Y721417D01*
X1060805Y721426D01*
X1060971Y721436D01*
X1061064D01*
X1061128Y721426D01*
D02*
G37*
G36*
X1056838Y715010D02*
X1056052D01*
Y720012D01*
X1056043Y720003D01*
X1055997Y719966D01*
X1055941Y719910D01*
X1055849Y719845D01*
X1055747Y719762D01*
X1055618Y719670D01*
X1055470Y719568D01*
X1055303Y719466D01*
X1055294D01*
X1055285Y719457D01*
X1055230Y719420D01*
X1055137Y719374D01*
X1055026Y719318D01*
X1054897Y719254D01*
X1054758Y719189D01*
X1054619Y719124D01*
X1054481Y719069D01*
Y719827D01*
X1054490D01*
X1054508Y719845D01*
X1054545Y719855D01*
X1054592Y719882D01*
X1054647Y719910D01*
X1054712Y719947D01*
X1054869Y720040D01*
X1055054Y720141D01*
X1055239Y720271D01*
X1055433Y720418D01*
X1055627Y720576D01*
X1055636Y720585D01*
X1055646Y720594D01*
X1055673Y720622D01*
X1055710Y720650D01*
X1055794Y720742D01*
X1055904Y720853D01*
X1056015Y720983D01*
X1056136Y721131D01*
X1056237Y721278D01*
X1056330Y721436D01*
X1056838D01*
Y715010D01*
D02*
G37*
G36*
X1050376Y721399D02*
X1050561Y721389D01*
X1050745Y721371D01*
X1050930Y721343D01*
X1051087Y721315D01*
X1051097D01*
X1051115Y721306D01*
X1051143D01*
X1051180Y721288D01*
X1051282Y721260D01*
X1051411Y721214D01*
X1051559Y721149D01*
X1051716Y721066D01*
X1051873Y720973D01*
X1052021Y720853D01*
X1052031Y720844D01*
X1052040Y720835D01*
X1052068Y720807D01*
X1052105Y720779D01*
X1052197Y720687D01*
X1052308Y720557D01*
X1052428Y720400D01*
X1052558Y720215D01*
X1052678Y720003D01*
X1052779Y719762D01*
Y719753D01*
X1052789Y719734D01*
X1052807Y719697D01*
X1052816Y719642D01*
X1052844Y719577D01*
X1052863Y719503D01*
X1052881Y719420D01*
X1052909Y719318D01*
X1052937Y719217D01*
X1052955Y719096D01*
X1053001Y718838D01*
X1053029Y718551D01*
X1053038Y718237D01*
Y718227D01*
Y718209D01*
Y718163D01*
Y718116D01*
X1053029Y718052D01*
Y717978D01*
X1053020Y717802D01*
X1052992Y717599D01*
X1052964Y717386D01*
X1052918Y717164D01*
X1052863Y716942D01*
Y716933D01*
X1052853Y716915D01*
X1052844Y716887D01*
X1052835Y716850D01*
X1052798Y716748D01*
X1052742Y716619D01*
X1052687Y716471D01*
X1052613Y716323D01*
X1052521Y716166D01*
X1052428Y716018D01*
X1052419Y715999D01*
X1052382Y715953D01*
X1052326Y715888D01*
X1052253Y715805D01*
X1052169Y715713D01*
X1052068Y715620D01*
X1051966Y715518D01*
X1051846Y715435D01*
X1051827Y715426D01*
X1051790Y715398D01*
X1051725Y715361D01*
X1051633Y715315D01*
X1051522Y715259D01*
X1051393Y715213D01*
X1051245Y715158D01*
X1051078Y715112D01*
X1051060D01*
X1051032Y715102D01*
X1051004Y715093D01*
X1050912Y715084D01*
X1050782Y715065D01*
X1050635Y715047D01*
X1050459Y715028D01*
X1050265Y715019D01*
X1050052Y715010D01*
X1047750D01*
Y721408D01*
X1050209D01*
X1050376Y721399D01*
D02*
G37*
G36*
X1248925Y1013090D02*
X1248981D01*
X1249129Y1013062D01*
X1249304Y1013035D01*
X1249489Y1012988D01*
X1249693Y1012924D01*
X1249887Y1012831D01*
X1249896D01*
X1249905Y1012822D01*
X1249933Y1012803D01*
X1249970Y1012785D01*
X1250062Y1012729D01*
X1250183Y1012646D01*
X1250312Y1012544D01*
X1250442Y1012424D01*
X1250571Y1012276D01*
X1250682Y1012119D01*
Y1012110D01*
X1250691Y1012101D01*
X1250710Y1012073D01*
X1250719Y1012036D01*
X1250765Y1011944D01*
X1250811Y1011823D01*
X1250867Y1011666D01*
X1250904Y1011490D01*
X1250941Y1011296D01*
X1250950Y1011084D01*
Y1011037D01*
X1250941Y1010991D01*
Y1010917D01*
X1250932Y1010834D01*
X1250913Y1010742D01*
X1250885Y1010631D01*
X1250858Y1010520D01*
X1250821Y1010390D01*
X1250774Y1010261D01*
X1250719Y1010131D01*
X1250645Y1009993D01*
X1250562Y1009863D01*
X1250469Y1009734D01*
X1250358Y1009604D01*
X1250229Y1009484D01*
X1250220Y1009475D01*
X1250192Y1009456D01*
X1250155Y1009429D01*
X1250090Y1009392D01*
X1250007Y1009336D01*
X1249915Y1009290D01*
X1249794Y1009234D01*
X1249665Y1009179D01*
X1249508Y1009114D01*
X1249332Y1009059D01*
X1249138Y1009013D01*
X1248925Y1008966D01*
X1248685Y1008920D01*
X1248426Y1008892D01*
X1248149Y1008874D01*
X1247853Y1008865D01*
X1247844D01*
X1247834D01*
X1247807D01*
X1247770D01*
X1247677Y1008874D01*
X1247548D01*
X1247400Y1008883D01*
X1247224Y1008902D01*
X1247030Y1008920D01*
X1246817Y1008948D01*
X1246605Y1008985D01*
X1246374Y1009031D01*
X1246152Y1009087D01*
X1245930Y1009151D01*
X1245717Y1009234D01*
X1245514Y1009327D01*
X1245320Y1009429D01*
X1245153Y1009549D01*
X1245144Y1009558D01*
X1245125Y1009577D01*
X1245088Y1009614D01*
X1245033Y1009660D01*
X1244977Y1009715D01*
X1244922Y1009789D01*
X1244848Y1009882D01*
X1244783Y1009974D01*
X1244718Y1010085D01*
X1244645Y1010205D01*
X1244589Y1010344D01*
X1244524Y1010483D01*
X1244478Y1010640D01*
X1244441Y1010806D01*
X1244423Y1010982D01*
X1244413Y1011167D01*
Y1011241D01*
X1244423Y1011296D01*
Y1011361D01*
X1244432Y1011435D01*
X1244469Y1011611D01*
X1244515Y1011805D01*
X1244589Y1012008D01*
X1244700Y1012212D01*
X1244765Y1012313D01*
X1244839Y1012406D01*
X1244848Y1012415D01*
X1244857Y1012424D01*
X1244885Y1012452D01*
X1244913Y1012480D01*
X1244959Y1012526D01*
X1245014Y1012563D01*
X1245144Y1012665D01*
X1245310Y1012766D01*
X1245514Y1012859D01*
X1245745Y1012942D01*
X1246004Y1012998D01*
X1246068Y1012212D01*
X1246059D01*
X1246050Y1012202D01*
X1245994Y1012193D01*
X1245911Y1012165D01*
X1245809Y1012128D01*
X1245699Y1012091D01*
X1245588Y1012036D01*
X1245486Y1011971D01*
X1245403Y1011907D01*
X1245384Y1011888D01*
X1245347Y1011851D01*
X1245292Y1011786D01*
X1245227Y1011694D01*
X1245172Y1011574D01*
X1245116Y1011444D01*
X1245079Y1011287D01*
X1245061Y1011121D01*
Y1011056D01*
X1245070Y1010982D01*
X1245088Y1010899D01*
X1245116Y1010788D01*
X1245153Y1010677D01*
X1245199Y1010566D01*
X1245273Y1010455D01*
X1245283Y1010436D01*
X1245320Y1010390D01*
X1245384Y1010325D01*
X1245477Y1010242D01*
X1245588Y1010150D01*
X1245717Y1010048D01*
X1245883Y1009956D01*
X1246068Y1009863D01*
X1246078D01*
X1246096Y1009854D01*
X1246124Y1009845D01*
X1246161Y1009826D01*
X1246216Y1009817D01*
X1246281Y1009799D01*
X1246355Y1009780D01*
X1246448Y1009762D01*
X1246549Y1009734D01*
X1246660Y1009715D01*
X1246780Y1009697D01*
X1246910Y1009688D01*
X1247058Y1009669D01*
X1247206Y1009660D01*
X1247372Y1009651D01*
X1247538D01*
X1247529Y1009660D01*
X1247474Y1009697D01*
X1247400Y1009762D01*
X1247307Y1009845D01*
X1247196Y1009937D01*
X1247095Y1010057D01*
X1246993Y1010187D01*
X1246900Y1010335D01*
Y1010344D01*
X1246891Y1010353D01*
X1246863Y1010409D01*
X1246836Y1010492D01*
X1246790Y1010603D01*
X1246753Y1010732D01*
X1246725Y1010880D01*
X1246697Y1011037D01*
X1246688Y1011204D01*
Y1011278D01*
X1246697Y1011333D01*
X1246706Y1011407D01*
X1246716Y1011481D01*
X1246734Y1011574D01*
X1246762Y1011666D01*
X1246826Y1011879D01*
X1246873Y1011990D01*
X1246937Y1012101D01*
X1247002Y1012212D01*
X1247076Y1012332D01*
X1247169Y1012443D01*
X1247270Y1012544D01*
X1247280Y1012554D01*
X1247298Y1012572D01*
X1247326Y1012600D01*
X1247372Y1012628D01*
X1247437Y1012674D01*
X1247502Y1012720D01*
X1247585Y1012766D01*
X1247677Y1012822D01*
X1247779Y1012877D01*
X1247890Y1012924D01*
X1248019Y1012970D01*
X1248149Y1013016D01*
X1248287Y1013044D01*
X1248445Y1013072D01*
X1248602Y1013090D01*
X1248768Y1013099D01*
X1248777D01*
X1248796D01*
X1248824D01*
X1248870D01*
X1248925Y1013090D01*
D02*
G37*
G36*
X1249008Y1007829D02*
X1249082D01*
X1249258Y1007811D01*
X1249462Y1007792D01*
X1249674Y1007755D01*
X1249868Y1007700D01*
X1250053Y1007635D01*
X1250062D01*
X1250072Y1007626D01*
X1250127Y1007598D01*
X1250201Y1007552D01*
X1250303Y1007487D01*
X1250405Y1007395D01*
X1250516Y1007293D01*
X1250627Y1007163D01*
X1250719Y1007016D01*
X1250728Y1006997D01*
X1250756Y1006942D01*
X1250793Y1006858D01*
X1250830Y1006738D01*
X1250876Y1006590D01*
X1250913Y1006424D01*
X1250941Y1006239D01*
X1250950Y1006036D01*
Y1005952D01*
X1250941Y1005897D01*
X1250932Y1005823D01*
X1250922Y1005749D01*
X1250885Y1005555D01*
X1250830Y1005351D01*
X1250747Y1005139D01*
X1250691Y1005028D01*
X1250627Y1004926D01*
X1250553Y1004834D01*
X1250469Y1004741D01*
X1250460Y1004732D01*
X1250451Y1004723D01*
X1250414Y1004704D01*
X1250377Y1004677D01*
X1250331Y1004640D01*
X1250266Y1004603D01*
X1250192Y1004566D01*
X1250109Y1004519D01*
X1250016Y1004482D01*
X1249905Y1004445D01*
X1249794Y1004408D01*
X1249665Y1004371D01*
X1249526Y1004353D01*
X1249369Y1004325D01*
X1249212Y1004316D01*
X1249036D01*
X1248925Y1005083D01*
X1248934D01*
X1248953D01*
X1248990D01*
X1249045Y1005092D01*
X1249101Y1005102D01*
X1249166D01*
X1249323Y1005129D01*
X1249489Y1005157D01*
X1249656Y1005213D01*
X1249804Y1005268D01*
X1249868Y1005305D01*
X1249924Y1005351D01*
X1249933Y1005361D01*
X1249961Y1005398D01*
X1250007Y1005453D01*
X1250053Y1005527D01*
X1250109Y1005629D01*
X1250146Y1005740D01*
X1250183Y1005878D01*
X1250192Y1006026D01*
Y1006082D01*
X1250183Y1006137D01*
X1250173Y1006220D01*
X1250155Y1006304D01*
X1250136Y1006396D01*
X1250099Y1006489D01*
X1250053Y1006581D01*
X1250044Y1006590D01*
X1250025Y1006618D01*
X1249988Y1006655D01*
X1249952Y1006711D01*
X1249887Y1006757D01*
X1249822Y1006812D01*
X1249748Y1006858D01*
X1249656Y1006895D01*
X1249646D01*
X1249610Y1006914D01*
X1249545Y1006923D01*
X1249462Y1006942D01*
X1249351Y1006960D01*
X1249212Y1006969D01*
X1249045Y1006988D01*
X1248851D01*
X1244441D01*
Y1007838D01*
X1248805D01*
X1248814D01*
X1248842D01*
X1248879D01*
X1248934D01*
X1249008Y1007829D01*
D02*
G37*
G36*
X1008069Y966896D02*
X1008143Y966887D01*
X1008217Y966877D01*
X1008411Y966840D01*
X1008615Y966785D01*
X1008827Y966702D01*
X1008938Y966646D01*
X1009040Y966581D01*
X1009132Y966507D01*
X1009225Y966424D01*
X1009234Y966415D01*
X1009243Y966406D01*
X1009262Y966369D01*
X1009289Y966332D01*
X1009326Y966286D01*
X1009363Y966221D01*
X1009400Y966147D01*
X1009447Y966064D01*
X1009484Y965971D01*
X1009521Y965860D01*
X1009558Y965749D01*
X1009595Y965620D01*
X1009613Y965481D01*
X1009641Y965324D01*
X1009650Y965167D01*
Y964991D01*
X1008883Y964880D01*
Y964890D01*
Y964908D01*
Y964945D01*
X1008873Y965001D01*
X1008864Y965056D01*
Y965121D01*
X1008837Y965278D01*
X1008809Y965444D01*
X1008753Y965611D01*
X1008698Y965759D01*
X1008661Y965823D01*
X1008615Y965879D01*
X1008605Y965888D01*
X1008568Y965916D01*
X1008513Y965962D01*
X1008439Y966008D01*
X1008337Y966064D01*
X1008226Y966101D01*
X1008088Y966138D01*
X1007940Y966147D01*
X1007884D01*
X1007829Y966138D01*
X1007746Y966128D01*
X1007662Y966110D01*
X1007570Y966092D01*
X1007477Y966055D01*
X1007385Y966008D01*
X1007376Y965999D01*
X1007348Y965981D01*
X1007311Y965944D01*
X1007255Y965907D01*
X1007209Y965842D01*
X1007154Y965777D01*
X1007107Y965703D01*
X1007071Y965611D01*
Y965601D01*
X1007052Y965564D01*
X1007043Y965500D01*
X1007024Y965416D01*
X1007006Y965306D01*
X1006997Y965167D01*
X1006978Y965001D01*
Y964806D01*
Y960396D01*
X1006127D01*
Y964760D01*
Y964769D01*
Y964797D01*
Y964834D01*
Y964890D01*
X1006137Y964964D01*
Y965038D01*
X1006155Y965213D01*
X1006174Y965416D01*
X1006211Y965629D01*
X1006266Y965823D01*
X1006331Y966008D01*
Y966018D01*
X1006340Y966027D01*
X1006368Y966082D01*
X1006414Y966156D01*
X1006479Y966258D01*
X1006571Y966360D01*
X1006673Y966470D01*
X1006802Y966581D01*
X1006950Y966674D01*
X1006969Y966683D01*
X1007024Y966711D01*
X1007107Y966748D01*
X1007228Y966785D01*
X1007376Y966831D01*
X1007542Y966868D01*
X1007727Y966896D01*
X1007930Y966905D01*
X1008014D01*
X1008069Y966896D01*
D02*
G37*
G36*
X1004112Y966785D02*
Y966757D01*
Y966720D01*
X1004103Y966665D01*
Y966591D01*
X1004093Y966498D01*
X1004084Y966397D01*
X1004075Y966286D01*
X1004056Y966156D01*
X1004038Y966027D01*
X1004010Y965870D01*
X1003982Y965712D01*
X1003955Y965546D01*
X1003918Y965361D01*
X1003825Y964982D01*
Y964973D01*
X1003816Y964936D01*
X1003798Y964880D01*
X1003770Y964797D01*
X1003742Y964705D01*
X1003705Y964594D01*
X1003668Y964464D01*
X1003613Y964326D01*
X1003557Y964168D01*
X1003502Y964011D01*
X1003363Y963660D01*
X1003197Y963290D01*
X1003012Y962920D01*
X1003002Y962911D01*
X1002984Y962874D01*
X1002956Y962828D01*
X1002919Y962754D01*
X1002873Y962671D01*
X1002808Y962569D01*
X1002744Y962458D01*
X1002670Y962338D01*
X1002494Y962070D01*
X1002309Y961792D01*
X1002096Y961506D01*
X1001874Y961237D01*
X1005009D01*
Y960479D01*
X1000867D01*
Y961099D01*
X1000876Y961108D01*
X1000894Y961127D01*
X1000931Y961164D01*
X1000968Y961219D01*
X1001024Y961284D01*
X1001098Y961358D01*
X1001172Y961450D01*
X1001255Y961561D01*
X1001338Y961672D01*
X1001440Y961802D01*
X1001542Y961949D01*
X1001643Y962097D01*
X1001754Y962264D01*
X1001865Y962439D01*
X1001976Y962634D01*
X1002087Y962828D01*
X1002096Y962837D01*
X1002115Y962874D01*
X1002143Y962930D01*
X1002189Y963013D01*
X1002235Y963114D01*
X1002291Y963225D01*
X1002355Y963355D01*
X1002420Y963503D01*
X1002494Y963669D01*
X1002577Y963836D01*
X1002651Y964020D01*
X1002725Y964215D01*
X1002873Y964612D01*
X1003012Y965038D01*
Y965047D01*
X1003021Y965074D01*
X1003030Y965121D01*
X1003049Y965176D01*
X1003067Y965250D01*
X1003086Y965343D01*
X1003113Y965444D01*
X1003132Y965555D01*
X1003160Y965685D01*
X1003187Y965823D01*
X1003234Y966119D01*
X1003280Y966443D01*
X1003308Y966794D01*
X1004112D01*
Y966785D01*
D02*
G37*
G36*
X585289Y596853D02*
X585354D01*
X585428Y596844D01*
X585603Y596807D01*
X585797Y596761D01*
X586001Y596687D01*
X586204Y596576D01*
X586306Y596511D01*
X586398Y596437D01*
X586408Y596428D01*
X586417Y596419D01*
X586445Y596391D01*
X586472Y596363D01*
X586519Y596317D01*
X586555Y596261D01*
X586657Y596132D01*
X586759Y595966D01*
X586851Y595762D01*
X586935Y595531D01*
X586990Y595272D01*
X586204Y595207D01*
Y595217D01*
X586195Y595226D01*
X586186Y595281D01*
X586158Y595365D01*
X586121Y595466D01*
X586084Y595577D01*
X586029Y595688D01*
X585964Y595790D01*
X585899Y595873D01*
X585881Y595892D01*
X585844Y595929D01*
X585779Y595984D01*
X585686Y596049D01*
X585566Y596104D01*
X585437Y596160D01*
X585280Y596197D01*
X585113Y596215D01*
X585048D01*
X584975Y596206D01*
X584891Y596188D01*
X584780Y596160D01*
X584669Y596123D01*
X584558Y596077D01*
X584448Y596003D01*
X584429Y595993D01*
X584383Y595956D01*
X584318Y595892D01*
X584235Y595799D01*
X584142Y595688D01*
X584041Y595559D01*
X583948Y595392D01*
X583856Y595207D01*
Y595198D01*
X583847Y595180D01*
X583837Y595152D01*
X583819Y595115D01*
X583810Y595060D01*
X583791Y594995D01*
X583773Y594921D01*
X583754Y594828D01*
X583726Y594727D01*
X583708Y594616D01*
X583689Y594496D01*
X583680Y594366D01*
X583662Y594218D01*
X583652Y594070D01*
X583643Y593904D01*
Y593737D01*
X583652Y593747D01*
X583689Y593802D01*
X583754Y593876D01*
X583837Y593969D01*
X583930Y594080D01*
X584050Y594181D01*
X584179Y594283D01*
X584327Y594375D01*
X584337D01*
X584346Y594385D01*
X584401Y594412D01*
X584484Y594440D01*
X584595Y594486D01*
X584725Y594523D01*
X584873Y594551D01*
X585030Y594579D01*
X585196Y594588D01*
X585270D01*
X585326Y594579D01*
X585400Y594570D01*
X585474Y594560D01*
X585566Y594542D01*
X585659Y594514D01*
X585871Y594449D01*
X585982Y594403D01*
X586093Y594338D01*
X586204Y594274D01*
X586324Y594200D01*
X586435Y594107D01*
X586537Y594006D01*
X586546Y593996D01*
X586565Y593978D01*
X586592Y593950D01*
X586620Y593904D01*
X586666Y593839D01*
X586713Y593774D01*
X586759Y593691D01*
X586814Y593599D01*
X586870Y593497D01*
X586916Y593386D01*
X586962Y593257D01*
X587009Y593127D01*
X587036Y592989D01*
X587064Y592831D01*
X587082Y592674D01*
X587092Y592508D01*
Y592499D01*
Y592480D01*
Y592452D01*
Y592406D01*
X587082Y592351D01*
Y592295D01*
X587055Y592147D01*
X587027Y591972D01*
X586981Y591787D01*
X586916Y591583D01*
X586824Y591389D01*
Y591380D01*
X586814Y591371D01*
X586796Y591343D01*
X586777Y591306D01*
X586722Y591213D01*
X586639Y591093D01*
X586537Y590964D01*
X586417Y590834D01*
X586269Y590705D01*
X586112Y590594D01*
X586102D01*
X586093Y590585D01*
X586065Y590566D01*
X586029Y590557D01*
X585936Y590511D01*
X585816Y590465D01*
X585659Y590409D01*
X585483Y590372D01*
X585289Y590335D01*
X585076Y590326D01*
X585030D01*
X584984Y590335D01*
X584910D01*
X584827Y590344D01*
X584734Y590363D01*
X584623Y590391D01*
X584512Y590418D01*
X584383Y590455D01*
X584253Y590502D01*
X584124Y590557D01*
X583985Y590631D01*
X583856Y590714D01*
X583726Y590807D01*
X583597Y590918D01*
X583477Y591047D01*
X583467Y591056D01*
X583449Y591084D01*
X583421Y591121D01*
X583384Y591186D01*
X583329Y591269D01*
X583283Y591361D01*
X583227Y591482D01*
X583172Y591611D01*
X583107Y591768D01*
X583051Y591944D01*
X583005Y592138D01*
X582959Y592351D01*
X582913Y592591D01*
X582885Y592850D01*
X582867Y593127D01*
X582857Y593423D01*
Y593432D01*
Y593442D01*
Y593469D01*
Y593506D01*
X582867Y593599D01*
Y593728D01*
X582876Y593876D01*
X582894Y594052D01*
X582913Y594246D01*
X582940Y594459D01*
X582977Y594671D01*
X583024Y594902D01*
X583079Y595124D01*
X583144Y595346D01*
X583227Y595559D01*
X583320Y595762D01*
X583421Y595956D01*
X583541Y596123D01*
X583551Y596132D01*
X583569Y596151D01*
X583606Y596188D01*
X583652Y596243D01*
X583708Y596298D01*
X583782Y596354D01*
X583874Y596428D01*
X583967Y596493D01*
X584078Y596557D01*
X584198Y596631D01*
X584337Y596687D01*
X584475Y596752D01*
X584632Y596798D01*
X584799Y596835D01*
X584975Y596853D01*
X585159Y596862D01*
X585233D01*
X585289Y596853D01*
D02*
G37*
G36*
X579168Y596936D02*
X579251D01*
X579335Y596927D01*
X579446Y596909D01*
X579557Y596890D01*
X579797Y596844D01*
X580074Y596770D01*
X580342Y596659D01*
X580481Y596594D01*
X580620Y596520D01*
X580629Y596511D01*
X580648Y596502D01*
X580685Y596474D01*
X580740Y596446D01*
X580796Y596400D01*
X580869Y596345D01*
X581027Y596215D01*
X581193Y596049D01*
X581378Y595845D01*
X581554Y595605D01*
X581702Y595337D01*
Y595328D01*
X581720Y595300D01*
X581739Y595263D01*
X581757Y595207D01*
X581794Y595134D01*
X581822Y595050D01*
X581859Y594949D01*
X581896Y594838D01*
X581923Y594717D01*
X581960Y594588D01*
X581997Y594449D01*
X582025Y594301D01*
X582062Y593978D01*
X582081Y593636D01*
Y593627D01*
Y593599D01*
Y593562D01*
Y593506D01*
X582071Y593432D01*
Y593349D01*
X582062Y593257D01*
X582053Y593164D01*
X582025Y592942D01*
X581979Y592702D01*
X581923Y592452D01*
X581840Y592212D01*
Y592203D01*
X581831Y592184D01*
X581813Y592147D01*
X581794Y592110D01*
X581766Y592055D01*
X581739Y591990D01*
X581665Y591842D01*
X581563Y591666D01*
X581433Y591482D01*
X581286Y591297D01*
X581119Y591112D01*
X581128D01*
X581147Y591093D01*
X581175Y591075D01*
X581221Y591047D01*
X581267Y591010D01*
X581332Y590973D01*
X581470Y590890D01*
X581637Y590788D01*
X581822Y590686D01*
X582016Y590603D01*
X582201Y590520D01*
X581951Y589938D01*
X581942D01*
X581923Y589947D01*
X581886Y589965D01*
X581831Y589984D01*
X581766Y590011D01*
X581692Y590048D01*
X581609Y590085D01*
X581517Y590132D01*
X581313Y590243D01*
X581082Y590372D01*
X580832Y590538D01*
X580574Y590723D01*
X580564D01*
X580546Y590705D01*
X580500Y590686D01*
X580453Y590659D01*
X580379Y590631D01*
X580305Y590594D01*
X580213Y590566D01*
X580111Y590529D01*
X580000Y590492D01*
X579880Y590455D01*
X579612Y590391D01*
X579316Y590344D01*
X579159Y590335D01*
X579002Y590326D01*
X578919D01*
X578854Y590335D01*
X578780D01*
X578688Y590344D01*
X578586Y590363D01*
X578475Y590381D01*
X578234Y590428D01*
X577966Y590502D01*
X577689Y590603D01*
X577560Y590668D01*
X577421Y590742D01*
X577412Y590751D01*
X577393Y590760D01*
X577356Y590788D01*
X577310Y590816D01*
X577245Y590862D01*
X577180Y590918D01*
X577023Y591047D01*
X576848Y591213D01*
X576672Y591417D01*
X576496Y591648D01*
X576339Y591916D01*
Y591925D01*
X576321Y591953D01*
X576302Y591990D01*
X576284Y592046D01*
X576256Y592119D01*
X576219Y592203D01*
X576182Y592304D01*
X576154Y592415D01*
X576117Y592536D01*
X576080Y592665D01*
X576053Y592804D01*
X576016Y592961D01*
X575979Y593284D01*
X575960Y593627D01*
Y593636D01*
Y593673D01*
Y593719D01*
X575969Y593784D01*
Y593867D01*
X575979Y593969D01*
X575988Y594080D01*
X576006Y594200D01*
X576053Y594468D01*
X576117Y594754D01*
X576210Y595060D01*
X576339Y595355D01*
X576348Y595365D01*
X576358Y595392D01*
X576376Y595429D01*
X576413Y595485D01*
X576450Y595550D01*
X576496Y595624D01*
X576626Y595799D01*
X576774Y595984D01*
X576968Y596178D01*
X577180Y596372D01*
X577430Y596539D01*
X577439Y596548D01*
X577467Y596557D01*
X577504Y596576D01*
X577560Y596604D01*
X577624Y596631D01*
X577698Y596668D01*
X577791Y596705D01*
X577892Y596742D01*
X578013Y596779D01*
X578133Y596816D01*
X578401Y596881D01*
X578697Y596927D01*
X578854Y596946D01*
X579104D01*
X579168Y596936D01*
D02*
G37*
G36*
X633510Y489991D02*
X633584Y489982D01*
X633667Y489972D01*
X633769Y489963D01*
X633870Y489935D01*
X634101Y489880D01*
X634333Y489797D01*
X634453Y489741D01*
X634573Y489677D01*
X634684Y489603D01*
X634795Y489519D01*
X634804Y489510D01*
X634823Y489501D01*
X634841Y489464D01*
X634878Y489427D01*
X634924Y489381D01*
X634971Y489325D01*
X635026Y489251D01*
X635072Y489168D01*
X635128Y489085D01*
X635183Y488983D01*
X635285Y488761D01*
X635368Y488502D01*
X635396Y488364D01*
X635414Y488216D01*
X634591Y488151D01*
Y488160D01*
Y488179D01*
X634582Y488206D01*
X634573Y488253D01*
X634545Y488354D01*
X634508Y488493D01*
X634453Y488632D01*
X634379Y488789D01*
X634286Y488928D01*
X634175Y489057D01*
X634157Y489066D01*
X634120Y489103D01*
X634046Y489150D01*
X633944Y489205D01*
X633833Y489260D01*
X633695Y489307D01*
X633537Y489344D01*
X633362Y489353D01*
X633306D01*
X633269Y489344D01*
X633158Y489334D01*
X633029Y489297D01*
X632872Y489251D01*
X632715Y489177D01*
X632548Y489066D01*
X632474Y489002D01*
X632400Y488928D01*
X632391Y488918D01*
X632382Y488909D01*
X632363Y488881D01*
X632336Y488854D01*
X632271Y488752D01*
X632197Y488623D01*
X632132Y488465D01*
X632067Y488271D01*
X632021Y488040D01*
X632003Y487920D01*
Y487790D01*
Y487781D01*
Y487763D01*
Y487726D01*
X632012Y487679D01*
Y487624D01*
X632021Y487559D01*
X632049Y487411D01*
X632095Y487236D01*
X632160Y487060D01*
X632252Y486894D01*
X632382Y486736D01*
Y486727D01*
X632400Y486718D01*
X632446Y486672D01*
X632530Y486607D01*
X632641Y486533D01*
X632789Y486468D01*
X632955Y486404D01*
X633149Y486357D01*
X633260Y486339D01*
X633436D01*
X633510Y486348D01*
X633602Y486357D01*
X633713Y486385D01*
X633824Y486413D01*
X633944Y486459D01*
X634064Y486515D01*
X634074Y486524D01*
X634111Y486542D01*
X634166Y486589D01*
X634240Y486635D01*
X634314Y486699D01*
X634388Y486783D01*
X634471Y486866D01*
X634536Y486968D01*
X635276Y486866D01*
X634656Y483574D01*
X631476D01*
Y484323D01*
X634037D01*
X634379Y486052D01*
X634370Y486043D01*
X634351Y486034D01*
X634323Y486015D01*
X634277Y485988D01*
X634222Y485960D01*
X634157Y485923D01*
X634009Y485849D01*
X633824Y485775D01*
X633621Y485710D01*
X633399Y485664D01*
X633288Y485645D01*
X633084D01*
X633029Y485655D01*
X632955Y485664D01*
X632872Y485673D01*
X632779Y485692D01*
X632678Y485719D01*
X632456Y485784D01*
X632336Y485830D01*
X632215Y485895D01*
X632095Y485960D01*
X631975Y486034D01*
X631864Y486126D01*
X631753Y486228D01*
X631744Y486237D01*
X631725Y486256D01*
X631698Y486283D01*
X631660Y486330D01*
X631614Y486394D01*
X631568Y486459D01*
X631513Y486542D01*
X631457Y486635D01*
X631411Y486736D01*
X631355Y486847D01*
X631309Y486977D01*
X631263Y487106D01*
X631226Y487245D01*
X631198Y487402D01*
X631180Y487559D01*
X631171Y487726D01*
Y487735D01*
Y487763D01*
Y487809D01*
X631180Y487874D01*
X631189Y487948D01*
X631198Y488031D01*
X631217Y488133D01*
X631235Y488234D01*
X631291Y488475D01*
X631383Y488724D01*
X631439Y488854D01*
X631513Y488974D01*
X631587Y489103D01*
X631679Y489224D01*
X631688Y489233D01*
X631707Y489260D01*
X631744Y489297D01*
X631790Y489344D01*
X631855Y489399D01*
X631929Y489473D01*
X632021Y489538D01*
X632123Y489612D01*
X632234Y489686D01*
X632363Y489751D01*
X632502Y489815D01*
X632650Y489880D01*
X632807Y489926D01*
X632983Y489963D01*
X633168Y489991D01*
X633362Y490000D01*
X633445D01*
X633510Y489991D01*
D02*
G37*
G36*
X638419D02*
X638493Y489982D01*
X638567Y489972D01*
X638761Y489935D01*
X638965Y489880D01*
X639177Y489797D01*
X639288Y489741D01*
X639390Y489677D01*
X639482Y489603D01*
X639575Y489519D01*
X639584Y489510D01*
X639593Y489501D01*
X639612Y489464D01*
X639640Y489427D01*
X639677Y489381D01*
X639714Y489316D01*
X639750Y489242D01*
X639797Y489159D01*
X639834Y489066D01*
X639871Y488955D01*
X639908Y488844D01*
X639945Y488715D01*
X639963Y488576D01*
X639991Y488419D01*
X640000Y488262D01*
Y488086D01*
X639233Y487975D01*
Y487985D01*
Y488003D01*
Y488040D01*
X639223Y488096D01*
X639214Y488151D01*
Y488216D01*
X639187Y488373D01*
X639159Y488539D01*
X639103Y488706D01*
X639048Y488854D01*
X639011Y488918D01*
X638965Y488974D01*
X638955Y488983D01*
X638918Y489011D01*
X638863Y489057D01*
X638789Y489103D01*
X638687Y489159D01*
X638576Y489196D01*
X638438Y489233D01*
X638290Y489242D01*
X638234D01*
X638179Y489233D01*
X638096Y489224D01*
X638012Y489205D01*
X637920Y489187D01*
X637827Y489150D01*
X637735Y489103D01*
X637726Y489094D01*
X637698Y489076D01*
X637661Y489039D01*
X637606Y489002D01*
X637559Y488937D01*
X637504Y488872D01*
X637458Y488798D01*
X637421Y488706D01*
Y488697D01*
X637402Y488660D01*
X637393Y488595D01*
X637374Y488512D01*
X637356Y488401D01*
X637347Y488262D01*
X637328Y488096D01*
Y487901D01*
Y483491D01*
X636478D01*
Y487855D01*
Y487864D01*
Y487892D01*
Y487929D01*
Y487985D01*
X636487Y488059D01*
Y488133D01*
X636505Y488308D01*
X636524Y488512D01*
X636561Y488724D01*
X636616Y488918D01*
X636681Y489103D01*
Y489113D01*
X636690Y489122D01*
X636718Y489177D01*
X636764Y489251D01*
X636829Y489353D01*
X636921Y489455D01*
X637023Y489566D01*
X637152Y489677D01*
X637300Y489769D01*
X637319Y489778D01*
X637374Y489806D01*
X637458Y489843D01*
X637578Y489880D01*
X637726Y489926D01*
X637892Y489963D01*
X638077Y489991D01*
X638280Y490000D01*
X638364D01*
X638419Y489991D01*
D02*
G37*
G36*
X383047Y875993D02*
X383066Y875974D01*
X383103Y875937D01*
X383158Y875900D01*
X383223Y875844D01*
X383297Y875771D01*
X383389Y875697D01*
X383500Y875613D01*
X383611Y875530D01*
X383741Y875428D01*
X383889Y875327D01*
X384036Y875225D01*
X384203Y875114D01*
X384379Y875003D01*
X384573Y874892D01*
X384767Y874781D01*
X384776Y874772D01*
X384813Y874753D01*
X384869Y874726D01*
X384952Y874680D01*
X385053Y874633D01*
X385164Y874578D01*
X385294Y874513D01*
X385442Y874448D01*
X385608Y874374D01*
X385775Y874291D01*
X385960Y874217D01*
X386154Y874143D01*
X386551Y873995D01*
X386977Y873857D01*
X386986D01*
X387014Y873848D01*
X387060Y873838D01*
X387115Y873820D01*
X387189Y873801D01*
X387282Y873783D01*
X387383Y873755D01*
X387494Y873736D01*
X387624Y873709D01*
X387762Y873681D01*
X388058Y873635D01*
X388382Y873589D01*
X388733Y873561D01*
Y872757D01*
X388724D01*
X388696D01*
X388659D01*
X388604Y872766D01*
X388530D01*
X388437Y872775D01*
X388336Y872784D01*
X388225Y872794D01*
X388095Y872812D01*
X387966Y872831D01*
X387809Y872858D01*
X387651Y872886D01*
X387485Y872914D01*
X387300Y872951D01*
X386921Y873043D01*
X386912D01*
X386875Y873052D01*
X386819Y873071D01*
X386736Y873099D01*
X386644Y873126D01*
X386533Y873163D01*
X386403Y873200D01*
X386265Y873256D01*
X386107Y873311D01*
X385950Y873367D01*
X385599Y873505D01*
X385229Y873672D01*
X384859Y873857D01*
X384850Y873866D01*
X384813Y873885D01*
X384767Y873912D01*
X384693Y873949D01*
X384610Y873995D01*
X384508Y874060D01*
X384397Y874125D01*
X384277Y874199D01*
X384009Y874374D01*
X383731Y874559D01*
X383445Y874772D01*
X383177Y874994D01*
Y871860D01*
X382418D01*
Y876002D01*
X383038D01*
X383047Y875993D01*
D02*
G37*
G36*
X389232Y870861D02*
Y870852D01*
X389223Y870833D01*
X389205Y870796D01*
X389186Y870741D01*
X389159Y870676D01*
X389122Y870602D01*
X389085Y870519D01*
X389038Y870427D01*
X388927Y870223D01*
X388798Y869992D01*
X388632Y869742D01*
X388447Y869484D01*
Y869474D01*
X388465Y869456D01*
X388484Y869410D01*
X388511Y869363D01*
X388539Y869289D01*
X388576Y869215D01*
X388604Y869123D01*
X388641Y869021D01*
X388678Y868910D01*
X388715Y868790D01*
X388779Y868522D01*
X388826Y868226D01*
X388835Y868069D01*
X388844Y867912D01*
Y867829D01*
X388835Y867764D01*
Y867690D01*
X388826Y867598D01*
X388807Y867496D01*
X388789Y867385D01*
X388742Y867144D01*
X388669Y866876D01*
X388567Y866599D01*
X388502Y866469D01*
X388428Y866331D01*
X388419Y866322D01*
X388410Y866303D01*
X388382Y866266D01*
X388354Y866220D01*
X388308Y866155D01*
X388252Y866090D01*
X388123Y865933D01*
X387957Y865758D01*
X387753Y865582D01*
X387522Y865406D01*
X387254Y865249D01*
X387245D01*
X387217Y865231D01*
X387180Y865212D01*
X387124Y865194D01*
X387051Y865166D01*
X386967Y865129D01*
X386866Y865092D01*
X386755Y865064D01*
X386634Y865027D01*
X386505Y864990D01*
X386366Y864962D01*
X386209Y864926D01*
X385886Y864889D01*
X385544Y864870D01*
X385534D01*
X385497D01*
X385451D01*
X385386Y864879D01*
X385303D01*
X385201Y864889D01*
X385090Y864898D01*
X384970Y864916D01*
X384702Y864962D01*
X384416Y865027D01*
X384110Y865120D01*
X383815Y865249D01*
X383805Y865258D01*
X383778Y865268D01*
X383741Y865286D01*
X383685Y865323D01*
X383620Y865360D01*
X383546Y865406D01*
X383371Y865536D01*
X383186Y865684D01*
X382992Y865878D01*
X382798Y866090D01*
X382631Y866340D01*
X382622Y866349D01*
X382613Y866377D01*
X382594Y866414D01*
X382566Y866469D01*
X382539Y866534D01*
X382502Y866608D01*
X382465Y866701D01*
X382428Y866802D01*
X382391Y866923D01*
X382354Y867043D01*
X382289Y867311D01*
X382243Y867607D01*
X382224Y867764D01*
Y868014D01*
X382234Y868078D01*
Y868161D01*
X382243Y868245D01*
X382261Y868356D01*
X382280Y868466D01*
X382326Y868707D01*
X382400Y868984D01*
X382511Y869252D01*
X382576Y869391D01*
X382650Y869530D01*
X382659Y869539D01*
X382668Y869557D01*
X382696Y869594D01*
X382724Y869650D01*
X382770Y869705D01*
X382825Y869779D01*
X382955Y869937D01*
X383121Y870103D01*
X383325Y870288D01*
X383565Y870464D01*
X383833Y870611D01*
X383842D01*
X383870Y870630D01*
X383907Y870648D01*
X383963Y870667D01*
X384036Y870704D01*
X384120Y870732D01*
X384221Y870769D01*
X384332Y870806D01*
X384453Y870833D01*
X384582Y870870D01*
X384721Y870907D01*
X384869Y870935D01*
X385192Y870972D01*
X385534Y870991D01*
X385544D01*
X385571D01*
X385608D01*
X385664D01*
X385738Y870981D01*
X385821D01*
X385913Y870972D01*
X386006Y870963D01*
X386228Y870935D01*
X386468Y870889D01*
X386718Y870833D01*
X386958Y870750D01*
X386967D01*
X386986Y870741D01*
X387023Y870723D01*
X387060Y870704D01*
X387115Y870676D01*
X387180Y870648D01*
X387328Y870574D01*
X387504Y870473D01*
X387688Y870343D01*
X387873Y870195D01*
X388058Y870029D01*
Y870038D01*
X388077Y870057D01*
X388095Y870085D01*
X388123Y870131D01*
X388160Y870177D01*
X388197Y870242D01*
X388280Y870380D01*
X388382Y870547D01*
X388484Y870732D01*
X388567Y870926D01*
X388650Y871111D01*
X389232Y870861D01*
D02*
G37*
G36*
X1036338Y535807D02*
X1036458D01*
X1036597Y535798D01*
X1036736Y535780D01*
X1037050Y535752D01*
X1037383Y535706D01*
X1037697Y535641D01*
X1037854Y535595D01*
X1037993Y535549D01*
X1038002D01*
X1038021Y535539D01*
X1038058Y535521D01*
X1038113Y535502D01*
X1038169Y535475D01*
X1038243Y535438D01*
X1038400Y535345D01*
X1038576Y535234D01*
X1038761Y535105D01*
X1038936Y534938D01*
X1039093Y534753D01*
Y534744D01*
X1039112Y534726D01*
X1039130Y534698D01*
X1039149Y534661D01*
X1039177Y534605D01*
X1039213Y534550D01*
X1039250Y534476D01*
X1039278Y534402D01*
X1039352Y534226D01*
X1039417Y534014D01*
X1039454Y533783D01*
X1039472Y533524D01*
Y533450D01*
X1039463Y533404D01*
Y533339D01*
X1039454Y533265D01*
X1039417Y533089D01*
X1039371Y532895D01*
X1039297Y532692D01*
X1039195Y532488D01*
X1039130Y532387D01*
X1039056Y532294D01*
X1039047Y532285D01*
X1039038Y532276D01*
X1039010Y532248D01*
X1038982Y532220D01*
X1038936Y532183D01*
X1038881Y532137D01*
X1038751Y532044D01*
X1038585Y531952D01*
X1038381Y531860D01*
X1038150Y531786D01*
X1037882Y531730D01*
X1037818Y532488D01*
X1037827D01*
X1037845Y532497D01*
X1037864D01*
X1037901Y532507D01*
X1038002Y532534D01*
X1038113Y532571D01*
X1038243Y532618D01*
X1038372Y532682D01*
X1038492Y532756D01*
X1038594Y532849D01*
X1038603Y532858D01*
X1038631Y532895D01*
X1038668Y532960D01*
X1038705Y533034D01*
X1038751Y533135D01*
X1038788Y533256D01*
X1038816Y533394D01*
X1038825Y533542D01*
Y533607D01*
X1038816Y533672D01*
X1038807Y533755D01*
X1038788Y533857D01*
X1038761Y533958D01*
X1038724Y534069D01*
X1038668Y534171D01*
X1038659Y534180D01*
X1038640Y534217D01*
X1038603Y534273D01*
X1038548Y534328D01*
X1038483Y534402D01*
X1038409Y534476D01*
X1038326Y534550D01*
X1038224Y534624D01*
X1038215Y534633D01*
X1038169Y534652D01*
X1038104Y534689D01*
X1038021Y534726D01*
X1037910Y534772D01*
X1037781Y534818D01*
X1037633Y534864D01*
X1037466Y534911D01*
X1037457D01*
X1037448Y534920D01*
X1037420D01*
X1037383Y534929D01*
X1037290Y534948D01*
X1037170Y534975D01*
X1037022Y534994D01*
X1036865Y535012D01*
X1036690Y535022D01*
X1036505Y535031D01*
X1036495D01*
X1036468D01*
X1036421D01*
X1036347D01*
X1036366Y535022D01*
X1036412Y534985D01*
X1036477Y534929D01*
X1036569Y534864D01*
X1036662Y534772D01*
X1036764Y534661D01*
X1036865Y534532D01*
X1036958Y534384D01*
X1036967Y534365D01*
X1036995Y534310D01*
X1037032Y534226D01*
X1037069Y534125D01*
X1037115Y533986D01*
X1037152Y533838D01*
X1037179Y533672D01*
X1037189Y533496D01*
Y533422D01*
X1037179Y533367D01*
X1037170Y533293D01*
X1037161Y533219D01*
X1037142Y533126D01*
X1037115Y533034D01*
X1037050Y532821D01*
X1037004Y532710D01*
X1036948Y532599D01*
X1036884Y532479D01*
X1036800Y532368D01*
X1036717Y532257D01*
X1036616Y532155D01*
X1036606Y532146D01*
X1036588Y532128D01*
X1036560Y532109D01*
X1036514Y532072D01*
X1036449Y532026D01*
X1036384Y531980D01*
X1036301Y531934D01*
X1036209Y531887D01*
X1036107Y531832D01*
X1035996Y531786D01*
X1035867Y531739D01*
X1035737Y531693D01*
X1035589Y531656D01*
X1035432Y531638D01*
X1035275Y531619D01*
X1035099Y531610D01*
X1035090D01*
X1035053D01*
X1035007D01*
X1034942Y531619D01*
X1034859Y531628D01*
X1034757Y531638D01*
X1034656Y531656D01*
X1034535Y531684D01*
X1034295Y531749D01*
X1034165Y531795D01*
X1034027Y531850D01*
X1033897Y531915D01*
X1033777Y531998D01*
X1033648Y532081D01*
X1033537Y532183D01*
X1033528Y532192D01*
X1033509Y532211D01*
X1033481Y532239D01*
X1033444Y532285D01*
X1033398Y532340D01*
X1033343Y532414D01*
X1033296Y532488D01*
X1033232Y532581D01*
X1033176Y532673D01*
X1033130Y532784D01*
X1033028Y533034D01*
X1032991Y533163D01*
X1032963Y533311D01*
X1032945Y533459D01*
X1032936Y533616D01*
Y533681D01*
X1032945Y533727D01*
Y533773D01*
X1032954Y533838D01*
X1032982Y533995D01*
X1033019Y534171D01*
X1033084Y534365D01*
X1033167Y534559D01*
X1033278Y534753D01*
Y534763D01*
X1033296Y534772D01*
X1033315Y534800D01*
X1033343Y534837D01*
X1033417Y534929D01*
X1033518Y535049D01*
X1033657Y535169D01*
X1033823Y535308D01*
X1034017Y535428D01*
X1034239Y535539D01*
X1034249D01*
X1034267Y535549D01*
X1034304Y535567D01*
X1034350Y535586D01*
X1034415Y535604D01*
X1034498Y535632D01*
X1034591Y535650D01*
X1034692Y535678D01*
X1034813Y535706D01*
X1034951Y535733D01*
X1035099Y535752D01*
X1035256Y535770D01*
X1035432Y535789D01*
X1035617Y535807D01*
X1035820Y535817D01*
X1036033D01*
X1036042D01*
X1036088D01*
X1036153D01*
X1036236D01*
X1036338Y535807D01*
D02*
G37*
G36*
X1036320Y530759D02*
X1036394D01*
X1036569Y530750D01*
X1036773Y530722D01*
X1036985Y530695D01*
X1037207Y530648D01*
X1037429Y530593D01*
X1037438D01*
X1037457Y530584D01*
X1037485Y530574D01*
X1037522Y530565D01*
X1037623Y530528D01*
X1037753Y530473D01*
X1037901Y530417D01*
X1038049Y530343D01*
X1038206Y530251D01*
X1038354Y530158D01*
X1038372Y530149D01*
X1038418Y530112D01*
X1038483Y530057D01*
X1038566Y529983D01*
X1038659Y529899D01*
X1038751Y529798D01*
X1038853Y529696D01*
X1038936Y529576D01*
X1038945Y529557D01*
X1038973Y529520D01*
X1039010Y529456D01*
X1039056Y529363D01*
X1039112Y529252D01*
X1039158Y529123D01*
X1039213Y528975D01*
X1039260Y528808D01*
Y528790D01*
X1039269Y528762D01*
X1039278Y528735D01*
X1039287Y528642D01*
X1039306Y528513D01*
X1039324Y528365D01*
X1039343Y528189D01*
X1039352Y527995D01*
X1039361Y527782D01*
Y525480D01*
X1032963D01*
Y527939D01*
X1032973Y528106D01*
X1032982Y528291D01*
X1033000Y528476D01*
X1033028Y528661D01*
X1033056Y528818D01*
Y528827D01*
X1033065Y528845D01*
Y528873D01*
X1033084Y528910D01*
X1033111Y529012D01*
X1033158Y529141D01*
X1033222Y529289D01*
X1033306Y529446D01*
X1033398Y529604D01*
X1033518Y529752D01*
X1033528Y529761D01*
X1033537Y529770D01*
X1033565Y529798D01*
X1033592Y529835D01*
X1033685Y529927D01*
X1033814Y530038D01*
X1033971Y530158D01*
X1034156Y530288D01*
X1034369Y530408D01*
X1034609Y530510D01*
X1034619D01*
X1034637Y530519D01*
X1034674Y530537D01*
X1034729Y530547D01*
X1034794Y530574D01*
X1034868Y530593D01*
X1034951Y530611D01*
X1035053Y530639D01*
X1035155Y530667D01*
X1035275Y530685D01*
X1035534Y530732D01*
X1035820Y530759D01*
X1036135Y530769D01*
X1036144D01*
X1036162D01*
X1036209D01*
X1036255D01*
X1036320Y530759D01*
D02*
G37*
G36*
X1398981Y603666D02*
X1401764D01*
Y602945D01*
X1398833Y598803D01*
X1398195D01*
Y602945D01*
X1397326D01*
Y603666D01*
X1398195D01*
Y605201D01*
X1398981D01*
Y603666D01*
D02*
G37*
G36*
X1402467Y605691D02*
X1402504Y605672D01*
X1402559Y605654D01*
X1402624Y605626D01*
X1402698Y605589D01*
X1402781Y605552D01*
X1402874Y605506D01*
X1403077Y605395D01*
X1403308Y605266D01*
X1403558Y605099D01*
X1403817Y604914D01*
X1403826D01*
X1403844Y604933D01*
X1403891Y604951D01*
X1403937Y604979D01*
X1404011Y605007D01*
X1404085Y605044D01*
X1404177Y605071D01*
X1404279Y605108D01*
X1404390Y605145D01*
X1404510Y605182D01*
X1404778Y605247D01*
X1405074Y605293D01*
X1405231Y605303D01*
X1405388Y605312D01*
X1405471D01*
X1405536Y605303D01*
X1405610D01*
X1405703Y605293D01*
X1405804Y605275D01*
X1405915Y605256D01*
X1406156Y605210D01*
X1406424Y605136D01*
X1406701Y605034D01*
X1406831Y604970D01*
X1406969Y604896D01*
X1406978Y604887D01*
X1406997Y604877D01*
X1407034Y604850D01*
X1407080Y604822D01*
X1407145Y604776D01*
X1407210Y604720D01*
X1407367Y604591D01*
X1407543Y604424D01*
X1407718Y604221D01*
X1407894Y603990D01*
X1408051Y603722D01*
Y603712D01*
X1408069Y603685D01*
X1408088Y603648D01*
X1408107Y603592D01*
X1408134Y603518D01*
X1408171Y603435D01*
X1408208Y603333D01*
X1408236Y603222D01*
X1408273Y603102D01*
X1408310Y602973D01*
X1408338Y602834D01*
X1408375Y602677D01*
X1408412Y602353D01*
X1408430Y602011D01*
Y602002D01*
Y601965D01*
Y601919D01*
X1408421Y601854D01*
Y601771D01*
X1408412Y601669D01*
X1408402Y601558D01*
X1408384Y601438D01*
X1408338Y601170D01*
X1408273Y600883D01*
X1408180Y600578D01*
X1408051Y600282D01*
X1408042Y600273D01*
X1408033Y600245D01*
X1408014Y600208D01*
X1407977Y600153D01*
X1407940Y600088D01*
X1407894Y600014D01*
X1407764Y599838D01*
X1407616Y599654D01*
X1407422Y599459D01*
X1407210Y599265D01*
X1406960Y599099D01*
X1406951Y599090D01*
X1406923Y599080D01*
X1406886Y599062D01*
X1406831Y599034D01*
X1406766Y599006D01*
X1406692Y598969D01*
X1406599Y598932D01*
X1406498Y598895D01*
X1406378Y598858D01*
X1406257Y598821D01*
X1405989Y598757D01*
X1405693Y598711D01*
X1405536Y598692D01*
X1405287D01*
X1405222Y598701D01*
X1405139D01*
X1405055Y598711D01*
X1404944Y598729D01*
X1404834Y598747D01*
X1404593Y598794D01*
X1404316Y598868D01*
X1404048Y598979D01*
X1403909Y599043D01*
X1403770Y599117D01*
X1403761Y599127D01*
X1403743Y599136D01*
X1403706Y599164D01*
X1403650Y599191D01*
X1403595Y599238D01*
X1403521Y599293D01*
X1403363Y599422D01*
X1403197Y599589D01*
X1403012Y599792D01*
X1402836Y600033D01*
X1402689Y600301D01*
Y600310D01*
X1402670Y600338D01*
X1402652Y600375D01*
X1402633Y600430D01*
X1402596Y600504D01*
X1402568Y600587D01*
X1402531Y600689D01*
X1402494Y600800D01*
X1402467Y600920D01*
X1402430Y601050D01*
X1402393Y601188D01*
X1402365Y601336D01*
X1402328Y601660D01*
X1402310Y602002D01*
Y602011D01*
Y602039D01*
Y602076D01*
Y602131D01*
X1402319Y602205D01*
Y602289D01*
X1402328Y602381D01*
X1402337Y602473D01*
X1402365Y602695D01*
X1402411Y602936D01*
X1402467Y603185D01*
X1402550Y603426D01*
Y603435D01*
X1402559Y603453D01*
X1402578Y603490D01*
X1402596Y603527D01*
X1402624Y603583D01*
X1402652Y603648D01*
X1402726Y603796D01*
X1402827Y603971D01*
X1402957Y604156D01*
X1403105Y604341D01*
X1403271Y604526D01*
X1403262D01*
X1403243Y604544D01*
X1403216Y604563D01*
X1403169Y604591D01*
X1403123Y604628D01*
X1403058Y604665D01*
X1402920Y604748D01*
X1402753Y604850D01*
X1402568Y604951D01*
X1402374Y605034D01*
X1402189Y605118D01*
X1402439Y605700D01*
X1402448D01*
X1402467Y605691D01*
D02*
G37*
G36*
X1155030Y202810D02*
Y202801D01*
Y202764D01*
Y202718D01*
Y202653D01*
X1155020Y202570D01*
Y202478D01*
X1155011Y202367D01*
X1155002Y202256D01*
X1154974Y202006D01*
X1154937Y201747D01*
X1154882Y201498D01*
X1154845Y201378D01*
X1154808Y201266D01*
Y201257D01*
X1154798Y201239D01*
X1154780Y201211D01*
X1154761Y201174D01*
X1154706Y201072D01*
X1154623Y200943D01*
X1154512Y200795D01*
X1154382Y200647D01*
X1154216Y200490D01*
X1154013Y200351D01*
X1154003D01*
X1153985Y200333D01*
X1153957Y200324D01*
X1153911Y200296D01*
X1153855Y200268D01*
X1153781Y200240D01*
X1153707Y200212D01*
X1153615Y200175D01*
X1153513Y200139D01*
X1153402Y200111D01*
X1153282Y200083D01*
X1153143Y200055D01*
X1153005Y200037D01*
X1152857Y200018D01*
X1152524Y200000D01*
X1152441D01*
X1152376Y200009D01*
X1152302D01*
X1152210Y200018D01*
X1152108Y200028D01*
X1152006Y200037D01*
X1151775Y200074D01*
X1151525Y200129D01*
X1151285Y200203D01*
X1151054Y200305D01*
X1151045D01*
X1151026Y200324D01*
X1150998Y200342D01*
X1150961Y200361D01*
X1150860Y200434D01*
X1150740Y200536D01*
X1150601Y200666D01*
X1150471Y200814D01*
X1150342Y200998D01*
X1150240Y201202D01*
Y201211D01*
X1150231Y201229D01*
X1150222Y201266D01*
X1150203Y201313D01*
X1150185Y201368D01*
X1150166Y201442D01*
X1150139Y201525D01*
X1150120Y201627D01*
X1150102Y201738D01*
X1150074Y201858D01*
X1150055Y201988D01*
X1150037Y202126D01*
X1150018Y202283D01*
X1150009Y202450D01*
X1150000Y202626D01*
Y202810D01*
Y206509D01*
X1150851D01*
Y202810D01*
Y202801D01*
Y202774D01*
Y202727D01*
Y202672D01*
X1150860Y202607D01*
Y202524D01*
X1150869Y202348D01*
X1150888Y202145D01*
X1150915Y201942D01*
X1150952Y201747D01*
X1150971Y201664D01*
X1150998Y201581D01*
X1151008Y201562D01*
X1151026Y201516D01*
X1151072Y201451D01*
X1151128Y201359D01*
X1151193Y201266D01*
X1151285Y201165D01*
X1151396Y201063D01*
X1151525Y200980D01*
X1151544Y200971D01*
X1151590Y200943D01*
X1151673Y200915D01*
X1151784Y200878D01*
X1151914Y200832D01*
X1152080Y200804D01*
X1152256Y200777D01*
X1152450Y200767D01*
X1152542D01*
X1152598Y200777D01*
X1152681D01*
X1152764Y200786D01*
X1152968Y200823D01*
X1153190Y200869D01*
X1153402Y200943D01*
X1153606Y201045D01*
X1153698Y201109D01*
X1153781Y201183D01*
X1153791Y201193D01*
X1153800Y201202D01*
X1153818Y201229D01*
X1153846Y201266D01*
X1153874Y201322D01*
X1153911Y201378D01*
X1153948Y201461D01*
X1153985Y201544D01*
X1154022Y201646D01*
X1154050Y201766D01*
X1154086Y201905D01*
X1154114Y202052D01*
X1154142Y202219D01*
X1154160Y202395D01*
X1154179Y202598D01*
Y202810D01*
Y206509D01*
X1155030D01*
Y202810D01*
D02*
G37*
G36*
X1159421Y202367D02*
X1160290D01*
Y201646D01*
X1159421D01*
Y200111D01*
X1158635D01*
Y201646D01*
X1155852D01*
Y202367D01*
X1158783Y206509D01*
X1159421D01*
Y202367D01*
D02*
G37*
G36*
X909159Y545418D02*
X908309D01*
Y551058D01*
X905156D01*
Y551816D01*
X909159D01*
Y545418D01*
D02*
G37*
G36*
X902299Y546814D02*
X902309Y546823D01*
X902355Y546860D01*
X902410Y546916D01*
X902503Y546981D01*
X902604Y547064D01*
X902734Y547156D01*
X902882Y547258D01*
X903048Y547360D01*
X903057D01*
X903067Y547369D01*
X903122Y547406D01*
X903214Y547452D01*
X903326Y547508D01*
X903455Y547572D01*
X903594Y547637D01*
X903732Y547702D01*
X903871Y547757D01*
Y546999D01*
X903862D01*
X903843Y546981D01*
X903806Y546971D01*
X903760Y546944D01*
X903705Y546916D01*
X903640Y546879D01*
X903483Y546786D01*
X903298Y546685D01*
X903113Y546555D01*
X902919Y546407D01*
X902725Y546250D01*
X902715Y546241D01*
X902706Y546232D01*
X902678Y546204D01*
X902641Y546176D01*
X902558Y546084D01*
X902447Y545973D01*
X902336Y545843D01*
X902216Y545695D01*
X902114Y545547D01*
X902022Y545390D01*
X901513D01*
Y551816D01*
X902299D01*
Y546814D01*
D02*
G37*
G36*
X1281380Y602908D02*
Y602899D01*
Y602862D01*
Y602816D01*
Y602751D01*
X1281370Y602668D01*
Y602575D01*
X1281361Y602464D01*
X1281352Y602354D01*
X1281324Y602104D01*
X1281287Y601845D01*
X1281232Y601595D01*
X1281195Y601475D01*
X1281158Y601364D01*
Y601355D01*
X1281149Y601337D01*
X1281130Y601309D01*
X1281111Y601272D01*
X1281056Y601170D01*
X1280973Y601041D01*
X1280862Y600893D01*
X1280732Y600745D01*
X1280566Y600588D01*
X1280363Y600449D01*
X1280353D01*
X1280335Y600430D01*
X1280307Y600421D01*
X1280261Y600393D01*
X1280205Y600366D01*
X1280132Y600338D01*
X1280058Y600310D01*
X1279965Y600273D01*
X1279863Y600236D01*
X1279752Y600209D01*
X1279632Y600181D01*
X1279493Y600153D01*
X1279355Y600135D01*
X1279207Y600116D01*
X1278874Y600098D01*
X1278791D01*
X1278726Y600107D01*
X1278652D01*
X1278560Y600116D01*
X1278458Y600125D01*
X1278356Y600135D01*
X1278125Y600172D01*
X1277876Y600227D01*
X1277635Y600301D01*
X1277404Y600403D01*
X1277395D01*
X1277376Y600421D01*
X1277348Y600440D01*
X1277311Y600458D01*
X1277210Y600532D01*
X1277090Y600634D01*
X1276951Y600763D01*
X1276822Y600911D01*
X1276692Y601096D01*
X1276590Y601300D01*
Y601309D01*
X1276581Y601327D01*
X1276572Y601364D01*
X1276553Y601410D01*
X1276535Y601466D01*
X1276516Y601540D01*
X1276489Y601623D01*
X1276470Y601725D01*
X1276452Y601836D01*
X1276424Y601956D01*
X1276405Y602085D01*
X1276387Y602224D01*
X1276368Y602381D01*
X1276359Y602548D01*
X1276350Y602723D01*
Y602908D01*
Y606606D01*
X1277201D01*
Y602908D01*
Y602899D01*
Y602871D01*
Y602825D01*
Y602770D01*
X1277210Y602705D01*
Y602622D01*
X1277219Y602446D01*
X1277238Y602243D01*
X1277265Y602039D01*
X1277302Y601845D01*
X1277321Y601762D01*
X1277348Y601679D01*
X1277358Y601660D01*
X1277376Y601614D01*
X1277422Y601549D01*
X1277478Y601457D01*
X1277543Y601364D01*
X1277635Y601263D01*
X1277746Y601161D01*
X1277876Y601078D01*
X1277894Y601068D01*
X1277940Y601041D01*
X1278024Y601013D01*
X1278134Y600976D01*
X1278264Y600930D01*
X1278430Y600902D01*
X1278606Y600874D01*
X1278800Y600865D01*
X1278893D01*
X1278948Y600874D01*
X1279031D01*
X1279114Y600883D01*
X1279318Y600920D01*
X1279540Y600967D01*
X1279752Y601041D01*
X1279956Y601142D01*
X1280048Y601207D01*
X1280132Y601281D01*
X1280141Y601290D01*
X1280150Y601300D01*
X1280168Y601327D01*
X1280196Y601364D01*
X1280224Y601420D01*
X1280261Y601475D01*
X1280298Y601558D01*
X1280335Y601642D01*
X1280372Y601743D01*
X1280400Y601864D01*
X1280437Y602002D01*
X1280464Y602150D01*
X1280492Y602317D01*
X1280511Y602492D01*
X1280529Y602696D01*
Y602908D01*
Y606606D01*
X1281380D01*
Y602908D01*
D02*
G37*
G36*
X1284689Y606625D02*
X1284763Y606616D01*
X1284847Y606606D01*
X1284939Y606597D01*
X1285032Y606570D01*
X1285253Y606514D01*
X1285475Y606431D01*
X1285586Y606375D01*
X1285697Y606311D01*
X1285799Y606227D01*
X1285901Y606144D01*
X1285910Y606135D01*
X1285919Y606126D01*
X1285947Y606098D01*
X1285984Y606061D01*
X1286021Y606006D01*
X1286067Y605950D01*
X1286160Y605811D01*
X1286252Y605636D01*
X1286335Y605432D01*
X1286400Y605201D01*
X1286409Y605081D01*
X1286418Y604952D01*
Y604942D01*
Y604933D01*
Y604878D01*
X1286409Y604794D01*
X1286391Y604693D01*
X1286363Y604563D01*
X1286317Y604434D01*
X1286261Y604304D01*
X1286178Y604175D01*
X1286169Y604156D01*
X1286132Y604119D01*
X1286076Y604064D01*
X1286002Y603990D01*
X1285901Y603907D01*
X1285780Y603824D01*
X1285642Y603740D01*
X1285475Y603666D01*
X1285485D01*
X1285503Y603657D01*
X1285531Y603648D01*
X1285568Y603629D01*
X1285679Y603583D01*
X1285808Y603518D01*
X1285947Y603426D01*
X1286095Y603324D01*
X1286234Y603195D01*
X1286363Y603047D01*
Y603038D01*
X1286372Y603028D01*
X1286409Y602973D01*
X1286465Y602881D01*
X1286520Y602760D01*
X1286576Y602612D01*
X1286631Y602437D01*
X1286668Y602243D01*
X1286677Y602030D01*
Y602021D01*
Y601993D01*
Y601947D01*
X1286668Y601891D01*
X1286659Y601827D01*
X1286650Y601743D01*
X1286631Y601651D01*
X1286603Y601549D01*
X1286539Y601337D01*
X1286492Y601216D01*
X1286428Y601105D01*
X1286363Y600985D01*
X1286289Y600874D01*
X1286197Y600763D01*
X1286095Y600652D01*
X1286086Y600643D01*
X1286067Y600625D01*
X1286039Y600597D01*
X1285993Y600569D01*
X1285928Y600523D01*
X1285864Y600477D01*
X1285780Y600430D01*
X1285688Y600375D01*
X1285586Y600319D01*
X1285466Y600273D01*
X1285337Y600227D01*
X1285207Y600181D01*
X1285059Y600153D01*
X1284902Y600125D01*
X1284745Y600107D01*
X1284569Y600098D01*
X1284477D01*
X1284412Y600107D01*
X1284329Y600116D01*
X1284236Y600125D01*
X1284135Y600144D01*
X1284024Y600172D01*
X1283774Y600236D01*
X1283645Y600283D01*
X1283525Y600329D01*
X1283395Y600393D01*
X1283266Y600467D01*
X1283145Y600551D01*
X1283035Y600652D01*
X1283025Y600662D01*
X1283007Y600680D01*
X1282979Y600708D01*
X1282942Y600754D01*
X1282905Y600810D01*
X1282850Y600874D01*
X1282803Y600948D01*
X1282748Y601041D01*
X1282693Y601133D01*
X1282646Y601244D01*
X1282554Y601475D01*
X1282517Y601614D01*
X1282489Y601753D01*
X1282471Y601900D01*
X1282461Y602048D01*
Y602058D01*
Y602076D01*
Y602113D01*
X1282471Y602150D01*
Y602206D01*
X1282480Y602270D01*
X1282498Y602418D01*
X1282535Y602585D01*
X1282591Y602751D01*
X1282674Y602927D01*
X1282776Y603093D01*
Y603102D01*
X1282794Y603112D01*
X1282831Y603158D01*
X1282905Y603232D01*
X1283007Y603324D01*
X1283136Y603417D01*
X1283293Y603518D01*
X1283469Y603602D01*
X1283682Y603666D01*
X1283672D01*
X1283663Y603676D01*
X1283636Y603685D01*
X1283599Y603703D01*
X1283515Y603740D01*
X1283404Y603796D01*
X1283284Y603870D01*
X1283164Y603962D01*
X1283053Y604064D01*
X1282951Y604175D01*
X1282942Y604193D01*
X1282914Y604230D01*
X1282877Y604304D01*
X1282840Y604397D01*
X1282794Y604517D01*
X1282757Y604656D01*
X1282729Y604813D01*
X1282720Y604979D01*
Y604989D01*
Y605007D01*
Y605044D01*
X1282729Y605099D01*
X1282739Y605155D01*
X1282748Y605229D01*
X1282785Y605386D01*
X1282840Y605571D01*
X1282933Y605765D01*
X1282988Y605867D01*
X1283053Y605969D01*
X1283136Y606061D01*
X1283219Y606153D01*
X1283229Y606163D01*
X1283247Y606172D01*
X1283275Y606200D01*
X1283312Y606227D01*
X1283358Y606264D01*
X1283423Y606301D01*
X1283497Y606348D01*
X1283571Y606394D01*
X1283663Y606440D01*
X1283765Y606486D01*
X1283876Y606523D01*
X1283996Y606560D01*
X1284255Y606616D01*
X1284403Y606625D01*
X1284551Y606634D01*
X1284634D01*
X1284689Y606625D01*
D02*
G37*
G36*
X1382436Y689768D02*
X1382556D01*
X1382695Y689759D01*
X1382833Y689740D01*
X1383148Y689713D01*
X1383481Y689666D01*
X1383795Y689602D01*
X1383952Y689555D01*
X1384091Y689509D01*
X1384100D01*
X1384118Y689500D01*
X1384155Y689481D01*
X1384211Y689463D01*
X1384266Y689435D01*
X1384340Y689398D01*
X1384498Y689306D01*
X1384673Y689195D01*
X1384858Y689065D01*
X1385034Y688899D01*
X1385191Y688714D01*
Y688705D01*
X1385210Y688686D01*
X1385228Y688659D01*
X1385246Y688622D01*
X1385274Y688566D01*
X1385311Y688511D01*
X1385348Y688437D01*
X1385376Y688363D01*
X1385450Y688187D01*
X1385515Y687974D01*
X1385552Y687743D01*
X1385570Y687484D01*
Y687410D01*
X1385561Y687364D01*
Y687299D01*
X1385552Y687225D01*
X1385515Y687050D01*
X1385468Y686856D01*
X1385394Y686652D01*
X1385293Y686449D01*
X1385228Y686347D01*
X1385154Y686255D01*
X1385145Y686245D01*
X1385135Y686236D01*
X1385108Y686208D01*
X1385080Y686181D01*
X1385034Y686144D01*
X1384978Y686097D01*
X1384849Y686005D01*
X1384682Y685912D01*
X1384479Y685820D01*
X1384248Y685746D01*
X1383980Y685691D01*
X1383915Y686449D01*
X1383924D01*
X1383943Y686458D01*
X1383961D01*
X1383998Y686467D01*
X1384100Y686495D01*
X1384211Y686532D01*
X1384340Y686578D01*
X1384470Y686643D01*
X1384590Y686717D01*
X1384692Y686809D01*
X1384701Y686819D01*
X1384729Y686856D01*
X1384766Y686920D01*
X1384803Y686994D01*
X1384849Y687096D01*
X1384886Y687216D01*
X1384914Y687355D01*
X1384923Y687503D01*
Y687568D01*
X1384914Y687632D01*
X1384904Y687715D01*
X1384886Y687817D01*
X1384858Y687919D01*
X1384821Y688030D01*
X1384766Y688131D01*
X1384756Y688141D01*
X1384738Y688178D01*
X1384701Y688233D01*
X1384646Y688289D01*
X1384581Y688363D01*
X1384507Y688437D01*
X1384424Y688511D01*
X1384322Y688585D01*
X1384313Y688594D01*
X1384266Y688612D01*
X1384202Y688649D01*
X1384118Y688686D01*
X1384008Y688733D01*
X1383878Y688779D01*
X1383730Y688825D01*
X1383564Y688871D01*
X1383555D01*
X1383545Y688880D01*
X1383518D01*
X1383481Y688890D01*
X1383388Y688908D01*
X1383268Y688936D01*
X1383120Y688954D01*
X1382963Y688973D01*
X1382787Y688982D01*
X1382602Y688991D01*
X1382593D01*
X1382565D01*
X1382519D01*
X1382445D01*
X1382464Y688982D01*
X1382510Y688945D01*
X1382574Y688890D01*
X1382667Y688825D01*
X1382759Y688733D01*
X1382861Y688622D01*
X1382963Y688492D01*
X1383055Y688344D01*
X1383065Y688326D01*
X1383092Y688270D01*
X1383129Y688187D01*
X1383166Y688085D01*
X1383212Y687947D01*
X1383249Y687799D01*
X1383277Y687632D01*
X1383286Y687457D01*
Y687383D01*
X1383277Y687327D01*
X1383268Y687253D01*
X1383259Y687179D01*
X1383240Y687087D01*
X1383212Y686994D01*
X1383148Y686782D01*
X1383102Y686671D01*
X1383046Y686560D01*
X1382981Y686440D01*
X1382898Y686329D01*
X1382815Y686218D01*
X1382713Y686116D01*
X1382704Y686107D01*
X1382685Y686088D01*
X1382658Y686070D01*
X1382612Y686033D01*
X1382547Y685986D01*
X1382482Y685940D01*
X1382399Y685894D01*
X1382306Y685848D01*
X1382205Y685792D01*
X1382094Y685746D01*
X1381964Y685700D01*
X1381835Y685654D01*
X1381687Y685617D01*
X1381530Y685598D01*
X1381373Y685580D01*
X1381197Y685571D01*
X1381188D01*
X1381151D01*
X1381104D01*
X1381040Y685580D01*
X1380957Y685589D01*
X1380855Y685598D01*
X1380753Y685617D01*
X1380633Y685644D01*
X1380392Y685709D01*
X1380263Y685755D01*
X1380124Y685811D01*
X1379995Y685876D01*
X1379875Y685959D01*
X1379745Y686042D01*
X1379634Y686144D01*
X1379625Y686153D01*
X1379607Y686171D01*
X1379579Y686199D01*
X1379542Y686245D01*
X1379496Y686301D01*
X1379440Y686375D01*
X1379394Y686449D01*
X1379329Y686541D01*
X1379274Y686634D01*
X1379228Y686745D01*
X1379126Y686994D01*
X1379089Y687124D01*
X1379061Y687272D01*
X1379043Y687420D01*
X1379033Y687577D01*
Y687642D01*
X1379043Y687688D01*
Y687734D01*
X1379052Y687799D01*
X1379080Y687956D01*
X1379117Y688131D01*
X1379181Y688326D01*
X1379265Y688520D01*
X1379375Y688714D01*
Y688723D01*
X1379394Y688733D01*
X1379413Y688760D01*
X1379440Y688797D01*
X1379514Y688890D01*
X1379616Y689010D01*
X1379755Y689130D01*
X1379921Y689269D01*
X1380115Y689389D01*
X1380337Y689500D01*
X1380346D01*
X1380365Y689509D01*
X1380402Y689528D01*
X1380448Y689546D01*
X1380513Y689565D01*
X1380596Y689592D01*
X1380688Y689611D01*
X1380790Y689639D01*
X1380910Y689666D01*
X1381049Y689694D01*
X1381197Y689713D01*
X1381354Y689731D01*
X1381530Y689750D01*
X1381715Y689768D01*
X1381918Y689777D01*
X1382131D01*
X1382140D01*
X1382186D01*
X1382251D01*
X1382334D01*
X1382436Y689768D01*
D02*
G37*
G36*
X1383000Y684470D02*
X1383092D01*
X1383203Y684461D01*
X1383314Y684452D01*
X1383564Y684424D01*
X1383823Y684387D01*
X1384072Y684332D01*
X1384193Y684295D01*
X1384303Y684258D01*
X1384313D01*
X1384331Y684248D01*
X1384359Y684230D01*
X1384396Y684211D01*
X1384498Y684156D01*
X1384627Y684073D01*
X1384775Y683962D01*
X1384923Y683832D01*
X1385080Y683666D01*
X1385219Y683463D01*
Y683453D01*
X1385237Y683435D01*
X1385246Y683407D01*
X1385274Y683361D01*
X1385302Y683305D01*
X1385330Y683231D01*
X1385357Y683157D01*
X1385394Y683065D01*
X1385431Y682963D01*
X1385459Y682852D01*
X1385487Y682732D01*
X1385515Y682593D01*
X1385533Y682455D01*
X1385552Y682307D01*
X1385570Y681974D01*
Y681891D01*
X1385561Y681826D01*
Y681752D01*
X1385552Y681660D01*
X1385542Y681558D01*
X1385533Y681456D01*
X1385496Y681225D01*
X1385441Y680975D01*
X1385367Y680735D01*
X1385265Y680504D01*
Y680495D01*
X1385246Y680476D01*
X1385228Y680448D01*
X1385210Y680411D01*
X1385135Y680310D01*
X1385034Y680190D01*
X1384904Y680051D01*
X1384756Y679921D01*
X1384572Y679792D01*
X1384368Y679690D01*
X1384359D01*
X1384340Y679681D01*
X1384303Y679672D01*
X1384257Y679653D01*
X1384202Y679635D01*
X1384128Y679616D01*
X1384045Y679589D01*
X1383943Y679570D01*
X1383832Y679552D01*
X1383712Y679524D01*
X1383582Y679505D01*
X1383444Y679487D01*
X1383286Y679468D01*
X1383120Y679459D01*
X1382944Y679450D01*
X1382759D01*
X1379061D01*
Y680301D01*
X1382759D01*
X1382769D01*
X1382796D01*
X1382843D01*
X1382898D01*
X1382963Y680310D01*
X1383046D01*
X1383222Y680319D01*
X1383425Y680338D01*
X1383629Y680365D01*
X1383823Y680402D01*
X1383906Y680421D01*
X1383989Y680448D01*
X1384008Y680458D01*
X1384054Y680476D01*
X1384118Y680522D01*
X1384211Y680578D01*
X1384303Y680643D01*
X1384405Y680735D01*
X1384507Y680846D01*
X1384590Y680975D01*
X1384599Y680994D01*
X1384627Y681040D01*
X1384655Y681123D01*
X1384692Y681234D01*
X1384738Y681364D01*
X1384766Y681530D01*
X1384793Y681706D01*
X1384803Y681900D01*
Y681992D01*
X1384793Y682048D01*
Y682131D01*
X1384784Y682214D01*
X1384747Y682418D01*
X1384701Y682640D01*
X1384627Y682852D01*
X1384525Y683056D01*
X1384461Y683148D01*
X1384387Y683231D01*
X1384377Y683241D01*
X1384368Y683250D01*
X1384340Y683268D01*
X1384303Y683296D01*
X1384248Y683324D01*
X1384193Y683361D01*
X1384109Y683398D01*
X1384026Y683435D01*
X1383924Y683472D01*
X1383804Y683499D01*
X1383665Y683536D01*
X1383518Y683564D01*
X1383351Y683592D01*
X1383176Y683610D01*
X1382972Y683629D01*
X1382759D01*
X1379061D01*
Y684480D01*
X1382759D01*
X1382769D01*
X1382806D01*
X1382852D01*
X1382917D01*
X1383000Y684470D01*
D02*
G37*
G36*
X1080720Y486680D02*
Y486671D01*
Y486634D01*
Y486588D01*
Y486523D01*
X1080710Y486440D01*
Y486348D01*
X1080701Y486237D01*
X1080692Y486126D01*
X1080664Y485876D01*
X1080627Y485617D01*
X1080572Y485368D01*
X1080535Y485247D01*
X1080498Y485136D01*
Y485127D01*
X1080488Y485109D01*
X1080470Y485081D01*
X1080451Y485044D01*
X1080396Y484942D01*
X1080313Y484813D01*
X1080202Y484665D01*
X1080072Y484517D01*
X1079906Y484360D01*
X1079703Y484221D01*
X1079693D01*
X1079675Y484203D01*
X1079647Y484193D01*
X1079601Y484166D01*
X1079545Y484138D01*
X1079471Y484110D01*
X1079397Y484082D01*
X1079305Y484045D01*
X1079203Y484009D01*
X1079092Y483981D01*
X1078972Y483953D01*
X1078833Y483925D01*
X1078695Y483907D01*
X1078547Y483888D01*
X1078214Y483870D01*
X1078131D01*
X1078066Y483879D01*
X1077992D01*
X1077900Y483888D01*
X1077798Y483898D01*
X1077696Y483907D01*
X1077465Y483944D01*
X1077215Y483999D01*
X1076975Y484073D01*
X1076744Y484175D01*
X1076735D01*
X1076716Y484193D01*
X1076688Y484212D01*
X1076651Y484230D01*
X1076550Y484304D01*
X1076430Y484406D01*
X1076291Y484536D01*
X1076161Y484683D01*
X1076032Y484868D01*
X1075930Y485072D01*
Y485081D01*
X1075921Y485099D01*
X1075912Y485136D01*
X1075893Y485183D01*
X1075875Y485238D01*
X1075856Y485312D01*
X1075829Y485395D01*
X1075810Y485497D01*
X1075792Y485608D01*
X1075764Y485728D01*
X1075745Y485858D01*
X1075727Y485996D01*
X1075708Y486153D01*
X1075699Y486320D01*
X1075690Y486496D01*
Y486680D01*
Y490379D01*
X1076541D01*
Y486680D01*
Y486671D01*
Y486644D01*
Y486597D01*
Y486542D01*
X1076550Y486477D01*
Y486394D01*
X1076559Y486218D01*
X1076578Y486015D01*
X1076605Y485811D01*
X1076642Y485617D01*
X1076661Y485534D01*
X1076688Y485451D01*
X1076698Y485432D01*
X1076716Y485386D01*
X1076762Y485321D01*
X1076818Y485229D01*
X1076883Y485136D01*
X1076975Y485035D01*
X1077086Y484933D01*
X1077215Y484850D01*
X1077234Y484841D01*
X1077280Y484813D01*
X1077363Y484785D01*
X1077474Y484748D01*
X1077604Y484702D01*
X1077770Y484674D01*
X1077946Y484646D01*
X1078140Y484637D01*
X1078232D01*
X1078288Y484646D01*
X1078371D01*
X1078454Y484656D01*
X1078658Y484693D01*
X1078880Y484739D01*
X1079092Y484813D01*
X1079296Y484915D01*
X1079388Y484979D01*
X1079471Y485053D01*
X1079481Y485063D01*
X1079490Y485072D01*
X1079508Y485099D01*
X1079536Y485136D01*
X1079564Y485192D01*
X1079601Y485247D01*
X1079638Y485331D01*
X1079675Y485414D01*
X1079712Y485516D01*
X1079739Y485636D01*
X1079776Y485774D01*
X1079804Y485922D01*
X1079832Y486089D01*
X1079850Y486264D01*
X1079869Y486468D01*
Y486680D01*
Y490379D01*
X1080720D01*
Y486680D01*
D02*
G37*
G36*
X1089059Y490397D02*
X1089133Y490388D01*
X1089225Y490379D01*
X1089327Y490360D01*
X1089429Y490342D01*
X1089669Y490277D01*
X1089910Y490185D01*
X1090030Y490129D01*
X1090150Y490064D01*
X1090261Y489981D01*
X1090363Y489889D01*
X1090372Y489879D01*
X1090390Y489870D01*
X1090409Y489833D01*
X1090446Y489796D01*
X1090492Y489750D01*
X1090538Y489685D01*
X1090584Y489621D01*
X1090640Y489537D01*
X1090732Y489362D01*
X1090825Y489140D01*
X1090862Y489029D01*
X1090880Y488899D01*
X1090899Y488770D01*
X1090908Y488631D01*
Y488613D01*
Y488567D01*
X1090899Y488493D01*
X1090890Y488391D01*
X1090871Y488280D01*
X1090834Y488151D01*
X1090797Y488012D01*
X1090742Y487873D01*
X1090732Y487855D01*
X1090714Y487808D01*
X1090677Y487734D01*
X1090621Y487633D01*
X1090548Y487522D01*
X1090455Y487383D01*
X1090344Y487244D01*
X1090215Y487087D01*
X1090196Y487069D01*
X1090150Y487013D01*
X1090104Y486967D01*
X1090058Y486921D01*
X1090002Y486865D01*
X1089928Y486791D01*
X1089854Y486717D01*
X1089762Y486634D01*
X1089669Y486542D01*
X1089558Y486440D01*
X1089438Y486338D01*
X1089309Y486218D01*
X1089161Y486098D01*
X1089013Y485969D01*
X1089004Y485959D01*
X1088985Y485941D01*
X1088948Y485913D01*
X1088902Y485876D01*
X1088846Y485821D01*
X1088782Y485765D01*
X1088634Y485645D01*
X1088476Y485506D01*
X1088329Y485368D01*
X1088199Y485247D01*
X1088144Y485201D01*
X1088098Y485155D01*
X1088088Y485146D01*
X1088061Y485118D01*
X1088024Y485081D01*
X1087977Y485026D01*
X1087931Y484961D01*
X1087876Y484896D01*
X1087765Y484739D01*
X1090917D01*
Y483981D01*
X1086674D01*
Y483990D01*
Y484027D01*
Y484082D01*
X1086683Y484156D01*
X1086692Y484240D01*
X1086711Y484332D01*
X1086729Y484425D01*
X1086766Y484526D01*
Y484536D01*
X1086775Y484545D01*
X1086794Y484600D01*
X1086831Y484683D01*
X1086886Y484794D01*
X1086960Y484924D01*
X1087053Y485072D01*
X1087154Y485220D01*
X1087284Y485377D01*
Y485386D01*
X1087302Y485395D01*
X1087349Y485451D01*
X1087432Y485534D01*
X1087552Y485654D01*
X1087691Y485793D01*
X1087866Y485959D01*
X1088079Y486144D01*
X1088310Y486338D01*
X1088319Y486348D01*
X1088356Y486375D01*
X1088412Y486422D01*
X1088476Y486477D01*
X1088560Y486551D01*
X1088661Y486634D01*
X1088763Y486727D01*
X1088883Y486828D01*
X1089115Y487050D01*
X1089346Y487272D01*
X1089457Y487383D01*
X1089558Y487494D01*
X1089651Y487596D01*
X1089725Y487698D01*
Y487707D01*
X1089743Y487716D01*
X1089762Y487744D01*
X1089780Y487781D01*
X1089845Y487882D01*
X1089919Y488003D01*
X1089984Y488151D01*
X1090048Y488308D01*
X1090085Y488483D01*
X1090104Y488650D01*
Y488659D01*
Y488668D01*
X1090095Y488724D01*
X1090085Y488816D01*
X1090058Y488918D01*
X1090021Y489047D01*
X1089956Y489177D01*
X1089873Y489306D01*
X1089762Y489436D01*
X1089743Y489454D01*
X1089697Y489491D01*
X1089632Y489537D01*
X1089530Y489602D01*
X1089401Y489658D01*
X1089253Y489713D01*
X1089078Y489750D01*
X1088883Y489759D01*
X1088828D01*
X1088791Y489750D01*
X1088680Y489741D01*
X1088550Y489713D01*
X1088412Y489676D01*
X1088255Y489611D01*
X1088107Y489528D01*
X1087968Y489417D01*
X1087950Y489399D01*
X1087913Y489352D01*
X1087857Y489278D01*
X1087802Y489168D01*
X1087737Y489038D01*
X1087681Y488872D01*
X1087644Y488687D01*
X1087626Y488474D01*
X1086822Y488557D01*
Y488567D01*
X1086831Y488594D01*
Y488641D01*
X1086840Y488705D01*
X1086859Y488779D01*
X1086877Y488862D01*
X1086905Y488964D01*
X1086933Y489066D01*
X1087007Y489288D01*
X1087117Y489510D01*
X1087182Y489621D01*
X1087265Y489732D01*
X1087349Y489833D01*
X1087441Y489926D01*
X1087450Y489935D01*
X1087469Y489944D01*
X1087496Y489972D01*
X1087543Y490000D01*
X1087598Y490037D01*
X1087663Y490074D01*
X1087737Y490120D01*
X1087829Y490166D01*
X1087931Y490212D01*
X1088042Y490259D01*
X1088162Y490296D01*
X1088292Y490332D01*
X1088430Y490360D01*
X1088578Y490388D01*
X1088735Y490397D01*
X1088902Y490406D01*
X1088994D01*
X1089059Y490397D01*
D02*
G37*
G36*
X1084769Y483981D02*
X1083983D01*
Y488983D01*
X1083974Y488973D01*
X1083928Y488937D01*
X1083872Y488881D01*
X1083780Y488816D01*
X1083678Y488733D01*
X1083549Y488641D01*
X1083401Y488539D01*
X1083234Y488437D01*
X1083225D01*
X1083216Y488428D01*
X1083160Y488391D01*
X1083068Y488345D01*
X1082957Y488289D01*
X1082828Y488225D01*
X1082689Y488160D01*
X1082550Y488095D01*
X1082411Y488040D01*
Y488798D01*
X1082421D01*
X1082439Y488816D01*
X1082476Y488825D01*
X1082522Y488853D01*
X1082578Y488881D01*
X1082643Y488918D01*
X1082800Y489010D01*
X1082985Y489112D01*
X1083170Y489242D01*
X1083364Y489389D01*
X1083558Y489547D01*
X1083567Y489556D01*
X1083576Y489565D01*
X1083604Y489593D01*
X1083641Y489621D01*
X1083724Y489713D01*
X1083835Y489824D01*
X1083946Y489953D01*
X1084066Y490101D01*
X1084168Y490249D01*
X1084260Y490406D01*
X1084769D01*
Y483981D01*
D02*
G37*
G36*
X1255000Y815484D02*
X1253733D01*
X1252217Y820024D01*
Y820033D01*
X1252208Y820052D01*
X1252198Y820079D01*
X1252180Y820126D01*
X1252143Y820237D01*
X1252097Y820375D01*
X1252051Y820533D01*
X1251995Y820690D01*
X1251949Y820838D01*
X1251912Y820967D01*
X1251903Y820949D01*
X1251893Y820902D01*
X1251866Y820819D01*
X1251829Y820708D01*
X1251783Y820560D01*
X1251718Y820385D01*
X1251653Y820181D01*
X1251570Y819941D01*
X1250035Y815484D01*
X1248898D01*
Y821882D01*
X1249712D01*
Y816529D01*
X1251579Y821882D01*
X1252337D01*
X1254186Y816437D01*
Y821882D01*
X1255000D01*
Y815484D01*
D02*
G37*
G36*
X1247520D02*
X1245061D01*
X1244894Y815494D01*
X1244710Y815503D01*
X1244525Y815521D01*
X1244340Y815549D01*
X1244183Y815577D01*
X1244173D01*
X1244155Y815586D01*
X1244127D01*
X1244090Y815605D01*
X1243988Y815632D01*
X1243859Y815679D01*
X1243711Y815743D01*
X1243554Y815826D01*
X1243397Y815919D01*
X1243249Y816039D01*
X1243240Y816048D01*
X1243230Y816058D01*
X1243203Y816085D01*
X1243166Y816113D01*
X1243073Y816206D01*
X1242962Y816335D01*
X1242842Y816492D01*
X1242713Y816677D01*
X1242592Y816890D01*
X1242491Y817130D01*
Y817139D01*
X1242481Y817158D01*
X1242463Y817195D01*
X1242454Y817250D01*
X1242426Y817315D01*
X1242407Y817389D01*
X1242389Y817472D01*
X1242361Y817574D01*
X1242334Y817676D01*
X1242315Y817796D01*
X1242269Y818055D01*
X1242241Y818341D01*
X1242232Y818656D01*
Y818665D01*
Y818683D01*
Y818730D01*
Y818776D01*
X1242241Y818841D01*
Y818915D01*
X1242250Y819090D01*
X1242278Y819294D01*
X1242306Y819506D01*
X1242352Y819728D01*
X1242407Y819950D01*
Y819959D01*
X1242417Y819978D01*
X1242426Y820005D01*
X1242435Y820042D01*
X1242472Y820144D01*
X1242528Y820274D01*
X1242583Y820422D01*
X1242657Y820570D01*
X1242749Y820727D01*
X1242842Y820875D01*
X1242851Y820893D01*
X1242888Y820939D01*
X1242944Y821004D01*
X1243018Y821087D01*
X1243101Y821180D01*
X1243203Y821272D01*
X1243304Y821374D01*
X1243425Y821457D01*
X1243443Y821466D01*
X1243480Y821494D01*
X1243545Y821531D01*
X1243637Y821577D01*
X1243748Y821633D01*
X1243877Y821679D01*
X1244025Y821734D01*
X1244192Y821781D01*
X1244210D01*
X1244238Y821790D01*
X1244266Y821799D01*
X1244358Y821808D01*
X1244488Y821827D01*
X1244636Y821845D01*
X1244811Y821864D01*
X1245005Y821873D01*
X1245218Y821882D01*
X1247520D01*
Y815484D01*
D02*
G37*
G36*
X1239218Y816880D02*
X1239227Y816890D01*
X1239273Y816927D01*
X1239329Y816982D01*
X1239421Y817047D01*
X1239523Y817130D01*
X1239652Y817223D01*
X1239800Y817324D01*
X1239967Y817426D01*
X1239976D01*
X1239985Y817435D01*
X1240041Y817472D01*
X1240133Y817518D01*
X1240244Y817574D01*
X1240373Y817639D01*
X1240512Y817703D01*
X1240651Y817768D01*
X1240789Y817824D01*
Y817065D01*
X1240780D01*
X1240762Y817047D01*
X1240725Y817038D01*
X1240678Y817010D01*
X1240623Y816982D01*
X1240558Y816945D01*
X1240401Y816853D01*
X1240216Y816751D01*
X1240031Y816622D01*
X1239837Y816474D01*
X1239643Y816317D01*
X1239634Y816307D01*
X1239624Y816298D01*
X1239597Y816270D01*
X1239560Y816243D01*
X1239477Y816150D01*
X1239366Y816039D01*
X1239255Y815910D01*
X1239135Y815762D01*
X1239033Y815614D01*
X1238940Y815457D01*
X1238432D01*
Y821882D01*
X1239218D01*
Y816880D01*
D02*
G37*
G36*
X1151579Y575913D02*
X1151653Y575904D01*
X1151727Y575895D01*
X1151921Y575858D01*
X1152124Y575802D01*
X1152337Y575719D01*
X1152448Y575664D01*
X1152550Y575599D01*
X1152642Y575525D01*
X1152735Y575442D01*
X1152744Y575432D01*
X1152753Y575423D01*
X1152772Y575386D01*
X1152799Y575349D01*
X1152836Y575303D01*
X1152873Y575238D01*
X1152910Y575164D01*
X1152957Y575081D01*
X1152994Y574989D01*
X1153031Y574878D01*
X1153067Y574767D01*
X1153104Y574637D01*
X1153123Y574499D01*
X1153151Y574341D01*
X1153160Y574184D01*
Y574009D01*
X1152393Y573898D01*
Y573907D01*
Y573925D01*
Y573962D01*
X1152383Y574018D01*
X1152374Y574073D01*
Y574138D01*
X1152346Y574295D01*
X1152319Y574462D01*
X1152263Y574628D01*
X1152208Y574776D01*
X1152171Y574841D01*
X1152124Y574896D01*
X1152115Y574905D01*
X1152078Y574933D01*
X1152023Y574979D01*
X1151949Y575026D01*
X1151847Y575081D01*
X1151736Y575118D01*
X1151598Y575155D01*
X1151450Y575164D01*
X1151394D01*
X1151339Y575155D01*
X1151255Y575146D01*
X1151172Y575127D01*
X1151080Y575109D01*
X1150987Y575072D01*
X1150895Y575026D01*
X1150886Y575016D01*
X1150858Y574998D01*
X1150821Y574961D01*
X1150765Y574924D01*
X1150719Y574859D01*
X1150664Y574795D01*
X1150618Y574720D01*
X1150581Y574628D01*
Y574619D01*
X1150562Y574582D01*
X1150553Y574517D01*
X1150534Y574434D01*
X1150516Y574323D01*
X1150507Y574184D01*
X1150488Y574018D01*
Y573824D01*
Y569413D01*
X1149637D01*
Y573778D01*
Y573787D01*
Y573814D01*
Y573851D01*
Y573907D01*
X1149647Y573981D01*
Y574055D01*
X1149665Y574230D01*
X1149684Y574434D01*
X1149721Y574647D01*
X1149776Y574841D01*
X1149841Y575026D01*
Y575035D01*
X1149850Y575044D01*
X1149878Y575100D01*
X1149924Y575174D01*
X1149989Y575275D01*
X1150081Y575377D01*
X1150183Y575488D01*
X1150312Y575599D01*
X1150460Y575691D01*
X1150479Y575701D01*
X1150534Y575728D01*
X1150618Y575765D01*
X1150738Y575802D01*
X1150886Y575849D01*
X1151052Y575886D01*
X1151237Y575913D01*
X1151440Y575922D01*
X1151524D01*
X1151579Y575913D01*
D02*
G37*
G36*
X1148685Y575802D02*
Y575765D01*
Y575710D01*
X1148676Y575636D01*
X1148667Y575553D01*
X1148648Y575460D01*
X1148630Y575368D01*
X1148593Y575266D01*
Y575257D01*
X1148583Y575247D01*
X1148565Y575192D01*
X1148528Y575109D01*
X1148473Y574998D01*
X1148399Y574868D01*
X1148306Y574720D01*
X1148204Y574573D01*
X1148075Y574415D01*
Y574406D01*
X1148056Y574397D01*
X1148010Y574341D01*
X1147927Y574258D01*
X1147807Y574138D01*
X1147668Y573999D01*
X1147492Y573833D01*
X1147280Y573648D01*
X1147049Y573454D01*
X1147039Y573445D01*
X1147002Y573417D01*
X1146947Y573371D01*
X1146882Y573315D01*
X1146799Y573241D01*
X1146697Y573158D01*
X1146596Y573066D01*
X1146475Y572964D01*
X1146244Y572742D01*
X1146013Y572520D01*
X1145902Y572409D01*
X1145800Y572298D01*
X1145708Y572197D01*
X1145634Y572095D01*
Y572085D01*
X1145616Y572076D01*
X1145597Y572048D01*
X1145579Y572012D01*
X1145514Y571910D01*
X1145440Y571790D01*
X1145375Y571642D01*
X1145311Y571485D01*
X1145274Y571309D01*
X1145255Y571143D01*
Y571133D01*
Y571124D01*
X1145264Y571068D01*
X1145274Y570976D01*
X1145301Y570874D01*
X1145338Y570745D01*
X1145403Y570616D01*
X1145486Y570486D01*
X1145597Y570357D01*
X1145616Y570338D01*
X1145662Y570301D01*
X1145726Y570255D01*
X1145828Y570190D01*
X1145958Y570135D01*
X1146106Y570079D01*
X1146281Y570042D01*
X1146475Y570033D01*
X1146531D01*
X1146568Y570042D01*
X1146679Y570051D01*
X1146808Y570079D01*
X1146947Y570116D01*
X1147104Y570181D01*
X1147252Y570264D01*
X1147391Y570375D01*
X1147409Y570394D01*
X1147446Y570440D01*
X1147502Y570514D01*
X1147557Y570625D01*
X1147622Y570754D01*
X1147677Y570921D01*
X1147714Y571105D01*
X1147733Y571318D01*
X1148537Y571235D01*
Y571226D01*
X1148528Y571198D01*
Y571152D01*
X1148519Y571087D01*
X1148500Y571013D01*
X1148482Y570930D01*
X1148454Y570828D01*
X1148426Y570726D01*
X1148352Y570504D01*
X1148241Y570283D01*
X1148177Y570172D01*
X1148093Y570061D01*
X1148010Y569959D01*
X1147918Y569867D01*
X1147908Y569857D01*
X1147890Y569848D01*
X1147862Y569820D01*
X1147816Y569793D01*
X1147761Y569756D01*
X1147696Y569719D01*
X1147622Y569672D01*
X1147529Y569626D01*
X1147428Y569580D01*
X1147317Y569534D01*
X1147197Y569497D01*
X1147067Y569460D01*
X1146928Y569432D01*
X1146780Y569404D01*
X1146623Y569395D01*
X1146457Y569386D01*
X1146365D01*
X1146300Y569395D01*
X1146226Y569404D01*
X1146133Y569413D01*
X1146032Y569432D01*
X1145930Y569450D01*
X1145690Y569515D01*
X1145449Y569608D01*
X1145329Y569663D01*
X1145209Y569728D01*
X1145098Y569811D01*
X1144996Y569904D01*
X1144987Y569913D01*
X1144968Y569922D01*
X1144950Y569959D01*
X1144913Y569996D01*
X1144867Y570042D01*
X1144820Y570107D01*
X1144774Y570172D01*
X1144719Y570255D01*
X1144626Y570431D01*
X1144534Y570653D01*
X1144497Y570763D01*
X1144478Y570893D01*
X1144460Y571022D01*
X1144451Y571161D01*
Y571180D01*
Y571226D01*
X1144460Y571300D01*
X1144469Y571401D01*
X1144488Y571512D01*
X1144525Y571642D01*
X1144562Y571780D01*
X1144617Y571919D01*
X1144626Y571938D01*
X1144645Y571984D01*
X1144682Y572058D01*
X1144737Y572160D01*
X1144811Y572270D01*
X1144904Y572409D01*
X1145015Y572548D01*
X1145144Y572705D01*
X1145163Y572724D01*
X1145209Y572779D01*
X1145255Y572825D01*
X1145301Y572871D01*
X1145357Y572927D01*
X1145431Y573001D01*
X1145505Y573075D01*
X1145597Y573158D01*
X1145690Y573251D01*
X1145800Y573352D01*
X1145921Y573454D01*
X1146050Y573574D01*
X1146198Y573694D01*
X1146346Y573824D01*
X1146355Y573833D01*
X1146374Y573851D01*
X1146411Y573879D01*
X1146457Y573916D01*
X1146512Y573972D01*
X1146577Y574027D01*
X1146725Y574147D01*
X1146882Y574286D01*
X1147030Y574425D01*
X1147160Y574545D01*
X1147215Y574591D01*
X1147261Y574637D01*
X1147271Y574647D01*
X1147298Y574674D01*
X1147335Y574711D01*
X1147382Y574767D01*
X1147428Y574832D01*
X1147483Y574896D01*
X1147594Y575053D01*
X1144441D01*
Y575812D01*
X1148685D01*
Y575802D01*
D02*
G37*
G36*
X1251063Y527523D02*
X1251054D01*
X1251017D01*
X1250962D01*
X1250888Y527533D01*
X1250804Y527542D01*
X1250712Y527560D01*
X1250619Y527579D01*
X1250518Y527616D01*
X1250508D01*
X1250499Y527625D01*
X1250444Y527643D01*
X1250360Y527680D01*
X1250250Y527736D01*
X1250120Y527810D01*
X1249972Y527902D01*
X1249824Y528004D01*
X1249667Y528134D01*
X1249658D01*
X1249649Y528152D01*
X1249593Y528198D01*
X1249510Y528281D01*
X1249390Y528402D01*
X1249251Y528540D01*
X1249085Y528716D01*
X1248900Y528929D01*
X1248706Y529160D01*
X1248696Y529169D01*
X1248669Y529206D01*
X1248622Y529261D01*
X1248567Y529326D01*
X1248493Y529409D01*
X1248410Y529511D01*
X1248317Y529613D01*
X1248215Y529733D01*
X1247994Y529964D01*
X1247772Y530195D01*
X1247661Y530306D01*
X1247550Y530408D01*
X1247448Y530500D01*
X1247346Y530574D01*
X1247337D01*
X1247328Y530593D01*
X1247300Y530611D01*
X1247263Y530630D01*
X1247161Y530695D01*
X1247041Y530769D01*
X1246893Y530833D01*
X1246736Y530898D01*
X1246561Y530935D01*
X1246394Y530953D01*
X1246385D01*
X1246376D01*
X1246320Y530944D01*
X1246228Y530935D01*
X1246126Y530907D01*
X1245997Y530870D01*
X1245867Y530805D01*
X1245738Y530722D01*
X1245608Y530611D01*
X1245590Y530593D01*
X1245553Y530547D01*
X1245507Y530482D01*
X1245442Y530380D01*
X1245386Y530251D01*
X1245331Y530103D01*
X1245294Y529927D01*
X1245285Y529733D01*
Y529678D01*
X1245294Y529641D01*
X1245303Y529529D01*
X1245331Y529400D01*
X1245368Y529261D01*
X1245433Y529104D01*
X1245516Y528956D01*
X1245627Y528818D01*
X1245645Y528799D01*
X1245692Y528762D01*
X1245766Y528707D01*
X1245876Y528651D01*
X1246006Y528587D01*
X1246172Y528531D01*
X1246357Y528494D01*
X1246570Y528475D01*
X1246487Y527671D01*
X1246477D01*
X1246450Y527680D01*
X1246403D01*
X1246339Y527690D01*
X1246265Y527708D01*
X1246181Y527727D01*
X1246080Y527754D01*
X1245978Y527782D01*
X1245756Y527856D01*
X1245534Y527967D01*
X1245423Y528032D01*
X1245312Y528115D01*
X1245211Y528198D01*
X1245118Y528291D01*
X1245109Y528300D01*
X1245100Y528318D01*
X1245072Y528346D01*
X1245044Y528392D01*
X1245007Y528448D01*
X1244970Y528512D01*
X1244924Y528587D01*
X1244878Y528679D01*
X1244832Y528781D01*
X1244785Y528892D01*
X1244748Y529012D01*
X1244712Y529141D01*
X1244684Y529280D01*
X1244656Y529428D01*
X1244647Y529585D01*
X1244638Y529751D01*
Y529844D01*
X1244647Y529909D01*
X1244656Y529983D01*
X1244665Y530075D01*
X1244684Y530177D01*
X1244702Y530278D01*
X1244767Y530519D01*
X1244859Y530759D01*
X1244915Y530879D01*
X1244980Y531000D01*
X1245063Y531110D01*
X1245155Y531212D01*
X1245164Y531222D01*
X1245174Y531240D01*
X1245211Y531259D01*
X1245248Y531296D01*
X1245294Y531342D01*
X1245359Y531388D01*
X1245423Y531434D01*
X1245507Y531490D01*
X1245682Y531582D01*
X1245904Y531674D01*
X1246015Y531712D01*
X1246144Y531730D01*
X1246274Y531749D01*
X1246413Y531758D01*
X1246431D01*
X1246477D01*
X1246551Y531749D01*
X1246653Y531739D01*
X1246764Y531721D01*
X1246893Y531684D01*
X1247032Y531647D01*
X1247171Y531591D01*
X1247189Y531582D01*
X1247235Y531564D01*
X1247309Y531527D01*
X1247411Y531471D01*
X1247522Y531397D01*
X1247661Y531305D01*
X1247800Y531194D01*
X1247957Y531064D01*
X1247975Y531046D01*
X1248031Y531000D01*
X1248077Y530953D01*
X1248123Y530907D01*
X1248179Y530852D01*
X1248252Y530778D01*
X1248326Y530704D01*
X1248410Y530611D01*
X1248502Y530519D01*
X1248604Y530408D01*
X1248706Y530288D01*
X1248826Y530158D01*
X1248946Y530010D01*
X1249075Y529862D01*
X1249085Y529853D01*
X1249103Y529835D01*
X1249131Y529798D01*
X1249168Y529751D01*
X1249223Y529696D01*
X1249279Y529631D01*
X1249399Y529483D01*
X1249538Y529326D01*
X1249676Y529178D01*
X1249797Y529049D01*
X1249843Y528993D01*
X1249889Y528947D01*
X1249898Y528938D01*
X1249926Y528910D01*
X1249963Y528873D01*
X1250018Y528827D01*
X1250083Y528781D01*
X1250148Y528725D01*
X1250305Y528614D01*
Y531767D01*
X1251063D01*
Y527523D01*
D02*
G37*
G36*
X1251562Y526691D02*
Y526682D01*
X1251553Y526663D01*
X1251535Y526626D01*
X1251516Y526571D01*
X1251488Y526506D01*
X1251451Y526432D01*
X1251414Y526349D01*
X1251368Y526257D01*
X1251257Y526053D01*
X1251128Y525822D01*
X1250962Y525572D01*
X1250777Y525314D01*
Y525304D01*
X1250795Y525286D01*
X1250814Y525240D01*
X1250841Y525193D01*
X1250869Y525119D01*
X1250906Y525045D01*
X1250934Y524953D01*
X1250971Y524851D01*
X1251008Y524740D01*
X1251045Y524620D01*
X1251109Y524352D01*
X1251156Y524056D01*
X1251165Y523899D01*
X1251174Y523742D01*
Y523659D01*
X1251165Y523594D01*
Y523520D01*
X1251156Y523428D01*
X1251137Y523326D01*
X1251119Y523215D01*
X1251072Y522974D01*
X1250999Y522706D01*
X1250897Y522429D01*
X1250832Y522299D01*
X1250758Y522161D01*
X1250749Y522152D01*
X1250740Y522133D01*
X1250712Y522096D01*
X1250684Y522050D01*
X1250638Y521985D01*
X1250582Y521920D01*
X1250453Y521763D01*
X1250287Y521588D01*
X1250083Y521412D01*
X1249852Y521236D01*
X1249584Y521079D01*
X1249575D01*
X1249547Y521061D01*
X1249510Y521042D01*
X1249454Y521024D01*
X1249380Y520996D01*
X1249297Y520959D01*
X1249196Y520922D01*
X1249085Y520894D01*
X1248964Y520857D01*
X1248835Y520820D01*
X1248696Y520793D01*
X1248539Y520756D01*
X1248215Y520718D01*
X1247874Y520700D01*
X1247864D01*
X1247827D01*
X1247781D01*
X1247716Y520709D01*
X1247633D01*
X1247531Y520718D01*
X1247420Y520728D01*
X1247300Y520746D01*
X1247032Y520793D01*
X1246746Y520857D01*
X1246440Y520950D01*
X1246144Y521079D01*
X1246135Y521088D01*
X1246107Y521098D01*
X1246071Y521116D01*
X1246015Y521153D01*
X1245950Y521190D01*
X1245876Y521236D01*
X1245701Y521366D01*
X1245516Y521514D01*
X1245322Y521708D01*
X1245127Y521920D01*
X1244961Y522170D01*
X1244952Y522179D01*
X1244943Y522207D01*
X1244924Y522244D01*
X1244896Y522299D01*
X1244869Y522364D01*
X1244832Y522438D01*
X1244795Y522531D01*
X1244758Y522632D01*
X1244721Y522752D01*
X1244684Y522873D01*
X1244619Y523141D01*
X1244573Y523437D01*
X1244554Y523594D01*
Y523843D01*
X1244564Y523908D01*
Y523991D01*
X1244573Y524075D01*
X1244591Y524186D01*
X1244610Y524296D01*
X1244656Y524537D01*
X1244730Y524814D01*
X1244841Y525082D01*
X1244906Y525221D01*
X1244980Y525360D01*
X1244989Y525369D01*
X1244998Y525387D01*
X1245026Y525424D01*
X1245053Y525480D01*
X1245100Y525535D01*
X1245155Y525609D01*
X1245285Y525767D01*
X1245451Y525933D01*
X1245655Y526118D01*
X1245895Y526294D01*
X1246163Y526441D01*
X1246172D01*
X1246200Y526460D01*
X1246237Y526479D01*
X1246292Y526497D01*
X1246366Y526534D01*
X1246450Y526562D01*
X1246551Y526599D01*
X1246662Y526636D01*
X1246783Y526663D01*
X1246912Y526700D01*
X1247051Y526737D01*
X1247198Y526765D01*
X1247522Y526802D01*
X1247864Y526821D01*
X1247874D01*
X1247901D01*
X1247938D01*
X1247994D01*
X1248068Y526811D01*
X1248151D01*
X1248243Y526802D01*
X1248336Y526793D01*
X1248558Y526765D01*
X1248798Y526719D01*
X1249048Y526663D01*
X1249288Y526580D01*
X1249297D01*
X1249316Y526571D01*
X1249353Y526553D01*
X1249390Y526534D01*
X1249445Y526506D01*
X1249510Y526479D01*
X1249658Y526404D01*
X1249834Y526303D01*
X1250018Y526173D01*
X1250203Y526026D01*
X1250388Y525859D01*
Y525868D01*
X1250407Y525887D01*
X1250425Y525914D01*
X1250453Y525961D01*
X1250490Y526007D01*
X1250527Y526072D01*
X1250610Y526210D01*
X1250712Y526377D01*
X1250814Y526562D01*
X1250897Y526756D01*
X1250980Y526941D01*
X1251562Y526691D01*
D02*
G37*
G36*
X1424956Y339179D02*
X1425030Y339170D01*
X1425113Y339161D01*
X1425215Y339142D01*
X1425316Y339124D01*
X1425557Y339068D01*
X1425806Y338976D01*
X1425936Y338920D01*
X1426056Y338846D01*
X1426186Y338772D01*
X1426306Y338680D01*
X1426315Y338671D01*
X1426343Y338652D01*
X1426380Y338615D01*
X1426426Y338569D01*
X1426481Y338504D01*
X1426555Y338430D01*
X1426620Y338338D01*
X1426694Y338236D01*
X1426768Y338125D01*
X1426833Y337996D01*
X1426897Y337857D01*
X1426962Y337709D01*
X1427009Y337552D01*
X1427045Y337376D01*
X1427073Y337191D01*
X1427082Y336997D01*
Y336914D01*
X1427073Y336849D01*
X1427064Y336775D01*
X1427055Y336692D01*
X1427045Y336590D01*
X1427018Y336489D01*
X1426962Y336258D01*
X1426879Y336026D01*
X1426824Y335906D01*
X1426759Y335786D01*
X1426685Y335675D01*
X1426602Y335564D01*
X1426592Y335555D01*
X1426583Y335536D01*
X1426546Y335518D01*
X1426509Y335481D01*
X1426463Y335435D01*
X1426407Y335388D01*
X1426333Y335333D01*
X1426250Y335287D01*
X1426167Y335231D01*
X1426065Y335176D01*
X1425844Y335074D01*
X1425585Y334991D01*
X1425446Y334963D01*
X1425298Y334945D01*
X1425233Y335768D01*
X1425243D01*
X1425261D01*
X1425289Y335777D01*
X1425335Y335786D01*
X1425437Y335814D01*
X1425575Y335851D01*
X1425714Y335906D01*
X1425871Y335980D01*
X1426010Y336073D01*
X1426139Y336184D01*
X1426149Y336202D01*
X1426186Y336239D01*
X1426232Y336313D01*
X1426287Y336415D01*
X1426343Y336526D01*
X1426389Y336664D01*
X1426426Y336822D01*
X1426435Y336997D01*
Y337053D01*
X1426426Y337090D01*
X1426417Y337201D01*
X1426380Y337330D01*
X1426333Y337487D01*
X1426260Y337644D01*
X1426149Y337811D01*
X1426084Y337885D01*
X1426010Y337959D01*
X1426001Y337968D01*
X1425992Y337977D01*
X1425964Y337996D01*
X1425936Y338023D01*
X1425834Y338088D01*
X1425705Y338162D01*
X1425548Y338227D01*
X1425354Y338292D01*
X1425122Y338338D01*
X1425002Y338356D01*
X1424873D01*
X1424863D01*
X1424845D01*
X1424808D01*
X1424762Y338347D01*
X1424706D01*
X1424642Y338338D01*
X1424494Y338310D01*
X1424318Y338264D01*
X1424142Y338199D01*
X1423976Y338107D01*
X1423819Y337977D01*
X1423810D01*
X1423800Y337959D01*
X1423754Y337913D01*
X1423689Y337829D01*
X1423615Y337718D01*
X1423551Y337570D01*
X1423486Y337404D01*
X1423440Y337210D01*
X1423421Y337099D01*
Y336923D01*
X1423430Y336849D01*
X1423440Y336757D01*
X1423467Y336646D01*
X1423495Y336535D01*
X1423541Y336415D01*
X1423597Y336295D01*
X1423606Y336285D01*
X1423625Y336248D01*
X1423671Y336193D01*
X1423717Y336119D01*
X1423782Y336045D01*
X1423865Y335971D01*
X1423948Y335888D01*
X1424050Y335823D01*
X1423948Y335083D01*
X1420657Y335703D01*
Y338883D01*
X1421406D01*
Y336322D01*
X1423135Y335980D01*
X1423125Y335989D01*
X1423116Y336008D01*
X1423098Y336036D01*
X1423070Y336082D01*
X1423042Y336137D01*
X1423005Y336202D01*
X1422931Y336350D01*
X1422857Y336535D01*
X1422793Y336738D01*
X1422746Y336960D01*
X1422728Y337071D01*
Y337275D01*
X1422737Y337330D01*
X1422746Y337404D01*
X1422755Y337487D01*
X1422774Y337580D01*
X1422802Y337681D01*
X1422866Y337903D01*
X1422913Y338023D01*
X1422977Y338144D01*
X1423042Y338264D01*
X1423116Y338384D01*
X1423208Y338495D01*
X1423310Y338606D01*
X1423320Y338615D01*
X1423338Y338634D01*
X1423366Y338661D01*
X1423412Y338698D01*
X1423477Y338745D01*
X1423541Y338791D01*
X1423625Y338846D01*
X1423717Y338902D01*
X1423819Y338948D01*
X1423930Y339003D01*
X1424059Y339050D01*
X1424189Y339096D01*
X1424327Y339133D01*
X1424484Y339161D01*
X1424642Y339179D01*
X1424808Y339188D01*
X1424817D01*
X1424845D01*
X1424891D01*
X1424956Y339179D01*
D02*
G37*
G36*
X1426971Y329860D02*
X1426962D01*
X1426925D01*
X1426870D01*
X1426796Y329869D01*
X1426713Y329878D01*
X1426620Y329897D01*
X1426528Y329915D01*
X1426426Y329952D01*
X1426417D01*
X1426407Y329961D01*
X1426352Y329980D01*
X1426269Y330017D01*
X1426158Y330072D01*
X1426028Y330146D01*
X1425880Y330239D01*
X1425733Y330340D01*
X1425575Y330470D01*
X1425566D01*
X1425557Y330488D01*
X1425501Y330535D01*
X1425418Y330618D01*
X1425298Y330738D01*
X1425159Y330877D01*
X1424993Y331052D01*
X1424808Y331265D01*
X1424614Y331496D01*
X1424605Y331505D01*
X1424577Y331542D01*
X1424531Y331598D01*
X1424475Y331662D01*
X1424401Y331746D01*
X1424318Y331847D01*
X1424225Y331949D01*
X1424124Y332069D01*
X1423902Y332300D01*
X1423680Y332532D01*
X1423569Y332643D01*
X1423458Y332744D01*
X1423356Y332837D01*
X1423255Y332911D01*
X1423246D01*
X1423236Y332929D01*
X1423208Y332948D01*
X1423172Y332966D01*
X1423070Y333031D01*
X1422950Y333105D01*
X1422802Y333170D01*
X1422645Y333234D01*
X1422469Y333271D01*
X1422303Y333290D01*
X1422293D01*
X1422284D01*
X1422229Y333280D01*
X1422136Y333271D01*
X1422034Y333243D01*
X1421905Y333206D01*
X1421776Y333142D01*
X1421646Y333059D01*
X1421517Y332948D01*
X1421498Y332929D01*
X1421461Y332883D01*
X1421415Y332818D01*
X1421350Y332716D01*
X1421295Y332587D01*
X1421239Y332439D01*
X1421202Y332263D01*
X1421193Y332069D01*
Y332014D01*
X1421202Y331977D01*
X1421212Y331866D01*
X1421239Y331736D01*
X1421276Y331598D01*
X1421341Y331441D01*
X1421424Y331293D01*
X1421535Y331154D01*
X1421554Y331135D01*
X1421600Y331099D01*
X1421674Y331043D01*
X1421785Y330988D01*
X1421914Y330923D01*
X1422081Y330867D01*
X1422265Y330830D01*
X1422478Y330812D01*
X1422395Y330008D01*
X1422386D01*
X1422358Y330017D01*
X1422312D01*
X1422247Y330026D01*
X1422173Y330045D01*
X1422090Y330063D01*
X1421988Y330091D01*
X1421886Y330118D01*
X1421664Y330192D01*
X1421443Y330303D01*
X1421332Y330368D01*
X1421221Y330451D01*
X1421119Y330535D01*
X1421027Y330627D01*
X1421017Y330636D01*
X1421008Y330655D01*
X1420980Y330682D01*
X1420953Y330729D01*
X1420916Y330784D01*
X1420879Y330849D01*
X1420832Y330923D01*
X1420786Y331015D01*
X1420740Y331117D01*
X1420694Y331228D01*
X1420657Y331348D01*
X1420620Y331478D01*
X1420592Y331616D01*
X1420564Y331764D01*
X1420555Y331921D01*
X1420546Y332088D01*
Y332180D01*
X1420555Y332245D01*
X1420564Y332319D01*
X1420573Y332411D01*
X1420592Y332513D01*
X1420611Y332615D01*
X1420675Y332855D01*
X1420768Y333096D01*
X1420823Y333216D01*
X1420888Y333336D01*
X1420971Y333447D01*
X1421064Y333549D01*
X1421073Y333558D01*
X1421082Y333576D01*
X1421119Y333595D01*
X1421156Y333632D01*
X1421202Y333678D01*
X1421267Y333724D01*
X1421332Y333770D01*
X1421415Y333826D01*
X1421591Y333918D01*
X1421812Y334011D01*
X1421923Y334048D01*
X1422053Y334066D01*
X1422182Y334085D01*
X1422321Y334094D01*
X1422339D01*
X1422386D01*
X1422460Y334085D01*
X1422561Y334076D01*
X1422672Y334057D01*
X1422802Y334020D01*
X1422940Y333983D01*
X1423079Y333928D01*
X1423098Y333918D01*
X1423144Y333900D01*
X1423218Y333863D01*
X1423320Y333807D01*
X1423430Y333733D01*
X1423569Y333641D01*
X1423708Y333530D01*
X1423865Y333401D01*
X1423884Y333382D01*
X1423939Y333336D01*
X1423985Y333290D01*
X1424031Y333243D01*
X1424087Y333188D01*
X1424161Y333114D01*
X1424235Y333040D01*
X1424318Y332948D01*
X1424411Y332855D01*
X1424512Y332744D01*
X1424614Y332624D01*
X1424734Y332495D01*
X1424854Y332347D01*
X1424984Y332199D01*
X1424993Y332189D01*
X1425011Y332171D01*
X1425039Y332134D01*
X1425076Y332088D01*
X1425132Y332032D01*
X1425187Y331968D01*
X1425307Y331820D01*
X1425446Y331662D01*
X1425585Y331515D01*
X1425705Y331385D01*
X1425751Y331330D01*
X1425797Y331283D01*
X1425806Y331274D01*
X1425834Y331246D01*
X1425871Y331209D01*
X1425927Y331163D01*
X1425992Y331117D01*
X1426056Y331062D01*
X1426213Y330951D01*
Y334103D01*
X1426971D01*
Y329860D01*
D02*
G37*
G36*
Y328417D02*
X1425640Y327576D01*
X1425631D01*
X1425612Y327557D01*
X1425585Y327539D01*
X1425548Y327511D01*
X1425446Y327447D01*
X1425316Y327363D01*
X1425178Y327262D01*
X1425030Y327160D01*
X1424891Y327058D01*
X1424762Y326966D01*
X1424753Y326956D01*
X1424716Y326929D01*
X1424660Y326883D01*
X1424595Y326818D01*
X1424457Y326679D01*
X1424392Y326605D01*
X1424337Y326531D01*
X1424327Y326522D01*
X1424318Y326503D01*
X1424299Y326466D01*
X1424272Y326411D01*
X1424244Y326356D01*
X1424216Y326291D01*
X1424170Y326143D01*
Y326134D01*
X1424161Y326115D01*
Y326078D01*
X1424152Y326032D01*
X1424142Y325967D01*
Y325893D01*
X1424133Y325792D01*
Y324701D01*
X1426971D01*
Y323850D01*
X1420573D01*
Y326818D01*
X1420583Y326892D01*
Y326975D01*
X1420592Y327169D01*
X1420620Y327373D01*
X1420647Y327594D01*
X1420694Y327798D01*
X1420721Y327900D01*
X1420749Y327983D01*
Y327992D01*
X1420758Y328001D01*
X1420786Y328057D01*
X1420823Y328140D01*
X1420888Y328242D01*
X1420971Y328353D01*
X1421082Y328473D01*
X1421212Y328584D01*
X1421359Y328695D01*
X1421369D01*
X1421378Y328704D01*
X1421433Y328741D01*
X1421526Y328778D01*
X1421646Y328833D01*
X1421785Y328880D01*
X1421951Y328926D01*
X1422127Y328954D01*
X1422321Y328963D01*
X1422330D01*
X1422349D01*
X1422386D01*
X1422432Y328954D01*
X1422497D01*
X1422561Y328944D01*
X1422719Y328907D01*
X1422903Y328852D01*
X1423098Y328778D01*
X1423292Y328667D01*
X1423384Y328593D01*
X1423477Y328519D01*
X1423486Y328510D01*
X1423495Y328501D01*
X1423523Y328473D01*
X1423551Y328436D01*
X1423588Y328390D01*
X1423625Y328334D01*
X1423671Y328260D01*
X1423726Y328186D01*
X1423772Y328094D01*
X1423819Y327992D01*
X1423874Y327881D01*
X1423920Y327761D01*
X1423957Y327622D01*
X1424004Y327483D01*
X1424031Y327326D01*
X1424059Y327160D01*
X1424068Y327178D01*
X1424087Y327215D01*
X1424124Y327271D01*
X1424161Y327345D01*
X1424263Y327511D01*
X1424327Y327594D01*
X1424383Y327668D01*
X1424401Y327687D01*
X1424447Y327733D01*
X1424521Y327807D01*
X1424614Y327900D01*
X1424743Y328001D01*
X1424882Y328121D01*
X1425048Y328242D01*
X1425233Y328371D01*
X1426971Y329471D01*
Y328417D01*
D02*
G37*
G36*
X1358681Y605303D02*
X1358755Y605293D01*
X1358838Y605284D01*
X1358930Y605266D01*
X1359032Y605247D01*
X1359254Y605192D01*
X1359485Y605099D01*
X1359605Y605044D01*
X1359716Y604979D01*
X1359827Y604896D01*
X1359938Y604813D01*
X1359947Y604803D01*
X1359966Y604785D01*
X1359993Y604757D01*
X1360021Y604720D01*
X1360067Y604674D01*
X1360114Y604609D01*
X1360169Y604544D01*
X1360225Y604461D01*
X1360280Y604369D01*
X1360336Y604276D01*
X1360437Y604054D01*
X1360520Y603796D01*
X1360548Y603657D01*
X1360567Y603509D01*
X1359781Y603407D01*
Y603416D01*
X1359772Y603435D01*
X1359762Y603472D01*
X1359753Y603518D01*
X1359744Y603574D01*
X1359725Y603638D01*
X1359679Y603777D01*
X1359614Y603943D01*
X1359531Y604101D01*
X1359439Y604249D01*
X1359328Y604378D01*
X1359309Y604387D01*
X1359272Y604424D01*
X1359198Y604470D01*
X1359106Y604517D01*
X1358995Y604572D01*
X1358856Y604618D01*
X1358699Y604655D01*
X1358533Y604665D01*
X1358477D01*
X1358440Y604655D01*
X1358338Y604646D01*
X1358209Y604618D01*
X1358061Y604572D01*
X1357904Y604507D01*
X1357747Y604415D01*
X1357599Y604286D01*
X1357580Y604267D01*
X1357534Y604212D01*
X1357479Y604128D01*
X1357405Y604017D01*
X1357331Y603879D01*
X1357275Y603722D01*
X1357229Y603537D01*
X1357211Y603333D01*
Y603324D01*
Y603306D01*
Y603278D01*
X1357220Y603241D01*
X1357229Y603139D01*
X1357257Y603019D01*
X1357294Y602871D01*
X1357359Y602723D01*
X1357451Y602575D01*
X1357571Y602436D01*
X1357590Y602418D01*
X1357636Y602381D01*
X1357710Y602326D01*
X1357811Y602261D01*
X1357941Y602196D01*
X1358098Y602141D01*
X1358274Y602104D01*
X1358468Y602085D01*
X1358551D01*
X1358616Y602094D01*
X1358699Y602104D01*
X1358792Y602122D01*
X1358902Y602141D01*
X1359023Y602168D01*
X1358930Y601475D01*
X1358884D01*
X1358847Y601484D01*
X1358727D01*
X1358625Y601466D01*
X1358505Y601447D01*
X1358366Y601419D01*
X1358209Y601373D01*
X1358061Y601309D01*
X1357904Y601225D01*
X1357895D01*
X1357885Y601216D01*
X1357839Y601179D01*
X1357775Y601114D01*
X1357701Y601031D01*
X1357627Y600911D01*
X1357562Y600772D01*
X1357516Y600615D01*
X1357497Y600523D01*
Y600421D01*
Y600412D01*
Y600402D01*
Y600347D01*
X1357516Y600273D01*
X1357534Y600171D01*
X1357571Y600060D01*
X1357617Y599940D01*
X1357691Y599820D01*
X1357793Y599709D01*
X1357802Y599700D01*
X1357849Y599663D01*
X1357913Y599617D01*
X1357996Y599561D01*
X1358107Y599515D01*
X1358237Y599469D01*
X1358385Y599432D01*
X1358551Y599422D01*
X1358625D01*
X1358708Y599441D01*
X1358819Y599459D01*
X1358940Y599496D01*
X1359060Y599543D01*
X1359189Y599617D01*
X1359309Y599709D01*
X1359319Y599718D01*
X1359355Y599765D01*
X1359411Y599829D01*
X1359476Y599922D01*
X1359541Y600042D01*
X1359605Y600190D01*
X1359661Y600365D01*
X1359698Y600569D01*
X1360484Y600430D01*
Y600421D01*
X1360474Y600393D01*
X1360465Y600356D01*
X1360456Y600301D01*
X1360437Y600236D01*
X1360410Y600162D01*
X1360354Y599986D01*
X1360262Y599783D01*
X1360151Y599580D01*
X1360012Y599385D01*
X1359836Y599210D01*
X1359827Y599201D01*
X1359809Y599191D01*
X1359781Y599173D01*
X1359744Y599145D01*
X1359698Y599108D01*
X1359633Y599071D01*
X1359568Y599034D01*
X1359485Y598988D01*
X1359300Y598914D01*
X1359087Y598840D01*
X1358838Y598794D01*
X1358708Y598775D01*
X1358477D01*
X1358376Y598784D01*
X1358255Y598803D01*
X1358107Y598831D01*
X1357941Y598877D01*
X1357775Y598932D01*
X1357608Y599006D01*
X1357599D01*
X1357590Y599016D01*
X1357534Y599043D01*
X1357451Y599099D01*
X1357359Y599164D01*
X1357248Y599256D01*
X1357137Y599358D01*
X1357026Y599478D01*
X1356933Y599617D01*
X1356924Y599635D01*
X1356896Y599681D01*
X1356859Y599765D01*
X1356813Y599866D01*
X1356767Y599986D01*
X1356730Y600125D01*
X1356702Y600282D01*
X1356693Y600439D01*
Y600458D01*
Y600513D01*
X1356702Y600587D01*
X1356721Y600689D01*
X1356748Y600809D01*
X1356794Y600939D01*
X1356850Y601068D01*
X1356924Y601198D01*
X1356933Y601216D01*
X1356961Y601253D01*
X1357016Y601318D01*
X1357090Y601392D01*
X1357183Y601475D01*
X1357294Y601567D01*
X1357423Y601651D01*
X1357580Y601734D01*
X1357571D01*
X1357553Y601743D01*
X1357525Y601752D01*
X1357488Y601762D01*
X1357386Y601799D01*
X1357257Y601854D01*
X1357109Y601928D01*
X1356961Y602020D01*
X1356822Y602141D01*
X1356693Y602279D01*
X1356684Y602298D01*
X1356647Y602353D01*
X1356591Y602446D01*
X1356536Y602566D01*
X1356480Y602714D01*
X1356425Y602890D01*
X1356388Y603093D01*
X1356378Y603315D01*
Y603324D01*
Y603352D01*
Y603398D01*
X1356388Y603453D01*
X1356397Y603527D01*
X1356415Y603611D01*
X1356434Y603703D01*
X1356452Y603805D01*
X1356526Y604027D01*
X1356582Y604147D01*
X1356637Y604258D01*
X1356711Y604378D01*
X1356794Y604498D01*
X1356887Y604618D01*
X1356998Y604729D01*
X1357007Y604739D01*
X1357026Y604757D01*
X1357063Y604785D01*
X1357109Y604822D01*
X1357164Y604868D01*
X1357238Y604914D01*
X1357321Y604970D01*
X1357423Y605016D01*
X1357525Y605071D01*
X1357645Y605127D01*
X1357765Y605173D01*
X1357904Y605219D01*
X1358052Y605256D01*
X1358209Y605284D01*
X1358366Y605303D01*
X1358542Y605312D01*
X1358625D01*
X1358681Y605303D01*
D02*
G37*
G36*
X1361547Y605691D02*
X1361584Y605672D01*
X1361639Y605654D01*
X1361704Y605626D01*
X1361778Y605589D01*
X1361861Y605552D01*
X1361954Y605506D01*
X1362157Y605395D01*
X1362388Y605266D01*
X1362638Y605099D01*
X1362897Y604914D01*
X1362906D01*
X1362924Y604933D01*
X1362971Y604951D01*
X1363017Y604979D01*
X1363091Y605007D01*
X1363165Y605044D01*
X1363257Y605071D01*
X1363359Y605108D01*
X1363470Y605145D01*
X1363590Y605182D01*
X1363858Y605247D01*
X1364154Y605293D01*
X1364311Y605303D01*
X1364468Y605312D01*
X1364552D01*
X1364616Y605303D01*
X1364690D01*
X1364783Y605293D01*
X1364884Y605275D01*
X1364995Y605256D01*
X1365236Y605210D01*
X1365504Y605136D01*
X1365781Y605034D01*
X1365911Y604970D01*
X1366049Y604896D01*
X1366059Y604887D01*
X1366077Y604877D01*
X1366114Y604850D01*
X1366160Y604822D01*
X1366225Y604776D01*
X1366290Y604720D01*
X1366447Y604591D01*
X1366623Y604424D01*
X1366798Y604221D01*
X1366974Y603990D01*
X1367131Y603722D01*
Y603712D01*
X1367150Y603685D01*
X1367168Y603648D01*
X1367187Y603592D01*
X1367214Y603518D01*
X1367251Y603435D01*
X1367288Y603333D01*
X1367316Y603222D01*
X1367353Y603102D01*
X1367390Y602973D01*
X1367418Y602834D01*
X1367455Y602677D01*
X1367492Y602353D01*
X1367510Y602011D01*
Y602002D01*
Y601965D01*
Y601919D01*
X1367501Y601854D01*
Y601771D01*
X1367492Y601669D01*
X1367482Y601558D01*
X1367464Y601438D01*
X1367418Y601170D01*
X1367353Y600883D01*
X1367260Y600578D01*
X1367131Y600282D01*
X1367122Y600273D01*
X1367113Y600245D01*
X1367094Y600208D01*
X1367057Y600153D01*
X1367020Y600088D01*
X1366974Y600014D01*
X1366844Y599838D01*
X1366697Y599654D01*
X1366502Y599459D01*
X1366290Y599265D01*
X1366040Y599099D01*
X1366031Y599090D01*
X1366003Y599080D01*
X1365966Y599062D01*
X1365911Y599034D01*
X1365846Y599006D01*
X1365772Y598969D01*
X1365679Y598932D01*
X1365578Y598895D01*
X1365458Y598858D01*
X1365338Y598821D01*
X1365069Y598757D01*
X1364774Y598711D01*
X1364616Y598692D01*
X1364367D01*
X1364302Y598701D01*
X1364219D01*
X1364135Y598711D01*
X1364025Y598729D01*
X1363914Y598747D01*
X1363673Y598794D01*
X1363396Y598868D01*
X1363128Y598979D01*
X1362989Y599043D01*
X1362850Y599117D01*
X1362841Y599127D01*
X1362823Y599136D01*
X1362786Y599164D01*
X1362730Y599191D01*
X1362675Y599238D01*
X1362601Y599293D01*
X1362444Y599422D01*
X1362277Y599589D01*
X1362092Y599792D01*
X1361917Y600033D01*
X1361769Y600301D01*
Y600310D01*
X1361750Y600338D01*
X1361732Y600375D01*
X1361713Y600430D01*
X1361676Y600504D01*
X1361649Y600587D01*
X1361611Y600689D01*
X1361575Y600800D01*
X1361547Y600920D01*
X1361510Y601050D01*
X1361473Y601188D01*
X1361445Y601336D01*
X1361408Y601660D01*
X1361390Y602002D01*
Y602011D01*
Y602039D01*
Y602076D01*
Y602131D01*
X1361399Y602205D01*
Y602289D01*
X1361408Y602381D01*
X1361417Y602473D01*
X1361445Y602695D01*
X1361491Y602936D01*
X1361547Y603185D01*
X1361630Y603426D01*
Y603435D01*
X1361639Y603453D01*
X1361658Y603490D01*
X1361676Y603527D01*
X1361704Y603583D01*
X1361732Y603648D01*
X1361806Y603796D01*
X1361907Y603971D01*
X1362037Y604156D01*
X1362185Y604341D01*
X1362351Y604526D01*
X1362342D01*
X1362323Y604544D01*
X1362296Y604563D01*
X1362249Y604591D01*
X1362203Y604628D01*
X1362139Y604665D01*
X1362000Y604748D01*
X1361833Y604850D01*
X1361649Y604951D01*
X1361454Y605034D01*
X1361269Y605118D01*
X1361519Y605700D01*
X1361528D01*
X1361547Y605691D01*
D02*
G37*
G36*
X1076960Y520652D02*
X1076109D01*
Y526292D01*
X1072957D01*
Y527050D01*
X1076960D01*
Y520652D01*
D02*
G37*
G36*
X1072383Y527041D02*
Y527004D01*
Y526948D01*
X1072374Y526874D01*
X1072365Y526791D01*
X1072346Y526699D01*
X1072328Y526606D01*
X1072291Y526505D01*
Y526495D01*
X1072282Y526486D01*
X1072263Y526431D01*
X1072226Y526347D01*
X1072171Y526236D01*
X1072097Y526107D01*
X1072004Y525959D01*
X1071903Y525811D01*
X1071773Y525654D01*
Y525645D01*
X1071755Y525635D01*
X1071709Y525580D01*
X1071625Y525497D01*
X1071505Y525377D01*
X1071367Y525238D01*
X1071191Y525071D01*
X1070978Y524887D01*
X1070747Y524692D01*
X1070738Y524683D01*
X1070701Y524655D01*
X1070645Y524609D01*
X1070581Y524554D01*
X1070497Y524480D01*
X1070396Y524397D01*
X1070294Y524304D01*
X1070174Y524202D01*
X1069943Y523980D01*
X1069712Y523759D01*
X1069601Y523648D01*
X1069499Y523537D01*
X1069406Y523435D01*
X1069333Y523333D01*
Y523324D01*
X1069314Y523315D01*
X1069296Y523287D01*
X1069277Y523250D01*
X1069212Y523148D01*
X1069138Y523028D01*
X1069074Y522880D01*
X1069009Y522723D01*
X1068972Y522547D01*
X1068953Y522381D01*
Y522372D01*
Y522363D01*
X1068963Y522307D01*
X1068972Y522215D01*
X1069000Y522113D01*
X1069037Y521983D01*
X1069101Y521854D01*
X1069184Y521725D01*
X1069296Y521595D01*
X1069314Y521577D01*
X1069360Y521540D01*
X1069425Y521493D01*
X1069527Y521429D01*
X1069656Y521373D01*
X1069804Y521318D01*
X1069980Y521281D01*
X1070174Y521272D01*
X1070229D01*
X1070266Y521281D01*
X1070377Y521290D01*
X1070507Y521318D01*
X1070645Y521355D01*
X1070803Y521419D01*
X1070950Y521503D01*
X1071089Y521614D01*
X1071108Y521632D01*
X1071145Y521678D01*
X1071200Y521752D01*
X1071255Y521863D01*
X1071320Y521993D01*
X1071376Y522159D01*
X1071413Y522344D01*
X1071431Y522557D01*
X1072236Y522473D01*
Y522464D01*
X1072226Y522436D01*
Y522390D01*
X1072217Y522326D01*
X1072199Y522252D01*
X1072180Y522168D01*
X1072152Y522067D01*
X1072125Y521965D01*
X1072051Y521743D01*
X1071940Y521521D01*
X1071875Y521410D01*
X1071792Y521299D01*
X1071709Y521198D01*
X1071616Y521105D01*
X1071607Y521096D01*
X1071588Y521087D01*
X1071561Y521059D01*
X1071514Y521031D01*
X1071459Y520994D01*
X1071394Y520957D01*
X1071320Y520911D01*
X1071228Y520865D01*
X1071126Y520818D01*
X1071015Y520772D01*
X1070895Y520735D01*
X1070766Y520698D01*
X1070627Y520671D01*
X1070479Y520643D01*
X1070322Y520634D01*
X1070155Y520624D01*
X1070063D01*
X1069998Y520634D01*
X1069924Y520643D01*
X1069832Y520652D01*
X1069730Y520671D01*
X1069628Y520689D01*
X1069388Y520754D01*
X1069147Y520846D01*
X1069027Y520902D01*
X1068907Y520966D01*
X1068796Y521050D01*
X1068695Y521142D01*
X1068685Y521151D01*
X1068667Y521161D01*
X1068648Y521198D01*
X1068611Y521235D01*
X1068565Y521281D01*
X1068519Y521345D01*
X1068473Y521410D01*
X1068417Y521493D01*
X1068325Y521669D01*
X1068232Y521891D01*
X1068195Y522002D01*
X1068177Y522131D01*
X1068158Y522261D01*
X1068149Y522399D01*
Y522418D01*
Y522464D01*
X1068158Y522538D01*
X1068167Y522640D01*
X1068186Y522751D01*
X1068223Y522880D01*
X1068260Y523019D01*
X1068315Y523158D01*
X1068325Y523176D01*
X1068343Y523222D01*
X1068380Y523296D01*
X1068436Y523398D01*
X1068510Y523509D01*
X1068602Y523648D01*
X1068713Y523786D01*
X1068842Y523944D01*
X1068861Y523962D01*
X1068907Y524017D01*
X1068953Y524064D01*
X1069000Y524110D01*
X1069055Y524165D01*
X1069129Y524239D01*
X1069203Y524313D01*
X1069296Y524397D01*
X1069388Y524489D01*
X1069499Y524591D01*
X1069619Y524692D01*
X1069749Y524813D01*
X1069896Y524933D01*
X1070044Y525062D01*
X1070054Y525071D01*
X1070072Y525090D01*
X1070109Y525118D01*
X1070155Y525155D01*
X1070211Y525210D01*
X1070275Y525266D01*
X1070423Y525386D01*
X1070581Y525525D01*
X1070729Y525663D01*
X1070858Y525783D01*
X1070913Y525830D01*
X1070960Y525876D01*
X1070969Y525885D01*
X1070997Y525913D01*
X1071034Y525950D01*
X1071080Y526005D01*
X1071126Y526070D01*
X1071182Y526135D01*
X1071292Y526292D01*
X1068140D01*
Y527050D01*
X1072383D01*
Y527041D01*
D02*
G37*
G36*
X1323340Y530812D02*
X1320881D01*
X1320714Y530821D01*
X1320529Y530831D01*
X1320345Y530849D01*
X1320160Y530877D01*
X1320002Y530905D01*
X1319993D01*
X1319975Y530914D01*
X1319947D01*
X1319910Y530932D01*
X1319808Y530960D01*
X1319679Y531006D01*
X1319531Y531071D01*
X1319374Y531154D01*
X1319216Y531247D01*
X1319069Y531367D01*
X1319059Y531376D01*
X1319050Y531385D01*
X1319022Y531413D01*
X1318985Y531441D01*
X1318893Y531533D01*
X1318782Y531663D01*
X1318662Y531820D01*
X1318532Y532005D01*
X1318412Y532217D01*
X1318311Y532458D01*
Y532467D01*
X1318301Y532486D01*
X1318283Y532523D01*
X1318273Y532578D01*
X1318246Y532643D01*
X1318227Y532717D01*
X1318209Y532800D01*
X1318181Y532902D01*
X1318153Y533003D01*
X1318135Y533124D01*
X1318089Y533382D01*
X1318061Y533669D01*
X1318052Y533983D01*
Y533993D01*
Y534011D01*
Y534057D01*
Y534104D01*
X1318061Y534168D01*
Y534242D01*
X1318070Y534418D01*
X1318098Y534621D01*
X1318126Y534834D01*
X1318172Y535056D01*
X1318227Y535278D01*
Y535287D01*
X1318237Y535305D01*
X1318246Y535333D01*
X1318255Y535370D01*
X1318292Y535472D01*
X1318347Y535601D01*
X1318403Y535749D01*
X1318477Y535897D01*
X1318569Y536054D01*
X1318662Y536202D01*
X1318671Y536221D01*
X1318708Y536267D01*
X1318763Y536332D01*
X1318837Y536415D01*
X1318921Y536507D01*
X1319022Y536600D01*
X1319124Y536702D01*
X1319244Y536785D01*
X1319263Y536794D01*
X1319300Y536822D01*
X1319364Y536859D01*
X1319457Y536905D01*
X1319568Y536960D01*
X1319697Y537007D01*
X1319845Y537062D01*
X1320012Y537108D01*
X1320030D01*
X1320058Y537118D01*
X1320086Y537127D01*
X1320178Y537136D01*
X1320307Y537155D01*
X1320455Y537173D01*
X1320631Y537192D01*
X1320825Y537201D01*
X1321038Y537210D01*
X1323340D01*
Y530812D01*
D02*
G37*
G36*
X1315038Y532208D02*
X1315047Y532217D01*
X1315093Y532254D01*
X1315148Y532310D01*
X1315241Y532375D01*
X1315343Y532458D01*
X1315472Y532550D01*
X1315620Y532652D01*
X1315786Y532754D01*
X1315796D01*
X1315805Y532763D01*
X1315860Y532800D01*
X1315953Y532846D01*
X1316064Y532902D01*
X1316193Y532966D01*
X1316332Y533031D01*
X1316471Y533096D01*
X1316609Y533151D01*
Y532393D01*
X1316600D01*
X1316582Y532375D01*
X1316545Y532365D01*
X1316498Y532338D01*
X1316443Y532310D01*
X1316378Y532273D01*
X1316221Y532180D01*
X1316036Y532079D01*
X1315851Y531949D01*
X1315657Y531801D01*
X1315463Y531644D01*
X1315454Y531635D01*
X1315444Y531626D01*
X1315417Y531598D01*
X1315380Y531570D01*
X1315296Y531478D01*
X1315186Y531367D01*
X1315074Y531237D01*
X1314954Y531090D01*
X1314853Y530942D01*
X1314760Y530784D01*
X1314252D01*
Y537210D01*
X1315038D01*
Y532208D01*
D02*
G37*
%LPC*%
G36*
X1050080Y720650D02*
X1048600D01*
Y715768D01*
X1050117D01*
X1050182Y715777D01*
X1050320Y715787D01*
X1050477Y715796D01*
X1050644Y715814D01*
X1050810Y715842D01*
X1050949Y715879D01*
X1050967Y715888D01*
X1051014Y715898D01*
X1051078Y715925D01*
X1051161Y715962D01*
X1051254Y716018D01*
X1051346Y716073D01*
X1051439Y716138D01*
X1051531Y716212D01*
X1051541Y716230D01*
X1051578Y716267D01*
X1051633Y716332D01*
X1051698Y716424D01*
X1051772Y716545D01*
X1051855Y716683D01*
X1051929Y716841D01*
X1051994Y717016D01*
Y717025D01*
X1052003Y717044D01*
X1052012Y717072D01*
X1052021Y717109D01*
X1052031Y717155D01*
X1052049Y717220D01*
X1052068Y717284D01*
X1052086Y717358D01*
X1052114Y717543D01*
X1052141Y717756D01*
X1052160Y717996D01*
X1052169Y718255D01*
Y718264D01*
Y718301D01*
Y718347D01*
X1052160Y718421D01*
Y718505D01*
X1052151Y718597D01*
X1052141Y718708D01*
X1052132Y718819D01*
X1052086Y719069D01*
X1052031Y719328D01*
X1051947Y719568D01*
X1051892Y719688D01*
X1051836Y719790D01*
Y719799D01*
X1051818Y719818D01*
X1051799Y719845D01*
X1051781Y719882D01*
X1051707Y719975D01*
X1051615Y720086D01*
X1051494Y720206D01*
X1051356Y720326D01*
X1051199Y720428D01*
X1051032Y720511D01*
X1051014Y720520D01*
X1050967Y720529D01*
X1050884Y720557D01*
X1050764Y720585D01*
X1050616Y720603D01*
X1050431Y720631D01*
X1050320Y720640D01*
X1050200D01*
X1050080Y720650D01*
D02*
G37*
G36*
X1248814Y1012295D02*
X1248805D01*
X1248787D01*
X1248750D01*
X1248703Y1012286D01*
X1248648D01*
X1248583Y1012276D01*
X1248435Y1012249D01*
X1248269Y1012212D01*
X1248093Y1012147D01*
X1247927Y1012054D01*
X1247770Y1011934D01*
X1247751Y1011916D01*
X1247705Y1011870D01*
X1247649Y1011796D01*
X1247575Y1011694D01*
X1247502Y1011564D01*
X1247446Y1011416D01*
X1247400Y1011241D01*
X1247381Y1011047D01*
Y1010991D01*
X1247391Y1010954D01*
X1247400Y1010862D01*
X1247428Y1010732D01*
X1247474Y1010594D01*
X1247548Y1010436D01*
X1247640Y1010288D01*
X1247770Y1010141D01*
X1247788Y1010122D01*
X1247834Y1010085D01*
X1247917Y1010020D01*
X1248038Y1009956D01*
X1248176Y1009891D01*
X1248352Y1009826D01*
X1248546Y1009789D01*
X1248768Y1009771D01*
X1248787D01*
X1248833D01*
X1248916Y1009780D01*
X1249018Y1009789D01*
X1249138Y1009808D01*
X1249267Y1009845D01*
X1249406Y1009882D01*
X1249545Y1009937D01*
X1249563Y1009946D01*
X1249610Y1009974D01*
X1249674Y1010011D01*
X1249757Y1010067D01*
X1249841Y1010131D01*
X1249942Y1010215D01*
X1250025Y1010307D01*
X1250109Y1010418D01*
X1250118Y1010436D01*
X1250136Y1010473D01*
X1250173Y1010538D01*
X1250201Y1010621D01*
X1250238Y1010714D01*
X1250275Y1010825D01*
X1250294Y1010945D01*
X1250303Y1011074D01*
Y1011121D01*
X1250294Y1011158D01*
X1250284Y1011250D01*
X1250257Y1011370D01*
X1250201Y1011500D01*
X1250136Y1011648D01*
X1250035Y1011796D01*
X1249979Y1011870D01*
X1249905Y1011934D01*
X1249896D01*
X1249887Y1011953D01*
X1249831Y1011990D01*
X1249739Y1012045D01*
X1249619Y1012119D01*
X1249462Y1012184D01*
X1249277Y1012239D01*
X1249064Y1012276D01*
X1248814Y1012295D01*
D02*
G37*
G36*
X585039Y593895D02*
X584984D01*
X584947Y593885D01*
X584854Y593876D01*
X584725Y593848D01*
X584586Y593802D01*
X584429Y593728D01*
X584281Y593636D01*
X584133Y593506D01*
X584115Y593488D01*
X584078Y593442D01*
X584013Y593358D01*
X583948Y593238D01*
X583884Y593100D01*
X583819Y592924D01*
X583782Y592730D01*
X583763Y592508D01*
Y592489D01*
Y592443D01*
X583773Y592360D01*
X583782Y592258D01*
X583800Y592138D01*
X583837Y592009D01*
X583874Y591870D01*
X583930Y591731D01*
X583939Y591713D01*
X583967Y591666D01*
X584004Y591602D01*
X584059Y591519D01*
X584124Y591435D01*
X584207Y591334D01*
X584300Y591250D01*
X584411Y591167D01*
X584429Y591158D01*
X584466Y591139D01*
X584531Y591102D01*
X584614Y591075D01*
X584706Y591038D01*
X584817Y591001D01*
X584938Y590982D01*
X585067Y590973D01*
X585113D01*
X585150Y590982D01*
X585243Y590992D01*
X585363Y591019D01*
X585492Y591075D01*
X585640Y591139D01*
X585788Y591241D01*
X585862Y591297D01*
X585927Y591371D01*
Y591380D01*
X585945Y591389D01*
X585982Y591445D01*
X586038Y591537D01*
X586112Y591657D01*
X586176Y591814D01*
X586232Y591999D01*
X586269Y592212D01*
X586287Y592462D01*
Y592471D01*
Y592489D01*
Y592526D01*
X586278Y592573D01*
Y592628D01*
X586269Y592693D01*
X586241Y592841D01*
X586204Y593007D01*
X586139Y593183D01*
X586047Y593349D01*
X585927Y593506D01*
X585908Y593525D01*
X585862Y593571D01*
X585788Y593627D01*
X585686Y593700D01*
X585557Y593774D01*
X585409Y593830D01*
X585233Y593876D01*
X585039Y593895D01*
D02*
G37*
G36*
X579020Y596215D02*
X578928D01*
X578863Y596206D01*
X578780Y596197D01*
X578688Y596178D01*
X578586Y596160D01*
X578475Y596132D01*
X578345Y596095D01*
X578225Y596058D01*
X578096Y596003D01*
X577957Y595938D01*
X577828Y595864D01*
X577698Y595771D01*
X577569Y595679D01*
X577449Y595559D01*
X577439Y595550D01*
X577421Y595531D01*
X577393Y595494D01*
X577356Y595439D01*
X577301Y595374D01*
X577254Y595291D01*
X577199Y595189D01*
X577143Y595078D01*
X577079Y594949D01*
X577023Y594801D01*
X576977Y594644D01*
X576931Y594468D01*
X576885Y594283D01*
X576857Y594080D01*
X576838Y593858D01*
X576829Y593627D01*
Y593608D01*
Y593571D01*
Y593506D01*
X576838Y593423D01*
X576848Y593321D01*
X576866Y593201D01*
X576885Y593063D01*
X576903Y592924D01*
X576977Y592609D01*
X577023Y592452D01*
X577088Y592295D01*
X577153Y592138D01*
X577236Y591990D01*
X577328Y591842D01*
X577439Y591713D01*
X577449Y591703D01*
X577467Y591685D01*
X577504Y591648D01*
X577550Y591611D01*
X577615Y591555D01*
X577689Y591500D01*
X577772Y591445D01*
X577874Y591380D01*
X577976Y591315D01*
X578096Y591260D01*
X578225Y591204D01*
X578364Y591149D01*
X578521Y591112D01*
X578678Y591075D01*
X578845Y591056D01*
X579020Y591047D01*
X579104D01*
X579187Y591056D01*
X579298Y591065D01*
X579436Y591084D01*
X579575Y591121D01*
X579732Y591158D01*
X579880Y591213D01*
X579862Y591223D01*
X579815Y591260D01*
X579732Y591306D01*
X579631Y591361D01*
X579501Y591417D01*
X579362Y591482D01*
X579205Y591537D01*
X579039Y591583D01*
X579251Y592193D01*
X579261D01*
X579288Y592184D01*
X579325Y592175D01*
X579372Y592156D01*
X579436Y592138D01*
X579510Y592110D01*
X579677Y592046D01*
X579871Y591953D01*
X580074Y591851D01*
X580269Y591731D01*
X580463Y591583D01*
X580472Y591592D01*
X580500Y591611D01*
X580537Y591657D01*
X580583Y591713D01*
X580638Y591787D01*
X580703Y591870D01*
X580768Y591972D01*
X580842Y592092D01*
X580906Y592230D01*
X580971Y592388D01*
X581036Y592554D01*
X581091Y592730D01*
X581147Y592933D01*
X581184Y593146D01*
X581202Y593377D01*
X581212Y593627D01*
Y593636D01*
Y593663D01*
Y593700D01*
Y593756D01*
X581202Y593830D01*
Y593904D01*
X581193Y593996D01*
X581175Y594089D01*
X581147Y594301D01*
X581101Y594533D01*
X581036Y594764D01*
X580943Y594986D01*
Y594995D01*
X580934Y595013D01*
X580916Y595041D01*
X580897Y595078D01*
X580832Y595189D01*
X580749Y595318D01*
X580638Y595466D01*
X580500Y595614D01*
X580342Y595762D01*
X580167Y595892D01*
X580158D01*
X580148Y595910D01*
X580121Y595919D01*
X580074Y595947D01*
X580028Y595966D01*
X579973Y595993D01*
X579834Y596058D01*
X579668Y596114D01*
X579473Y596169D01*
X579251Y596206D01*
X579020Y596215D01*
D02*
G37*
G36*
X385544Y870122D02*
X385534D01*
X385507D01*
X385470D01*
X385414D01*
X385340Y870112D01*
X385266D01*
X385174Y870103D01*
X385081Y870085D01*
X384869Y870057D01*
X384637Y870011D01*
X384406Y869946D01*
X384184Y869853D01*
X384175D01*
X384157Y869844D01*
X384129Y869826D01*
X384092Y869807D01*
X383981Y869742D01*
X383852Y869659D01*
X383704Y869548D01*
X383556Y869410D01*
X383408Y869252D01*
X383278Y869077D01*
Y869068D01*
X383260Y869058D01*
X383251Y869031D01*
X383223Y868984D01*
X383204Y868938D01*
X383177Y868883D01*
X383112Y868744D01*
X383056Y868577D01*
X383001Y868383D01*
X382964Y868161D01*
X382955Y867930D01*
Y867838D01*
X382964Y867773D01*
X382973Y867690D01*
X382992Y867598D01*
X383010Y867496D01*
X383038Y867385D01*
X383075Y867255D01*
X383112Y867135D01*
X383167Y867006D01*
X383232Y866867D01*
X383306Y866738D01*
X383399Y866608D01*
X383491Y866479D01*
X383611Y866358D01*
X383620Y866349D01*
X383639Y866331D01*
X383676Y866303D01*
X383731Y866266D01*
X383796Y866211D01*
X383879Y866164D01*
X383981Y866109D01*
X384092Y866053D01*
X384221Y865989D01*
X384369Y865933D01*
X384526Y865887D01*
X384702Y865841D01*
X384887Y865795D01*
X385090Y865767D01*
X385312Y865748D01*
X385544Y865739D01*
X385562D01*
X385599D01*
X385664D01*
X385747Y865748D01*
X385849Y865758D01*
X385969Y865776D01*
X386107Y865795D01*
X386246Y865813D01*
X386561Y865887D01*
X386718Y865933D01*
X386875Y865998D01*
X387032Y866063D01*
X387180Y866146D01*
X387328Y866238D01*
X387457Y866349D01*
X387467Y866358D01*
X387485Y866377D01*
X387522Y866414D01*
X387559Y866460D01*
X387615Y866525D01*
X387670Y866599D01*
X387725Y866682D01*
X387790Y866784D01*
X387855Y866886D01*
X387910Y867006D01*
X387966Y867135D01*
X388021Y867274D01*
X388058Y867431D01*
X388095Y867588D01*
X388114Y867755D01*
X388123Y867930D01*
Y868014D01*
X388114Y868097D01*
X388105Y868208D01*
X388086Y868346D01*
X388049Y868485D01*
X388012Y868642D01*
X387957Y868790D01*
X387947Y868772D01*
X387910Y868725D01*
X387864Y868642D01*
X387809Y868540D01*
X387753Y868411D01*
X387688Y868272D01*
X387633Y868115D01*
X387587Y867949D01*
X386977Y868161D01*
Y868171D01*
X386986Y868198D01*
X386995Y868235D01*
X387014Y868282D01*
X387032Y868346D01*
X387060Y868420D01*
X387124Y868587D01*
X387217Y868781D01*
X387319Y868984D01*
X387439Y869178D01*
X387587Y869373D01*
X387578Y869382D01*
X387559Y869410D01*
X387513Y869447D01*
X387457Y869493D01*
X387383Y869548D01*
X387300Y869613D01*
X387198Y869678D01*
X387078Y869752D01*
X386940Y869816D01*
X386782Y869881D01*
X386616Y869946D01*
X386440Y870001D01*
X386237Y870057D01*
X386024Y870094D01*
X385793Y870112D01*
X385544Y870122D01*
D02*
G37*
G36*
X1035062Y534948D02*
X1035053D01*
X1035034D01*
X1034997D01*
X1034951Y534938D01*
X1034887D01*
X1034822Y534929D01*
X1034674Y534901D01*
X1034498Y534864D01*
X1034313Y534800D01*
X1034138Y534707D01*
X1033980Y534587D01*
X1033971D01*
X1033962Y534568D01*
X1033916Y534522D01*
X1033851Y534448D01*
X1033777Y534347D01*
X1033712Y534217D01*
X1033648Y534069D01*
X1033602Y533903D01*
X1033583Y533810D01*
Y533662D01*
X1033592Y533625D01*
X1033602Y533524D01*
X1033638Y533404D01*
X1033685Y533256D01*
X1033768Y533098D01*
X1033870Y532941D01*
X1033944Y532867D01*
X1034017Y532793D01*
X1034027D01*
X1034036Y532775D01*
X1034064Y532756D01*
X1034091Y532738D01*
X1034184Y532673D01*
X1034313Y532608D01*
X1034471Y532534D01*
X1034665Y532470D01*
X1034887Y532433D01*
X1035127Y532414D01*
X1035136D01*
X1035155D01*
X1035182D01*
X1035229Y532424D01*
X1035284D01*
X1035340Y532433D01*
X1035478Y532461D01*
X1035636Y532507D01*
X1035802Y532562D01*
X1035968Y532655D01*
X1036116Y532775D01*
X1036135Y532793D01*
X1036172Y532840D01*
X1036236Y532923D01*
X1036301Y533024D01*
X1036375Y533163D01*
X1036440Y533320D01*
X1036477Y533496D01*
X1036495Y533690D01*
Y533746D01*
X1036486Y533783D01*
X1036477Y533884D01*
X1036449Y534005D01*
X1036403Y534152D01*
X1036338Y534300D01*
X1036246Y534448D01*
X1036116Y534587D01*
X1036098Y534605D01*
X1036042Y534642D01*
X1035959Y534698D01*
X1035839Y534772D01*
X1035691Y534837D01*
X1035515Y534892D01*
X1035303Y534929D01*
X1035062Y534948D01*
D02*
G37*
G36*
X1036116Y529899D02*
X1036107D01*
X1036070D01*
X1036024D01*
X1035950Y529890D01*
X1035867D01*
X1035774Y529881D01*
X1035663Y529872D01*
X1035552Y529862D01*
X1035303Y529816D01*
X1035044Y529761D01*
X1034803Y529678D01*
X1034683Y529622D01*
X1034582Y529567D01*
X1034572D01*
X1034554Y529548D01*
X1034526Y529530D01*
X1034489Y529511D01*
X1034397Y529437D01*
X1034286Y529345D01*
X1034165Y529225D01*
X1034045Y529086D01*
X1033944Y528929D01*
X1033860Y528762D01*
X1033851Y528744D01*
X1033842Y528698D01*
X1033814Y528614D01*
X1033786Y528494D01*
X1033768Y528346D01*
X1033740Y528161D01*
X1033731Y528050D01*
Y527930D01*
X1033722Y527810D01*
Y526331D01*
X1038603D01*
Y527847D01*
X1038594Y527912D01*
X1038585Y528050D01*
X1038576Y528208D01*
X1038557Y528374D01*
X1038529Y528540D01*
X1038492Y528679D01*
X1038483Y528698D01*
X1038474Y528744D01*
X1038446Y528808D01*
X1038409Y528892D01*
X1038354Y528984D01*
X1038298Y529077D01*
X1038233Y529169D01*
X1038159Y529262D01*
X1038141Y529271D01*
X1038104Y529308D01*
X1038039Y529363D01*
X1037947Y529428D01*
X1037827Y529502D01*
X1037688Y529585D01*
X1037531Y529659D01*
X1037355Y529724D01*
X1037346D01*
X1037327Y529733D01*
X1037300Y529742D01*
X1037263Y529752D01*
X1037216Y529761D01*
X1037152Y529779D01*
X1037087Y529798D01*
X1037013Y529816D01*
X1036828Y529844D01*
X1036616Y529872D01*
X1036375Y529890D01*
X1036116Y529899D01*
D02*
G37*
G36*
X1400997Y602945D02*
X1398981D01*
Y600079D01*
X1400997Y602945D01*
D02*
G37*
G36*
X1405370Y604591D02*
X1405287D01*
X1405203Y604581D01*
X1405092Y604572D01*
X1404954Y604554D01*
X1404815Y604517D01*
X1404658Y604480D01*
X1404510Y604424D01*
X1404528Y604415D01*
X1404575Y604378D01*
X1404658Y604332D01*
X1404760Y604276D01*
X1404889Y604221D01*
X1405028Y604156D01*
X1405185Y604101D01*
X1405351Y604054D01*
X1405139Y603444D01*
X1405129D01*
X1405102Y603453D01*
X1405065Y603463D01*
X1405018Y603481D01*
X1404954Y603500D01*
X1404880Y603527D01*
X1404713Y603592D01*
X1404519Y603685D01*
X1404316Y603786D01*
X1404122Y603907D01*
X1403927Y604054D01*
X1403918Y604045D01*
X1403891Y604027D01*
X1403853Y603980D01*
X1403807Y603925D01*
X1403752Y603851D01*
X1403687Y603768D01*
X1403622Y603666D01*
X1403548Y603546D01*
X1403484Y603407D01*
X1403419Y603250D01*
X1403354Y603084D01*
X1403299Y602908D01*
X1403243Y602705D01*
X1403206Y602492D01*
X1403188Y602261D01*
X1403179Y602011D01*
Y602002D01*
Y601974D01*
Y601937D01*
Y601882D01*
X1403188Y601808D01*
Y601734D01*
X1403197Y601641D01*
X1403216Y601549D01*
X1403243Y601336D01*
X1403289Y601105D01*
X1403354Y600874D01*
X1403447Y600652D01*
Y600643D01*
X1403456Y600624D01*
X1403474Y600597D01*
X1403493Y600560D01*
X1403558Y600449D01*
X1403641Y600319D01*
X1403752Y600171D01*
X1403891Y600023D01*
X1404048Y599875D01*
X1404223Y599746D01*
X1404233D01*
X1404242Y599728D01*
X1404270Y599718D01*
X1404316Y599691D01*
X1404362Y599672D01*
X1404418Y599644D01*
X1404556Y599580D01*
X1404723Y599524D01*
X1404917Y599469D01*
X1405139Y599432D01*
X1405370Y599422D01*
X1405462D01*
X1405527Y599432D01*
X1405610Y599441D01*
X1405703Y599459D01*
X1405804Y599478D01*
X1405915Y599506D01*
X1406045Y599543D01*
X1406165Y599580D01*
X1406294Y599635D01*
X1406433Y599700D01*
X1406562Y599774D01*
X1406692Y599866D01*
X1406821Y599959D01*
X1406942Y600079D01*
X1406951Y600088D01*
X1406969Y600107D01*
X1406997Y600144D01*
X1407034Y600199D01*
X1407090Y600264D01*
X1407136Y600347D01*
X1407191Y600449D01*
X1407247Y600560D01*
X1407311Y600689D01*
X1407367Y600837D01*
X1407413Y600994D01*
X1407459Y601170D01*
X1407505Y601355D01*
X1407533Y601558D01*
X1407552Y601780D01*
X1407561Y602011D01*
Y602030D01*
Y602067D01*
Y602131D01*
X1407552Y602215D01*
X1407543Y602316D01*
X1407524Y602436D01*
X1407505Y602575D01*
X1407487Y602714D01*
X1407413Y603028D01*
X1407367Y603185D01*
X1407302Y603343D01*
X1407237Y603500D01*
X1407154Y603648D01*
X1407062Y603796D01*
X1406951Y603925D01*
X1406942Y603934D01*
X1406923Y603953D01*
X1406886Y603990D01*
X1406840Y604027D01*
X1406775Y604082D01*
X1406701Y604138D01*
X1406618Y604193D01*
X1406516Y604258D01*
X1406414Y604323D01*
X1406294Y604378D01*
X1406165Y604434D01*
X1406026Y604489D01*
X1405869Y604526D01*
X1405712Y604563D01*
X1405545Y604581D01*
X1405370Y604591D01*
D02*
G37*
G36*
X1158635Y205233D02*
X1156620Y202367D01*
X1158635D01*
Y205233D01*
D02*
G37*
G36*
X1284569Y605987D02*
X1284495D01*
X1284412Y605969D01*
X1284301Y605950D01*
X1284181Y605913D01*
X1284052Y605867D01*
X1283931Y605793D01*
X1283811Y605691D01*
X1283802Y605682D01*
X1283765Y605645D01*
X1283719Y605580D01*
X1283672Y605497D01*
X1283617Y605395D01*
X1283571Y605275D01*
X1283534Y605146D01*
X1283525Y604998D01*
Y604989D01*
Y604979D01*
X1283534Y604924D01*
X1283543Y604841D01*
X1283562Y604739D01*
X1283599Y604619D01*
X1283645Y604498D01*
X1283719Y604369D01*
X1283811Y604258D01*
X1283820Y604249D01*
X1283867Y604212D01*
X1283931Y604166D01*
X1284015Y604119D01*
X1284126Y604064D01*
X1284255Y604018D01*
X1284403Y603981D01*
X1284569Y603971D01*
X1284588D01*
X1284643Y603981D01*
X1284727Y603990D01*
X1284837Y604008D01*
X1284958Y604045D01*
X1285078Y604092D01*
X1285207Y604166D01*
X1285318Y604258D01*
X1285327Y604267D01*
X1285365Y604314D01*
X1285411Y604369D01*
X1285466Y604452D01*
X1285522Y604554D01*
X1285568Y604674D01*
X1285605Y604813D01*
X1285614Y604961D01*
Y604970D01*
Y604979D01*
Y605035D01*
X1285596Y605118D01*
X1285577Y605220D01*
X1285540Y605331D01*
X1285485Y605451D01*
X1285411Y605571D01*
X1285309Y605691D01*
X1285300Y605700D01*
X1285253Y605737D01*
X1285189Y605784D01*
X1285106Y605839D01*
X1284995Y605895D01*
X1284874Y605941D01*
X1284727Y605978D01*
X1284569Y605987D01*
D02*
G37*
G36*
X1284542Y603334D02*
X1284486D01*
X1284449Y603324D01*
X1284347Y603315D01*
X1284218Y603287D01*
X1284070Y603241D01*
X1283922Y603176D01*
X1283765Y603084D01*
X1283626Y602964D01*
X1283608Y602945D01*
X1283571Y602899D01*
X1283515Y602816D01*
X1283451Y602714D01*
X1283377Y602575D01*
X1283321Y602418D01*
X1283284Y602243D01*
X1283266Y602048D01*
Y602030D01*
Y601993D01*
X1283275Y601928D01*
X1283284Y601845D01*
X1283303Y601743D01*
X1283330Y601632D01*
X1283367Y601521D01*
X1283414Y601401D01*
X1283423Y601392D01*
X1283441Y601346D01*
X1283478Y601290D01*
X1283534Y601226D01*
X1283599Y601142D01*
X1283682Y601059D01*
X1283774Y600985D01*
X1283885Y600911D01*
X1283904Y600902D01*
X1283941Y600883D01*
X1284005Y600856D01*
X1284089Y600828D01*
X1284190Y600800D01*
X1284310Y600773D01*
X1284440Y600754D01*
X1284569Y600745D01*
X1284625D01*
X1284662Y600754D01*
X1284773Y600763D01*
X1284902Y600791D01*
X1285050Y600837D01*
X1285207Y600893D01*
X1285355Y600985D01*
X1285503Y601105D01*
X1285522Y601124D01*
X1285559Y601170D01*
X1285623Y601253D01*
X1285688Y601355D01*
X1285753Y601484D01*
X1285818Y601642D01*
X1285854Y601827D01*
X1285873Y602021D01*
Y602030D01*
Y602048D01*
Y602076D01*
X1285864Y602113D01*
X1285854Y602215D01*
X1285827Y602354D01*
X1285780Y602492D01*
X1285716Y602649D01*
X1285623Y602807D01*
X1285494Y602954D01*
X1285475Y602973D01*
X1285429Y603010D01*
X1285346Y603075D01*
X1285235Y603149D01*
X1285096Y603213D01*
X1284930Y603278D01*
X1284745Y603315D01*
X1284542Y603334D01*
D02*
G37*
G36*
X1381160Y688908D02*
X1381151D01*
X1381132D01*
X1381095D01*
X1381049Y688899D01*
X1380984D01*
X1380919Y688890D01*
X1380772Y688862D01*
X1380596Y688825D01*
X1380411Y688760D01*
X1380235Y688668D01*
X1380078Y688548D01*
X1380069D01*
X1380060Y688529D01*
X1380013Y688483D01*
X1379949Y688409D01*
X1379875Y688307D01*
X1379810Y688178D01*
X1379745Y688030D01*
X1379699Y687863D01*
X1379681Y687771D01*
Y687623D01*
X1379690Y687586D01*
X1379699Y687484D01*
X1379736Y687364D01*
X1379782Y687216D01*
X1379866Y687059D01*
X1379967Y686902D01*
X1380041Y686828D01*
X1380115Y686754D01*
X1380124D01*
X1380134Y686735D01*
X1380161Y686717D01*
X1380189Y686698D01*
X1380282Y686634D01*
X1380411Y686569D01*
X1380568Y686495D01*
X1380762Y686430D01*
X1380984Y686393D01*
X1381225Y686375D01*
X1381234D01*
X1381252D01*
X1381280D01*
X1381326Y686384D01*
X1381382D01*
X1381437Y686393D01*
X1381576Y686421D01*
X1381733Y686467D01*
X1381900Y686523D01*
X1382066Y686615D01*
X1382214Y686735D01*
X1382232Y686754D01*
X1382269Y686800D01*
X1382334Y686883D01*
X1382399Y686985D01*
X1382473Y687124D01*
X1382538Y687281D01*
X1382574Y687457D01*
X1382593Y687651D01*
Y687706D01*
X1382584Y687743D01*
X1382574Y687845D01*
X1382547Y687965D01*
X1382500Y688113D01*
X1382436Y688261D01*
X1382343Y688409D01*
X1382214Y688548D01*
X1382195Y688566D01*
X1382140Y688603D01*
X1382057Y688659D01*
X1381937Y688733D01*
X1381789Y688797D01*
X1381613Y688853D01*
X1381400Y688890D01*
X1381160Y688908D01*
D02*
G37*
G36*
X1246670Y821124D02*
X1245153D01*
X1245089Y821115D01*
X1244950Y821106D01*
X1244793Y821096D01*
X1244626Y821078D01*
X1244460Y821050D01*
X1244321Y821013D01*
X1244303Y821004D01*
X1244257Y820995D01*
X1244192Y820967D01*
X1244109Y820930D01*
X1244016Y820875D01*
X1243924Y820819D01*
X1243831Y820754D01*
X1243739Y820680D01*
X1243730Y820662D01*
X1243693Y820625D01*
X1243637Y820560D01*
X1243572Y820468D01*
X1243498Y820348D01*
X1243415Y820209D01*
X1243341Y820052D01*
X1243277Y819876D01*
Y819867D01*
X1243267Y819848D01*
X1243258Y819821D01*
X1243249Y819784D01*
X1243240Y819737D01*
X1243221Y819673D01*
X1243203Y819608D01*
X1243184Y819534D01*
X1243156Y819349D01*
X1243129Y819137D01*
X1243110Y818896D01*
X1243101Y818637D01*
Y818628D01*
Y818591D01*
Y818545D01*
X1243110Y818471D01*
Y818388D01*
X1243119Y818295D01*
X1243129Y818184D01*
X1243138Y818073D01*
X1243184Y817824D01*
X1243240Y817565D01*
X1243323Y817324D01*
X1243378Y817204D01*
X1243434Y817102D01*
Y817093D01*
X1243452Y817075D01*
X1243471Y817047D01*
X1243489Y817010D01*
X1243563Y816917D01*
X1243656Y816807D01*
X1243776Y816686D01*
X1243914Y816566D01*
X1244072Y816464D01*
X1244238Y816381D01*
X1244257Y816372D01*
X1244303Y816363D01*
X1244386Y816335D01*
X1244506Y816307D01*
X1244654Y816289D01*
X1244839Y816261D01*
X1244950Y816252D01*
X1245070D01*
X1245190Y816243D01*
X1246670D01*
Y821124D01*
D02*
G37*
G36*
X1247874Y525951D02*
X1247864D01*
X1247837D01*
X1247800D01*
X1247744D01*
X1247670Y525942D01*
X1247596D01*
X1247504Y525933D01*
X1247411Y525914D01*
X1247198Y525887D01*
X1246967Y525841D01*
X1246736Y525776D01*
X1246514Y525683D01*
X1246505D01*
X1246487Y525674D01*
X1246459Y525656D01*
X1246422Y525637D01*
X1246311Y525572D01*
X1246181Y525489D01*
X1246034Y525378D01*
X1245886Y525240D01*
X1245738Y525082D01*
X1245608Y524907D01*
Y524897D01*
X1245590Y524888D01*
X1245581Y524860D01*
X1245553Y524814D01*
X1245534Y524768D01*
X1245507Y524713D01*
X1245442Y524574D01*
X1245386Y524408D01*
X1245331Y524213D01*
X1245294Y523991D01*
X1245285Y523760D01*
Y523668D01*
X1245294Y523603D01*
X1245303Y523520D01*
X1245322Y523428D01*
X1245340Y523326D01*
X1245368Y523215D01*
X1245405Y523085D01*
X1245442Y522965D01*
X1245497Y522836D01*
X1245562Y522697D01*
X1245636Y522568D01*
X1245729Y522438D01*
X1245821Y522309D01*
X1245941Y522188D01*
X1245950Y522179D01*
X1245969Y522161D01*
X1246006Y522133D01*
X1246061Y522096D01*
X1246126Y522041D01*
X1246209Y521994D01*
X1246311Y521939D01*
X1246422Y521883D01*
X1246551Y521819D01*
X1246699Y521763D01*
X1246856Y521717D01*
X1247032Y521671D01*
X1247217Y521625D01*
X1247420Y521597D01*
X1247642Y521578D01*
X1247874Y521569D01*
X1247892D01*
X1247929D01*
X1247994D01*
X1248077Y521578D01*
X1248179Y521588D01*
X1248299Y521606D01*
X1248437Y521625D01*
X1248576Y521643D01*
X1248891Y521717D01*
X1249048Y521763D01*
X1249205Y521828D01*
X1249362Y521893D01*
X1249510Y521976D01*
X1249658Y522068D01*
X1249787Y522179D01*
X1249797Y522188D01*
X1249815Y522207D01*
X1249852Y522244D01*
X1249889Y522290D01*
X1249945Y522355D01*
X1250000Y522429D01*
X1250055Y522512D01*
X1250120Y522614D01*
X1250185Y522715D01*
X1250240Y522836D01*
X1250296Y522965D01*
X1250351Y523104D01*
X1250388Y523261D01*
X1250425Y523418D01*
X1250444Y523585D01*
X1250453Y523760D01*
Y523843D01*
X1250444Y523927D01*
X1250434Y524038D01*
X1250416Y524176D01*
X1250379Y524315D01*
X1250342Y524472D01*
X1250287Y524620D01*
X1250277Y524602D01*
X1250240Y524555D01*
X1250194Y524472D01*
X1250139Y524370D01*
X1250083Y524241D01*
X1250018Y524102D01*
X1249963Y523945D01*
X1249917Y523779D01*
X1249306Y523991D01*
Y524001D01*
X1249316Y524028D01*
X1249325Y524065D01*
X1249343Y524112D01*
X1249362Y524176D01*
X1249390Y524250D01*
X1249454Y524417D01*
X1249547Y524611D01*
X1249649Y524814D01*
X1249769Y525008D01*
X1249917Y525203D01*
X1249908Y525212D01*
X1249889Y525240D01*
X1249843Y525277D01*
X1249787Y525323D01*
X1249713Y525378D01*
X1249630Y525443D01*
X1249528Y525508D01*
X1249408Y525582D01*
X1249269Y525646D01*
X1249112Y525711D01*
X1248946Y525776D01*
X1248770Y525831D01*
X1248567Y525887D01*
X1248354Y525924D01*
X1248123Y525942D01*
X1247874Y525951D01*
D02*
G37*
G36*
X1422330Y328094D02*
X1422321D01*
X1422312D01*
X1422256Y328084D01*
X1422173Y328075D01*
X1422062Y328057D01*
X1421951Y328010D01*
X1421822Y327955D01*
X1421702Y327872D01*
X1421581Y327761D01*
X1421572Y327742D01*
X1421535Y327696D01*
X1421489Y327622D01*
X1421433Y327502D01*
X1421378Y327363D01*
X1421332Y327178D01*
X1421295Y326966D01*
X1421285Y326716D01*
Y324701D01*
X1423403D01*
Y326605D01*
X1423393Y326716D01*
X1423384Y326846D01*
X1423375Y326993D01*
X1423356Y327141D01*
X1423329Y327289D01*
X1423292Y327419D01*
X1423282Y327437D01*
X1423264Y327474D01*
X1423236Y327530D01*
X1423199Y327604D01*
X1423144Y327687D01*
X1423079Y327770D01*
X1422996Y327853D01*
X1422903Y327918D01*
X1422894Y327927D01*
X1422857Y327946D01*
X1422802Y327974D01*
X1422728Y328010D01*
X1422645Y328038D01*
X1422552Y328066D01*
X1422441Y328084D01*
X1422330Y328094D01*
D02*
G37*
G36*
X1364450Y604591D02*
X1364367D01*
X1364283Y604581D01*
X1364173Y604572D01*
X1364034Y604554D01*
X1363895Y604517D01*
X1363738Y604480D01*
X1363590Y604424D01*
X1363609Y604415D01*
X1363655Y604378D01*
X1363738Y604332D01*
X1363840Y604276D01*
X1363969Y604221D01*
X1364108Y604156D01*
X1364265Y604101D01*
X1364431Y604054D01*
X1364219Y603444D01*
X1364209D01*
X1364182Y603453D01*
X1364145Y603463D01*
X1364099Y603481D01*
X1364034Y603500D01*
X1363960Y603527D01*
X1363793Y603592D01*
X1363599Y603685D01*
X1363396Y603786D01*
X1363202Y603907D01*
X1363008Y604054D01*
X1362998Y604045D01*
X1362971Y604027D01*
X1362934Y603980D01*
X1362887Y603925D01*
X1362832Y603851D01*
X1362767Y603768D01*
X1362702Y603666D01*
X1362628Y603546D01*
X1362564Y603407D01*
X1362499Y603250D01*
X1362434Y603084D01*
X1362379Y602908D01*
X1362323Y602705D01*
X1362286Y602492D01*
X1362268Y602261D01*
X1362259Y602011D01*
Y602002D01*
Y601974D01*
Y601937D01*
Y601882D01*
X1362268Y601808D01*
Y601734D01*
X1362277Y601641D01*
X1362296Y601549D01*
X1362323Y601336D01*
X1362370Y601105D01*
X1362434Y600874D01*
X1362527Y600652D01*
Y600643D01*
X1362536Y600624D01*
X1362554Y600597D01*
X1362573Y600560D01*
X1362638Y600449D01*
X1362721Y600319D01*
X1362832Y600171D01*
X1362971Y600023D01*
X1363128Y599875D01*
X1363303Y599746D01*
X1363313D01*
X1363322Y599728D01*
X1363350Y599718D01*
X1363396Y599691D01*
X1363442Y599672D01*
X1363498Y599644D01*
X1363636Y599580D01*
X1363803Y599524D01*
X1363997Y599469D01*
X1364219Y599432D01*
X1364450Y599422D01*
X1364542D01*
X1364607Y599432D01*
X1364690Y599441D01*
X1364783Y599459D01*
X1364884Y599478D01*
X1364995Y599506D01*
X1365125Y599543D01*
X1365245Y599580D01*
X1365374Y599635D01*
X1365513Y599700D01*
X1365643Y599774D01*
X1365772Y599866D01*
X1365901Y599959D01*
X1366022Y600079D01*
X1366031Y600088D01*
X1366049Y600107D01*
X1366077Y600144D01*
X1366114Y600199D01*
X1366170Y600264D01*
X1366216Y600347D01*
X1366271Y600449D01*
X1366327Y600560D01*
X1366391Y600689D01*
X1366447Y600837D01*
X1366493Y600994D01*
X1366539Y601170D01*
X1366586Y601355D01*
X1366613Y601558D01*
X1366632Y601780D01*
X1366641Y602011D01*
Y602030D01*
Y602067D01*
Y602131D01*
X1366632Y602215D01*
X1366623Y602316D01*
X1366604Y602436D01*
X1366586Y602575D01*
X1366567Y602714D01*
X1366493Y603028D01*
X1366447Y603185D01*
X1366382Y603343D01*
X1366317Y603500D01*
X1366234Y603648D01*
X1366142Y603796D01*
X1366031Y603925D01*
X1366022Y603934D01*
X1366003Y603953D01*
X1365966Y603990D01*
X1365920Y604027D01*
X1365855Y604082D01*
X1365781Y604138D01*
X1365698Y604193D01*
X1365596Y604258D01*
X1365495Y604323D01*
X1365374Y604378D01*
X1365245Y604434D01*
X1365106Y604489D01*
X1364949Y604526D01*
X1364792Y604563D01*
X1364626Y604581D01*
X1364450Y604591D01*
D02*
G37*
G36*
X1322489Y536452D02*
X1320973D01*
X1320909Y536443D01*
X1320770Y536433D01*
X1320613Y536424D01*
X1320446Y536406D01*
X1320280Y536378D01*
X1320141Y536341D01*
X1320123Y536332D01*
X1320076Y536323D01*
X1320012Y536295D01*
X1319928Y536258D01*
X1319836Y536202D01*
X1319743Y536147D01*
X1319651Y536082D01*
X1319559Y536008D01*
X1319549Y535990D01*
X1319512Y535953D01*
X1319457Y535888D01*
X1319392Y535796D01*
X1319318Y535675D01*
X1319235Y535537D01*
X1319161Y535379D01*
X1319096Y535204D01*
Y535195D01*
X1319087Y535176D01*
X1319078Y535148D01*
X1319069Y535111D01*
X1319059Y535065D01*
X1319041Y535000D01*
X1319022Y534936D01*
X1319004Y534862D01*
X1318976Y534677D01*
X1318948Y534464D01*
X1318930Y534224D01*
X1318921Y533965D01*
Y533956D01*
Y533919D01*
Y533872D01*
X1318930Y533798D01*
Y533715D01*
X1318939Y533623D01*
X1318948Y533512D01*
X1318958Y533401D01*
X1319004Y533151D01*
X1319059Y532892D01*
X1319143Y532652D01*
X1319198Y532532D01*
X1319254Y532430D01*
Y532421D01*
X1319272Y532402D01*
X1319290Y532375D01*
X1319309Y532338D01*
X1319383Y532245D01*
X1319475Y532134D01*
X1319596Y532014D01*
X1319734Y531894D01*
X1319892Y531792D01*
X1320058Y531709D01*
X1320076Y531700D01*
X1320123Y531690D01*
X1320206Y531663D01*
X1320326Y531635D01*
X1320474Y531617D01*
X1320659Y531589D01*
X1320770Y531580D01*
X1320890D01*
X1321010Y531570D01*
X1322489D01*
Y536452D01*
D02*
G37*
%LPD*%
D15*
X654000Y738500D02*
Y1001250D01*
Y738500D02*
X846000D01*
Y1001250D01*
X654000D02*
X846000D01*
X752979Y428810D02*
X804041D01*
X752979D02*
Y467810D01*
X804041D01*
Y428810D02*
Y467810D01*
X1033250Y707010D02*
Y723010D01*
Y707010D02*
X1062250D01*
Y723010D01*
X1033250D02*
X1062250D01*
X1194070Y929402D02*
X1307830D01*
Y1079230D01*
X1194070D02*
X1307830D01*
X1194070Y929402D02*
Y1079230D01*
X1030650Y948780D02*
Y985030D01*
X988650D02*
X1030650D01*
X988650Y948780D02*
Y985030D01*
Y948780D02*
X1030650D01*
X561371Y575620D02*
Y608020D01*
Y575620D02*
X590549D01*
Y608020D01*
X561371D02*
X590549D01*
X579250Y460500D02*
X700750D01*
X579250D02*
Y519500D01*
X700750D01*
Y460500D02*
Y519500D01*
X369580Y847870D02*
Y881870D01*
X405120D01*
Y847870D02*
Y881870D01*
X369580Y847870D02*
X405120D01*
X1026590Y499480D02*
Y551480D01*
X1048590D01*
Y499480D02*
Y551480D01*
X1026590Y499480D02*
X1048590D01*
X1390430Y587200D02*
X1426430D01*
X1390430D02*
Y624200D01*
X1426430D01*
Y587200D02*
Y624200D01*
X1033000Y377000D02*
X1267000D01*
Y23000D02*
Y377000D01*
X1033000Y23000D02*
X1267000D01*
X1033000D02*
Y377000D01*
X893128Y539816D02*
X925190D01*
X893128D02*
Y563816D01*
X925190D01*
Y539816D02*
Y563816D01*
X1257100Y590980D02*
Y612980D01*
Y590980D02*
X1295600D01*
Y612980D01*
X1257100D02*
X1295600D01*
X1373070Y662588D02*
X1398070D01*
Y696312D01*
X1373070D02*
X1398070D01*
X1373070Y662588D02*
Y696312D01*
X1058836Y499370D02*
X1092544D01*
Y468370D02*
Y499370D01*
X1058836Y468370D02*
X1092544D01*
X1058836D02*
Y499370D01*
X1351000Y739000D02*
Y901000D01*
X1159000D02*
X1351000D01*
X1159000Y739000D02*
Y901000D01*
Y739000D02*
X1351000D01*
X1190863Y560340D02*
Y587740D01*
X1115457D02*
X1190863D01*
X1115457Y560340D02*
Y587740D01*
Y560340D02*
X1190863D01*
X1230980Y505990D02*
X1268380D01*
Y535410D01*
X1230980D02*
X1268380D01*
X1230980Y505990D02*
Y535410D01*
X1401200Y303350D02*
X1449200D01*
Y344350D01*
X1401200D02*
X1449200D01*
X1401200Y303350D02*
Y344350D01*
X1385510Y587200D02*
Y624200D01*
X1349510D02*
X1385510D01*
X1349510Y587200D02*
Y624200D01*
Y587200D02*
X1385510D01*
X1053960Y506170D02*
X1099960D01*
X1053960D02*
Y547930D01*
X1099960D01*
Y506170D02*
Y547930D01*
X1311840Y531460D02*
X1334840D01*
X1311840D02*
Y542960D01*
X1334840D01*
Y531460D02*
Y542960D01*
M02*
