M48
;Layer_Color=9474304
;FILE_FORMAT=4:4
METRIC,LZ
;TYPE=PLATED
T01F00S00C0.2000
T02F00S00C0.3000
T03F00S00C0.4000
T04F00S00C0.5000
T06F00S00C0.8000
T07F00S00C0.8890
T08F00S00C0.9500
T09F00S00C1.0000
T10F00S00C1.1000
T11F00S00C1.3000
T12F00S00C1.6000
T14F00S00C3.3000
;TYPE=NON_PLATED
T15F00S00C0.8500
T17F00S00C0.9906
T18F00S00C1.8000
T19F00S00C2.2000
T20F00S00C2.3000
T21F00S00C2.3749
%
T01
X0138684Y0049276
X0141475Y00496
Y00504
X0143891Y0049911
T02
X00034125Y00033636
X0005Y0002714
X00065876Y00033636
X0007286Y0005
X00065876Y00066364
X0005Y0007286
X00034125Y00066364
X0002714Y0005
X0142714
X01434124Y00033636
X0145Y0002714
X01465876Y00033636
X0147286Y0005
X01465876Y00066364
X0145Y0007286
X01434124Y00066364
X0137922Y002667
X0137901Y0027416
X0137922Y0028194
X014097Y0035179
X0050673Y0043942
Y0044958
X0010541Y008128
X0005842Y0082677
X0005715Y0079502
X0002667Y0080137
X00034125Y00933636
X0005Y0092714
X00065876Y00933636
X0029464Y0079502
X003048
X0031496Y0079629
X0032512Y0078486
X00354394Y00795084
X0036195Y0080645
X0043053Y0078359
X0039116Y0071247
X0039624Y0070612
X0039243Y0069977
X003175Y0069723
X0029972Y0070231
X002921Y0070866
X0028448Y0071374
X0031242Y0074422
X0027178Y0065786
X0027559Y0065024
X0027813Y0064262
X0028575Y0063246
X0026543Y0066421
X0033528Y006223
X0034544
X0051181Y0061595
X0052451Y0061087
X005334Y0070104
X0059563Y0073787
X0063881Y0075692
X0066167Y0074676
X0065278Y0070231
X0070612Y0072898
X0068453Y0079248
X0067941Y008484
X0067945Y0086106
X0082169
X008191Y0089916
X0085598Y0091186
X008636Y0088646
X0085594Y008738
X0085471Y0083566
Y0082296
Y0079756
Y0078486
X0086106Y0076327
X0082042Y0075946
X0079375Y0076454
Y0077343
Y0078486
X0096717Y00783
Y00794
X00970245Y00805305
Y00816305
X01016Y0088773
X0101092Y0089408
X0100457Y009017
X0100203Y0091059
Y0091948
Y0092837
Y0093599
X0101727Y0092837
Y0091059
X01022042Y00904548
X0102743Y0089916
X01033472Y00893118
X0104013Y0088773
X0104775Y0088646
X0105537
Y0087249
X0104775
X0103886
X0102997Y0087503
X0102362Y0088138
X0120142Y0088265
X0120904
X0121666
X0122555Y0088519
X01230938Y00890578
X01236326Y00895966
X0124206Y009017
X0124841Y0090805
X0125476Y009144
X012573Y0092456
Y0093218
X012446
Y0092456
X0123825Y0091821
X012319Y0091186
X0122555Y0090551
X0121793Y0089916
X0121031Y0089789
X0120142
X012065Y0078994
X0124079Y0081026
X0129959Y0079
X0129921Y0076962
X0129959Y0085
X01434124Y00933636
X0145Y0092714
X01465876Y00933636
X01416558Y0060706
Y0059817
X01409192Y00602742
X0140081Y0060706
X01401064Y0059817
X0137513Y0059808
Y0060697
X01367256Y00602906
X0135989Y0060697
Y0059808
X0142714Y0095
X01434124Y00966364
X0145Y0097286
X01465876Y00966364
X0147286Y0095
X0133232Y0095504
X0132334
X0131436
Y0096774
X0132334
X0133232
Y0098171
X0132334
X0131436
X012573Y009398
X012446
X0118763Y0095504
X0117865
X0116967
Y0096774
X0117865
X0118763
Y0098171
X0117865
X0116967
X010414Y0097663
Y0097028
Y0096393
X0101727Y0094488
Y0093726
X0100203Y0094488
X009779Y0096393
Y0097028
Y0097663
X00065876Y00966364
X0005Y0097286
X00034125Y00966364
X0002714Y0095
X0007286
T03
X0017145Y0013208
X012954Y0012954
X013335Y0020701
Y0021717
Y0022733
X013462Y0020701
X0142367Y0022098
X0143383
Y0023368
X0142367
Y0024511
X0143383
X0144526Y0026924
X0144272Y0034671
X013716Y0041656
Y0043815
X0138049Y0045466
X0141475Y00472
X0142175Y00476
Y00484
Y00492
X0141475Y00488
Y00512
X0142175Y00508
Y00516
Y00524
X0141475Y00528
X01376426Y00514096
X01366774
X01356868
X0134366Y0053721
X0145923Y0050419
X011303Y0050927
X0111887
X0110744
X011176Y0052324
X011303
X0114554Y0047752
Y0046736
Y004572
X0113538
X0112522
X010795Y0048133
X0101854Y0047879
Y0048895
Y0049784
Y0050673
X0100838
Y0049784
Y0048895
Y0047879
X0097409Y0046101
X0103632Y0044831
Y0043561
X0104648
X011303Y002794
X0104775Y0019685
X0128524Y00254
Y0026924
X0128539Y0028956
X0084455Y0040767
Y004191
X0083312
Y0040767
X0082042
Y004191
X0083312Y004318
X0084455
X00852009Y00480696
X00863439
X008636Y0049403
X0087503
X0085217
X00852009Y00509906
X00860899
X008763Y0046609
X00889Y0046228
X00909159Y00492126
X0081534Y0046736
X007874Y0049276
X0078105Y0052832
X0080772Y0053213
X0074295Y0052832
X0075819Y0047752
X0072898Y0047244
X0070358Y0043434
Y0042418
X0069215
Y0043434
X0068072
Y0042418
X0074295Y0040386
X0054356Y0042672
X0052705Y004826
X0048133
X0047498Y0042037
X0039878Y0036322
X0020574Y0037211
X0018796
X0011938Y0039878
X0012192Y0017907
X0009533Y0070741
X0007493Y0070739
X0012827Y0079248
X0015746Y007366
Y0071628
X0018161Y0067818
X0020058Y0066167
X002209
X0022225Y0077724
X0019901Y0076073
X0026543Y0081026
X002794
X0028956Y0082423
X0030734Y0078215
X0035687Y0077597
X0033528Y0085217
X0041198Y0083566
X0051181Y0084582
X0037846Y0061341
X0035433Y0063627
X0032131Y0061849
X0057658Y0058293
X0063373Y0066675
X0071501Y0065405
X0073914Y0063246
X0075692
X0074803Y006223
X0073914Y0061214
X0075692
X0075819Y0057658
X0074422
X0075311Y0056515
X0077597Y0065405
X0078486Y0067564
X0080899Y0067818
X0088265Y0067691
X0088646Y0076327
X0092202Y0073152
X0092456Y0084709
X0093091Y00889
X0082042Y0092456
X0068072Y0089916
X0064643Y0092456
X0059182Y0091186
X0060706Y0085852
X0062865
X0054862Y0084074
Y0081788
X0054483Y0087503
X0057023Y0072867
X0069215Y0073025
X007239Y0081026
Y0082042
X0073533
Y0081026
X0074676
Y0082042
X0105029Y0081534
X0109855Y0080899
Y0079375
X0113538Y0076962
X010922Y0070231
X0105791Y0070612
X0102743Y0069469
Y0068199
X0103124Y0067056
X0104394Y0065151
X0107315Y0057531
X0108585
X0109855
X0110617Y0053975
X011176
X0112903
X0118364Y0054356
Y0055245
X0119507
Y0054356
X0121793Y0054864
X0122809
Y0053975
X0123825
Y0054864
X0124841
Y0053975
X0128524Y0054356
Y0055245
X0127381Y0057531
X0126365
X0127635Y0060198
X0130302Y0059436
X0129286Y0062865
X0130683Y0064135
X013081Y0068326
X013208
X0130429Y0075057
X0125857Y0072136
X0125769Y0070954
X0123825Y0064262
X0121412Y0062611
Y0061722
Y0060833
X0120396
Y0061722
Y0062611
X011938Y0066802
X0114554Y0086995
X0106934Y0090297
X0100457Y0056515
Y0055245
Y0053975
X00977739Y00544196
Y00561976
X00964193
X00950646
X00937099
X0137726Y006289
X0135763Y0072009
X0136906Y0085725
X0136144Y0089027
X0062854Y0094234
X0060706
T04
X0059625Y00507
X0060875
X0062125
X0063375
X0064625
X0065875
X0067125
X0068375
T06
X014296Y0080026
Y0082026
T07
X0112776Y0057404
X0115316
X0117856
T08
X0023Y004
Y0045
X00375
Y00425
Y004
T09
X01251Y00039
Y000644
Y000898
Y001152
Y001406
Y00166
Y001914
T10
X0005Y001796
Y00205
Y002304
Y002558
Y003992
Y004246
Y0045
Y004754
X0055Y00965
X005754
X005246
X003866Y00955
X003612
X003358
X003104
X00285
X002596
X002342
X002088
T11
X0139446Y0016256
X0141986
T12
X00239976Y00132408
X00305Y00094816
X00370024Y00132408
X013462Y0016129
X0123571Y0047498
X0101346Y0042799
X00370024Y00207592
X00239976
X009017Y0059817
T14
X0005Y0005
X0145
Y0095
X0005
T15
X0140825Y00464
T17
X0004191Y0081153
X0009271Y0082169
Y0080137
T18
X0121225Y0004
X0105Y0036
T19
X0055Y00055
X0095
Y00335
X0055
T20
X0016562Y005613
X0043486
X0043518Y0093953
X0016562Y0093976
T21
X0004191Y0078613
X0007366
Y0083693
X0004191
M30
